%TF.GenerationSoftware,Altium Limited,Altium Designer,21.7.2 (23)*%
G04 Layer_Color=8421504*
%FSLAX26Y26*%
%MOIN*%
%TF.SameCoordinates,C96B85AD-BFD8-4542-BB89-30D630789AD8*%
%TF.FilePolarity,Positive*%
%TF.FileFunction,Paste,Top*%
%TF.Part,Single*%
G01*
G75*
%TA.AperFunction,SMDPad,CuDef*%
%ADD10R,0.041339X0.031496*%
%ADD11R,0.053150X0.021654*%
%ADD12R,0.035433X0.039370*%
%ADD13R,0.025591X0.035433*%
%ADD14R,0.023622X0.051181*%
%ADD15R,0.022671X0.061982*%
G04:AMPARAMS|DCode=16|XSize=61.982mil|YSize=22.671mil|CornerRadius=11.335mil|HoleSize=0mil|Usage=FLASHONLY|Rotation=90.000|XOffset=0mil|YOffset=0mil|HoleType=Round|Shape=RoundedRectangle|*
%AMROUNDEDRECTD16*
21,1,0.061982,0.000000,0,0,90.0*
21,1,0.039312,0.022671,0,0,90.0*
1,1,0.022670,0.000000,0.019656*
1,1,0.022670,0.000000,-0.019656*
1,1,0.022670,0.000000,-0.019656*
1,1,0.022670,0.000000,0.019656*
%
%ADD16ROUNDEDRECTD16*%
%ADD17R,0.114173X0.094488*%
G04:AMPARAMS|DCode=18|XSize=25.591mil|YSize=64.961mil|CornerRadius=1.919mil|HoleSize=0mil|Usage=FLASHONLY|Rotation=90.000|XOffset=0mil|YOffset=0mil|HoleType=Round|Shape=RoundedRectangle|*
%AMROUNDEDRECTD18*
21,1,0.025591,0.061122,0,0,90.0*
21,1,0.021752,0.064961,0,0,90.0*
1,1,0.003839,0.030561,0.010876*
1,1,0.003839,0.030561,-0.010876*
1,1,0.003839,-0.030561,-0.010876*
1,1,0.003839,-0.030561,0.010876*
%
%ADD18ROUNDEDRECTD18*%
%ADD19R,0.039370X0.035433*%
%ADD20R,0.024493X0.097211*%
G04:AMPARAMS|DCode=21|XSize=97.211mil|YSize=24.493mil|CornerRadius=12.247mil|HoleSize=0mil|Usage=FLASHONLY|Rotation=90.000|XOffset=0mil|YOffset=0mil|HoleType=Round|Shape=RoundedRectangle|*
%AMROUNDEDRECTD21*
21,1,0.097211,0.000000,0,0,90.0*
21,1,0.072718,0.024493,0,0,90.0*
1,1,0.024493,0.000000,0.036359*
1,1,0.024493,0.000000,-0.036359*
1,1,0.024493,0.000000,-0.036359*
1,1,0.024493,0.000000,0.036359*
%
%ADD21ROUNDEDRECTD21*%
%ADD22R,0.057331X0.054255*%
%ADD23R,0.047244X0.023622*%
D10*
X990158Y1800197D02*
D03*
Y1873032D02*
D03*
D11*
X727362Y778543D02*
D03*
Y701772D02*
D03*
X2725394Y1132874D02*
D03*
Y1056102D02*
D03*
X1110236Y2020669D02*
D03*
Y2097441D02*
D03*
D12*
X1279528Y928150D02*
D03*
Y857283D02*
D03*
X2607284Y1388780D02*
D03*
Y1459646D02*
D03*
X2476378Y1602362D02*
D03*
Y1673228D02*
D03*
X2259843Y1606299D02*
D03*
Y1677165D02*
D03*
X1925197Y1633858D02*
D03*
Y1562992D02*
D03*
X2325787Y1428149D02*
D03*
Y1499016D02*
D03*
X1925197Y1897638D02*
D03*
Y1968504D02*
D03*
D13*
X2355315Y1834646D02*
D03*
X2400590D02*
D03*
D14*
X1651575Y1891732D02*
D03*
X1726378D02*
D03*
X1688976Y1974409D02*
D03*
X1436024Y1968504D02*
D03*
X1510827D02*
D03*
X1473425Y2051181D02*
D03*
D15*
X1415354Y1548415D02*
D03*
X1651575Y1568100D02*
D03*
D16*
X1490158Y1548415D02*
D03*
X1452756Y1618110D02*
D03*
X1688976Y1637795D02*
D03*
X1726378Y1568100D02*
D03*
D17*
X1181102Y1366142D02*
D03*
Y1606299D02*
D03*
D18*
X1095472Y771457D02*
D03*
Y821457D02*
D03*
Y871457D02*
D03*
Y921457D02*
D03*
X873032Y771457D02*
D03*
Y821457D02*
D03*
Y871457D02*
D03*
Y921457D02*
D03*
D19*
X1618110Y1220472D02*
D03*
X1688976D02*
D03*
X2338583Y885827D02*
D03*
X2267717D02*
D03*
X2639764Y887795D02*
D03*
X2568898D02*
D03*
D20*
X2460630Y1050110D02*
D03*
D21*
X2510630D02*
D03*
X2560630D02*
D03*
X2610630Y1240158D02*
D03*
X2560630D02*
D03*
X2510630D02*
D03*
X2460630D02*
D03*
X2610630Y1050110D02*
D03*
D22*
X988681Y2037340D02*
D03*
Y2097502D02*
D03*
D23*
X1305118Y2076772D02*
D03*
Y2001968D02*
D03*
X1206693D02*
D03*
Y2039370D02*
D03*
Y2076772D02*
D03*
%TF.MD5,f7e4db79ed544af349e4401558e17e1c*%
M02*
