%TF.GenerationSoftware,Altium Limited,Altium Designer,21.7.2 (23)*%
G04 Layer_Color=32896*
%FSLAX26Y26*%
%MOIN*%
%TF.SameCoordinates,C96B85AD-BFD8-4542-BB89-30D630789AD8*%
%TF.FilePolarity,Positive*%
%TF.FileFunction,Other,Mechanical_20*%
%TF.Part,Single*%
G01*
G75*
%TA.AperFunction,NonConductor*%
%ADD43C,0.003937*%
%ADD54C,0.001968*%
D43*
X2177165Y825591D02*
Y999213D01*
X1798425D02*
X2177165D01*
X1798425Y825591D02*
Y999213D01*
Y825591D02*
X2177165D01*
X1736220Y831496D02*
Y1005118D01*
X1357480D02*
X1736220D01*
X1357480Y831496D02*
Y1005118D01*
Y831496D02*
X1736220D01*
D54*
X2307087Y1889764D02*
X2448819D01*
Y1779527D02*
Y1889764D01*
X2307087Y1779527D02*
X2448819D01*
X2307087D02*
Y1889764D01*
X1619291Y1856299D02*
Y2009842D01*
X1758661D01*
Y1856299D02*
Y2009842D01*
X1619291Y1856299D02*
X1758661D01*
X1403740Y1933071D02*
Y2086614D01*
X1543110D01*
Y1933071D02*
Y2086614D01*
X1403740Y1933071D02*
X1543110D01*
X3218504Y603937D02*
X3340551D01*
X3218504D02*
Y827559D01*
X3340551D01*
Y603937D02*
Y827559D01*
X307087Y576968D02*
X429134D01*
X307087D02*
Y800591D01*
X429134D01*
Y576968D02*
Y800591D01*
X2871457Y844095D02*
Y2828347D01*
X3178346D01*
Y844095D02*
Y2828347D01*
X2871457Y844095D02*
X3178346D01*
X1173228Y1970473D02*
Y2108268D01*
Y1970473D02*
X1338583D01*
Y2108268D01*
X1173228D02*
X1338583D01*
X471457Y844095D02*
Y2828347D01*
X778346D01*
Y844095D02*
Y2828347D01*
X471457Y844095D02*
X778346D01*
%TF.MD5,927e9edf61e2b9b6887da6655a332a8c*%
M02*
