G04*
G04 #@! TF.GenerationSoftware,Altium Limited,Altium Designer,21.7.2 (23)*
G04*
G04 Layer_Physical_Order=2*
G04 Layer_Color=16711680*
%FSLAX25Y25*%
%MOIN*%
G70*
G04*
G04 #@! TF.SameCoordinates,D3FEB1F4-64F0-4DD7-B9EC-0FE9DF2A92DD*
G04*
G04*
G04 #@! TF.FilePolarity,Positive*
G04*
G01*
G75*
%ADD10C,0.00394*%
%ADD11C,0.00787*%
%ADD16C,0.04724*%
%ADD17C,0.00197*%
%ADD44C,0.06181*%
%ADD45R,0.06181X0.06181*%
%ADD47C,0.07874*%
%ADD48C,0.27559*%
%ADD49C,0.06024*%
%ADD50R,0.06024X0.06024*%
%ADD51R,0.06496X0.06496*%
%ADD52C,0.06496*%
%ADD53C,0.06102*%
%ADD54C,0.03937*%
G36*
X98819Y292913D02*
Y217224D01*
X98524Y216929D01*
X264370D01*
Y294685D01*
X270177Y300492D01*
Y300689D01*
X333563D01*
X338583Y295669D01*
Y10236D01*
X335827Y7480D01*
X30709D01*
Y298327D01*
X34154Y301772D01*
X89961D01*
X98819Y292913D01*
D02*
G37*
%LPC*%
G36*
X307094Y277264D02*
X306135D01*
X305208Y277016D01*
X304378Y276536D01*
X303700Y275858D01*
X303221Y275028D01*
X302972Y274101D01*
Y273143D01*
X303221Y272216D01*
X303700Y271386D01*
X304378Y270708D01*
X305208Y270229D01*
X306135Y269980D01*
X307094D01*
X308020Y270229D01*
X308850Y270708D01*
X309528Y271386D01*
X310008Y272216D01*
X310256Y273143D01*
Y274101D01*
X310008Y275028D01*
X309528Y275858D01*
X308850Y276536D01*
X308020Y277016D01*
X307094Y277264D01*
D02*
G37*
G36*
X297094D02*
X296135D01*
X295209Y277016D01*
X294378Y276536D01*
X293700Y275858D01*
X293221Y275028D01*
X292972Y274101D01*
Y273143D01*
X293221Y272216D01*
X293700Y271386D01*
X294378Y270708D01*
X295209Y270229D01*
X296135Y269980D01*
X297094D01*
X298020Y270229D01*
X298850Y270708D01*
X299528Y271386D01*
X300008Y272216D01*
X300256Y273143D01*
Y274101D01*
X300008Y275028D01*
X299528Y275858D01*
X298850Y276536D01*
X298020Y277016D01*
X297094Y277264D01*
D02*
G37*
G36*
X67094D02*
X66135D01*
X65209Y277016D01*
X64378Y276536D01*
X63700Y275858D01*
X63221Y275028D01*
X62972Y274101D01*
Y273143D01*
X63221Y272216D01*
X63700Y271386D01*
X64378Y270708D01*
X65209Y270229D01*
X66135Y269980D01*
X67094D01*
X68020Y270229D01*
X68850Y270708D01*
X69528Y271386D01*
X70008Y272216D01*
X70256Y273143D01*
Y274101D01*
X70008Y275028D01*
X69528Y275858D01*
X68850Y276536D01*
X68020Y277016D01*
X67094Y277264D01*
D02*
G37*
G36*
X57094D02*
X56135D01*
X55208Y277016D01*
X54378Y276536D01*
X53700Y275858D01*
X53221Y275028D01*
X52972Y274101D01*
Y273143D01*
X53221Y272216D01*
X53700Y271386D01*
X54378Y270708D01*
X55208Y270229D01*
X56135Y269980D01*
X57094D01*
X58020Y270229D01*
X58850Y270708D01*
X59528Y271386D01*
X60008Y272216D01*
X60256Y273143D01*
Y274101D01*
X60008Y275028D01*
X59528Y275858D01*
X58850Y276536D01*
X58020Y277016D01*
X57094Y277264D01*
D02*
G37*
G36*
X307094Y267264D02*
X306135D01*
X305208Y267016D01*
X304378Y266536D01*
X303700Y265858D01*
X303221Y265028D01*
X302972Y264102D01*
Y263143D01*
X303221Y262216D01*
X303700Y261386D01*
X304378Y260708D01*
X305208Y260228D01*
X306135Y259980D01*
X307094D01*
X308020Y260228D01*
X308850Y260708D01*
X309528Y261386D01*
X310008Y262216D01*
X310256Y263143D01*
Y264102D01*
X310008Y265028D01*
X309528Y265858D01*
X308850Y266536D01*
X308020Y267016D01*
X307094Y267264D01*
D02*
G37*
G36*
X297094D02*
X296135D01*
X295209Y267016D01*
X294378Y266536D01*
X293700Y265858D01*
X293221Y265028D01*
X292972Y264102D01*
Y263143D01*
X293221Y262216D01*
X293700Y261386D01*
X294378Y260708D01*
X295209Y260228D01*
X296135Y259980D01*
X297094D01*
X298020Y260228D01*
X298850Y260708D01*
X299528Y261386D01*
X300008Y262216D01*
X300256Y263143D01*
Y264102D01*
X300008Y265028D01*
X299528Y265858D01*
X298850Y266536D01*
X298020Y267016D01*
X297094Y267264D01*
D02*
G37*
G36*
X67094D02*
X66135D01*
X65209Y267016D01*
X64378Y266536D01*
X63700Y265858D01*
X63221Y265028D01*
X62972Y264102D01*
Y263143D01*
X63221Y262216D01*
X63700Y261386D01*
X64378Y260708D01*
X65209Y260228D01*
X66135Y259980D01*
X67094D01*
X68020Y260228D01*
X68850Y260708D01*
X69528Y261386D01*
X70008Y262216D01*
X70256Y263143D01*
Y264102D01*
X70008Y265028D01*
X69528Y265858D01*
X68850Y266536D01*
X68020Y267016D01*
X67094Y267264D01*
D02*
G37*
G36*
X57094D02*
X56135D01*
X55208Y267016D01*
X54378Y266536D01*
X53700Y265858D01*
X53221Y265028D01*
X52972Y264102D01*
Y263143D01*
X53221Y262216D01*
X53700Y261386D01*
X54378Y260708D01*
X55208Y260228D01*
X56135Y259980D01*
X57094D01*
X58020Y260228D01*
X58850Y260708D01*
X59528Y261386D01*
X60008Y262216D01*
X60256Y263143D01*
Y264102D01*
X60008Y265028D01*
X59528Y265858D01*
X58850Y266536D01*
X58020Y267016D01*
X57094Y267264D01*
D02*
G37*
G36*
X307094Y257264D02*
X306135D01*
X305208Y257016D01*
X304378Y256536D01*
X303700Y255858D01*
X303221Y255028D01*
X302972Y254101D01*
Y253143D01*
X303221Y252216D01*
X303700Y251386D01*
X304378Y250708D01*
X305208Y250229D01*
X306135Y249980D01*
X307094D01*
X308020Y250229D01*
X308850Y250708D01*
X309528Y251386D01*
X310008Y252216D01*
X310256Y253143D01*
Y254101D01*
X310008Y255028D01*
X309528Y255858D01*
X308850Y256536D01*
X308020Y257016D01*
X307094Y257264D01*
D02*
G37*
G36*
X297094D02*
X296135D01*
X295209Y257016D01*
X294378Y256536D01*
X293700Y255858D01*
X293221Y255028D01*
X292972Y254101D01*
Y253143D01*
X293221Y252216D01*
X293700Y251386D01*
X294378Y250708D01*
X295209Y250229D01*
X296135Y249980D01*
X297094D01*
X298020Y250229D01*
X298850Y250708D01*
X299528Y251386D01*
X300008Y252216D01*
X300256Y253143D01*
Y254101D01*
X300008Y255028D01*
X299528Y255858D01*
X298850Y256536D01*
X298020Y257016D01*
X297094Y257264D01*
D02*
G37*
G36*
X67094D02*
X66135D01*
X65209Y257016D01*
X64378Y256536D01*
X63700Y255858D01*
X63221Y255028D01*
X62972Y254101D01*
Y253143D01*
X63221Y252216D01*
X63700Y251386D01*
X64378Y250708D01*
X65209Y250229D01*
X66135Y249980D01*
X67094D01*
X68020Y250229D01*
X68850Y250708D01*
X69528Y251386D01*
X70008Y252216D01*
X70256Y253143D01*
Y254101D01*
X70008Y255028D01*
X69528Y255858D01*
X68850Y256536D01*
X68020Y257016D01*
X67094Y257264D01*
D02*
G37*
G36*
X57094D02*
X56135D01*
X55208Y257016D01*
X54378Y256536D01*
X53700Y255858D01*
X53221Y255028D01*
X52972Y254101D01*
Y253143D01*
X53221Y252216D01*
X53700Y251386D01*
X54378Y250708D01*
X55208Y250229D01*
X56135Y249980D01*
X57094D01*
X58020Y250229D01*
X58850Y250708D01*
X59528Y251386D01*
X60008Y252216D01*
X60256Y253143D01*
Y254101D01*
X60008Y255028D01*
X59528Y255858D01*
X58850Y256536D01*
X58020Y257016D01*
X57094Y257264D01*
D02*
G37*
G36*
X307094Y247264D02*
X306135D01*
X305208Y247016D01*
X304378Y246536D01*
X303700Y245858D01*
X303221Y245028D01*
X302972Y244102D01*
Y243143D01*
X303221Y242216D01*
X303700Y241386D01*
X304378Y240708D01*
X305208Y240229D01*
X306135Y239980D01*
X307094D01*
X308020Y240229D01*
X308850Y240708D01*
X309528Y241386D01*
X310008Y242216D01*
X310256Y243143D01*
Y244102D01*
X310008Y245028D01*
X309528Y245858D01*
X308850Y246536D01*
X308020Y247016D01*
X307094Y247264D01*
D02*
G37*
G36*
X297094D02*
X296135D01*
X295209Y247016D01*
X294378Y246536D01*
X293700Y245858D01*
X293221Y245028D01*
X292972Y244102D01*
Y243143D01*
X293221Y242216D01*
X293700Y241386D01*
X294378Y240708D01*
X295209Y240229D01*
X296135Y239980D01*
X297094D01*
X298020Y240229D01*
X298850Y240708D01*
X299528Y241386D01*
X300008Y242216D01*
X300256Y243143D01*
Y244102D01*
X300008Y245028D01*
X299528Y245858D01*
X298850Y246536D01*
X298020Y247016D01*
X297094Y247264D01*
D02*
G37*
G36*
X67094D02*
X66135D01*
X65209Y247016D01*
X64378Y246536D01*
X63700Y245858D01*
X63221Y245028D01*
X62972Y244102D01*
Y243143D01*
X63221Y242216D01*
X63700Y241386D01*
X64378Y240708D01*
X65209Y240229D01*
X66135Y239980D01*
X67094D01*
X68020Y240229D01*
X68850Y240708D01*
X69528Y241386D01*
X70008Y242216D01*
X70256Y243143D01*
Y244102D01*
X70008Y245028D01*
X69528Y245858D01*
X68850Y246536D01*
X68020Y247016D01*
X67094Y247264D01*
D02*
G37*
G36*
X57094D02*
X56135D01*
X55208Y247016D01*
X54378Y246536D01*
X53700Y245858D01*
X53221Y245028D01*
X52972Y244102D01*
Y243143D01*
X53221Y242216D01*
X53700Y241386D01*
X54378Y240708D01*
X55208Y240229D01*
X56135Y239980D01*
X57094D01*
X58020Y240229D01*
X58850Y240708D01*
X59528Y241386D01*
X60008Y242216D01*
X60256Y243143D01*
Y244102D01*
X60008Y245028D01*
X59528Y245858D01*
X58850Y246536D01*
X58020Y247016D01*
X57094Y247264D01*
D02*
G37*
G36*
X307094Y237264D02*
X306135D01*
X305208Y237016D01*
X304378Y236536D01*
X303700Y235858D01*
X303221Y235028D01*
X302972Y234102D01*
Y233143D01*
X303221Y232216D01*
X303700Y231386D01*
X304378Y230708D01*
X305208Y230228D01*
X306135Y229980D01*
X307094D01*
X308020Y230228D01*
X308850Y230708D01*
X309528Y231386D01*
X310008Y232216D01*
X310256Y233143D01*
Y234102D01*
X310008Y235028D01*
X309528Y235858D01*
X308850Y236536D01*
X308020Y237016D01*
X307094Y237264D01*
D02*
G37*
G36*
X297094D02*
X296135D01*
X295209Y237016D01*
X294378Y236536D01*
X293700Y235858D01*
X293221Y235028D01*
X292972Y234102D01*
Y233143D01*
X293221Y232216D01*
X293700Y231386D01*
X294378Y230708D01*
X295209Y230228D01*
X296135Y229980D01*
X297094D01*
X298020Y230228D01*
X298850Y230708D01*
X299528Y231386D01*
X300008Y232216D01*
X300256Y233143D01*
Y234102D01*
X300008Y235028D01*
X299528Y235858D01*
X298850Y236536D01*
X298020Y237016D01*
X297094Y237264D01*
D02*
G37*
G36*
X67094D02*
X66135D01*
X65209Y237016D01*
X64378Y236536D01*
X63700Y235858D01*
X63221Y235028D01*
X62972Y234102D01*
Y233143D01*
X63221Y232216D01*
X63700Y231386D01*
X64378Y230708D01*
X65209Y230228D01*
X66135Y229980D01*
X67094D01*
X68020Y230228D01*
X68850Y230708D01*
X69528Y231386D01*
X70008Y232216D01*
X70256Y233143D01*
Y234102D01*
X70008Y235028D01*
X69528Y235858D01*
X68850Y236536D01*
X68020Y237016D01*
X67094Y237264D01*
D02*
G37*
G36*
X57094D02*
X56135D01*
X55208Y237016D01*
X54378Y236536D01*
X53700Y235858D01*
X53221Y235028D01*
X52972Y234102D01*
Y233143D01*
X53221Y232216D01*
X53700Y231386D01*
X54378Y230708D01*
X55208Y230228D01*
X56135Y229980D01*
X57094D01*
X58020Y230228D01*
X58850Y230708D01*
X59528Y231386D01*
X60008Y232216D01*
X60256Y233143D01*
Y234102D01*
X60008Y235028D01*
X59528Y235858D01*
X58850Y236536D01*
X58020Y237016D01*
X57094Y237264D01*
D02*
G37*
G36*
X90295Y237303D02*
X82933D01*
Y229941D01*
X90295D01*
Y237303D01*
D02*
G37*
G36*
X307094Y227264D02*
X306135D01*
X305208Y227016D01*
X304378Y226536D01*
X303700Y225858D01*
X303221Y225028D01*
X302972Y224101D01*
Y223143D01*
X303221Y222216D01*
X303700Y221386D01*
X304378Y220708D01*
X305208Y220229D01*
X306135Y219980D01*
X307094D01*
X308020Y220229D01*
X308850Y220708D01*
X309528Y221386D01*
X310008Y222216D01*
X310256Y223143D01*
Y224101D01*
X310008Y225028D01*
X309528Y225858D01*
X308850Y226536D01*
X308020Y227016D01*
X307094Y227264D01*
D02*
G37*
G36*
X297094D02*
X296135D01*
X295209Y227016D01*
X294378Y226536D01*
X293700Y225858D01*
X293221Y225028D01*
X292972Y224101D01*
Y223143D01*
X293221Y222216D01*
X293700Y221386D01*
X294378Y220708D01*
X295209Y220229D01*
X296135Y219980D01*
X297094D01*
X298020Y220229D01*
X298850Y220708D01*
X299528Y221386D01*
X300008Y222216D01*
X300256Y223143D01*
Y224101D01*
X300008Y225028D01*
X299528Y225858D01*
X298850Y226536D01*
X298020Y227016D01*
X297094Y227264D01*
D02*
G37*
G36*
X67094D02*
X66135D01*
X65209Y227016D01*
X64378Y226536D01*
X63700Y225858D01*
X63221Y225028D01*
X62972Y224101D01*
Y223143D01*
X63221Y222216D01*
X63700Y221386D01*
X64378Y220708D01*
X65209Y220229D01*
X66135Y219980D01*
X67094D01*
X68020Y220229D01*
X68850Y220708D01*
X69528Y221386D01*
X70008Y222216D01*
X70256Y223143D01*
Y224101D01*
X70008Y225028D01*
X69528Y225858D01*
X68850Y226536D01*
X68020Y227016D01*
X67094Y227264D01*
D02*
G37*
G36*
X57094D02*
X56135D01*
X55208Y227016D01*
X54378Y226536D01*
X53700Y225858D01*
X53221Y225028D01*
X52972Y224101D01*
Y223143D01*
X53221Y222216D01*
X53700Y221386D01*
X54378Y220708D01*
X55208Y220229D01*
X56135Y219980D01*
X57094D01*
X58020Y220229D01*
X58850Y220708D01*
X59528Y221386D01*
X60008Y222216D01*
X60256Y223143D01*
Y224101D01*
X60008Y225028D01*
X59528Y225858D01*
X58850Y226536D01*
X58020Y227016D01*
X57094Y227264D01*
D02*
G37*
G36*
X87099Y227303D02*
X86129D01*
X85193Y227052D01*
X84354Y226568D01*
X83669Y225882D01*
X83184Y225043D01*
X82933Y224107D01*
Y223137D01*
X83184Y222201D01*
X83669Y221362D01*
X84354Y220676D01*
X85193Y220192D01*
X86129Y219941D01*
X87099D01*
X88035Y220192D01*
X88874Y220676D01*
X89560Y221362D01*
X90044Y222201D01*
X90295Y223137D01*
Y224107D01*
X90044Y225043D01*
X89560Y225882D01*
X88874Y226568D01*
X88035Y227052D01*
X87099Y227303D01*
D02*
G37*
G36*
X307094Y217264D02*
X306135D01*
X305208Y217016D01*
X304378Y216536D01*
X303700Y215858D01*
X303221Y215028D01*
X302972Y214102D01*
Y213143D01*
X303221Y212216D01*
X303700Y211386D01*
X304378Y210708D01*
X305208Y210228D01*
X306135Y209980D01*
X307094D01*
X308020Y210228D01*
X308850Y210708D01*
X309528Y211386D01*
X310008Y212216D01*
X310256Y213143D01*
Y214102D01*
X310008Y215028D01*
X309528Y215858D01*
X308850Y216536D01*
X308020Y217016D01*
X307094Y217264D01*
D02*
G37*
G36*
X297094D02*
X296135D01*
X295209Y217016D01*
X294378Y216536D01*
X293700Y215858D01*
X293221Y215028D01*
X292972Y214102D01*
Y213143D01*
X293221Y212216D01*
X293700Y211386D01*
X294378Y210708D01*
X295209Y210228D01*
X296135Y209980D01*
X297094D01*
X298020Y210228D01*
X298850Y210708D01*
X299528Y211386D01*
X300008Y212216D01*
X300256Y213143D01*
Y214102D01*
X300008Y215028D01*
X299528Y215858D01*
X298850Y216536D01*
X298020Y217016D01*
X297094Y217264D01*
D02*
G37*
G36*
X67094D02*
X66135D01*
X65209Y217016D01*
X64378Y216536D01*
X63700Y215858D01*
X63221Y215028D01*
X62972Y214102D01*
Y213143D01*
X63221Y212216D01*
X63700Y211386D01*
X64378Y210708D01*
X65209Y210228D01*
X66135Y209980D01*
X67094D01*
X68020Y210228D01*
X68850Y210708D01*
X69528Y211386D01*
X70008Y212216D01*
X70256Y213143D01*
Y214102D01*
X70008Y215028D01*
X69528Y215858D01*
X68850Y216536D01*
X68020Y217016D01*
X67094Y217264D01*
D02*
G37*
G36*
X57094D02*
X56135D01*
X55208Y217016D01*
X54378Y216536D01*
X53700Y215858D01*
X53221Y215028D01*
X52972Y214102D01*
Y213143D01*
X53221Y212216D01*
X53700Y211386D01*
X54378Y210708D01*
X55208Y210228D01*
X56135Y209980D01*
X57094D01*
X58020Y210228D01*
X58850Y210708D01*
X59528Y211386D01*
X60008Y212216D01*
X60256Y213143D01*
Y214102D01*
X60008Y215028D01*
X59528Y215858D01*
X58850Y216536D01*
X58020Y217016D01*
X57094Y217264D01*
D02*
G37*
G36*
X87099Y217303D02*
X86129D01*
X85193Y217052D01*
X84354Y216568D01*
X83669Y215882D01*
X83184Y215043D01*
X82933Y214107D01*
Y213137D01*
X83184Y212201D01*
X83669Y211362D01*
X84354Y210676D01*
X85193Y210192D01*
X86129Y209941D01*
X87099D01*
X88035Y210192D01*
X88874Y210676D01*
X89560Y211362D01*
X90044Y212201D01*
X90295Y213137D01*
Y214107D01*
X90044Y215043D01*
X89560Y215882D01*
X88874Y216568D01*
X88035Y217052D01*
X87099Y217303D01*
D02*
G37*
G36*
X307094Y207264D02*
X306135D01*
X305208Y207016D01*
X304378Y206536D01*
X303700Y205858D01*
X303221Y205028D01*
X302972Y204101D01*
Y203143D01*
X303221Y202216D01*
X303700Y201386D01*
X304378Y200708D01*
X305208Y200229D01*
X306135Y199980D01*
X307094D01*
X308020Y200229D01*
X308850Y200708D01*
X309528Y201386D01*
X310008Y202216D01*
X310256Y203143D01*
Y204101D01*
X310008Y205028D01*
X309528Y205858D01*
X308850Y206536D01*
X308020Y207016D01*
X307094Y207264D01*
D02*
G37*
G36*
X297094D02*
X296135D01*
X295209Y207016D01*
X294378Y206536D01*
X293700Y205858D01*
X293221Y205028D01*
X292972Y204101D01*
Y203143D01*
X293221Y202216D01*
X293700Y201386D01*
X294378Y200708D01*
X295209Y200229D01*
X296135Y199980D01*
X297094D01*
X298020Y200229D01*
X298850Y200708D01*
X299528Y201386D01*
X300008Y202216D01*
X300256Y203143D01*
Y204101D01*
X300008Y205028D01*
X299528Y205858D01*
X298850Y206536D01*
X298020Y207016D01*
X297094Y207264D01*
D02*
G37*
G36*
X67094D02*
X66135D01*
X65209Y207016D01*
X64378Y206536D01*
X63700Y205858D01*
X63221Y205028D01*
X62972Y204101D01*
Y203143D01*
X63221Y202216D01*
X63700Y201386D01*
X64378Y200708D01*
X65209Y200229D01*
X66135Y199980D01*
X67094D01*
X68020Y200229D01*
X68850Y200708D01*
X69528Y201386D01*
X70008Y202216D01*
X70256Y203143D01*
Y204101D01*
X70008Y205028D01*
X69528Y205858D01*
X68850Y206536D01*
X68020Y207016D01*
X67094Y207264D01*
D02*
G37*
G36*
X57094D02*
X56135D01*
X55208Y207016D01*
X54378Y206536D01*
X53700Y205858D01*
X53221Y205028D01*
X52972Y204101D01*
Y203143D01*
X53221Y202216D01*
X53700Y201386D01*
X54378Y200708D01*
X55208Y200229D01*
X56135Y199980D01*
X57094D01*
X58020Y200229D01*
X58850Y200708D01*
X59528Y201386D01*
X60008Y202216D01*
X60256Y203143D01*
Y204101D01*
X60008Y205028D01*
X59528Y205858D01*
X58850Y206536D01*
X58020Y207016D01*
X57094Y207264D01*
D02*
G37*
G36*
X87099Y207303D02*
X86129D01*
X85193Y207052D01*
X84354Y206568D01*
X83669Y205882D01*
X83184Y205043D01*
X82933Y204107D01*
Y203137D01*
X83184Y202201D01*
X83669Y201362D01*
X84354Y200676D01*
X85193Y200192D01*
X86129Y199941D01*
X87099D01*
X88035Y200192D01*
X88874Y200676D01*
X89560Y201362D01*
X90044Y202201D01*
X90295Y203137D01*
Y204107D01*
X90044Y205043D01*
X89560Y205882D01*
X88874Y206568D01*
X88035Y207052D01*
X87099Y207303D01*
D02*
G37*
G36*
X87002Y197303D02*
X86129D01*
X85193Y197052D01*
X84354Y196568D01*
X83669Y195882D01*
X83184Y195043D01*
X82933Y194107D01*
Y193137D01*
X83184Y192201D01*
X83669Y191362D01*
X84354Y190676D01*
X85193Y190192D01*
X86129Y189941D01*
X87099D01*
X88035Y190192D01*
X88874Y190676D01*
X89560Y191362D01*
X90044Y192201D01*
X90295Y193137D01*
Y194107D01*
X90044Y195043D01*
X89560Y195882D01*
X89136Y196306D01*
X89162Y196231D01*
X89180Y196132D01*
X89188Y196081D01*
Y195990D01*
X89184Y195950D01*
X89177Y195903D01*
X89166Y195845D01*
X89148Y195779D01*
X89126Y195714D01*
X89097Y195648D01*
Y195645D01*
X89093Y195641D01*
X89082Y195619D01*
X89060Y195586D01*
X89035Y195550D01*
X88998Y195506D01*
X88958Y195463D01*
X88911Y195419D01*
X88856Y195382D01*
X88849Y195379D01*
X88831Y195368D01*
X88798Y195353D01*
X88758Y195335D01*
X88711Y195317D01*
X88656Y195302D01*
X88594Y195291D01*
X88532Y195288D01*
X88525D01*
X88503D01*
X88474Y195291D01*
X88434Y195299D01*
X88387Y195310D01*
X88336Y195328D01*
X88285Y195350D01*
X88234Y195379D01*
X88227Y195382D01*
X88212Y195393D01*
X88187Y195415D01*
X88157Y195444D01*
X88125Y195481D01*
X88088Y195525D01*
X88056Y195575D01*
X88023Y195637D01*
Y195634D01*
X88019Y195626D01*
X88016Y195615D01*
X88012Y195601D01*
X87997Y195561D01*
X87976Y195510D01*
X87946Y195452D01*
X87910Y195393D01*
X87863Y195339D01*
X87808Y195288D01*
X87801Y195284D01*
X87779Y195270D01*
X87743Y195248D01*
X87695Y195226D01*
X87637Y195204D01*
X87568Y195182D01*
X87488Y195168D01*
X87400Y195164D01*
X87397D01*
X87386D01*
X87368D01*
X87346Y195168D01*
X87317Y195171D01*
X87284Y195179D01*
X87248Y195186D01*
X87207Y195193D01*
X87120Y195222D01*
X87073Y195244D01*
X87029Y195266D01*
X86982Y195295D01*
X86934Y195328D01*
X86887Y195364D01*
X86843Y195408D01*
X86840Y195412D01*
X86832Y195419D01*
X86822Y195433D01*
X86807Y195452D01*
X86789Y195474D01*
X86771Y195503D01*
X86749Y195535D01*
X86731Y195575D01*
X86709Y195615D01*
X86687Y195663D01*
X86669Y195710D01*
X86651Y195765D01*
X86636Y195823D01*
X86625Y195885D01*
X86618Y195947D01*
X86614Y196016D01*
Y196049D01*
X86618Y196071D01*
X86621Y196100D01*
X86625Y196132D01*
X86632Y196169D01*
X86640Y196209D01*
X86661Y196296D01*
X86698Y196387D01*
X86720Y196434D01*
X86745Y196478D01*
X86778Y196522D01*
X86811Y196565D01*
X86814Y196569D01*
X86822Y196576D01*
X86832Y196587D01*
X86847Y196598D01*
X86865Y196616D01*
X86891Y196635D01*
X86916Y196657D01*
X86949Y196678D01*
X86985Y196700D01*
X87022Y196722D01*
X87109Y196762D01*
X87211Y196795D01*
X87266Y196806D01*
X87324Y196813D01*
X87364Y196504D01*
X87360D01*
X87353Y196500D01*
X87339Y196496D01*
X87320Y196493D01*
X87298Y196489D01*
X87273Y196482D01*
X87218Y196464D01*
X87153Y196438D01*
X87091Y196405D01*
X87033Y196369D01*
X86982Y196325D01*
X86978Y196318D01*
X86964Y196303D01*
X86945Y196274D01*
X86927Y196238D01*
X86905Y196194D01*
X86887Y196140D01*
X86873Y196078D01*
X86869Y196012D01*
Y195990D01*
X86873Y195976D01*
X86876Y195936D01*
X86887Y195885D01*
X86905Y195827D01*
X86931Y195765D01*
X86967Y195703D01*
X87018Y195645D01*
X87025Y195637D01*
X87047Y195619D01*
X87080Y195597D01*
X87124Y195568D01*
X87178Y195539D01*
X87240Y195517D01*
X87313Y195499D01*
X87393Y195492D01*
X87397D01*
X87404D01*
X87415D01*
X87429Y195495D01*
X87470Y195499D01*
X87517Y195510D01*
X87575Y195525D01*
X87633Y195550D01*
X87692Y195586D01*
X87746Y195634D01*
X87753Y195641D01*
X87768Y195659D01*
X87790Y195688D01*
X87815Y195728D01*
X87841Y195779D01*
X87863Y195841D01*
X87877Y195910D01*
X87884Y195987D01*
Y196019D01*
X87881Y196045D01*
X87877Y196078D01*
X87870Y196114D01*
X87863Y196158D01*
X87852Y196205D01*
X88125Y196169D01*
Y196151D01*
X88121Y196136D01*
Y196089D01*
X88128Y196049D01*
X88136Y196001D01*
X88147Y195947D01*
X88165Y195885D01*
X88190Y195827D01*
X88223Y195765D01*
Y195761D01*
X88227Y195757D01*
X88241Y195739D01*
X88267Y195714D01*
X88299Y195685D01*
X88347Y195656D01*
X88401Y195630D01*
X88463Y195612D01*
X88500Y195605D01*
X88540D01*
X88543D01*
X88547D01*
X88569D01*
X88598Y195612D01*
X88638Y195619D01*
X88682Y195634D01*
X88729Y195652D01*
X88776Y195681D01*
X88820Y195721D01*
X88824Y195725D01*
X88838Y195743D01*
X88856Y195768D01*
X88878Y195801D01*
X88896Y195845D01*
X88915Y195896D01*
X88929Y195954D01*
X88933Y196019D01*
Y196049D01*
X88925Y196081D01*
X88918Y196125D01*
X88904Y196172D01*
X88885Y196220D01*
X88856Y196271D01*
X88820Y196318D01*
X88816Y196322D01*
X88798Y196336D01*
X88773Y196358D01*
X88736Y196384D01*
X88689Y196409D01*
X88631Y196434D01*
X88561Y196456D01*
X88481Y196471D01*
X88533Y196765D01*
X88035Y197052D01*
X87332Y197241D01*
X87280Y197246D01*
X87200Y197254D01*
X87116Y197268D01*
X87040Y197290D01*
X87002Y197303D01*
D02*
G37*
G36*
X307094Y197264D02*
X306135D01*
X305208Y197016D01*
X304378Y196536D01*
X303700Y195858D01*
X303221Y195028D01*
X302972Y194102D01*
Y193143D01*
X303221Y192216D01*
X303700Y191386D01*
X304378Y190708D01*
X305208Y190228D01*
X306135Y189980D01*
X307094D01*
X308020Y190228D01*
X308850Y190708D01*
X309528Y191386D01*
X310008Y192216D01*
X310256Y193143D01*
Y194102D01*
X310008Y195028D01*
X309528Y195858D01*
X308850Y196536D01*
X308020Y197016D01*
X307094Y197264D01*
D02*
G37*
G36*
X297094D02*
X296135D01*
X295209Y197016D01*
X294378Y196536D01*
X293700Y195858D01*
X293221Y195028D01*
X292972Y194102D01*
Y193143D01*
X293221Y192216D01*
X293700Y191386D01*
X294378Y190708D01*
X295209Y190228D01*
X296135Y189980D01*
X297094D01*
X298020Y190228D01*
X298850Y190708D01*
X299528Y191386D01*
X300008Y192216D01*
X300256Y193143D01*
Y194102D01*
X300008Y195028D01*
X299528Y195858D01*
X298850Y196536D01*
X298020Y197016D01*
X297094Y197264D01*
D02*
G37*
G36*
X67094D02*
X66135D01*
X65209Y197016D01*
X64378Y196536D01*
X63700Y195858D01*
X63221Y195028D01*
X62972Y194102D01*
Y193143D01*
X63221Y192216D01*
X63700Y191386D01*
X64378Y190708D01*
X65209Y190228D01*
X66135Y189980D01*
X67094D01*
X68020Y190228D01*
X68850Y190708D01*
X69528Y191386D01*
X70008Y192216D01*
X70256Y193143D01*
Y194102D01*
X70008Y195028D01*
X69528Y195858D01*
X68850Y196536D01*
X68020Y197016D01*
X67094Y197264D01*
D02*
G37*
G36*
X57094D02*
X56135D01*
X55208Y197016D01*
X54378Y196536D01*
X53700Y195858D01*
X53221Y195028D01*
X52972Y194102D01*
Y193143D01*
X53221Y192216D01*
X53700Y191386D01*
X54378Y190708D01*
X55208Y190228D01*
X56135Y189980D01*
X57094D01*
X58020Y190228D01*
X58850Y190708D01*
X59528Y191386D01*
X60008Y192216D01*
X60256Y193143D01*
Y194102D01*
X60008Y195028D01*
X59528Y195858D01*
X58850Y196536D01*
X58020Y197016D01*
X57094Y197264D01*
D02*
G37*
G36*
X182030Y189862D02*
X181356D01*
X180705Y189688D01*
X180122Y189351D01*
X179645Y188874D01*
X179308Y188291D01*
X179134Y187640D01*
Y186966D01*
X179308Y186315D01*
X179645Y185732D01*
X180122Y185255D01*
X180705Y184918D01*
X181356Y184744D01*
X182030D01*
X182663Y184914D01*
X186987Y180590D01*
X187313Y180372D01*
X187697Y180296D01*
X198425D01*
X198809Y180372D01*
X199135Y180590D01*
X200900Y182355D01*
X201533Y182185D01*
X202207D01*
X202858Y182359D01*
X203441Y182696D01*
X203918Y183173D01*
X204255Y183756D01*
X204429Y184407D01*
Y185081D01*
X204255Y185732D01*
X203918Y186315D01*
X203441Y186792D01*
X202858Y187129D01*
X202207Y187303D01*
X201533D01*
X200882Y187129D01*
X200299Y186792D01*
X199822Y186315D01*
X199485Y185732D01*
X199311Y185081D01*
Y184407D01*
X199481Y183774D01*
X198010Y182303D01*
X188112D01*
X184082Y186333D01*
X184252Y186966D01*
Y187640D01*
X184078Y188291D01*
X183741Y188874D01*
X183264Y189351D01*
X182681Y189688D01*
X182030Y189862D01*
D02*
G37*
G36*
X307094Y187264D02*
X306135D01*
X305208Y187016D01*
X304378Y186536D01*
X303700Y185858D01*
X303221Y185028D01*
X302972Y184101D01*
Y183143D01*
X303221Y182216D01*
X303700Y181386D01*
X304378Y180708D01*
X305208Y180228D01*
X306135Y179980D01*
X307094D01*
X308020Y180228D01*
X308850Y180708D01*
X309528Y181386D01*
X310008Y182216D01*
X310256Y183143D01*
Y184101D01*
X310008Y185028D01*
X309528Y185858D01*
X308850Y186536D01*
X308020Y187016D01*
X307094Y187264D01*
D02*
G37*
G36*
X297094D02*
X296135D01*
X295209Y187016D01*
X294378Y186536D01*
X293700Y185858D01*
X293221Y185028D01*
X292972Y184101D01*
Y183143D01*
X293221Y182216D01*
X293700Y181386D01*
X294378Y180708D01*
X295209Y180228D01*
X296135Y179980D01*
X297094D01*
X298020Y180228D01*
X298850Y180708D01*
X299528Y181386D01*
X300008Y182216D01*
X300256Y183143D01*
Y184101D01*
X300008Y185028D01*
X299528Y185858D01*
X298850Y186536D01*
X298020Y187016D01*
X297094Y187264D01*
D02*
G37*
G36*
X67094D02*
X66135D01*
X65209Y187016D01*
X64378Y186536D01*
X63700Y185858D01*
X63221Y185028D01*
X62972Y184101D01*
Y183143D01*
X63221Y182216D01*
X63700Y181386D01*
X64378Y180708D01*
X65209Y180228D01*
X66135Y179980D01*
X67094D01*
X68020Y180228D01*
X68850Y180708D01*
X69528Y181386D01*
X70008Y182216D01*
X70256Y183143D01*
Y184101D01*
X70008Y185028D01*
X69528Y185858D01*
X68850Y186536D01*
X68020Y187016D01*
X67094Y187264D01*
D02*
G37*
G36*
X57094D02*
X56135D01*
X55208Y187016D01*
X54378Y186536D01*
X53700Y185858D01*
X53221Y185028D01*
X52972Y184101D01*
Y183143D01*
X53221Y182216D01*
X53700Y181386D01*
X54378Y180708D01*
X55208Y180228D01*
X56135Y179980D01*
X57094D01*
X58020Y180228D01*
X58850Y180708D01*
X59528Y181386D01*
X60008Y182216D01*
X60256Y183143D01*
Y184101D01*
X60008Y185028D01*
X59528Y185858D01*
X58850Y186536D01*
X58020Y187016D01*
X57094Y187264D01*
D02*
G37*
G36*
X87099Y187303D02*
X86129D01*
X85193Y187052D01*
X84354Y186568D01*
X83669Y185882D01*
X83184Y185043D01*
X82933Y184107D01*
Y183137D01*
X83184Y182201D01*
X83669Y181362D01*
X84354Y180676D01*
X85193Y180192D01*
X86129Y179941D01*
X87099D01*
X88035Y180192D01*
X88874Y180676D01*
X89560Y181362D01*
X90044Y182201D01*
X90295Y183137D01*
Y184107D01*
X90044Y185043D01*
X89560Y185882D01*
X88874Y186568D01*
X88035Y187052D01*
X87099Y187303D01*
D02*
G37*
G36*
X213132Y196653D02*
X212458D01*
X211807Y196479D01*
X211224Y196142D01*
X210748Y195666D01*
X210411Y195082D01*
X210236Y194431D01*
Y193758D01*
X210411Y193107D01*
X210748Y192523D01*
X211224Y192047D01*
X211807Y191710D01*
X211939Y191674D01*
Y180243D01*
X211519Y180000D01*
X211043Y179524D01*
X210706Y178940D01*
X210531Y178290D01*
Y177616D01*
X210706Y176965D01*
X211043Y176382D01*
X211519Y175905D01*
X212103Y175568D01*
X212754Y175394D01*
X213427D01*
X214078Y175568D01*
X214662Y175905D01*
X215138Y176382D01*
X215475Y176965D01*
X215650Y177616D01*
Y178290D01*
X215475Y178940D01*
X215138Y179524D01*
X214662Y180000D01*
X214078Y180337D01*
X213946Y180373D01*
Y191804D01*
X214367Y192047D01*
X214843Y192523D01*
X215180Y193107D01*
X215354Y193758D01*
Y194431D01*
X215180Y195082D01*
X214843Y195666D01*
X214367Y196142D01*
X213783Y196479D01*
X213132Y196653D01*
D02*
G37*
G36*
X307094Y177264D02*
X306135D01*
X305208Y177016D01*
X304378Y176536D01*
X303700Y175858D01*
X303221Y175028D01*
X302972Y174101D01*
Y173143D01*
X303221Y172216D01*
X303700Y171386D01*
X304378Y170708D01*
X305208Y170229D01*
X306135Y169980D01*
X307094D01*
X308020Y170229D01*
X308850Y170708D01*
X309528Y171386D01*
X310008Y172216D01*
X310256Y173143D01*
Y174101D01*
X310008Y175028D01*
X309528Y175858D01*
X308850Y176536D01*
X308020Y177016D01*
X307094Y177264D01*
D02*
G37*
G36*
X297094D02*
X296135D01*
X295209Y177016D01*
X294378Y176536D01*
X293700Y175858D01*
X293221Y175028D01*
X292972Y174101D01*
Y173143D01*
X293221Y172216D01*
X293700Y171386D01*
X294378Y170708D01*
X295209Y170229D01*
X296135Y169980D01*
X297094D01*
X298020Y170229D01*
X298850Y170708D01*
X299528Y171386D01*
X300008Y172216D01*
X300256Y173143D01*
Y174101D01*
X300008Y175028D01*
X299528Y175858D01*
X298850Y176536D01*
X298020Y177016D01*
X297094Y177264D01*
D02*
G37*
G36*
X67094D02*
X66135D01*
X65209Y177016D01*
X64378Y176536D01*
X63700Y175858D01*
X63221Y175028D01*
X62972Y174101D01*
Y173143D01*
X63221Y172216D01*
X63700Y171386D01*
X64378Y170708D01*
X65209Y170229D01*
X66135Y169980D01*
X67094D01*
X68020Y170229D01*
X68850Y170708D01*
X69528Y171386D01*
X70008Y172216D01*
X70256Y173143D01*
Y174101D01*
X70008Y175028D01*
X69528Y175858D01*
X68850Y176536D01*
X68020Y177016D01*
X67094Y177264D01*
D02*
G37*
G36*
X57094D02*
X56135D01*
X55208Y177016D01*
X54378Y176536D01*
X53700Y175858D01*
X53221Y175028D01*
X52972Y174101D01*
Y173143D01*
X53221Y172216D01*
X53700Y171386D01*
X54378Y170708D01*
X55208Y170229D01*
X56135Y169980D01*
X57094D01*
X58020Y170229D01*
X58850Y170708D01*
X59528Y171386D01*
X60008Y172216D01*
X60256Y173143D01*
Y174101D01*
X60008Y175028D01*
X59528Y175858D01*
X58850Y176536D01*
X58020Y177016D01*
X57094Y177264D01*
D02*
G37*
G36*
X87099Y177303D02*
X86129D01*
X85193Y177052D01*
X84354Y176568D01*
X83669Y175882D01*
X83184Y175043D01*
X82933Y174107D01*
Y173137D01*
X83184Y172201D01*
X83669Y171362D01*
X84354Y170676D01*
X85193Y170192D01*
X86129Y169941D01*
X87099D01*
X88035Y170192D01*
X88874Y170676D01*
X89560Y171362D01*
X90044Y172201D01*
X90295Y173137D01*
Y174107D01*
X90044Y175043D01*
X89560Y175882D01*
X88874Y176568D01*
X88035Y177052D01*
X87099Y177303D01*
D02*
G37*
G36*
X199057Y178150D02*
X198384D01*
X197733Y177975D01*
X197149Y177638D01*
X196673Y177162D01*
X196336Y176578D01*
X196161Y175927D01*
Y175254D01*
X196336Y174603D01*
X196673Y174019D01*
X197149Y173543D01*
X197733Y173206D01*
X198384Y173031D01*
X199057D01*
X199102Y173043D01*
X199571Y172574D01*
Y172162D01*
X199647Y171778D01*
X199865Y171452D01*
X200465Y170852D01*
X200295Y170219D01*
Y169545D01*
X200470Y168894D01*
X200807Y168311D01*
X201283Y167834D01*
X201867Y167497D01*
X202517Y167323D01*
X203191D01*
X203842Y167497D01*
X204426Y167834D01*
X204902Y168311D01*
X205239Y168894D01*
X205413Y169545D01*
Y170219D01*
X205239Y170870D01*
X204902Y171453D01*
X204426Y171930D01*
X203842Y172266D01*
X203191Y172441D01*
X202517D01*
X201959Y172291D01*
X201578Y172618D01*
Y172990D01*
X201501Y173374D01*
X201284Y173700D01*
X200840Y174144D01*
X201105Y174603D01*
X201279Y175254D01*
Y175927D01*
X201105Y176578D01*
X200768Y177162D01*
X200292Y177638D01*
X199708Y177975D01*
X199057Y178150D01*
D02*
G37*
G36*
X152207Y171850D02*
X151533D01*
X150882Y171676D01*
X150299Y171339D01*
X149822Y170863D01*
X149485Y170279D01*
X149311Y169628D01*
Y168954D01*
X149485Y168304D01*
X149822Y167720D01*
X150299Y167244D01*
X150882Y166907D01*
X151533Y166732D01*
X152207D01*
X152530Y166819D01*
X154051Y165298D01*
X153915Y165063D01*
X153740Y164412D01*
Y163738D01*
X153915Y163087D01*
X154252Y162504D01*
X154728Y162027D01*
X155311Y161690D01*
X155962Y161516D01*
X156636D01*
X157287Y161690D01*
X157870Y162027D01*
X158347Y162504D01*
X158684Y163087D01*
X158858Y163738D01*
Y164412D01*
X158684Y165063D01*
X158347Y165646D01*
X157870Y166123D01*
X157287Y166459D01*
X156636Y166634D01*
X155962D01*
X155640Y166547D01*
X154119Y168068D01*
X154255Y168304D01*
X154429Y168954D01*
Y169628D01*
X154255Y170279D01*
X153918Y170863D01*
X153441Y171339D01*
X152858Y171676D01*
X152207Y171850D01*
D02*
G37*
G36*
X307094Y167264D02*
X306135D01*
X305208Y167016D01*
X304378Y166536D01*
X303700Y165858D01*
X303221Y165028D01*
X302972Y164102D01*
Y163143D01*
X303221Y162216D01*
X303700Y161386D01*
X304378Y160708D01*
X305208Y160229D01*
X306135Y159980D01*
X307094D01*
X308020Y160229D01*
X308850Y160708D01*
X309528Y161386D01*
X310008Y162216D01*
X310256Y163143D01*
Y164102D01*
X310008Y165028D01*
X309528Y165858D01*
X308850Y166536D01*
X308020Y167016D01*
X307094Y167264D01*
D02*
G37*
G36*
X297094D02*
X296135D01*
X295209Y167016D01*
X294378Y166536D01*
X293700Y165858D01*
X293221Y165028D01*
X292972Y164102D01*
Y163143D01*
X293221Y162216D01*
X293700Y161386D01*
X294378Y160708D01*
X295209Y160229D01*
X296135Y159980D01*
X297094D01*
X298020Y160229D01*
X298850Y160708D01*
X299528Y161386D01*
X300008Y162216D01*
X300256Y163143D01*
Y164102D01*
X300008Y165028D01*
X299528Y165858D01*
X298850Y166536D01*
X298020Y167016D01*
X297094Y167264D01*
D02*
G37*
G36*
X67094D02*
X66135D01*
X65209Y167016D01*
X64378Y166536D01*
X63700Y165858D01*
X63221Y165028D01*
X62972Y164102D01*
Y163143D01*
X63221Y162216D01*
X63700Y161386D01*
X64378Y160708D01*
X65209Y160229D01*
X66135Y159980D01*
X67094D01*
X68020Y160229D01*
X68850Y160708D01*
X69528Y161386D01*
X70008Y162216D01*
X70256Y163143D01*
Y164102D01*
X70008Y165028D01*
X69528Y165858D01*
X68850Y166536D01*
X68020Y167016D01*
X67094Y167264D01*
D02*
G37*
G36*
X57094D02*
X56135D01*
X55208Y167016D01*
X54378Y166536D01*
X53700Y165858D01*
X53221Y165028D01*
X52972Y164102D01*
Y163143D01*
X53221Y162216D01*
X53700Y161386D01*
X54378Y160708D01*
X55208Y160229D01*
X56135Y159980D01*
X57094D01*
X58020Y160229D01*
X58850Y160708D01*
X59528Y161386D01*
X60008Y162216D01*
X60256Y163143D01*
Y164102D01*
X60008Y165028D01*
X59528Y165858D01*
X58850Y166536D01*
X58020Y167016D01*
X57094Y167264D01*
D02*
G37*
G36*
X87099Y167303D02*
X86129D01*
X85193Y167052D01*
X84354Y166568D01*
X83669Y165882D01*
X83184Y165043D01*
X82933Y164107D01*
Y163137D01*
X83184Y162201D01*
X83669Y161362D01*
X84354Y160676D01*
X85193Y160192D01*
X86129Y159941D01*
X87099D01*
X88035Y160192D01*
X88874Y160676D01*
X89560Y161362D01*
X90044Y162201D01*
X90295Y163137D01*
Y164107D01*
X90044Y165043D01*
X89560Y165882D01*
X88874Y166568D01*
X88035Y167052D01*
X87099Y167303D01*
D02*
G37*
G36*
X260081Y158169D02*
X259407D01*
X258756Y157995D01*
X258173Y157658D01*
X257696Y157182D01*
X257368Y156614D01*
X247835D01*
X247451Y156537D01*
X247125Y156320D01*
X242407Y151602D01*
X241774Y151772D01*
X241100D01*
X240449Y151597D01*
X239866Y151260D01*
X239389Y150784D01*
X239052Y150200D01*
X238878Y149549D01*
Y148876D01*
X239052Y148225D01*
X239389Y147641D01*
X239866Y147165D01*
X240449Y146828D01*
X241100Y146653D01*
X241774D01*
X242425Y146828D01*
X243008Y147165D01*
X243485Y147641D01*
X243822Y148225D01*
X243996Y148876D01*
Y149549D01*
X243826Y150183D01*
X248250Y154607D01*
X257368D01*
X257696Y154039D01*
X258173Y153562D01*
X258756Y153226D01*
X259407Y153051D01*
X260081D01*
X260732Y153226D01*
X261315Y153562D01*
X261792Y154039D01*
X262129Y154622D01*
X262303Y155273D01*
Y155947D01*
X262129Y156598D01*
X261792Y157182D01*
X261315Y157658D01*
X260732Y157995D01*
X260081Y158169D01*
D02*
G37*
G36*
X307094Y157264D02*
X306135D01*
X305208Y157016D01*
X304378Y156536D01*
X303700Y155858D01*
X303221Y155028D01*
X302972Y154102D01*
Y153143D01*
X303221Y152216D01*
X303700Y151386D01*
X304378Y150708D01*
X305208Y150229D01*
X306135Y149980D01*
X307094D01*
X308020Y150229D01*
X308850Y150708D01*
X309528Y151386D01*
X310008Y152216D01*
X310256Y153143D01*
Y154102D01*
X310008Y155028D01*
X309528Y155858D01*
X308850Y156536D01*
X308020Y157016D01*
X307094Y157264D01*
D02*
G37*
G36*
X297094D02*
X296135D01*
X295209Y157016D01*
X294378Y156536D01*
X293700Y155858D01*
X293221Y155028D01*
X292972Y154102D01*
Y153143D01*
X293221Y152216D01*
X293700Y151386D01*
X294378Y150708D01*
X295209Y150229D01*
X296135Y149980D01*
X297094D01*
X298020Y150229D01*
X298850Y150708D01*
X299528Y151386D01*
X300008Y152216D01*
X300256Y153143D01*
Y154102D01*
X300008Y155028D01*
X299528Y155858D01*
X298850Y156536D01*
X298020Y157016D01*
X297094Y157264D01*
D02*
G37*
G36*
X67094D02*
X66135D01*
X65209Y157016D01*
X64378Y156536D01*
X63700Y155858D01*
X63221Y155028D01*
X62972Y154102D01*
Y153143D01*
X63221Y152216D01*
X63700Y151386D01*
X64378Y150708D01*
X65209Y150229D01*
X66135Y149980D01*
X67094D01*
X68020Y150229D01*
X68850Y150708D01*
X69528Y151386D01*
X70008Y152216D01*
X70256Y153143D01*
Y154102D01*
X70008Y155028D01*
X69528Y155858D01*
X68850Y156536D01*
X68020Y157016D01*
X67094Y157264D01*
D02*
G37*
G36*
X57094D02*
X56135D01*
X55208Y157016D01*
X54378Y156536D01*
X53700Y155858D01*
X53221Y155028D01*
X52972Y154102D01*
Y153143D01*
X53221Y152216D01*
X53700Y151386D01*
X54378Y150708D01*
X55208Y150229D01*
X56135Y149980D01*
X57094D01*
X58020Y150229D01*
X58850Y150708D01*
X59528Y151386D01*
X60008Y152216D01*
X60256Y153143D01*
Y154102D01*
X60008Y155028D01*
X59528Y155858D01*
X58850Y156536D01*
X58020Y157016D01*
X57094Y157264D01*
D02*
G37*
G36*
X307094Y147264D02*
X306135D01*
X305208Y147016D01*
X304378Y146536D01*
X303700Y145858D01*
X303221Y145028D01*
X302972Y144102D01*
Y143143D01*
X303221Y142216D01*
X303700Y141386D01*
X304378Y140708D01*
X305208Y140228D01*
X306135Y139980D01*
X307094D01*
X308020Y140228D01*
X308850Y140708D01*
X309528Y141386D01*
X310008Y142216D01*
X310256Y143143D01*
Y144102D01*
X310008Y145028D01*
X309528Y145858D01*
X308850Y146536D01*
X308020Y147016D01*
X307094Y147264D01*
D02*
G37*
G36*
X297094D02*
X296135D01*
X295209Y147016D01*
X294378Y146536D01*
X293700Y145858D01*
X293221Y145028D01*
X292972Y144102D01*
Y143143D01*
X293221Y142216D01*
X293700Y141386D01*
X294378Y140708D01*
X295209Y140228D01*
X296135Y139980D01*
X297094D01*
X298020Y140228D01*
X298850Y140708D01*
X299528Y141386D01*
X300008Y142216D01*
X300256Y143143D01*
Y144102D01*
X300008Y145028D01*
X299528Y145858D01*
X298850Y146536D01*
X298020Y147016D01*
X297094Y147264D01*
D02*
G37*
G36*
X67094D02*
X66135D01*
X65209Y147016D01*
X64378Y146536D01*
X63700Y145858D01*
X63221Y145028D01*
X62972Y144102D01*
Y143143D01*
X63221Y142216D01*
X63700Y141386D01*
X64378Y140708D01*
X65209Y140228D01*
X66135Y139980D01*
X67094D01*
X68020Y140228D01*
X68850Y140708D01*
X69528Y141386D01*
X70008Y142216D01*
X70256Y143143D01*
Y144102D01*
X70008Y145028D01*
X69528Y145858D01*
X68850Y146536D01*
X68020Y147016D01*
X67094Y147264D01*
D02*
G37*
G36*
X57094D02*
X56135D01*
X55208Y147016D01*
X54378Y146536D01*
X53700Y145858D01*
X53221Y145028D01*
X52972Y144102D01*
Y143143D01*
X53221Y142216D01*
X53700Y141386D01*
X54378Y140708D01*
X55208Y140228D01*
X56135Y139980D01*
X57094D01*
X58020Y140228D01*
X58850Y140708D01*
X59528Y141386D01*
X60008Y142216D01*
X60256Y143143D01*
Y144102D01*
X60008Y145028D01*
X59528Y145858D01*
X58850Y146536D01*
X58020Y147016D01*
X57094Y147264D01*
D02*
G37*
G36*
X265888Y136614D02*
X265214D01*
X264563Y136440D01*
X263980Y136103D01*
X263503Y135626D01*
X263166Y135043D01*
X263039Y134566D01*
X257997D01*
X257953Y134642D01*
X257477Y135119D01*
X256893Y135456D01*
X256242Y135630D01*
X255569D01*
X254918Y135456D01*
X254334Y135119D01*
X253858Y134642D01*
X253521Y134059D01*
X253346Y133408D01*
Y132734D01*
X253521Y132083D01*
X253858Y131500D01*
X254334Y131023D01*
X254918Y130686D01*
X255569Y130512D01*
X256242D01*
X256893Y130686D01*
X257477Y131023D01*
X257953Y131500D01*
X258290Y132083D01*
X258418Y132560D01*
X263460D01*
X263503Y132484D01*
X263980Y132007D01*
X264563Y131670D01*
X265214Y131496D01*
X265888D01*
X266539Y131670D01*
X267123Y132007D01*
X267599Y132484D01*
X267936Y133067D01*
X268110Y133718D01*
Y134392D01*
X267936Y135043D01*
X267599Y135626D01*
X267123Y136103D01*
X266539Y136440D01*
X265888Y136614D01*
D02*
G37*
G36*
X142758Y143307D02*
X142084D01*
X141434Y143133D01*
X140850Y142796D01*
X140374Y142319D01*
X140037Y141736D01*
X139862Y141085D01*
Y140411D01*
X140037Y139760D01*
X140374Y139177D01*
X140850Y138700D01*
X141434Y138363D01*
X142084Y138189D01*
X142758D01*
X143391Y138359D01*
X147507Y134243D01*
X147832Y134026D01*
X147935Y134005D01*
X148108Y133363D01*
X148444Y132779D01*
X148921Y132303D01*
X149504Y131966D01*
X150155Y131791D01*
X150829D01*
X151480Y131966D01*
X152063Y132303D01*
X152540Y132779D01*
X152877Y133363D01*
X153051Y134013D01*
Y134687D01*
X152877Y135338D01*
X152540Y135922D01*
X152063Y136398D01*
X151480Y136735D01*
X150829Y136909D01*
X150155D01*
X149504Y136735D01*
X148921Y136398D01*
X148556Y136033D01*
X144811Y139778D01*
X144980Y140411D01*
Y141085D01*
X144806Y141736D01*
X144469Y142319D01*
X143993Y142796D01*
X143409Y143133D01*
X142758Y143307D01*
D02*
G37*
G36*
X208802Y152854D02*
X208128D01*
X207477Y152680D01*
X206893Y152343D01*
X206417Y151867D01*
X206080Y151283D01*
X205906Y150632D01*
Y149958D01*
X206080Y149308D01*
X206417Y148724D01*
X206893Y148248D01*
X207461Y147920D01*
Y136639D01*
X207537Y136255D01*
X207755Y135930D01*
X208230Y135455D01*
X208048Y135141D01*
X207874Y134491D01*
Y133817D01*
X208048Y133166D01*
X208385Y132582D01*
X208862Y132106D01*
X209445Y131769D01*
X210096Y131595D01*
X210770D01*
X211421Y131769D01*
X212004Y132106D01*
X212481Y132582D01*
X212818Y133166D01*
X212992Y133817D01*
Y134491D01*
X212818Y135141D01*
X212481Y135725D01*
X212004Y136201D01*
X211421Y136538D01*
X210770Y136713D01*
X210096D01*
X209871Y136652D01*
X209468Y137055D01*
Y147920D01*
X210036Y148248D01*
X210512Y148724D01*
X210849Y149308D01*
X211024Y149958D01*
Y150632D01*
X210849Y151283D01*
X210512Y151867D01*
X210036Y152343D01*
X209452Y152680D01*
X208802Y152854D01*
D02*
G37*
G36*
X307094Y137264D02*
X306135D01*
X305208Y137016D01*
X304378Y136536D01*
X303700Y135858D01*
X303221Y135028D01*
X302972Y134101D01*
Y133143D01*
X303221Y132216D01*
X303700Y131386D01*
X304378Y130708D01*
X305208Y130228D01*
X306135Y129980D01*
X307094D01*
X308020Y130228D01*
X308850Y130708D01*
X309528Y131386D01*
X310008Y132216D01*
X310256Y133143D01*
Y134101D01*
X310008Y135028D01*
X309528Y135858D01*
X308850Y136536D01*
X308020Y137016D01*
X307094Y137264D01*
D02*
G37*
G36*
X297094D02*
X296135D01*
X295209Y137016D01*
X294378Y136536D01*
X293700Y135858D01*
X293221Y135028D01*
X292972Y134101D01*
Y133143D01*
X293221Y132216D01*
X293700Y131386D01*
X294378Y130708D01*
X295209Y130228D01*
X296135Y129980D01*
X297094D01*
X298020Y130228D01*
X298850Y130708D01*
X299528Y131386D01*
X300008Y132216D01*
X300256Y133143D01*
Y134101D01*
X300008Y135028D01*
X299528Y135858D01*
X298850Y136536D01*
X298020Y137016D01*
X297094Y137264D01*
D02*
G37*
G36*
X67094D02*
X66135D01*
X65209Y137016D01*
X64378Y136536D01*
X63700Y135858D01*
X63221Y135028D01*
X62972Y134101D01*
Y133143D01*
X63221Y132216D01*
X63700Y131386D01*
X64378Y130708D01*
X65209Y130228D01*
X66135Y129980D01*
X67094D01*
X68020Y130228D01*
X68850Y130708D01*
X69528Y131386D01*
X70008Y132216D01*
X70256Y133143D01*
Y134101D01*
X70008Y135028D01*
X69528Y135858D01*
X68850Y136536D01*
X68020Y137016D01*
X67094Y137264D01*
D02*
G37*
G36*
X57094D02*
X56135D01*
X55208Y137016D01*
X54378Y136536D01*
X53700Y135858D01*
X53221Y135028D01*
X52972Y134101D01*
Y133143D01*
X53221Y132216D01*
X53700Y131386D01*
X54378Y130708D01*
X55208Y130228D01*
X56135Y129980D01*
X57094D01*
X58020Y130228D01*
X58850Y130708D01*
X59528Y131386D01*
X60008Y132216D01*
X60256Y133143D01*
Y134101D01*
X60008Y135028D01*
X59528Y135858D01*
X58850Y136536D01*
X58020Y137016D01*
X57094Y137264D01*
D02*
G37*
G36*
X210573Y128642D02*
X209899D01*
X209248Y128467D01*
X208665Y128130D01*
X208189Y127654D01*
X207852Y127070D01*
X207677Y126420D01*
Y125746D01*
X207852Y125095D01*
X208189Y124511D01*
X208665Y124035D01*
X209248Y123698D01*
X209899Y123524D01*
X210573D01*
X211224Y123698D01*
X211807Y124035D01*
X212284Y124511D01*
X212612Y125079D01*
X226973D01*
X227357Y125155D01*
X227682Y125373D01*
X228679Y126370D01*
X235401D01*
X235797Y125973D01*
X235732Y125731D01*
Y125057D01*
X235906Y124406D01*
X236243Y123822D01*
X236720Y123346D01*
X237303Y123009D01*
X237954Y122835D01*
X238628D01*
X239279Y123009D01*
X239862Y123346D01*
X240339Y123822D01*
X240676Y124406D01*
X240850Y125057D01*
Y125731D01*
X240676Y126382D01*
X240339Y126965D01*
X239862Y127442D01*
X239279Y127778D01*
X238628Y127953D01*
X237954D01*
X237303Y127778D01*
X237004Y127605D01*
X236526Y128083D01*
X236200Y128300D01*
X235817Y128377D01*
X228263D01*
X227879Y128300D01*
X227554Y128083D01*
X226557Y127086D01*
X212612D01*
X212284Y127654D01*
X211807Y128130D01*
X211224Y128467D01*
X210573Y128642D01*
D02*
G37*
G36*
X232817Y125197D02*
X232143D01*
X231492Y125022D01*
X230909Y124686D01*
X230433Y124209D01*
X230096Y123626D01*
X229921Y122975D01*
Y122301D01*
X230091Y121668D01*
X224781Y116358D01*
X216746D01*
X216418Y116926D01*
X215941Y117402D01*
X215358Y117739D01*
X214707Y117913D01*
X214033D01*
X213382Y117739D01*
X212799Y117402D01*
X212322Y116926D01*
X211985Y116342D01*
X211811Y115691D01*
Y115017D01*
X211985Y114367D01*
X212322Y113783D01*
X212799Y113307D01*
X213382Y112970D01*
X214033Y112795D01*
X214707D01*
X215358Y112970D01*
X215941Y113307D01*
X216418Y113783D01*
X216746Y114351D01*
X225197D01*
X225581Y114427D01*
X225906Y114645D01*
X231510Y120248D01*
X232143Y120079D01*
X232817D01*
X233468Y120253D01*
X234052Y120590D01*
X234528Y121066D01*
X234865Y121650D01*
X235039Y122301D01*
Y122975D01*
X234865Y123626D01*
X234528Y124209D01*
X234052Y124686D01*
X233468Y125022D01*
X232817Y125197D01*
D02*
G37*
G36*
X307094Y127264D02*
X306135D01*
X305208Y127016D01*
X304378Y126536D01*
X303700Y125858D01*
X303221Y125028D01*
X302972Y124101D01*
Y123143D01*
X303221Y122216D01*
X303700Y121386D01*
X304378Y120708D01*
X305208Y120229D01*
X306135Y119980D01*
X307094D01*
X308020Y120229D01*
X308850Y120708D01*
X309528Y121386D01*
X310008Y122216D01*
X310256Y123143D01*
Y124101D01*
X310008Y125028D01*
X309528Y125858D01*
X308850Y126536D01*
X308020Y127016D01*
X307094Y127264D01*
D02*
G37*
G36*
X297094D02*
X296135D01*
X295209Y127016D01*
X294378Y126536D01*
X293700Y125858D01*
X293221Y125028D01*
X292972Y124101D01*
Y123143D01*
X293221Y122216D01*
X293700Y121386D01*
X294378Y120708D01*
X295209Y120229D01*
X296135Y119980D01*
X297094D01*
X298020Y120229D01*
X298850Y120708D01*
X299528Y121386D01*
X300008Y122216D01*
X300256Y123143D01*
Y124101D01*
X300008Y125028D01*
X299528Y125858D01*
X298850Y126536D01*
X298020Y127016D01*
X297094Y127264D01*
D02*
G37*
G36*
X67094D02*
X66135D01*
X65209Y127016D01*
X64378Y126536D01*
X63700Y125858D01*
X63221Y125028D01*
X62972Y124101D01*
Y123143D01*
X63221Y122216D01*
X63700Y121386D01*
X64378Y120708D01*
X65209Y120229D01*
X66135Y119980D01*
X67094D01*
X68020Y120229D01*
X68850Y120708D01*
X69528Y121386D01*
X70008Y122216D01*
X70256Y123143D01*
Y124101D01*
X70008Y125028D01*
X69528Y125858D01*
X68850Y126536D01*
X68020Y127016D01*
X67094Y127264D01*
D02*
G37*
G36*
X57094D02*
X56135D01*
X55208Y127016D01*
X54378Y126536D01*
X53700Y125858D01*
X53221Y125028D01*
X52972Y124101D01*
Y123143D01*
X53221Y122216D01*
X53700Y121386D01*
X54378Y120708D01*
X55208Y120229D01*
X56135Y119980D01*
X57094D01*
X58020Y120229D01*
X58850Y120708D01*
X59528Y121386D01*
X60008Y122216D01*
X60256Y123143D01*
Y124101D01*
X60008Y125028D01*
X59528Y125858D01*
X58850Y126536D01*
X58020Y127016D01*
X57094Y127264D01*
D02*
G37*
G36*
X82916Y123721D02*
X82242D01*
X81591Y123546D01*
X81007Y123209D01*
X80531Y122733D01*
X80194Y122149D01*
X80020Y121498D01*
Y120825D01*
X80189Y120191D01*
X78226Y118228D01*
X76194D01*
X75867Y118796D01*
X75390Y119272D01*
X74807Y119609D01*
X74156Y119783D01*
X73482D01*
X72831Y119609D01*
X72248Y119272D01*
X71771Y118796D01*
X71434Y118212D01*
X71260Y117561D01*
Y116887D01*
X71434Y116237D01*
X71771Y115653D01*
X72248Y115177D01*
X72831Y114840D01*
X73482Y114665D01*
X74156D01*
X74807Y114840D01*
X75390Y115177D01*
X75867Y115653D01*
X76194Y116221D01*
X78642D01*
X79026Y116297D01*
X79351Y116515D01*
X81609Y118772D01*
X82242Y118602D01*
X82916D01*
X83566Y118777D01*
X84150Y119114D01*
X84627Y119590D01*
X84963Y120174D01*
X85138Y120825D01*
Y121498D01*
X84963Y122149D01*
X84627Y122733D01*
X84150Y123209D01*
X83566Y123546D01*
X82916Y123721D01*
D02*
G37*
G36*
X237935Y119685D02*
X237262D01*
X236611Y119511D01*
X236027Y119174D01*
X235551Y118697D01*
X235214Y118114D01*
X235039Y117463D01*
Y117023D01*
X234539Y116816D01*
X234347Y117008D01*
X233763Y117345D01*
X233113Y117520D01*
X232439D01*
X231788Y117345D01*
X231204Y117008D01*
X230728Y116532D01*
X230391Y115948D01*
X230217Y115297D01*
Y114624D01*
X230391Y113973D01*
X230728Y113389D01*
X231204Y112913D01*
X231772Y112585D01*
Y111490D01*
X231272Y111356D01*
X231182Y111512D01*
X230705Y111989D01*
X230122Y112326D01*
X229471Y112500D01*
X228797D01*
X228146Y112326D01*
X227563Y111989D01*
X227086Y111512D01*
X226749Y110929D01*
X226575Y110278D01*
Y109604D01*
X226749Y108953D01*
X227086Y108370D01*
X227563Y107893D01*
X228130Y107565D01*
Y104935D01*
X227563Y104607D01*
X227086Y104130D01*
X226749Y103547D01*
X226575Y102896D01*
Y102222D01*
X226749Y101571D01*
X227086Y100988D01*
X227563Y100511D01*
X228146Y100174D01*
X228797Y100000D01*
X229471D01*
X230122Y100174D01*
X230705Y100511D01*
X231182Y100988D01*
X231519Y101571D01*
X231519Y101572D01*
X232060Y101661D01*
X232066Y101653D01*
X241219Y92499D01*
X241545Y92282D01*
X241929Y92205D01*
X243195D01*
X243523Y91637D01*
X244000Y91161D01*
X244583Y90824D01*
X245234Y90650D01*
X245908D01*
X246559Y90824D01*
X247142Y91161D01*
X247619Y91637D01*
X247955Y92221D01*
X248130Y92872D01*
Y93546D01*
X247955Y94196D01*
X247619Y94780D01*
X247142Y95256D01*
X246559Y95593D01*
X245908Y95768D01*
X245234D01*
X244583Y95593D01*
X244000Y95256D01*
X243523Y94780D01*
X243195Y94212D01*
X242345D01*
X233779Y102778D01*
Y112585D01*
X234347Y112913D01*
X234823Y113389D01*
X235160Y113973D01*
X235335Y114624D01*
Y115064D01*
X235835Y115271D01*
X236027Y115078D01*
X236611Y114741D01*
X236644Y114732D01*
Y109926D01*
X236126Y109626D01*
X235649Y109150D01*
X235312Y108566D01*
X235138Y107916D01*
Y107242D01*
X235312Y106591D01*
X235649Y106007D01*
X236126Y105531D01*
X236709Y105194D01*
X237360Y105020D01*
X238034D01*
X238685Y105194D01*
X239268Y105531D01*
X239745Y106007D01*
X240082Y106591D01*
X240256Y107242D01*
Y107916D01*
X240082Y108566D01*
X239745Y109150D01*
X239268Y109626D01*
X238685Y109963D01*
X238651Y109972D01*
Y114779D01*
X239170Y115078D01*
X239646Y115555D01*
X239983Y116138D01*
X240158Y116789D01*
Y117463D01*
X239983Y118114D01*
X239646Y118697D01*
X239170Y119174D01*
X238586Y119511D01*
X237935Y119685D01*
D02*
G37*
G36*
X176223Y117815D02*
X175549D01*
X174898Y117641D01*
X174314Y117304D01*
X173838Y116827D01*
X173510Y116259D01*
X172146D01*
X171762Y116183D01*
X171436Y115965D01*
X168088Y112618D01*
X162230D01*
X161846Y112541D01*
X161520Y112324D01*
X161466Y112269D01*
X161027Y112522D01*
X160376Y112697D01*
X159703D01*
X159052Y112522D01*
X158468Y112186D01*
X157992Y111709D01*
X157655Y111126D01*
X157480Y110475D01*
Y109801D01*
X157655Y109150D01*
X157992Y108566D01*
X158468Y108090D01*
X159052Y107753D01*
X159703Y107579D01*
X160376D01*
X161027Y107753D01*
X161611Y108090D01*
X162087Y108566D01*
X162424Y109150D01*
X162598Y109801D01*
Y110475D01*
X163080Y110611D01*
X168504D01*
X168888Y110687D01*
X169213Y110905D01*
X172561Y114252D01*
X173510D01*
X173838Y113685D01*
X174314Y113208D01*
X174898Y112871D01*
X175549Y112697D01*
X176223D01*
X176874Y112871D01*
X177457Y113208D01*
X177934Y113685D01*
X178270Y114268D01*
X178445Y114919D01*
Y115593D01*
X178270Y116244D01*
X177934Y116827D01*
X177457Y117304D01*
X176874Y117641D01*
X176223Y117815D01*
D02*
G37*
G36*
X307094Y117264D02*
X306135D01*
X305208Y117016D01*
X304378Y116536D01*
X303700Y115858D01*
X303221Y115028D01*
X302972Y114102D01*
Y113143D01*
X303221Y112216D01*
X303700Y111386D01*
X304378Y110708D01*
X305208Y110229D01*
X306135Y109980D01*
X307094D01*
X308020Y110229D01*
X308850Y110708D01*
X309528Y111386D01*
X310008Y112216D01*
X310256Y113143D01*
Y114102D01*
X310008Y115028D01*
X309528Y115858D01*
X308850Y116536D01*
X308020Y117016D01*
X307094Y117264D01*
D02*
G37*
G36*
X297094D02*
X296135D01*
X295209Y117016D01*
X294378Y116536D01*
X293700Y115858D01*
X293221Y115028D01*
X292972Y114102D01*
Y113143D01*
X293221Y112216D01*
X293700Y111386D01*
X294378Y110708D01*
X295209Y110229D01*
X296135Y109980D01*
X297094D01*
X298020Y110229D01*
X298850Y110708D01*
X299528Y111386D01*
X300008Y112216D01*
X300256Y113143D01*
Y114102D01*
X300008Y115028D01*
X299528Y115858D01*
X298850Y116536D01*
X298020Y117016D01*
X297094Y117264D01*
D02*
G37*
G36*
X67094D02*
X66135D01*
X65209Y117016D01*
X64378Y116536D01*
X63700Y115858D01*
X63221Y115028D01*
X62972Y114102D01*
Y113143D01*
X63221Y112216D01*
X63700Y111386D01*
X64378Y110708D01*
X65209Y110229D01*
X66135Y109980D01*
X67094D01*
X68020Y110229D01*
X68850Y110708D01*
X69528Y111386D01*
X70008Y112216D01*
X70256Y113143D01*
Y114102D01*
X70008Y115028D01*
X69528Y115858D01*
X68850Y116536D01*
X68020Y117016D01*
X67094Y117264D01*
D02*
G37*
G36*
X57094D02*
X56135D01*
X55208Y117016D01*
X54378Y116536D01*
X53700Y115858D01*
X53221Y115028D01*
X52972Y114102D01*
Y113143D01*
X53221Y112216D01*
X53700Y111386D01*
X54378Y110708D01*
X55208Y110229D01*
X56135Y109980D01*
X57094D01*
X58020Y110229D01*
X58850Y110708D01*
X59528Y111386D01*
X60008Y112216D01*
X60256Y113143D01*
Y114102D01*
X60008Y115028D01*
X59528Y115858D01*
X58850Y116536D01*
X58020Y117016D01*
X57094Y117264D01*
D02*
G37*
G36*
X307094Y107264D02*
X306135D01*
X305208Y107016D01*
X304378Y106536D01*
X303700Y105858D01*
X303221Y105028D01*
X302972Y104102D01*
Y103143D01*
X303221Y102216D01*
X303700Y101386D01*
X304378Y100708D01*
X305208Y100229D01*
X306135Y99980D01*
X307094D01*
X308020Y100229D01*
X308850Y100708D01*
X309528Y101386D01*
X310008Y102216D01*
X310256Y103143D01*
Y104102D01*
X310008Y105028D01*
X309528Y105858D01*
X308850Y106536D01*
X308020Y107016D01*
X307094Y107264D01*
D02*
G37*
G36*
X297094D02*
X296135D01*
X295209Y107016D01*
X294378Y106536D01*
X293700Y105858D01*
X293221Y105028D01*
X292972Y104102D01*
Y103143D01*
X293221Y102216D01*
X293700Y101386D01*
X294378Y100708D01*
X295209Y100229D01*
X296135Y99980D01*
X297094D01*
X298020Y100229D01*
X298850Y100708D01*
X299528Y101386D01*
X300008Y102216D01*
X300256Y103143D01*
Y104102D01*
X300008Y105028D01*
X299528Y105858D01*
X298850Y106536D01*
X298020Y107016D01*
X297094Y107264D01*
D02*
G37*
G36*
X67094D02*
X66135D01*
X65209Y107016D01*
X64378Y106536D01*
X63700Y105858D01*
X63221Y105028D01*
X62972Y104102D01*
Y103143D01*
X63221Y102216D01*
X63700Y101386D01*
X64378Y100708D01*
X65209Y100229D01*
X66135Y99980D01*
X67094D01*
X68020Y100229D01*
X68850Y100708D01*
X69528Y101386D01*
X70008Y102216D01*
X70256Y103143D01*
Y104102D01*
X70008Y105028D01*
X69528Y105858D01*
X68850Y106536D01*
X68020Y107016D01*
X67094Y107264D01*
D02*
G37*
G36*
X57094D02*
X56135D01*
X55208Y107016D01*
X54378Y106536D01*
X53700Y105858D01*
X53221Y105028D01*
X52972Y104102D01*
Y103143D01*
X53221Y102216D01*
X53700Y101386D01*
X54378Y100708D01*
X55208Y100229D01*
X56135Y99980D01*
X57094D01*
X58020Y100229D01*
X58850Y100708D01*
X59528Y101386D01*
X60008Y102216D01*
X60256Y103143D01*
Y104102D01*
X60008Y105028D01*
X59528Y105858D01*
X58850Y106536D01*
X58020Y107016D01*
X57094Y107264D01*
D02*
G37*
G36*
X221695Y112697D02*
X221021D01*
X220371Y112522D01*
X219787Y112186D01*
X219310Y111709D01*
X218974Y111126D01*
X218799Y110475D01*
Y109801D01*
X218974Y109150D01*
X219310Y108566D01*
X219787Y108090D01*
X220371Y107753D01*
X220798Y107639D01*
Y104187D01*
X220673Y104115D01*
X220196Y103638D01*
X219859Y103055D01*
X219685Y102404D01*
Y101730D01*
X219859Y101079D01*
X220196Y100496D01*
X220673Y100019D01*
X221256Y99682D01*
X221907Y99508D01*
X222581D01*
X223232Y99682D01*
X223815Y100019D01*
X224292Y100496D01*
X224629Y101079D01*
X224803Y101730D01*
Y102404D01*
X224629Y103055D01*
X224292Y103638D01*
X223815Y104115D01*
X223232Y104452D01*
X222805Y104566D01*
Y108018D01*
X222930Y108090D01*
X223406Y108566D01*
X223743Y109150D01*
X223917Y109801D01*
Y110475D01*
X223743Y111126D01*
X223406Y111709D01*
X222930Y112186D01*
X222346Y112522D01*
X221695Y112697D01*
D02*
G37*
G36*
X253290Y97539D02*
X252616D01*
X251965Y97365D01*
X251381Y97028D01*
X250905Y96552D01*
X250568Y95968D01*
X250394Y95317D01*
Y94643D01*
X250568Y93993D01*
X250905Y93409D01*
X251381Y92933D01*
X251965Y92596D01*
X252616Y92421D01*
X253290D01*
X253941Y92596D01*
X254440Y92884D01*
X254605Y92774D01*
X254989Y92697D01*
X267343D01*
X267497Y92123D01*
X267834Y91539D01*
X268311Y91062D01*
X268894Y90726D01*
X269545Y90551D01*
X270219D01*
X270870Y90726D01*
X271453Y91062D01*
X271930Y91539D01*
X272267Y92123D01*
X272441Y92773D01*
Y93447D01*
X272267Y94098D01*
X271930Y94682D01*
X271453Y95158D01*
X270870Y95495D01*
X270219Y95669D01*
X269545D01*
X268894Y95495D01*
X268311Y95158D01*
X267857Y94704D01*
X255512D01*
Y95317D01*
X255337Y95968D01*
X255000Y96552D01*
X254524Y97028D01*
X253941Y97365D01*
X253290Y97539D01*
D02*
G37*
G36*
X307094Y97264D02*
X306135D01*
X305208Y97016D01*
X304378Y96536D01*
X303700Y95858D01*
X303221Y95028D01*
X302972Y94102D01*
Y93143D01*
X303221Y92216D01*
X303700Y91386D01*
X304378Y90708D01*
X305208Y90228D01*
X306135Y89980D01*
X307094D01*
X308020Y90228D01*
X308850Y90708D01*
X309528Y91386D01*
X310008Y92216D01*
X310256Y93143D01*
Y94102D01*
X310008Y95028D01*
X309528Y95858D01*
X308850Y96536D01*
X308020Y97016D01*
X307094Y97264D01*
D02*
G37*
G36*
X297094D02*
X296135D01*
X295209Y97016D01*
X294378Y96536D01*
X293700Y95858D01*
X293221Y95028D01*
X292972Y94102D01*
Y93143D01*
X293221Y92216D01*
X293700Y91386D01*
X294378Y90708D01*
X295209Y90228D01*
X296135Y89980D01*
X297094D01*
X298020Y90228D01*
X298850Y90708D01*
X299528Y91386D01*
X300008Y92216D01*
X300256Y93143D01*
Y94102D01*
X300008Y95028D01*
X299528Y95858D01*
X298850Y96536D01*
X298020Y97016D01*
X297094Y97264D01*
D02*
G37*
G36*
X67094D02*
X66135D01*
X65209Y97016D01*
X64378Y96536D01*
X63700Y95858D01*
X63221Y95028D01*
X62972Y94102D01*
Y93143D01*
X63221Y92216D01*
X63700Y91386D01*
X64378Y90708D01*
X65209Y90228D01*
X66135Y89980D01*
X67094D01*
X68020Y90228D01*
X68850Y90708D01*
X69528Y91386D01*
X70008Y92216D01*
X70256Y93143D01*
Y94102D01*
X70008Y95028D01*
X69528Y95858D01*
X68850Y96536D01*
X68020Y97016D01*
X67094Y97264D01*
D02*
G37*
G36*
X57094D02*
X56135D01*
X55208Y97016D01*
X54378Y96536D01*
X53700Y95858D01*
X53221Y95028D01*
X52972Y94102D01*
Y93143D01*
X53221Y92216D01*
X53700Y91386D01*
X54378Y90708D01*
X55208Y90228D01*
X56135Y89980D01*
X57094D01*
X58020Y90228D01*
X58850Y90708D01*
X59528Y91386D01*
X60008Y92216D01*
X60256Y93143D01*
Y94102D01*
X60008Y95028D01*
X59528Y95858D01*
X58850Y96536D01*
X58020Y97016D01*
X57094Y97264D01*
D02*
G37*
G36*
X168287Y95433D02*
X161083D01*
Y88228D01*
X168287D01*
Y95433D01*
D02*
G37*
G36*
X155159D02*
X154211D01*
X153295Y95188D01*
X152473Y94713D01*
X151802Y94043D01*
X151328Y93221D01*
X151083Y92305D01*
Y91356D01*
X151328Y90440D01*
X151802Y89619D01*
X152473Y88948D01*
X153295Y88474D01*
X154211Y88228D01*
X155159D01*
X156076Y88474D01*
X156897Y88948D01*
X157568Y89619D01*
X158042Y90440D01*
X158287Y91356D01*
Y92305D01*
X158042Y93221D01*
X157568Y94043D01*
X156897Y94713D01*
X156076Y95188D01*
X155159Y95433D01*
D02*
G37*
G36*
X145159D02*
X144211D01*
X143295Y95188D01*
X142473Y94713D01*
X141802Y94043D01*
X141328Y93221D01*
X141083Y92305D01*
Y91356D01*
X141328Y90440D01*
X141802Y89619D01*
X142473Y88948D01*
X143295Y88474D01*
X144211Y88228D01*
X145159D01*
X146075Y88474D01*
X146897Y88948D01*
X147568Y89619D01*
X148042Y90440D01*
X148287Y91356D01*
Y92305D01*
X148042Y93221D01*
X147568Y94043D01*
X146897Y94713D01*
X146075Y95188D01*
X145159Y95433D01*
D02*
G37*
G36*
X212382Y94842D02*
X205177D01*
Y87638D01*
X212382D01*
Y94842D01*
D02*
G37*
G36*
X199254D02*
X198305D01*
X197389Y94597D01*
X196568Y94123D01*
X195897Y93452D01*
X195423Y92631D01*
X195177Y91714D01*
Y90766D01*
X195423Y89850D01*
X195897Y89028D01*
X196568Y88358D01*
X197389Y87883D01*
X198305Y87638D01*
X199254D01*
X200170Y87883D01*
X200991Y88358D01*
X201662Y89028D01*
X202136Y89850D01*
X202382Y90766D01*
Y91714D01*
X202136Y92631D01*
X201662Y93452D01*
X200991Y94123D01*
X200170Y94597D01*
X199254Y94842D01*
D02*
G37*
G36*
X189254D02*
X188305D01*
X187389Y94597D01*
X186568Y94123D01*
X185897Y93452D01*
X185423Y92631D01*
X185177Y91714D01*
Y90766D01*
X185423Y89850D01*
X185897Y89028D01*
X186568Y88358D01*
X187389Y87883D01*
X188305Y87638D01*
X189254D01*
X190170Y87883D01*
X190991Y88358D01*
X191662Y89028D01*
X192136Y89850D01*
X192382Y90766D01*
Y91714D01*
X192136Y92631D01*
X191662Y93452D01*
X190991Y94123D01*
X190170Y94597D01*
X189254Y94842D01*
D02*
G37*
G36*
X257227Y84252D02*
X256553D01*
X255902Y84078D01*
X255318Y83741D01*
X254842Y83264D01*
X254505Y82681D01*
X254331Y82030D01*
Y81356D01*
X254500Y80723D01*
X252835Y79058D01*
X252267D01*
X251883Y78981D01*
X251557Y78764D01*
X247132Y74338D01*
X246498Y74508D01*
X245825D01*
X245174Y74334D01*
X244590Y73997D01*
X244114Y73520D01*
X243777Y72937D01*
X243602Y72286D01*
Y71612D01*
X243777Y70961D01*
X244114Y70377D01*
X244590Y69901D01*
X245174Y69564D01*
X245825Y69390D01*
X246498D01*
X247149Y69564D01*
X247733Y69901D01*
X248209Y70377D01*
X248546Y70961D01*
X248721Y71612D01*
Y72286D01*
X248551Y72919D01*
X252682Y77051D01*
X253251D01*
X253635Y77127D01*
X253960Y77344D01*
X255920Y79303D01*
X256553Y79134D01*
X257227D01*
X257877Y79308D01*
X258461Y79645D01*
X258938Y80122D01*
X259274Y80705D01*
X259449Y81356D01*
Y82030D01*
X259274Y82681D01*
X258938Y83264D01*
X258461Y83741D01*
X257877Y84078D01*
X257227Y84252D01*
D02*
G37*
G36*
X328458Y80413D02*
X327447D01*
X326471Y80152D01*
X325596Y79646D01*
X324881Y78932D01*
X324376Y78056D01*
X324114Y77080D01*
Y76069D01*
X324376Y75093D01*
X324881Y74218D01*
X325596Y73503D01*
X326471Y72998D01*
X327447Y72736D01*
X328458D01*
X329434Y72998D01*
X330310Y73503D01*
X331024Y74218D01*
X331530Y75093D01*
X331791Y76069D01*
Y77080D01*
X331530Y78056D01*
X331024Y78932D01*
X330310Y79646D01*
X329434Y80152D01*
X328458Y80413D01*
D02*
G37*
G36*
X37316Y77716D02*
X36306D01*
X35329Y77455D01*
X34454Y76950D01*
X33739Y76235D01*
X33234Y75360D01*
X32972Y74383D01*
Y73373D01*
X33234Y72396D01*
X33739Y71521D01*
X34454Y70806D01*
X35329Y70301D01*
X36306Y70039D01*
X37316D01*
X38293Y70301D01*
X39168Y70806D01*
X39883Y71521D01*
X40388Y72396D01*
X40650Y73373D01*
Y74383D01*
X40388Y75360D01*
X39883Y76235D01*
X39168Y76950D01*
X38293Y77455D01*
X37316Y77716D01*
D02*
G37*
G36*
X331791Y70413D02*
X324114D01*
Y62736D01*
X331791D01*
Y70413D01*
D02*
G37*
G36*
X108506Y70276D02*
X107832D01*
X107182Y70101D01*
X106598Y69764D01*
X106122Y69288D01*
X105785Y68704D01*
X105610Y68053D01*
Y67380D01*
X105785Y66729D01*
X106122Y66145D01*
X106598Y65669D01*
X107182Y65332D01*
X107832Y65158D01*
X108506D01*
X109140Y65327D01*
X110314Y64153D01*
X110640Y63935D01*
X111024Y63859D01*
X156089D01*
X156417Y63291D01*
X156893Y62814D01*
X157477Y62477D01*
X158128Y62303D01*
X158801D01*
X159452Y62477D01*
X160036Y62814D01*
X160512Y63291D01*
X160849Y63874D01*
X161024Y64525D01*
Y65199D01*
X160849Y65850D01*
X160512Y66434D01*
X160036Y66910D01*
X159452Y67247D01*
X158801Y67421D01*
X158128D01*
X157477Y67247D01*
X156893Y66910D01*
X156417Y66434D01*
X156089Y65866D01*
X111439D01*
X110559Y66746D01*
X110728Y67380D01*
Y68053D01*
X110554Y68704D01*
X110217Y69288D01*
X109741Y69764D01*
X109157Y70101D01*
X108506Y70276D01*
D02*
G37*
G36*
X40650Y67716D02*
X32972D01*
Y60039D01*
X40650D01*
Y67716D01*
D02*
G37*
G36*
X310475Y67323D02*
X309801D01*
X309150Y67148D01*
X308566Y66812D01*
X308090Y66335D01*
X307753Y65751D01*
X307579Y65101D01*
Y64427D01*
X307753Y63776D01*
X308090Y63192D01*
X308566Y62716D01*
X309150Y62379D01*
X309801Y62205D01*
X310475D01*
X311108Y62374D01*
X313267Y60216D01*
X313592Y59998D01*
X313976Y59922D01*
X317999D01*
X318326Y59354D01*
X318803Y58877D01*
X319386Y58540D01*
X320037Y58366D01*
X320711D01*
X321362Y58540D01*
X321945Y58877D01*
X322422Y59354D01*
X322759Y59937D01*
X322933Y60588D01*
Y61262D01*
X322759Y61913D01*
X322422Y62497D01*
X321945Y62973D01*
X321362Y63310D01*
X320711Y63484D01*
X320037D01*
X319386Y63310D01*
X318803Y62973D01*
X318326Y62497D01*
X317999Y61929D01*
X314392D01*
X312527Y63794D01*
X312697Y64427D01*
Y65101D01*
X312522Y65751D01*
X312186Y66335D01*
X311709Y66812D01*
X311126Y67148D01*
X310475Y67323D01*
D02*
G37*
G36*
X108211Y63287D02*
X107537D01*
X106886Y63113D01*
X106303Y62776D01*
X105826Y62300D01*
X105489Y61716D01*
X105315Y61065D01*
Y60391D01*
X105489Y59741D01*
X105826Y59157D01*
X106303Y58681D01*
X106886Y58344D01*
X107537Y58169D01*
X108211D01*
X108862Y58344D01*
X109445Y58681D01*
X109922Y59157D01*
X110193Y59626D01*
X115802D01*
X115824Y59544D01*
X116161Y58960D01*
X116637Y58484D01*
X117221Y58147D01*
X117872Y57973D01*
X118546D01*
X119196Y58147D01*
X119780Y58484D01*
X120256Y58960D01*
X120593Y59544D01*
X120768Y60195D01*
Y60868D01*
X120593Y61519D01*
X120256Y62103D01*
X119780Y62579D01*
X119196Y62916D01*
X118546Y63090D01*
X117872D01*
X117221Y62916D01*
X116637Y62579D01*
X116161Y62103D01*
X115890Y61633D01*
X110281D01*
X110259Y61716D01*
X109922Y62300D01*
X109445Y62776D01*
X108862Y63113D01*
X108211Y63287D01*
D02*
G37*
G36*
X268250Y76083D02*
X267577D01*
X266926Y75908D01*
X266342Y75571D01*
X265866Y75095D01*
X265529Y74511D01*
X265354Y73861D01*
Y73187D01*
X265529Y72536D01*
X265866Y71952D01*
X266342Y71476D01*
X266910Y71148D01*
Y63014D01*
X258647Y54752D01*
X258014Y54921D01*
X257340D01*
X256689Y54747D01*
X256106Y54410D01*
X255629Y53934D01*
X255293Y53350D01*
X255118Y52699D01*
Y52025D01*
X255293Y51374D01*
X255629Y50791D01*
X256106Y50314D01*
X256689Y49978D01*
X257340Y49803D01*
X258014D01*
X258665Y49978D01*
X259248Y50314D01*
X259725Y50791D01*
X260062Y51374D01*
X260236Y52025D01*
Y52699D01*
X260067Y53332D01*
X268623Y61889D01*
X268841Y62214D01*
X268917Y62598D01*
Y71148D01*
X269485Y71476D01*
X269961Y71952D01*
X270298Y72536D01*
X270472Y73187D01*
Y73861D01*
X270298Y74511D01*
X269961Y75095D01*
X269485Y75571D01*
X268901Y75908D01*
X268250Y76083D01*
D02*
G37*
G36*
X241479Y64961D02*
X240805D01*
X240154Y64786D01*
X239570Y64449D01*
X239094Y63973D01*
X238757Y63389D01*
X238583Y62739D01*
Y62065D01*
X238757Y61414D01*
X239094Y60830D01*
X239570Y60354D01*
X240138Y60026D01*
Y55085D01*
X240215Y54700D01*
X240432Y54375D01*
X240832Y53975D01*
X240529Y53448D01*
X240354Y52798D01*
Y52124D01*
X240529Y51473D01*
X240866Y50889D01*
X241342Y50413D01*
X241926Y50076D01*
X242577Y49902D01*
X243250D01*
X243901Y50076D01*
X244485Y50413D01*
X244961Y50889D01*
X245298Y51473D01*
X245472Y52124D01*
Y52798D01*
X245298Y53448D01*
X244961Y54032D01*
X244485Y54508D01*
X243901Y54845D01*
X243250Y55020D01*
X242626D01*
X242145Y55500D01*
Y60026D01*
X242713Y60354D01*
X243190Y60830D01*
X243526Y61414D01*
X243701Y62065D01*
Y62739D01*
X243526Y63389D01*
X243190Y63973D01*
X242713Y64449D01*
X242129Y64786D01*
X241479Y64961D01*
D02*
G37*
G36*
X273073Y66240D02*
X272399D01*
X271748Y66066D01*
X271165Y65729D01*
X270689Y65252D01*
X270352Y64669D01*
X270177Y64018D01*
Y63344D01*
X270352Y62693D01*
X270689Y62110D01*
X271165Y61633D01*
X271290Y61561D01*
Y54664D01*
X270863Y54550D01*
X270279Y54213D01*
X269803Y53737D01*
X269466Y53153D01*
X269291Y52502D01*
Y51828D01*
X269466Y51178D01*
X269803Y50594D01*
X270279Y50118D01*
X270863Y49781D01*
X271514Y49606D01*
X272187D01*
X272838Y49781D01*
X273422Y50118D01*
X273898Y50594D01*
X274235Y51178D01*
X274409Y51828D01*
Y52502D01*
X274235Y53153D01*
X273898Y53737D01*
X273422Y54213D01*
X273297Y54285D01*
Y61182D01*
X273724Y61296D01*
X274307Y61633D01*
X274784Y62110D01*
X275121Y62693D01*
X275295Y63344D01*
Y64018D01*
X275121Y64669D01*
X274784Y65252D01*
X274307Y65729D01*
X273724Y66066D01*
X273073Y66240D01*
D02*
G37*
G36*
X282525Y47205D02*
X281333D01*
X280182Y46896D01*
X279149Y46300D01*
X278306Y45457D01*
X277710Y44425D01*
X277402Y43273D01*
Y42081D01*
X277710Y40930D01*
X278306Y39897D01*
X279149Y39054D01*
X280182Y38458D01*
X281333Y38150D01*
X282525D01*
X283677Y38458D01*
X284709Y39054D01*
X285552Y39897D01*
X286148Y40930D01*
X286457Y42081D01*
Y43273D01*
X286148Y44425D01*
X285552Y45457D01*
X284709Y46300D01*
X283677Y46896D01*
X282525Y47205D01*
D02*
G37*
G36*
X271738D02*
X270546D01*
X269394Y46896D01*
X268362Y46300D01*
X267519Y45457D01*
X266923Y44425D01*
X266614Y43273D01*
Y42081D01*
X266923Y40930D01*
X267519Y39897D01*
X268362Y39054D01*
X269394Y38458D01*
X270546Y38150D01*
X271738D01*
X272889Y38458D01*
X273922Y39054D01*
X274765Y39897D01*
X275361Y40930D01*
X275669Y42081D01*
Y43273D01*
X275361Y44425D01*
X274765Y45457D01*
X273922Y46300D01*
X272889Y46896D01*
X271738Y47205D01*
D02*
G37*
G36*
X260950D02*
X259758D01*
X258607Y46896D01*
X257574Y46300D01*
X256731Y45457D01*
X256135Y44425D01*
X255827Y43273D01*
Y42081D01*
X256135Y40930D01*
X256731Y39897D01*
X257574Y39054D01*
X258607Y38458D01*
X259758Y38150D01*
X260950D01*
X262102Y38458D01*
X263134Y39054D01*
X263977Y39897D01*
X264573Y40930D01*
X264882Y42081D01*
Y43273D01*
X264573Y44425D01*
X263977Y45457D01*
X263134Y46300D01*
X262102Y46896D01*
X260950Y47205D01*
D02*
G37*
G36*
X250163D02*
X248971D01*
X247819Y46896D01*
X246787Y46300D01*
X245944Y45457D01*
X245348Y44425D01*
X245039Y43273D01*
Y42081D01*
X245348Y40930D01*
X245944Y39897D01*
X246787Y39054D01*
X247819Y38458D01*
X248971Y38150D01*
X250163D01*
X251314Y38458D01*
X252347Y39054D01*
X253190Y39897D01*
X253786Y40930D01*
X254095Y42081D01*
Y43273D01*
X253786Y44425D01*
X253190Y45457D01*
X252347Y46300D01*
X251314Y46896D01*
X250163Y47205D01*
D02*
G37*
G36*
X239376D02*
X238183D01*
X237032Y46896D01*
X235999Y46300D01*
X235157Y45457D01*
X234560Y44425D01*
X234252Y43273D01*
Y42081D01*
X234560Y40930D01*
X235157Y39897D01*
X235999Y39054D01*
X237032Y38458D01*
X238183Y38150D01*
X239376D01*
X240527Y38458D01*
X241560Y39054D01*
X242403Y39897D01*
X242999Y40930D01*
X243307Y42081D01*
Y43273D01*
X242999Y44425D01*
X242403Y45457D01*
X241560Y46300D01*
X240527Y46896D01*
X239376Y47205D01*
D02*
G37*
G36*
X132840D02*
X131648D01*
X130497Y46896D01*
X129464Y46300D01*
X128621Y45457D01*
X128025Y44425D01*
X127717Y43273D01*
Y42081D01*
X128025Y40930D01*
X128621Y39897D01*
X129464Y39054D01*
X130497Y38458D01*
X131648Y38150D01*
X132840D01*
X133992Y38458D01*
X135024Y39054D01*
X135867Y39897D01*
X136463Y40930D01*
X136772Y42081D01*
Y43273D01*
X136463Y44425D01*
X135867Y45457D01*
X135024Y46300D01*
X133992Y46896D01*
X132840Y47205D01*
D02*
G37*
G36*
X122053D02*
X120861D01*
X119709Y46896D01*
X118677Y46300D01*
X117834Y45457D01*
X117238Y44425D01*
X116929Y43273D01*
Y42081D01*
X117238Y40930D01*
X117834Y39897D01*
X118677Y39054D01*
X119709Y38458D01*
X120861Y38150D01*
X122053D01*
X123204Y38458D01*
X124237Y39054D01*
X125080Y39897D01*
X125676Y40930D01*
X125984Y42081D01*
Y43273D01*
X125676Y44425D01*
X125080Y45457D01*
X124237Y46300D01*
X123204Y46896D01*
X122053Y47205D01*
D02*
G37*
G36*
X111265D02*
X110073D01*
X108922Y46896D01*
X107889Y46300D01*
X107046Y45457D01*
X106450Y44425D01*
X106142Y43273D01*
Y42081D01*
X106450Y40930D01*
X107046Y39897D01*
X107889Y39054D01*
X108922Y38458D01*
X110073Y38150D01*
X111265D01*
X112417Y38458D01*
X113449Y39054D01*
X114292Y39897D01*
X114888Y40930D01*
X115197Y42081D01*
Y43273D01*
X114888Y44425D01*
X114292Y45457D01*
X113449Y46300D01*
X112417Y46896D01*
X111265Y47205D01*
D02*
G37*
G36*
X100478D02*
X99286D01*
X98134Y46896D01*
X97102Y46300D01*
X96259Y45457D01*
X95663Y44425D01*
X95354Y43273D01*
Y42081D01*
X95663Y40930D01*
X96259Y39897D01*
X97102Y39054D01*
X98134Y38458D01*
X99286Y38150D01*
X100478D01*
X101629Y38458D01*
X102662Y39054D01*
X103505Y39897D01*
X104101Y40930D01*
X104409Y42081D01*
Y43273D01*
X104101Y44425D01*
X103505Y45457D01*
X102662Y46300D01*
X101629Y46896D01*
X100478Y47205D01*
D02*
G37*
G36*
X89691D02*
X88498D01*
X87347Y46896D01*
X86314Y46300D01*
X85471Y45457D01*
X84876Y44425D01*
X84567Y43273D01*
Y42081D01*
X84876Y40930D01*
X85471Y39897D01*
X86314Y39054D01*
X87347Y38458D01*
X88498Y38150D01*
X89691D01*
X90842Y38458D01*
X91874Y39054D01*
X92717Y39897D01*
X93313Y40930D01*
X93622Y42081D01*
Y43273D01*
X93313Y44425D01*
X92717Y45457D01*
X91874Y46300D01*
X90842Y46896D01*
X89691Y47205D01*
D02*
G37*
G36*
X277132Y36024D02*
X275939D01*
X274788Y35715D01*
X273755Y35119D01*
X272913Y34276D01*
X272316Y33244D01*
X272008Y32092D01*
Y30900D01*
X272316Y29748D01*
X272913Y28716D01*
X273755Y27873D01*
X274788Y27277D01*
X275939Y26969D01*
X277132D01*
X278283Y27277D01*
X279315Y27873D01*
X280158Y28716D01*
X280754Y29748D01*
X281063Y30900D01*
Y32092D01*
X280754Y33244D01*
X280158Y34276D01*
X279315Y35119D01*
X278283Y35715D01*
X277132Y36024D01*
D02*
G37*
G36*
X266344D02*
X265152D01*
X264001Y35715D01*
X262968Y35119D01*
X262125Y34276D01*
X261529Y33244D01*
X261221Y32092D01*
Y30900D01*
X261529Y29748D01*
X262125Y28716D01*
X262968Y27873D01*
X264001Y27277D01*
X265152Y26969D01*
X266344D01*
X267496Y27277D01*
X268528Y27873D01*
X269371Y28716D01*
X269967Y29748D01*
X270276Y30900D01*
Y32092D01*
X269967Y33244D01*
X269371Y34276D01*
X268528Y35119D01*
X267496Y35715D01*
X266344Y36024D01*
D02*
G37*
G36*
X255557D02*
X254365D01*
X253213Y35715D01*
X252181Y35119D01*
X251338Y34276D01*
X250742Y33244D01*
X250433Y32092D01*
Y30900D01*
X250742Y29748D01*
X251338Y28716D01*
X252181Y27873D01*
X253213Y27277D01*
X254365Y26969D01*
X255557D01*
X256708Y27277D01*
X257741Y27873D01*
X258584Y28716D01*
X259180Y29748D01*
X259488Y30900D01*
Y32092D01*
X259180Y33244D01*
X258584Y34276D01*
X257741Y35119D01*
X256708Y35715D01*
X255557Y36024D01*
D02*
G37*
G36*
X244769D02*
X243577D01*
X242426Y35715D01*
X241393Y35119D01*
X240550Y34276D01*
X239954Y33244D01*
X239646Y32092D01*
Y30900D01*
X239954Y29748D01*
X240550Y28716D01*
X241393Y27873D01*
X242426Y27277D01*
X243577Y26969D01*
X244769D01*
X245921Y27277D01*
X246953Y27873D01*
X247796Y28716D01*
X248392Y29748D01*
X248701Y30900D01*
Y32092D01*
X248392Y33244D01*
X247796Y34276D01*
X246953Y35119D01*
X245921Y35715D01*
X244769Y36024D01*
D02*
G37*
G36*
X127446D02*
X126254D01*
X125103Y35715D01*
X124070Y35119D01*
X123227Y34276D01*
X122631Y33244D01*
X122323Y32092D01*
Y30900D01*
X122631Y29748D01*
X123227Y28716D01*
X124070Y27873D01*
X125103Y27277D01*
X126254Y26969D01*
X127446D01*
X128598Y27277D01*
X129630Y27873D01*
X130473Y28716D01*
X131069Y29748D01*
X131378Y30900D01*
Y32092D01*
X131069Y33244D01*
X130473Y34276D01*
X129630Y35119D01*
X128598Y35715D01*
X127446Y36024D01*
D02*
G37*
G36*
X116659D02*
X115467D01*
X114315Y35715D01*
X113283Y35119D01*
X112440Y34276D01*
X111844Y33244D01*
X111535Y32092D01*
Y30900D01*
X111844Y29748D01*
X112440Y28716D01*
X113283Y27873D01*
X114315Y27277D01*
X115467Y26969D01*
X116659D01*
X117810Y27277D01*
X118843Y27873D01*
X119686Y28716D01*
X120282Y29748D01*
X120590Y30900D01*
Y32092D01*
X120282Y33244D01*
X119686Y34276D01*
X118843Y35119D01*
X117810Y35715D01*
X116659Y36024D01*
D02*
G37*
G36*
X105872D02*
X104680D01*
X103528Y35715D01*
X102496Y35119D01*
X101653Y34276D01*
X101057Y33244D01*
X100748Y32092D01*
Y30900D01*
X101057Y29748D01*
X101653Y28716D01*
X102496Y27873D01*
X103528Y27277D01*
X104680Y26969D01*
X105872D01*
X107023Y27277D01*
X108056Y27873D01*
X108898Y28716D01*
X109495Y29748D01*
X109803Y30900D01*
Y32092D01*
X109495Y33244D01*
X108898Y34276D01*
X108056Y35119D01*
X107023Y35715D01*
X105872Y36024D01*
D02*
G37*
G36*
X95084D02*
X93892D01*
X92741Y35715D01*
X91708Y35119D01*
X90865Y34276D01*
X90269Y33244D01*
X89961Y32092D01*
Y30900D01*
X90269Y29748D01*
X90865Y28716D01*
X91708Y27873D01*
X92741Y27277D01*
X93892Y26969D01*
X95084D01*
X96236Y27277D01*
X97268Y27873D01*
X98111Y28716D01*
X98707Y29748D01*
X99016Y30900D01*
Y32092D01*
X98707Y33244D01*
X98111Y34276D01*
X97268Y35119D01*
X96236Y35715D01*
X95084Y36024D01*
D02*
G37*
G36*
X310659Y51457D02*
X308397D01*
X306163Y51103D01*
X304011Y50404D01*
X301996Y49377D01*
X300166Y48048D01*
X298567Y46448D01*
X297237Y44618D01*
X296210Y42603D01*
X295511Y40452D01*
X295158Y38218D01*
Y35956D01*
X295511Y33722D01*
X296210Y31570D01*
X297237Y29555D01*
X298567Y27725D01*
X300166Y26126D01*
X301996Y24796D01*
X304011Y23769D01*
X306163Y23070D01*
X308397Y22716D01*
X310659D01*
X312893Y23070D01*
X315044Y23769D01*
X317059Y24796D01*
X318889Y26126D01*
X320488Y27725D01*
X321818Y29555D01*
X322845Y31570D01*
X323544Y33722D01*
X323898Y35956D01*
Y38218D01*
X323544Y40452D01*
X322845Y42603D01*
X321818Y44618D01*
X320488Y46448D01*
X318889Y48048D01*
X317059Y49377D01*
X315044Y50404D01*
X312893Y51103D01*
X310659Y51457D01*
D02*
G37*
G36*
X212233D02*
X209971D01*
X207737Y51103D01*
X205586Y50404D01*
X203571Y49377D01*
X201741Y48048D01*
X200142Y46448D01*
X198812Y44618D01*
X197785Y42603D01*
X197086Y40452D01*
X196732Y38218D01*
Y35956D01*
X197086Y33722D01*
X197785Y31570D01*
X198812Y29555D01*
X200142Y27725D01*
X201741Y26126D01*
X203571Y24796D01*
X205586Y23769D01*
X207737Y23070D01*
X209971Y22716D01*
X212233D01*
X214467Y23070D01*
X216619Y23769D01*
X218634Y24796D01*
X220464Y26126D01*
X222063Y27725D01*
X223393Y29555D01*
X224420Y31570D01*
X225119Y33722D01*
X225472Y35956D01*
Y38218D01*
X225119Y40452D01*
X224420Y42603D01*
X223393Y44618D01*
X222063Y46448D01*
X220464Y48048D01*
X218634Y49377D01*
X216619Y50404D01*
X214467Y51103D01*
X212233Y51457D01*
D02*
G37*
G36*
X160974D02*
X158712D01*
X156477Y51103D01*
X154326Y50404D01*
X152311Y49377D01*
X150481Y48048D01*
X148882Y46448D01*
X147552Y44618D01*
X146525Y42603D01*
X145826Y40452D01*
X145472Y38218D01*
Y35956D01*
X145826Y33722D01*
X146525Y31570D01*
X147552Y29555D01*
X148882Y27725D01*
X150481Y26126D01*
X152311Y24796D01*
X154326Y23769D01*
X156477Y23070D01*
X158712Y22716D01*
X160974D01*
X163207Y23070D01*
X165359Y23769D01*
X167374Y24796D01*
X169204Y26126D01*
X170803Y27725D01*
X172133Y29555D01*
X173160Y31570D01*
X173859Y33722D01*
X174213Y35956D01*
Y38218D01*
X173859Y40452D01*
X173160Y42603D01*
X172133Y44618D01*
X170803Y46448D01*
X169204Y48048D01*
X167374Y49377D01*
X165359Y50404D01*
X163207Y51103D01*
X160974Y51457D01*
D02*
G37*
G36*
X62548D02*
X60286D01*
X58052Y51103D01*
X55901Y50404D01*
X53886Y49377D01*
X52056Y48048D01*
X50456Y46448D01*
X49127Y44618D01*
X48100Y42603D01*
X47401Y40452D01*
X47047Y38218D01*
Y35956D01*
X47401Y33722D01*
X48100Y31570D01*
X49127Y29555D01*
X50456Y27725D01*
X52056Y26126D01*
X53886Y24796D01*
X55901Y23769D01*
X58052Y23070D01*
X60286Y22716D01*
X62548D01*
X64782Y23070D01*
X66934Y23769D01*
X68949Y24796D01*
X70779Y26126D01*
X72378Y27725D01*
X73708Y29555D01*
X74735Y31570D01*
X75434Y33722D01*
X75787Y35956D01*
Y38218D01*
X75434Y40452D01*
X74735Y42603D01*
X73708Y44618D01*
X72378Y46448D01*
X70779Y48048D01*
X68949Y49377D01*
X66934Y50404D01*
X64782Y51103D01*
X62548Y51457D01*
D02*
G37*
%LPD*%
D10*
X92925Y83646D02*
X93712D01*
X93319D01*
Y86007D01*
X92925Y85614D01*
X97047Y183661D02*
X100984D01*
X99016Y181693D02*
Y185630D01*
X125984Y89272D02*
X129921D01*
X127953Y87303D02*
Y91240D01*
X258760Y142421D02*
X262697D01*
X260728Y140453D02*
Y144390D01*
X245669Y163779D02*
X249606D01*
X247638Y161811D02*
Y165748D01*
X224016Y164173D02*
X227953D01*
X225984Y162205D02*
Y166142D01*
X190551Y159843D02*
X194488D01*
X192520Y157874D02*
Y161811D01*
X145276Y156358D02*
Y160295D01*
X143307Y158326D02*
X147244D01*
X118110Y146653D02*
Y150591D01*
X116142Y148622D02*
X120079D01*
X163386Y122047D02*
X167323D01*
X165354Y120079D02*
Y124016D01*
X253563Y112545D02*
Y116482D01*
X251594Y114513D02*
X255532D01*
X230315Y86614D02*
Y90551D01*
X228346Y88583D02*
X232283D01*
X260433Y86811D02*
Y90748D01*
X258465Y88779D02*
X262402D01*
X230610Y146358D02*
X234547D01*
X232579Y144390D02*
Y148327D01*
X96900Y206742D02*
X100837D01*
X98868Y204774D02*
Y208711D01*
X192520Y191339D02*
Y195276D01*
X190551Y193307D02*
X194488D01*
X86614Y196653D02*
Y200591D01*
X84646Y198622D02*
X88583D01*
X166929Y160295D02*
X170866D01*
X168898Y158326D02*
Y162263D01*
X96063Y90945D02*
G03*
X96063Y90945I-1969J0D01*
G01*
X69882Y78347D02*
X75590D01*
X69882Y69685D02*
X75590D01*
Y78347D01*
X69882Y69685D02*
Y78347D01*
X269685Y113779D02*
X275394D01*
X269685Y105118D02*
X275394D01*
Y113779D01*
X269685Y105118D02*
Y113779D01*
X108169Y201575D02*
X113878D01*
X108169Y210236D02*
X113878D01*
X108169Y201575D02*
Y210236D01*
X113878Y201575D02*
Y210236D01*
X90551Y74803D02*
X106299D01*
X90551Y94488D02*
X106299D01*
Y74803D02*
Y94488D01*
X90551Y74803D02*
Y94488D01*
X72736Y72047D02*
Y75984D01*
X70768Y74016D02*
X74705D01*
X213779Y86496D02*
Y95984D01*
X183780D02*
X213779D01*
X183780Y86496D02*
Y95984D01*
Y86496D02*
X213779D01*
X169685Y87087D02*
Y96575D01*
X139685D02*
X169685D01*
X139685Y87087D02*
Y96575D01*
Y87087D02*
X169685D01*
X272539Y107480D02*
Y111417D01*
X270571Y109449D02*
X274508D01*
X163150Y190748D02*
Y195866D01*
X174646D01*
Y190748D02*
Y195866D01*
X163150Y190748D02*
X174646D01*
X163150Y194488D02*
X166890Y190748D01*
X111024Y203937D02*
Y207874D01*
X109055Y205906D02*
X112992D01*
X141595Y198425D02*
Y203543D01*
X153091D01*
Y198425D02*
Y203543D01*
X141595Y198425D02*
X153091D01*
X141595Y202165D02*
X145335Y198425D01*
X98425Y82677D02*
Y86614D01*
X96457Y84646D02*
X100394D01*
X322835Y61378D02*
X333071D01*
X322835D02*
Y81772D01*
X333071D01*
Y61378D02*
Y81772D01*
X31693Y58681D02*
X41929D01*
X31693D02*
Y79075D01*
X41929D01*
Y58681D02*
Y79075D01*
X122441Y205906D02*
X126181Y209646D01*
X122441Y198228D02*
Y209646D01*
Y198228D02*
X128740D01*
Y209646D01*
X122441D02*
X128740D01*
X217717Y82559D02*
Y99921D01*
X179842D02*
X217717D01*
X179842Y82559D02*
Y99921D01*
Y82559D02*
X217717D01*
X173622Y83150D02*
Y100512D01*
X135748D02*
X173622D01*
X135748Y83150D02*
Y100512D01*
Y83150D02*
X173622D01*
D11*
X255906Y133071D02*
X256398Y133563D01*
X265059D01*
X265551Y134055D01*
X241929Y93209D02*
X245571D01*
X232776Y102362D02*
X241929Y93209D01*
X237648Y107628D02*
Y117077D01*
Y107628D02*
X237697Y107579D01*
X237598Y117126D02*
X237648Y117077D01*
X232776Y102362D02*
Y114961D01*
X229134Y102559D02*
Y109941D01*
X254989Y93701D02*
X269291D01*
X253709Y94980D02*
X254989Y93701D01*
X252953Y94980D02*
X253709D01*
X269291Y93701D02*
X269882Y93110D01*
X253251Y78054D02*
X256890Y81693D01*
X252267Y78054D02*
X253251D01*
X246161Y71949D02*
X252267Y78054D01*
X247835Y155610D02*
X259744D01*
X241437Y149213D02*
X247835Y155610D01*
X212795Y194095D02*
X212943Y193947D01*
Y178100D02*
X213090Y177953D01*
X212943Y178100D02*
Y193947D01*
X210433Y134153D02*
Y134671D01*
X208465Y136639D02*
X210433Y134671D01*
X208465Y136639D02*
Y150295D01*
X226973Y126083D02*
X228263Y127373D01*
X210236Y126083D02*
X226973D01*
X225197Y115354D02*
X232480Y122638D01*
X235817Y127373D02*
X237796Y125394D01*
X228263Y127373D02*
X235817D01*
X237796Y125394D02*
X238291D01*
X214370Y115354D02*
X225197D01*
X221801Y102510D02*
Y109695D01*
X221358Y110138D02*
X221801Y109695D01*
Y102510D02*
X222244Y102067D01*
X242913Y52461D02*
Y53313D01*
X241142Y55085D02*
X242913Y53313D01*
X241142Y55085D02*
Y62402D01*
X198721Y174844D02*
Y175591D01*
Y174844D02*
X200574Y172990D01*
Y172162D02*
X202854Y169882D01*
X156299Y164075D02*
Y164469D01*
X151870Y168898D02*
X156299Y164469D01*
X151870Y168898D02*
Y169291D01*
X181693Y187303D02*
X187697Y181299D01*
X198425D01*
X201870Y184744D01*
X168504Y111614D02*
X172146Y115256D01*
X162230Y111614D02*
X168504D01*
X172146Y115256D02*
X175886D01*
X160753Y110138D02*
X162230Y111614D01*
X160039Y110138D02*
X160753D01*
X78642Y117224D02*
X82579Y121161D01*
X73819Y117224D02*
X78642D01*
X200574Y172162D02*
Y172990D01*
X108169Y67716D02*
X111024Y64862D01*
X158465D01*
X107874Y60728D02*
X107972Y60630D01*
X118110D02*
X118209Y60532D01*
X107972Y60630D02*
X118110D01*
X310138Y64764D02*
X313976Y60925D01*
X320374D01*
X149890Y134953D02*
X150492Y134350D01*
X142421Y140748D02*
X148216Y134953D01*
X149890D01*
X257677Y52362D02*
X257874Y52559D01*
Y52559D01*
X267913Y62598D01*
Y73524D01*
X271850Y52165D02*
X272293Y52608D01*
Y63238D01*
X272736Y63681D01*
X96161Y187992D02*
X101870D01*
X96161Y179331D02*
Y187992D01*
Y179331D02*
X101870D01*
Y187992D01*
X126181Y86024D02*
X129724D01*
Y92520D01*
X126181D02*
X129724D01*
X126181Y86024D02*
Y92520D01*
X258957Y145669D02*
X262500D01*
X258957Y139173D02*
Y145669D01*
Y139173D02*
X262500D01*
Y145669D01*
X245866Y167028D02*
X249410D01*
X245866Y160531D02*
Y167028D01*
Y160531D02*
X249410D01*
Y167028D01*
X224213Y167421D02*
X227756D01*
X224213Y160925D02*
Y167421D01*
Y160925D02*
X227756D01*
Y167421D01*
X190748Y156595D02*
X194291D01*
Y163091D01*
X190748D02*
X194291D01*
X190748Y156595D02*
Y163091D01*
X139528Y155767D02*
Y160885D01*
X151024D01*
Y155767D02*
Y160885D01*
X139528Y155767D02*
X151024D01*
X109252Y133858D02*
Y163386D01*
X126969D01*
Y133858D02*
Y163386D01*
X109252Y133858D02*
X126969D01*
X162106Y123819D02*
X168602D01*
Y120276D02*
Y123819D01*
X162106Y120276D02*
X168602D01*
X162106D02*
Y123819D01*
X243907Y106846D02*
Y122181D01*
X263218D01*
Y106846D02*
Y122181D01*
X243907Y106846D02*
X263218D01*
X227067Y86811D02*
Y90354D01*
Y86811D02*
X233563D01*
Y90354D01*
X227067D02*
X233563D01*
X257185Y87008D02*
Y90551D01*
Y87008D02*
X263681D01*
Y90551D01*
X257185D02*
X263681D01*
X230807Y149606D02*
X234350D01*
X230807Y143110D02*
Y149606D01*
Y143110D02*
X234350D01*
Y149606D01*
X96408Y210679D02*
X101329D01*
X96408Y202805D02*
Y210679D01*
Y202805D02*
X101329D01*
Y210679D01*
X190748Y190059D02*
Y196555D01*
X194291D01*
Y190059D02*
Y196555D01*
X190748Y190059D02*
X194291D01*
X91811Y157638D02*
Y239606D01*
X81417Y157638D02*
X91811D01*
X81417D02*
Y239606D01*
X91811D01*
X163150Y157736D02*
X174646D01*
Y162854D01*
X163150D02*
X174646D01*
X163150Y157736D02*
Y162854D01*
X95768Y189272D02*
X102264D01*
X95768Y178051D02*
Y189272D01*
Y178051D02*
X102264D01*
Y189272D01*
X125787Y83366D02*
X130118D01*
Y95177D01*
X125787D02*
X130118D01*
X125787Y83366D02*
Y95177D01*
X258563Y148327D02*
X262894D01*
X258563Y136516D02*
Y148327D01*
Y136516D02*
X262894D01*
Y148327D01*
X245473Y169685D02*
X249803D01*
X245473Y157874D02*
Y169685D01*
Y157874D02*
X249803D01*
Y169685D01*
X223819Y170079D02*
X228150D01*
X223819Y158268D02*
Y170079D01*
Y158268D02*
X228150D01*
Y170079D01*
X190354Y153937D02*
X194685D01*
Y165748D01*
X190354D02*
X194685D01*
X190354Y153937D02*
Y165748D01*
X138543Y150758D02*
Y165894D01*
X152008D01*
Y150758D02*
Y165894D01*
X138543Y150758D02*
X152008D01*
X108858Y131496D02*
Y165748D01*
X127362D01*
Y131496D02*
Y165748D01*
X108858Y131496D02*
X127362D01*
X159449Y124213D02*
X171260D01*
Y119882D02*
Y124213D01*
X159449Y119882D02*
X171260D01*
X159449D02*
Y124213D01*
X241939Y98182D02*
Y130845D01*
X265187D01*
Y98182D02*
Y130845D01*
X241939Y98182D02*
X265187D01*
X224410Y86417D02*
Y90748D01*
Y86417D02*
X236221D01*
Y90748D01*
X224410D02*
X236221D01*
X254528Y86614D02*
Y90945D01*
Y86614D02*
X266339D01*
Y90945D01*
X254528D02*
X266339D01*
X230413Y152264D02*
X234744D01*
X230413Y140453D02*
Y152264D01*
Y140453D02*
X234744D01*
Y152264D01*
X95017Y213447D02*
X102719D01*
X95017Y200037D02*
Y213447D01*
Y200037D02*
X102719D01*
Y213447D01*
X190354Y187402D02*
Y199213D01*
X194685D01*
Y187402D02*
Y199213D01*
X190354Y187402D02*
X194685D01*
X92205Y157244D02*
Y240000D01*
X81024Y157244D02*
X92205D01*
X81024D02*
Y240000D01*
X92205D01*
X162165Y152727D02*
X175630D01*
Y167863D01*
X162165D02*
X175630D01*
X162165Y152727D02*
Y167863D01*
X95768Y189272D02*
X102264D01*
X95768Y178051D02*
Y189272D01*
Y178051D02*
X102264D01*
Y189272D01*
X125787Y83366D02*
X130118D01*
Y95177D01*
X125787D02*
X130118D01*
X125787Y83366D02*
Y95177D01*
X258563Y148327D02*
X262894D01*
X258563Y136516D02*
Y148327D01*
Y136516D02*
X262894D01*
Y148327D01*
X245473Y169685D02*
X249803D01*
X245473Y157874D02*
Y169685D01*
Y157874D02*
X249803D01*
Y169685D01*
X223819Y170079D02*
X228150D01*
X223819Y158268D02*
Y170079D01*
Y158268D02*
X228150D01*
Y170079D01*
X190354Y153937D02*
X194685D01*
Y165748D01*
X190354D02*
X194685D01*
X190354Y153937D02*
Y165748D01*
X138543Y150758D02*
Y165894D01*
X152008D01*
Y150758D02*
Y165894D01*
X138543Y150758D02*
X152008D01*
X108858Y131496D02*
Y165748D01*
X127362D01*
Y131496D02*
Y165748D01*
X108858Y131496D02*
X127362D01*
X159449Y124213D02*
X171260D01*
Y119882D02*
Y124213D01*
X159449Y119882D02*
X171260D01*
X159449D02*
Y124213D01*
X241939Y98182D02*
Y130845D01*
X265187D01*
Y98182D02*
Y130845D01*
X241939Y98182D02*
X265187D01*
X224410Y86417D02*
Y90748D01*
Y86417D02*
X236221D01*
Y90748D01*
X224410D02*
X236221D01*
X254528Y86614D02*
Y90945D01*
Y86614D02*
X266339D01*
Y90945D01*
X254528D02*
X266339D01*
X230413Y152264D02*
X234744D01*
X230413Y140453D02*
Y152264D01*
Y140453D02*
X234744D01*
Y152264D01*
X95017Y213447D02*
X102719D01*
X95017Y200037D02*
Y213447D01*
Y200037D02*
X102719D01*
Y213447D01*
X190354Y187402D02*
Y199213D01*
X194685D01*
Y187402D02*
Y199213D01*
X190354Y187402D02*
X194685D01*
X92205Y157244D02*
Y240000D01*
X81024Y157244D02*
X92205D01*
X81024D02*
Y240000D01*
X92205D01*
X162165Y152727D02*
X175630D01*
Y167863D01*
X162165D02*
X175630D01*
X162165Y152727D02*
Y167863D01*
X234646Y185039D02*
X240945D01*
Y181890D02*
Y185039D01*
X234646Y181890D02*
X240945D01*
X234646D02*
Y185039D01*
X291870Y89134D02*
Y278110D01*
X311358D01*
Y89134D02*
Y278110D01*
X291870Y89134D02*
X311358D01*
X51870D02*
Y278110D01*
X71358D01*
Y89134D02*
Y278110D01*
X51870Y89134D02*
X71358D01*
D16*
X342469Y290745D02*
G03*
X325298Y306033I-14905J546D01*
G01*
X102595Y291012D02*
G03*
X88199Y305397I-13985J400D01*
G01*
X40169Y305647D02*
G03*
X25090Y290555I-419J-14661D01*
G01*
X25361Y15802D02*
G03*
X41052Y124I15243J-435D01*
G01*
X325836Y460D02*
G03*
X342488Y17126I463J16190D01*
G01*
X276030Y306195D02*
G03*
X260696Y290848I-426J-14909D01*
G01*
X276030Y306195D02*
X325298D01*
X342488Y290745D02*
X342488Y17126D01*
X41052Y124D02*
X325836Y460D01*
X102595Y291012D02*
X103150Y220079D01*
X40169Y305647D02*
X88199Y305397D01*
X25090Y290555D02*
X25361Y15802D01*
X260630Y220079D02*
X260696Y290848D01*
X103150Y220079D02*
X260630D01*
D17*
X69390Y79331D02*
X76083D01*
X69390Y68701D02*
X76083D01*
Y79331D01*
X69390Y68701D02*
Y79331D01*
X269193Y114764D02*
X275886D01*
X269193Y104134D02*
X275886D01*
Y114764D01*
X269193Y104134D02*
Y114764D01*
X107677Y200591D02*
X114370D01*
X107677Y211221D02*
X114370D01*
X107677Y200591D02*
Y211221D01*
X114370Y200591D02*
Y211221D01*
X82087Y72835D02*
X114764D01*
X82087Y96457D02*
X114764D01*
Y72835D02*
Y96457D01*
X82087Y72835D02*
Y96457D01*
X230709Y188976D02*
X244882D01*
Y177953D02*
Y188976D01*
X230709Y177953D02*
X244882D01*
X230709D02*
Y188976D01*
X161929Y185630D02*
Y200984D01*
X175866D01*
Y185630D02*
Y200984D01*
X161929Y185630D02*
X175866D01*
X140374Y193307D02*
Y208661D01*
X154311D01*
Y193307D02*
Y208661D01*
X140374Y193307D02*
X154311D01*
X321850Y60394D02*
X334055D01*
X321850D02*
Y82756D01*
X334055D01*
Y60394D02*
Y82756D01*
X30709Y57697D02*
X42913D01*
X30709D02*
Y80059D01*
X42913D01*
Y57697D02*
Y80059D01*
X287146Y84409D02*
Y282835D01*
X317835D01*
Y84409D02*
Y282835D01*
X287146Y84409D02*
X317835D01*
X117323Y197047D02*
Y210827D01*
Y197047D02*
X133858D01*
Y210827D01*
X117323D02*
X133858D01*
X47146Y84409D02*
Y282835D01*
X77835D01*
Y84409D02*
Y282835D01*
X47146Y84409D02*
X77835D01*
D44*
X86614Y223622D02*
D03*
Y213622D02*
D03*
Y203622D02*
D03*
Y193622D02*
D03*
Y183622D02*
D03*
Y173622D02*
D03*
Y163622D02*
D03*
D45*
Y233622D02*
D03*
D47*
X89095Y42677D02*
D03*
X99882D02*
D03*
X110669D02*
D03*
X121457D02*
D03*
X132244D02*
D03*
X94488Y31496D02*
D03*
X105276D02*
D03*
X116063D02*
D03*
X126850D02*
D03*
X276535D02*
D03*
X265748D02*
D03*
X254961D02*
D03*
X244173D02*
D03*
X281929Y42677D02*
D03*
X271142D02*
D03*
X260354D02*
D03*
X249567D02*
D03*
X238779D02*
D03*
D48*
X61417Y37087D02*
D03*
X159843D02*
D03*
X309528D02*
D03*
X211102D02*
D03*
D49*
X188779Y91240D02*
D03*
X198779D02*
D03*
X144685Y91831D02*
D03*
X154685D02*
D03*
D50*
X208780Y91240D02*
D03*
X164685Y91831D02*
D03*
D51*
X327953Y66575D02*
D03*
X36811Y63878D02*
D03*
D52*
X327953Y76575D02*
D03*
X36811Y73878D02*
D03*
D53*
X306614Y273622D02*
D03*
X296614D02*
D03*
X306614Y263622D02*
D03*
X296614D02*
D03*
X306614Y253622D02*
D03*
X296614D02*
D03*
X306614Y243622D02*
D03*
X296614D02*
D03*
X306614Y233622D02*
D03*
X296614D02*
D03*
Y223622D02*
D03*
Y213622D02*
D03*
X306614Y203622D02*
D03*
X296614D02*
D03*
X306614Y193622D02*
D03*
X296614D02*
D03*
X306614Y183622D02*
D03*
X296614D02*
D03*
X306614Y173622D02*
D03*
X296614D02*
D03*
X306614Y163622D02*
D03*
X296614D02*
D03*
X306614Y153622D02*
D03*
X296614D02*
D03*
X306614Y143622D02*
D03*
X296614D02*
D03*
X306614Y133622D02*
D03*
X296614D02*
D03*
X306614Y123622D02*
D03*
X296614D02*
D03*
X306614Y113622D02*
D03*
X296614D02*
D03*
X306614Y103622D02*
D03*
X296614D02*
D03*
X306614Y93622D02*
D03*
X296614D02*
D03*
X306614Y223622D02*
D03*
Y213622D02*
D03*
X66614Y273622D02*
D03*
X56614D02*
D03*
X66614Y263622D02*
D03*
X56614D02*
D03*
X66614Y253622D02*
D03*
X56614D02*
D03*
X66614Y243622D02*
D03*
X56614D02*
D03*
X66614Y233622D02*
D03*
X56614D02*
D03*
X66614Y223622D02*
D03*
X56614D02*
D03*
X66614Y213622D02*
D03*
X56614D02*
D03*
X66614Y203622D02*
D03*
X56614D02*
D03*
X66614Y193622D02*
D03*
X56614D02*
D03*
X66614Y183622D02*
D03*
X56614D02*
D03*
X66614Y173622D02*
D03*
X56614D02*
D03*
X66614Y163622D02*
D03*
X56614D02*
D03*
X66614Y153622D02*
D03*
X56614D02*
D03*
X66614Y143622D02*
D03*
X56614D02*
D03*
X66614Y133622D02*
D03*
X56614D02*
D03*
X66614Y123622D02*
D03*
X56614D02*
D03*
X66614Y113622D02*
D03*
X56614D02*
D03*
X66614Y103622D02*
D03*
X56614D02*
D03*
X66614Y93622D02*
D03*
X56614D02*
D03*
D54*
X255906Y133071D02*
D03*
X265551Y134055D02*
D03*
X245571Y93209D02*
D03*
X237697Y107579D02*
D03*
X237598Y117126D02*
D03*
X232776Y114961D02*
D03*
X229134Y109941D02*
D03*
Y102559D02*
D03*
X256890Y81693D02*
D03*
X252953Y94980D02*
D03*
X269882Y93110D02*
D03*
X246161Y71949D02*
D03*
X259744Y155610D02*
D03*
X241437Y149213D02*
D03*
X212795Y194095D02*
D03*
X213090Y177953D02*
D03*
X210433Y134153D02*
D03*
X210236Y126083D02*
D03*
X232480Y122638D02*
D03*
X238291Y125394D02*
D03*
X221358Y110138D02*
D03*
X214370Y115354D02*
D03*
X222244Y102067D02*
D03*
X242913Y52461D02*
D03*
X241142Y62402D02*
D03*
X198721Y175591D02*
D03*
X202854Y169882D02*
D03*
X208465Y150295D02*
D03*
X151870Y169291D02*
D03*
X156299Y164075D02*
D03*
X181693Y187303D02*
D03*
X201870Y184744D02*
D03*
X175886Y115256D02*
D03*
X160039Y110138D02*
D03*
X73819Y117224D02*
D03*
X82579Y121161D02*
D03*
X108169Y67716D02*
D03*
X158465Y64862D02*
D03*
X107874Y60728D02*
D03*
X118209Y60532D02*
D03*
X310138Y64764D02*
D03*
X320374Y60925D02*
D03*
X150492Y134350D02*
D03*
X142421Y140748D02*
D03*
X257677Y52362D02*
D03*
X267913Y73524D02*
D03*
X271850Y52165D02*
D03*
X272736Y63681D02*
D03*
M02*
