%TF.GenerationSoftware,Altium Limited,Altium Designer,21.7.2 (23)*%
G04 Layer_Color=16711935*
%FSLAX26Y26*%
%MOIN*%
%TF.SameCoordinates,C96B85AD-BFD8-4542-BB89-30D630789AD8*%
%TF.FilePolarity,Negative*%
%TF.FileFunction,Soldermask,Bot*%
%TF.Part,Single*%
G01*
G75*
%TA.AperFunction,ComponentPad*%
%ADD32C,0.061811*%
%ADD33R,0.061811X0.061811*%
%ADD35C,0.086614*%
%ADD36C,0.283465*%
%ADD37C,0.068110*%
%ADD38R,0.068110X0.068110*%
%ADD39R,0.072835X0.072835*%
%ADD40C,0.072835*%
%ADD41C,0.068898*%
%TA.AperFunction,ViaPad*%
%ADD42C,0.047244*%
D32*
X866142Y2236220D02*
D03*
Y2136220D02*
D03*
Y2036220D02*
D03*
Y1936220D02*
D03*
Y1836220D02*
D03*
Y1736220D02*
D03*
Y1636220D02*
D03*
D33*
Y2336220D02*
D03*
D35*
X890945Y426772D02*
D03*
X998819D02*
D03*
X1106693D02*
D03*
X1214567D02*
D03*
X1322441D02*
D03*
X944882Y314961D02*
D03*
X1052756D02*
D03*
X1160630D02*
D03*
X1268504D02*
D03*
X2765354D02*
D03*
X2657480D02*
D03*
X2549606D02*
D03*
X2441732D02*
D03*
X2819291Y426772D02*
D03*
X2711417D02*
D03*
X2603543D02*
D03*
X2495669D02*
D03*
X2387795D02*
D03*
D36*
X614173Y370866D02*
D03*
X1598425D02*
D03*
X3095276D02*
D03*
X2111023D02*
D03*
D37*
X1887795Y912402D02*
D03*
X1987795D02*
D03*
X1446850Y918307D02*
D03*
X1546850D02*
D03*
D38*
X2087795Y912402D02*
D03*
X1646850Y918307D02*
D03*
D39*
X3279528Y665748D02*
D03*
X368110Y638779D02*
D03*
D40*
X3279528Y765748D02*
D03*
X368110Y738779D02*
D03*
D41*
X3066142Y2736220D02*
D03*
X2966142D02*
D03*
X3066142Y2636220D02*
D03*
X2966142D02*
D03*
X3066142Y2536220D02*
D03*
X2966142D02*
D03*
X3066142Y2436220D02*
D03*
X2966142D02*
D03*
X3066142Y2336220D02*
D03*
X2966142D02*
D03*
Y2236220D02*
D03*
Y2136220D02*
D03*
X3066142Y2036220D02*
D03*
X2966142D02*
D03*
X3066142Y1936220D02*
D03*
X2966142D02*
D03*
X3066142Y1836220D02*
D03*
X2966142D02*
D03*
X3066142Y1736220D02*
D03*
X2966142D02*
D03*
X3066142Y1636220D02*
D03*
X2966142D02*
D03*
X3066142Y1536220D02*
D03*
X2966142D02*
D03*
X3066142Y1436220D02*
D03*
X2966142D02*
D03*
X3066142Y1336220D02*
D03*
X2966142D02*
D03*
X3066142Y1236220D02*
D03*
X2966142D02*
D03*
X3066142Y1136220D02*
D03*
X2966142D02*
D03*
X3066142Y1036220D02*
D03*
X2966142D02*
D03*
X3066142Y936221D02*
D03*
X2966142D02*
D03*
X3066142Y2236220D02*
D03*
Y2136220D02*
D03*
X666142Y2736220D02*
D03*
X566142D02*
D03*
X666142Y2636220D02*
D03*
X566142D02*
D03*
X666142Y2536220D02*
D03*
X566142D02*
D03*
X666142Y2436220D02*
D03*
X566142D02*
D03*
X666142Y2336220D02*
D03*
X566142D02*
D03*
X666142Y2236220D02*
D03*
X566142D02*
D03*
X666142Y2136220D02*
D03*
X566142D02*
D03*
X666142Y2036220D02*
D03*
X566142D02*
D03*
X666142Y1936220D02*
D03*
X566142D02*
D03*
X666142Y1836220D02*
D03*
X566142D02*
D03*
X666142Y1736220D02*
D03*
X566142D02*
D03*
X666142Y1636220D02*
D03*
X566142D02*
D03*
X666142Y1536220D02*
D03*
X566142D02*
D03*
X666142Y1436220D02*
D03*
X566142D02*
D03*
X666142Y1336220D02*
D03*
X566142D02*
D03*
X666142Y1236220D02*
D03*
X566142D02*
D03*
X666142Y1136220D02*
D03*
X566142D02*
D03*
X666142Y1036220D02*
D03*
X566142D02*
D03*
X666142Y936221D02*
D03*
X566142D02*
D03*
D42*
X2559055Y1330709D02*
D03*
X2655512Y1340551D02*
D03*
X2455709Y932087D02*
D03*
X2376968Y1075787D02*
D03*
X2375984Y1171260D02*
D03*
X2327756Y1149606D02*
D03*
X2291339Y1099409D02*
D03*
Y1025591D02*
D03*
X2568898Y816929D02*
D03*
X2529528Y949803D02*
D03*
X2698819Y931102D02*
D03*
X2461614Y719488D02*
D03*
X2597441Y1556102D02*
D03*
X2414370Y1492126D02*
D03*
X2127953Y1940945D02*
D03*
X2130905Y1779528D02*
D03*
X2104331Y1341535D02*
D03*
X2102362Y1260827D02*
D03*
X2324803Y1226378D02*
D03*
X2382911Y1253937D02*
D03*
X2213583Y1101378D02*
D03*
X2143701Y1153543D02*
D03*
X2222441Y1020669D02*
D03*
X2429134Y524606D02*
D03*
X2411417Y624016D02*
D03*
X1987205Y1755906D02*
D03*
X2028543Y1698819D02*
D03*
X2084646Y1502953D02*
D03*
X1518701Y1692913D02*
D03*
X1562992Y1640748D02*
D03*
X1816929Y1873032D02*
D03*
X2018701Y1847441D02*
D03*
X1758858Y1152559D02*
D03*
X1600394Y1101378D02*
D03*
X738189Y1172244D02*
D03*
X825787Y1211614D02*
D03*
X1081693Y677165D02*
D03*
X1584646Y648622D02*
D03*
X1078740Y607284D02*
D03*
X1182087Y605315D02*
D03*
X3101378Y647638D02*
D03*
X3203740Y609252D02*
D03*
X1504921Y1343504D02*
D03*
X1424213Y1407480D02*
D03*
X2576772Y523622D02*
D03*
X2679134Y735236D02*
D03*
X2718504Y521654D02*
D03*
X2727362Y636811D02*
D03*
%TF.MD5,4aeaece8d87148ba0dc7779061cb9d61*%
M02*
