%TF.GenerationSoftware,Altium Limited,Altium Designer,21.7.2 (23)*%
G04 Layer_Color=8388736*
%FSLAX26Y26*%
%MOIN*%
%TF.SameCoordinates,C96B85AD-BFD8-4542-BB89-30D630789AD8*%
%TF.FilePolarity,Positive*%
%TF.FileFunction,Other,Top_Assembly*%
%TF.Part,Single*%
G01*
G75*
%TA.AperFunction,NonConductor*%
%ADD44C,0.007874*%
G36*
X1004025Y1836578D02*
X1004389D01*
X1004753Y1836542D01*
X1005226Y1836505D01*
X1005700Y1836433D01*
X1006755Y1836251D01*
X1007920Y1835996D01*
X1009085Y1835632D01*
X1010213Y1835122D01*
X1010250Y1835086D01*
X1010359Y1835049D01*
X1010505Y1834977D01*
X1010687Y1834831D01*
X1010941Y1834685D01*
X1011232Y1834503D01*
X1011888Y1834030D01*
X1012616Y1833411D01*
X1013344Y1832683D01*
X1014072Y1831846D01*
X1014691Y1830863D01*
X1014727Y1830827D01*
X1014763Y1830718D01*
X1014836Y1830572D01*
X1014945Y1830390D01*
X1015054Y1830099D01*
X1015164Y1829808D01*
X1015309Y1829444D01*
X1015455Y1829043D01*
X1015601Y1828607D01*
X1015746Y1828133D01*
X1015965Y1827114D01*
X1016146Y1825949D01*
X1016219Y1824748D01*
Y1824384D01*
X1016183Y1824129D01*
X1016146Y1823802D01*
X1016110Y1823401D01*
X1016074Y1823001D01*
X1015965Y1822528D01*
X1015746Y1821545D01*
X1015418Y1820453D01*
X1015200Y1819907D01*
X1014945Y1819397D01*
X1014618Y1818888D01*
X1014290Y1818378D01*
X1014254Y1818342D01*
X1014217Y1818269D01*
X1014108Y1818123D01*
X1013926Y1817941D01*
X1013744Y1817759D01*
X1013489Y1817505D01*
X1013198Y1817250D01*
X1012907Y1816959D01*
X1012543Y1816667D01*
X1012106Y1816376D01*
X1011669Y1816049D01*
X1011196Y1815757D01*
X1010650Y1815503D01*
X1010104Y1815211D01*
X1009522Y1814993D01*
X1008866Y1814775D01*
X1008102Y1818051D01*
X1008139D01*
X1008211Y1818087D01*
X1008357Y1818160D01*
X1008539Y1818233D01*
X1008757Y1818305D01*
X1009048Y1818415D01*
X1009631Y1818706D01*
X1010286Y1819070D01*
X1010941Y1819507D01*
X1011560Y1820053D01*
X1012106Y1820635D01*
X1012179Y1820708D01*
X1012324Y1820926D01*
X1012506Y1821290D01*
X1012761Y1821763D01*
X1012980Y1822382D01*
X1013198Y1823074D01*
X1013344Y1823911D01*
X1013380Y1824821D01*
Y1825112D01*
X1013344Y1825294D01*
Y1825549D01*
X1013307Y1825840D01*
X1013198Y1826532D01*
X1013053Y1827296D01*
X1012798Y1828097D01*
X1012434Y1828934D01*
X1011961Y1829699D01*
Y1829735D01*
X1011888Y1829771D01*
X1011706Y1830026D01*
X1011414Y1830354D01*
X1010978Y1830754D01*
X1010432Y1831227D01*
X1009813Y1831664D01*
X1009048Y1832065D01*
X1008211Y1832429D01*
X1008175D01*
X1008102Y1832465D01*
X1007993Y1832501D01*
X1007811Y1832538D01*
X1007592Y1832611D01*
X1007338Y1832683D01*
X1006719Y1832793D01*
X1005991Y1832938D01*
X1005190Y1833084D01*
X1004317Y1833157D01*
X1003370Y1833193D01*
X1003334D01*
X1003225D01*
X1003043D01*
X1002824D01*
X1002569Y1833157D01*
X1002242D01*
X1001878Y1833120D01*
X1001477Y1833084D01*
X1000604Y1832975D01*
X999657Y1832793D01*
X998711Y1832574D01*
X997764Y1832283D01*
X997728D01*
X997655Y1832247D01*
X997546Y1832174D01*
X997364Y1832101D01*
X996927Y1831883D01*
X996418Y1831555D01*
X995835Y1831155D01*
X995216Y1830645D01*
X994670Y1830063D01*
X994161Y1829371D01*
Y1829335D01*
X994125Y1829262D01*
X994052Y1829153D01*
X993979Y1829007D01*
X993906Y1828825D01*
X993797Y1828607D01*
X993578Y1828097D01*
X993360Y1827442D01*
X993178Y1826714D01*
X993033Y1825913D01*
X992996Y1825076D01*
Y1824821D01*
X993033Y1824603D01*
Y1824348D01*
X993069Y1824093D01*
X993215Y1823438D01*
X993396Y1822673D01*
X993688Y1821909D01*
X994088Y1821108D01*
X994307Y1820708D01*
X994598Y1820344D01*
X994634Y1820307D01*
X994670Y1820271D01*
X994780Y1820162D01*
X994889Y1820016D01*
X995071Y1819871D01*
X995289Y1819689D01*
X995508Y1819470D01*
X995799Y1819288D01*
X996126Y1819070D01*
X996490Y1818815D01*
X996855Y1818597D01*
X997291Y1818378D01*
X997764Y1818196D01*
X998274Y1818014D01*
X998820Y1817832D01*
X999403Y1817687D01*
X998565Y1814338D01*
X998529D01*
X998383Y1814374D01*
X998165Y1814447D01*
X997874Y1814556D01*
X997546Y1814665D01*
X997146Y1814811D01*
X996709Y1814993D01*
X996236Y1815211D01*
X995216Y1815721D01*
X994197Y1816376D01*
X993688Y1816777D01*
X993178Y1817177D01*
X992741Y1817614D01*
X992304Y1818123D01*
X992268Y1818160D01*
X992195Y1818233D01*
X992122Y1818415D01*
X991977Y1818597D01*
X991795Y1818888D01*
X991613Y1819179D01*
X991431Y1819579D01*
X991249Y1819980D01*
X991030Y1820453D01*
X990848Y1820963D01*
X990667Y1821509D01*
X990485Y1822091D01*
X990339Y1822710D01*
X990266Y1823365D01*
X990193Y1824057D01*
X990157Y1824785D01*
Y1825185D01*
X990193Y1825476D01*
Y1825804D01*
X990230Y1826204D01*
X990303Y1826641D01*
X990375Y1827151D01*
X990557Y1828206D01*
X990848Y1829298D01*
X991249Y1830390D01*
X991504Y1830900D01*
X991795Y1831409D01*
X991831Y1831446D01*
X991868Y1831519D01*
X991977Y1831664D01*
X992122Y1831810D01*
X992268Y1832028D01*
X992486Y1832283D01*
X992741Y1832574D01*
X993033Y1832865D01*
X993360Y1833157D01*
X993688Y1833484D01*
X994525Y1834139D01*
X995508Y1834758D01*
X996600Y1835304D01*
X996636D01*
X996745Y1835377D01*
X996927Y1835413D01*
X997146Y1835523D01*
X997437Y1835595D01*
X997801Y1835705D01*
X998201Y1835850D01*
X998638Y1835959D01*
X999111Y1836069D01*
X999657Y1836214D01*
X1000786Y1836396D01*
X1002060Y1836542D01*
X1003370Y1836615D01*
X1003407D01*
X1003552D01*
X1003770D01*
X1004025Y1836578D01*
D02*
G37*
G36*
X997655Y1808368D02*
X997619D01*
X997546Y1808332D01*
X997400Y1808295D01*
X997218Y1808259D01*
X997000Y1808223D01*
X996745Y1808150D01*
X996199Y1807968D01*
X995544Y1807713D01*
X994925Y1807385D01*
X994343Y1807021D01*
X993833Y1806585D01*
X993797Y1806512D01*
X993651Y1806366D01*
X993469Y1806075D01*
X993287Y1805711D01*
X993069Y1805274D01*
X992887Y1804728D01*
X992741Y1804109D01*
X992705Y1803454D01*
Y1803236D01*
X992741Y1803090D01*
X992778Y1802690D01*
X992887Y1802180D01*
X993069Y1801598D01*
X993324Y1800979D01*
X993688Y1800360D01*
X994197Y1799778D01*
X994270Y1799705D01*
X994489Y1799523D01*
X994816Y1799305D01*
X995253Y1799013D01*
X995799Y1798722D01*
X996418Y1798504D01*
X997146Y1798322D01*
X997947Y1798249D01*
X997983D01*
X998056D01*
X998165D01*
X998311Y1798285D01*
X998711Y1798322D01*
X999184Y1798431D01*
X999766Y1798577D01*
X1000349Y1798831D01*
X1000931Y1799195D01*
X1001477Y1799669D01*
X1001550Y1799741D01*
X1001696Y1799923D01*
X1001914Y1800215D01*
X1002169Y1800615D01*
X1002424Y1801125D01*
X1002642Y1801743D01*
X1002788Y1802435D01*
X1002861Y1803199D01*
Y1803527D01*
X1002824Y1803782D01*
X1002788Y1804109D01*
X1002715Y1804473D01*
X1002642Y1804910D01*
X1002533Y1805383D01*
X1005263Y1805019D01*
Y1804837D01*
X1005226Y1804692D01*
Y1804219D01*
X1005299Y1803818D01*
X1005372Y1803345D01*
X1005481Y1802799D01*
X1005663Y1802180D01*
X1005918Y1801598D01*
X1006246Y1800979D01*
Y1800943D01*
X1006282Y1800906D01*
X1006428Y1800724D01*
X1006683Y1800469D01*
X1007010Y1800178D01*
X1007483Y1799887D01*
X1008029Y1799632D01*
X1008648Y1799450D01*
X1009012Y1799377D01*
X1009413D01*
X1009449D01*
X1009485D01*
X1009704D01*
X1009995Y1799450D01*
X1010395Y1799523D01*
X1010832Y1799669D01*
X1011305Y1799851D01*
X1011779Y1800142D01*
X1012215Y1800542D01*
X1012252Y1800579D01*
X1012397Y1800761D01*
X1012579Y1801015D01*
X1012798Y1801343D01*
X1012980Y1801780D01*
X1013162Y1802289D01*
X1013307Y1802872D01*
X1013344Y1803527D01*
Y1803818D01*
X1013271Y1804146D01*
X1013198Y1804583D01*
X1013053Y1805056D01*
X1012870Y1805529D01*
X1012579Y1806039D01*
X1012215Y1806512D01*
X1012179Y1806548D01*
X1011997Y1806694D01*
X1011742Y1806912D01*
X1011378Y1807167D01*
X1010905Y1807422D01*
X1010322Y1807677D01*
X1009631Y1807895D01*
X1008830Y1808041D01*
X1009376Y1811135D01*
X1009413D01*
X1009522Y1811098D01*
X1009667Y1811062D01*
X1009886Y1811025D01*
X1010140Y1810953D01*
X1010432Y1810843D01*
X1011123Y1810625D01*
X1011924Y1810261D01*
X1012725Y1809824D01*
X1013489Y1809278D01*
X1014181Y1808587D01*
X1014217Y1808550D01*
X1014254Y1808477D01*
X1014327Y1808368D01*
X1014436Y1808223D01*
X1014581Y1808041D01*
X1014727Y1807786D01*
X1014872Y1807531D01*
X1015054Y1807203D01*
X1015346Y1806475D01*
X1015637Y1805638D01*
X1015819Y1804655D01*
X1015892Y1804146D01*
Y1803236D01*
X1015855Y1802835D01*
X1015783Y1802362D01*
X1015673Y1801780D01*
X1015491Y1801125D01*
X1015273Y1800469D01*
X1014982Y1799814D01*
Y1799778D01*
X1014945Y1799741D01*
X1014836Y1799523D01*
X1014618Y1799195D01*
X1014363Y1798831D01*
X1013999Y1798395D01*
X1013598Y1797958D01*
X1013125Y1797521D01*
X1012579Y1797157D01*
X1012506Y1797121D01*
X1012324Y1797011D01*
X1011997Y1796866D01*
X1011596Y1796684D01*
X1011123Y1796502D01*
X1010577Y1796356D01*
X1009958Y1796247D01*
X1009340Y1796211D01*
X1009267D01*
X1009048D01*
X1008757Y1796247D01*
X1008357Y1796320D01*
X1007884Y1796429D01*
X1007374Y1796611D01*
X1006865Y1796829D01*
X1006355Y1797121D01*
X1006282Y1797157D01*
X1006136Y1797266D01*
X1005882Y1797485D01*
X1005591Y1797776D01*
X1005263Y1798140D01*
X1004899Y1798577D01*
X1004571Y1799086D01*
X1004244Y1799705D01*
Y1799669D01*
X1004207Y1799596D01*
X1004171Y1799487D01*
X1004135Y1799341D01*
X1003989Y1798941D01*
X1003770Y1798431D01*
X1003479Y1797849D01*
X1003115Y1797266D01*
X1002642Y1796720D01*
X1002096Y1796211D01*
X1002023Y1796174D01*
X1001805Y1796029D01*
X1001441Y1795810D01*
X1000968Y1795592D01*
X1000385Y1795373D01*
X999694Y1795155D01*
X998893Y1795009D01*
X998019Y1794973D01*
X997983D01*
X997874D01*
X997692D01*
X997473Y1795009D01*
X997182Y1795046D01*
X996855Y1795119D01*
X996490Y1795191D01*
X996090Y1795264D01*
X995216Y1795555D01*
X994743Y1795774D01*
X994307Y1795992D01*
X993833Y1796283D01*
X993360Y1796611D01*
X992887Y1796975D01*
X992450Y1797412D01*
X992414Y1797448D01*
X992341Y1797521D01*
X992232Y1797667D01*
X992086Y1797849D01*
X991904Y1798067D01*
X991722Y1798358D01*
X991504Y1798686D01*
X991322Y1799086D01*
X991103Y1799487D01*
X990885Y1799960D01*
X990703Y1800433D01*
X990521Y1800979D01*
X990375Y1801561D01*
X990266Y1802180D01*
X990193Y1802799D01*
X990157Y1803491D01*
Y1803818D01*
X990193Y1804037D01*
X990230Y1804328D01*
X990266Y1804655D01*
X990339Y1805019D01*
X990412Y1805420D01*
X990630Y1806293D01*
X990994Y1807203D01*
X991212Y1807677D01*
X991467Y1808113D01*
X991795Y1808550D01*
X992122Y1808987D01*
X992159Y1809023D01*
X992232Y1809096D01*
X992341Y1809205D01*
X992486Y1809315D01*
X992668Y1809497D01*
X992923Y1809679D01*
X993178Y1809897D01*
X993506Y1810115D01*
X993870Y1810334D01*
X994234Y1810552D01*
X995107Y1810953D01*
X996126Y1811280D01*
X996673Y1811389D01*
X997255Y1811462D01*
X997655Y1808368D01*
D02*
G37*
G36*
X1279528Y944950D02*
X1259836D01*
X1259872Y944913D01*
X1260018Y944731D01*
X1260236Y944513D01*
X1260491Y944149D01*
X1260818Y943749D01*
X1261182Y943239D01*
X1261583Y942657D01*
X1261983Y942001D01*
Y941965D01*
X1262020Y941929D01*
X1262165Y941710D01*
X1262347Y941346D01*
X1262566Y940909D01*
X1262820Y940400D01*
X1263075Y939854D01*
X1263330Y939308D01*
X1263548Y938762D01*
X1260564D01*
Y938798D01*
X1260491Y938871D01*
X1260454Y939017D01*
X1260345Y939199D01*
X1260236Y939417D01*
X1260090Y939672D01*
X1259726Y940291D01*
X1259326Y941019D01*
X1258816Y941747D01*
X1258234Y942511D01*
X1257615Y943275D01*
X1257579Y943312D01*
X1257542Y943348D01*
X1257433Y943457D01*
X1257324Y943603D01*
X1256960Y943931D01*
X1256523Y944367D01*
X1256014Y944804D01*
X1255431Y945278D01*
X1254849Y945678D01*
X1254230Y946042D01*
Y948044D01*
X1279528D01*
Y944950D01*
D02*
G37*
G36*
Y925367D02*
X1259836D01*
X1259872Y925330D01*
X1260018Y925148D01*
X1260236Y924930D01*
X1260491Y924566D01*
X1260818Y924165D01*
X1261182Y923656D01*
X1261583Y923073D01*
X1261983Y922418D01*
Y922382D01*
X1262020Y922346D01*
X1262165Y922127D01*
X1262347Y921763D01*
X1262566Y921326D01*
X1262820Y920817D01*
X1263075Y920271D01*
X1263330Y919725D01*
X1263548Y919179D01*
X1260564D01*
Y919215D01*
X1260491Y919288D01*
X1260454Y919433D01*
X1260345Y919615D01*
X1260236Y919834D01*
X1260090Y920089D01*
X1259726Y920707D01*
X1259326Y921436D01*
X1258816Y922163D01*
X1258234Y922928D01*
X1257615Y923692D01*
X1257579Y923729D01*
X1257542Y923765D01*
X1257433Y923874D01*
X1257324Y924020D01*
X1256960Y924347D01*
X1256523Y924784D01*
X1256014Y925221D01*
X1255431Y925694D01*
X1254849Y926095D01*
X1254230Y926459D01*
Y928461D01*
X1279528D01*
Y925367D01*
D02*
G37*
G36*
Y910697D02*
X1274286Y907385D01*
X1274250D01*
X1274177Y907312D01*
X1274068Y907240D01*
X1273922Y907130D01*
X1273522Y906875D01*
X1273012Y906548D01*
X1272466Y906148D01*
X1271884Y905747D01*
X1271338Y905347D01*
X1270828Y904983D01*
X1270792Y904946D01*
X1270646Y904837D01*
X1270428Y904655D01*
X1270173Y904400D01*
X1269627Y903854D01*
X1269372Y903563D01*
X1269154Y903272D01*
X1269118Y903236D01*
X1269081Y903163D01*
X1269008Y903017D01*
X1268899Y902799D01*
X1268790Y902580D01*
X1268681Y902326D01*
X1268499Y901743D01*
Y901707D01*
X1268462Y901634D01*
Y901488D01*
X1268426Y901306D01*
X1268390Y901052D01*
Y900760D01*
X1268353Y900360D01*
Y896065D01*
X1279528D01*
Y892716D01*
X1254339D01*
Y904400D01*
X1254376Y904692D01*
Y905019D01*
X1254412Y905784D01*
X1254521Y906584D01*
X1254630Y907458D01*
X1254812Y908259D01*
X1254922Y908659D01*
X1255031Y908987D01*
Y909023D01*
X1255067Y909059D01*
X1255176Y909278D01*
X1255322Y909606D01*
X1255577Y910006D01*
X1255904Y910443D01*
X1256341Y910916D01*
X1256851Y911353D01*
X1257433Y911789D01*
X1257470D01*
X1257506Y911826D01*
X1257724Y911971D01*
X1258088Y912117D01*
X1258562Y912336D01*
X1259108Y912518D01*
X1259763Y912699D01*
X1260454Y912809D01*
X1261219Y912845D01*
X1261255D01*
X1261328D01*
X1261474D01*
X1261656Y912809D01*
X1261910D01*
X1262165Y912772D01*
X1262784Y912627D01*
X1263512Y912408D01*
X1264276Y912117D01*
X1265041Y911680D01*
X1265405Y911389D01*
X1265769Y911098D01*
X1265805Y911062D01*
X1265842Y911025D01*
X1265951Y910916D01*
X1266060Y910770D01*
X1266206Y910588D01*
X1266351Y910370D01*
X1266533Y910079D01*
X1266752Y909788D01*
X1266934Y909423D01*
X1267116Y909023D01*
X1267334Y908586D01*
X1267516Y908113D01*
X1267662Y907567D01*
X1267844Y907021D01*
X1267953Y906402D01*
X1268062Y905747D01*
X1268098Y905820D01*
X1268171Y905966D01*
X1268317Y906184D01*
X1268462Y906475D01*
X1268863Y907130D01*
X1269118Y907458D01*
X1269336Y907749D01*
X1269409Y907822D01*
X1269591Y908004D01*
X1269882Y908295D01*
X1270246Y908659D01*
X1270756Y909059D01*
X1271302Y909533D01*
X1271957Y910006D01*
X1272685Y910515D01*
X1279528Y914847D01*
Y910697D01*
D02*
G37*
G36*
X2632472Y1412529D02*
X2632435Y1412237D01*
Y1411910D01*
X2632399Y1411145D01*
X2632290Y1410345D01*
X2632180Y1409471D01*
X2631999Y1408670D01*
X2631889Y1408270D01*
X2631780Y1407942D01*
Y1407906D01*
X2631744Y1407869D01*
X2631635Y1407651D01*
X2631489Y1407323D01*
X2631234Y1406923D01*
X2630907Y1406486D01*
X2630470Y1406013D01*
X2629960Y1405576D01*
X2629378Y1405139D01*
X2629341D01*
X2629305Y1405103D01*
X2629086Y1404957D01*
X2628722Y1404812D01*
X2628249Y1404593D01*
X2627703Y1404411D01*
X2627048Y1404229D01*
X2626356Y1404120D01*
X2625592Y1404084D01*
X2625556D01*
X2625483D01*
X2625337D01*
X2625155Y1404120D01*
X2624901D01*
X2624646Y1404157D01*
X2624027Y1404302D01*
X2623299Y1404521D01*
X2622535Y1404812D01*
X2621770Y1405249D01*
X2621406Y1405540D01*
X2621042Y1405831D01*
X2621006Y1405867D01*
X2620969Y1405904D01*
X2620860Y1406013D01*
X2620751Y1406159D01*
X2620605Y1406341D01*
X2620460Y1406559D01*
X2620278Y1406850D01*
X2620059Y1407141D01*
X2619877Y1407505D01*
X2619695Y1407906D01*
X2619477Y1408343D01*
X2619295Y1408816D01*
X2619149Y1409362D01*
X2618967Y1409908D01*
X2618858Y1410527D01*
X2618749Y1411182D01*
X2618713Y1411109D01*
X2618640Y1410963D01*
X2618494Y1410745D01*
X2618349Y1410454D01*
X2617948Y1409799D01*
X2617693Y1409471D01*
X2617475Y1409180D01*
X2617402Y1409107D01*
X2617220Y1408925D01*
X2616929Y1408634D01*
X2616565Y1408270D01*
X2616055Y1407869D01*
X2615509Y1407396D01*
X2614854Y1406923D01*
X2614126Y1406413D01*
X2607283Y1402082D01*
Y1406231D01*
X2612524Y1409544D01*
X2612561D01*
X2612634Y1409617D01*
X2612743Y1409689D01*
X2612889Y1409799D01*
X2613289Y1410053D01*
X2613798Y1410381D01*
X2614345Y1410781D01*
X2614927Y1411182D01*
X2615473Y1411582D01*
X2615983Y1411946D01*
X2616019Y1411983D01*
X2616164Y1412092D01*
X2616383Y1412274D01*
X2616638Y1412529D01*
X2617184Y1413075D01*
X2617439Y1413366D01*
X2617657Y1413657D01*
X2617693Y1413693D01*
X2617730Y1413766D01*
X2617802Y1413912D01*
X2617912Y1414130D01*
X2618021Y1414349D01*
X2618130Y1414603D01*
X2618312Y1415186D01*
Y1415222D01*
X2618349Y1415295D01*
Y1415441D01*
X2618385Y1415623D01*
X2618421Y1415877D01*
Y1416169D01*
X2618458Y1416569D01*
Y1420864D01*
X2607283D01*
Y1424213D01*
X2632472D01*
Y1412529D01*
D02*
G37*
G36*
Y1389633D02*
Y1387121D01*
X2616164D01*
Y1383700D01*
X2613325D01*
Y1387121D01*
X2607283D01*
Y1390215D01*
X2613325D01*
Y1401172D01*
X2616164D01*
X2632472Y1389633D01*
D02*
G37*
G36*
X2502003Y1626111D02*
X2501967Y1625820D01*
Y1625493D01*
X2501930Y1624728D01*
X2501821Y1623927D01*
X2501712Y1623054D01*
X2501530Y1622253D01*
X2501421Y1621853D01*
X2501312Y1621525D01*
Y1621489D01*
X2501275Y1621452D01*
X2501166Y1621234D01*
X2501020Y1620906D01*
X2500766Y1620506D01*
X2500438Y1620069D01*
X2500001Y1619596D01*
X2499492Y1619159D01*
X2498909Y1618722D01*
X2498873D01*
X2498836Y1618686D01*
X2498618Y1618540D01*
X2498254Y1618395D01*
X2497781Y1618176D01*
X2497235Y1617994D01*
X2496580Y1617812D01*
X2495888Y1617703D01*
X2495124Y1617667D01*
X2495087D01*
X2495014D01*
X2494869D01*
X2494687Y1617703D01*
X2494432D01*
X2494177Y1617739D01*
X2493558Y1617885D01*
X2492830Y1618103D01*
X2492066Y1618395D01*
X2491302Y1618831D01*
X2490938Y1619123D01*
X2490574Y1619414D01*
X2490537Y1619450D01*
X2490501Y1619487D01*
X2490392Y1619596D01*
X2490282Y1619741D01*
X2490137Y1619923D01*
X2489991Y1620142D01*
X2489809Y1620433D01*
X2489591Y1620724D01*
X2489409Y1621088D01*
X2489227Y1621489D01*
X2489008Y1621925D01*
X2488826Y1622399D01*
X2488681Y1622945D01*
X2488499Y1623491D01*
X2488390Y1624109D01*
X2488280Y1624765D01*
X2488244Y1624692D01*
X2488171Y1624546D01*
X2488026Y1624328D01*
X2487880Y1624037D01*
X2487480Y1623381D01*
X2487225Y1623054D01*
X2487006Y1622763D01*
X2486934Y1622690D01*
X2486752Y1622508D01*
X2486460Y1622217D01*
X2486096Y1621853D01*
X2485587Y1621452D01*
X2485041Y1620979D01*
X2484386Y1620506D01*
X2483658Y1619996D01*
X2476814Y1615665D01*
Y1619814D01*
X2482056Y1623127D01*
X2482092D01*
X2482165Y1623199D01*
X2482274Y1623272D01*
X2482420Y1623381D01*
X2482820Y1623636D01*
X2483330Y1623964D01*
X2483876Y1624364D01*
X2484458Y1624765D01*
X2485004Y1625165D01*
X2485514Y1625529D01*
X2485550Y1625565D01*
X2485696Y1625675D01*
X2485914Y1625857D01*
X2486169Y1626111D01*
X2486715Y1626657D01*
X2486970Y1626949D01*
X2487188Y1627240D01*
X2487225Y1627276D01*
X2487261Y1627349D01*
X2487334Y1627495D01*
X2487443Y1627713D01*
X2487552Y1627931D01*
X2487662Y1628186D01*
X2487844Y1628769D01*
Y1628805D01*
X2487880Y1628878D01*
Y1629023D01*
X2487916Y1629205D01*
X2487953Y1629460D01*
Y1629751D01*
X2487989Y1630152D01*
Y1634447D01*
X2476814D01*
Y1637796D01*
X2502003D01*
Y1626111D01*
D02*
G37*
G36*
X2483658Y1610459D02*
X2483621D01*
X2483548D01*
X2483439Y1610423D01*
X2483257Y1610387D01*
X2482857Y1610277D01*
X2482311Y1610132D01*
X2481765Y1609913D01*
X2481146Y1609622D01*
X2480600Y1609258D01*
X2480090Y1608821D01*
X2480054Y1608749D01*
X2479908Y1608603D01*
X2479726Y1608312D01*
X2479508Y1607911D01*
X2479290Y1607475D01*
X2479108Y1606929D01*
X2478962Y1606310D01*
X2478926Y1605618D01*
Y1605400D01*
X2478962Y1605254D01*
X2478998Y1604817D01*
X2479144Y1604308D01*
X2479326Y1603689D01*
X2479617Y1603070D01*
X2480054Y1602415D01*
X2480309Y1602124D01*
X2480600Y1601833D01*
X2480636Y1601796D01*
X2480673Y1601760D01*
X2480782Y1601687D01*
X2480891Y1601578D01*
X2481292Y1601323D01*
X2481801Y1601032D01*
X2482420Y1600777D01*
X2483184Y1600522D01*
X2484094Y1600340D01*
X2484568Y1600267D01*
X2485077D01*
X2485114D01*
X2485186D01*
X2485332D01*
X2485514Y1600304D01*
X2485732D01*
X2485987Y1600340D01*
X2486570Y1600449D01*
X2487261Y1600631D01*
X2487953Y1600886D01*
X2488608Y1601250D01*
X2489227Y1601760D01*
X2489263D01*
X2489300Y1601833D01*
X2489482Y1602015D01*
X2489736Y1602342D01*
X2490028Y1602779D01*
X2490282Y1603361D01*
X2490537Y1604017D01*
X2490719Y1604781D01*
X2490792Y1605218D01*
Y1605909D01*
X2490756Y1606201D01*
X2490719Y1606565D01*
X2490610Y1607001D01*
X2490501Y1607438D01*
X2490319Y1607911D01*
X2490100Y1608385D01*
X2490064Y1608421D01*
X2489991Y1608567D01*
X2489809Y1608785D01*
X2489627Y1609076D01*
X2489372Y1609367D01*
X2489045Y1609659D01*
X2488717Y1609986D01*
X2488317Y1610241D01*
X2488717Y1613153D01*
X2501676Y1610714D01*
Y1598193D01*
X2498727D01*
Y1608275D01*
X2491920Y1609622D01*
X2491957Y1609586D01*
X2491993Y1609513D01*
X2492066Y1609404D01*
X2492175Y1609222D01*
X2492284Y1609003D01*
X2492430Y1608749D01*
X2492721Y1608166D01*
X2493012Y1607438D01*
X2493267Y1606637D01*
X2493449Y1605764D01*
X2493522Y1605327D01*
Y1604526D01*
X2493486Y1604308D01*
X2493449Y1604017D01*
X2493413Y1603689D01*
X2493340Y1603325D01*
X2493231Y1602925D01*
X2492976Y1602051D01*
X2492794Y1601578D01*
X2492539Y1601105D01*
X2492284Y1600631D01*
X2491993Y1600158D01*
X2491629Y1599721D01*
X2491229Y1599285D01*
X2491192Y1599248D01*
X2491120Y1599175D01*
X2491010Y1599066D01*
X2490828Y1598921D01*
X2490574Y1598739D01*
X2490319Y1598557D01*
X2489991Y1598338D01*
X2489627Y1598120D01*
X2489227Y1597938D01*
X2488790Y1597719D01*
X2488280Y1597537D01*
X2487771Y1597355D01*
X2487225Y1597210D01*
X2486606Y1597101D01*
X2485987Y1597028D01*
X2485332Y1596991D01*
X2485296D01*
X2485186D01*
X2485004D01*
X2484750Y1597028D01*
X2484458Y1597064D01*
X2484131Y1597101D01*
X2483730Y1597173D01*
X2483330Y1597246D01*
X2482384Y1597465D01*
X2481401Y1597829D01*
X2480891Y1598047D01*
X2480418Y1598338D01*
X2479908Y1598629D01*
X2479435Y1598993D01*
X2479399Y1599030D01*
X2479290Y1599103D01*
X2479144Y1599248D01*
X2478962Y1599430D01*
X2478744Y1599685D01*
X2478452Y1599976D01*
X2478198Y1600340D01*
X2477906Y1600741D01*
X2477615Y1601177D01*
X2477360Y1601687D01*
X2477106Y1602233D01*
X2476851Y1602815D01*
X2476669Y1603434D01*
X2476523Y1604126D01*
X2476414Y1604854D01*
X2476378Y1605618D01*
Y1605946D01*
X2476414Y1606201D01*
X2476450Y1606492D01*
X2476487Y1606819D01*
X2476523Y1607220D01*
X2476632Y1607620D01*
X2476851Y1608530D01*
X2477178Y1609440D01*
X2477397Y1609913D01*
X2477652Y1610387D01*
X2477943Y1610823D01*
X2478270Y1611260D01*
X2478307Y1611297D01*
X2478343Y1611369D01*
X2478489Y1611442D01*
X2478634Y1611588D01*
X2478816Y1611770D01*
X2479035Y1611952D01*
X2479326Y1612170D01*
X2479654Y1612352D01*
X2479981Y1612571D01*
X2480382Y1612789D01*
X2481255Y1613189D01*
X2482274Y1613517D01*
X2482820Y1613626D01*
X2483403Y1613699D01*
X2483658Y1610459D01*
D02*
G37*
G36*
X2285031Y1630048D02*
X2284994Y1629757D01*
Y1629429D01*
X2284958Y1628665D01*
X2284849Y1627864D01*
X2284740Y1626991D01*
X2284558Y1626190D01*
X2284448Y1625789D01*
X2284339Y1625462D01*
Y1625425D01*
X2284303Y1625389D01*
X2284194Y1625170D01*
X2284048Y1624843D01*
X2283793Y1624443D01*
X2283466Y1624006D01*
X2283029Y1623533D01*
X2282519Y1623096D01*
X2281937Y1622659D01*
X2281901D01*
X2281864Y1622622D01*
X2281646Y1622477D01*
X2281282Y1622331D01*
X2280809Y1622113D01*
X2280262Y1621931D01*
X2279607Y1621749D01*
X2278916Y1621640D01*
X2278151Y1621603D01*
X2278115D01*
X2278042D01*
X2277896D01*
X2277715Y1621640D01*
X2277460D01*
X2277205Y1621676D01*
X2276586Y1621822D01*
X2275858Y1622040D01*
X2275094Y1622331D01*
X2274329Y1622768D01*
X2273965Y1623059D01*
X2273601Y1623351D01*
X2273565Y1623387D01*
X2273528Y1623423D01*
X2273419Y1623533D01*
X2273310Y1623678D01*
X2273164Y1623860D01*
X2273019Y1624079D01*
X2272837Y1624370D01*
X2272619Y1624661D01*
X2272436Y1625025D01*
X2272255Y1625425D01*
X2272036Y1625862D01*
X2271854Y1626335D01*
X2271709Y1626881D01*
X2271526Y1627427D01*
X2271417Y1628046D01*
X2271308Y1628701D01*
X2271272Y1628629D01*
X2271199Y1628483D01*
X2271053Y1628264D01*
X2270908Y1627973D01*
X2270507Y1627318D01*
X2270253Y1626991D01*
X2270034Y1626699D01*
X2269961Y1626627D01*
X2269779Y1626445D01*
X2269488Y1626153D01*
X2269124Y1625789D01*
X2268615Y1625389D01*
X2268068Y1624916D01*
X2267413Y1624443D01*
X2266685Y1623933D01*
X2259842Y1619601D01*
Y1623751D01*
X2265084Y1627063D01*
X2265120D01*
X2265193Y1627136D01*
X2265302Y1627209D01*
X2265448Y1627318D01*
X2265848Y1627573D01*
X2266358Y1627900D01*
X2266904Y1628301D01*
X2267486Y1628701D01*
X2268032Y1629102D01*
X2268542Y1629466D01*
X2268578Y1629502D01*
X2268724Y1629611D01*
X2268942Y1629793D01*
X2269197Y1630048D01*
X2269743Y1630594D01*
X2269998Y1630885D01*
X2270216Y1631177D01*
X2270253Y1631213D01*
X2270289Y1631286D01*
X2270362Y1631431D01*
X2270471Y1631650D01*
X2270580Y1631868D01*
X2270689Y1632123D01*
X2270871Y1632705D01*
Y1632742D01*
X2270908Y1632814D01*
Y1632960D01*
X2270944Y1633142D01*
X2270981Y1633397D01*
Y1633688D01*
X2271017Y1634089D01*
Y1638384D01*
X2259842D01*
Y1641733D01*
X2285031D01*
Y1630048D01*
D02*
G37*
G36*
X2284703Y1601110D02*
X2282265D01*
X2282228Y1601147D01*
X2282155Y1601219D01*
X2282010Y1601365D01*
X2281791Y1601511D01*
X2281537Y1601729D01*
X2281245Y1602020D01*
X2280881Y1602311D01*
X2280445Y1602639D01*
X2280008Y1602966D01*
X2279498Y1603367D01*
X2278916Y1603767D01*
X2278333Y1604168D01*
X2277678Y1604604D01*
X2276986Y1605041D01*
X2276222Y1605478D01*
X2275458Y1605915D01*
X2275421Y1605951D01*
X2275276Y1606024D01*
X2275057Y1606133D01*
X2274730Y1606315D01*
X2274329Y1606497D01*
X2273892Y1606716D01*
X2273383Y1606970D01*
X2272800Y1607225D01*
X2272145Y1607516D01*
X2271490Y1607844D01*
X2270762Y1608135D01*
X2269998Y1608427D01*
X2268432Y1609009D01*
X2266758Y1609555D01*
X2266722D01*
X2266613Y1609591D01*
X2266430Y1609628D01*
X2266212Y1609700D01*
X2265921Y1609773D01*
X2265557Y1609846D01*
X2265157Y1609955D01*
X2264720Y1610028D01*
X2264210Y1610137D01*
X2263664Y1610246D01*
X2262499Y1610428D01*
X2261225Y1610611D01*
X2259842Y1610720D01*
Y1613887D01*
X2259878D01*
X2259988D01*
X2260133D01*
X2260352Y1613850D01*
X2260643D01*
X2261007Y1613814D01*
X2261407Y1613777D01*
X2261844Y1613741D01*
X2262354Y1613668D01*
X2262863Y1613595D01*
X2263482Y1613486D01*
X2264101Y1613377D01*
X2264756Y1613268D01*
X2265484Y1613122D01*
X2266977Y1612758D01*
X2267013D01*
X2267159Y1612722D01*
X2267377Y1612649D01*
X2267704Y1612540D01*
X2268068Y1612430D01*
X2268505Y1612285D01*
X2269015Y1612139D01*
X2269561Y1611921D01*
X2270180Y1611703D01*
X2270798Y1611484D01*
X2272182Y1610938D01*
X2273638Y1610283D01*
X2275094Y1609555D01*
X2275130Y1609518D01*
X2275276Y1609446D01*
X2275458Y1609336D01*
X2275749Y1609191D01*
X2276077Y1609009D01*
X2276477Y1608754D01*
X2276914Y1608499D01*
X2277387Y1608208D01*
X2278443Y1607516D01*
X2279535Y1606789D01*
X2280663Y1605951D01*
X2281718Y1605078D01*
Y1617417D01*
X2284703D01*
Y1601110D01*
D02*
G37*
G36*
X1912858Y1639047D02*
X1913331D01*
X1913877Y1639011D01*
X1914423Y1638938D01*
X1915660Y1638829D01*
X1916971Y1638647D01*
X1918208Y1638392D01*
X1918827Y1638210D01*
X1919373Y1638028D01*
X1919410D01*
X1919482Y1637991D01*
X1919628Y1637918D01*
X1919846Y1637846D01*
X1920065Y1637736D01*
X1920356Y1637591D01*
X1920975Y1637227D01*
X1921666Y1636790D01*
X1922394Y1636281D01*
X1923086Y1635625D01*
X1923705Y1634897D01*
Y1634861D01*
X1923778Y1634788D01*
X1923850Y1634679D01*
X1923923Y1634533D01*
X1924032Y1634315D01*
X1924178Y1634097D01*
X1924324Y1633805D01*
X1924433Y1633514D01*
X1924724Y1632822D01*
X1924979Y1631985D01*
X1925124Y1631075D01*
X1925197Y1630056D01*
Y1629765D01*
X1925161Y1629583D01*
Y1629328D01*
X1925124Y1629037D01*
X1924979Y1628345D01*
X1924797Y1627581D01*
X1924506Y1626780D01*
X1924105Y1625979D01*
X1923850Y1625579D01*
X1923559Y1625215D01*
X1923523Y1625178D01*
X1923486Y1625142D01*
X1923377Y1625033D01*
X1923268Y1624924D01*
X1923086Y1624778D01*
X1922868Y1624596D01*
X1922358Y1624232D01*
X1921703Y1623868D01*
X1920902Y1623504D01*
X1919992Y1623213D01*
X1918936Y1622995D01*
X1918682Y1625979D01*
X1918718D01*
X1918791Y1626016D01*
X1918864D01*
X1919009Y1626052D01*
X1919410Y1626161D01*
X1919846Y1626307D01*
X1920356Y1626489D01*
X1920866Y1626744D01*
X1921339Y1627035D01*
X1921739Y1627399D01*
X1921776Y1627435D01*
X1921885Y1627581D01*
X1922030Y1627836D01*
X1922176Y1628127D01*
X1922358Y1628527D01*
X1922504Y1629001D01*
X1922613Y1629546D01*
X1922649Y1630129D01*
Y1630384D01*
X1922613Y1630639D01*
X1922576Y1630966D01*
X1922504Y1631367D01*
X1922394Y1631767D01*
X1922249Y1632204D01*
X1922030Y1632604D01*
X1921994Y1632640D01*
X1921921Y1632786D01*
X1921776Y1633005D01*
X1921557Y1633223D01*
X1921302Y1633514D01*
X1921011Y1633805D01*
X1920684Y1634097D01*
X1920283Y1634388D01*
X1920247Y1634424D01*
X1920065Y1634497D01*
X1919810Y1634642D01*
X1919482Y1634788D01*
X1919046Y1634970D01*
X1918536Y1635152D01*
X1917954Y1635334D01*
X1917298Y1635516D01*
X1917262D01*
X1917226Y1635553D01*
X1917116D01*
X1916971Y1635589D01*
X1916607Y1635662D01*
X1916134Y1635771D01*
X1915551Y1635844D01*
X1914932Y1635917D01*
X1914241Y1635953D01*
X1913513Y1635989D01*
X1913476D01*
X1913367D01*
X1913185D01*
X1912894D01*
X1912967Y1635953D01*
X1913149Y1635807D01*
X1913404Y1635589D01*
X1913768Y1635334D01*
X1914132Y1634970D01*
X1914532Y1634533D01*
X1914932Y1634024D01*
X1915296Y1633441D01*
X1915333Y1633369D01*
X1915442Y1633150D01*
X1915588Y1632822D01*
X1915733Y1632422D01*
X1915915Y1631876D01*
X1916061Y1631294D01*
X1916170Y1630639D01*
X1916206Y1629947D01*
Y1629656D01*
X1916170Y1629437D01*
X1916134Y1629146D01*
X1916097Y1628855D01*
X1916024Y1628491D01*
X1915915Y1628127D01*
X1915660Y1627290D01*
X1915478Y1626853D01*
X1915260Y1626416D01*
X1915005Y1625943D01*
X1914678Y1625506D01*
X1914350Y1625069D01*
X1913950Y1624669D01*
X1913913Y1624632D01*
X1913840Y1624560D01*
X1913731Y1624487D01*
X1913549Y1624341D01*
X1913294Y1624159D01*
X1913040Y1623977D01*
X1912712Y1623795D01*
X1912348Y1623613D01*
X1911948Y1623395D01*
X1911511Y1623213D01*
X1911001Y1623031D01*
X1910492Y1622849D01*
X1909909Y1622703D01*
X1909290Y1622630D01*
X1908672Y1622558D01*
X1907980Y1622521D01*
X1907944D01*
X1907798D01*
X1907616D01*
X1907361Y1622558D01*
X1907034Y1622594D01*
X1906633Y1622630D01*
X1906233Y1622703D01*
X1905760Y1622812D01*
X1904813Y1623067D01*
X1904304Y1623249D01*
X1903758Y1623468D01*
X1903248Y1623723D01*
X1902775Y1624050D01*
X1902265Y1624378D01*
X1901828Y1624778D01*
X1901792Y1624814D01*
X1901719Y1624887D01*
X1901610Y1624996D01*
X1901464Y1625178D01*
X1901282Y1625397D01*
X1901064Y1625688D01*
X1900882Y1625979D01*
X1900627Y1626343D01*
X1900409Y1626707D01*
X1900227Y1627144D01*
X1899826Y1628127D01*
X1899681Y1628637D01*
X1899572Y1629219D01*
X1899499Y1629801D01*
X1899462Y1630420D01*
Y1630675D01*
X1899499Y1630857D01*
Y1631039D01*
X1899535Y1631294D01*
X1899644Y1631912D01*
X1899790Y1632604D01*
X1900045Y1633369D01*
X1900372Y1634133D01*
X1900809Y1634897D01*
Y1634934D01*
X1900882Y1634970D01*
X1900955Y1635079D01*
X1901064Y1635225D01*
X1901355Y1635589D01*
X1901756Y1636062D01*
X1902302Y1636535D01*
X1902957Y1637081D01*
X1903721Y1637554D01*
X1904595Y1637991D01*
X1904631D01*
X1904704Y1638028D01*
X1904850Y1638101D01*
X1905032Y1638173D01*
X1905286Y1638246D01*
X1905614Y1638355D01*
X1905978Y1638428D01*
X1906378Y1638537D01*
X1906852Y1638647D01*
X1907398Y1638756D01*
X1907980Y1638829D01*
X1908599Y1638901D01*
X1909290Y1638974D01*
X1910018Y1639047D01*
X1910819Y1639083D01*
X1911656D01*
X1911693D01*
X1911875D01*
X1912130D01*
X1912457D01*
X1912858Y1639047D01*
D02*
G37*
G36*
X1924760Y1616406D02*
X1919519Y1613094D01*
X1919482D01*
X1919410Y1613021D01*
X1919300Y1612948D01*
X1919155Y1612839D01*
X1918754Y1612584D01*
X1918245Y1612256D01*
X1917699Y1611856D01*
X1917116Y1611456D01*
X1916570Y1611055D01*
X1916061Y1610691D01*
X1916024Y1610655D01*
X1915879Y1610546D01*
X1915660Y1610364D01*
X1915406Y1610109D01*
X1914860Y1609563D01*
X1914605Y1609272D01*
X1914386Y1608980D01*
X1914350Y1608944D01*
X1914314Y1608871D01*
X1914241Y1608726D01*
X1914132Y1608507D01*
X1914022Y1608289D01*
X1913913Y1608034D01*
X1913731Y1607452D01*
Y1607415D01*
X1913695Y1607342D01*
Y1607197D01*
X1913658Y1607015D01*
X1913622Y1606760D01*
Y1606469D01*
X1913586Y1606069D01*
Y1601773D01*
X1924760D01*
Y1598425D01*
X1899572D01*
Y1610109D01*
X1899608Y1610400D01*
Y1610728D01*
X1899644Y1611492D01*
X1899754Y1612293D01*
X1899863Y1613167D01*
X1900045Y1613967D01*
X1900154Y1614368D01*
X1900263Y1614695D01*
Y1614732D01*
X1900300Y1614768D01*
X1900409Y1614986D01*
X1900554Y1615314D01*
X1900809Y1615715D01*
X1901137Y1616151D01*
X1901574Y1616624D01*
X1902083Y1617061D01*
X1902666Y1617498D01*
X1902702D01*
X1902738Y1617534D01*
X1902957Y1617680D01*
X1903321Y1617826D01*
X1903794Y1618044D01*
X1904340Y1618226D01*
X1904995Y1618408D01*
X1905687Y1618517D01*
X1906451Y1618554D01*
X1906488D01*
X1906560D01*
X1906706D01*
X1906888Y1618517D01*
X1907143D01*
X1907398Y1618481D01*
X1908016Y1618335D01*
X1908744Y1618117D01*
X1909509Y1617826D01*
X1910273Y1617389D01*
X1910637Y1617098D01*
X1911001Y1616806D01*
X1911038Y1616770D01*
X1911074Y1616734D01*
X1911183Y1616624D01*
X1911292Y1616479D01*
X1911438Y1616297D01*
X1911584Y1616079D01*
X1911766Y1615787D01*
X1911984Y1615496D01*
X1912166Y1615132D01*
X1912348Y1614732D01*
X1912566Y1614295D01*
X1912748Y1613822D01*
X1912894Y1613276D01*
X1913076Y1612730D01*
X1913185Y1612111D01*
X1913294Y1611456D01*
X1913331Y1611528D01*
X1913404Y1611674D01*
X1913549Y1611892D01*
X1913695Y1612184D01*
X1914095Y1612839D01*
X1914350Y1613167D01*
X1914568Y1613458D01*
X1914641Y1613531D01*
X1914823Y1613713D01*
X1915114Y1614004D01*
X1915478Y1614368D01*
X1915988Y1614768D01*
X1916534Y1615241D01*
X1917189Y1615715D01*
X1917917Y1616224D01*
X1924760Y1620556D01*
Y1616406D01*
D02*
G37*
G36*
X1452851Y1621883D02*
X1453142Y1621847D01*
X1453469Y1621774D01*
X1453833Y1621701D01*
X1454234Y1621628D01*
X1455107Y1621337D01*
X1455581Y1621119D01*
X1456017Y1620900D01*
X1456491Y1620609D01*
X1456964Y1620281D01*
X1457437Y1619917D01*
X1457874Y1619480D01*
X1457910Y1619444D01*
X1457983Y1619371D01*
X1458092Y1619226D01*
X1458238Y1619044D01*
X1458420Y1618825D01*
X1458602Y1618534D01*
X1458820Y1618207D01*
X1459002Y1617806D01*
X1459221Y1617406D01*
X1459439Y1616932D01*
X1459621Y1616459D01*
X1459803Y1615913D01*
X1459949Y1615331D01*
X1460058Y1614712D01*
X1460131Y1614093D01*
X1460167Y1613402D01*
Y1613074D01*
X1460131Y1612856D01*
X1460094Y1612564D01*
X1460058Y1612237D01*
X1459985Y1611873D01*
X1459912Y1611473D01*
X1459694Y1610599D01*
X1459330Y1609689D01*
X1459111Y1609216D01*
X1458857Y1608779D01*
X1458529Y1608342D01*
X1458201Y1607905D01*
X1458165Y1607869D01*
X1458092Y1607796D01*
X1457983Y1607687D01*
X1457837Y1607578D01*
X1457655Y1607396D01*
X1457401Y1607214D01*
X1457146Y1606995D01*
X1456818Y1606777D01*
X1456454Y1606559D01*
X1456090Y1606340D01*
X1455217Y1605940D01*
X1454197Y1605612D01*
X1453651Y1605503D01*
X1453069Y1605430D01*
X1452669Y1608524D01*
X1452705D01*
X1452778Y1608561D01*
X1452923Y1608597D01*
X1453105Y1608633D01*
X1453324Y1608670D01*
X1453579Y1608743D01*
X1454125Y1608925D01*
X1454780Y1609179D01*
X1455399Y1609507D01*
X1455981Y1609871D01*
X1456491Y1610308D01*
X1456527Y1610380D01*
X1456673Y1610526D01*
X1456855Y1610817D01*
X1457037Y1611181D01*
X1457255Y1611618D01*
X1457437Y1612164D01*
X1457583Y1612783D01*
X1457619Y1613438D01*
Y1613657D01*
X1457583Y1613802D01*
X1457546Y1614203D01*
X1457437Y1614712D01*
X1457255Y1615294D01*
X1457000Y1615913D01*
X1456636Y1616532D01*
X1456127Y1617114D01*
X1456054Y1617187D01*
X1455835Y1617369D01*
X1455508Y1617588D01*
X1455071Y1617879D01*
X1454525Y1618170D01*
X1453906Y1618389D01*
X1453178Y1618571D01*
X1452377Y1618643D01*
X1452341D01*
X1452268D01*
X1452159D01*
X1452013Y1618607D01*
X1451613Y1618571D01*
X1451140Y1618461D01*
X1450557Y1618316D01*
X1449975Y1618061D01*
X1449393Y1617697D01*
X1448847Y1617224D01*
X1448774Y1617151D01*
X1448628Y1616969D01*
X1448410Y1616678D01*
X1448155Y1616277D01*
X1447900Y1615768D01*
X1447682Y1615149D01*
X1447536Y1614457D01*
X1447463Y1613693D01*
Y1613365D01*
X1447500Y1613111D01*
X1447536Y1612783D01*
X1447609Y1612419D01*
X1447682Y1611982D01*
X1447791Y1611509D01*
X1445061Y1611873D01*
Y1612055D01*
X1445097Y1612200D01*
Y1612674D01*
X1445025Y1613074D01*
X1444952Y1613547D01*
X1444843Y1614093D01*
X1444661Y1614712D01*
X1444406Y1615294D01*
X1444078Y1615913D01*
Y1615950D01*
X1444042Y1615986D01*
X1443896Y1616168D01*
X1443641Y1616423D01*
X1443314Y1616714D01*
X1442841Y1617005D01*
X1442295Y1617260D01*
X1441676Y1617442D01*
X1441312Y1617515D01*
X1440911D01*
X1440875D01*
X1440839D01*
X1440620D01*
X1440329Y1617442D01*
X1439929Y1617369D01*
X1439492Y1617224D01*
X1439019Y1617042D01*
X1438545Y1616751D01*
X1438109Y1616350D01*
X1438072Y1616314D01*
X1437927Y1616132D01*
X1437745Y1615877D01*
X1437526Y1615549D01*
X1437344Y1615112D01*
X1437162Y1614603D01*
X1437017Y1614021D01*
X1436980Y1613365D01*
Y1613074D01*
X1437053Y1612746D01*
X1437126Y1612310D01*
X1437271Y1611836D01*
X1437453Y1611363D01*
X1437745Y1610854D01*
X1438109Y1610380D01*
X1438145Y1610344D01*
X1438327Y1610198D01*
X1438582Y1609980D01*
X1438946Y1609725D01*
X1439419Y1609470D01*
X1440001Y1609216D01*
X1440693Y1608997D01*
X1441494Y1608852D01*
X1440948Y1605758D01*
X1440911D01*
X1440802Y1605794D01*
X1440657Y1605831D01*
X1440438Y1605867D01*
X1440183Y1605940D01*
X1439892Y1606049D01*
X1439201Y1606267D01*
X1438400Y1606631D01*
X1437599Y1607068D01*
X1436835Y1607614D01*
X1436143Y1608306D01*
X1436107Y1608342D01*
X1436070Y1608415D01*
X1435997Y1608524D01*
X1435888Y1608670D01*
X1435743Y1608852D01*
X1435597Y1609107D01*
X1435451Y1609361D01*
X1435269Y1609689D01*
X1434978Y1610417D01*
X1434687Y1611254D01*
X1434505Y1612237D01*
X1434432Y1612746D01*
Y1613657D01*
X1434469Y1614057D01*
X1434541Y1614530D01*
X1434651Y1615112D01*
X1434833Y1615768D01*
X1435051Y1616423D01*
X1435342Y1617078D01*
Y1617114D01*
X1435379Y1617151D01*
X1435488Y1617369D01*
X1435706Y1617697D01*
X1435961Y1618061D01*
X1436325Y1618498D01*
X1436725Y1618935D01*
X1437199Y1619371D01*
X1437745Y1619735D01*
X1437817Y1619772D01*
X1437999Y1619881D01*
X1438327Y1620026D01*
X1438727Y1620208D01*
X1439201Y1620390D01*
X1439747Y1620536D01*
X1440365Y1620645D01*
X1440984Y1620682D01*
X1441057D01*
X1441275D01*
X1441567Y1620645D01*
X1441967Y1620572D01*
X1442440Y1620463D01*
X1442950Y1620281D01*
X1443459Y1620063D01*
X1443969Y1619772D01*
X1444042Y1619735D01*
X1444187Y1619626D01*
X1444442Y1619408D01*
X1444733Y1619117D01*
X1445061Y1618753D01*
X1445425Y1618316D01*
X1445753Y1617806D01*
X1446080Y1617187D01*
Y1617224D01*
X1446117Y1617296D01*
X1446153Y1617406D01*
X1446189Y1617551D01*
X1446335Y1617952D01*
X1446553Y1618461D01*
X1446845Y1619044D01*
X1447209Y1619626D01*
X1447682Y1620172D01*
X1448228Y1620682D01*
X1448301Y1620718D01*
X1448519Y1620864D01*
X1448883Y1621082D01*
X1449356Y1621301D01*
X1449939Y1621519D01*
X1450630Y1621737D01*
X1451431Y1621883D01*
X1452305Y1621919D01*
X1452341D01*
X1452450D01*
X1452632D01*
X1452851Y1621883D01*
D02*
G37*
G36*
X1437526Y1594910D02*
X1459730D01*
Y1591562D01*
X1437526D01*
Y1583263D01*
X1434541D01*
Y1603210D01*
X1437526D01*
Y1594910D01*
D02*
G37*
G36*
X1188077Y1510900D02*
X1188040D01*
X1187895D01*
X1187676D01*
X1187385Y1510936D01*
X1187057Y1510973D01*
X1186694Y1511045D01*
X1186330Y1511118D01*
X1185929Y1511264D01*
X1185893D01*
X1185856Y1511300D01*
X1185638Y1511373D01*
X1185310Y1511519D01*
X1184873Y1511737D01*
X1184364Y1512028D01*
X1183782Y1512392D01*
X1183199Y1512793D01*
X1182580Y1513302D01*
X1182544D01*
X1182507Y1513375D01*
X1182289Y1513557D01*
X1181961Y1513885D01*
X1181488Y1514358D01*
X1180942Y1514904D01*
X1180287Y1515595D01*
X1179559Y1516433D01*
X1178795Y1517343D01*
X1178758Y1517379D01*
X1178649Y1517525D01*
X1178467Y1517743D01*
X1178249Y1517998D01*
X1177957Y1518325D01*
X1177630Y1518726D01*
X1177266Y1519126D01*
X1176866Y1519599D01*
X1175992Y1520509D01*
X1175118Y1521419D01*
X1174681Y1521856D01*
X1174245Y1522257D01*
X1173844Y1522621D01*
X1173444Y1522912D01*
X1173408D01*
X1173371Y1522985D01*
X1173262Y1523057D01*
X1173116Y1523130D01*
X1172716Y1523385D01*
X1172243Y1523676D01*
X1171660Y1523931D01*
X1171042Y1524186D01*
X1170350Y1524331D01*
X1169695Y1524404D01*
X1169658D01*
X1169622D01*
X1169403Y1524368D01*
X1169040Y1524331D01*
X1168639Y1524222D01*
X1168130Y1524077D01*
X1167620Y1523822D01*
X1167110Y1523494D01*
X1166601Y1523057D01*
X1166528Y1522985D01*
X1166382Y1522803D01*
X1166200Y1522548D01*
X1165946Y1522147D01*
X1165727Y1521638D01*
X1165509Y1521055D01*
X1165363Y1520364D01*
X1165327Y1519599D01*
Y1519381D01*
X1165363Y1519235D01*
X1165399Y1518799D01*
X1165509Y1518289D01*
X1165654Y1517743D01*
X1165909Y1517124D01*
X1166237Y1516542D01*
X1166674Y1515996D01*
X1166746Y1515923D01*
X1166928Y1515777D01*
X1167219Y1515559D01*
X1167656Y1515341D01*
X1168166Y1515086D01*
X1168821Y1514867D01*
X1169549Y1514722D01*
X1170386Y1514649D01*
X1170059Y1511482D01*
X1170022D01*
X1169913Y1511519D01*
X1169731D01*
X1169476Y1511555D01*
X1169185Y1511628D01*
X1168858Y1511701D01*
X1168457Y1511810D01*
X1168057Y1511919D01*
X1167183Y1512210D01*
X1166310Y1512647D01*
X1165873Y1512902D01*
X1165436Y1513229D01*
X1165035Y1513557D01*
X1164671Y1513921D01*
X1164635Y1513957D01*
X1164599Y1514030D01*
X1164489Y1514139D01*
X1164380Y1514321D01*
X1164235Y1514540D01*
X1164089Y1514795D01*
X1163907Y1515086D01*
X1163725Y1515450D01*
X1163543Y1515850D01*
X1163361Y1516287D01*
X1163216Y1516760D01*
X1163070Y1517270D01*
X1162961Y1517816D01*
X1162851Y1518398D01*
X1162815Y1519017D01*
X1162779Y1519672D01*
Y1520036D01*
X1162815Y1520291D01*
X1162851Y1520582D01*
X1162888Y1520946D01*
X1162961Y1521347D01*
X1163034Y1521747D01*
X1163288Y1522693D01*
X1163652Y1523640D01*
X1163871Y1524113D01*
X1164126Y1524586D01*
X1164453Y1525023D01*
X1164817Y1525423D01*
X1164853Y1525460D01*
X1164890Y1525533D01*
X1165035Y1525605D01*
X1165181Y1525751D01*
X1165363Y1525933D01*
X1165618Y1526115D01*
X1165873Y1526297D01*
X1166200Y1526515D01*
X1166892Y1526879D01*
X1167765Y1527243D01*
X1168202Y1527389D01*
X1168712Y1527462D01*
X1169222Y1527535D01*
X1169767Y1527571D01*
X1169840D01*
X1170022D01*
X1170313Y1527535D01*
X1170714Y1527498D01*
X1171151Y1527425D01*
X1171660Y1527280D01*
X1172206Y1527134D01*
X1172752Y1526916D01*
X1172825Y1526879D01*
X1173007Y1526807D01*
X1173298Y1526661D01*
X1173699Y1526443D01*
X1174136Y1526151D01*
X1174681Y1525787D01*
X1175227Y1525351D01*
X1175846Y1524841D01*
X1175919Y1524768D01*
X1176138Y1524586D01*
X1176320Y1524404D01*
X1176502Y1524222D01*
X1176720Y1524004D01*
X1177011Y1523713D01*
X1177302Y1523421D01*
X1177630Y1523057D01*
X1177994Y1522693D01*
X1178394Y1522257D01*
X1178795Y1521783D01*
X1179268Y1521274D01*
X1179741Y1520691D01*
X1180251Y1520109D01*
X1180287Y1520073D01*
X1180360Y1520000D01*
X1180469Y1519854D01*
X1180615Y1519672D01*
X1180833Y1519454D01*
X1181052Y1519199D01*
X1181525Y1518617D01*
X1182071Y1517998D01*
X1182617Y1517415D01*
X1183090Y1516906D01*
X1183272Y1516687D01*
X1183454Y1516505D01*
X1183490Y1516469D01*
X1183600Y1516360D01*
X1183745Y1516214D01*
X1183964Y1516032D01*
X1184218Y1515850D01*
X1184473Y1515632D01*
X1185092Y1515195D01*
Y1527607D01*
X1188077D01*
Y1510900D01*
D02*
G37*
G36*
X1180287Y1508461D02*
X1180505Y1508388D01*
X1180797Y1508279D01*
X1181124Y1508170D01*
X1181525Y1508024D01*
X1181961Y1507842D01*
X1182435Y1507624D01*
X1183454Y1507114D01*
X1184473Y1506459D01*
X1184983Y1506059D01*
X1185492Y1505658D01*
X1185929Y1505221D01*
X1186366Y1504712D01*
X1186402Y1504675D01*
X1186475Y1504603D01*
X1186548Y1504421D01*
X1186694Y1504239D01*
X1186876Y1503947D01*
X1187057Y1503656D01*
X1187239Y1503256D01*
X1187421Y1502855D01*
X1187640Y1502382D01*
X1187822Y1501873D01*
X1188004Y1501327D01*
X1188186Y1500744D01*
X1188332Y1500125D01*
X1188404Y1499470D01*
X1188477Y1498779D01*
X1188514Y1498051D01*
Y1497650D01*
X1188477Y1497359D01*
Y1497031D01*
X1188441Y1496631D01*
X1188368Y1496194D01*
X1188295Y1495685D01*
X1188113Y1494629D01*
X1187822Y1493537D01*
X1187421Y1492445D01*
X1187167Y1491935D01*
X1186876Y1491426D01*
X1186839Y1491389D01*
X1186803Y1491317D01*
X1186694Y1491171D01*
X1186548Y1491025D01*
X1186402Y1490807D01*
X1186184Y1490552D01*
X1185929Y1490261D01*
X1185638Y1489970D01*
X1185310Y1489679D01*
X1184983Y1489351D01*
X1184146Y1488696D01*
X1183163Y1488077D01*
X1182071Y1487531D01*
X1182034D01*
X1181925Y1487458D01*
X1181743Y1487422D01*
X1181525Y1487313D01*
X1181234Y1487240D01*
X1180870Y1487131D01*
X1180469Y1486985D01*
X1180032Y1486876D01*
X1179559Y1486767D01*
X1179013Y1486621D01*
X1177885Y1486439D01*
X1176611Y1486293D01*
X1175300Y1486221D01*
X1175264D01*
X1175118D01*
X1174900D01*
X1174645Y1486257D01*
X1174281D01*
X1173917Y1486293D01*
X1173444Y1486330D01*
X1172971Y1486403D01*
X1171915Y1486585D01*
X1170750Y1486839D01*
X1169585Y1487203D01*
X1168457Y1487713D01*
X1168421Y1487749D01*
X1168312Y1487786D01*
X1168166Y1487859D01*
X1167984Y1488004D01*
X1167729Y1488150D01*
X1167438Y1488332D01*
X1166783Y1488805D01*
X1166055Y1489424D01*
X1165327Y1490152D01*
X1164599Y1490989D01*
X1163980Y1491972D01*
X1163944Y1492008D01*
X1163907Y1492117D01*
X1163834Y1492263D01*
X1163725Y1492445D01*
X1163616Y1492736D01*
X1163507Y1493027D01*
X1163361Y1493391D01*
X1163216Y1493792D01*
X1163070Y1494229D01*
X1162924Y1494702D01*
X1162706Y1495721D01*
X1162524Y1496886D01*
X1162451Y1498087D01*
Y1498451D01*
X1162487Y1498706D01*
X1162524Y1499033D01*
X1162560Y1499434D01*
X1162597Y1499834D01*
X1162706Y1500307D01*
X1162924Y1501290D01*
X1163252Y1502382D01*
X1163470Y1502928D01*
X1163725Y1503438D01*
X1164053Y1503947D01*
X1164380Y1504457D01*
X1164417Y1504493D01*
X1164453Y1504566D01*
X1164562Y1504712D01*
X1164744Y1504894D01*
X1164926Y1505076D01*
X1165181Y1505331D01*
X1165472Y1505585D01*
X1165764Y1505877D01*
X1166128Y1506168D01*
X1166564Y1506459D01*
X1167001Y1506787D01*
X1167474Y1507078D01*
X1168020Y1507333D01*
X1168566Y1507624D01*
X1169149Y1507842D01*
X1169804Y1508061D01*
X1170568Y1504785D01*
X1170532D01*
X1170459Y1504748D01*
X1170313Y1504675D01*
X1170131Y1504603D01*
X1169913Y1504530D01*
X1169622Y1504421D01*
X1169040Y1504129D01*
X1168384Y1503765D01*
X1167729Y1503329D01*
X1167110Y1502783D01*
X1166564Y1502200D01*
X1166492Y1502127D01*
X1166346Y1501909D01*
X1166164Y1501545D01*
X1165909Y1501072D01*
X1165691Y1500453D01*
X1165472Y1499761D01*
X1165327Y1498924D01*
X1165290Y1498014D01*
Y1497723D01*
X1165327Y1497541D01*
Y1497286D01*
X1165363Y1496995D01*
X1165472Y1496303D01*
X1165618Y1495539D01*
X1165873Y1494738D01*
X1166237Y1493901D01*
X1166710Y1493137D01*
Y1493100D01*
X1166783Y1493064D01*
X1166965Y1492809D01*
X1167256Y1492481D01*
X1167693Y1492081D01*
X1168239Y1491608D01*
X1168858Y1491171D01*
X1169622Y1490771D01*
X1170459Y1490407D01*
X1170495D01*
X1170568Y1490370D01*
X1170678Y1490334D01*
X1170860Y1490297D01*
X1171078Y1490225D01*
X1171333Y1490152D01*
X1171951Y1490043D01*
X1172679Y1489897D01*
X1173480Y1489751D01*
X1174354Y1489679D01*
X1175300Y1489642D01*
X1175337D01*
X1175446D01*
X1175628D01*
X1175846D01*
X1176101Y1489679D01*
X1176429D01*
X1176793Y1489715D01*
X1177193Y1489751D01*
X1178067Y1489861D01*
X1179013Y1490043D01*
X1179959Y1490261D01*
X1180906Y1490552D01*
X1180942D01*
X1181015Y1490589D01*
X1181124Y1490661D01*
X1181306Y1490734D01*
X1181743Y1490953D01*
X1182253Y1491280D01*
X1182835Y1491681D01*
X1183454Y1492190D01*
X1184000Y1492773D01*
X1184509Y1493464D01*
Y1493501D01*
X1184546Y1493573D01*
X1184619Y1493683D01*
X1184691Y1493828D01*
X1184764Y1494010D01*
X1184873Y1494229D01*
X1185092Y1494738D01*
X1185310Y1495393D01*
X1185492Y1496121D01*
X1185638Y1496922D01*
X1185674Y1497759D01*
Y1498014D01*
X1185638Y1498233D01*
Y1498487D01*
X1185601Y1498742D01*
X1185456Y1499397D01*
X1185274Y1500162D01*
X1184983Y1500926D01*
X1184582Y1501727D01*
X1184364Y1502127D01*
X1184073Y1502491D01*
X1184036Y1502528D01*
X1184000Y1502564D01*
X1183891Y1502673D01*
X1183782Y1502819D01*
X1183600Y1502965D01*
X1183381Y1503147D01*
X1183163Y1503365D01*
X1182871Y1503547D01*
X1182544Y1503765D01*
X1182180Y1504020D01*
X1181816Y1504239D01*
X1181379Y1504457D01*
X1180906Y1504639D01*
X1180396Y1504821D01*
X1179850Y1505003D01*
X1179268Y1505149D01*
X1180105Y1508497D01*
X1180141D01*
X1180287Y1508461D01*
D02*
G37*
G36*
X1689288Y1220472D02*
X1686194D01*
Y1240164D01*
X1686157Y1240128D01*
X1685975Y1239982D01*
X1685757Y1239764D01*
X1685393Y1239509D01*
X1684992Y1239181D01*
X1684483Y1238818D01*
X1683900Y1238417D01*
X1683245Y1238017D01*
X1683209D01*
X1683172Y1237980D01*
X1682954Y1237835D01*
X1682590Y1237653D01*
X1682153Y1237434D01*
X1681644Y1237179D01*
X1681098Y1236925D01*
X1680552Y1236670D01*
X1680006Y1236451D01*
Y1239436D01*
X1680042D01*
X1680115Y1239509D01*
X1680260Y1239545D01*
X1680442Y1239655D01*
X1680661Y1239764D01*
X1680916Y1239909D01*
X1681534Y1240274D01*
X1682262Y1240674D01*
X1682990Y1241184D01*
X1683755Y1241766D01*
X1684519Y1242385D01*
X1684556Y1242421D01*
X1684592Y1242457D01*
X1684701Y1242567D01*
X1684847Y1242676D01*
X1685174Y1243040D01*
X1685611Y1243477D01*
X1686048Y1243986D01*
X1686521Y1244569D01*
X1686922Y1245151D01*
X1687286Y1245770D01*
X1689288D01*
Y1220472D01*
D02*
G37*
G36*
X1665518Y1245624D02*
X1665846D01*
X1666610Y1245588D01*
X1667411Y1245479D01*
X1668285Y1245370D01*
X1669086Y1245188D01*
X1669486Y1245078D01*
X1669814Y1244969D01*
X1669850D01*
X1669886Y1244933D01*
X1670105Y1244823D01*
X1670432Y1244678D01*
X1670833Y1244423D01*
X1671270Y1244095D01*
X1671743Y1243659D01*
X1672180Y1243149D01*
X1672616Y1242567D01*
Y1242530D01*
X1672653Y1242494D01*
X1672798Y1242275D01*
X1672944Y1241911D01*
X1673162Y1241438D01*
X1673344Y1240892D01*
X1673526Y1240237D01*
X1673636Y1239545D01*
X1673672Y1238781D01*
Y1238745D01*
Y1238672D01*
Y1238526D01*
X1673636Y1238344D01*
Y1238090D01*
X1673599Y1237835D01*
X1673454Y1237216D01*
X1673235Y1236488D01*
X1672944Y1235724D01*
X1672507Y1234959D01*
X1672216Y1234595D01*
X1671925Y1234231D01*
X1671888Y1234195D01*
X1671852Y1234158D01*
X1671743Y1234049D01*
X1671597Y1233940D01*
X1671415Y1233794D01*
X1671197Y1233649D01*
X1670906Y1233467D01*
X1670614Y1233248D01*
X1670250Y1233066D01*
X1669850Y1232884D01*
X1669413Y1232666D01*
X1668940Y1232484D01*
X1668394Y1232338D01*
X1667848Y1232156D01*
X1667229Y1232047D01*
X1666574Y1231938D01*
X1666647Y1231901D01*
X1666792Y1231829D01*
X1667011Y1231683D01*
X1667302Y1231537D01*
X1667957Y1231137D01*
X1668285Y1230882D01*
X1668576Y1230664D01*
X1668649Y1230591D01*
X1668831Y1230409D01*
X1669122Y1230118D01*
X1669486Y1229754D01*
X1669886Y1229244D01*
X1670360Y1228698D01*
X1670833Y1228043D01*
X1671342Y1227315D01*
X1675674Y1220472D01*
X1671524D01*
X1668212Y1225714D01*
Y1225750D01*
X1668139Y1225823D01*
X1668066Y1225932D01*
X1667957Y1226078D01*
X1667702Y1226478D01*
X1667375Y1226987D01*
X1666974Y1227534D01*
X1666574Y1228116D01*
X1666174Y1228662D01*
X1665810Y1229171D01*
X1665773Y1229208D01*
X1665664Y1229353D01*
X1665482Y1229572D01*
X1665227Y1229827D01*
X1664681Y1230373D01*
X1664390Y1230628D01*
X1664099Y1230846D01*
X1664062Y1230882D01*
X1663990Y1230919D01*
X1663844Y1230992D01*
X1663626Y1231101D01*
X1663407Y1231210D01*
X1663152Y1231319D01*
X1662570Y1231501D01*
X1662534D01*
X1662461Y1231537D01*
X1662315D01*
X1662133Y1231574D01*
X1661878Y1231610D01*
X1661587D01*
X1661187Y1231647D01*
X1656892D01*
Y1220472D01*
X1653543D01*
Y1245661D01*
X1665227D01*
X1665518Y1245624D01*
D02*
G37*
G36*
X2535194Y1187066D02*
X2515501D01*
X2515538Y1187030D01*
X2515683Y1186848D01*
X2515902Y1186629D01*
X2516156Y1186265D01*
X2516484Y1185865D01*
X2516848Y1185355D01*
X2517248Y1184773D01*
X2517649Y1184118D01*
Y1184081D01*
X2517685Y1184045D01*
X2517831Y1183826D01*
X2518013Y1183463D01*
X2518231Y1183026D01*
X2518486Y1182516D01*
X2518741Y1181970D01*
X2518996Y1181424D01*
X2519214Y1180878D01*
X2516229D01*
Y1180915D01*
X2516156Y1180987D01*
X2516120Y1181133D01*
X2516011Y1181315D01*
X2515902Y1181533D01*
X2515756Y1181788D01*
X2515392Y1182407D01*
X2514992Y1183135D01*
X2514482Y1183863D01*
X2513900Y1184627D01*
X2513281Y1185392D01*
X2513244Y1185428D01*
X2513208Y1185465D01*
X2513099Y1185574D01*
X2512990Y1185719D01*
X2512626Y1186047D01*
X2512189Y1186484D01*
X2511679Y1186920D01*
X2511097Y1187394D01*
X2510514Y1187794D01*
X2509896Y1188158D01*
Y1190160D01*
X2535194D01*
Y1187066D01*
D02*
G37*
G36*
X2527404Y1175637D02*
X2527622Y1175564D01*
X2527914Y1175455D01*
X2528241Y1175345D01*
X2528642Y1175200D01*
X2529078Y1175018D01*
X2529552Y1174799D01*
X2530571Y1174290D01*
X2531590Y1173634D01*
X2532100Y1173234D01*
X2532609Y1172834D01*
X2533046Y1172397D01*
X2533483Y1171887D01*
X2533519Y1171851D01*
X2533592Y1171778D01*
X2533665Y1171596D01*
X2533810Y1171414D01*
X2533992Y1171123D01*
X2534174Y1170832D01*
X2534356Y1170431D01*
X2534538Y1170031D01*
X2534757Y1169558D01*
X2534939Y1169048D01*
X2535121Y1168502D01*
X2535303Y1167920D01*
X2535448Y1167301D01*
X2535521Y1166646D01*
X2535594Y1165954D01*
X2535630Y1165226D01*
Y1164826D01*
X2535594Y1164534D01*
Y1164207D01*
X2535558Y1163806D01*
X2535485Y1163370D01*
X2535412Y1162860D01*
X2535230Y1161804D01*
X2534939Y1160713D01*
X2534538Y1159620D01*
X2534284Y1159111D01*
X2533992Y1158601D01*
X2533956Y1158565D01*
X2533920Y1158492D01*
X2533810Y1158347D01*
X2533665Y1158201D01*
X2533519Y1157983D01*
X2533301Y1157728D01*
X2533046Y1157437D01*
X2532755Y1157145D01*
X2532427Y1156854D01*
X2532100Y1156526D01*
X2531262Y1155871D01*
X2530280Y1155253D01*
X2529188Y1154707D01*
X2529151D01*
X2529042Y1154634D01*
X2528860Y1154597D01*
X2528642Y1154488D01*
X2528350Y1154415D01*
X2527986Y1154306D01*
X2527586Y1154160D01*
X2527149Y1154051D01*
X2526676Y1153942D01*
X2526130Y1153796D01*
X2525002Y1153614D01*
X2523728Y1153469D01*
X2522417Y1153396D01*
X2522381D01*
X2522235D01*
X2522017D01*
X2521762Y1153432D01*
X2521398D01*
X2521034Y1153469D01*
X2520561Y1153505D01*
X2520088Y1153578D01*
X2519032Y1153760D01*
X2517867Y1154015D01*
X2516702Y1154379D01*
X2515574Y1154889D01*
X2515538Y1154925D01*
X2515428Y1154961D01*
X2515283Y1155034D01*
X2515101Y1155180D01*
X2514846Y1155325D01*
X2514555Y1155507D01*
X2513900Y1155980D01*
X2513172Y1156599D01*
X2512444Y1157327D01*
X2511716Y1158165D01*
X2511097Y1159147D01*
X2511060Y1159184D01*
X2511024Y1159293D01*
X2510951Y1159438D01*
X2510842Y1159620D01*
X2510733Y1159912D01*
X2510624Y1160203D01*
X2510478Y1160567D01*
X2510332Y1160967D01*
X2510187Y1161404D01*
X2510041Y1161877D01*
X2509823Y1162897D01*
X2509641Y1164061D01*
X2509568Y1165263D01*
Y1165627D01*
X2509604Y1165881D01*
X2509641Y1166209D01*
X2509677Y1166609D01*
X2509714Y1167010D01*
X2509823Y1167483D01*
X2510041Y1168466D01*
X2510369Y1169558D01*
X2510587Y1170104D01*
X2510842Y1170613D01*
X2511170Y1171123D01*
X2511497Y1171632D01*
X2511534Y1171669D01*
X2511570Y1171742D01*
X2511679Y1171887D01*
X2511861Y1172069D01*
X2512043Y1172251D01*
X2512298Y1172506D01*
X2512589Y1172761D01*
X2512880Y1173052D01*
X2513244Y1173343D01*
X2513681Y1173634D01*
X2514118Y1173962D01*
X2514591Y1174253D01*
X2515137Y1174508D01*
X2515683Y1174799D01*
X2516266Y1175018D01*
X2516921Y1175236D01*
X2517685Y1171960D01*
X2517649D01*
X2517576Y1171924D01*
X2517430Y1171851D01*
X2517248Y1171778D01*
X2517030Y1171705D01*
X2516739Y1171596D01*
X2516156Y1171305D01*
X2515501Y1170941D01*
X2514846Y1170504D01*
X2514227Y1169958D01*
X2513681Y1169376D01*
X2513608Y1169303D01*
X2513463Y1169084D01*
X2513281Y1168720D01*
X2513026Y1168247D01*
X2512808Y1167629D01*
X2512589Y1166937D01*
X2512444Y1166100D01*
X2512407Y1165190D01*
Y1164899D01*
X2512444Y1164716D01*
Y1164462D01*
X2512480Y1164170D01*
X2512589Y1163479D01*
X2512735Y1162715D01*
X2512990Y1161914D01*
X2513354Y1161076D01*
X2513827Y1160312D01*
Y1160276D01*
X2513900Y1160239D01*
X2514082Y1159985D01*
X2514373Y1159657D01*
X2514810Y1159256D01*
X2515356Y1158783D01*
X2515974Y1158347D01*
X2516739Y1157946D01*
X2517576Y1157582D01*
X2517612D01*
X2517685Y1157546D01*
X2517794Y1157509D01*
X2517976Y1157473D01*
X2518195Y1157400D01*
X2518450Y1157327D01*
X2519068Y1157218D01*
X2519796Y1157072D01*
X2520597Y1156927D01*
X2521471Y1156854D01*
X2522417Y1156818D01*
X2522454D01*
X2522563D01*
X2522745D01*
X2522963D01*
X2523218Y1156854D01*
X2523546D01*
X2523910Y1156890D01*
X2524310Y1156927D01*
X2525184Y1157036D01*
X2526130Y1157218D01*
X2527076Y1157437D01*
X2528023Y1157728D01*
X2528059D01*
X2528132Y1157764D01*
X2528241Y1157837D01*
X2528423Y1157910D01*
X2528860Y1158128D01*
X2529370Y1158456D01*
X2529952Y1158856D01*
X2530571Y1159366D01*
X2531117Y1159948D01*
X2531626Y1160640D01*
Y1160676D01*
X2531663Y1160749D01*
X2531736Y1160858D01*
X2531808Y1161004D01*
X2531881Y1161186D01*
X2531990Y1161404D01*
X2532209Y1161914D01*
X2532427Y1162569D01*
X2532609Y1163297D01*
X2532755Y1164098D01*
X2532791Y1164935D01*
Y1165190D01*
X2532755Y1165408D01*
Y1165663D01*
X2532718Y1165918D01*
X2532573Y1166573D01*
X2532391Y1167337D01*
X2532100Y1168102D01*
X2531699Y1168902D01*
X2531481Y1169303D01*
X2531190Y1169667D01*
X2531153Y1169703D01*
X2531117Y1169740D01*
X2531008Y1169849D01*
X2530898Y1169995D01*
X2530716Y1170140D01*
X2530498Y1170322D01*
X2530280Y1170541D01*
X2529988Y1170723D01*
X2529661Y1170941D01*
X2529297Y1171196D01*
X2528933Y1171414D01*
X2528496Y1171632D01*
X2528023Y1171814D01*
X2527513Y1171996D01*
X2526967Y1172178D01*
X2526385Y1172324D01*
X2527222Y1175673D01*
X2527258D01*
X2527404Y1175637D01*
D02*
G37*
G36*
X2535194Y1145133D02*
X2510005D01*
Y1148482D01*
X2535194D01*
Y1145133D01*
D02*
G37*
G36*
X2335909Y911525D02*
X2336382Y911452D01*
X2336965Y911343D01*
X2337620Y911161D01*
X2338275Y910942D01*
X2338930Y910651D01*
X2338967D01*
X2339003Y910615D01*
X2339222Y910505D01*
X2339549Y910287D01*
X2339913Y910032D01*
X2340350Y909668D01*
X2340787Y909268D01*
X2341224Y908795D01*
X2341588Y908249D01*
X2341624Y908176D01*
X2341733Y907994D01*
X2341879Y907666D01*
X2342061Y907266D01*
X2342243Y906793D01*
X2342388Y906247D01*
X2342498Y905628D01*
X2342534Y905009D01*
Y904936D01*
Y904718D01*
X2342498Y904427D01*
X2342425Y904026D01*
X2342316Y903553D01*
X2342134Y903043D01*
X2341915Y902534D01*
X2341624Y902024D01*
X2341588Y901952D01*
X2341478Y901806D01*
X2341260Y901551D01*
X2340969Y901260D01*
X2340605Y900932D01*
X2340168Y900568D01*
X2339658Y900241D01*
X2339040Y899913D01*
X2339076D01*
X2339149Y899877D01*
X2339258Y899840D01*
X2339404Y899804D01*
X2339804Y899658D01*
X2340314Y899440D01*
X2340896Y899149D01*
X2341478Y898785D01*
X2342024Y898312D01*
X2342534Y897765D01*
X2342570Y897693D01*
X2342716Y897474D01*
X2342934Y897110D01*
X2343153Y896637D01*
X2343371Y896055D01*
X2343590Y895363D01*
X2343735Y894562D01*
X2343772Y893689D01*
Y893652D01*
Y893543D01*
Y893361D01*
X2343735Y893143D01*
X2343699Y892851D01*
X2343626Y892524D01*
X2343553Y892160D01*
X2343480Y891760D01*
X2343189Y890886D01*
X2342971Y890413D01*
X2342752Y889976D01*
X2342461Y889503D01*
X2342134Y889029D01*
X2341770Y888556D01*
X2341333Y888120D01*
X2341296Y888083D01*
X2341224Y888010D01*
X2341078Y887901D01*
X2340896Y887755D01*
X2340678Y887573D01*
X2340386Y887391D01*
X2340059Y887173D01*
X2339658Y886991D01*
X2339258Y886773D01*
X2338785Y886554D01*
X2338312Y886372D01*
X2337766Y886190D01*
X2337183Y886045D01*
X2336564Y885936D01*
X2335946Y885863D01*
X2335254Y885826D01*
X2334926D01*
X2334708Y885863D01*
X2334417Y885899D01*
X2334089Y885936D01*
X2333725Y886008D01*
X2333325Y886081D01*
X2332451Y886299D01*
X2331541Y886663D01*
X2331068Y886882D01*
X2330631Y887137D01*
X2330194Y887464D01*
X2329758Y887792D01*
X2329721Y887828D01*
X2329648Y887901D01*
X2329539Y888010D01*
X2329430Y888156D01*
X2329248Y888338D01*
X2329066Y888593D01*
X2328848Y888847D01*
X2328629Y889175D01*
X2328411Y889539D01*
X2328192Y889903D01*
X2327792Y890777D01*
X2327464Y891796D01*
X2327355Y892342D01*
X2327282Y892924D01*
X2330376Y893325D01*
Y893288D01*
X2330413Y893216D01*
X2330449Y893070D01*
X2330486Y892888D01*
X2330522Y892669D01*
X2330595Y892415D01*
X2330777Y891869D01*
X2331032Y891213D01*
X2331359Y890595D01*
X2331723Y890012D01*
X2332160Y889503D01*
X2332233Y889466D01*
X2332378Y889321D01*
X2332670Y889139D01*
X2333034Y888957D01*
X2333470Y888738D01*
X2334016Y888556D01*
X2334635Y888411D01*
X2335290Y888374D01*
X2335509D01*
X2335654Y888411D01*
X2336055Y888447D01*
X2336564Y888556D01*
X2337147Y888738D01*
X2337766Y888993D01*
X2338384Y889357D01*
X2338967Y889867D01*
X2339040Y889939D01*
X2339222Y890158D01*
X2339440Y890486D01*
X2339731Y890922D01*
X2340022Y891468D01*
X2340241Y892087D01*
X2340423Y892815D01*
X2340496Y893616D01*
Y893652D01*
Y893725D01*
Y893834D01*
X2340459Y893980D01*
X2340423Y894380D01*
X2340314Y894854D01*
X2340168Y895436D01*
X2339913Y896018D01*
X2339549Y896601D01*
X2339076Y897147D01*
X2339003Y897220D01*
X2338821Y897365D01*
X2338530Y897583D01*
X2338130Y897838D01*
X2337620Y898093D01*
X2337001Y898312D01*
X2336310Y898457D01*
X2335545Y898530D01*
X2335218D01*
X2334963Y898494D01*
X2334635Y898457D01*
X2334271Y898384D01*
X2333834Y898312D01*
X2333361Y898202D01*
X2333725Y900932D01*
X2333907D01*
X2334053Y900896D01*
X2334526D01*
X2334926Y900969D01*
X2335400Y901042D01*
X2335946Y901151D01*
X2336564Y901333D01*
X2337147Y901587D01*
X2337766Y901915D01*
X2337802D01*
X2337838Y901952D01*
X2338020Y902097D01*
X2338275Y902352D01*
X2338566Y902679D01*
X2338858Y903153D01*
X2339112Y903699D01*
X2339294Y904317D01*
X2339367Y904682D01*
Y905082D01*
Y905118D01*
Y905155D01*
Y905373D01*
X2339294Y905664D01*
X2339222Y906065D01*
X2339076Y906501D01*
X2338894Y906975D01*
X2338603Y907448D01*
X2338202Y907885D01*
X2338166Y907921D01*
X2337984Y908067D01*
X2337729Y908249D01*
X2337402Y908467D01*
X2336965Y908649D01*
X2336455Y908831D01*
X2335873Y908977D01*
X2335218Y909013D01*
X2334926D01*
X2334599Y908940D01*
X2334162Y908867D01*
X2333689Y908722D01*
X2333216Y908540D01*
X2332706Y908249D01*
X2332233Y907885D01*
X2332196Y907848D01*
X2332051Y907666D01*
X2331832Y907412D01*
X2331578Y907048D01*
X2331323Y906574D01*
X2331068Y905992D01*
X2330850Y905300D01*
X2330704Y904500D01*
X2327610Y905045D01*
Y905082D01*
X2327646Y905191D01*
X2327683Y905337D01*
X2327719Y905555D01*
X2327792Y905810D01*
X2327901Y906101D01*
X2328120Y906793D01*
X2328484Y907593D01*
X2328920Y908394D01*
X2329466Y909159D01*
X2330158Y909850D01*
X2330194Y909887D01*
X2330267Y909923D01*
X2330376Y909996D01*
X2330522Y910105D01*
X2330704Y910251D01*
X2330959Y910396D01*
X2331214Y910542D01*
X2331541Y910724D01*
X2332269Y911015D01*
X2333106Y911306D01*
X2334089Y911488D01*
X2334599Y911561D01*
X2335509D01*
X2335909Y911525D01*
D02*
G37*
G36*
X2315125Y911415D02*
X2315452D01*
X2316217Y911379D01*
X2317018Y911270D01*
X2317891Y911161D01*
X2318692Y910979D01*
X2319092Y910870D01*
X2319420Y910760D01*
X2319456D01*
X2319493Y910724D01*
X2319711Y910615D01*
X2320039Y910469D01*
X2320439Y910214D01*
X2320876Y909887D01*
X2321349Y909450D01*
X2321786Y908940D01*
X2322223Y908358D01*
Y908322D01*
X2322259Y908285D01*
X2322405Y908067D01*
X2322550Y907703D01*
X2322769Y907230D01*
X2322951Y906683D01*
X2323133Y906028D01*
X2323242Y905337D01*
X2323278Y904572D01*
Y904536D01*
Y904463D01*
Y904317D01*
X2323242Y904135D01*
Y903881D01*
X2323206Y903626D01*
X2323060Y903007D01*
X2322842Y902279D01*
X2322550Y901515D01*
X2322114Y900750D01*
X2321822Y900386D01*
X2321531Y900022D01*
X2321495Y899986D01*
X2321458Y899949D01*
X2321349Y899840D01*
X2321204Y899731D01*
X2321022Y899586D01*
X2320803Y899440D01*
X2320512Y899258D01*
X2320221Y899039D01*
X2319857Y898857D01*
X2319456Y898676D01*
X2319020Y898457D01*
X2318546Y898275D01*
X2318000Y898130D01*
X2317454Y897947D01*
X2316836Y897838D01*
X2316180Y897729D01*
X2316253Y897693D01*
X2316399Y897620D01*
X2316617Y897474D01*
X2316908Y897329D01*
X2317564Y896928D01*
X2317891Y896673D01*
X2318182Y896455D01*
X2318255Y896382D01*
X2318437Y896200D01*
X2318728Y895909D01*
X2319092Y895545D01*
X2319493Y895035D01*
X2319966Y894490D01*
X2320439Y893834D01*
X2320949Y893106D01*
X2325280Y886263D01*
X2321131D01*
X2317818Y891505D01*
Y891541D01*
X2317746Y891614D01*
X2317673Y891723D01*
X2317564Y891869D01*
X2317309Y892269D01*
X2316981Y892779D01*
X2316581Y893325D01*
X2316180Y893907D01*
X2315780Y894453D01*
X2315416Y894963D01*
X2315380Y894999D01*
X2315270Y895145D01*
X2315088Y895363D01*
X2314834Y895618D01*
X2314288Y896164D01*
X2313996Y896419D01*
X2313705Y896637D01*
X2313669Y896673D01*
X2313596Y896710D01*
X2313450Y896783D01*
X2313232Y896892D01*
X2313014Y897001D01*
X2312759Y897110D01*
X2312176Y897292D01*
X2312140D01*
X2312067Y897329D01*
X2311922D01*
X2311740Y897365D01*
X2311485Y897402D01*
X2311194D01*
X2310793Y897438D01*
X2306498D01*
Y886263D01*
X2303149D01*
Y911452D01*
X2314834D01*
X2315125Y911415D01*
D02*
G37*
G36*
X2616306Y913384D02*
X2616633D01*
X2617398Y913348D01*
X2618199Y913238D01*
X2619072Y913129D01*
X2619873Y912947D01*
X2620273Y912838D01*
X2620601Y912729D01*
X2620637D01*
X2620674Y912692D01*
X2620892Y912583D01*
X2621220Y912438D01*
X2621620Y912183D01*
X2622057Y911855D01*
X2622530Y911418D01*
X2622967Y910909D01*
X2623404Y910326D01*
Y910290D01*
X2623440Y910254D01*
X2623586Y910035D01*
X2623731Y909671D01*
X2623950Y909198D01*
X2624132Y908652D01*
X2624314Y907997D01*
X2624423Y907305D01*
X2624459Y906541D01*
Y906504D01*
Y906432D01*
Y906286D01*
X2624423Y906104D01*
Y905849D01*
X2624387Y905594D01*
X2624241Y904976D01*
X2624023Y904248D01*
X2623731Y903483D01*
X2623295Y902719D01*
X2623003Y902355D01*
X2622712Y901991D01*
X2622676Y901954D01*
X2622639Y901918D01*
X2622530Y901809D01*
X2622385Y901700D01*
X2622203Y901554D01*
X2621984Y901408D01*
X2621693Y901226D01*
X2621402Y901008D01*
X2621038Y900826D01*
X2620637Y900644D01*
X2620201Y900426D01*
X2619727Y900244D01*
X2619181Y900098D01*
X2618635Y899916D01*
X2618017Y899807D01*
X2617361Y899698D01*
X2617434Y899661D01*
X2617580Y899588D01*
X2617798Y899443D01*
X2618089Y899297D01*
X2618745Y898897D01*
X2619072Y898642D01*
X2619363Y898424D01*
X2619436Y898351D01*
X2619618Y898169D01*
X2619909Y897878D01*
X2620273Y897514D01*
X2620674Y897004D01*
X2621147Y896458D01*
X2621620Y895803D01*
X2622130Y895075D01*
X2626461Y888232D01*
X2622312D01*
X2618999Y893473D01*
Y893510D01*
X2618927Y893582D01*
X2618854Y893692D01*
X2618745Y893837D01*
X2618490Y894238D01*
X2618162Y894747D01*
X2617762Y895293D01*
X2617361Y895876D01*
X2616961Y896422D01*
X2616597Y896931D01*
X2616561Y896968D01*
X2616451Y897113D01*
X2616269Y897332D01*
X2616015Y897586D01*
X2615469Y898132D01*
X2615177Y898387D01*
X2614886Y898606D01*
X2614850Y898642D01*
X2614777Y898678D01*
X2614631Y898751D01*
X2614413Y898860D01*
X2614195Y898970D01*
X2613940Y899079D01*
X2613357Y899261D01*
X2613321D01*
X2613248Y899297D01*
X2613103D01*
X2612921Y899334D01*
X2612666Y899370D01*
X2612375D01*
X2611974Y899406D01*
X2607679D01*
Y888232D01*
X2604330D01*
Y913420D01*
X2616015D01*
X2616306Y913384D01*
D02*
G37*
G36*
X2637163Y913493D02*
X2637454Y913457D01*
X2637782Y913420D01*
X2638146Y913384D01*
X2638510Y913275D01*
X2639383Y913056D01*
X2640257Y912729D01*
X2640694Y912510D01*
X2641131Y912256D01*
X2641531Y911928D01*
X2641931Y911600D01*
X2641968Y911564D01*
X2642004Y911528D01*
X2642113Y911418D01*
X2642259Y911273D01*
X2642405Y911054D01*
X2642587Y910836D01*
X2642951Y910290D01*
X2643315Y909598D01*
X2643642Y908798D01*
X2643897Y907888D01*
X2643933Y907414D01*
X2643970Y906905D01*
Y906868D01*
Y906832D01*
Y906614D01*
X2643933Y906286D01*
X2643861Y905886D01*
X2643751Y905376D01*
X2643569Y904866D01*
X2643351Y904357D01*
X2643023Y903847D01*
X2642987Y903774D01*
X2642841Y903629D01*
X2642623Y903410D01*
X2642332Y903119D01*
X2641931Y902792D01*
X2641458Y902464D01*
X2640912Y902136D01*
X2640257Y901845D01*
X2640293D01*
X2640366Y901809D01*
X2640475Y901772D01*
X2640621Y901700D01*
X2641058Y901518D01*
X2641567Y901263D01*
X2642113Y900899D01*
X2642696Y900498D01*
X2643242Y899989D01*
X2643751Y899406D01*
Y899370D01*
X2643788Y899334D01*
X2643933Y899115D01*
X2644152Y898751D01*
X2644370Y898278D01*
X2644589Y897696D01*
X2644807Y897004D01*
X2644953Y896240D01*
X2644989Y895402D01*
Y895366D01*
Y895257D01*
Y895075D01*
X2644953Y894856D01*
X2644916Y894602D01*
X2644880Y894274D01*
X2644807Y893910D01*
X2644698Y893510D01*
X2644443Y892672D01*
X2644261Y892199D01*
X2644006Y891762D01*
X2643751Y891289D01*
X2643460Y890852D01*
X2643096Y890416D01*
X2642696Y889979D01*
X2642659Y889942D01*
X2642587Y889870D01*
X2642477Y889760D01*
X2642295Y889651D01*
X2642041Y889469D01*
X2641786Y889287D01*
X2641458Y889105D01*
X2641094Y888887D01*
X2640694Y888668D01*
X2640221Y888486D01*
X2639711Y888304D01*
X2639201Y888122D01*
X2638619Y888013D01*
X2638000Y887904D01*
X2637381Y887831D01*
X2636690Y887795D01*
X2636326D01*
X2636071Y887831D01*
X2635743Y887868D01*
X2635379Y887904D01*
X2634979Y887977D01*
X2634542Y888086D01*
X2633559Y888341D01*
X2633050Y888523D01*
X2632577Y888705D01*
X2632067Y888960D01*
X2631557Y889251D01*
X2631084Y889578D01*
X2630647Y889979D01*
X2630611Y890015D01*
X2630538Y890088D01*
X2630429Y890197D01*
X2630283Y890379D01*
X2630138Y890598D01*
X2629919Y890852D01*
X2629737Y891144D01*
X2629519Y891508D01*
X2629301Y891872D01*
X2629119Y892308D01*
X2628755Y893218D01*
X2628609Y893764D01*
X2628500Y894310D01*
X2628427Y894893D01*
X2628391Y895475D01*
Y895512D01*
Y895584D01*
Y895730D01*
X2628427Y895876D01*
Y896094D01*
X2628463Y896349D01*
X2628536Y896931D01*
X2628682Y897586D01*
X2628900Y898242D01*
X2629228Y898933D01*
X2629628Y899588D01*
Y899625D01*
X2629701Y899661D01*
X2629847Y899843D01*
X2630138Y900134D01*
X2630538Y900498D01*
X2631048Y900862D01*
X2631667Y901263D01*
X2632358Y901590D01*
X2633195Y901845D01*
X2633159D01*
X2633123Y901882D01*
X2633013Y901918D01*
X2632868Y901991D01*
X2632540Y902136D01*
X2632103Y902355D01*
X2631630Y902646D01*
X2631157Y903010D01*
X2630720Y903410D01*
X2630320Y903847D01*
X2630283Y903920D01*
X2630174Y904066D01*
X2630029Y904357D01*
X2629883Y904721D01*
X2629701Y905194D01*
X2629555Y905740D01*
X2629446Y906359D01*
X2629410Y907014D01*
Y907050D01*
Y907123D01*
Y907269D01*
X2629446Y907487D01*
X2629483Y907706D01*
X2629519Y907997D01*
X2629665Y908616D01*
X2629883Y909344D01*
X2630247Y910108D01*
X2630465Y910508D01*
X2630720Y910909D01*
X2631048Y911273D01*
X2631375Y911637D01*
X2631412Y911673D01*
X2631485Y911710D01*
X2631594Y911819D01*
X2631739Y911928D01*
X2631921Y912074D01*
X2632176Y912219D01*
X2632467Y912401D01*
X2632759Y912583D01*
X2633123Y912765D01*
X2633523Y912947D01*
X2633960Y913093D01*
X2634433Y913238D01*
X2635452Y913457D01*
X2636035Y913493D01*
X2636617Y913530D01*
X2636945D01*
X2637163Y913493D01*
D02*
G37*
G36*
X2351412Y1451899D02*
X2351376Y1451607D01*
Y1451280D01*
X2351340Y1450515D01*
X2351231Y1449715D01*
X2351121Y1448841D01*
X2350939Y1448040D01*
X2350830Y1447640D01*
X2350721Y1447312D01*
Y1447276D01*
X2350684Y1447239D01*
X2350575Y1447021D01*
X2350430Y1446693D01*
X2350175Y1446293D01*
X2349847Y1445856D01*
X2349410Y1445383D01*
X2348901Y1444946D01*
X2348318Y1444509D01*
X2348282D01*
X2348246Y1444473D01*
X2348027Y1444327D01*
X2347663Y1444182D01*
X2347190Y1443963D01*
X2346644Y1443781D01*
X2345989Y1443599D01*
X2345297Y1443490D01*
X2344533Y1443454D01*
X2344497D01*
X2344424D01*
X2344278D01*
X2344096Y1443490D01*
X2343841D01*
X2343586Y1443526D01*
X2342968Y1443672D01*
X2342240Y1443890D01*
X2341475Y1444182D01*
X2340711Y1444619D01*
X2340347Y1444910D01*
X2339983Y1445201D01*
X2339947Y1445237D01*
X2339910Y1445274D01*
X2339801Y1445383D01*
X2339692Y1445528D01*
X2339546Y1445710D01*
X2339401Y1445929D01*
X2339218Y1446220D01*
X2339000Y1446511D01*
X2338818Y1446875D01*
X2338636Y1447276D01*
X2338418Y1447713D01*
X2338236Y1448186D01*
X2338090Y1448732D01*
X2337908Y1449278D01*
X2337799Y1449897D01*
X2337690Y1450552D01*
X2337653Y1450479D01*
X2337581Y1450333D01*
X2337435Y1450115D01*
X2337289Y1449824D01*
X2336889Y1449168D01*
X2336634Y1448841D01*
X2336416Y1448550D01*
X2336343Y1448477D01*
X2336161Y1448295D01*
X2335870Y1448004D01*
X2335506Y1447640D01*
X2334996Y1447239D01*
X2334450Y1446766D01*
X2333795Y1446293D01*
X2333067Y1445783D01*
X2326224Y1441452D01*
Y1445601D01*
X2331465Y1448914D01*
X2331502D01*
X2331575Y1448986D01*
X2331684Y1449059D01*
X2331829Y1449168D01*
X2332230Y1449423D01*
X2332739Y1449751D01*
X2333285Y1450151D01*
X2333868Y1450552D01*
X2334414Y1450952D01*
X2334923Y1451316D01*
X2334960Y1451352D01*
X2335105Y1451462D01*
X2335324Y1451644D01*
X2335579Y1451899D01*
X2336124Y1452445D01*
X2336379Y1452736D01*
X2336598Y1453027D01*
X2336634Y1453063D01*
X2336671Y1453136D01*
X2336743Y1453282D01*
X2336852Y1453500D01*
X2336962Y1453718D01*
X2337071Y1453973D01*
X2337253Y1454556D01*
Y1454592D01*
X2337289Y1454665D01*
Y1454811D01*
X2337326Y1454993D01*
X2337362Y1455247D01*
Y1455539D01*
X2337398Y1455939D01*
Y1460234D01*
X2326224D01*
Y1463583D01*
X2351412D01*
Y1451899D01*
D02*
G37*
G36*
X2345188Y1437084D02*
X2345261Y1437011D01*
X2345297Y1436865D01*
X2345407Y1436683D01*
X2345516Y1436465D01*
X2345661Y1436210D01*
X2346025Y1435591D01*
X2346426Y1434863D01*
X2346935Y1434135D01*
X2347518Y1433371D01*
X2348137Y1432607D01*
X2348173Y1432570D01*
X2348209Y1432534D01*
X2348318Y1432425D01*
X2348428Y1432279D01*
X2348792Y1431951D01*
X2349229Y1431514D01*
X2349738Y1431078D01*
X2350320Y1430604D01*
X2350903Y1430204D01*
X2351522Y1429840D01*
Y1427838D01*
X2326224D01*
Y1430932D01*
X2345916D01*
X2345880Y1430968D01*
X2345734Y1431150D01*
X2345516Y1431369D01*
X2345261Y1431733D01*
X2344933Y1432133D01*
X2344569Y1432643D01*
X2344169Y1433225D01*
X2343769Y1433880D01*
Y1433917D01*
X2343732Y1433953D01*
X2343586Y1434172D01*
X2343405Y1434536D01*
X2343186Y1434973D01*
X2342931Y1435482D01*
X2342677Y1436028D01*
X2342422Y1436574D01*
X2342203Y1437120D01*
X2345188D01*
Y1437084D01*
D02*
G37*
G36*
X2339765Y1419867D02*
X2340201D01*
X2340675Y1419830D01*
X2341220Y1419794D01*
X2342349Y1419685D01*
X2343550Y1419503D01*
X2344751Y1419284D01*
X2345297Y1419139D01*
X2345843Y1418993D01*
X2345880D01*
X2345952Y1418957D01*
X2346098Y1418884D01*
X2346280Y1418811D01*
X2346535Y1418738D01*
X2346790Y1418592D01*
X2347409Y1418301D01*
X2348064Y1417937D01*
X2348755Y1417464D01*
X2349447Y1416918D01*
X2350029Y1416263D01*
Y1416226D01*
X2350102Y1416190D01*
X2350175Y1416081D01*
X2350248Y1415935D01*
X2350393Y1415753D01*
X2350503Y1415535D01*
X2350794Y1414989D01*
X2351048Y1414334D01*
X2351303Y1413569D01*
X2351449Y1412659D01*
X2351522Y1411677D01*
Y1411349D01*
X2351485Y1410948D01*
X2351412Y1410475D01*
X2351303Y1409929D01*
X2351158Y1409347D01*
X2350976Y1408728D01*
X2350684Y1408146D01*
Y1408109D01*
X2350648Y1408073D01*
X2350539Y1407891D01*
X2350357Y1407600D01*
X2350102Y1407236D01*
X2349738Y1406835D01*
X2349338Y1406399D01*
X2348865Y1405998D01*
X2348318Y1405598D01*
X2348246Y1405561D01*
X2348064Y1405416D01*
X2347736Y1405270D01*
X2347263Y1405015D01*
X2346717Y1404797D01*
X2346098Y1404506D01*
X2345370Y1404251D01*
X2344569Y1404033D01*
X2344533D01*
X2344460Y1403996D01*
X2344351Y1403960D01*
X2344169Y1403923D01*
X2343950Y1403887D01*
X2343696Y1403851D01*
X2343368Y1403778D01*
X2343004Y1403741D01*
X2342604Y1403668D01*
X2342167Y1403632D01*
X2341657Y1403596D01*
X2341148Y1403523D01*
X2340565Y1403486D01*
X2339983D01*
X2339328Y1403450D01*
X2338636D01*
X2338600D01*
X2338454D01*
X2338199D01*
X2337908D01*
X2337508Y1403486D01*
X2337071D01*
X2336598Y1403523D01*
X2336088Y1403559D01*
X2334923Y1403668D01*
X2333722Y1403851D01*
X2332557Y1404069D01*
X2332011Y1404215D01*
X2331465Y1404397D01*
X2331429D01*
X2331356Y1404433D01*
X2331211Y1404506D01*
X2331028Y1404579D01*
X2330774Y1404651D01*
X2330519Y1404797D01*
X2329900Y1405088D01*
X2329245Y1405452D01*
X2328517Y1405925D01*
X2327862Y1406471D01*
X2327243Y1407127D01*
Y1407163D01*
X2327170Y1407199D01*
X2327097Y1407309D01*
X2327024Y1407454D01*
X2326915Y1407636D01*
X2326770Y1407818D01*
X2326515Y1408364D01*
X2326260Y1409019D01*
X2326005Y1409784D01*
X2325860Y1410694D01*
X2325787Y1411677D01*
Y1412041D01*
X2325823Y1412295D01*
X2325860Y1412586D01*
X2325932Y1412950D01*
X2326005Y1413351D01*
X2326115Y1413788D01*
X2326260Y1414225D01*
X2326406Y1414698D01*
X2326624Y1415171D01*
X2326879Y1415644D01*
X2327170Y1416117D01*
X2327534Y1416591D01*
X2327934Y1417027D01*
X2328371Y1417428D01*
X2328408Y1417464D01*
X2328517Y1417537D01*
X2328699Y1417646D01*
X2328990Y1417828D01*
X2329318Y1418010D01*
X2329755Y1418192D01*
X2330264Y1418447D01*
X2330847Y1418665D01*
X2331502Y1418884D01*
X2332266Y1419102D01*
X2333103Y1419321D01*
X2334050Y1419503D01*
X2335069Y1419685D01*
X2336161Y1419794D01*
X2337362Y1419867D01*
X2338636Y1419903D01*
X2338673D01*
X2338818D01*
X2339073D01*
X2339364D01*
X2339765Y1419867D01*
D02*
G37*
G36*
X1002549Y2067385D02*
X1002913D01*
X1003277Y2067349D01*
X1003750Y2067312D01*
X1004223Y2067240D01*
X1005279Y2067058D01*
X1006444Y2066803D01*
X1007609Y2066439D01*
X1008737Y2065929D01*
X1008773Y2065893D01*
X1008883Y2065856D01*
X1009028Y2065784D01*
X1009210Y2065638D01*
X1009465Y2065492D01*
X1009756Y2065310D01*
X1010411Y2064837D01*
X1011139Y2064218D01*
X1011867Y2063490D01*
X1012595Y2062653D01*
X1013214Y2061670D01*
X1013250Y2061634D01*
X1013287Y2061525D01*
X1013360Y2061379D01*
X1013469Y2061197D01*
X1013578Y2060906D01*
X1013687Y2060615D01*
X1013833Y2060251D01*
X1013979Y2059850D01*
X1014124Y2059414D01*
X1014270Y2058940D01*
X1014488Y2057921D01*
X1014670Y2056756D01*
X1014743Y2055555D01*
Y2055191D01*
X1014707Y2054936D01*
X1014670Y2054609D01*
X1014634Y2054208D01*
X1014597Y2053808D01*
X1014488Y2053335D01*
X1014270Y2052352D01*
X1013942Y2051260D01*
X1013724Y2050714D01*
X1013469Y2050204D01*
X1013141Y2049695D01*
X1012814Y2049185D01*
X1012777Y2049149D01*
X1012741Y2049076D01*
X1012632Y2048930D01*
X1012450Y2048748D01*
X1012268Y2048566D01*
X1012013Y2048312D01*
X1011722Y2048057D01*
X1011431Y2047766D01*
X1011067Y2047474D01*
X1010630Y2047183D01*
X1010193Y2046856D01*
X1009720Y2046564D01*
X1009174Y2046310D01*
X1008628Y2046018D01*
X1008045Y2045800D01*
X1007390Y2045582D01*
X1006626Y2048858D01*
X1006662D01*
X1006735Y2048894D01*
X1006880Y2048967D01*
X1007062Y2049040D01*
X1007281Y2049112D01*
X1007572Y2049222D01*
X1008154Y2049513D01*
X1008810Y2049877D01*
X1009465Y2050314D01*
X1010084Y2050860D01*
X1010630Y2051442D01*
X1010702Y2051515D01*
X1010848Y2051733D01*
X1011030Y2052097D01*
X1011285Y2052570D01*
X1011503Y2053189D01*
X1011722Y2053881D01*
X1011867Y2054718D01*
X1011904Y2055628D01*
Y2055919D01*
X1011867Y2056101D01*
Y2056356D01*
X1011831Y2056647D01*
X1011722Y2057339D01*
X1011576Y2058103D01*
X1011321Y2058904D01*
X1010957Y2059741D01*
X1010484Y2060506D01*
Y2060542D01*
X1010411Y2060578D01*
X1010229Y2060833D01*
X1009938Y2061161D01*
X1009501Y2061561D01*
X1008955Y2062034D01*
X1008337Y2062471D01*
X1007572Y2062872D01*
X1006735Y2063236D01*
X1006698D01*
X1006626Y2063272D01*
X1006516Y2063308D01*
X1006335Y2063345D01*
X1006116Y2063418D01*
X1005861Y2063490D01*
X1005242Y2063600D01*
X1004514Y2063745D01*
X1003714Y2063891D01*
X1002840Y2063964D01*
X1001894Y2064000D01*
X1001857D01*
X1001748D01*
X1001566D01*
X1001348D01*
X1001093Y2063964D01*
X1000765D01*
X1000401Y2063927D01*
X1000001Y2063891D01*
X999127Y2063782D01*
X998181Y2063600D01*
X997235Y2063381D01*
X996288Y2063090D01*
X996252D01*
X996179Y2063054D01*
X996070Y2062981D01*
X995888Y2062908D01*
X995451Y2062690D01*
X994941Y2062362D01*
X994359Y2061962D01*
X993740Y2061452D01*
X993194Y2060870D01*
X992684Y2060178D01*
Y2060142D01*
X992648Y2060069D01*
X992575Y2059960D01*
X992503Y2059814D01*
X992430Y2059632D01*
X992321Y2059414D01*
X992102Y2058904D01*
X991884Y2058249D01*
X991702Y2057521D01*
X991556Y2056720D01*
X991520Y2055883D01*
Y2055628D01*
X991556Y2055410D01*
Y2055155D01*
X991592Y2054900D01*
X991738Y2054245D01*
X991920Y2053480D01*
X992211Y2052716D01*
X992612Y2051915D01*
X992830Y2051515D01*
X993121Y2051151D01*
X993158Y2051114D01*
X993194Y2051078D01*
X993303Y2050969D01*
X993413Y2050823D01*
X993595Y2050678D01*
X993813Y2050496D01*
X994031Y2050277D01*
X994322Y2050095D01*
X994650Y2049877D01*
X995014Y2049622D01*
X995378Y2049404D01*
X995815Y2049185D01*
X996288Y2049003D01*
X996798Y2048821D01*
X997344Y2048639D01*
X997926Y2048494D01*
X997089Y2045145D01*
X997053D01*
X996907Y2045181D01*
X996688Y2045254D01*
X996397Y2045363D01*
X996070Y2045472D01*
X995669Y2045618D01*
X995232Y2045800D01*
X994759Y2046018D01*
X993740Y2046528D01*
X992721Y2047183D01*
X992211Y2047584D01*
X991702Y2047984D01*
X991265Y2048421D01*
X990828Y2048930D01*
X990792Y2048967D01*
X990719Y2049040D01*
X990646Y2049222D01*
X990500Y2049404D01*
X990318Y2049695D01*
X990136Y2049986D01*
X989955Y2050386D01*
X989773Y2050787D01*
X989554Y2051260D01*
X989372Y2051770D01*
X989190Y2052316D01*
X989008Y2052898D01*
X988862Y2053517D01*
X988790Y2054172D01*
X988717Y2054864D01*
X988681Y2055592D01*
Y2055992D01*
X988717Y2056283D01*
Y2056611D01*
X988753Y2057011D01*
X988826Y2057448D01*
X988899Y2057958D01*
X989081Y2059013D01*
X989372Y2060105D01*
X989773Y2061197D01*
X990027Y2061707D01*
X990318Y2062216D01*
X990355Y2062253D01*
X990391Y2062326D01*
X990500Y2062471D01*
X990646Y2062617D01*
X990792Y2062835D01*
X991010Y2063090D01*
X991265Y2063381D01*
X991556Y2063672D01*
X991884Y2063964D01*
X992211Y2064291D01*
X993048Y2064946D01*
X994031Y2065565D01*
X995123Y2066111D01*
X995160D01*
X995269Y2066184D01*
X995451Y2066220D01*
X995669Y2066330D01*
X995961Y2066402D01*
X996324Y2066512D01*
X996725Y2066657D01*
X997162Y2066766D01*
X997635Y2066876D01*
X998181Y2067021D01*
X999309Y2067203D01*
X1000583Y2067349D01*
X1001894Y2067422D01*
X1001930D01*
X1002076D01*
X1002294D01*
X1002549Y2067385D01*
D02*
G37*
G36*
X1008082Y2039903D02*
X1008154Y2039830D01*
X1008191Y2039685D01*
X1008300Y2039503D01*
X1008409Y2039284D01*
X1008555Y2039030D01*
X1008919Y2038411D01*
X1009319Y2037683D01*
X1009829Y2036955D01*
X1010411Y2036190D01*
X1011030Y2035426D01*
X1011067Y2035390D01*
X1011103Y2035353D01*
X1011212Y2035244D01*
X1011321Y2035098D01*
X1011685Y2034771D01*
X1012122Y2034334D01*
X1012632Y2033897D01*
X1013214Y2033424D01*
X1013797Y2033024D01*
X1014415Y2032660D01*
Y2030658D01*
X989117D01*
Y2033752D01*
X1008810D01*
X1008773Y2033788D01*
X1008628Y2033970D01*
X1008409Y2034188D01*
X1008154Y2034552D01*
X1007827Y2034953D01*
X1007463Y2035462D01*
X1007062Y2036045D01*
X1006662Y2036700D01*
Y2036736D01*
X1006626Y2036773D01*
X1006480Y2036991D01*
X1006298Y2037355D01*
X1006080Y2037792D01*
X1005825Y2038302D01*
X1005570Y2038848D01*
X1005315Y2039394D01*
X1005097Y2039940D01*
X1008082D01*
Y2039903D01*
D02*
G37*
G36*
X1925197Y1956730D02*
X1925161D01*
X1925015D01*
X1924797D01*
X1924505Y1956767D01*
X1924178Y1956803D01*
X1923814Y1956876D01*
X1923450Y1956949D01*
X1923050Y1957094D01*
X1923013D01*
X1922977Y1957131D01*
X1922758Y1957204D01*
X1922431Y1957349D01*
X1921994Y1957568D01*
X1921484Y1957859D01*
X1920902Y1958223D01*
X1920320Y1958623D01*
X1919701Y1959133D01*
X1919664D01*
X1919628Y1959206D01*
X1919409Y1959388D01*
X1919082Y1959715D01*
X1918609Y1960188D01*
X1918063Y1960734D01*
X1917408Y1961426D01*
X1916679Y1962263D01*
X1915915Y1963173D01*
X1915879Y1963209D01*
X1915770Y1963355D01*
X1915588Y1963573D01*
X1915369Y1963828D01*
X1915078Y1964156D01*
X1914750Y1964556D01*
X1914386Y1964957D01*
X1913986Y1965430D01*
X1913112Y1966340D01*
X1912239Y1967250D01*
X1911802Y1967687D01*
X1911365Y1968087D01*
X1910965Y1968451D01*
X1910564Y1968742D01*
X1910528D01*
X1910492Y1968815D01*
X1910382Y1968888D01*
X1910237Y1968961D01*
X1909836Y1969216D01*
X1909363Y1969507D01*
X1908781Y1969762D01*
X1908162Y1970016D01*
X1907470Y1970162D01*
X1906815Y1970235D01*
X1906779D01*
X1906742D01*
X1906524Y1970198D01*
X1906160Y1970162D01*
X1905759Y1970053D01*
X1905250Y1969907D01*
X1904740Y1969652D01*
X1904231Y1969325D01*
X1903721Y1968888D01*
X1903648Y1968815D01*
X1903503Y1968633D01*
X1903321Y1968378D01*
X1903066Y1967978D01*
X1902848Y1967468D01*
X1902629Y1966886D01*
X1902484Y1966194D01*
X1902447Y1965430D01*
Y1965211D01*
X1902484Y1965066D01*
X1902520Y1964629D01*
X1902629Y1964120D01*
X1902775Y1963573D01*
X1903030Y1962955D01*
X1903357Y1962372D01*
X1903794Y1961826D01*
X1903867Y1961754D01*
X1904049Y1961608D01*
X1904340Y1961389D01*
X1904777Y1961171D01*
X1905286Y1960916D01*
X1905941Y1960698D01*
X1906669Y1960552D01*
X1907507Y1960479D01*
X1907179Y1957313D01*
X1907143D01*
X1907034Y1957349D01*
X1906851D01*
X1906597Y1957386D01*
X1906305Y1957458D01*
X1905978Y1957531D01*
X1905578Y1957640D01*
X1905177Y1957749D01*
X1904303Y1958041D01*
X1903430Y1958477D01*
X1902993Y1958732D01*
X1902556Y1959060D01*
X1902156Y1959388D01*
X1901792Y1959752D01*
X1901755Y1959788D01*
X1901719Y1959861D01*
X1901610Y1959970D01*
X1901501Y1960152D01*
X1901355Y1960370D01*
X1901209Y1960625D01*
X1901027Y1960916D01*
X1900845Y1961280D01*
X1900664Y1961681D01*
X1900482Y1962118D01*
X1900336Y1962591D01*
X1900190Y1963100D01*
X1900081Y1963646D01*
X1899972Y1964229D01*
X1899936Y1964848D01*
X1899899Y1965503D01*
Y1965867D01*
X1899936Y1966121D01*
X1899972Y1966413D01*
X1900008Y1966777D01*
X1900081Y1967177D01*
X1900154Y1967578D01*
X1900409Y1968524D01*
X1900773Y1969470D01*
X1900991Y1969944D01*
X1901246Y1970417D01*
X1901573Y1970853D01*
X1901938Y1971254D01*
X1901974Y1971290D01*
X1902010Y1971363D01*
X1902156Y1971436D01*
X1902302Y1971582D01*
X1902484Y1971764D01*
X1902738Y1971946D01*
X1902993Y1972128D01*
X1903321Y1972346D01*
X1904012Y1972710D01*
X1904886Y1973074D01*
X1905323Y1973219D01*
X1905832Y1973292D01*
X1906342Y1973365D01*
X1906888Y1973401D01*
X1906961D01*
X1907143D01*
X1907434Y1973365D01*
X1907834Y1973329D01*
X1908271Y1973256D01*
X1908781Y1973110D01*
X1909327Y1972965D01*
X1909873Y1972746D01*
X1909946Y1972710D01*
X1910128Y1972637D01*
X1910419Y1972492D01*
X1910819Y1972273D01*
X1911256Y1971982D01*
X1911802Y1971618D01*
X1912348Y1971181D01*
X1912967Y1970671D01*
X1913040Y1970599D01*
X1913258Y1970417D01*
X1913440Y1970235D01*
X1913622Y1970053D01*
X1913840Y1969834D01*
X1914131Y1969543D01*
X1914423Y1969252D01*
X1914750Y1968888D01*
X1915114Y1968524D01*
X1915515Y1968087D01*
X1915915Y1967614D01*
X1916388Y1967104D01*
X1916861Y1966522D01*
X1917371Y1965939D01*
X1917408Y1965903D01*
X1917480Y1965830D01*
X1917590Y1965685D01*
X1917735Y1965503D01*
X1917954Y1965284D01*
X1918172Y1965030D01*
X1918645Y1964447D01*
X1919191Y1963828D01*
X1919737Y1963246D01*
X1920210Y1962736D01*
X1920392Y1962518D01*
X1920574Y1962336D01*
X1920611Y1962300D01*
X1920720Y1962190D01*
X1920866Y1962045D01*
X1921084Y1961863D01*
X1921339Y1961681D01*
X1921593Y1961462D01*
X1922212Y1961025D01*
Y1973438D01*
X1925197D01*
Y1956730D01*
D02*
G37*
G36*
Y1951052D02*
X1919956Y1947739D01*
X1919919D01*
X1919846Y1947667D01*
X1919737Y1947594D01*
X1919591Y1947485D01*
X1919191Y1947230D01*
X1918681Y1946902D01*
X1918136Y1946502D01*
X1917553Y1946101D01*
X1917007Y1945701D01*
X1916497Y1945337D01*
X1916461Y1945301D01*
X1916315Y1945191D01*
X1916097Y1945009D01*
X1915842Y1944755D01*
X1915296Y1944209D01*
X1915042Y1943918D01*
X1914823Y1943626D01*
X1914787Y1943590D01*
X1914750Y1943517D01*
X1914678Y1943371D01*
X1914568Y1943153D01*
X1914459Y1942935D01*
X1914350Y1942680D01*
X1914168Y1942098D01*
Y1942061D01*
X1914131Y1941988D01*
Y1941843D01*
X1914095Y1941661D01*
X1914059Y1941406D01*
Y1941115D01*
X1914022Y1940714D01*
Y1936419D01*
X1925197D01*
Y1933070D01*
X1900008D01*
Y1944755D01*
X1900045Y1945046D01*
Y1945373D01*
X1900081Y1946138D01*
X1900190Y1946939D01*
X1900300Y1947812D01*
X1900482Y1948613D01*
X1900591Y1949014D01*
X1900700Y1949341D01*
Y1949378D01*
X1900736Y1949414D01*
X1900845Y1949632D01*
X1900991Y1949960D01*
X1901246Y1950360D01*
X1901573Y1950797D01*
X1902010Y1951270D01*
X1902520Y1951707D01*
X1903102Y1952144D01*
X1903139D01*
X1903175Y1952180D01*
X1903393Y1952326D01*
X1903757Y1952472D01*
X1904231Y1952690D01*
X1904777Y1952872D01*
X1905432Y1953054D01*
X1906123Y1953163D01*
X1906888Y1953199D01*
X1906924D01*
X1906997D01*
X1907143D01*
X1907325Y1953163D01*
X1907580D01*
X1907834Y1953127D01*
X1908453Y1952981D01*
X1909181Y1952763D01*
X1909946Y1952472D01*
X1910710Y1952035D01*
X1911074Y1951744D01*
X1911438Y1951452D01*
X1911474Y1951416D01*
X1911511Y1951380D01*
X1911620Y1951270D01*
X1911729Y1951125D01*
X1911875Y1950943D01*
X1912020Y1950724D01*
X1912202Y1950433D01*
X1912421Y1950142D01*
X1912603Y1949778D01*
X1912785Y1949378D01*
X1913003Y1948941D01*
X1913185Y1948467D01*
X1913331Y1947921D01*
X1913513Y1947376D01*
X1913622Y1946757D01*
X1913731Y1946101D01*
X1913767Y1946174D01*
X1913840Y1946320D01*
X1913986Y1946538D01*
X1914131Y1946830D01*
X1914532Y1947485D01*
X1914787Y1947812D01*
X1915005Y1948103D01*
X1915078Y1948176D01*
X1915260Y1948358D01*
X1915551Y1948649D01*
X1915915Y1949014D01*
X1916425Y1949414D01*
X1916971Y1949887D01*
X1917626Y1950360D01*
X1918354Y1950870D01*
X1925197Y1955201D01*
Y1951052D01*
D02*
G37*
G36*
X874113Y1983200D02*
X874076D01*
X874004D01*
X873858D01*
X873640Y1983163D01*
X873421Y1983127D01*
X873166D01*
X872548Y1983018D01*
X871892Y1982909D01*
X871237Y1982690D01*
X870655Y1982472D01*
X870400Y1982326D01*
X870182Y1982144D01*
X870145Y1982108D01*
X870036Y1981962D01*
X869854Y1981744D01*
X869672Y1981453D01*
X869454Y1981052D01*
X869308Y1980615D01*
X869162Y1980069D01*
X869126Y1979487D01*
Y1979269D01*
X869162Y1979050D01*
X869199Y1978723D01*
X869272Y1978395D01*
X869344Y1978031D01*
X869490Y1977667D01*
X869672Y1977303D01*
X869708Y1977267D01*
X869781Y1977157D01*
X869927Y1977012D01*
X870072Y1976793D01*
X870327Y1976611D01*
X870582Y1976393D01*
X870873Y1976211D01*
X871237Y1976065D01*
X871274D01*
X871419Y1975993D01*
X871674Y1975956D01*
X872002Y1975883D01*
X872438Y1975811D01*
X872984Y1975774D01*
X873640Y1975701D01*
X874404D01*
X891767D01*
Y1972353D01*
X874586D01*
X874550D01*
X874440D01*
X874295D01*
X874076D01*
X873785Y1972389D01*
X873494D01*
X872802Y1972462D01*
X872002Y1972535D01*
X871164Y1972680D01*
X870400Y1972899D01*
X869672Y1973153D01*
X869636D01*
X869599Y1973190D01*
X869381Y1973299D01*
X869090Y1973481D01*
X868689Y1973736D01*
X868289Y1974100D01*
X867852Y1974500D01*
X867415Y1975010D01*
X867051Y1975592D01*
X867015Y1975665D01*
X866906Y1975883D01*
X866760Y1976211D01*
X866614Y1976684D01*
X866432Y1977267D01*
X866287Y1977922D01*
X866178Y1978650D01*
X866141Y1979451D01*
Y1979778D01*
X866178Y1979997D01*
X866214Y1980288D01*
X866250Y1980579D01*
X866396Y1981343D01*
X866614Y1982144D01*
X866942Y1982981D01*
X867160Y1983418D01*
X867415Y1983819D01*
X867706Y1984183D01*
X868034Y1984547D01*
X868070Y1984583D01*
X868107Y1984619D01*
X868252Y1984692D01*
X868398Y1984801D01*
X868580Y1984947D01*
X868835Y1985093D01*
X869126Y1985238D01*
X869454Y1985420D01*
X869818Y1985566D01*
X870254Y1985711D01*
X870691Y1985857D01*
X871201Y1986003D01*
X871747Y1986075D01*
X872366Y1986185D01*
X872984Y1986221D01*
X873676D01*
X874113Y1983200D01*
D02*
G37*
G36*
X873640Y1965036D02*
X873603D01*
X873530Y1965000D01*
X873385Y1964963D01*
X873203Y1964927D01*
X872984Y1964891D01*
X872730Y1964818D01*
X872184Y1964636D01*
X871528Y1964381D01*
X870910Y1964053D01*
X870327Y1963689D01*
X869818Y1963253D01*
X869781Y1963180D01*
X869636Y1963034D01*
X869454Y1962743D01*
X869272Y1962379D01*
X869053Y1961942D01*
X868871Y1961396D01*
X868726Y1960777D01*
X868689Y1960122D01*
Y1959904D01*
X868726Y1959758D01*
X868762Y1959358D01*
X868871Y1958848D01*
X869053Y1958266D01*
X869308Y1957647D01*
X869672Y1957028D01*
X870182Y1956446D01*
X870254Y1956373D01*
X870473Y1956191D01*
X870800Y1955973D01*
X871237Y1955681D01*
X871783Y1955390D01*
X872402Y1955172D01*
X873130Y1954990D01*
X873931Y1954917D01*
X873967D01*
X874040D01*
X874149D01*
X874295Y1954953D01*
X874695Y1954990D01*
X875168Y1955099D01*
X875751Y1955245D01*
X876333Y1955499D01*
X876916Y1955863D01*
X877462Y1956337D01*
X877534Y1956409D01*
X877680Y1956591D01*
X877898Y1956883D01*
X878153Y1957283D01*
X878408Y1957793D01*
X878626Y1958411D01*
X878772Y1959103D01*
X878845Y1959867D01*
Y1960195D01*
X878808Y1960450D01*
X878772Y1960777D01*
X878699Y1961141D01*
X878626Y1961578D01*
X878517Y1962051D01*
X881247Y1961687D01*
Y1961505D01*
X881211Y1961360D01*
Y1960887D01*
X881284Y1960486D01*
X881356Y1960013D01*
X881466Y1959467D01*
X881648Y1958848D01*
X881902Y1958266D01*
X882230Y1957647D01*
Y1957611D01*
X882266Y1957574D01*
X882412Y1957392D01*
X882667Y1957137D01*
X882994Y1956846D01*
X883468Y1956555D01*
X884014Y1956300D01*
X884632Y1956118D01*
X884996Y1956045D01*
X885397D01*
X885433D01*
X885470D01*
X885688D01*
X885979Y1956118D01*
X886380Y1956191D01*
X886816Y1956337D01*
X887290Y1956519D01*
X887763Y1956810D01*
X888200Y1957210D01*
X888236Y1957247D01*
X888382Y1957429D01*
X888564Y1957683D01*
X888782Y1958011D01*
X888964Y1958448D01*
X889146Y1958957D01*
X889292Y1959540D01*
X889328Y1960195D01*
Y1960486D01*
X889255Y1960814D01*
X889182Y1961251D01*
X889037Y1961724D01*
X888855Y1962197D01*
X888564Y1962707D01*
X888200Y1963180D01*
X888163Y1963216D01*
X887981Y1963362D01*
X887726Y1963580D01*
X887362Y1963835D01*
X886889Y1964090D01*
X886307Y1964345D01*
X885615Y1964563D01*
X884814Y1964709D01*
X885360Y1967803D01*
X885397D01*
X885506Y1967766D01*
X885652Y1967730D01*
X885870Y1967693D01*
X886125Y1967621D01*
X886416Y1967511D01*
X887108Y1967293D01*
X887908Y1966929D01*
X888709Y1966492D01*
X889474Y1965946D01*
X890165Y1965255D01*
X890202Y1965218D01*
X890238Y1965145D01*
X890311Y1965036D01*
X890420Y1964891D01*
X890566Y1964709D01*
X890711Y1964454D01*
X890857Y1964199D01*
X891039Y1963871D01*
X891330Y1963143D01*
X891621Y1962306D01*
X891803Y1961323D01*
X891876Y1960814D01*
Y1959904D01*
X891840Y1959503D01*
X891767Y1959030D01*
X891658Y1958448D01*
X891476Y1957793D01*
X891257Y1957137D01*
X890966Y1956482D01*
Y1956446D01*
X890930Y1956409D01*
X890820Y1956191D01*
X890602Y1955863D01*
X890347Y1955499D01*
X889983Y1955063D01*
X889583Y1954626D01*
X889110Y1954189D01*
X888564Y1953825D01*
X888491Y1953789D01*
X888309Y1953679D01*
X887981Y1953534D01*
X887581Y1953352D01*
X887108Y1953170D01*
X886562Y1953024D01*
X885943Y1952915D01*
X885324Y1952879D01*
X885251D01*
X885033D01*
X884742Y1952915D01*
X884341Y1952988D01*
X883868Y1953097D01*
X883358Y1953279D01*
X882849Y1953497D01*
X882339Y1953789D01*
X882266Y1953825D01*
X882121Y1953934D01*
X881866Y1954153D01*
X881575Y1954444D01*
X881247Y1954808D01*
X880883Y1955245D01*
X880556Y1955754D01*
X880228Y1956373D01*
Y1956337D01*
X880192Y1956264D01*
X880155Y1956155D01*
X880119Y1956009D01*
X879973Y1955609D01*
X879755Y1955099D01*
X879464Y1954517D01*
X879100Y1953934D01*
X878626Y1953388D01*
X878080Y1952879D01*
X878008Y1952842D01*
X877789Y1952697D01*
X877425Y1952478D01*
X876952Y1952260D01*
X876370Y1952041D01*
X875678Y1951823D01*
X874877Y1951677D01*
X874004Y1951641D01*
X873967D01*
X873858D01*
X873676D01*
X873458Y1951677D01*
X873166Y1951714D01*
X872839Y1951787D01*
X872475Y1951859D01*
X872074Y1951932D01*
X871201Y1952223D01*
X870728Y1952442D01*
X870291Y1952660D01*
X869818Y1952951D01*
X869344Y1953279D01*
X868871Y1953643D01*
X868434Y1954080D01*
X868398Y1954116D01*
X868325Y1954189D01*
X868216Y1954335D01*
X868070Y1954517D01*
X867888Y1954735D01*
X867706Y1955026D01*
X867488Y1955354D01*
X867306Y1955754D01*
X867088Y1956155D01*
X866869Y1956628D01*
X866687Y1957101D01*
X866505Y1957647D01*
X866360Y1958229D01*
X866250Y1958848D01*
X866178Y1959467D01*
X866141Y1960159D01*
Y1960486D01*
X866178Y1960705D01*
X866214Y1960996D01*
X866250Y1961323D01*
X866323Y1961687D01*
X866396Y1962088D01*
X866614Y1962961D01*
X866978Y1963871D01*
X867197Y1964345D01*
X867452Y1964781D01*
X867779Y1965218D01*
X868107Y1965655D01*
X868143Y1965691D01*
X868216Y1965764D01*
X868325Y1965873D01*
X868471Y1965983D01*
X868653Y1966165D01*
X868908Y1966347D01*
X869162Y1966565D01*
X869490Y1966783D01*
X869854Y1967002D01*
X870218Y1967220D01*
X871092Y1967621D01*
X872111Y1967948D01*
X872657Y1968057D01*
X873239Y1968130D01*
X873640Y1965036D01*
D02*
G37*
G36*
X1690345Y1638074D02*
X1696388D01*
Y1634980D01*
X1690345D01*
Y1624023D01*
X1687506D01*
X1671199Y1635562D01*
Y1638074D01*
X1687506D01*
Y1641495D01*
X1690345D01*
Y1638074D01*
D02*
G37*
G36*
X1674184Y1614596D02*
X1696388D01*
Y1611247D01*
X1674184D01*
Y1602948D01*
X1671199D01*
Y1622895D01*
X1674184D01*
Y1614596D01*
D02*
G37*
%LPC*%
G36*
X1261255Y909423D02*
X1261219D01*
X1261182D01*
X1260964Y909387D01*
X1260636Y909351D01*
X1260200Y909278D01*
X1259763Y909096D01*
X1259253Y908878D01*
X1258780Y908550D01*
X1258307Y908113D01*
X1258270Y908040D01*
X1258125Y907858D01*
X1257943Y907567D01*
X1257724Y907094D01*
X1257506Y906548D01*
X1257324Y905820D01*
X1257178Y904983D01*
X1257142Y904000D01*
Y896065D01*
X1265478D01*
Y903563D01*
X1265441Y904000D01*
X1265405Y904510D01*
X1265368Y905092D01*
X1265296Y905674D01*
X1265186Y906257D01*
X1265041Y906766D01*
X1265004Y906839D01*
X1264932Y906985D01*
X1264822Y907203D01*
X1264677Y907494D01*
X1264458Y907822D01*
X1264204Y908149D01*
X1263876Y908477D01*
X1263512Y908732D01*
X1263476Y908768D01*
X1263330Y908841D01*
X1263112Y908950D01*
X1262820Y909096D01*
X1262493Y909205D01*
X1262129Y909314D01*
X1261692Y909387D01*
X1261255Y909423D01*
D02*
G37*
G36*
X2629669Y1420864D02*
X2621333D01*
Y1413366D01*
X2621370Y1412929D01*
X2621406Y1412419D01*
X2621443Y1411837D01*
X2621515Y1411255D01*
X2621624Y1410672D01*
X2621770Y1410163D01*
X2621807Y1410090D01*
X2621879Y1409944D01*
X2621988Y1409726D01*
X2622134Y1409435D01*
X2622352Y1409107D01*
X2622607Y1408779D01*
X2622935Y1408452D01*
X2623299Y1408197D01*
X2623335Y1408161D01*
X2623481Y1408088D01*
X2623699Y1407979D01*
X2623990Y1407833D01*
X2624318Y1407724D01*
X2624682Y1407615D01*
X2625119Y1407542D01*
X2625556Y1407505D01*
X2625592D01*
X2625628D01*
X2625847Y1407542D01*
X2626175Y1407578D01*
X2626611Y1407651D01*
X2627048Y1407833D01*
X2627558Y1408051D01*
X2628031Y1408379D01*
X2628504Y1408816D01*
X2628541Y1408889D01*
X2628686Y1409071D01*
X2628868Y1409362D01*
X2629086Y1409835D01*
X2629305Y1410381D01*
X2629487Y1411109D01*
X2629633Y1411946D01*
X2629669Y1412929D01*
Y1420864D01*
D02*
G37*
G36*
X2616164Y1398151D02*
Y1390215D01*
X2627448D01*
X2616164Y1398151D01*
D02*
G37*
G36*
X2499200Y1634447D02*
X2490865D01*
Y1626949D01*
X2490901Y1626512D01*
X2490938Y1626002D01*
X2490974Y1625420D01*
X2491047Y1624837D01*
X2491156Y1624255D01*
X2491302Y1623745D01*
X2491338Y1623673D01*
X2491411Y1623527D01*
X2491520Y1623309D01*
X2491666Y1623017D01*
X2491884Y1622690D01*
X2492139Y1622362D01*
X2492466Y1622035D01*
X2492830Y1621780D01*
X2492867Y1621743D01*
X2493012Y1621671D01*
X2493231Y1621561D01*
X2493522Y1621416D01*
X2493850Y1621307D01*
X2494214Y1621197D01*
X2494650Y1621125D01*
X2495087Y1621088D01*
X2495124D01*
X2495160D01*
X2495378Y1621125D01*
X2495706Y1621161D01*
X2496143Y1621234D01*
X2496580Y1621416D01*
X2497089Y1621634D01*
X2497562Y1621962D01*
X2498036Y1622399D01*
X2498072Y1622471D01*
X2498218Y1622653D01*
X2498400Y1622945D01*
X2498618Y1623418D01*
X2498836Y1623964D01*
X2499018Y1624692D01*
X2499164Y1625529D01*
X2499200Y1626512D01*
Y1634447D01*
D02*
G37*
G36*
X2282228Y1638384D02*
X2273892D01*
Y1630885D01*
X2273929Y1630448D01*
X2273965Y1629939D01*
X2274002Y1629357D01*
X2274075Y1628774D01*
X2274184Y1628192D01*
X2274329Y1627682D01*
X2274366Y1627609D01*
X2274439Y1627464D01*
X2274548Y1627245D01*
X2274693Y1626954D01*
X2274912Y1626627D01*
X2275166Y1626299D01*
X2275494Y1625971D01*
X2275858Y1625716D01*
X2275894Y1625680D01*
X2276040Y1625607D01*
X2276258Y1625498D01*
X2276550Y1625352D01*
X2276877Y1625243D01*
X2277241Y1625134D01*
X2277678Y1625061D01*
X2278115Y1625025D01*
X2278151D01*
X2278188D01*
X2278406Y1625061D01*
X2278734Y1625098D01*
X2279171Y1625170D01*
X2279607Y1625352D01*
X2280117Y1625571D01*
X2280590Y1625899D01*
X2281063Y1626335D01*
X2281100Y1626408D01*
X2281245Y1626590D01*
X2281427Y1626881D01*
X2281646Y1627354D01*
X2281864Y1627900D01*
X2282046Y1628629D01*
X2282192Y1629466D01*
X2282228Y1630448D01*
Y1638384D01*
D02*
G37*
G36*
X1907834Y1635662D02*
X1907798D01*
X1907725D01*
X1907580D01*
X1907398Y1635625D01*
X1907143D01*
X1906888Y1635589D01*
X1906306Y1635480D01*
X1905614Y1635334D01*
X1904886Y1635079D01*
X1904194Y1634715D01*
X1903576Y1634242D01*
X1903539D01*
X1903503Y1634169D01*
X1903321Y1633987D01*
X1903066Y1633696D01*
X1902775Y1633296D01*
X1902520Y1632786D01*
X1902265Y1632204D01*
X1902083Y1631549D01*
X1902010Y1631185D01*
Y1630602D01*
X1902047Y1630457D01*
X1902083Y1630056D01*
X1902229Y1629583D01*
X1902411Y1629001D01*
X1902738Y1628382D01*
X1903139Y1627763D01*
X1903430Y1627472D01*
X1903721Y1627180D01*
X1903758D01*
X1903794Y1627108D01*
X1903903Y1627035D01*
X1904012Y1626962D01*
X1904376Y1626707D01*
X1904886Y1626453D01*
X1905505Y1626161D01*
X1906269Y1625907D01*
X1907143Y1625761D01*
X1908089Y1625688D01*
X1908126D01*
X1908198D01*
X1908308D01*
X1908490Y1625725D01*
X1908708D01*
X1908926Y1625761D01*
X1909472Y1625870D01*
X1910091Y1626052D01*
X1910746Y1626271D01*
X1911402Y1626634D01*
X1911984Y1627108D01*
X1912057Y1627180D01*
X1912202Y1627362D01*
X1912457Y1627690D01*
X1912712Y1628091D01*
X1913003Y1628637D01*
X1913258Y1629255D01*
X1913404Y1629947D01*
X1913476Y1630711D01*
Y1630930D01*
X1913440Y1631075D01*
X1913404Y1631476D01*
X1913294Y1631949D01*
X1913112Y1632531D01*
X1912858Y1633114D01*
X1912494Y1633696D01*
X1911984Y1634242D01*
X1911911Y1634315D01*
X1911693Y1634460D01*
X1911365Y1634679D01*
X1910892Y1634970D01*
X1910310Y1635225D01*
X1909618Y1635443D01*
X1908781Y1635589D01*
X1907834Y1635662D01*
D02*
G37*
G36*
X1906488Y1615132D02*
X1906451D01*
X1906415D01*
X1906196Y1615096D01*
X1905869Y1615059D01*
X1905432Y1614986D01*
X1904995Y1614804D01*
X1904486Y1614586D01*
X1904012Y1614258D01*
X1903539Y1613822D01*
X1903503Y1613749D01*
X1903357Y1613567D01*
X1903175Y1613276D01*
X1902957Y1612803D01*
X1902738Y1612256D01*
X1902556Y1611528D01*
X1902411Y1610691D01*
X1902374Y1609708D01*
Y1601773D01*
X1910710D01*
Y1609272D01*
X1910674Y1609708D01*
X1910637Y1610218D01*
X1910601Y1610801D01*
X1910528Y1611383D01*
X1910419Y1611965D01*
X1910273Y1612475D01*
X1910237Y1612548D01*
X1910164Y1612693D01*
X1910055Y1612912D01*
X1909909Y1613203D01*
X1909691Y1613531D01*
X1909436Y1613858D01*
X1909108Y1614186D01*
X1908744Y1614440D01*
X1908708Y1614477D01*
X1908562Y1614550D01*
X1908344Y1614659D01*
X1908053Y1614804D01*
X1907725Y1614914D01*
X1907361Y1615023D01*
X1906924Y1615096D01*
X1906488Y1615132D01*
D02*
G37*
G36*
X1664827Y1242858D02*
X1656892D01*
Y1234522D01*
X1664390D01*
X1664827Y1234559D01*
X1665336Y1234595D01*
X1665919Y1234631D01*
X1666501Y1234704D01*
X1667084Y1234813D01*
X1667593Y1234959D01*
X1667666Y1234995D01*
X1667812Y1235068D01*
X1668030Y1235178D01*
X1668321Y1235323D01*
X1668649Y1235542D01*
X1668976Y1235796D01*
X1669304Y1236124D01*
X1669559Y1236488D01*
X1669595Y1236524D01*
X1669668Y1236670D01*
X1669777Y1236888D01*
X1669923Y1237179D01*
X1670032Y1237507D01*
X1670141Y1237871D01*
X1670214Y1238308D01*
X1670250Y1238745D01*
Y1238781D01*
Y1238818D01*
X1670214Y1239036D01*
X1670178Y1239363D01*
X1670105Y1239800D01*
X1669923Y1240237D01*
X1669704Y1240747D01*
X1669377Y1241220D01*
X1668940Y1241693D01*
X1668867Y1241729D01*
X1668685Y1241875D01*
X1668394Y1242057D01*
X1667921Y1242275D01*
X1667375Y1242494D01*
X1666647Y1242676D01*
X1665810Y1242822D01*
X1664827Y1242858D01*
D02*
G37*
G36*
X2314433Y908649D02*
X2306498D01*
Y900313D01*
X2313996D01*
X2314433Y900350D01*
X2314943Y900386D01*
X2315525Y900423D01*
X2316108Y900495D01*
X2316690Y900605D01*
X2317200Y900750D01*
X2317272Y900787D01*
X2317418Y900860D01*
X2317636Y900969D01*
X2317928Y901114D01*
X2318255Y901333D01*
X2318583Y901587D01*
X2318910Y901915D01*
X2319165Y902279D01*
X2319202Y902316D01*
X2319274Y902461D01*
X2319384Y902679D01*
X2319529Y902971D01*
X2319638Y903298D01*
X2319748Y903662D01*
X2319820Y904099D01*
X2319857Y904536D01*
Y904572D01*
Y904609D01*
X2319820Y904827D01*
X2319784Y905155D01*
X2319711Y905591D01*
X2319529Y906028D01*
X2319311Y906538D01*
X2318983Y907011D01*
X2318546Y907484D01*
X2318474Y907521D01*
X2318292Y907666D01*
X2318000Y907848D01*
X2317527Y908067D01*
X2316981Y908285D01*
X2316253Y908467D01*
X2315416Y908613D01*
X2314433Y908649D01*
D02*
G37*
G36*
X2615614Y910618D02*
X2607679D01*
Y902282D01*
X2615177D01*
X2615614Y902318D01*
X2616124Y902355D01*
X2616706Y902391D01*
X2617289Y902464D01*
X2617871Y902573D01*
X2618381Y902719D01*
X2618453Y902755D01*
X2618599Y902828D01*
X2618817Y902937D01*
X2619109Y903083D01*
X2619436Y903301D01*
X2619764Y903556D01*
X2620091Y903884D01*
X2620346Y904248D01*
X2620383Y904284D01*
X2620455Y904430D01*
X2620565Y904648D01*
X2620710Y904939D01*
X2620819Y905267D01*
X2620929Y905631D01*
X2621001Y906068D01*
X2621038Y906504D01*
Y906541D01*
Y906577D01*
X2621001Y906796D01*
X2620965Y907123D01*
X2620892Y907560D01*
X2620710Y907997D01*
X2620492Y908506D01*
X2620164Y908980D01*
X2619727Y909453D01*
X2619655Y909489D01*
X2619473Y909635D01*
X2619181Y909817D01*
X2618708Y910035D01*
X2618162Y910254D01*
X2617434Y910436D01*
X2616597Y910581D01*
X2615614Y910618D01*
D02*
G37*
G36*
X2636690Y910982D02*
X2636399D01*
X2636071Y910909D01*
X2635634Y910836D01*
X2635161Y910690D01*
X2634651Y910508D01*
X2634178Y910217D01*
X2633705Y909817D01*
X2633669Y909780D01*
X2633523Y909635D01*
X2633341Y909380D01*
X2633159Y909052D01*
X2632941Y908652D01*
X2632759Y908179D01*
X2632613Y907669D01*
X2632577Y907087D01*
Y907050D01*
Y907014D01*
X2632613Y906796D01*
X2632649Y906468D01*
X2632722Y906068D01*
X2632868Y905594D01*
X2633050Y905121D01*
X2633341Y904612D01*
X2633705Y904175D01*
X2633741Y904138D01*
X2633923Y903993D01*
X2634178Y903811D01*
X2634506Y903629D01*
X2634943Y903410D01*
X2635452Y903228D01*
X2636035Y903083D01*
X2636690Y903046D01*
X2636763D01*
X2636981Y903083D01*
X2637309Y903119D01*
X2637745Y903192D01*
X2638219Y903338D01*
X2638692Y903520D01*
X2639201Y903811D01*
X2639638Y904175D01*
X2639675Y904211D01*
X2639820Y904393D01*
X2640002Y904612D01*
X2640221Y904939D01*
X2640439Y905340D01*
X2640621Y905813D01*
X2640767Y906359D01*
X2640803Y906941D01*
Y906978D01*
Y907014D01*
Y907232D01*
X2640730Y907560D01*
X2640657Y907960D01*
X2640512Y908397D01*
X2640293Y908870D01*
X2640002Y909344D01*
X2639602Y909817D01*
X2639565Y909853D01*
X2639383Y909999D01*
X2639129Y910181D01*
X2638801Y910399D01*
X2638364Y910618D01*
X2637891Y910800D01*
X2637309Y910945D01*
X2636690Y910982D01*
D02*
G37*
G36*
X2636581Y900535D02*
X2636362D01*
X2636217Y900498D01*
X2635816Y900462D01*
X2635307Y900353D01*
X2634724Y900171D01*
X2634142Y899916D01*
X2633523Y899552D01*
X2632977Y899079D01*
X2632904Y899006D01*
X2632759Y898824D01*
X2632540Y898496D01*
X2632285Y898096D01*
X2631994Y897550D01*
X2631776Y896931D01*
X2631630Y896240D01*
X2631557Y895475D01*
Y895402D01*
Y895257D01*
X2631594Y895002D01*
X2631630Y894674D01*
X2631703Y894274D01*
X2631812Y893837D01*
X2631958Y893400D01*
X2632140Y892927D01*
X2632176Y892891D01*
X2632249Y892709D01*
X2632395Y892490D01*
X2632613Y892236D01*
X2632868Y891908D01*
X2633195Y891580D01*
X2633559Y891289D01*
X2633996Y890998D01*
X2634069Y890962D01*
X2634215Y890889D01*
X2634469Y890780D01*
X2634797Y890670D01*
X2635197Y890561D01*
X2635671Y890452D01*
X2636180Y890379D01*
X2636690Y890343D01*
X2636908D01*
X2637054Y890379D01*
X2637491Y890416D01*
X2638000Y890525D01*
X2638583Y890707D01*
X2639201Y890925D01*
X2639784Y891289D01*
X2640366Y891762D01*
X2640439Y891835D01*
X2640585Y892017D01*
X2640839Y892345D01*
X2641094Y892745D01*
X2641349Y893255D01*
X2641604Y893874D01*
X2641749Y894602D01*
X2641822Y895366D01*
Y895402D01*
Y895475D01*
Y895584D01*
X2641786Y895730D01*
X2641749Y896130D01*
X2641640Y896676D01*
X2641458Y897222D01*
X2641203Y897841D01*
X2640839Y898460D01*
X2640330Y899042D01*
X2640257Y899115D01*
X2640075Y899261D01*
X2639747Y899516D01*
X2639311Y899807D01*
X2638765Y900062D01*
X2638109Y900316D01*
X2637381Y900462D01*
X2636581Y900535D01*
D02*
G37*
G36*
X2348610Y1460234D02*
X2340274D01*
Y1452736D01*
X2340311Y1452299D01*
X2340347Y1451789D01*
X2340383Y1451207D01*
X2340456Y1450624D01*
X2340565Y1450042D01*
X2340711Y1449533D01*
X2340747Y1449460D01*
X2340820Y1449314D01*
X2340929Y1449096D01*
X2341075Y1448804D01*
X2341293Y1448477D01*
X2341548Y1448149D01*
X2341876Y1447822D01*
X2342240Y1447567D01*
X2342276Y1447531D01*
X2342422Y1447458D01*
X2342640Y1447349D01*
X2342931Y1447203D01*
X2343259Y1447094D01*
X2343623Y1446985D01*
X2344060Y1446912D01*
X2344497Y1446875D01*
X2344533D01*
X2344569D01*
X2344788Y1446912D01*
X2345115Y1446948D01*
X2345552Y1447021D01*
X2345989Y1447203D01*
X2346499Y1447421D01*
X2346972Y1447749D01*
X2347445Y1448186D01*
X2347481Y1448258D01*
X2347627Y1448440D01*
X2347809Y1448732D01*
X2348027Y1449205D01*
X2348246Y1449751D01*
X2348428Y1450479D01*
X2348573Y1451316D01*
X2348610Y1452299D01*
Y1460234D01*
D02*
G37*
G36*
X2338636Y1416736D02*
X2338563D01*
X2338381D01*
X2338054D01*
X2337617Y1416700D01*
X2337144D01*
X2336561Y1416663D01*
X2335943Y1416627D01*
X2335287Y1416554D01*
X2333868Y1416372D01*
X2333176Y1416263D01*
X2332521Y1416117D01*
X2331902Y1415972D01*
X2331320Y1415753D01*
X2330810Y1415535D01*
X2330373Y1415280D01*
X2330337D01*
X2330300Y1415207D01*
X2330046Y1415025D01*
X2329718Y1414698D01*
X2329354Y1414297D01*
X2328990Y1413751D01*
X2328662Y1413132D01*
X2328408Y1412441D01*
X2328371Y1412077D01*
X2328335Y1411677D01*
Y1411458D01*
X2328371Y1411312D01*
X2328444Y1410948D01*
X2328590Y1410439D01*
X2328845Y1409893D01*
X2329209Y1409274D01*
X2329427Y1408983D01*
X2329718Y1408692D01*
X2330009Y1408400D01*
X2330373Y1408109D01*
X2330410D01*
X2330483Y1408036D01*
X2330592Y1407964D01*
X2330774Y1407891D01*
X2331028Y1407745D01*
X2331356Y1407636D01*
X2331720Y1407491D01*
X2332157Y1407345D01*
X2332703Y1407236D01*
X2333285Y1407090D01*
X2333977Y1406945D01*
X2334705Y1406835D01*
X2335579Y1406763D01*
X2336488Y1406690D01*
X2337508Y1406617D01*
X2338636D01*
X2338673D01*
X2338709D01*
X2338891D01*
X2339218D01*
X2339655Y1406653D01*
X2340128D01*
X2340711Y1406690D01*
X2341330Y1406726D01*
X2342021Y1406799D01*
X2343405Y1406981D01*
X2344096Y1407090D01*
X2344751Y1407236D01*
X2345370Y1407381D01*
X2345952Y1407600D01*
X2346462Y1407818D01*
X2346899Y1408073D01*
X2346935D01*
X2346972Y1408146D01*
X2347081Y1408218D01*
X2347227Y1408328D01*
X2347554Y1408655D01*
X2347954Y1409056D01*
X2348318Y1409602D01*
X2348646Y1410220D01*
X2348792Y1410548D01*
X2348901Y1410912D01*
X2348937Y1411312D01*
X2348974Y1411713D01*
Y1411931D01*
X2348937Y1412077D01*
X2348865Y1412477D01*
X2348755Y1412950D01*
X2348537Y1413496D01*
X2348209Y1414079D01*
X2347991Y1414370D01*
X2347773Y1414661D01*
X2347481Y1414916D01*
X2347154Y1415171D01*
X2347117D01*
X2347044Y1415244D01*
X2346899Y1415316D01*
X2346717Y1415426D01*
X2346426Y1415535D01*
X2346098Y1415680D01*
X2345698Y1415790D01*
X2345224Y1415935D01*
X2344678Y1416081D01*
X2344060Y1416226D01*
X2343368Y1416372D01*
X2342604Y1416481D01*
X2341730Y1416591D01*
X2340784Y1416663D01*
X2339765Y1416700D01*
X2338636Y1416736D01*
D02*
G37*
G36*
X1906924Y1949778D02*
X1906888D01*
X1906851D01*
X1906633Y1949742D01*
X1906305Y1949705D01*
X1905869Y1949632D01*
X1905432Y1949450D01*
X1904922Y1949232D01*
X1904449Y1948904D01*
X1903976Y1948467D01*
X1903939Y1948395D01*
X1903794Y1948213D01*
X1903612Y1947921D01*
X1903393Y1947448D01*
X1903175Y1946902D01*
X1902993Y1946174D01*
X1902848Y1945337D01*
X1902811Y1944354D01*
Y1936419D01*
X1911147D01*
Y1943918D01*
X1911110Y1944354D01*
X1911074Y1944864D01*
X1911037Y1945446D01*
X1910965Y1946029D01*
X1910855Y1946611D01*
X1910710Y1947121D01*
X1910674Y1947194D01*
X1910601Y1947339D01*
X1910492Y1947557D01*
X1910346Y1947849D01*
X1910128Y1948176D01*
X1909873Y1948504D01*
X1909545Y1948832D01*
X1909181Y1949086D01*
X1909145Y1949123D01*
X1908999Y1949196D01*
X1908781Y1949305D01*
X1908489Y1949450D01*
X1908162Y1949560D01*
X1907798Y1949669D01*
X1907361Y1949742D01*
X1906924Y1949778D01*
D02*
G37*
G36*
X1687506Y1634980D02*
X1676222D01*
X1687506Y1627044D01*
Y1634980D01*
D02*
G37*
%LPD*%
D44*
X957677Y1892717D02*
X1022638D01*
X957677Y1780512D02*
Y1892717D01*
Y1780512D02*
X1022638D01*
Y1892717D01*
X1257874Y833661D02*
X1301181D01*
Y951772D01*
X1257874D02*
X1301181D01*
X1257874Y833661D02*
Y951772D01*
X2585630Y1483268D02*
X2628937D01*
X2585630Y1365158D02*
Y1483268D01*
Y1365158D02*
X2628937D01*
Y1483268D01*
X2454725Y1696850D02*
X2498032D01*
X2454725Y1578740D02*
Y1696850D01*
Y1578740D02*
X2498032D01*
Y1696850D01*
X2238189Y1700787D02*
X2281496D01*
X2238189Y1582677D02*
Y1700787D01*
Y1582677D02*
X2281496D01*
Y1700787D01*
X1903543Y1539370D02*
X1946850D01*
Y1657480D01*
X1903543D02*
X1946850D01*
X1903543Y1539370D02*
Y1657480D01*
X1385433Y1507581D02*
Y1658944D01*
X1520079D01*
Y1507581D02*
Y1658944D01*
X1385433Y1507581D02*
X1520079D01*
X1088583Y1314961D02*
Y1657480D01*
X1273622D01*
Y1314961D02*
Y1657480D01*
X1088583Y1314961D02*
X1273622D01*
X1594488Y1242126D02*
X1712598D01*
Y1198819D02*
Y1242126D01*
X1594488Y1198819D02*
X1712598D01*
X1594488D02*
Y1242126D01*
X2419390Y981820D02*
Y1308448D01*
X2651870D01*
Y981820D02*
Y1308448D01*
X2419390Y981820D02*
X2651870D01*
X2244095Y864173D02*
Y907480D01*
Y864173D02*
X2362205D01*
Y907480D01*
X2244095D02*
X2362205D01*
X2545276Y866142D02*
Y909449D01*
Y866142D02*
X2663386D01*
Y909449D01*
X2545276D02*
X2663386D01*
X2304134Y1522638D02*
X2347441D01*
X2304134Y1404527D02*
Y1522638D01*
Y1404527D02*
X2347441D01*
Y1522638D01*
X950173Y2134472D02*
X1027189D01*
X950173Y2000370D02*
Y2134472D01*
Y2000370D02*
X1027189D01*
Y2134472D01*
X1903543Y1874016D02*
Y1992126D01*
X1946850D01*
Y1874016D02*
Y1992126D01*
X1903543Y1874016D02*
X1946850D01*
X922047Y1572441D02*
Y2400000D01*
X810236Y1572441D02*
X922047D01*
X810236D02*
Y2400000D01*
X922047D01*
X1621654Y1527266D02*
X1756299D01*
Y1678629D01*
X1621654D02*
X1756299D01*
X1621654Y1527266D02*
Y1678629D01*
%TF.MD5,ed201a53dec744c052b31c0601dd05d4*%
M02*
