%TF.GenerationSoftware,Altium Limited,Altium Designer,21.7.2 (23)*%
G04 Layer_Physical_Order=1*
G04 Layer_Color=255*
%FSLAX26Y26*%
%MOIN*%
%TF.SameCoordinates,89F72506-9554-4F55-AE3A-9D847A2FA82F*%
%TF.FilePolarity,Positive*%
%TF.FileFunction,Copper,L1,Top,Signal*%
%TF.Part,Single*%
G01*
G75*
%TA.AperFunction,SMDPad,CuDef*%
%ADD10R,0.039370X0.035433*%
%ADD11R,0.024493X0.097211*%
G04:AMPARAMS|DCode=12|XSize=97.211mil|YSize=24.493mil|CornerRadius=12.247mil|HoleSize=0mil|Usage=FLASHONLY|Rotation=90.000|XOffset=0mil|YOffset=0mil|HoleType=Round|Shape=RoundedRectangle|*
%AMROUNDEDRECTD12*
21,1,0.097211,0.000000,0,0,90.0*
21,1,0.072718,0.024493,0,0,90.0*
1,1,0.024493,0.000000,0.036359*
1,1,0.024493,0.000000,-0.036359*
1,1,0.024493,0.000000,-0.036359*
1,1,0.024493,0.000000,0.036359*
%
%ADD12ROUNDEDRECTD12*%
%ADD13R,0.035433X0.039370*%
%ADD14R,0.057331X0.054255*%
%ADD15R,0.047244X0.023622*%
%ADD16R,0.025591X0.027559*%
G04:AMPARAMS|DCode=17|XSize=25.591mil|YSize=64.961mil|CornerRadius=1.919mil|HoleSize=0mil|Usage=FLASHONLY|Rotation=90.000|XOffset=0mil|YOffset=0mil|HoleType=Round|Shape=RoundedRectangle|*
%AMROUNDEDRECTD17*
21,1,0.025591,0.061122,0,0,90.0*
21,1,0.021752,0.064961,0,0,90.0*
1,1,0.003839,0.030561,0.010876*
1,1,0.003839,0.030561,-0.010876*
1,1,0.003839,-0.030561,-0.010876*
1,1,0.003839,-0.030561,0.010876*
%
%ADD17ROUNDEDRECTD17*%
%ADD18R,0.025591X0.035433*%
%ADD19R,0.023622X0.051181*%
%ADD20R,0.114173X0.094488*%
G04:AMPARAMS|DCode=21|XSize=61.982mil|YSize=22.671mil|CornerRadius=11.335mil|HoleSize=0mil|Usage=FLASHONLY|Rotation=90.000|XOffset=0mil|YOffset=0mil|HoleType=Round|Shape=RoundedRectangle|*
%AMROUNDEDRECTD21*
21,1,0.061982,0.000000,0,0,90.0*
21,1,0.039312,0.022671,0,0,90.0*
1,1,0.022670,0.000000,0.019656*
1,1,0.022670,0.000000,-0.019656*
1,1,0.022670,0.000000,-0.019656*
1,1,0.022670,0.000000,0.019656*
%
%ADD21ROUNDEDRECTD21*%
%ADD22R,0.022671X0.061982*%
%TA.AperFunction,Conductor*%
%ADD23C,0.007874*%
%ADD24C,0.010000*%
%TA.AperFunction,ComponentPad*%
%ADD25C,0.275591*%
%ADD26C,0.078740*%
%ADD27C,0.061024*%
%ADD28R,0.060236X0.060236*%
%ADD29C,0.060236*%
%ADD30C,0.061811*%
%ADD31R,0.061811X0.061811*%
%TA.AperFunction,ViaPad*%
%ADD32C,0.039370*%
D10*
X1618110Y1220472D02*
D03*
X1688976D02*
D03*
X2338583Y885827D02*
D03*
X2267717D02*
D03*
X2614173Y905512D02*
D03*
X2543307D02*
D03*
D11*
X2460630Y1050110D02*
D03*
D12*
X2510630D02*
D03*
X2560630D02*
D03*
X2610630Y1240158D02*
D03*
X2560630D02*
D03*
X2510630D02*
D03*
X2460630D02*
D03*
X2610630Y1050110D02*
D03*
D13*
X2270669Y1404527D02*
D03*
Y1475394D02*
D03*
X1870079Y1539370D02*
D03*
Y1610236D02*
D03*
X2204724Y1653543D02*
D03*
Y1582677D02*
D03*
X2421260Y1649606D02*
D03*
Y1578740D02*
D03*
X2603347Y1441929D02*
D03*
Y1371063D02*
D03*
X1870079Y1874016D02*
D03*
Y1944882D02*
D03*
D14*
X988681Y2037340D02*
D03*
Y2097502D02*
D03*
D15*
X1210630Y2025591D02*
D03*
Y1950787D02*
D03*
X1112205D02*
D03*
Y1988189D02*
D03*
Y2025591D02*
D03*
D16*
X2322835Y1246063D02*
D03*
Y1194882D02*
D03*
D17*
X873032Y921457D02*
D03*
Y871457D02*
D03*
Y821457D02*
D03*
Y771457D02*
D03*
X1095472Y921457D02*
D03*
Y871457D02*
D03*
Y821457D02*
D03*
Y771457D02*
D03*
D18*
X2345472Y1811024D02*
D03*
X2300197D02*
D03*
D19*
X1633858Y1950787D02*
D03*
X1671260Y1868110D02*
D03*
X1596457D02*
D03*
X1377953Y2009842D02*
D03*
X1415354Y1927165D02*
D03*
X1340551D02*
D03*
D20*
X1122047Y1714567D02*
D03*
Y1474409D02*
D03*
D21*
X1633858Y1614173D02*
D03*
X1671260Y1544478D02*
D03*
X1397638Y1594488D02*
D03*
X1435039Y1524793D02*
D03*
D22*
X1596457Y1544478D02*
D03*
X1360236Y1524793D02*
D03*
D23*
X799213Y1969291D02*
X866142Y2036220D01*
X799213Y875591D02*
X853346Y821457D01*
X799213Y875591D02*
Y1969291D01*
X1437992Y637795D02*
X1467520Y608268D01*
X1437992Y874016D02*
X1498032Y934055D01*
X1437992Y637795D02*
Y874016D01*
X1504921Y655512D02*
X1808071D01*
X1831693Y679134D01*
X1467520Y608268D02*
X3170276D01*
X2134843Y1466786D02*
Y1530512D01*
X2113189Y1445133D02*
X2134843Y1466786D01*
X2113189Y1443898D02*
Y1445133D01*
X2459154Y1241634D02*
Y1486713D01*
X2457677Y1488189D02*
X2459154Y1486713D01*
Y1241634D02*
X2460630Y1240158D01*
X2421260Y1183739D02*
Y1576772D01*
Y1578740D01*
Y1183739D02*
X2496499Y1108500D01*
X2407481Y1178031D02*
X2482719Y1102793D01*
X2407481Y1178031D02*
Y1338524D01*
X2298170Y1447835D02*
X2407481Y1338524D01*
X2510630Y1050110D02*
Y1086469D01*
X2488541Y1004602D02*
X2501480Y991662D01*
X2488541Y1004602D02*
Y1005328D01*
X2270669Y1473425D02*
X2296260Y1447835D01*
X2482719Y1011149D02*
Y1102793D01*
X2471865Y964103D02*
X2561708D01*
X2296260Y1447835D02*
X2298170D01*
X2482719Y1011149D02*
X2488541Y1005328D01*
X2474761Y998894D02*
X2495773Y977883D01*
X2596499Y999620D02*
X2610630Y1013751D01*
X2560630D02*
Y1050110D01*
X2555293Y1123045D02*
X2582719Y1095619D01*
X2496499Y1100601D02*
X2510630Y1086469D01*
X2556000Y977883D02*
X2582719Y1004602D01*
X2596499Y998894D02*
Y999620D01*
X2474761Y998894D02*
Y999620D01*
X2538541Y991662D02*
X2560630Y1013751D01*
X2495773Y977883D02*
X2556000D01*
X2582719Y1004602D02*
Y1095619D01*
X2270669Y1473425D02*
Y1475394D01*
X2532719Y1123045D02*
X2555293D01*
X2496499Y1100601D02*
Y1108500D01*
X2460630Y1013751D02*
X2474761Y999620D01*
X2501480Y991662D02*
X2538541D01*
X2561708Y964103D02*
X2596499Y998894D01*
X2322835Y1113134D02*
X2471865Y964103D01*
X1315945Y1171260D02*
X1414284Y1072920D01*
X1459166D01*
X1315945Y1171260D02*
X1357284Y1212599D01*
X1495923D01*
X1531356Y1248032D01*
X1641872D01*
X1387795Y1183071D02*
X1485883D01*
X1322835Y1441929D02*
X1360236Y1479331D01*
X1459166Y1072920D02*
X1598032Y934055D01*
X853346Y821457D02*
X873032D01*
X746457D02*
X853346D01*
X1523284Y1220472D02*
X1618110D01*
X1485883Y1183071D02*
X1523284Y1220472D01*
X739173Y1078740D02*
X755905D01*
X726378Y1065945D02*
X739173Y1078740D01*
X726378Y841535D02*
Y1065945D01*
Y841535D02*
X746457Y821457D01*
X2289370Y1046260D02*
X2414370Y921260D01*
X2289370Y1046260D02*
Y1140748D01*
X2270669Y888779D02*
Y1071007D01*
X2259843Y1081834D02*
X2270669Y1071007D01*
X2259843Y1081834D02*
Y1253235D01*
X2338583Y885827D02*
X2521654D01*
X2541339Y905512D01*
X2545276D01*
X2590412Y877953D02*
X2637935D01*
X2583563Y884802D02*
X2590412Y877953D01*
X2583563Y884802D02*
Y923578D01*
X2643701Y883718D02*
Y981973D01*
X2576714Y930427D02*
X2583563Y923578D01*
X2545276Y905512D02*
X2570191Y930427D01*
X2576714D01*
X2297244Y447726D02*
X2430009Y314961D01*
X2297244Y447726D02*
Y522638D01*
X2430009Y314961D02*
X2441732D01*
X2660802Y479700D02*
X2749016Y567913D01*
X2660802Y414434D02*
Y479700D01*
X2561329Y314961D02*
X2660802Y414434D01*
X2549606Y314961D02*
X2561329D01*
X2890748Y777559D02*
Y1413386D01*
X2782480Y669291D02*
X2890748Y777559D01*
X2421260Y1649606D02*
X2654527D01*
X2890748Y1413386D01*
X2560630Y1203799D02*
X2574761Y1189667D01*
X2601480Y1181709D02*
X2668816D01*
X2823143Y1268701D02*
X2827756Y1264088D01*
X2588541Y1194649D02*
Y1279844D01*
X2551480Y1298605D02*
X2569780D01*
X2560630Y1203799D02*
Y1240158D01*
X2538541Y1285666D02*
X2551480Y1298605D01*
X2538541Y1244770D02*
Y1285666D01*
X2569780Y1298605D02*
X2588541Y1279844D01*
X2574761Y1188941D02*
Y1189667D01*
X2533928Y1240158D02*
X2538541Y1244770D01*
X2510630Y1240158D02*
X2533928D01*
X2574761Y1188941D02*
X2632719Y1130984D01*
X2827756Y997047D02*
Y1264088D01*
X2668816Y1181709D02*
X2755808Y1268701D01*
X2823143D01*
X2632719Y992955D02*
Y1130984D01*
X2588541Y1194649D02*
X2601480Y1181709D01*
X2466535Y635827D02*
X2827756Y997047D01*
X2206273Y635827D02*
X2466535D01*
X3170276Y608268D02*
X3237205Y675197D01*
X2144081Y698018D02*
Y855131D01*
X2039961Y917323D02*
X2081890D01*
X2144081Y855131D01*
X3125984Y622047D02*
X3195866Y691929D01*
X2144081Y698018D02*
X2206273Y635827D01*
X2013780Y622047D02*
X3125984D01*
X1931102Y704724D02*
X2013780Y622047D01*
X2218504Y665354D02*
Y982715D01*
Y557087D02*
X2220472Y555118D01*
X2367323D01*
X2218504Y982715D02*
X2235236Y999447D01*
Y1320866D01*
X2036417Y1478911D02*
X2185295Y1330033D01*
X2270669Y1264062D02*
Y1404527D01*
X2322835Y1113134D02*
Y1193898D01*
X1997623Y1160433D02*
X2205709D01*
X2196175Y1330033D02*
X2254921Y1388779D01*
X2259843Y1253235D02*
X2270669Y1264062D01*
X2185295Y1330033D02*
X2196175D01*
X2289370Y1140748D02*
X2295397Y1146774D01*
Y1166459D01*
X2322835Y1193898D01*
X2254921Y1388779D02*
X2256890D01*
X2322835Y1193898D02*
Y1194882D01*
X2233268Y1322835D02*
X2235236Y1320866D01*
X2177165Y1624016D02*
X2204724Y1651575D01*
X2177165Y1493759D02*
Y1624016D01*
Y1493759D02*
X2187008Y1483917D01*
X2204724Y1651575D02*
Y1653543D01*
X2187008Y1475394D02*
Y1483917D01*
X3237205Y675197D02*
Y2065157D01*
X3195866Y691929D02*
Y2014764D01*
X1931102Y704724D02*
Y908465D01*
X1939961Y917323D01*
X2367323Y555118D02*
X2495669Y426772D01*
X2345472Y1727362D02*
Y1811024D01*
Y1727362D02*
X2421260Y1651575D01*
Y1649606D02*
Y1651575D01*
X2036417Y1478911D02*
Y1607284D01*
X2219290Y1443898D02*
X2229133Y1434055D01*
X2113189Y1443898D02*
X2219290D01*
X2256890Y1388779D02*
X2270669Y1402559D01*
X1377953Y1988189D02*
X1487205D01*
X1631890Y1206693D02*
X1651435D01*
X2229133Y1434055D02*
X2292463D01*
X2298228Y1428289D01*
X1739173Y1192913D02*
X1782297Y1236037D01*
X1665215Y1192913D02*
X1739173D01*
X1618110Y1220472D02*
X1631890Y1206693D01*
X1633456Y1343120D02*
X1716973D01*
X1467502Y1509074D02*
X1633456Y1343120D01*
X1882927Y1177165D02*
X1980891D01*
X1716973Y1343120D02*
X1882927Y1177165D01*
X1651435Y1206693D02*
X1665215Y1192913D01*
X1641872Y1248032D02*
X1647638Y1242266D01*
X1652250Y1220472D02*
X1688976D01*
X1647638Y1225085D02*
X1652250Y1220472D01*
X1647638Y1225085D02*
Y1242266D01*
X873032Y848707D02*
Y894206D01*
X1211922Y944095D02*
X1221961Y934055D01*
X915354Y944095D02*
X1211922D01*
X837599Y898819D02*
X868419D01*
X915354Y1021850D02*
Y1744634D01*
X1221961Y934055D02*
X1398032D01*
X892716Y921457D02*
X915354Y944095D01*
X830709Y905709D02*
Y937205D01*
X868419Y898819D02*
X873032Y894206D01*
X830709Y937205D02*
X915354Y1021850D01*
X830709Y905709D02*
X837599Y898819D01*
X873032Y921457D02*
X892716D01*
X866485Y1793504D02*
X915354Y1744634D01*
X866485Y1793504D02*
Y1835878D01*
X866142Y1836220D02*
X866485Y1835878D01*
X1831693Y909055D02*
X1839961Y917323D01*
X1831693Y679134D02*
Y909055D01*
X858268Y771457D02*
X873032D01*
X849409Y762598D02*
X858268Y771457D01*
X849409Y657480D02*
Y762598D01*
X915354Y658607D02*
Y837205D01*
X841732Y584985D02*
X915354Y658607D01*
X873032Y848707D02*
X877644Y844095D01*
X908464D02*
X915354Y837205D01*
X877644Y844095D02*
X908464D01*
X1090860D02*
X1095472Y848707D01*
X998819Y426772D02*
X1137795Y565748D01*
X841732Y406387D02*
Y584985D01*
X949606Y733661D02*
X1060040Y844095D01*
X1095472Y848707D02*
Y871457D01*
X933159Y314961D02*
X944882D01*
X1060040Y844095D02*
X1090860D01*
X841732Y406387D02*
X933159Y314961D01*
X1137795Y565748D02*
Y798819D01*
X949606Y406387D02*
Y733661D01*
X1041033Y314961D02*
X1052756D01*
X949606Y406387D02*
X1041033Y314961D01*
X1095472Y821457D02*
X1115157D01*
X1137795Y798819D01*
X1671260Y1868110D02*
X2293307D01*
X2345472Y1815945D01*
X1870079Y1944882D02*
X1971792D01*
X1987540Y1929134D01*
X1996063D01*
X1913386Y1653543D02*
X2204724D01*
X1870079Y1610236D02*
Y1612205D01*
X1883858Y1625984D01*
X1885827D01*
X1913386Y1653543D01*
X1435039Y1515909D02*
Y1524793D01*
Y1427841D02*
Y1515909D01*
X1360236Y1479331D02*
Y1524793D01*
Y1893701D01*
X1980891Y1177165D02*
X1997623Y1160433D01*
X1441874Y1509074D02*
X1467502D01*
X1435039Y1515909D02*
X1441874Y1509074D01*
X1671260Y1496063D02*
Y1544478D01*
X1639764Y1464567D02*
X1671260Y1496063D01*
X1531496Y1464567D02*
X1639764D01*
X1435039Y1524793D02*
X1471270D01*
X1531496Y1464567D01*
X1418616Y1411417D02*
X1435039Y1427841D01*
X1289862Y1411417D02*
X1418616D01*
X1226870Y1474409D02*
X1289862Y1411417D01*
X1122047Y1474409D02*
X1226870D01*
X3074409Y2136220D02*
X3195866Y2014764D01*
X3066142Y2136220D02*
X3074409D01*
X3066142Y2236220D02*
X3237205Y2065157D01*
X2293616Y1250676D02*
Y1337176D01*
X2298228Y1341789D01*
X2298229Y1246063D02*
X2322835D01*
X2298228Y1341789D02*
Y1428289D01*
X2293616Y1250676D02*
X2298229Y1246063D01*
X2610630Y909055D02*
Y1013751D01*
Y1050110D01*
X2267717Y885827D02*
X2270669Y888779D01*
X2204724Y1543307D02*
Y1582677D01*
Y1543307D02*
X2270669Y1477362D01*
Y1475394D02*
Y1477362D01*
X2632719Y992955D02*
X2643701Y981973D01*
X2610630Y909055D02*
X2614173Y905512D01*
X2637935Y877953D02*
X2643701Y883718D01*
X2488541Y1285666D02*
X2558190Y1355315D01*
X2589567D01*
X2603347Y1369094D01*
Y1371063D01*
X2488541Y1167223D02*
Y1285666D01*
Y1167223D02*
X2532719Y1123045D01*
X2460630Y1013751D02*
Y1050110D01*
X2556102Y1441929D02*
X2603347D01*
X2421260Y1576772D02*
X2556102Y1441929D01*
X2610630Y1240158D02*
Y1363780D01*
X2603347Y1371063D02*
X2610630Y1363780D01*
X2300197Y1750984D02*
Y1811024D01*
X2204724Y1655512D02*
X2300197Y1750984D01*
X2204724Y1653543D02*
Y1655512D01*
X2345472Y1811024D02*
Y1815945D01*
X1864173Y1950787D02*
X1870079Y1944882D01*
X1633858Y1950787D02*
X1864173D01*
X1374016Y1992126D02*
X1377953Y1996063D01*
X1370079Y1988189D02*
X1374016Y1992126D01*
X1487205Y1988189D02*
X1524606Y1950787D01*
X1633858D01*
X1374016Y1992126D02*
X1377953Y1988189D01*
X1446850Y1962598D02*
X1495079Y1914370D01*
X1563976D01*
X1399467Y1962598D02*
X1446850D01*
X1563976Y1914370D02*
X1596457Y1881890D01*
X990158Y1728207D02*
X1068898Y1649466D01*
X1112205Y1474409D02*
X1122047D01*
X1068898Y1517717D02*
X1112205Y1474409D01*
X1068898Y1517717D02*
Y1649466D01*
X990158Y1728207D02*
Y1886811D01*
X1397638Y1601433D02*
Y1895669D01*
X1596457Y1557075D02*
Y1564134D01*
X1589058Y1564473D02*
X1596457Y1557075D01*
Y1544478D02*
Y1557075D01*
X1397638Y1594488D02*
X1481758D01*
X1511773Y1564473D01*
X1589058D01*
X1552323Y1608268D02*
X1596457Y1564134D01*
X1404473Y1608268D02*
X1552323D01*
X1397638Y1601433D02*
X1404473Y1608268D01*
X1397638Y1895669D02*
X1415354Y1913386D01*
Y1927165D01*
X1340551Y1913386D02*
X1360236Y1893701D01*
X1340551Y1913386D02*
Y1927165D01*
X1596457Y1868110D02*
Y1881890D01*
X1340551Y1927165D02*
X1364173D01*
X1381820Y1944812D01*
Y1944952D01*
X1399467Y1962598D01*
X1671260Y1544478D02*
X1864971D01*
X1870079Y1539370D01*
X1633858Y1614173D02*
X1866142D01*
X1870079Y1610236D01*
X1350254Y1988189D02*
X1370079D01*
X1175197Y1813132D02*
X1350254Y1988189D01*
X1175197Y1757874D02*
Y1813132D01*
X1377953Y1996063D02*
Y2009842D01*
X1131890Y1714567D02*
X1175197Y1757874D01*
X1122047Y1714567D02*
X1131890D01*
X1210630Y2025591D02*
X1370079D01*
X1377953Y2017717D01*
Y2009842D02*
Y2017717D01*
X939567Y1836220D02*
X990158Y1886811D01*
Y1970472D02*
Y2035864D01*
X988681Y2037340D02*
X990158Y2035864D01*
X866142Y1836220D02*
X939567D01*
X866142Y1936220D02*
X1085827D01*
X1100394Y1950787D01*
X1106299D01*
X916201Y1986279D02*
Y2034572D01*
X965491Y2074312D02*
X988681Y2097502D01*
X866142Y1936220D02*
X916201Y1986279D01*
Y2034572D02*
X955941Y2074312D01*
X965491D01*
X1104331Y1996063D02*
X1112205Y1988189D01*
X1032326Y2037340D02*
X1073603Y1996063D01*
X1104331D01*
X988681Y2037340D02*
X1032326D01*
X1051672Y2074312D02*
X1100394Y2025591D01*
X1011871Y2074312D02*
X1051672D01*
X988681Y2097502D02*
X1011871Y2074312D01*
X1100394Y2025591D02*
X1112205D01*
D24*
X1124016D01*
D25*
X1598425Y370866D02*
D03*
X614173D02*
D03*
X2111023D02*
D03*
X3095276D02*
D03*
D26*
X1268504Y314961D02*
D03*
X1160630D02*
D03*
X1052756D02*
D03*
X944882D02*
D03*
X1322441Y426772D02*
D03*
X1214567D02*
D03*
X1106693D02*
D03*
X998819D02*
D03*
X890945D02*
D03*
X2387795D02*
D03*
X2495669D02*
D03*
X2603543D02*
D03*
X2711417D02*
D03*
X2819291D02*
D03*
X2441732Y314961D02*
D03*
X2549606D02*
D03*
X2657480D02*
D03*
X2765354D02*
D03*
D27*
X3066142Y2736220D02*
D03*
X2966142D02*
D03*
X3066142Y2636220D02*
D03*
X2966142D02*
D03*
X3066142Y2536220D02*
D03*
X2966142D02*
D03*
X3066142Y2436220D02*
D03*
X2966142D02*
D03*
X3066142Y2336220D02*
D03*
X2966142D02*
D03*
Y2236220D02*
D03*
Y2136220D02*
D03*
X3066142Y2036220D02*
D03*
X2966142D02*
D03*
X3066142Y1936220D02*
D03*
X2966142D02*
D03*
X3066142Y1836220D02*
D03*
X2966142D02*
D03*
X3066142Y1736220D02*
D03*
X2966142D02*
D03*
X3066142Y1636220D02*
D03*
X2966142D02*
D03*
X3066142Y1536220D02*
D03*
X2966142D02*
D03*
X3066142Y1436220D02*
D03*
X2966142D02*
D03*
X3066142Y1336220D02*
D03*
X2966142D02*
D03*
X3066142Y1236220D02*
D03*
X2966142D02*
D03*
X3066142Y1136220D02*
D03*
X2966142D02*
D03*
X3066142Y1036220D02*
D03*
X2966142D02*
D03*
X3066142Y936221D02*
D03*
X2966142D02*
D03*
X3066142Y2236220D02*
D03*
Y2136220D02*
D03*
X666142Y2736220D02*
D03*
X566142D02*
D03*
X666142Y2636220D02*
D03*
X566142D02*
D03*
X666142Y2536220D02*
D03*
X566142D02*
D03*
X666142Y2436220D02*
D03*
X566142D02*
D03*
X666142Y2336220D02*
D03*
X566142D02*
D03*
X666142Y2236220D02*
D03*
X566142D02*
D03*
X666142Y2136220D02*
D03*
X566142D02*
D03*
X666142Y2036220D02*
D03*
X566142D02*
D03*
X666142Y1936220D02*
D03*
X566142D02*
D03*
X666142Y1836220D02*
D03*
X566142D02*
D03*
X666142Y1736220D02*
D03*
X566142D02*
D03*
X666142Y1636220D02*
D03*
X566142D02*
D03*
X666142Y1536220D02*
D03*
X566142D02*
D03*
X666142Y1436220D02*
D03*
X566142D02*
D03*
X666142Y1336220D02*
D03*
X566142D02*
D03*
X666142Y1236220D02*
D03*
X566142D02*
D03*
X666142Y1136220D02*
D03*
X566142D02*
D03*
X666142Y1036220D02*
D03*
X566142D02*
D03*
X666142Y936221D02*
D03*
X566142D02*
D03*
D28*
X1598032Y934055D02*
D03*
X2039961Y917323D02*
D03*
D29*
X1498032Y934055D02*
D03*
X1398032D02*
D03*
X1939961Y917323D02*
D03*
X1839961D02*
D03*
D30*
X866142Y2236220D02*
D03*
Y2136220D02*
D03*
Y2036220D02*
D03*
Y1936220D02*
D03*
Y1836220D02*
D03*
Y1736220D02*
D03*
Y1636220D02*
D03*
D31*
Y2336220D02*
D03*
D32*
X1504921Y655512D02*
D03*
X2134843Y1530512D02*
D03*
X2457677Y1488189D02*
D03*
X1315945Y1171260D02*
D03*
X1387795Y1183071D02*
D03*
X1322835Y1441929D02*
D03*
X755905Y1078740D02*
D03*
X2414370Y921260D02*
D03*
X2297244Y522638D02*
D03*
X2749016Y567913D02*
D03*
X2782480Y669291D02*
D03*
X2218504Y665354D02*
D03*
Y557087D02*
D03*
X2289370Y1140748D02*
D03*
X2205709Y1160433D02*
D03*
X2187008Y1475394D02*
D03*
X2233268Y1322835D02*
D03*
X2113189Y1443898D02*
D03*
X1782297Y1236037D02*
D03*
X849409Y657480D02*
D03*
X1996063Y1929134D02*
D03*
X2036417Y1607284D02*
D03*
X990158Y1970472D02*
D03*
Y1886811D02*
D03*
%TF.MD5,14ae5c24f95d9f84847a6e3c8f9beef0*%
M02*
