%TF.GenerationSoftware,Altium Limited,Altium Designer,21.7.2 (23)*%
G04 Layer_Color=8388736*
%FSLAX26Y26*%
%MOIN*%
%TF.SameCoordinates,89F72506-9554-4F55-AE3A-9D847A2FA82F*%
%TF.FilePolarity,Positive*%
%TF.FileFunction,Other,Top_Assembly*%
%TF.Part,Single*%
G01*
G75*
%TA.AperFunction,NonConductor*%
%ADD39C,0.007874*%
G36*
X1689288Y1220472D02*
X1686194D01*
Y1240164D01*
X1686157Y1240128D01*
X1685975Y1239982D01*
X1685757Y1239764D01*
X1685393Y1239509D01*
X1684992Y1239181D01*
X1684483Y1238818D01*
X1683900Y1238417D01*
X1683245Y1238017D01*
X1683209D01*
X1683172Y1237980D01*
X1682954Y1237835D01*
X1682590Y1237653D01*
X1682153Y1237434D01*
X1681644Y1237179D01*
X1681098Y1236925D01*
X1680552Y1236670D01*
X1680006Y1236451D01*
Y1239436D01*
X1680042D01*
X1680115Y1239509D01*
X1680260Y1239545D01*
X1680442Y1239655D01*
X1680661Y1239764D01*
X1680916Y1239909D01*
X1681534Y1240274D01*
X1682262Y1240674D01*
X1682990Y1241184D01*
X1683755Y1241766D01*
X1684519Y1242385D01*
X1684556Y1242421D01*
X1684592Y1242457D01*
X1684701Y1242567D01*
X1684847Y1242676D01*
X1685174Y1243040D01*
X1685611Y1243477D01*
X1686048Y1243986D01*
X1686521Y1244569D01*
X1686922Y1245151D01*
X1687286Y1245770D01*
X1689288D01*
Y1220472D01*
D02*
G37*
G36*
X1665518Y1245624D02*
X1665846D01*
X1666610Y1245588D01*
X1667411Y1245479D01*
X1668285Y1245370D01*
X1669086Y1245188D01*
X1669486Y1245078D01*
X1669814Y1244969D01*
X1669850D01*
X1669886Y1244933D01*
X1670105Y1244823D01*
X1670432Y1244678D01*
X1670833Y1244423D01*
X1671270Y1244095D01*
X1671743Y1243659D01*
X1672180Y1243149D01*
X1672616Y1242567D01*
Y1242530D01*
X1672653Y1242494D01*
X1672798Y1242275D01*
X1672944Y1241911D01*
X1673162Y1241438D01*
X1673344Y1240892D01*
X1673526Y1240237D01*
X1673636Y1239545D01*
X1673672Y1238781D01*
Y1238745D01*
Y1238672D01*
Y1238526D01*
X1673636Y1238344D01*
Y1238090D01*
X1673599Y1237835D01*
X1673454Y1237216D01*
X1673235Y1236488D01*
X1672944Y1235724D01*
X1672507Y1234959D01*
X1672216Y1234595D01*
X1671925Y1234231D01*
X1671888Y1234195D01*
X1671852Y1234158D01*
X1671743Y1234049D01*
X1671597Y1233940D01*
X1671415Y1233794D01*
X1671197Y1233649D01*
X1670906Y1233467D01*
X1670614Y1233248D01*
X1670250Y1233066D01*
X1669850Y1232884D01*
X1669413Y1232666D01*
X1668940Y1232484D01*
X1668394Y1232338D01*
X1667848Y1232156D01*
X1667229Y1232047D01*
X1666574Y1231938D01*
X1666647Y1231901D01*
X1666792Y1231829D01*
X1667011Y1231683D01*
X1667302Y1231537D01*
X1667957Y1231137D01*
X1668285Y1230882D01*
X1668576Y1230664D01*
X1668649Y1230591D01*
X1668831Y1230409D01*
X1669122Y1230118D01*
X1669486Y1229754D01*
X1669886Y1229244D01*
X1670360Y1228698D01*
X1670833Y1228043D01*
X1671342Y1227315D01*
X1675674Y1220472D01*
X1671524D01*
X1668212Y1225714D01*
Y1225750D01*
X1668139Y1225823D01*
X1668066Y1225932D01*
X1667957Y1226078D01*
X1667702Y1226478D01*
X1667375Y1226987D01*
X1666974Y1227534D01*
X1666574Y1228116D01*
X1666174Y1228662D01*
X1665810Y1229171D01*
X1665773Y1229208D01*
X1665664Y1229353D01*
X1665482Y1229572D01*
X1665227Y1229827D01*
X1664681Y1230373D01*
X1664390Y1230628D01*
X1664099Y1230846D01*
X1664062Y1230882D01*
X1663990Y1230919D01*
X1663844Y1230992D01*
X1663626Y1231101D01*
X1663407Y1231210D01*
X1663152Y1231319D01*
X1662570Y1231501D01*
X1662534D01*
X1662461Y1231537D01*
X1662315D01*
X1662133Y1231574D01*
X1661878Y1231610D01*
X1661587D01*
X1661187Y1231647D01*
X1656892D01*
Y1220472D01*
X1653543D01*
Y1245661D01*
X1665227D01*
X1665518Y1245624D01*
D02*
G37*
G36*
X2535194Y1187066D02*
X2515501D01*
X2515538Y1187030D01*
X2515683Y1186848D01*
X2515902Y1186629D01*
X2516156Y1186265D01*
X2516484Y1185865D01*
X2516848Y1185355D01*
X2517248Y1184773D01*
X2517649Y1184118D01*
Y1184081D01*
X2517685Y1184045D01*
X2517831Y1183826D01*
X2518013Y1183463D01*
X2518231Y1183026D01*
X2518486Y1182516D01*
X2518741Y1181970D01*
X2518996Y1181424D01*
X2519214Y1180878D01*
X2516229D01*
Y1180915D01*
X2516156Y1180987D01*
X2516120Y1181133D01*
X2516011Y1181315D01*
X2515902Y1181533D01*
X2515756Y1181788D01*
X2515392Y1182407D01*
X2514992Y1183135D01*
X2514482Y1183863D01*
X2513900Y1184627D01*
X2513281Y1185392D01*
X2513244Y1185428D01*
X2513208Y1185465D01*
X2513099Y1185574D01*
X2512990Y1185719D01*
X2512626Y1186047D01*
X2512189Y1186484D01*
X2511679Y1186920D01*
X2511097Y1187394D01*
X2510514Y1187794D01*
X2509896Y1188158D01*
Y1190160D01*
X2535194D01*
Y1187066D01*
D02*
G37*
G36*
X2527404Y1175637D02*
X2527622Y1175564D01*
X2527914Y1175455D01*
X2528241Y1175345D01*
X2528642Y1175200D01*
X2529078Y1175018D01*
X2529552Y1174799D01*
X2530571Y1174290D01*
X2531590Y1173634D01*
X2532100Y1173234D01*
X2532609Y1172834D01*
X2533046Y1172397D01*
X2533483Y1171887D01*
X2533519Y1171851D01*
X2533592Y1171778D01*
X2533665Y1171596D01*
X2533810Y1171414D01*
X2533992Y1171123D01*
X2534174Y1170832D01*
X2534356Y1170431D01*
X2534538Y1170031D01*
X2534757Y1169558D01*
X2534939Y1169048D01*
X2535121Y1168502D01*
X2535303Y1167920D01*
X2535448Y1167301D01*
X2535521Y1166646D01*
X2535594Y1165954D01*
X2535630Y1165226D01*
Y1164826D01*
X2535594Y1164534D01*
Y1164207D01*
X2535558Y1163806D01*
X2535485Y1163370D01*
X2535412Y1162860D01*
X2535230Y1161804D01*
X2534939Y1160713D01*
X2534538Y1159620D01*
X2534284Y1159111D01*
X2533992Y1158601D01*
X2533956Y1158565D01*
X2533920Y1158492D01*
X2533810Y1158347D01*
X2533665Y1158201D01*
X2533519Y1157983D01*
X2533301Y1157728D01*
X2533046Y1157437D01*
X2532755Y1157145D01*
X2532427Y1156854D01*
X2532100Y1156526D01*
X2531262Y1155871D01*
X2530280Y1155253D01*
X2529188Y1154707D01*
X2529151D01*
X2529042Y1154634D01*
X2528860Y1154597D01*
X2528642Y1154488D01*
X2528350Y1154415D01*
X2527986Y1154306D01*
X2527586Y1154160D01*
X2527149Y1154051D01*
X2526676Y1153942D01*
X2526130Y1153796D01*
X2525002Y1153614D01*
X2523728Y1153469D01*
X2522417Y1153396D01*
X2522381D01*
X2522235D01*
X2522017D01*
X2521762Y1153432D01*
X2521398D01*
X2521034Y1153469D01*
X2520561Y1153505D01*
X2520088Y1153578D01*
X2519032Y1153760D01*
X2517867Y1154015D01*
X2516702Y1154379D01*
X2515574Y1154889D01*
X2515538Y1154925D01*
X2515428Y1154961D01*
X2515283Y1155034D01*
X2515101Y1155180D01*
X2514846Y1155325D01*
X2514555Y1155507D01*
X2513900Y1155980D01*
X2513172Y1156599D01*
X2512444Y1157327D01*
X2511716Y1158165D01*
X2511097Y1159147D01*
X2511060Y1159184D01*
X2511024Y1159293D01*
X2510951Y1159438D01*
X2510842Y1159620D01*
X2510733Y1159912D01*
X2510624Y1160203D01*
X2510478Y1160567D01*
X2510332Y1160967D01*
X2510187Y1161404D01*
X2510041Y1161877D01*
X2509823Y1162897D01*
X2509641Y1164061D01*
X2509568Y1165263D01*
Y1165627D01*
X2509604Y1165881D01*
X2509641Y1166209D01*
X2509677Y1166609D01*
X2509714Y1167010D01*
X2509823Y1167483D01*
X2510041Y1168466D01*
X2510369Y1169558D01*
X2510587Y1170104D01*
X2510842Y1170613D01*
X2511170Y1171123D01*
X2511497Y1171632D01*
X2511534Y1171669D01*
X2511570Y1171742D01*
X2511679Y1171887D01*
X2511861Y1172069D01*
X2512043Y1172251D01*
X2512298Y1172506D01*
X2512589Y1172761D01*
X2512880Y1173052D01*
X2513244Y1173343D01*
X2513681Y1173634D01*
X2514118Y1173962D01*
X2514591Y1174253D01*
X2515137Y1174508D01*
X2515683Y1174799D01*
X2516266Y1175018D01*
X2516921Y1175236D01*
X2517685Y1171960D01*
X2517649D01*
X2517576Y1171924D01*
X2517430Y1171851D01*
X2517248Y1171778D01*
X2517030Y1171705D01*
X2516739Y1171596D01*
X2516156Y1171305D01*
X2515501Y1170941D01*
X2514846Y1170504D01*
X2514227Y1169958D01*
X2513681Y1169376D01*
X2513608Y1169303D01*
X2513463Y1169084D01*
X2513281Y1168720D01*
X2513026Y1168247D01*
X2512808Y1167629D01*
X2512589Y1166937D01*
X2512444Y1166100D01*
X2512407Y1165190D01*
Y1164899D01*
X2512444Y1164716D01*
Y1164462D01*
X2512480Y1164170D01*
X2512589Y1163479D01*
X2512735Y1162715D01*
X2512990Y1161914D01*
X2513354Y1161076D01*
X2513827Y1160312D01*
Y1160276D01*
X2513900Y1160239D01*
X2514082Y1159985D01*
X2514373Y1159657D01*
X2514810Y1159256D01*
X2515356Y1158783D01*
X2515974Y1158347D01*
X2516739Y1157946D01*
X2517576Y1157582D01*
X2517612D01*
X2517685Y1157546D01*
X2517794Y1157509D01*
X2517976Y1157473D01*
X2518195Y1157400D01*
X2518450Y1157327D01*
X2519068Y1157218D01*
X2519796Y1157072D01*
X2520597Y1156927D01*
X2521471Y1156854D01*
X2522417Y1156818D01*
X2522454D01*
X2522563D01*
X2522745D01*
X2522963D01*
X2523218Y1156854D01*
X2523546D01*
X2523910Y1156890D01*
X2524310Y1156927D01*
X2525184Y1157036D01*
X2526130Y1157218D01*
X2527076Y1157437D01*
X2528023Y1157728D01*
X2528059D01*
X2528132Y1157764D01*
X2528241Y1157837D01*
X2528423Y1157910D01*
X2528860Y1158128D01*
X2529370Y1158456D01*
X2529952Y1158856D01*
X2530571Y1159366D01*
X2531117Y1159948D01*
X2531626Y1160640D01*
Y1160676D01*
X2531663Y1160749D01*
X2531736Y1160858D01*
X2531808Y1161004D01*
X2531881Y1161186D01*
X2531990Y1161404D01*
X2532209Y1161914D01*
X2532427Y1162569D01*
X2532609Y1163297D01*
X2532755Y1164098D01*
X2532791Y1164935D01*
Y1165190D01*
X2532755Y1165408D01*
Y1165663D01*
X2532718Y1165918D01*
X2532573Y1166573D01*
X2532391Y1167337D01*
X2532100Y1168102D01*
X2531699Y1168902D01*
X2531481Y1169303D01*
X2531190Y1169667D01*
X2531153Y1169703D01*
X2531117Y1169740D01*
X2531008Y1169849D01*
X2530898Y1169995D01*
X2530716Y1170140D01*
X2530498Y1170322D01*
X2530280Y1170541D01*
X2529988Y1170723D01*
X2529661Y1170941D01*
X2529297Y1171196D01*
X2528933Y1171414D01*
X2528496Y1171632D01*
X2528023Y1171814D01*
X2527513Y1171996D01*
X2526967Y1172178D01*
X2526385Y1172324D01*
X2527222Y1175673D01*
X2527258D01*
X2527404Y1175637D01*
D02*
G37*
G36*
X2535194Y1145133D02*
X2510005D01*
Y1148482D01*
X2535194D01*
Y1145133D01*
D02*
G37*
G36*
X2335909Y911525D02*
X2336382Y911452D01*
X2336965Y911343D01*
X2337620Y911161D01*
X2338275Y910942D01*
X2338930Y910651D01*
X2338967D01*
X2339003Y910615D01*
X2339222Y910505D01*
X2339549Y910287D01*
X2339913Y910032D01*
X2340350Y909668D01*
X2340787Y909268D01*
X2341224Y908795D01*
X2341588Y908249D01*
X2341624Y908176D01*
X2341733Y907994D01*
X2341879Y907666D01*
X2342061Y907266D01*
X2342243Y906793D01*
X2342388Y906247D01*
X2342498Y905628D01*
X2342534Y905009D01*
Y904936D01*
Y904718D01*
X2342498Y904427D01*
X2342425Y904026D01*
X2342316Y903553D01*
X2342134Y903043D01*
X2341915Y902534D01*
X2341624Y902024D01*
X2341588Y901952D01*
X2341478Y901806D01*
X2341260Y901551D01*
X2340969Y901260D01*
X2340605Y900932D01*
X2340168Y900568D01*
X2339658Y900241D01*
X2339040Y899913D01*
X2339076D01*
X2339149Y899877D01*
X2339258Y899840D01*
X2339404Y899804D01*
X2339804Y899658D01*
X2340314Y899440D01*
X2340896Y899149D01*
X2341478Y898785D01*
X2342024Y898312D01*
X2342534Y897765D01*
X2342570Y897693D01*
X2342716Y897474D01*
X2342934Y897110D01*
X2343153Y896637D01*
X2343371Y896055D01*
X2343590Y895363D01*
X2343735Y894562D01*
X2343772Y893689D01*
Y893652D01*
Y893543D01*
Y893361D01*
X2343735Y893143D01*
X2343699Y892851D01*
X2343626Y892524D01*
X2343553Y892160D01*
X2343480Y891760D01*
X2343189Y890886D01*
X2342971Y890413D01*
X2342752Y889976D01*
X2342461Y889503D01*
X2342134Y889029D01*
X2341770Y888556D01*
X2341333Y888120D01*
X2341296Y888083D01*
X2341224Y888010D01*
X2341078Y887901D01*
X2340896Y887755D01*
X2340678Y887573D01*
X2340386Y887391D01*
X2340059Y887173D01*
X2339658Y886991D01*
X2339258Y886773D01*
X2338785Y886554D01*
X2338312Y886372D01*
X2337766Y886190D01*
X2337183Y886045D01*
X2336564Y885936D01*
X2335946Y885863D01*
X2335254Y885826D01*
X2334926D01*
X2334708Y885863D01*
X2334417Y885899D01*
X2334089Y885936D01*
X2333725Y886008D01*
X2333325Y886081D01*
X2332451Y886299D01*
X2331541Y886663D01*
X2331068Y886882D01*
X2330631Y887137D01*
X2330194Y887464D01*
X2329758Y887792D01*
X2329721Y887828D01*
X2329648Y887901D01*
X2329539Y888010D01*
X2329430Y888156D01*
X2329248Y888338D01*
X2329066Y888593D01*
X2328848Y888847D01*
X2328629Y889175D01*
X2328411Y889539D01*
X2328192Y889903D01*
X2327792Y890777D01*
X2327464Y891796D01*
X2327355Y892342D01*
X2327282Y892924D01*
X2330376Y893325D01*
Y893288D01*
X2330413Y893216D01*
X2330449Y893070D01*
X2330486Y892888D01*
X2330522Y892669D01*
X2330595Y892415D01*
X2330777Y891869D01*
X2331032Y891213D01*
X2331359Y890595D01*
X2331723Y890012D01*
X2332160Y889503D01*
X2332233Y889466D01*
X2332378Y889321D01*
X2332670Y889139D01*
X2333034Y888957D01*
X2333470Y888738D01*
X2334016Y888556D01*
X2334635Y888411D01*
X2335290Y888374D01*
X2335509D01*
X2335654Y888411D01*
X2336055Y888447D01*
X2336564Y888556D01*
X2337147Y888738D01*
X2337766Y888993D01*
X2338384Y889357D01*
X2338967Y889867D01*
X2339040Y889939D01*
X2339222Y890158D01*
X2339440Y890486D01*
X2339731Y890922D01*
X2340022Y891468D01*
X2340241Y892087D01*
X2340423Y892815D01*
X2340496Y893616D01*
Y893652D01*
Y893725D01*
Y893834D01*
X2340459Y893980D01*
X2340423Y894380D01*
X2340314Y894854D01*
X2340168Y895436D01*
X2339913Y896018D01*
X2339549Y896601D01*
X2339076Y897147D01*
X2339003Y897220D01*
X2338821Y897365D01*
X2338530Y897583D01*
X2338130Y897838D01*
X2337620Y898093D01*
X2337001Y898312D01*
X2336310Y898457D01*
X2335545Y898530D01*
X2335218D01*
X2334963Y898494D01*
X2334635Y898457D01*
X2334271Y898384D01*
X2333834Y898312D01*
X2333361Y898202D01*
X2333725Y900932D01*
X2333907D01*
X2334053Y900896D01*
X2334526D01*
X2334926Y900969D01*
X2335400Y901042D01*
X2335946Y901151D01*
X2336564Y901333D01*
X2337147Y901587D01*
X2337766Y901915D01*
X2337802D01*
X2337838Y901952D01*
X2338020Y902097D01*
X2338275Y902352D01*
X2338566Y902679D01*
X2338858Y903153D01*
X2339112Y903699D01*
X2339294Y904317D01*
X2339367Y904682D01*
Y905082D01*
Y905118D01*
Y905155D01*
Y905373D01*
X2339294Y905664D01*
X2339222Y906065D01*
X2339076Y906501D01*
X2338894Y906975D01*
X2338603Y907448D01*
X2338202Y907885D01*
X2338166Y907921D01*
X2337984Y908067D01*
X2337729Y908249D01*
X2337402Y908467D01*
X2336965Y908649D01*
X2336455Y908831D01*
X2335873Y908977D01*
X2335218Y909013D01*
X2334926D01*
X2334599Y908940D01*
X2334162Y908867D01*
X2333689Y908722D01*
X2333216Y908540D01*
X2332706Y908249D01*
X2332233Y907885D01*
X2332196Y907848D01*
X2332051Y907666D01*
X2331832Y907412D01*
X2331578Y907048D01*
X2331323Y906574D01*
X2331068Y905992D01*
X2330850Y905300D01*
X2330704Y904500D01*
X2327610Y905045D01*
Y905082D01*
X2327646Y905191D01*
X2327683Y905337D01*
X2327719Y905555D01*
X2327792Y905810D01*
X2327901Y906101D01*
X2328120Y906793D01*
X2328484Y907593D01*
X2328920Y908394D01*
X2329466Y909159D01*
X2330158Y909850D01*
X2330194Y909887D01*
X2330267Y909923D01*
X2330376Y909996D01*
X2330522Y910105D01*
X2330704Y910251D01*
X2330959Y910396D01*
X2331214Y910542D01*
X2331541Y910724D01*
X2332269Y911015D01*
X2333106Y911306D01*
X2334089Y911488D01*
X2334599Y911561D01*
X2335509D01*
X2335909Y911525D01*
D02*
G37*
G36*
X2315125Y911415D02*
X2315452D01*
X2316217Y911379D01*
X2317018Y911270D01*
X2317891Y911161D01*
X2318692Y910979D01*
X2319092Y910870D01*
X2319420Y910760D01*
X2319456D01*
X2319493Y910724D01*
X2319711Y910615D01*
X2320039Y910469D01*
X2320439Y910214D01*
X2320876Y909887D01*
X2321349Y909450D01*
X2321786Y908940D01*
X2322223Y908358D01*
Y908322D01*
X2322259Y908285D01*
X2322405Y908067D01*
X2322550Y907703D01*
X2322769Y907230D01*
X2322951Y906683D01*
X2323133Y906028D01*
X2323242Y905337D01*
X2323278Y904572D01*
Y904536D01*
Y904463D01*
Y904317D01*
X2323242Y904135D01*
Y903881D01*
X2323206Y903626D01*
X2323060Y903007D01*
X2322842Y902279D01*
X2322550Y901515D01*
X2322114Y900750D01*
X2321822Y900386D01*
X2321531Y900022D01*
X2321495Y899986D01*
X2321458Y899949D01*
X2321349Y899840D01*
X2321204Y899731D01*
X2321022Y899586D01*
X2320803Y899440D01*
X2320512Y899258D01*
X2320221Y899039D01*
X2319857Y898857D01*
X2319456Y898676D01*
X2319020Y898457D01*
X2318546Y898275D01*
X2318000Y898130D01*
X2317454Y897947D01*
X2316836Y897838D01*
X2316180Y897729D01*
X2316253Y897693D01*
X2316399Y897620D01*
X2316617Y897474D01*
X2316908Y897329D01*
X2317564Y896928D01*
X2317891Y896673D01*
X2318182Y896455D01*
X2318255Y896382D01*
X2318437Y896200D01*
X2318728Y895909D01*
X2319092Y895545D01*
X2319493Y895035D01*
X2319966Y894490D01*
X2320439Y893834D01*
X2320949Y893106D01*
X2325280Y886263D01*
X2321131D01*
X2317818Y891505D01*
Y891541D01*
X2317746Y891614D01*
X2317673Y891723D01*
X2317564Y891869D01*
X2317309Y892269D01*
X2316981Y892779D01*
X2316581Y893325D01*
X2316180Y893907D01*
X2315780Y894453D01*
X2315416Y894963D01*
X2315380Y894999D01*
X2315270Y895145D01*
X2315088Y895363D01*
X2314834Y895618D01*
X2314288Y896164D01*
X2313996Y896419D01*
X2313705Y896637D01*
X2313669Y896673D01*
X2313596Y896710D01*
X2313450Y896783D01*
X2313232Y896892D01*
X2313014Y897001D01*
X2312759Y897110D01*
X2312176Y897292D01*
X2312140D01*
X2312067Y897329D01*
X2311922D01*
X2311740Y897365D01*
X2311485Y897402D01*
X2311194D01*
X2310793Y897438D01*
X2306498D01*
Y886263D01*
X2303149D01*
Y911452D01*
X2314834D01*
X2315125Y911415D01*
D02*
G37*
G36*
X2590715Y931101D02*
X2591043D01*
X2591807Y931064D01*
X2592608Y930955D01*
X2593482Y930846D01*
X2594283Y930664D01*
X2594683Y930554D01*
X2595011Y930445D01*
X2595047D01*
X2595083Y930409D01*
X2595302Y930300D01*
X2595629Y930154D01*
X2596030Y929899D01*
X2596467Y929572D01*
X2596940Y929135D01*
X2597377Y928625D01*
X2597813Y928043D01*
Y928006D01*
X2597850Y927970D01*
X2597995Y927752D01*
X2598141Y927388D01*
X2598359Y926914D01*
X2598541Y926369D01*
X2598723Y925713D01*
X2598833Y925022D01*
X2598869Y924257D01*
Y924221D01*
Y924148D01*
Y924003D01*
X2598833Y923821D01*
Y923566D01*
X2598796Y923311D01*
X2598651Y922692D01*
X2598432Y921964D01*
X2598141Y921200D01*
X2597704Y920435D01*
X2597413Y920071D01*
X2597122Y919707D01*
X2597085Y919671D01*
X2597049Y919635D01*
X2596940Y919525D01*
X2596794Y919416D01*
X2596612Y919270D01*
X2596394Y919125D01*
X2596103Y918943D01*
X2595811Y918725D01*
X2595447Y918543D01*
X2595047Y918361D01*
X2594610Y918142D01*
X2594137Y917960D01*
X2593591Y917814D01*
X2593045Y917633D01*
X2592426Y917523D01*
X2591771Y917414D01*
X2591844Y917378D01*
X2591989Y917305D01*
X2592208Y917159D01*
X2592499Y917014D01*
X2593154Y916613D01*
X2593482Y916359D01*
X2593773Y916140D01*
X2593846Y916067D01*
X2594028Y915885D01*
X2594319Y915594D01*
X2594683Y915230D01*
X2595083Y914721D01*
X2595557Y914174D01*
X2596030Y913519D01*
X2596539Y912791D01*
X2600871Y905948D01*
X2596721D01*
X2593409Y911190D01*
Y911226D01*
X2593336Y911299D01*
X2593263Y911408D01*
X2593154Y911554D01*
X2592899Y911954D01*
X2592572Y912464D01*
X2592171Y913010D01*
X2591771Y913592D01*
X2591371Y914138D01*
X2591007Y914648D01*
X2590970Y914684D01*
X2590861Y914830D01*
X2590679Y915048D01*
X2590424Y915303D01*
X2589878Y915849D01*
X2589587Y916104D01*
X2589296Y916322D01*
X2589259Y916359D01*
X2589187Y916395D01*
X2589041Y916468D01*
X2588823Y916577D01*
X2588604Y916686D01*
X2588349Y916795D01*
X2587767Y916977D01*
X2587731D01*
X2587658Y917014D01*
X2587512D01*
X2587330Y917050D01*
X2587075Y917087D01*
X2586784D01*
X2586384Y917123D01*
X2582089D01*
Y905948D01*
X2578740D01*
Y931137D01*
X2590424D01*
X2590715Y931101D01*
D02*
G37*
G36*
X2611573Y931210D02*
X2611864Y931173D01*
X2612191Y931137D01*
X2612555Y931101D01*
X2612919Y930991D01*
X2613793Y930773D01*
X2614667Y930445D01*
X2615103Y930227D01*
X2615540Y929972D01*
X2615941Y929644D01*
X2616341Y929317D01*
X2616377Y929280D01*
X2616414Y929244D01*
X2616523Y929135D01*
X2616669Y928989D01*
X2616814Y928771D01*
X2616996Y928553D01*
X2617360Y928006D01*
X2617724Y927315D01*
X2618052Y926514D01*
X2618307Y925604D01*
X2618343Y925131D01*
X2618379Y924621D01*
Y924585D01*
Y924548D01*
Y924330D01*
X2618343Y924003D01*
X2618270Y923602D01*
X2618161Y923092D01*
X2617979Y922583D01*
X2617761Y922073D01*
X2617433Y921564D01*
X2617397Y921491D01*
X2617251Y921345D01*
X2617033Y921127D01*
X2616741Y920836D01*
X2616341Y920508D01*
X2615868Y920181D01*
X2615322Y919853D01*
X2614667Y919562D01*
X2614703D01*
X2614776Y919525D01*
X2614885Y919489D01*
X2615031Y919416D01*
X2615467Y919234D01*
X2615977Y918979D01*
X2616523Y918615D01*
X2617105Y918215D01*
X2617651Y917705D01*
X2618161Y917123D01*
Y917087D01*
X2618197Y917050D01*
X2618343Y916832D01*
X2618561Y916468D01*
X2618780Y915995D01*
X2618998Y915412D01*
X2619217Y914721D01*
X2619362Y913956D01*
X2619399Y913119D01*
Y913082D01*
Y912973D01*
Y912791D01*
X2619362Y912573D01*
X2619326Y912318D01*
X2619289Y911990D01*
X2619217Y911626D01*
X2619107Y911226D01*
X2618853Y910389D01*
X2618671Y909916D01*
X2618416Y909479D01*
X2618161Y909006D01*
X2617870Y908569D01*
X2617506Y908132D01*
X2617105Y907695D01*
X2617069Y907659D01*
X2616996Y907586D01*
X2616887Y907477D01*
X2616705Y907368D01*
X2616450Y907186D01*
X2616195Y907004D01*
X2615868Y906822D01*
X2615504Y906603D01*
X2615103Y906385D01*
X2614630Y906203D01*
X2614121Y906021D01*
X2613611Y905839D01*
X2613029Y905730D01*
X2612410Y905620D01*
X2611791Y905548D01*
X2611099Y905511D01*
X2610735D01*
X2610481Y905548D01*
X2610153Y905584D01*
X2609789Y905620D01*
X2609389Y905693D01*
X2608952Y905803D01*
X2607969Y906057D01*
X2607459Y906239D01*
X2606986Y906421D01*
X2606477Y906676D01*
X2605967Y906967D01*
X2605494Y907295D01*
X2605057Y907695D01*
X2605021Y907732D01*
X2604948Y907804D01*
X2604839Y907914D01*
X2604693Y908096D01*
X2604547Y908314D01*
X2604329Y908569D01*
X2604147Y908860D01*
X2603929Y909224D01*
X2603710Y909588D01*
X2603528Y910025D01*
X2603164Y910935D01*
X2603019Y911481D01*
X2602909Y912027D01*
X2602837Y912609D01*
X2602800Y913192D01*
Y913228D01*
Y913301D01*
Y913447D01*
X2602837Y913592D01*
Y913811D01*
X2602873Y914065D01*
X2602946Y914648D01*
X2603091Y915303D01*
X2603310Y915958D01*
X2603637Y916650D01*
X2604038Y917305D01*
Y917341D01*
X2604111Y917378D01*
X2604256Y917560D01*
X2604547Y917851D01*
X2604948Y918215D01*
X2605457Y918579D01*
X2606076Y918979D01*
X2606768Y919307D01*
X2607605Y919562D01*
X2607569D01*
X2607532Y919598D01*
X2607423Y919635D01*
X2607277Y919707D01*
X2606950Y919853D01*
X2606513Y920071D01*
X2606040Y920362D01*
X2605567Y920726D01*
X2605130Y921127D01*
X2604729Y921564D01*
X2604693Y921636D01*
X2604584Y921782D01*
X2604438Y922073D01*
X2604293Y922437D01*
X2604111Y922910D01*
X2603965Y923457D01*
X2603856Y924075D01*
X2603819Y924731D01*
Y924767D01*
Y924840D01*
Y924985D01*
X2603856Y925204D01*
X2603892Y925422D01*
X2603929Y925713D01*
X2604074Y926332D01*
X2604293Y927060D01*
X2604657Y927824D01*
X2604875Y928225D01*
X2605130Y928625D01*
X2605457Y928989D01*
X2605785Y929353D01*
X2605821Y929390D01*
X2605894Y929426D01*
X2606003Y929535D01*
X2606149Y929644D01*
X2606331Y929790D01*
X2606586Y929936D01*
X2606877Y930118D01*
X2607168Y930300D01*
X2607532Y930482D01*
X2607933Y930664D01*
X2608369Y930809D01*
X2608843Y930955D01*
X2609862Y931173D01*
X2610444Y931210D01*
X2611027Y931246D01*
X2611354D01*
X2611573Y931210D01*
D02*
G37*
G36*
X2296294Y1428277D02*
X2296258Y1427985D01*
Y1427658D01*
X2296222Y1426893D01*
X2296112Y1426093D01*
X2296003Y1425219D01*
X2295821Y1424418D01*
X2295712Y1424018D01*
X2295603Y1423690D01*
Y1423654D01*
X2295566Y1423617D01*
X2295457Y1423399D01*
X2295311Y1423071D01*
X2295057Y1422671D01*
X2294729Y1422234D01*
X2294292Y1421761D01*
X2293783Y1421324D01*
X2293200Y1420887D01*
X2293164D01*
X2293128Y1420851D01*
X2292909Y1420705D01*
X2292545Y1420560D01*
X2292072Y1420341D01*
X2291526Y1420159D01*
X2290871Y1419977D01*
X2290179Y1419868D01*
X2289415Y1419832D01*
X2289378D01*
X2289305D01*
X2289160D01*
X2288978Y1419868D01*
X2288723D01*
X2288468Y1419905D01*
X2287849Y1420050D01*
X2287122Y1420269D01*
X2286357Y1420560D01*
X2285593Y1420997D01*
X2285229Y1421288D01*
X2284865Y1421579D01*
X2284828Y1421615D01*
X2284792Y1421652D01*
X2284683Y1421761D01*
X2284573Y1421907D01*
X2284428Y1422089D01*
X2284282Y1422307D01*
X2284100Y1422598D01*
X2283882Y1422889D01*
X2283700Y1423253D01*
X2283518Y1423654D01*
X2283300Y1424091D01*
X2283117Y1424564D01*
X2282972Y1425110D01*
X2282790Y1425656D01*
X2282681Y1426275D01*
X2282572Y1426930D01*
X2282535Y1426857D01*
X2282462Y1426711D01*
X2282317Y1426493D01*
X2282171Y1426202D01*
X2281771Y1425547D01*
X2281516Y1425219D01*
X2281298Y1424928D01*
X2281225Y1424855D01*
X2281043Y1424673D01*
X2280751Y1424382D01*
X2280387Y1424018D01*
X2279878Y1423617D01*
X2279332Y1423144D01*
X2278677Y1422671D01*
X2277949Y1422161D01*
X2271106Y1417830D01*
Y1421979D01*
X2276347Y1425292D01*
X2276383D01*
X2276456Y1425365D01*
X2276566Y1425437D01*
X2276711Y1425547D01*
X2277111Y1425801D01*
X2277621Y1426129D01*
X2278167Y1426529D01*
X2278749Y1426930D01*
X2279296Y1427330D01*
X2279805Y1427694D01*
X2279841Y1427731D01*
X2279987Y1427840D01*
X2280206Y1428022D01*
X2280460Y1428277D01*
X2281006Y1428823D01*
X2281261Y1429114D01*
X2281479Y1429405D01*
X2281516Y1429441D01*
X2281552Y1429514D01*
X2281625Y1429660D01*
X2281734Y1429878D01*
X2281843Y1430097D01*
X2281953Y1430351D01*
X2282135Y1430934D01*
Y1430970D01*
X2282171Y1431043D01*
Y1431189D01*
X2282207Y1431371D01*
X2282244Y1431625D01*
Y1431917D01*
X2282280Y1432317D01*
Y1436612D01*
X2271106D01*
Y1439961D01*
X2296294D01*
Y1428277D01*
D02*
G37*
G36*
X2290070Y1413462D02*
X2290143Y1413389D01*
X2290179Y1413243D01*
X2290288Y1413061D01*
X2290398Y1412843D01*
X2290543Y1412588D01*
X2290907Y1411969D01*
X2291307Y1411241D01*
X2291817Y1410513D01*
X2292399Y1409749D01*
X2293018Y1408985D01*
X2293055Y1408948D01*
X2293091Y1408912D01*
X2293200Y1408803D01*
X2293309Y1408657D01*
X2293673Y1408329D01*
X2294110Y1407893D01*
X2294620Y1407456D01*
X2295202Y1406983D01*
X2295785Y1406582D01*
X2296403Y1406218D01*
Y1404216D01*
X2271106D01*
Y1407310D01*
X2290798D01*
X2290762Y1407347D01*
X2290616Y1407529D01*
X2290398Y1407747D01*
X2290143Y1408111D01*
X2289815Y1408511D01*
X2289451Y1409021D01*
X2289051Y1409603D01*
X2288650Y1410259D01*
Y1410295D01*
X2288614Y1410331D01*
X2288468Y1410550D01*
X2288286Y1410914D01*
X2288068Y1411351D01*
X2287813Y1411860D01*
X2287558Y1412406D01*
X2287303Y1412952D01*
X2287085Y1413498D01*
X2290070D01*
Y1413462D01*
D02*
G37*
G36*
X2284646Y1396245D02*
X2285083D01*
X2285556Y1396208D01*
X2286102Y1396172D01*
X2287231Y1396063D01*
X2288432Y1395881D01*
X2289633Y1395662D01*
X2290179Y1395517D01*
X2290725Y1395371D01*
X2290762D01*
X2290834Y1395335D01*
X2290980Y1395262D01*
X2291162Y1395189D01*
X2291417Y1395116D01*
X2291671Y1394971D01*
X2292290Y1394679D01*
X2292945Y1394315D01*
X2293637Y1393842D01*
X2294329Y1393296D01*
X2294911Y1392641D01*
Y1392605D01*
X2294984Y1392568D01*
X2295057Y1392459D01*
X2295130Y1392313D01*
X2295275Y1392131D01*
X2295384Y1391913D01*
X2295675Y1391367D01*
X2295930Y1390712D01*
X2296185Y1389947D01*
X2296331Y1389037D01*
X2296403Y1388055D01*
Y1387727D01*
X2296367Y1387327D01*
X2296294Y1386853D01*
X2296185Y1386307D01*
X2296039Y1385725D01*
X2295858Y1385106D01*
X2295566Y1384524D01*
Y1384487D01*
X2295530Y1384451D01*
X2295421Y1384269D01*
X2295239Y1383978D01*
X2294984Y1383614D01*
X2294620Y1383213D01*
X2294220Y1382777D01*
X2293746Y1382376D01*
X2293200Y1381976D01*
X2293128Y1381939D01*
X2292945Y1381794D01*
X2292618Y1381648D01*
X2292145Y1381393D01*
X2291599Y1381175D01*
X2290980Y1380884D01*
X2290252Y1380629D01*
X2289451Y1380411D01*
X2289415D01*
X2289342Y1380374D01*
X2289233Y1380338D01*
X2289051Y1380301D01*
X2288832Y1380265D01*
X2288577Y1380229D01*
X2288250Y1380156D01*
X2287886Y1380119D01*
X2287485Y1380047D01*
X2287049Y1380010D01*
X2286539Y1379974D01*
X2286030Y1379901D01*
X2285447Y1379865D01*
X2284865D01*
X2284209Y1379828D01*
X2283518D01*
X2283481D01*
X2283336D01*
X2283081D01*
X2282790D01*
X2282390Y1379865D01*
X2281953D01*
X2281479Y1379901D01*
X2280970Y1379937D01*
X2279805Y1380047D01*
X2278604Y1380229D01*
X2277439Y1380447D01*
X2276893Y1380593D01*
X2276347Y1380775D01*
X2276311D01*
X2276238Y1380811D01*
X2276092Y1380884D01*
X2275910Y1380957D01*
X2275655Y1381029D01*
X2275401Y1381175D01*
X2274782Y1381466D01*
X2274127Y1381830D01*
X2273399Y1382303D01*
X2272744Y1382849D01*
X2272125Y1383505D01*
Y1383541D01*
X2272052Y1383577D01*
X2271979Y1383687D01*
X2271906Y1383832D01*
X2271797Y1384014D01*
X2271651Y1384196D01*
X2271397Y1384742D01*
X2271142Y1385397D01*
X2270887Y1386162D01*
X2270742Y1387072D01*
X2270669Y1388055D01*
Y1388419D01*
X2270705Y1388673D01*
X2270742Y1388965D01*
X2270814Y1389329D01*
X2270887Y1389729D01*
X2270996Y1390166D01*
X2271142Y1390603D01*
X2271287Y1391076D01*
X2271506Y1391549D01*
X2271761Y1392022D01*
X2272052Y1392495D01*
X2272416Y1392969D01*
X2272816Y1393405D01*
X2273253Y1393806D01*
X2273289Y1393842D01*
X2273399Y1393915D01*
X2273581Y1394024D01*
X2273872Y1394206D01*
X2274200Y1394388D01*
X2274636Y1394570D01*
X2275146Y1394825D01*
X2275728Y1395043D01*
X2276383Y1395262D01*
X2277148Y1395480D01*
X2277985Y1395699D01*
X2278932Y1395881D01*
X2279951Y1396063D01*
X2281043Y1396172D01*
X2282244Y1396245D01*
X2283518Y1396281D01*
X2283554D01*
X2283700D01*
X2283955D01*
X2284246D01*
X2284646Y1396245D01*
D02*
G37*
G36*
X1002549Y2067385D02*
X1002913D01*
X1003277Y2067349D01*
X1003750Y2067312D01*
X1004223Y2067240D01*
X1005279Y2067058D01*
X1006444Y2066803D01*
X1007609Y2066439D01*
X1008737Y2065929D01*
X1008773Y2065893D01*
X1008883Y2065856D01*
X1009028Y2065784D01*
X1009210Y2065638D01*
X1009465Y2065492D01*
X1009756Y2065310D01*
X1010411Y2064837D01*
X1011139Y2064218D01*
X1011867Y2063490D01*
X1012595Y2062653D01*
X1013214Y2061670D01*
X1013250Y2061634D01*
X1013287Y2061525D01*
X1013360Y2061379D01*
X1013469Y2061197D01*
X1013578Y2060906D01*
X1013687Y2060615D01*
X1013833Y2060251D01*
X1013979Y2059850D01*
X1014124Y2059414D01*
X1014270Y2058940D01*
X1014488Y2057921D01*
X1014670Y2056756D01*
X1014743Y2055555D01*
Y2055191D01*
X1014707Y2054936D01*
X1014670Y2054609D01*
X1014634Y2054208D01*
X1014597Y2053808D01*
X1014488Y2053335D01*
X1014270Y2052352D01*
X1013942Y2051260D01*
X1013724Y2050714D01*
X1013469Y2050204D01*
X1013141Y2049695D01*
X1012814Y2049185D01*
X1012777Y2049149D01*
X1012741Y2049076D01*
X1012632Y2048930D01*
X1012450Y2048748D01*
X1012268Y2048566D01*
X1012013Y2048312D01*
X1011722Y2048057D01*
X1011431Y2047766D01*
X1011067Y2047474D01*
X1010630Y2047183D01*
X1010193Y2046856D01*
X1009720Y2046564D01*
X1009174Y2046310D01*
X1008628Y2046018D01*
X1008045Y2045800D01*
X1007390Y2045582D01*
X1006626Y2048858D01*
X1006662D01*
X1006735Y2048894D01*
X1006880Y2048967D01*
X1007062Y2049040D01*
X1007281Y2049112D01*
X1007572Y2049222D01*
X1008154Y2049513D01*
X1008810Y2049877D01*
X1009465Y2050314D01*
X1010084Y2050860D01*
X1010630Y2051442D01*
X1010702Y2051515D01*
X1010848Y2051733D01*
X1011030Y2052097D01*
X1011285Y2052570D01*
X1011503Y2053189D01*
X1011722Y2053881D01*
X1011867Y2054718D01*
X1011904Y2055628D01*
Y2055919D01*
X1011867Y2056101D01*
Y2056356D01*
X1011831Y2056647D01*
X1011722Y2057339D01*
X1011576Y2058103D01*
X1011321Y2058904D01*
X1010957Y2059741D01*
X1010484Y2060506D01*
Y2060542D01*
X1010411Y2060578D01*
X1010229Y2060833D01*
X1009938Y2061161D01*
X1009501Y2061561D01*
X1008955Y2062034D01*
X1008337Y2062471D01*
X1007572Y2062872D01*
X1006735Y2063236D01*
X1006698D01*
X1006626Y2063272D01*
X1006516Y2063308D01*
X1006335Y2063345D01*
X1006116Y2063418D01*
X1005861Y2063490D01*
X1005242Y2063600D01*
X1004514Y2063745D01*
X1003714Y2063891D01*
X1002840Y2063964D01*
X1001894Y2064000D01*
X1001857D01*
X1001748D01*
X1001566D01*
X1001348D01*
X1001093Y2063964D01*
X1000765D01*
X1000401Y2063927D01*
X1000001Y2063891D01*
X999127Y2063782D01*
X998181Y2063600D01*
X997235Y2063381D01*
X996288Y2063090D01*
X996252D01*
X996179Y2063054D01*
X996070Y2062981D01*
X995888Y2062908D01*
X995451Y2062690D01*
X994941Y2062362D01*
X994359Y2061962D01*
X993740Y2061452D01*
X993194Y2060870D01*
X992684Y2060178D01*
Y2060142D01*
X992648Y2060069D01*
X992575Y2059960D01*
X992503Y2059814D01*
X992430Y2059632D01*
X992321Y2059414D01*
X992102Y2058904D01*
X991884Y2058249D01*
X991702Y2057521D01*
X991556Y2056720D01*
X991520Y2055883D01*
Y2055628D01*
X991556Y2055410D01*
Y2055155D01*
X991592Y2054900D01*
X991738Y2054245D01*
X991920Y2053480D01*
X992211Y2052716D01*
X992612Y2051915D01*
X992830Y2051515D01*
X993121Y2051151D01*
X993158Y2051114D01*
X993194Y2051078D01*
X993303Y2050969D01*
X993413Y2050823D01*
X993595Y2050678D01*
X993813Y2050496D01*
X994031Y2050277D01*
X994322Y2050095D01*
X994650Y2049877D01*
X995014Y2049622D01*
X995378Y2049404D01*
X995815Y2049185D01*
X996288Y2049003D01*
X996798Y2048821D01*
X997344Y2048639D01*
X997926Y2048494D01*
X997089Y2045145D01*
X997053D01*
X996907Y2045181D01*
X996688Y2045254D01*
X996397Y2045363D01*
X996070Y2045472D01*
X995669Y2045618D01*
X995232Y2045800D01*
X994759Y2046018D01*
X993740Y2046528D01*
X992721Y2047183D01*
X992211Y2047584D01*
X991702Y2047984D01*
X991265Y2048421D01*
X990828Y2048930D01*
X990792Y2048967D01*
X990719Y2049040D01*
X990646Y2049222D01*
X990500Y2049404D01*
X990318Y2049695D01*
X990136Y2049986D01*
X989955Y2050386D01*
X989773Y2050787D01*
X989554Y2051260D01*
X989372Y2051770D01*
X989190Y2052316D01*
X989008Y2052898D01*
X988862Y2053517D01*
X988790Y2054172D01*
X988717Y2054864D01*
X988681Y2055592D01*
Y2055992D01*
X988717Y2056283D01*
Y2056611D01*
X988753Y2057011D01*
X988826Y2057448D01*
X988899Y2057958D01*
X989081Y2059013D01*
X989372Y2060105D01*
X989773Y2061197D01*
X990027Y2061707D01*
X990318Y2062216D01*
X990355Y2062253D01*
X990391Y2062326D01*
X990500Y2062471D01*
X990646Y2062617D01*
X990792Y2062835D01*
X991010Y2063090D01*
X991265Y2063381D01*
X991556Y2063672D01*
X991884Y2063964D01*
X992211Y2064291D01*
X993048Y2064946D01*
X994031Y2065565D01*
X995123Y2066111D01*
X995160D01*
X995269Y2066184D01*
X995451Y2066220D01*
X995669Y2066330D01*
X995961Y2066402D01*
X996324Y2066512D01*
X996725Y2066657D01*
X997162Y2066766D01*
X997635Y2066876D01*
X998181Y2067021D01*
X999309Y2067203D01*
X1000583Y2067349D01*
X1001894Y2067422D01*
X1001930D01*
X1002076D01*
X1002294D01*
X1002549Y2067385D01*
D02*
G37*
G36*
X1008082Y2039903D02*
X1008154Y2039830D01*
X1008191Y2039685D01*
X1008300Y2039503D01*
X1008409Y2039284D01*
X1008555Y2039030D01*
X1008919Y2038411D01*
X1009319Y2037683D01*
X1009829Y2036955D01*
X1010411Y2036190D01*
X1011030Y2035426D01*
X1011067Y2035390D01*
X1011103Y2035353D01*
X1011212Y2035244D01*
X1011321Y2035098D01*
X1011685Y2034771D01*
X1012122Y2034334D01*
X1012632Y2033897D01*
X1013214Y2033424D01*
X1013797Y2033024D01*
X1014415Y2032660D01*
Y2030658D01*
X989117D01*
Y2033752D01*
X1008810D01*
X1008773Y2033788D01*
X1008628Y2033970D01*
X1008409Y2034188D01*
X1008154Y2034552D01*
X1007827Y2034953D01*
X1007463Y2035462D01*
X1007062Y2036045D01*
X1006662Y2036700D01*
Y2036736D01*
X1006626Y2036773D01*
X1006480Y2036991D01*
X1006298Y2037355D01*
X1006080Y2037792D01*
X1005825Y2038302D01*
X1005570Y2038848D01*
X1005315Y2039394D01*
X1005097Y2039940D01*
X1008082D01*
Y2039903D01*
D02*
G37*
G36*
X2329292Y1220436D02*
X2329656D01*
X2330020Y1220400D01*
X2330493Y1220363D01*
X2330966Y1220290D01*
X2332022Y1220108D01*
X2333187Y1219854D01*
X2334352Y1219490D01*
X2335480Y1218980D01*
X2335516Y1218944D01*
X2335626Y1218907D01*
X2335771Y1218834D01*
X2335953Y1218689D01*
X2336208Y1218543D01*
X2336499Y1218361D01*
X2337154Y1217888D01*
X2337882Y1217269D01*
X2338610Y1216541D01*
X2339338Y1215704D01*
X2339957Y1214721D01*
X2339994Y1214685D01*
X2340030Y1214576D01*
X2340103Y1214430D01*
X2340212Y1214248D01*
X2340321Y1213957D01*
X2340430Y1213666D01*
X2340576Y1213302D01*
X2340722Y1212901D01*
X2340867Y1212464D01*
X2341013Y1211991D01*
X2341231Y1210972D01*
X2341413Y1209807D01*
X2341486Y1208606D01*
Y1208242D01*
X2341450Y1207987D01*
X2341413Y1207660D01*
X2341377Y1207259D01*
X2341340Y1206859D01*
X2341231Y1206386D01*
X2341013Y1205403D01*
X2340685Y1204311D01*
X2340467Y1203765D01*
X2340212Y1203255D01*
X2339884Y1202746D01*
X2339557Y1202236D01*
X2339520Y1202200D01*
X2339484Y1202127D01*
X2339375Y1201981D01*
X2339193Y1201799D01*
X2339011Y1201617D01*
X2338756Y1201362D01*
X2338465Y1201108D01*
X2338173Y1200816D01*
X2337809Y1200525D01*
X2337373Y1200234D01*
X2336936Y1199906D01*
X2336463Y1199615D01*
X2335917Y1199360D01*
X2335371Y1199069D01*
X2334788Y1198851D01*
X2334133Y1198632D01*
X2333369Y1201908D01*
X2333405D01*
X2333478Y1201945D01*
X2333624Y1202018D01*
X2333805Y1202090D01*
X2334024Y1202163D01*
X2334315Y1202272D01*
X2334898Y1202564D01*
X2335553Y1202928D01*
X2336208Y1203364D01*
X2336827Y1203910D01*
X2337373Y1204493D01*
X2337445Y1204566D01*
X2337591Y1204784D01*
X2337773Y1205148D01*
X2338028Y1205621D01*
X2338246Y1206240D01*
X2338465Y1206932D01*
X2338610Y1207769D01*
X2338647Y1208679D01*
Y1208970D01*
X2338610Y1209152D01*
Y1209407D01*
X2338574Y1209698D01*
X2338465Y1210390D01*
X2338319Y1211154D01*
X2338064Y1211955D01*
X2337700Y1212792D01*
X2337227Y1213556D01*
Y1213593D01*
X2337154Y1213629D01*
X2336972Y1213884D01*
X2336681Y1214212D01*
X2336244Y1214612D01*
X2335698Y1215085D01*
X2335079Y1215522D01*
X2334315Y1215922D01*
X2333478Y1216286D01*
X2333441D01*
X2333369Y1216323D01*
X2333260Y1216359D01*
X2333077Y1216396D01*
X2332859Y1216468D01*
X2332604Y1216541D01*
X2331985Y1216650D01*
X2331258Y1216796D01*
X2330457Y1216942D01*
X2329583Y1217014D01*
X2328637Y1217051D01*
X2328600D01*
X2328491D01*
X2328309D01*
X2328091D01*
X2327836Y1217014D01*
X2327508D01*
X2327144Y1216978D01*
X2326744Y1216942D01*
X2325870Y1216832D01*
X2324924Y1216650D01*
X2323977Y1216432D01*
X2323031Y1216141D01*
X2322995D01*
X2322922Y1216104D01*
X2322813Y1216032D01*
X2322631Y1215959D01*
X2322194Y1215740D01*
X2321684Y1215413D01*
X2321102Y1215012D01*
X2320483Y1214503D01*
X2319937Y1213920D01*
X2319427Y1213229D01*
Y1213192D01*
X2319391Y1213120D01*
X2319318Y1213010D01*
X2319245Y1212865D01*
X2319173Y1212683D01*
X2319064Y1212464D01*
X2318845Y1211955D01*
X2318627Y1211300D01*
X2318445Y1210572D01*
X2318299Y1209771D01*
X2318263Y1208934D01*
Y1208679D01*
X2318299Y1208460D01*
Y1208206D01*
X2318336Y1207951D01*
X2318481Y1207296D01*
X2318663Y1206531D01*
X2318954Y1205767D01*
X2319355Y1204966D01*
X2319573Y1204566D01*
X2319864Y1204202D01*
X2319901Y1204165D01*
X2319937Y1204129D01*
X2320046Y1204020D01*
X2320155Y1203874D01*
X2320338Y1203728D01*
X2320556Y1203546D01*
X2320774Y1203328D01*
X2321066Y1203146D01*
X2321393Y1202928D01*
X2321757Y1202673D01*
X2322121Y1202454D01*
X2322558Y1202236D01*
X2323031Y1202054D01*
X2323541Y1201872D01*
X2324087Y1201690D01*
X2324669Y1201544D01*
X2323832Y1198196D01*
X2323796D01*
X2323650Y1198232D01*
X2323432Y1198305D01*
X2323140Y1198414D01*
X2322813Y1198523D01*
X2322412Y1198669D01*
X2321976Y1198851D01*
X2321502Y1199069D01*
X2320483Y1199579D01*
X2319464Y1200234D01*
X2318954Y1200634D01*
X2318445Y1201035D01*
X2318008Y1201472D01*
X2317571Y1201981D01*
X2317535Y1202018D01*
X2317462Y1202090D01*
X2317389Y1202272D01*
X2317244Y1202454D01*
X2317061Y1202746D01*
X2316880Y1203037D01*
X2316698Y1203437D01*
X2316515Y1203838D01*
X2316297Y1204311D01*
X2316115Y1204820D01*
X2315933Y1205366D01*
X2315751Y1205949D01*
X2315606Y1206568D01*
X2315533Y1207223D01*
X2315460Y1207914D01*
X2315423Y1208642D01*
Y1209043D01*
X2315460Y1209334D01*
Y1209662D01*
X2315496Y1210062D01*
X2315569Y1210499D01*
X2315642Y1211008D01*
X2315824Y1212064D01*
X2316115Y1213156D01*
X2316515Y1214248D01*
X2316770Y1214758D01*
X2317061Y1215267D01*
X2317098Y1215304D01*
X2317134Y1215376D01*
X2317244Y1215522D01*
X2317389Y1215668D01*
X2317535Y1215886D01*
X2317753Y1216141D01*
X2318008Y1216432D01*
X2318299Y1216723D01*
X2318627Y1217014D01*
X2318954Y1217342D01*
X2319791Y1217997D01*
X2320774Y1218616D01*
X2321866Y1219162D01*
X2321903D01*
X2322012Y1219235D01*
X2322194Y1219271D01*
X2322412Y1219380D01*
X2322704Y1219453D01*
X2323068Y1219562D01*
X2323468Y1219708D01*
X2323905Y1219817D01*
X2324378Y1219926D01*
X2324924Y1220072D01*
X2326052Y1220254D01*
X2327326Y1220400D01*
X2328637Y1220472D01*
X2328673D01*
X2328819D01*
X2329037D01*
X2329292Y1220436D01*
D02*
G37*
G36*
X2322922Y1192226D02*
X2322885D01*
X2322813Y1192190D01*
X2322667Y1192153D01*
X2322485Y1192117D01*
X2322267Y1192080D01*
X2322012Y1192008D01*
X2321466Y1191826D01*
X2320811Y1191571D01*
X2320192Y1191243D01*
X2319610Y1190879D01*
X2319100Y1190442D01*
X2319064Y1190370D01*
X2318918Y1190224D01*
X2318736Y1189933D01*
X2318554Y1189569D01*
X2318336Y1189132D01*
X2318153Y1188586D01*
X2318008Y1187967D01*
X2317972Y1187312D01*
Y1187094D01*
X2318008Y1186948D01*
X2318044Y1186548D01*
X2318153Y1186038D01*
X2318336Y1185456D01*
X2318590Y1184837D01*
X2318954Y1184218D01*
X2319464Y1183636D01*
X2319537Y1183563D01*
X2319755Y1183381D01*
X2320083Y1183162D01*
X2320519Y1182871D01*
X2321066Y1182580D01*
X2321684Y1182362D01*
X2322412Y1182180D01*
X2323213Y1182107D01*
X2323249D01*
X2323322D01*
X2323432D01*
X2323577Y1182143D01*
X2323977Y1182180D01*
X2324451Y1182289D01*
X2325033Y1182434D01*
X2325615Y1182689D01*
X2326198Y1183053D01*
X2326744Y1183526D01*
X2326817Y1183599D01*
X2326962Y1183781D01*
X2327181Y1184072D01*
X2327436Y1184473D01*
X2327690Y1184982D01*
X2327909Y1185601D01*
X2328054Y1186293D01*
X2328127Y1187057D01*
Y1187385D01*
X2328091Y1187640D01*
X2328054Y1187967D01*
X2327981Y1188331D01*
X2327909Y1188768D01*
X2327800Y1189241D01*
X2330530Y1188877D01*
Y1188695D01*
X2330493Y1188550D01*
Y1188076D01*
X2330566Y1187676D01*
X2330639Y1187203D01*
X2330748Y1186657D01*
X2330930Y1186038D01*
X2331185Y1185456D01*
X2331512Y1184837D01*
Y1184800D01*
X2331549Y1184764D01*
X2331694Y1184582D01*
X2331949Y1184327D01*
X2332277Y1184036D01*
X2332750Y1183745D01*
X2333296Y1183490D01*
X2333915Y1183308D01*
X2334279Y1183235D01*
X2334679D01*
X2334715D01*
X2334752D01*
X2334970D01*
X2335262Y1183308D01*
X2335662Y1183381D01*
X2336099Y1183526D01*
X2336572Y1183708D01*
X2337045Y1184000D01*
X2337482Y1184400D01*
X2337518Y1184436D01*
X2337664Y1184618D01*
X2337846Y1184873D01*
X2338064Y1185201D01*
X2338246Y1185638D01*
X2338428Y1186147D01*
X2338574Y1186730D01*
X2338610Y1187385D01*
Y1187676D01*
X2338537Y1188004D01*
X2338465Y1188440D01*
X2338319Y1188914D01*
X2338137Y1189387D01*
X2337846Y1189896D01*
X2337482Y1190370D01*
X2337445Y1190406D01*
X2337264Y1190552D01*
X2337009Y1190770D01*
X2336645Y1191025D01*
X2336171Y1191280D01*
X2335589Y1191534D01*
X2334898Y1191753D01*
X2334097Y1191898D01*
X2334643Y1194992D01*
X2334679D01*
X2334788Y1194956D01*
X2334934Y1194920D01*
X2335152Y1194883D01*
X2335407Y1194810D01*
X2335698Y1194701D01*
X2336390Y1194483D01*
X2337191Y1194119D01*
X2337992Y1193682D01*
X2338756Y1193136D01*
X2339448Y1192444D01*
X2339484Y1192408D01*
X2339520Y1192335D01*
X2339593Y1192226D01*
X2339702Y1192080D01*
X2339848Y1191898D01*
X2339994Y1191644D01*
X2340139Y1191389D01*
X2340321Y1191061D01*
X2340612Y1190333D01*
X2340903Y1189496D01*
X2341086Y1188513D01*
X2341158Y1188004D01*
Y1187094D01*
X2341122Y1186693D01*
X2341049Y1186220D01*
X2340940Y1185638D01*
X2340758Y1184982D01*
X2340539Y1184327D01*
X2340248Y1183672D01*
Y1183636D01*
X2340212Y1183599D01*
X2340103Y1183381D01*
X2339884Y1183053D01*
X2339630Y1182689D01*
X2339265Y1182252D01*
X2338865Y1181816D01*
X2338392Y1181379D01*
X2337846Y1181015D01*
X2337773Y1180978D01*
X2337591Y1180869D01*
X2337264Y1180724D01*
X2336863Y1180542D01*
X2336390Y1180360D01*
X2335844Y1180214D01*
X2335225Y1180105D01*
X2334606Y1180068D01*
X2334534D01*
X2334315D01*
X2334024Y1180105D01*
X2333624Y1180178D01*
X2333150Y1180287D01*
X2332641Y1180469D01*
X2332131Y1180687D01*
X2331622Y1180978D01*
X2331549Y1181015D01*
X2331403Y1181124D01*
X2331148Y1181342D01*
X2330857Y1181634D01*
X2330530Y1181998D01*
X2330166Y1182434D01*
X2329838Y1182944D01*
X2329510Y1183563D01*
Y1183526D01*
X2329474Y1183454D01*
X2329438Y1183344D01*
X2329401Y1183199D01*
X2329256Y1182798D01*
X2329037Y1182289D01*
X2328746Y1181706D01*
X2328382Y1181124D01*
X2327909Y1180578D01*
X2327363Y1180068D01*
X2327290Y1180032D01*
X2327072Y1179886D01*
X2326707Y1179668D01*
X2326234Y1179450D01*
X2325652Y1179231D01*
X2324960Y1179013D01*
X2324160Y1178867D01*
X2323286Y1178831D01*
X2323249D01*
X2323140D01*
X2322958D01*
X2322740Y1178867D01*
X2322449Y1178904D01*
X2322121Y1178976D01*
X2321757Y1179049D01*
X2321357Y1179122D01*
X2320483Y1179413D01*
X2320010Y1179632D01*
X2319573Y1179850D01*
X2319100Y1180141D01*
X2318627Y1180469D01*
X2318153Y1180833D01*
X2317717Y1181270D01*
X2317680Y1181306D01*
X2317608Y1181379D01*
X2317498Y1181524D01*
X2317353Y1181706D01*
X2317171Y1181925D01*
X2316989Y1182216D01*
X2316770Y1182544D01*
X2316588Y1182944D01*
X2316370Y1183344D01*
X2316151Y1183818D01*
X2315970Y1184291D01*
X2315787Y1184837D01*
X2315642Y1185419D01*
X2315533Y1186038D01*
X2315460Y1186657D01*
X2315423Y1187348D01*
Y1187676D01*
X2315460Y1187894D01*
X2315496Y1188186D01*
X2315533Y1188513D01*
X2315606Y1188877D01*
X2315678Y1189278D01*
X2315897Y1190151D01*
X2316261Y1191061D01*
X2316479Y1191534D01*
X2316734Y1191971D01*
X2317061Y1192408D01*
X2317389Y1192845D01*
X2317425Y1192881D01*
X2317498Y1192954D01*
X2317608Y1193063D01*
X2317753Y1193172D01*
X2317935Y1193354D01*
X2318190Y1193536D01*
X2318445Y1193755D01*
X2318772Y1193973D01*
X2319136Y1194192D01*
X2319500Y1194410D01*
X2320374Y1194810D01*
X2321393Y1195138D01*
X2321939Y1195247D01*
X2322521Y1195320D01*
X2322922Y1192226D01*
D02*
G37*
G36*
X1857740Y1615425D02*
X1858213D01*
X1858759Y1615389D01*
X1859305Y1615316D01*
X1860542Y1615207D01*
X1861853Y1615025D01*
X1863090Y1614770D01*
X1863709Y1614588D01*
X1864255Y1614406D01*
X1864292D01*
X1864364Y1614369D01*
X1864510Y1614297D01*
X1864728Y1614224D01*
X1864947Y1614115D01*
X1865238Y1613969D01*
X1865857Y1613605D01*
X1866548Y1613168D01*
X1867276Y1612659D01*
X1867968Y1612003D01*
X1868587Y1611275D01*
Y1611239D01*
X1868660Y1611166D01*
X1868732Y1611057D01*
X1868805Y1610911D01*
X1868914Y1610693D01*
X1869060Y1610475D01*
X1869206Y1610183D01*
X1869315Y1609892D01*
X1869606Y1609201D01*
X1869861Y1608363D01*
X1870006Y1607453D01*
X1870079Y1606434D01*
Y1606143D01*
X1870043Y1605961D01*
Y1605706D01*
X1870006Y1605415D01*
X1869861Y1604723D01*
X1869679Y1603959D01*
X1869388Y1603158D01*
X1868987Y1602357D01*
X1868732Y1601957D01*
X1868441Y1601593D01*
X1868405Y1601557D01*
X1868368Y1601520D01*
X1868259Y1601411D01*
X1868150Y1601302D01*
X1867968Y1601156D01*
X1867750Y1600974D01*
X1867240Y1600610D01*
X1866585Y1600246D01*
X1865784Y1599882D01*
X1864874Y1599591D01*
X1863818Y1599373D01*
X1863564Y1602357D01*
X1863600D01*
X1863673Y1602394D01*
X1863746D01*
X1863891Y1602430D01*
X1864292Y1602539D01*
X1864728Y1602685D01*
X1865238Y1602867D01*
X1865748Y1603122D01*
X1866221Y1603413D01*
X1866621Y1603777D01*
X1866658Y1603813D01*
X1866767Y1603959D01*
X1866912Y1604214D01*
X1867058Y1604505D01*
X1867240Y1604905D01*
X1867386Y1605379D01*
X1867495Y1605925D01*
X1867531Y1606507D01*
Y1606762D01*
X1867495Y1607017D01*
X1867458Y1607344D01*
X1867386Y1607745D01*
X1867276Y1608145D01*
X1867131Y1608582D01*
X1866912Y1608982D01*
X1866876Y1609019D01*
X1866803Y1609164D01*
X1866658Y1609383D01*
X1866439Y1609601D01*
X1866184Y1609892D01*
X1865893Y1610183D01*
X1865566Y1610475D01*
X1865165Y1610766D01*
X1865129Y1610802D01*
X1864947Y1610875D01*
X1864692Y1611021D01*
X1864364Y1611166D01*
X1863928Y1611348D01*
X1863418Y1611530D01*
X1862836Y1611712D01*
X1862180Y1611894D01*
X1862144D01*
X1862108Y1611931D01*
X1861998D01*
X1861853Y1611967D01*
X1861489Y1612040D01*
X1861016Y1612149D01*
X1860433Y1612222D01*
X1859814Y1612295D01*
X1859123Y1612331D01*
X1858395Y1612367D01*
X1858358D01*
X1858249D01*
X1858067D01*
X1857776D01*
X1857849Y1612331D01*
X1858031Y1612185D01*
X1858286Y1611967D01*
X1858650Y1611712D01*
X1859014Y1611348D01*
X1859414Y1610911D01*
X1859814Y1610402D01*
X1860178Y1609819D01*
X1860215Y1609747D01*
X1860324Y1609528D01*
X1860470Y1609201D01*
X1860615Y1608800D01*
X1860797Y1608254D01*
X1860943Y1607672D01*
X1861052Y1607017D01*
X1861088Y1606325D01*
Y1606034D01*
X1861052Y1605815D01*
X1861016Y1605524D01*
X1860979Y1605233D01*
X1860906Y1604869D01*
X1860797Y1604505D01*
X1860542Y1603668D01*
X1860360Y1603231D01*
X1860142Y1602794D01*
X1859887Y1602321D01*
X1859560Y1601884D01*
X1859232Y1601447D01*
X1858832Y1601047D01*
X1858795Y1601011D01*
X1858722Y1600938D01*
X1858613Y1600865D01*
X1858431Y1600719D01*
X1858176Y1600537D01*
X1857922Y1600355D01*
X1857594Y1600173D01*
X1857230Y1599991D01*
X1856830Y1599773D01*
X1856393Y1599591D01*
X1855883Y1599409D01*
X1855374Y1599227D01*
X1854791Y1599081D01*
X1854172Y1599009D01*
X1853554Y1598936D01*
X1852862Y1598899D01*
X1852826D01*
X1852680D01*
X1852498D01*
X1852243Y1598936D01*
X1851916Y1598972D01*
X1851515Y1599009D01*
X1851115Y1599081D01*
X1850642Y1599191D01*
X1849695Y1599445D01*
X1849186Y1599627D01*
X1848640Y1599846D01*
X1848130Y1600101D01*
X1847657Y1600428D01*
X1847147Y1600756D01*
X1846710Y1601156D01*
X1846674Y1601193D01*
X1846601Y1601265D01*
X1846492Y1601375D01*
X1846346Y1601557D01*
X1846164Y1601775D01*
X1845946Y1602066D01*
X1845764Y1602357D01*
X1845509Y1602721D01*
X1845291Y1603085D01*
X1845109Y1603522D01*
X1844708Y1604505D01*
X1844563Y1605015D01*
X1844454Y1605597D01*
X1844381Y1606179D01*
X1844344Y1606798D01*
Y1607053D01*
X1844381Y1607235D01*
Y1607417D01*
X1844417Y1607672D01*
X1844526Y1608291D01*
X1844672Y1608982D01*
X1844927Y1609747D01*
X1845254Y1610511D01*
X1845691Y1611275D01*
Y1611312D01*
X1845764Y1611348D01*
X1845837Y1611457D01*
X1845946Y1611603D01*
X1846237Y1611967D01*
X1846638Y1612440D01*
X1847184Y1612913D01*
X1847839Y1613459D01*
X1848603Y1613933D01*
X1849477Y1614369D01*
X1849513D01*
X1849586Y1614406D01*
X1849732Y1614479D01*
X1849914Y1614551D01*
X1850168Y1614624D01*
X1850496Y1614733D01*
X1850860Y1614806D01*
X1851260Y1614915D01*
X1851734Y1615025D01*
X1852280Y1615134D01*
X1852862Y1615207D01*
X1853481Y1615279D01*
X1854172Y1615352D01*
X1854900Y1615425D01*
X1855701Y1615461D01*
X1856538D01*
X1856575D01*
X1856757D01*
X1857012D01*
X1857339D01*
X1857740Y1615425D01*
D02*
G37*
G36*
X1869642Y1592784D02*
X1864401Y1589472D01*
X1864364D01*
X1864292Y1589399D01*
X1864182Y1589326D01*
X1864037Y1589217D01*
X1863636Y1588962D01*
X1863127Y1588635D01*
X1862581Y1588234D01*
X1861998Y1587834D01*
X1861452Y1587433D01*
X1860943Y1587069D01*
X1860906Y1587033D01*
X1860761Y1586924D01*
X1860542Y1586742D01*
X1860288Y1586487D01*
X1859742Y1585941D01*
X1859487Y1585650D01*
X1859268Y1585359D01*
X1859232Y1585322D01*
X1859196Y1585249D01*
X1859123Y1585104D01*
X1859014Y1584885D01*
X1858904Y1584667D01*
X1858795Y1584412D01*
X1858613Y1583830D01*
Y1583793D01*
X1858577Y1583721D01*
Y1583575D01*
X1858540Y1583393D01*
X1858504Y1583138D01*
Y1582847D01*
X1858468Y1582447D01*
Y1578151D01*
X1869642D01*
Y1574803D01*
X1844454D01*
Y1586487D01*
X1844490Y1586778D01*
Y1587106D01*
X1844526Y1587870D01*
X1844636Y1588671D01*
X1844745Y1589545D01*
X1844927Y1590345D01*
X1845036Y1590746D01*
X1845145Y1591073D01*
Y1591110D01*
X1845182Y1591146D01*
X1845291Y1591365D01*
X1845436Y1591692D01*
X1845691Y1592093D01*
X1846019Y1592529D01*
X1846456Y1593003D01*
X1846965Y1593439D01*
X1847548Y1593876D01*
X1847584D01*
X1847620Y1593913D01*
X1847839Y1594058D01*
X1848203Y1594204D01*
X1848676Y1594422D01*
X1849222Y1594604D01*
X1849877Y1594786D01*
X1850569Y1594895D01*
X1851333Y1594932D01*
X1851370D01*
X1851442D01*
X1851588D01*
X1851770Y1594895D01*
X1852025D01*
X1852280Y1594859D01*
X1852898Y1594713D01*
X1853626Y1594495D01*
X1854391Y1594204D01*
X1855155Y1593767D01*
X1855519Y1593476D01*
X1855883Y1593185D01*
X1855920Y1593148D01*
X1855956Y1593112D01*
X1856065Y1593003D01*
X1856174Y1592857D01*
X1856320Y1592675D01*
X1856466Y1592457D01*
X1856648Y1592165D01*
X1856866Y1591874D01*
X1857048Y1591510D01*
X1857230Y1591110D01*
X1857448Y1590673D01*
X1857630Y1590200D01*
X1857776Y1589654D01*
X1857958Y1589108D01*
X1858067Y1588489D01*
X1858176Y1587834D01*
X1858213Y1587907D01*
X1858286Y1588052D01*
X1858431Y1588271D01*
X1858577Y1588562D01*
X1858977Y1589217D01*
X1859232Y1589545D01*
X1859450Y1589836D01*
X1859523Y1589909D01*
X1859705Y1590091D01*
X1859996Y1590382D01*
X1860360Y1590746D01*
X1860870Y1591146D01*
X1861416Y1591619D01*
X1862071Y1592093D01*
X1862799Y1592602D01*
X1869642Y1596934D01*
Y1592784D01*
D02*
G37*
G36*
X2229913Y1606426D02*
X2229876Y1606135D01*
Y1605807D01*
X2229840Y1605043D01*
X2229731Y1604242D01*
X2229622Y1603369D01*
X2229439Y1602568D01*
X2229330Y1602167D01*
X2229221Y1601840D01*
Y1601803D01*
X2229185Y1601767D01*
X2229075Y1601549D01*
X2228930Y1601221D01*
X2228675Y1600821D01*
X2228347Y1600384D01*
X2227911Y1599911D01*
X2227401Y1599474D01*
X2226819Y1599037D01*
X2226782D01*
X2226746Y1599001D01*
X2226528Y1598855D01*
X2226164Y1598709D01*
X2225690Y1598491D01*
X2225144Y1598309D01*
X2224489Y1598127D01*
X2223798Y1598018D01*
X2223033Y1597981D01*
X2222997D01*
X2222924D01*
X2222778D01*
X2222596Y1598018D01*
X2222341D01*
X2222087Y1598054D01*
X2221468Y1598200D01*
X2220740Y1598418D01*
X2219976Y1598709D01*
X2219211Y1599146D01*
X2218847Y1599437D01*
X2218483Y1599729D01*
X2218447Y1599765D01*
X2218410Y1599801D01*
X2218301Y1599911D01*
X2218192Y1600056D01*
X2218046Y1600238D01*
X2217901Y1600457D01*
X2217719Y1600748D01*
X2217500Y1601039D01*
X2217318Y1601403D01*
X2217136Y1601803D01*
X2216918Y1602240D01*
X2216736Y1602713D01*
X2216590Y1603259D01*
X2216408Y1603805D01*
X2216299Y1604424D01*
X2216190Y1605079D01*
X2216153Y1605007D01*
X2216081Y1604861D01*
X2215935Y1604643D01*
X2215789Y1604351D01*
X2215389Y1603696D01*
X2215134Y1603369D01*
X2214916Y1603077D01*
X2214843Y1603005D01*
X2214661Y1602823D01*
X2214370Y1602531D01*
X2214006Y1602167D01*
X2213496Y1601767D01*
X2212950Y1601294D01*
X2212295Y1600821D01*
X2211567Y1600311D01*
X2204724Y1595979D01*
Y1600129D01*
X2209965Y1603441D01*
X2210002D01*
X2210075Y1603514D01*
X2210184Y1603587D01*
X2210329Y1603696D01*
X2210730Y1603951D01*
X2211240Y1604279D01*
X2211785Y1604679D01*
X2212368Y1605079D01*
X2212914Y1605480D01*
X2213423Y1605844D01*
X2213460Y1605880D01*
X2213606Y1605989D01*
X2213824Y1606171D01*
X2214079Y1606426D01*
X2214625Y1606972D01*
X2214880Y1607263D01*
X2215098Y1607555D01*
X2215134Y1607591D01*
X2215171Y1607664D01*
X2215244Y1607809D01*
X2215353Y1608028D01*
X2215462Y1608246D01*
X2215571Y1608501D01*
X2215753Y1609083D01*
Y1609120D01*
X2215789Y1609193D01*
Y1609338D01*
X2215826Y1609520D01*
X2215862Y1609775D01*
Y1610066D01*
X2215899Y1610467D01*
Y1614762D01*
X2204724D01*
Y1618111D01*
X2229913D01*
Y1606426D01*
D02*
G37*
G36*
X2229585Y1577488D02*
X2227146D01*
X2227110Y1577525D01*
X2227037Y1577597D01*
X2226892Y1577743D01*
X2226673Y1577889D01*
X2226418Y1578107D01*
X2226127Y1578398D01*
X2225763Y1578689D01*
X2225326Y1579017D01*
X2224890Y1579345D01*
X2224380Y1579745D01*
X2223798Y1580145D01*
X2223215Y1580546D01*
X2222560Y1580983D01*
X2221868Y1581419D01*
X2221104Y1581856D01*
X2220340Y1582293D01*
X2220303Y1582329D01*
X2220157Y1582402D01*
X2219939Y1582511D01*
X2219611Y1582693D01*
X2219211Y1582875D01*
X2218774Y1583094D01*
X2218265Y1583349D01*
X2217682Y1583603D01*
X2217027Y1583895D01*
X2216372Y1584222D01*
X2215644Y1584513D01*
X2214880Y1584805D01*
X2213314Y1585387D01*
X2211640Y1585933D01*
X2211604D01*
X2211494Y1585969D01*
X2211312Y1586006D01*
X2211094Y1586079D01*
X2210803Y1586151D01*
X2210439Y1586224D01*
X2210038Y1586333D01*
X2209602Y1586406D01*
X2209092Y1586515D01*
X2208546Y1586625D01*
X2207381Y1586807D01*
X2206107Y1586989D01*
X2204724Y1587098D01*
Y1590265D01*
X2204760D01*
X2204869D01*
X2205015D01*
X2205233Y1590228D01*
X2205525D01*
X2205889Y1590192D01*
X2206289Y1590155D01*
X2206726Y1590119D01*
X2207235Y1590046D01*
X2207745Y1589973D01*
X2208364Y1589864D01*
X2208983Y1589755D01*
X2209638Y1589646D01*
X2210366Y1589500D01*
X2211858Y1589136D01*
X2211895D01*
X2212040Y1589100D01*
X2212259Y1589027D01*
X2212586Y1588918D01*
X2212950Y1588809D01*
X2213387Y1588663D01*
X2213897Y1588517D01*
X2214443Y1588299D01*
X2215061Y1588081D01*
X2215680Y1587862D01*
X2217064Y1587316D01*
X2218519Y1586661D01*
X2219976Y1585933D01*
X2220012Y1585897D01*
X2220157Y1585824D01*
X2220340Y1585715D01*
X2220631Y1585569D01*
X2220958Y1585387D01*
X2221359Y1585132D01*
X2221796Y1584877D01*
X2222269Y1584586D01*
X2223324Y1583895D01*
X2224416Y1583167D01*
X2225545Y1582329D01*
X2226600Y1581456D01*
Y1593795D01*
X2229585D01*
Y1577488D01*
D02*
G37*
G36*
X2446885Y1602489D02*
X2446849Y1602198D01*
Y1601870D01*
X2446812Y1601106D01*
X2446703Y1600305D01*
X2446594Y1599432D01*
X2446412Y1598631D01*
X2446303Y1598230D01*
X2446194Y1597903D01*
Y1597867D01*
X2446157Y1597830D01*
X2446048Y1597612D01*
X2445902Y1597284D01*
X2445648Y1596884D01*
X2445320Y1596447D01*
X2444883Y1595974D01*
X2444374Y1595537D01*
X2443791Y1595100D01*
X2443755D01*
X2443718Y1595064D01*
X2443500Y1594918D01*
X2443136Y1594773D01*
X2442663Y1594554D01*
X2442117Y1594372D01*
X2441462Y1594190D01*
X2440770Y1594081D01*
X2440006Y1594044D01*
X2439969D01*
X2439896D01*
X2439751D01*
X2439569Y1594081D01*
X2439314D01*
X2439059Y1594117D01*
X2438440Y1594263D01*
X2437712Y1594481D01*
X2436948Y1594773D01*
X2436184Y1595209D01*
X2435820Y1595501D01*
X2435456Y1595792D01*
X2435419Y1595828D01*
X2435383Y1595864D01*
X2435274Y1595974D01*
X2435164Y1596119D01*
X2435019Y1596301D01*
X2434873Y1596520D01*
X2434691Y1596811D01*
X2434473Y1597102D01*
X2434291Y1597466D01*
X2434109Y1597867D01*
X2433890Y1598303D01*
X2433708Y1598776D01*
X2433563Y1599322D01*
X2433381Y1599869D01*
X2433272Y1600487D01*
X2433162Y1601142D01*
X2433126Y1601070D01*
X2433053Y1600924D01*
X2432908Y1600706D01*
X2432762Y1600415D01*
X2432362Y1599759D01*
X2432107Y1599432D01*
X2431888Y1599140D01*
X2431816Y1599068D01*
X2431634Y1598886D01*
X2431342Y1598594D01*
X2430978Y1598230D01*
X2430469Y1597830D01*
X2429923Y1597357D01*
X2429268Y1596884D01*
X2428540Y1596374D01*
X2421696Y1592043D01*
Y1596192D01*
X2426938Y1599505D01*
X2426974D01*
X2427047Y1599577D01*
X2427156Y1599650D01*
X2427302Y1599759D01*
X2427702Y1600014D01*
X2428212Y1600342D01*
X2428758Y1600742D01*
X2429340Y1601142D01*
X2429886Y1601543D01*
X2430396Y1601907D01*
X2430432Y1601943D01*
X2430578Y1602053D01*
X2430796Y1602235D01*
X2431051Y1602489D01*
X2431597Y1603035D01*
X2431852Y1603326D01*
X2432070Y1603618D01*
X2432107Y1603654D01*
X2432143Y1603727D01*
X2432216Y1603872D01*
X2432325Y1604091D01*
X2432434Y1604309D01*
X2432544Y1604564D01*
X2432726Y1605147D01*
Y1605183D01*
X2432762Y1605256D01*
Y1605401D01*
X2432798Y1605583D01*
X2432835Y1605838D01*
Y1606129D01*
X2432871Y1606530D01*
Y1610825D01*
X2421696D01*
Y1614174D01*
X2446885D01*
Y1602489D01*
D02*
G37*
G36*
X2428540Y1586837D02*
X2428503D01*
X2428430D01*
X2428321Y1586801D01*
X2428139Y1586764D01*
X2427739Y1586655D01*
X2427193Y1586510D01*
X2426647Y1586291D01*
X2426028Y1586000D01*
X2425482Y1585636D01*
X2424972Y1585199D01*
X2424936Y1585127D01*
X2424790Y1584981D01*
X2424608Y1584690D01*
X2424390Y1584289D01*
X2424172Y1583852D01*
X2423990Y1583306D01*
X2423844Y1582688D01*
X2423808Y1581996D01*
Y1581778D01*
X2423844Y1581632D01*
X2423880Y1581195D01*
X2424026Y1580686D01*
X2424208Y1580067D01*
X2424499Y1579448D01*
X2424936Y1578793D01*
X2425191Y1578502D01*
X2425482Y1578210D01*
X2425518Y1578174D01*
X2425555Y1578138D01*
X2425664Y1578065D01*
X2425773Y1577956D01*
X2426174Y1577701D01*
X2426683Y1577410D01*
X2427302Y1577155D01*
X2428066Y1576900D01*
X2428976Y1576718D01*
X2429450Y1576645D01*
X2429959D01*
X2429996D01*
X2430068D01*
X2430214D01*
X2430396Y1576682D01*
X2430614D01*
X2430869Y1576718D01*
X2431452Y1576827D01*
X2432143Y1577009D01*
X2432835Y1577264D01*
X2433490Y1577628D01*
X2434109Y1578138D01*
X2434145D01*
X2434182Y1578210D01*
X2434364Y1578392D01*
X2434618Y1578720D01*
X2434910Y1579157D01*
X2435164Y1579739D01*
X2435419Y1580395D01*
X2435601Y1581159D01*
X2435674Y1581596D01*
Y1582287D01*
X2435638Y1582579D01*
X2435601Y1582943D01*
X2435492Y1583379D01*
X2435383Y1583816D01*
X2435201Y1584289D01*
X2434982Y1584763D01*
X2434946Y1584799D01*
X2434873Y1584945D01*
X2434691Y1585163D01*
X2434509Y1585454D01*
X2434254Y1585745D01*
X2433927Y1586036D01*
X2433599Y1586364D01*
X2433199Y1586619D01*
X2433599Y1589531D01*
X2446558Y1587092D01*
Y1574571D01*
X2443609D01*
Y1584653D01*
X2436802Y1586000D01*
X2436839Y1585964D01*
X2436875Y1585891D01*
X2436948Y1585782D01*
X2437057Y1585600D01*
X2437166Y1585381D01*
X2437312Y1585127D01*
X2437603Y1584544D01*
X2437894Y1583816D01*
X2438149Y1583015D01*
X2438331Y1582142D01*
X2438404Y1581705D01*
Y1580904D01*
X2438368Y1580686D01*
X2438331Y1580395D01*
X2438295Y1580067D01*
X2438222Y1579703D01*
X2438113Y1579303D01*
X2437858Y1578429D01*
X2437676Y1577956D01*
X2437421Y1577483D01*
X2437166Y1577009D01*
X2436875Y1576536D01*
X2436511Y1576099D01*
X2436111Y1575662D01*
X2436074Y1575626D01*
X2436002Y1575553D01*
X2435892Y1575444D01*
X2435710Y1575299D01*
X2435456Y1575117D01*
X2435201Y1574935D01*
X2434873Y1574716D01*
X2434509Y1574498D01*
X2434109Y1574316D01*
X2433672Y1574097D01*
X2433162Y1573915D01*
X2432653Y1573733D01*
X2432107Y1573588D01*
X2431488Y1573478D01*
X2430869Y1573406D01*
X2430214Y1573369D01*
X2430178D01*
X2430068D01*
X2429886D01*
X2429632Y1573406D01*
X2429340Y1573442D01*
X2429013Y1573478D01*
X2428612Y1573551D01*
X2428212Y1573624D01*
X2427266Y1573842D01*
X2426283Y1574207D01*
X2425773Y1574425D01*
X2425300Y1574716D01*
X2424790Y1575007D01*
X2424317Y1575371D01*
X2424281Y1575408D01*
X2424172Y1575480D01*
X2424026Y1575626D01*
X2423844Y1575808D01*
X2423626Y1576063D01*
X2423334Y1576354D01*
X2423080Y1576718D01*
X2422788Y1577119D01*
X2422497Y1577555D01*
X2422242Y1578065D01*
X2421988Y1578611D01*
X2421733Y1579193D01*
X2421551Y1579812D01*
X2421405Y1580504D01*
X2421296Y1581232D01*
X2421260Y1581996D01*
Y1582324D01*
X2421296Y1582579D01*
X2421332Y1582870D01*
X2421369Y1583197D01*
X2421405Y1583598D01*
X2421514Y1583998D01*
X2421733Y1584908D01*
X2422060Y1585818D01*
X2422279Y1586291D01*
X2422534Y1586764D01*
X2422825Y1587201D01*
X2423152Y1587638D01*
X2423189Y1587675D01*
X2423225Y1587747D01*
X2423371Y1587820D01*
X2423516Y1587966D01*
X2423698Y1588148D01*
X2423917Y1588330D01*
X2424208Y1588548D01*
X2424536Y1588730D01*
X2424863Y1588948D01*
X2425264Y1589167D01*
X2426137Y1589567D01*
X2427156Y1589895D01*
X2427702Y1590004D01*
X2428285Y1590077D01*
X2428540Y1586837D01*
D02*
G37*
G36*
X2628535Y1394812D02*
X2628498Y1394521D01*
Y1394193D01*
X2628462Y1393429D01*
X2628353Y1392628D01*
X2628244Y1391755D01*
X2628062Y1390954D01*
X2627952Y1390553D01*
X2627843Y1390226D01*
Y1390189D01*
X2627807Y1390153D01*
X2627698Y1389935D01*
X2627552Y1389607D01*
X2627297Y1389207D01*
X2626970Y1388770D01*
X2626533Y1388297D01*
X2626023Y1387860D01*
X2625441Y1387423D01*
X2625404D01*
X2625368Y1387387D01*
X2625150Y1387241D01*
X2624786Y1387095D01*
X2624312Y1386877D01*
X2623766Y1386695D01*
X2623111Y1386513D01*
X2622420Y1386404D01*
X2621655Y1386367D01*
X2621619D01*
X2621546D01*
X2621400D01*
X2621218Y1386404D01*
X2620964D01*
X2620709Y1386440D01*
X2620090Y1386586D01*
X2619362Y1386804D01*
X2618598Y1387095D01*
X2617833Y1387532D01*
X2617469Y1387823D01*
X2617105Y1388115D01*
X2617069Y1388151D01*
X2617032Y1388187D01*
X2616923Y1388297D01*
X2616814Y1388442D01*
X2616668Y1388624D01*
X2616523Y1388843D01*
X2616341Y1389134D01*
X2616122Y1389425D01*
X2615940Y1389789D01*
X2615758Y1390189D01*
X2615540Y1390626D01*
X2615358Y1391099D01*
X2615212Y1391645D01*
X2615030Y1392191D01*
X2614921Y1392810D01*
X2614812Y1393465D01*
X2614776Y1393393D01*
X2614703Y1393247D01*
X2614557Y1393029D01*
X2614412Y1392737D01*
X2614011Y1392082D01*
X2613756Y1391755D01*
X2613538Y1391463D01*
X2613465Y1391391D01*
X2613283Y1391209D01*
X2612992Y1390917D01*
X2612628Y1390553D01*
X2612118Y1390153D01*
X2611572Y1389680D01*
X2610917Y1389207D01*
X2610189Y1388697D01*
X2603346Y1384365D01*
Y1388515D01*
X2608588Y1391827D01*
X2608624D01*
X2608697Y1391900D01*
X2608806Y1391973D01*
X2608952Y1392082D01*
X2609352Y1392337D01*
X2609862Y1392665D01*
X2610408Y1393065D01*
X2610990Y1393465D01*
X2611536Y1393866D01*
X2612046Y1394230D01*
X2612082Y1394266D01*
X2612228Y1394375D01*
X2612446Y1394557D01*
X2612701Y1394812D01*
X2613247Y1395358D01*
X2613502Y1395649D01*
X2613720Y1395941D01*
X2613756Y1395977D01*
X2613793Y1396050D01*
X2613866Y1396195D01*
X2613975Y1396414D01*
X2614084Y1396632D01*
X2614193Y1396887D01*
X2614375Y1397469D01*
Y1397506D01*
X2614412Y1397579D01*
Y1397724D01*
X2614448Y1397906D01*
X2614484Y1398161D01*
Y1398452D01*
X2614521Y1398853D01*
Y1403148D01*
X2603346D01*
Y1406497D01*
X2628535D01*
Y1394812D01*
D02*
G37*
G36*
Y1371917D02*
Y1369405D01*
X2612228D01*
Y1365983D01*
X2609388D01*
Y1369405D01*
X2603346D01*
Y1372499D01*
X2609388D01*
Y1383455D01*
X2612228D01*
X2628535Y1371917D01*
D02*
G37*
G36*
X1870079Y1933108D02*
X1870043D01*
X1869897D01*
X1869679D01*
X1869388Y1933145D01*
X1869060Y1933181D01*
X1868696Y1933254D01*
X1868332Y1933327D01*
X1867931Y1933472D01*
X1867895D01*
X1867859Y1933509D01*
X1867640Y1933582D01*
X1867313Y1933727D01*
X1866876Y1933946D01*
X1866366Y1934237D01*
X1865784Y1934601D01*
X1865201Y1935001D01*
X1864583Y1935511D01*
X1864546D01*
X1864510Y1935584D01*
X1864292Y1935766D01*
X1863964Y1936093D01*
X1863491Y1936566D01*
X1862945Y1937112D01*
X1862290Y1937804D01*
X1861562Y1938641D01*
X1860797Y1939551D01*
X1860761Y1939588D01*
X1860651Y1939733D01*
X1860469Y1939952D01*
X1860251Y1940206D01*
X1859960Y1940534D01*
X1859632Y1940934D01*
X1859268Y1941335D01*
X1858868Y1941808D01*
X1857994Y1942718D01*
X1857121Y1943628D01*
X1856684Y1944065D01*
X1856247Y1944465D01*
X1855847Y1944829D01*
X1855446Y1945120D01*
X1855410D01*
X1855373Y1945193D01*
X1855264Y1945266D01*
X1855119Y1945339D01*
X1854718Y1945594D01*
X1854245Y1945885D01*
X1853663Y1946140D01*
X1853044Y1946394D01*
X1852352Y1946540D01*
X1851697Y1946613D01*
X1851661D01*
X1851624D01*
X1851406Y1946576D01*
X1851042Y1946540D01*
X1850641Y1946431D01*
X1850132Y1946285D01*
X1849622Y1946030D01*
X1849113Y1945703D01*
X1848603Y1945266D01*
X1848530Y1945193D01*
X1848385Y1945011D01*
X1848203Y1944756D01*
X1847948Y1944356D01*
X1847729Y1943846D01*
X1847511Y1943264D01*
X1847366Y1942572D01*
X1847329Y1941808D01*
Y1941590D01*
X1847366Y1941444D01*
X1847402Y1941007D01*
X1847511Y1940498D01*
X1847657Y1939952D01*
X1847911Y1939333D01*
X1848239Y1938750D01*
X1848676Y1938204D01*
X1848749Y1938132D01*
X1848931Y1937986D01*
X1849222Y1937768D01*
X1849659Y1937549D01*
X1850168Y1937294D01*
X1850823Y1937076D01*
X1851552Y1936930D01*
X1852389Y1936858D01*
X1852061Y1933691D01*
X1852025D01*
X1851916Y1933727D01*
X1851734D01*
X1851479Y1933764D01*
X1851188Y1933836D01*
X1850860Y1933909D01*
X1850459Y1934018D01*
X1850059Y1934128D01*
X1849186Y1934419D01*
X1848312Y1934856D01*
X1847875Y1935110D01*
X1847438Y1935438D01*
X1847038Y1935766D01*
X1846674Y1936130D01*
X1846638Y1936166D01*
X1846601Y1936239D01*
X1846492Y1936348D01*
X1846383Y1936530D01*
X1846237Y1936748D01*
X1846091Y1937003D01*
X1845909Y1937294D01*
X1845727Y1937658D01*
X1845545Y1938059D01*
X1845363Y1938496D01*
X1845218Y1938969D01*
X1845072Y1939478D01*
X1844963Y1940024D01*
X1844854Y1940607D01*
X1844818Y1941226D01*
X1844781Y1941881D01*
Y1942245D01*
X1844818Y1942500D01*
X1844854Y1942791D01*
X1844890Y1943155D01*
X1844963Y1943555D01*
X1845036Y1943956D01*
X1845291Y1944902D01*
X1845655Y1945848D01*
X1845873Y1946322D01*
X1846128Y1946795D01*
X1846456Y1947232D01*
X1846820Y1947632D01*
X1846856Y1947668D01*
X1846892Y1947741D01*
X1847038Y1947814D01*
X1847184Y1947960D01*
X1847366Y1948142D01*
X1847620Y1948324D01*
X1847875Y1948506D01*
X1848203Y1948724D01*
X1848894Y1949088D01*
X1849768Y1949452D01*
X1850205Y1949598D01*
X1850714Y1949670D01*
X1851224Y1949743D01*
X1851770Y1949780D01*
X1851843D01*
X1852025D01*
X1852316Y1949743D01*
X1852716Y1949707D01*
X1853153Y1949634D01*
X1853663Y1949488D01*
X1854209Y1949343D01*
X1854755Y1949124D01*
X1854828Y1949088D01*
X1855009Y1949015D01*
X1855301Y1948870D01*
X1855701Y1948651D01*
X1856138Y1948360D01*
X1856684Y1947996D01*
X1857230Y1947559D01*
X1857849Y1947050D01*
X1857921Y1946977D01*
X1858140Y1946795D01*
X1858322Y1946613D01*
X1858504Y1946431D01*
X1858722Y1946212D01*
X1859014Y1945921D01*
X1859305Y1945630D01*
X1859632Y1945266D01*
X1859996Y1944902D01*
X1860397Y1944465D01*
X1860797Y1943992D01*
X1861270Y1943482D01*
X1861744Y1942900D01*
X1862253Y1942318D01*
X1862290Y1942281D01*
X1862362Y1942208D01*
X1862472Y1942063D01*
X1862617Y1941881D01*
X1862835Y1941662D01*
X1863054Y1941408D01*
X1863527Y1940825D01*
X1864073Y1940206D01*
X1864619Y1939624D01*
X1865092Y1939114D01*
X1865274Y1938896D01*
X1865456Y1938714D01*
X1865493Y1938678D01*
X1865602Y1938568D01*
X1865747Y1938423D01*
X1865966Y1938241D01*
X1866221Y1938059D01*
X1866476Y1937840D01*
X1867094Y1937404D01*
Y1949816D01*
X1870079D01*
Y1933108D01*
D02*
G37*
G36*
Y1927430D02*
X1864838Y1924118D01*
X1864801D01*
X1864728Y1924045D01*
X1864619Y1923972D01*
X1864474Y1923863D01*
X1864073Y1923608D01*
X1863563Y1923280D01*
X1863017Y1922880D01*
X1862435Y1922480D01*
X1861889Y1922079D01*
X1861380Y1921715D01*
X1861343Y1921679D01*
X1861197Y1921570D01*
X1860979Y1921388D01*
X1860724Y1921133D01*
X1860178Y1920587D01*
X1859924Y1920296D01*
X1859705Y1920004D01*
X1859669Y1919968D01*
X1859632Y1919895D01*
X1859560Y1919750D01*
X1859450Y1919531D01*
X1859341Y1919313D01*
X1859232Y1919058D01*
X1859050Y1918476D01*
Y1918439D01*
X1859014Y1918366D01*
Y1918221D01*
X1858977Y1918039D01*
X1858941Y1917784D01*
Y1917493D01*
X1858904Y1917092D01*
Y1912797D01*
X1870079D01*
Y1909448D01*
X1844890D01*
Y1921133D01*
X1844927Y1921424D01*
Y1921752D01*
X1844963Y1922516D01*
X1845072Y1923317D01*
X1845181Y1924190D01*
X1845363Y1924991D01*
X1845473Y1925392D01*
X1845582Y1925719D01*
Y1925756D01*
X1845618Y1925792D01*
X1845727Y1926010D01*
X1845873Y1926338D01*
X1846128Y1926738D01*
X1846456Y1927175D01*
X1846892Y1927648D01*
X1847402Y1928085D01*
X1847984Y1928522D01*
X1848021D01*
X1848057Y1928558D01*
X1848275Y1928704D01*
X1848639Y1928850D01*
X1849113Y1929068D01*
X1849659Y1929250D01*
X1850314Y1929432D01*
X1851005Y1929541D01*
X1851770Y1929578D01*
X1851806D01*
X1851879D01*
X1852025D01*
X1852207Y1929541D01*
X1852461D01*
X1852716Y1929505D01*
X1853335Y1929359D01*
X1854063Y1929141D01*
X1854828Y1928850D01*
X1855592Y1928413D01*
X1855956Y1928122D01*
X1856320Y1927830D01*
X1856356Y1927794D01*
X1856393Y1927758D01*
X1856502Y1927648D01*
X1856611Y1927503D01*
X1856757Y1927321D01*
X1856902Y1927102D01*
X1857084Y1926811D01*
X1857303Y1926520D01*
X1857485Y1926156D01*
X1857667Y1925756D01*
X1857885Y1925319D01*
X1858067Y1924846D01*
X1858213Y1924300D01*
X1858395Y1923754D01*
X1858504Y1923135D01*
X1858613Y1922480D01*
X1858649Y1922552D01*
X1858722Y1922698D01*
X1858868Y1922916D01*
X1859014Y1923208D01*
X1859414Y1923863D01*
X1859669Y1924190D01*
X1859887Y1924482D01*
X1859960Y1924554D01*
X1860142Y1924736D01*
X1860433Y1925028D01*
X1860797Y1925392D01*
X1861307Y1925792D01*
X1861853Y1926265D01*
X1862508Y1926738D01*
X1863236Y1927248D01*
X1870079Y1931580D01*
Y1927430D01*
D02*
G37*
G36*
X874113Y1983200D02*
X874076D01*
X874004D01*
X873858D01*
X873640Y1983163D01*
X873421Y1983127D01*
X873166D01*
X872548Y1983018D01*
X871892Y1982909D01*
X871237Y1982690D01*
X870655Y1982472D01*
X870400Y1982326D01*
X870182Y1982144D01*
X870145Y1982108D01*
X870036Y1981962D01*
X869854Y1981744D01*
X869672Y1981453D01*
X869454Y1981052D01*
X869308Y1980615D01*
X869162Y1980069D01*
X869126Y1979487D01*
Y1979269D01*
X869162Y1979050D01*
X869199Y1978723D01*
X869272Y1978395D01*
X869344Y1978031D01*
X869490Y1977667D01*
X869672Y1977303D01*
X869708Y1977267D01*
X869781Y1977157D01*
X869927Y1977012D01*
X870072Y1976793D01*
X870327Y1976611D01*
X870582Y1976393D01*
X870873Y1976211D01*
X871237Y1976065D01*
X871274D01*
X871419Y1975993D01*
X871674Y1975956D01*
X872002Y1975883D01*
X872438Y1975811D01*
X872984Y1975774D01*
X873640Y1975701D01*
X874404D01*
X891767D01*
Y1972353D01*
X874586D01*
X874550D01*
X874440D01*
X874295D01*
X874076D01*
X873785Y1972389D01*
X873494D01*
X872802Y1972462D01*
X872002Y1972535D01*
X871164Y1972680D01*
X870400Y1972899D01*
X869672Y1973153D01*
X869636D01*
X869599Y1973190D01*
X869381Y1973299D01*
X869090Y1973481D01*
X868689Y1973736D01*
X868289Y1974100D01*
X867852Y1974500D01*
X867415Y1975010D01*
X867051Y1975592D01*
X867015Y1975665D01*
X866906Y1975883D01*
X866760Y1976211D01*
X866614Y1976684D01*
X866432Y1977267D01*
X866287Y1977922D01*
X866178Y1978650D01*
X866141Y1979451D01*
Y1979778D01*
X866178Y1979997D01*
X866214Y1980288D01*
X866250Y1980579D01*
X866396Y1981343D01*
X866614Y1982144D01*
X866942Y1982981D01*
X867160Y1983418D01*
X867415Y1983819D01*
X867706Y1984183D01*
X868034Y1984547D01*
X868070Y1984583D01*
X868107Y1984619D01*
X868252Y1984692D01*
X868398Y1984801D01*
X868580Y1984947D01*
X868835Y1985093D01*
X869126Y1985238D01*
X869454Y1985420D01*
X869818Y1985566D01*
X870254Y1985711D01*
X870691Y1985857D01*
X871201Y1986003D01*
X871747Y1986075D01*
X872366Y1986185D01*
X872984Y1986221D01*
X873676D01*
X874113Y1983200D01*
D02*
G37*
G36*
X873640Y1965036D02*
X873603D01*
X873530Y1965000D01*
X873385Y1964963D01*
X873203Y1964927D01*
X872984Y1964891D01*
X872730Y1964818D01*
X872184Y1964636D01*
X871528Y1964381D01*
X870910Y1964053D01*
X870327Y1963689D01*
X869818Y1963253D01*
X869781Y1963180D01*
X869636Y1963034D01*
X869454Y1962743D01*
X869272Y1962379D01*
X869053Y1961942D01*
X868871Y1961396D01*
X868726Y1960777D01*
X868689Y1960122D01*
Y1959904D01*
X868726Y1959758D01*
X868762Y1959358D01*
X868871Y1958848D01*
X869053Y1958266D01*
X869308Y1957647D01*
X869672Y1957028D01*
X870182Y1956446D01*
X870254Y1956373D01*
X870473Y1956191D01*
X870800Y1955973D01*
X871237Y1955681D01*
X871783Y1955390D01*
X872402Y1955172D01*
X873130Y1954990D01*
X873931Y1954917D01*
X873967D01*
X874040D01*
X874149D01*
X874295Y1954953D01*
X874695Y1954990D01*
X875168Y1955099D01*
X875751Y1955245D01*
X876333Y1955499D01*
X876916Y1955863D01*
X877462Y1956337D01*
X877534Y1956409D01*
X877680Y1956591D01*
X877898Y1956883D01*
X878153Y1957283D01*
X878408Y1957793D01*
X878626Y1958411D01*
X878772Y1959103D01*
X878845Y1959867D01*
Y1960195D01*
X878808Y1960450D01*
X878772Y1960777D01*
X878699Y1961141D01*
X878626Y1961578D01*
X878517Y1962051D01*
X881247Y1961687D01*
Y1961505D01*
X881211Y1961360D01*
Y1960887D01*
X881284Y1960486D01*
X881356Y1960013D01*
X881466Y1959467D01*
X881648Y1958848D01*
X881902Y1958266D01*
X882230Y1957647D01*
Y1957611D01*
X882266Y1957574D01*
X882412Y1957392D01*
X882667Y1957137D01*
X882994Y1956846D01*
X883468Y1956555D01*
X884014Y1956300D01*
X884632Y1956118D01*
X884996Y1956045D01*
X885397D01*
X885433D01*
X885470D01*
X885688D01*
X885979Y1956118D01*
X886380Y1956191D01*
X886816Y1956337D01*
X887290Y1956519D01*
X887763Y1956810D01*
X888200Y1957210D01*
X888236Y1957247D01*
X888382Y1957429D01*
X888564Y1957683D01*
X888782Y1958011D01*
X888964Y1958448D01*
X889146Y1958957D01*
X889292Y1959540D01*
X889328Y1960195D01*
Y1960486D01*
X889255Y1960814D01*
X889182Y1961251D01*
X889037Y1961724D01*
X888855Y1962197D01*
X888564Y1962707D01*
X888200Y1963180D01*
X888163Y1963216D01*
X887981Y1963362D01*
X887726Y1963580D01*
X887362Y1963835D01*
X886889Y1964090D01*
X886307Y1964345D01*
X885615Y1964563D01*
X884814Y1964709D01*
X885360Y1967803D01*
X885397D01*
X885506Y1967766D01*
X885652Y1967730D01*
X885870Y1967693D01*
X886125Y1967621D01*
X886416Y1967511D01*
X887108Y1967293D01*
X887908Y1966929D01*
X888709Y1966492D01*
X889474Y1965946D01*
X890165Y1965255D01*
X890202Y1965218D01*
X890238Y1965145D01*
X890311Y1965036D01*
X890420Y1964891D01*
X890566Y1964709D01*
X890711Y1964454D01*
X890857Y1964199D01*
X891039Y1963871D01*
X891330Y1963143D01*
X891621Y1962306D01*
X891803Y1961323D01*
X891876Y1960814D01*
Y1959904D01*
X891840Y1959503D01*
X891767Y1959030D01*
X891658Y1958448D01*
X891476Y1957793D01*
X891257Y1957137D01*
X890966Y1956482D01*
Y1956446D01*
X890930Y1956409D01*
X890820Y1956191D01*
X890602Y1955863D01*
X890347Y1955499D01*
X889983Y1955063D01*
X889583Y1954626D01*
X889110Y1954189D01*
X888564Y1953825D01*
X888491Y1953789D01*
X888309Y1953679D01*
X887981Y1953534D01*
X887581Y1953352D01*
X887108Y1953170D01*
X886562Y1953024D01*
X885943Y1952915D01*
X885324Y1952879D01*
X885251D01*
X885033D01*
X884742Y1952915D01*
X884341Y1952988D01*
X883868Y1953097D01*
X883358Y1953279D01*
X882849Y1953497D01*
X882339Y1953789D01*
X882266Y1953825D01*
X882121Y1953934D01*
X881866Y1954153D01*
X881575Y1954444D01*
X881247Y1954808D01*
X880883Y1955245D01*
X880556Y1955754D01*
X880228Y1956373D01*
Y1956337D01*
X880192Y1956264D01*
X880155Y1956155D01*
X880119Y1956009D01*
X879973Y1955609D01*
X879755Y1955099D01*
X879464Y1954517D01*
X879100Y1953934D01*
X878626Y1953388D01*
X878080Y1952879D01*
X878008Y1952842D01*
X877789Y1952697D01*
X877425Y1952478D01*
X876952Y1952260D01*
X876370Y1952041D01*
X875678Y1951823D01*
X874877Y1951677D01*
X874004Y1951641D01*
X873967D01*
X873858D01*
X873676D01*
X873458Y1951677D01*
X873166Y1951714D01*
X872839Y1951787D01*
X872475Y1951859D01*
X872074Y1951932D01*
X871201Y1952223D01*
X870728Y1952442D01*
X870291Y1952660D01*
X869818Y1952951D01*
X869344Y1953279D01*
X868871Y1953643D01*
X868434Y1954080D01*
X868398Y1954116D01*
X868325Y1954189D01*
X868216Y1954335D01*
X868070Y1954517D01*
X867888Y1954735D01*
X867706Y1955026D01*
X867488Y1955354D01*
X867306Y1955754D01*
X867088Y1956155D01*
X866869Y1956628D01*
X866687Y1957101D01*
X866505Y1957647D01*
X866360Y1958229D01*
X866250Y1958848D01*
X866178Y1959467D01*
X866141Y1960159D01*
Y1960486D01*
X866178Y1960705D01*
X866214Y1960996D01*
X866250Y1961323D01*
X866323Y1961687D01*
X866396Y1962088D01*
X866614Y1962961D01*
X866978Y1963871D01*
X867197Y1964345D01*
X867452Y1964781D01*
X867779Y1965218D01*
X868107Y1965655D01*
X868143Y1965691D01*
X868216Y1965764D01*
X868325Y1965873D01*
X868471Y1965983D01*
X868653Y1966165D01*
X868908Y1966347D01*
X869162Y1966565D01*
X869490Y1966783D01*
X869854Y1967002D01*
X870218Y1967220D01*
X871092Y1967621D01*
X872111Y1967948D01*
X872657Y1968057D01*
X873239Y1968130D01*
X873640Y1965036D01*
D02*
G37*
G36*
X1129022Y1619167D02*
X1128985D01*
X1128840D01*
X1128621D01*
X1128330Y1619204D01*
X1128002Y1619240D01*
X1127638Y1619313D01*
X1127274Y1619386D01*
X1126874Y1619531D01*
X1126838D01*
X1126801Y1619568D01*
X1126583Y1619641D01*
X1126255Y1619786D01*
X1125818Y1620005D01*
X1125309Y1620296D01*
X1124726Y1620660D01*
X1124144Y1621060D01*
X1123525Y1621570D01*
X1123489D01*
X1123452Y1621643D01*
X1123234Y1621825D01*
X1122906Y1622152D01*
X1122433Y1622625D01*
X1121887Y1623171D01*
X1121232Y1623863D01*
X1120504Y1624700D01*
X1119740Y1625610D01*
X1119703Y1625647D01*
X1119594Y1625792D01*
X1119412Y1626011D01*
X1119194Y1626265D01*
X1118902Y1626593D01*
X1118575Y1626993D01*
X1118211Y1627394D01*
X1117810Y1627867D01*
X1116937Y1628777D01*
X1116063Y1629687D01*
X1115626Y1630124D01*
X1115190Y1630524D01*
X1114789Y1630888D01*
X1114389Y1631179D01*
X1114352D01*
X1114316Y1631252D01*
X1114207Y1631325D01*
X1114061Y1631398D01*
X1113661Y1631653D01*
X1113188Y1631944D01*
X1112605Y1632199D01*
X1111986Y1632453D01*
X1111295Y1632599D01*
X1110640Y1632672D01*
X1110603D01*
X1110567D01*
X1110348Y1632635D01*
X1109984Y1632599D01*
X1109584Y1632490D01*
X1109074Y1632344D01*
X1108565Y1632089D01*
X1108055Y1631762D01*
X1107546Y1631325D01*
X1107473Y1631252D01*
X1107327Y1631070D01*
X1107145Y1630815D01*
X1106890Y1630415D01*
X1106672Y1629905D01*
X1106454Y1629323D01*
X1106308Y1628631D01*
X1106272Y1627867D01*
Y1627649D01*
X1106308Y1627503D01*
X1106344Y1627066D01*
X1106454Y1626557D01*
X1106599Y1626011D01*
X1106854Y1625392D01*
X1107182Y1624809D01*
X1107618Y1624263D01*
X1107691Y1624191D01*
X1107873Y1624045D01*
X1108164Y1623827D01*
X1108601Y1623608D01*
X1109111Y1623353D01*
X1109766Y1623135D01*
X1110494Y1622989D01*
X1111331Y1622917D01*
X1111004Y1619750D01*
X1110967D01*
X1110858Y1619786D01*
X1110676D01*
X1110421Y1619823D01*
X1110130Y1619895D01*
X1109802Y1619968D01*
X1109402Y1620077D01*
X1109002Y1620187D01*
X1108128Y1620478D01*
X1107254Y1620915D01*
X1106818Y1621169D01*
X1106381Y1621497D01*
X1105980Y1621825D01*
X1105616Y1622189D01*
X1105580Y1622225D01*
X1105544Y1622298D01*
X1105434Y1622407D01*
X1105325Y1622589D01*
X1105180Y1622807D01*
X1105034Y1623062D01*
X1104852Y1623353D01*
X1104670Y1623717D01*
X1104488Y1624118D01*
X1104306Y1624555D01*
X1104160Y1625028D01*
X1104015Y1625537D01*
X1103906Y1626083D01*
X1103796Y1626666D01*
X1103760Y1627285D01*
X1103724Y1627940D01*
Y1628304D01*
X1103760Y1628559D01*
X1103796Y1628850D01*
X1103833Y1629214D01*
X1103906Y1629614D01*
X1103978Y1630015D01*
X1104233Y1630961D01*
X1104597Y1631907D01*
X1104816Y1632381D01*
X1105070Y1632854D01*
X1105398Y1633291D01*
X1105762Y1633691D01*
X1105798Y1633727D01*
X1105835Y1633800D01*
X1105980Y1633873D01*
X1106126Y1634019D01*
X1106308Y1634201D01*
X1106563Y1634383D01*
X1106818Y1634565D01*
X1107145Y1634783D01*
X1107837Y1635147D01*
X1108710Y1635511D01*
X1109147Y1635657D01*
X1109657Y1635729D01*
X1110166Y1635802D01*
X1110712Y1635839D01*
X1110785D01*
X1110967D01*
X1111258Y1635802D01*
X1111659Y1635766D01*
X1112096Y1635693D01*
X1112605Y1635547D01*
X1113151Y1635402D01*
X1113697Y1635183D01*
X1113770Y1635147D01*
X1113952Y1635074D01*
X1114243Y1634929D01*
X1114644Y1634710D01*
X1115080Y1634419D01*
X1115626Y1634055D01*
X1116172Y1633618D01*
X1116791Y1633109D01*
X1116864Y1633036D01*
X1117082Y1632854D01*
X1117264Y1632672D01*
X1117446Y1632490D01*
X1117665Y1632271D01*
X1117956Y1631980D01*
X1118247Y1631689D01*
X1118575Y1631325D01*
X1118939Y1630961D01*
X1119339Y1630524D01*
X1119740Y1630051D01*
X1120213Y1629541D01*
X1120686Y1628959D01*
X1121196Y1628377D01*
X1121232Y1628340D01*
X1121305Y1628267D01*
X1121414Y1628122D01*
X1121560Y1627940D01*
X1121778Y1627721D01*
X1121996Y1627467D01*
X1122470Y1626884D01*
X1123016Y1626265D01*
X1123562Y1625683D01*
X1124035Y1625173D01*
X1124217Y1624955D01*
X1124399Y1624773D01*
X1124435Y1624737D01*
X1124544Y1624627D01*
X1124690Y1624482D01*
X1124908Y1624300D01*
X1125163Y1624118D01*
X1125418Y1623899D01*
X1126037Y1623463D01*
Y1635875D01*
X1129022D01*
Y1619167D01*
D02*
G37*
G36*
X1121232Y1616729D02*
X1121450Y1616656D01*
X1121742Y1616547D01*
X1122069Y1616437D01*
X1122470Y1616292D01*
X1122906Y1616110D01*
X1123380Y1615891D01*
X1124399Y1615382D01*
X1125418Y1614727D01*
X1125928Y1614326D01*
X1126437Y1613926D01*
X1126874Y1613489D01*
X1127311Y1612979D01*
X1127347Y1612943D01*
X1127420Y1612870D01*
X1127493Y1612688D01*
X1127638Y1612506D01*
X1127820Y1612215D01*
X1128002Y1611924D01*
X1128184Y1611523D01*
X1128366Y1611123D01*
X1128585Y1610650D01*
X1128767Y1610140D01*
X1128949Y1609594D01*
X1129131Y1609012D01*
X1129276Y1608393D01*
X1129349Y1607738D01*
X1129422Y1607046D01*
X1129458Y1606318D01*
Y1605918D01*
X1129422Y1605627D01*
Y1605299D01*
X1129386Y1604899D01*
X1129313Y1604462D01*
X1129240Y1603952D01*
X1129058Y1602897D01*
X1128767Y1601805D01*
X1128366Y1600713D01*
X1128112Y1600203D01*
X1127820Y1599693D01*
X1127784Y1599657D01*
X1127748Y1599584D01*
X1127638Y1599439D01*
X1127493Y1599293D01*
X1127347Y1599075D01*
X1127129Y1598820D01*
X1126874Y1598529D01*
X1126583Y1598237D01*
X1126255Y1597946D01*
X1125928Y1597619D01*
X1125090Y1596963D01*
X1124108Y1596345D01*
X1123016Y1595799D01*
X1122979D01*
X1122870Y1595726D01*
X1122688Y1595689D01*
X1122470Y1595580D01*
X1122178Y1595507D01*
X1121814Y1595398D01*
X1121414Y1595253D01*
X1120977Y1595143D01*
X1120504Y1595034D01*
X1119958Y1594889D01*
X1118830Y1594707D01*
X1117556Y1594561D01*
X1116245Y1594488D01*
X1116209D01*
X1116063D01*
X1115845D01*
X1115590Y1594525D01*
X1115226D01*
X1114862Y1594561D01*
X1114389Y1594597D01*
X1113916Y1594670D01*
X1112860Y1594852D01*
X1111695Y1595107D01*
X1110530Y1595471D01*
X1109402Y1595981D01*
X1109366Y1596017D01*
X1109256Y1596053D01*
X1109111Y1596126D01*
X1108929Y1596272D01*
X1108674Y1596417D01*
X1108383Y1596599D01*
X1107728Y1597073D01*
X1107000Y1597691D01*
X1106272Y1598419D01*
X1105544Y1599257D01*
X1104925Y1600239D01*
X1104888Y1600276D01*
X1104852Y1600385D01*
X1104779Y1600531D01*
X1104670Y1600713D01*
X1104561Y1601004D01*
X1104452Y1601295D01*
X1104306Y1601659D01*
X1104160Y1602059D01*
X1104015Y1602496D01*
X1103869Y1602969D01*
X1103651Y1603989D01*
X1103469Y1605153D01*
X1103396Y1606355D01*
Y1606719D01*
X1103432Y1606973D01*
X1103469Y1607301D01*
X1103505Y1607701D01*
X1103542Y1608102D01*
X1103651Y1608575D01*
X1103869Y1609558D01*
X1104197Y1610650D01*
X1104415Y1611196D01*
X1104670Y1611705D01*
X1104998Y1612215D01*
X1105325Y1612725D01*
X1105362Y1612761D01*
X1105398Y1612834D01*
X1105507Y1612979D01*
X1105689Y1613161D01*
X1105871Y1613343D01*
X1106126Y1613598D01*
X1106417Y1613853D01*
X1106708Y1614144D01*
X1107072Y1614435D01*
X1107509Y1614727D01*
X1107946Y1615054D01*
X1108419Y1615345D01*
X1108965Y1615600D01*
X1109511Y1615891D01*
X1110094Y1616110D01*
X1110749Y1616328D01*
X1111513Y1613052D01*
X1111477D01*
X1111404Y1613016D01*
X1111258Y1612943D01*
X1111076Y1612870D01*
X1110858Y1612797D01*
X1110567Y1612688D01*
X1109984Y1612397D01*
X1109329Y1612033D01*
X1108674Y1611596D01*
X1108055Y1611050D01*
X1107509Y1610468D01*
X1107436Y1610395D01*
X1107291Y1610177D01*
X1107109Y1609813D01*
X1106854Y1609339D01*
X1106636Y1608721D01*
X1106417Y1608029D01*
X1106272Y1607192D01*
X1106235Y1606282D01*
Y1605991D01*
X1106272Y1605809D01*
Y1605554D01*
X1106308Y1605263D01*
X1106417Y1604571D01*
X1106563Y1603807D01*
X1106818Y1603006D01*
X1107182Y1602169D01*
X1107655Y1601404D01*
Y1601368D01*
X1107728Y1601331D01*
X1107910Y1601077D01*
X1108201Y1600749D01*
X1108638Y1600349D01*
X1109184Y1599875D01*
X1109802Y1599439D01*
X1110567Y1599038D01*
X1111404Y1598674D01*
X1111440D01*
X1111513Y1598638D01*
X1111622Y1598601D01*
X1111804Y1598565D01*
X1112023Y1598492D01*
X1112278Y1598419D01*
X1112896Y1598310D01*
X1113624Y1598165D01*
X1114425Y1598019D01*
X1115299Y1597946D01*
X1116245Y1597910D01*
X1116282D01*
X1116391D01*
X1116573D01*
X1116791D01*
X1117046Y1597946D01*
X1117374D01*
X1117738Y1597983D01*
X1118138Y1598019D01*
X1119012Y1598128D01*
X1119958Y1598310D01*
X1120904Y1598529D01*
X1121851Y1598820D01*
X1121887D01*
X1121960Y1598856D01*
X1122069Y1598929D01*
X1122251Y1599002D01*
X1122688Y1599220D01*
X1123198Y1599548D01*
X1123780Y1599948D01*
X1124399Y1600458D01*
X1124945Y1601040D01*
X1125454Y1601732D01*
Y1601768D01*
X1125491Y1601841D01*
X1125564Y1601950D01*
X1125636Y1602096D01*
X1125709Y1602278D01*
X1125818Y1602496D01*
X1126037Y1603006D01*
X1126255Y1603661D01*
X1126437Y1604389D01*
X1126583Y1605190D01*
X1126619Y1606027D01*
Y1606282D01*
X1126583Y1606500D01*
Y1606755D01*
X1126546Y1607010D01*
X1126401Y1607665D01*
X1126219Y1608429D01*
X1125928Y1609194D01*
X1125527Y1609995D01*
X1125309Y1610395D01*
X1125018Y1610759D01*
X1124981Y1610795D01*
X1124945Y1610832D01*
X1124836Y1610941D01*
X1124726Y1611087D01*
X1124544Y1611232D01*
X1124326Y1611414D01*
X1124108Y1611633D01*
X1123816Y1611815D01*
X1123489Y1612033D01*
X1123125Y1612288D01*
X1122761Y1612506D01*
X1122324Y1612725D01*
X1121851Y1612907D01*
X1121341Y1613089D01*
X1120795Y1613271D01*
X1120213Y1613416D01*
X1121050Y1616765D01*
X1121086D01*
X1121232Y1616729D01*
D02*
G37*
G36*
X1635227Y1614451D02*
X1641269D01*
Y1611358D01*
X1635227D01*
Y1600401D01*
X1632388D01*
X1616081Y1611940D01*
Y1614451D01*
X1632388D01*
Y1617873D01*
X1635227D01*
Y1614451D01*
D02*
G37*
G36*
X1619065Y1590974D02*
X1641269D01*
Y1587625D01*
X1619065D01*
Y1579325D01*
X1616081D01*
Y1599273D01*
X1619065D01*
Y1590974D01*
D02*
G37*
G36*
X1397733Y1598261D02*
X1398024Y1598225D01*
X1398351Y1598152D01*
X1398715Y1598079D01*
X1399116Y1598006D01*
X1399989Y1597715D01*
X1400463Y1597497D01*
X1400899Y1597278D01*
X1401373Y1596987D01*
X1401846Y1596659D01*
X1402319Y1596295D01*
X1402756Y1595859D01*
X1402792Y1595822D01*
X1402865Y1595749D01*
X1402974Y1595604D01*
X1403120Y1595422D01*
X1403302Y1595203D01*
X1403484Y1594912D01*
X1403702Y1594585D01*
X1403884Y1594184D01*
X1404103Y1593784D01*
X1404321Y1593311D01*
X1404503Y1592837D01*
X1404685Y1592291D01*
X1404831Y1591709D01*
X1404940Y1591090D01*
X1405013Y1590471D01*
X1405049Y1589780D01*
Y1589452D01*
X1405013Y1589234D01*
X1404976Y1588943D01*
X1404940Y1588615D01*
X1404867Y1588251D01*
X1404794Y1587851D01*
X1404576Y1586977D01*
X1404212Y1586067D01*
X1403993Y1585594D01*
X1403739Y1585157D01*
X1403411Y1584720D01*
X1403083Y1584283D01*
X1403047Y1584247D01*
X1402974Y1584174D01*
X1402865Y1584065D01*
X1402719Y1583956D01*
X1402537Y1583774D01*
X1402283Y1583592D01*
X1402028Y1583373D01*
X1401700Y1583155D01*
X1401336Y1582937D01*
X1400972Y1582718D01*
X1400099Y1582318D01*
X1399079Y1581990D01*
X1398533Y1581881D01*
X1397951Y1581808D01*
X1397551Y1584902D01*
X1397587D01*
X1397660Y1584939D01*
X1397805Y1584975D01*
X1397987Y1585011D01*
X1398206Y1585048D01*
X1398461Y1585121D01*
X1399007Y1585303D01*
X1399662Y1585557D01*
X1400281Y1585885D01*
X1400863Y1586249D01*
X1401373Y1586686D01*
X1401409Y1586759D01*
X1401555Y1586904D01*
X1401737Y1587195D01*
X1401919Y1587559D01*
X1402137Y1587996D01*
X1402319Y1588542D01*
X1402465Y1589161D01*
X1402501Y1589816D01*
Y1590035D01*
X1402465Y1590180D01*
X1402428Y1590581D01*
X1402319Y1591090D01*
X1402137Y1591673D01*
X1401882Y1592291D01*
X1401518Y1592910D01*
X1401009Y1593493D01*
X1400936Y1593565D01*
X1400717Y1593747D01*
X1400390Y1593966D01*
X1399953Y1594257D01*
X1399407Y1594548D01*
X1398788Y1594767D01*
X1398060Y1594949D01*
X1397259Y1595021D01*
X1397223D01*
X1397150D01*
X1397041D01*
X1396895Y1594985D01*
X1396495Y1594949D01*
X1396022Y1594839D01*
X1395439Y1594694D01*
X1394857Y1594439D01*
X1394275Y1594075D01*
X1393729Y1593602D01*
X1393656Y1593529D01*
X1393510Y1593347D01*
X1393292Y1593056D01*
X1393037Y1592655D01*
X1392782Y1592146D01*
X1392564Y1591527D01*
X1392418Y1590835D01*
X1392345Y1590071D01*
Y1589743D01*
X1392382Y1589489D01*
X1392418Y1589161D01*
X1392491Y1588797D01*
X1392564Y1588360D01*
X1392673Y1587887D01*
X1389943Y1588251D01*
Y1588433D01*
X1389979Y1588579D01*
Y1589052D01*
X1389907Y1589452D01*
X1389834Y1589925D01*
X1389725Y1590471D01*
X1389543Y1591090D01*
X1389288Y1591673D01*
X1388960Y1592291D01*
Y1592328D01*
X1388924Y1592364D01*
X1388778Y1592546D01*
X1388523Y1592801D01*
X1388196Y1593092D01*
X1387723Y1593383D01*
X1387177Y1593638D01*
X1386558Y1593820D01*
X1386194Y1593893D01*
X1385793D01*
X1385757D01*
X1385721D01*
X1385502D01*
X1385211Y1593820D01*
X1384811Y1593747D01*
X1384374Y1593602D01*
X1383901Y1593420D01*
X1383427Y1593129D01*
X1382991Y1592728D01*
X1382954Y1592692D01*
X1382809Y1592510D01*
X1382627Y1592255D01*
X1382408Y1591927D01*
X1382226Y1591491D01*
X1382044Y1590981D01*
X1381899Y1590399D01*
X1381862Y1589743D01*
Y1589452D01*
X1381935Y1589125D01*
X1382008Y1588688D01*
X1382153Y1588215D01*
X1382335Y1587741D01*
X1382627Y1587232D01*
X1382991Y1586759D01*
X1383027Y1586722D01*
X1383209Y1586577D01*
X1383464Y1586358D01*
X1383828Y1586103D01*
X1384301Y1585849D01*
X1384883Y1585594D01*
X1385575Y1585375D01*
X1386376Y1585230D01*
X1385830Y1582136D01*
X1385793D01*
X1385684Y1582172D01*
X1385539Y1582209D01*
X1385320Y1582245D01*
X1385065Y1582318D01*
X1384774Y1582427D01*
X1384083Y1582645D01*
X1383282Y1583009D01*
X1382481Y1583446D01*
X1381717Y1583992D01*
X1381025Y1584684D01*
X1380989Y1584720D01*
X1380952Y1584793D01*
X1380879Y1584902D01*
X1380770Y1585048D01*
X1380625Y1585230D01*
X1380479Y1585485D01*
X1380333Y1585739D01*
X1380151Y1586067D01*
X1379860Y1586795D01*
X1379569Y1587632D01*
X1379387Y1588615D01*
X1379314Y1589125D01*
Y1590035D01*
X1379351Y1590435D01*
X1379423Y1590908D01*
X1379533Y1591491D01*
X1379715Y1592146D01*
X1379933Y1592801D01*
X1380224Y1593456D01*
Y1593493D01*
X1380261Y1593529D01*
X1380370Y1593747D01*
X1380588Y1594075D01*
X1380843Y1594439D01*
X1381207Y1594876D01*
X1381607Y1595313D01*
X1382081Y1595749D01*
X1382627Y1596113D01*
X1382699Y1596150D01*
X1382881Y1596259D01*
X1383209Y1596405D01*
X1383609Y1596587D01*
X1384083Y1596769D01*
X1384629Y1596914D01*
X1385247Y1597023D01*
X1385866Y1597060D01*
X1385939D01*
X1386157D01*
X1386449Y1597023D01*
X1386849Y1596951D01*
X1387322Y1596841D01*
X1387832Y1596659D01*
X1388341Y1596441D01*
X1388851Y1596150D01*
X1388924Y1596113D01*
X1389069Y1596004D01*
X1389324Y1595786D01*
X1389615Y1595495D01*
X1389943Y1595131D01*
X1390307Y1594694D01*
X1390635Y1594184D01*
X1390962Y1593565D01*
Y1593602D01*
X1390999Y1593675D01*
X1391035Y1593784D01*
X1391071Y1593929D01*
X1391217Y1594330D01*
X1391435Y1594839D01*
X1391727Y1595422D01*
X1392091Y1596004D01*
X1392564Y1596550D01*
X1393110Y1597060D01*
X1393183Y1597096D01*
X1393401Y1597242D01*
X1393765Y1597460D01*
X1394238Y1597679D01*
X1394821Y1597897D01*
X1395512Y1598115D01*
X1396313Y1598261D01*
X1397187Y1598297D01*
X1397223D01*
X1397332D01*
X1397514D01*
X1397733Y1598261D01*
D02*
G37*
G36*
X1382408Y1571289D02*
X1404612D01*
Y1567940D01*
X1382408D01*
Y1559641D01*
X1379423D01*
Y1579588D01*
X1382408D01*
Y1571289D01*
D02*
G37*
%LPC*%
G36*
X1664827Y1242858D02*
X1656892D01*
Y1234522D01*
X1664390D01*
X1664827Y1234559D01*
X1665336Y1234595D01*
X1665919Y1234631D01*
X1666501Y1234704D01*
X1667084Y1234813D01*
X1667593Y1234959D01*
X1667666Y1234995D01*
X1667812Y1235068D01*
X1668030Y1235178D01*
X1668321Y1235323D01*
X1668649Y1235542D01*
X1668976Y1235796D01*
X1669304Y1236124D01*
X1669559Y1236488D01*
X1669595Y1236524D01*
X1669668Y1236670D01*
X1669777Y1236888D01*
X1669923Y1237179D01*
X1670032Y1237507D01*
X1670141Y1237871D01*
X1670214Y1238308D01*
X1670250Y1238745D01*
Y1238781D01*
Y1238818D01*
X1670214Y1239036D01*
X1670178Y1239363D01*
X1670105Y1239800D01*
X1669923Y1240237D01*
X1669704Y1240747D01*
X1669377Y1241220D01*
X1668940Y1241693D01*
X1668867Y1241729D01*
X1668685Y1241875D01*
X1668394Y1242057D01*
X1667921Y1242275D01*
X1667375Y1242494D01*
X1666647Y1242676D01*
X1665810Y1242822D01*
X1664827Y1242858D01*
D02*
G37*
G36*
X2314433Y908649D02*
X2306498D01*
Y900313D01*
X2313996D01*
X2314433Y900350D01*
X2314943Y900386D01*
X2315525Y900423D01*
X2316108Y900495D01*
X2316690Y900605D01*
X2317200Y900750D01*
X2317272Y900787D01*
X2317418Y900860D01*
X2317636Y900969D01*
X2317928Y901114D01*
X2318255Y901333D01*
X2318583Y901587D01*
X2318910Y901915D01*
X2319165Y902279D01*
X2319202Y902316D01*
X2319274Y902461D01*
X2319384Y902679D01*
X2319529Y902971D01*
X2319638Y903298D01*
X2319748Y903662D01*
X2319820Y904099D01*
X2319857Y904536D01*
Y904572D01*
Y904609D01*
X2319820Y904827D01*
X2319784Y905155D01*
X2319711Y905591D01*
X2319529Y906028D01*
X2319311Y906538D01*
X2318983Y907011D01*
X2318546Y907484D01*
X2318474Y907521D01*
X2318292Y907666D01*
X2318000Y907848D01*
X2317527Y908067D01*
X2316981Y908285D01*
X2316253Y908467D01*
X2315416Y908613D01*
X2314433Y908649D01*
D02*
G37*
G36*
X2590024Y928334D02*
X2582089D01*
Y919999D01*
X2589587D01*
X2590024Y920035D01*
X2590533Y920071D01*
X2591116Y920108D01*
X2591698Y920181D01*
X2592281Y920290D01*
X2592790Y920435D01*
X2592863Y920472D01*
X2593009Y920544D01*
X2593227Y920654D01*
X2593518Y920799D01*
X2593846Y921018D01*
X2594173Y921273D01*
X2594501Y921600D01*
X2594756Y921964D01*
X2594792Y922000D01*
X2594865Y922146D01*
X2594974Y922365D01*
X2595120Y922656D01*
X2595229Y922983D01*
X2595338Y923347D01*
X2595411Y923784D01*
X2595447Y924221D01*
Y924257D01*
Y924294D01*
X2595411Y924512D01*
X2595375Y924840D01*
X2595302Y925277D01*
X2595120Y925713D01*
X2594901Y926223D01*
X2594574Y926696D01*
X2594137Y927169D01*
X2594064Y927206D01*
X2593882Y927351D01*
X2593591Y927533D01*
X2593118Y927752D01*
X2592572Y927970D01*
X2591844Y928152D01*
X2591007Y928298D01*
X2590024Y928334D01*
D02*
G37*
G36*
X2611099Y928698D02*
X2610808D01*
X2610481Y928625D01*
X2610044Y928553D01*
X2609571Y928407D01*
X2609061Y928225D01*
X2608588Y927934D01*
X2608115Y927533D01*
X2608078Y927497D01*
X2607933Y927351D01*
X2607751Y927096D01*
X2607569Y926769D01*
X2607350Y926369D01*
X2607168Y925895D01*
X2607023Y925386D01*
X2606986Y924803D01*
Y924767D01*
Y924731D01*
X2607023Y924512D01*
X2607059Y924184D01*
X2607132Y923784D01*
X2607277Y923311D01*
X2607459Y922838D01*
X2607751Y922328D01*
X2608115Y921891D01*
X2608151Y921855D01*
X2608333Y921709D01*
X2608588Y921527D01*
X2608915Y921345D01*
X2609352Y921127D01*
X2609862Y920945D01*
X2610444Y920799D01*
X2611099Y920763D01*
X2611172D01*
X2611391Y920799D01*
X2611718Y920836D01*
X2612155Y920909D01*
X2612628Y921054D01*
X2613101Y921236D01*
X2613611Y921527D01*
X2614048Y921891D01*
X2614084Y921928D01*
X2614230Y922110D01*
X2614412Y922328D01*
X2614630Y922656D01*
X2614849Y923056D01*
X2615031Y923529D01*
X2615176Y924075D01*
X2615213Y924658D01*
Y924694D01*
Y924731D01*
Y924949D01*
X2615140Y925277D01*
X2615067Y925677D01*
X2614921Y926114D01*
X2614703Y926587D01*
X2614412Y927060D01*
X2614011Y927533D01*
X2613975Y927570D01*
X2613793Y927715D01*
X2613538Y927897D01*
X2613211Y928116D01*
X2612774Y928334D01*
X2612301Y928516D01*
X2611718Y928662D01*
X2611099Y928698D01*
D02*
G37*
G36*
X2610990Y918251D02*
X2610772D01*
X2610626Y918215D01*
X2610226Y918178D01*
X2609716Y918069D01*
X2609134Y917887D01*
X2608551Y917633D01*
X2607933Y917269D01*
X2607387Y916795D01*
X2607314Y916722D01*
X2607168Y916540D01*
X2606950Y916213D01*
X2606695Y915812D01*
X2606404Y915266D01*
X2606185Y914648D01*
X2606040Y913956D01*
X2605967Y913192D01*
Y913119D01*
Y912973D01*
X2606003Y912718D01*
X2606040Y912391D01*
X2606113Y911990D01*
X2606222Y911554D01*
X2606367Y911117D01*
X2606549Y910644D01*
X2606586Y910607D01*
X2606659Y910425D01*
X2606804Y910207D01*
X2607023Y909952D01*
X2607277Y909625D01*
X2607605Y909297D01*
X2607969Y909006D01*
X2608406Y908715D01*
X2608479Y908678D01*
X2608624Y908605D01*
X2608879Y908496D01*
X2609207Y908387D01*
X2609607Y908278D01*
X2610080Y908168D01*
X2610590Y908096D01*
X2611099Y908059D01*
X2611318D01*
X2611463Y908096D01*
X2611900Y908132D01*
X2612410Y908241D01*
X2612992Y908423D01*
X2613611Y908642D01*
X2614193Y909006D01*
X2614776Y909479D01*
X2614849Y909552D01*
X2614994Y909734D01*
X2615249Y910061D01*
X2615504Y910462D01*
X2615759Y910971D01*
X2616013Y911590D01*
X2616159Y912318D01*
X2616232Y913082D01*
Y913119D01*
Y913192D01*
Y913301D01*
X2616195Y913447D01*
X2616159Y913847D01*
X2616050Y914393D01*
X2615868Y914939D01*
X2615613Y915558D01*
X2615249Y916177D01*
X2614739Y916759D01*
X2614667Y916832D01*
X2614485Y916977D01*
X2614157Y917232D01*
X2613720Y917523D01*
X2613174Y917778D01*
X2612519Y918033D01*
X2611791Y918178D01*
X2610990Y918251D01*
D02*
G37*
G36*
X2293492Y1436612D02*
X2285156D01*
Y1429114D01*
X2285192Y1428677D01*
X2285229Y1428167D01*
X2285265Y1427585D01*
X2285338Y1427003D01*
X2285447Y1426420D01*
X2285593Y1425911D01*
X2285629Y1425838D01*
X2285702Y1425692D01*
X2285811Y1425474D01*
X2285957Y1425183D01*
X2286175Y1424855D01*
X2286430Y1424527D01*
X2286758Y1424200D01*
X2287122Y1423945D01*
X2287158Y1423909D01*
X2287303Y1423836D01*
X2287522Y1423727D01*
X2287813Y1423581D01*
X2288141Y1423472D01*
X2288505Y1423363D01*
X2288941Y1423290D01*
X2289378Y1423253D01*
X2289415D01*
X2289451D01*
X2289669Y1423290D01*
X2289997Y1423326D01*
X2290434Y1423399D01*
X2290871Y1423581D01*
X2291380Y1423799D01*
X2291854Y1424127D01*
X2292327Y1424564D01*
X2292363Y1424637D01*
X2292509Y1424819D01*
X2292691Y1425110D01*
X2292909Y1425583D01*
X2293128Y1426129D01*
X2293309Y1426857D01*
X2293455Y1427694D01*
X2293492Y1428677D01*
Y1436612D01*
D02*
G37*
G36*
X2283518Y1393114D02*
X2283445D01*
X2283263D01*
X2282936D01*
X2282499Y1393078D01*
X2282026D01*
X2281443Y1393041D01*
X2280824Y1393005D01*
X2280169Y1392932D01*
X2278749Y1392750D01*
X2278058Y1392641D01*
X2277403Y1392495D01*
X2276784Y1392350D01*
X2276202Y1392131D01*
X2275692Y1391913D01*
X2275255Y1391658D01*
X2275219D01*
X2275182Y1391585D01*
X2274927Y1391403D01*
X2274600Y1391076D01*
X2274236Y1390675D01*
X2273872Y1390129D01*
X2273544Y1389511D01*
X2273289Y1388819D01*
X2273253Y1388455D01*
X2273217Y1388055D01*
Y1387836D01*
X2273253Y1387691D01*
X2273326Y1387327D01*
X2273472Y1386817D01*
X2273726Y1386271D01*
X2274090Y1385652D01*
X2274309Y1385361D01*
X2274600Y1385070D01*
X2274891Y1384779D01*
X2275255Y1384487D01*
X2275291D01*
X2275364Y1384415D01*
X2275474Y1384342D01*
X2275655Y1384269D01*
X2275910Y1384123D01*
X2276238Y1384014D01*
X2276602Y1383869D01*
X2277039Y1383723D01*
X2277585Y1383614D01*
X2278167Y1383468D01*
X2278859Y1383323D01*
X2279587Y1383213D01*
X2280460Y1383141D01*
X2281370Y1383068D01*
X2282390Y1382995D01*
X2283518D01*
X2283554D01*
X2283591D01*
X2283773D01*
X2284100D01*
X2284537Y1383031D01*
X2285010D01*
X2285593Y1383068D01*
X2286211Y1383104D01*
X2286903Y1383177D01*
X2288286Y1383359D01*
X2288978Y1383468D01*
X2289633Y1383614D01*
X2290252Y1383759D01*
X2290834Y1383978D01*
X2291344Y1384196D01*
X2291781Y1384451D01*
X2291817D01*
X2291854Y1384524D01*
X2291963Y1384597D01*
X2292108Y1384706D01*
X2292436Y1385033D01*
X2292836Y1385434D01*
X2293200Y1385980D01*
X2293528Y1386599D01*
X2293673Y1386926D01*
X2293783Y1387290D01*
X2293819Y1387691D01*
X2293856Y1388091D01*
Y1388309D01*
X2293819Y1388455D01*
X2293746Y1388855D01*
X2293637Y1389329D01*
X2293419Y1389875D01*
X2293091Y1390457D01*
X2292873Y1390748D01*
X2292654Y1391039D01*
X2292363Y1391294D01*
X2292035Y1391549D01*
X2291999D01*
X2291926Y1391622D01*
X2291781Y1391695D01*
X2291599Y1391804D01*
X2291307Y1391913D01*
X2290980Y1392059D01*
X2290579Y1392168D01*
X2290106Y1392313D01*
X2289560Y1392459D01*
X2288941Y1392605D01*
X2288250Y1392750D01*
X2287485Y1392859D01*
X2286612Y1392969D01*
X2285666Y1393041D01*
X2284646Y1393078D01*
X2283518Y1393114D01*
D02*
G37*
G36*
X1852716Y1612040D02*
X1852680D01*
X1852607D01*
X1852462D01*
X1852280Y1612003D01*
X1852025D01*
X1851770Y1611967D01*
X1851188Y1611858D01*
X1850496Y1611712D01*
X1849768Y1611457D01*
X1849076Y1611093D01*
X1848458Y1610620D01*
X1848421D01*
X1848385Y1610547D01*
X1848203Y1610365D01*
X1847948Y1610074D01*
X1847657Y1609674D01*
X1847402Y1609164D01*
X1847147Y1608582D01*
X1846965Y1607927D01*
X1846892Y1607563D01*
Y1606980D01*
X1846929Y1606835D01*
X1846965Y1606434D01*
X1847111Y1605961D01*
X1847293Y1605379D01*
X1847620Y1604760D01*
X1848021Y1604141D01*
X1848312Y1603850D01*
X1848603Y1603559D01*
X1848640D01*
X1848676Y1603486D01*
X1848785Y1603413D01*
X1848894Y1603340D01*
X1849258Y1603085D01*
X1849768Y1602831D01*
X1850387Y1602539D01*
X1851151Y1602285D01*
X1852025Y1602139D01*
X1852971Y1602066D01*
X1853008D01*
X1853080D01*
X1853190D01*
X1853372Y1602103D01*
X1853590D01*
X1853808Y1602139D01*
X1854354Y1602248D01*
X1854973Y1602430D01*
X1855628Y1602649D01*
X1856284Y1603013D01*
X1856866Y1603486D01*
X1856939Y1603559D01*
X1857084Y1603741D01*
X1857339Y1604068D01*
X1857594Y1604469D01*
X1857885Y1605015D01*
X1858140Y1605633D01*
X1858286Y1606325D01*
X1858358Y1607089D01*
Y1607308D01*
X1858322Y1607453D01*
X1858286Y1607854D01*
X1858176Y1608327D01*
X1857994Y1608909D01*
X1857740Y1609492D01*
X1857376Y1610074D01*
X1856866Y1610620D01*
X1856793Y1610693D01*
X1856575Y1610839D01*
X1856247Y1611057D01*
X1855774Y1611348D01*
X1855192Y1611603D01*
X1854500Y1611821D01*
X1853663Y1611967D01*
X1852716Y1612040D01*
D02*
G37*
G36*
X1851370Y1591510D02*
X1851333D01*
X1851297D01*
X1851078Y1591474D01*
X1850751Y1591437D01*
X1850314Y1591365D01*
X1849877Y1591183D01*
X1849368Y1590964D01*
X1848894Y1590637D01*
X1848421Y1590200D01*
X1848385Y1590127D01*
X1848239Y1589945D01*
X1848057Y1589654D01*
X1847839Y1589181D01*
X1847620Y1588635D01*
X1847438Y1587907D01*
X1847293Y1587069D01*
X1847256Y1586087D01*
Y1578151D01*
X1855592D01*
Y1585650D01*
X1855556Y1586087D01*
X1855519Y1586596D01*
X1855483Y1587179D01*
X1855410Y1587761D01*
X1855301Y1588343D01*
X1855155Y1588853D01*
X1855119Y1588926D01*
X1855046Y1589071D01*
X1854937Y1589290D01*
X1854791Y1589581D01*
X1854573Y1589909D01*
X1854318Y1590236D01*
X1853990Y1590564D01*
X1853626Y1590819D01*
X1853590Y1590855D01*
X1853444Y1590928D01*
X1853226Y1591037D01*
X1852935Y1591183D01*
X1852607Y1591292D01*
X1852243Y1591401D01*
X1851806Y1591474D01*
X1851370Y1591510D01*
D02*
G37*
G36*
X2227110Y1614762D02*
X2218774D01*
Y1607263D01*
X2218811Y1606827D01*
X2218847Y1606317D01*
X2218883Y1605735D01*
X2218956Y1605152D01*
X2219066Y1604570D01*
X2219211Y1604060D01*
X2219247Y1603987D01*
X2219320Y1603842D01*
X2219430Y1603623D01*
X2219575Y1603332D01*
X2219794Y1603005D01*
X2220048Y1602677D01*
X2220376Y1602349D01*
X2220740Y1602095D01*
X2220776Y1602058D01*
X2220922Y1601985D01*
X2221140Y1601876D01*
X2221432Y1601731D01*
X2221759Y1601621D01*
X2222123Y1601512D01*
X2222560Y1601439D01*
X2222997Y1601403D01*
X2223033D01*
X2223070D01*
X2223288Y1601439D01*
X2223615Y1601476D01*
X2224052Y1601549D01*
X2224489Y1601731D01*
X2224999Y1601949D01*
X2225472Y1602277D01*
X2225945Y1602713D01*
X2225981Y1602786D01*
X2226127Y1602968D01*
X2226309Y1603259D01*
X2226528Y1603733D01*
X2226746Y1604279D01*
X2226928Y1605007D01*
X2227073Y1605844D01*
X2227110Y1606827D01*
Y1614762D01*
D02*
G37*
G36*
X2444082Y1610825D02*
X2435747D01*
Y1603326D01*
X2435783Y1602890D01*
X2435820Y1602380D01*
X2435856Y1601798D01*
X2435929Y1601215D01*
X2436038Y1600633D01*
X2436184Y1600123D01*
X2436220Y1600051D01*
X2436293Y1599905D01*
X2436402Y1599687D01*
X2436548Y1599395D01*
X2436766Y1599068D01*
X2437021Y1598740D01*
X2437348Y1598412D01*
X2437712Y1598158D01*
X2437749Y1598121D01*
X2437894Y1598049D01*
X2438113Y1597939D01*
X2438404Y1597794D01*
X2438732Y1597685D01*
X2439096Y1597575D01*
X2439532Y1597503D01*
X2439969Y1597466D01*
X2440006D01*
X2440042D01*
X2440260Y1597503D01*
X2440588Y1597539D01*
X2441025Y1597612D01*
X2441462Y1597794D01*
X2441971Y1598012D01*
X2442444Y1598340D01*
X2442918Y1598776D01*
X2442954Y1598849D01*
X2443100Y1599031D01*
X2443282Y1599322D01*
X2443500Y1599796D01*
X2443718Y1600342D01*
X2443900Y1601070D01*
X2444046Y1601907D01*
X2444082Y1602890D01*
Y1610825D01*
D02*
G37*
G36*
X2625732Y1403148D02*
X2617396D01*
Y1395649D01*
X2617433Y1395213D01*
X2617469Y1394703D01*
X2617506Y1394121D01*
X2617578Y1393538D01*
X2617688Y1392956D01*
X2617833Y1392446D01*
X2617870Y1392373D01*
X2617942Y1392228D01*
X2618052Y1392009D01*
X2618197Y1391718D01*
X2618416Y1391391D01*
X2618670Y1391063D01*
X2618998Y1390735D01*
X2619362Y1390481D01*
X2619398Y1390444D01*
X2619544Y1390371D01*
X2619762Y1390262D01*
X2620054Y1390117D01*
X2620381Y1390007D01*
X2620745Y1389898D01*
X2621182Y1389825D01*
X2621619Y1389789D01*
X2621655D01*
X2621692D01*
X2621910Y1389825D01*
X2622238Y1389862D01*
X2622674Y1389935D01*
X2623111Y1390117D01*
X2623621Y1390335D01*
X2624094Y1390663D01*
X2624567Y1391099D01*
X2624604Y1391172D01*
X2624749Y1391354D01*
X2624931Y1391645D01*
X2625150Y1392119D01*
X2625368Y1392665D01*
X2625550Y1393393D01*
X2625696Y1394230D01*
X2625732Y1395213D01*
Y1403148D01*
D02*
G37*
G36*
X2612228Y1380434D02*
Y1372499D01*
X2623512D01*
X2612228Y1380434D01*
D02*
G37*
G36*
X1851806Y1926156D02*
X1851770D01*
X1851734D01*
X1851515Y1926120D01*
X1851188Y1926083D01*
X1850751Y1926010D01*
X1850314Y1925828D01*
X1849804Y1925610D01*
X1849331Y1925282D01*
X1848858Y1924846D01*
X1848822Y1924773D01*
X1848676Y1924591D01*
X1848494Y1924300D01*
X1848275Y1923826D01*
X1848057Y1923280D01*
X1847875Y1922552D01*
X1847729Y1921715D01*
X1847693Y1920732D01*
Y1912797D01*
X1856029D01*
Y1920296D01*
X1855992Y1920732D01*
X1855956Y1921242D01*
X1855919Y1921824D01*
X1855847Y1922407D01*
X1855737Y1922989D01*
X1855592Y1923499D01*
X1855555Y1923572D01*
X1855483Y1923717D01*
X1855373Y1923936D01*
X1855228Y1924227D01*
X1855009Y1924554D01*
X1854755Y1924882D01*
X1854427Y1925210D01*
X1854063Y1925464D01*
X1854027Y1925501D01*
X1853881Y1925574D01*
X1853663Y1925683D01*
X1853371Y1925828D01*
X1853044Y1925938D01*
X1852680Y1926047D01*
X1852243Y1926120D01*
X1851806Y1926156D01*
D02*
G37*
G36*
X1632388Y1611358D02*
X1621104D01*
X1632388Y1603422D01*
Y1611358D01*
D02*
G37*
%LPD*%
D39*
X1594488Y1242126D02*
X1712598D01*
Y1198819D02*
Y1242126D01*
X1594488Y1198819D02*
X1712598D01*
X1594488D02*
Y1242126D01*
X2419390Y981820D02*
Y1308448D01*
X2651870D01*
Y981820D02*
Y1308448D01*
X2419390Y981820D02*
X2651870D01*
X2244095Y864173D02*
Y907480D01*
Y864173D02*
X2362205D01*
Y907480D01*
X2244095D02*
X2362205D01*
X2519685Y883858D02*
Y927165D01*
Y883858D02*
X2637795D01*
Y927165D01*
X2519685D02*
X2637795D01*
X2249016Y1499016D02*
X2292323D01*
X2249016Y1380906D02*
Y1499016D01*
Y1380906D02*
X2292323D01*
Y1499016D01*
X950173Y2134472D02*
X1027189D01*
X950173Y2000370D02*
Y2134472D01*
Y2000370D02*
X1027189D01*
Y2134472D01*
X2347441Y1177165D02*
Y1263780D01*
X2298229Y1177165D02*
X2347441D01*
X2298229D02*
Y1263780D01*
X2347441D01*
X1848425Y1515748D02*
Y1633858D01*
X1891732D01*
Y1515748D02*
Y1633858D01*
X1848425Y1515748D02*
X1891732D01*
X2226378Y1559055D02*
Y1677165D01*
X2183071Y1559055D02*
X2226378D01*
X2183071D02*
Y1677165D01*
X2226378D01*
X2442914Y1555118D02*
Y1673228D01*
X2399606Y1555118D02*
X2442914D01*
X2399606D02*
Y1673228D01*
X2442914D01*
X2625000Y1347441D02*
Y1465551D01*
X2581693Y1347441D02*
X2625000D01*
X2581693D02*
Y1465551D01*
X2625000D01*
X1848425Y1850394D02*
Y1968504D01*
X1891732D01*
Y1850394D02*
Y1968504D01*
X1848425Y1850394D02*
X1891732D01*
X922047Y1572441D02*
Y2400000D01*
X810236Y1572441D02*
X922047D01*
X810236D02*
Y2400000D01*
X922047D01*
X1029527Y1423228D02*
X1214567D01*
Y1765748D01*
X1029527D02*
X1214567D01*
X1029527Y1423228D02*
Y1765748D01*
X1566535Y1503644D02*
X1701181D01*
Y1655007D01*
X1566535D02*
X1701181D01*
X1566535Y1503644D02*
Y1655007D01*
X1330315Y1483959D02*
X1464961D01*
Y1635322D01*
X1330315D02*
X1464961D01*
X1330315Y1483959D02*
Y1635322D01*
%TF.MD5,1a9adaf7e9b705899bd30f511b4c2b7f*%
M02*
