%TF.GenerationSoftware,Altium Limited,Altium Designer,21.7.2 (23)*%
G04 Layer_Color=32896*
%FSLAX26Y26*%
%MOIN*%
%TF.SameCoordinates,89F72506-9554-4F55-AE3A-9D847A2FA82F*%
%TF.FilePolarity,Positive*%
%TF.FileFunction,Other,Mechanical_20*%
%TF.Part,Single*%
G01*
G75*
%TA.AperFunction,NonConductor*%
%ADD42C,0.003937*%
%ADD49C,0.001968*%
D42*
X1308661Y847244D02*
X1687402D01*
X1308661D02*
Y1020866D01*
X1687402D01*
Y847244D02*
Y1020866D01*
X1750591Y830512D02*
X2129331D01*
X1750591D02*
Y1004134D01*
X2129331D01*
Y830512D02*
Y1004134D01*
D49*
X2871457Y844095D02*
Y2828347D01*
X3178346D01*
Y844095D02*
Y2828347D01*
X2871457Y844095D02*
X3178346D01*
X1078740Y1919291D02*
Y2057087D01*
Y1919291D02*
X1244094D01*
Y2057087D01*
X1078740D02*
X1244094D01*
X2251968Y1755906D02*
Y1866142D01*
Y1755906D02*
X2393701D01*
Y1866142D01*
X2251968D02*
X2393701D01*
X471457Y844095D02*
Y2828347D01*
X778346D01*
Y844095D02*
Y2828347D01*
X471457Y844095D02*
X778346D01*
X1564173Y1832677D02*
X1703543D01*
Y1986220D01*
X1564173D02*
X1703543D01*
X1564173Y1832677D02*
Y1986220D01*
X1308268Y1891732D02*
X1447638D01*
Y2045276D01*
X1308268D02*
X1447638D01*
X1308268Y1891732D02*
Y2045276D01*
%TF.MD5,2374f2958aa3b46144cd506970e4e2d2*%
M02*
