%TF.GenerationSoftware,Altium Limited,Altium Designer,21.7.2 (23)*%
G04 Layer_Physical_Order=2*
G04 Layer_Color=16711680*
%FSLAX26Y26*%
%MOIN*%
%TF.SameCoordinates,89F72506-9554-4F55-AE3A-9D847A2FA82F*%
%TF.FilePolarity,Positive*%
%TF.FileFunction,Copper,L2,Bot,Signal*%
%TF.Part,Single*%
G01*
G75*
%TA.AperFunction,Conductor*%
%ADD23C,0.007874*%
%TA.AperFunction,ComponentPad*%
%ADD25C,0.275591*%
%ADD26C,0.078740*%
%ADD27C,0.061024*%
%ADD28R,0.060236X0.060236*%
%ADD29C,0.060236*%
%ADD30C,0.061811*%
%ADD31R,0.061811X0.061811*%
%TA.AperFunction,ViaPad*%
%ADD32C,0.039370*%
G36*
X3326772Y64604D02*
X3322152Y62690D01*
X3321851Y62992D01*
X329724D01*
Y2969488D01*
X326772Y2972441D01*
X329724Y2976378D01*
X990158D01*
Y2177165D01*
X994095Y2173228D01*
X2676181D01*
X2685039Y2164370D01*
Y2999016D01*
X2688977Y3002953D01*
X3326772D01*
Y64604D01*
D02*
G37*
%LPC*%
G36*
X3070936Y2772638D02*
X3061347D01*
X3052085Y2770156D01*
X3043781Y2765362D01*
X3037001Y2758581D01*
X3032206Y2750277D01*
X3029724Y2741015D01*
Y2731426D01*
X3032206Y2722164D01*
X3037001Y2713860D01*
X3043781Y2707079D01*
X3052085Y2702285D01*
X3061347Y2699803D01*
X3070936D01*
X3080198Y2702285D01*
X3088502Y2707079D01*
X3095283Y2713860D01*
X3100077Y2722164D01*
X3102559Y2731426D01*
Y2741015D01*
X3100077Y2750277D01*
X3095283Y2758581D01*
X3088502Y2765362D01*
X3080198Y2770156D01*
X3070936Y2772638D01*
D02*
G37*
G36*
X2970936D02*
X2961347D01*
X2952085Y2770156D01*
X2943781Y2765362D01*
X2937001Y2758581D01*
X2932206Y2750277D01*
X2929724Y2741015D01*
Y2731426D01*
X2932206Y2722164D01*
X2937001Y2713860D01*
X2943781Y2707079D01*
X2952085Y2702285D01*
X2961347Y2699803D01*
X2970936D01*
X2980198Y2702285D01*
X2988502Y2707079D01*
X2995283Y2713860D01*
X3000077Y2722164D01*
X3002559Y2731426D01*
Y2741015D01*
X3000077Y2750277D01*
X2995283Y2758581D01*
X2988502Y2765362D01*
X2980198Y2770156D01*
X2970936Y2772638D01*
D02*
G37*
G36*
X670936D02*
X661347D01*
X652085Y2770156D01*
X643781Y2765362D01*
X637001Y2758581D01*
X632206Y2750277D01*
X629724Y2741015D01*
Y2731426D01*
X632206Y2722164D01*
X637001Y2713860D01*
X643781Y2707079D01*
X652085Y2702285D01*
X661347Y2699803D01*
X670936D01*
X680198Y2702285D01*
X688502Y2707079D01*
X695283Y2713860D01*
X700077Y2722164D01*
X702559Y2731426D01*
Y2741015D01*
X700077Y2750277D01*
X695283Y2758581D01*
X688502Y2765362D01*
X680198Y2770156D01*
X670936Y2772638D01*
D02*
G37*
G36*
X570936D02*
X561347D01*
X552085Y2770156D01*
X543781Y2765362D01*
X537001Y2758581D01*
X532206Y2750277D01*
X529724Y2741015D01*
Y2731426D01*
X532206Y2722164D01*
X537001Y2713860D01*
X543781Y2707079D01*
X552085Y2702285D01*
X561347Y2699803D01*
X570936D01*
X580198Y2702285D01*
X588502Y2707079D01*
X595283Y2713860D01*
X600077Y2722164D01*
X602559Y2731426D01*
Y2741015D01*
X600077Y2750277D01*
X595283Y2758581D01*
X588502Y2765362D01*
X580198Y2770156D01*
X570936Y2772638D01*
D02*
G37*
G36*
X3070936Y2672638D02*
X3061347D01*
X3052085Y2670156D01*
X3043781Y2665362D01*
X3037001Y2658581D01*
X3032206Y2650277D01*
X3029724Y2641015D01*
Y2631426D01*
X3032206Y2622164D01*
X3037001Y2613860D01*
X3043781Y2607079D01*
X3052085Y2602285D01*
X3061347Y2599803D01*
X3070936D01*
X3080198Y2602285D01*
X3088502Y2607079D01*
X3095283Y2613860D01*
X3100077Y2622164D01*
X3102559Y2631426D01*
Y2641015D01*
X3100077Y2650277D01*
X3095283Y2658581D01*
X3088502Y2665362D01*
X3080198Y2670156D01*
X3070936Y2672638D01*
D02*
G37*
G36*
X2970936D02*
X2961347D01*
X2952085Y2670156D01*
X2943781Y2665362D01*
X2937001Y2658581D01*
X2932206Y2650277D01*
X2929724Y2641015D01*
Y2631426D01*
X2932206Y2622164D01*
X2937001Y2613860D01*
X2943781Y2607079D01*
X2952085Y2602285D01*
X2961347Y2599803D01*
X2970936D01*
X2980198Y2602285D01*
X2988502Y2607079D01*
X2995283Y2613860D01*
X3000077Y2622164D01*
X3002559Y2631426D01*
Y2641015D01*
X3000077Y2650277D01*
X2995283Y2658581D01*
X2988502Y2665362D01*
X2980198Y2670156D01*
X2970936Y2672638D01*
D02*
G37*
G36*
X670936D02*
X661347D01*
X652085Y2670156D01*
X643781Y2665362D01*
X637001Y2658581D01*
X632206Y2650277D01*
X629724Y2641015D01*
Y2631426D01*
X632206Y2622164D01*
X637001Y2613860D01*
X643781Y2607079D01*
X652085Y2602285D01*
X661347Y2599803D01*
X670936D01*
X680198Y2602285D01*
X688502Y2607079D01*
X695283Y2613860D01*
X700077Y2622164D01*
X702559Y2631426D01*
Y2641015D01*
X700077Y2650277D01*
X695283Y2658581D01*
X688502Y2665362D01*
X680198Y2670156D01*
X670936Y2672638D01*
D02*
G37*
G36*
X570936D02*
X561347D01*
X552085Y2670156D01*
X543781Y2665362D01*
X537001Y2658581D01*
X532206Y2650277D01*
X529724Y2641015D01*
Y2631426D01*
X532206Y2622164D01*
X537001Y2613860D01*
X543781Y2607079D01*
X552085Y2602285D01*
X561347Y2599803D01*
X570936D01*
X580198Y2602285D01*
X588502Y2607079D01*
X595283Y2613860D01*
X600077Y2622164D01*
X602559Y2631426D01*
Y2641015D01*
X600077Y2650277D01*
X595283Y2658581D01*
X588502Y2665362D01*
X580198Y2670156D01*
X570936Y2672638D01*
D02*
G37*
G36*
X3070936Y2572638D02*
X3061347D01*
X3052085Y2570156D01*
X3043781Y2565362D01*
X3037001Y2558581D01*
X3032206Y2550277D01*
X3029724Y2541015D01*
Y2531426D01*
X3032206Y2522164D01*
X3037001Y2513860D01*
X3043781Y2507079D01*
X3052085Y2502285D01*
X3061347Y2499803D01*
X3070936D01*
X3080198Y2502285D01*
X3088502Y2507079D01*
X3095283Y2513860D01*
X3100077Y2522164D01*
X3102559Y2531426D01*
Y2541015D01*
X3100077Y2550277D01*
X3095283Y2558581D01*
X3088502Y2565362D01*
X3080198Y2570156D01*
X3070936Y2572638D01*
D02*
G37*
G36*
X2970936D02*
X2961347D01*
X2952085Y2570156D01*
X2943781Y2565362D01*
X2937001Y2558581D01*
X2932206Y2550277D01*
X2929724Y2541015D01*
Y2531426D01*
X2932206Y2522164D01*
X2937001Y2513860D01*
X2943781Y2507079D01*
X2952085Y2502285D01*
X2961347Y2499803D01*
X2970936D01*
X2980198Y2502285D01*
X2988502Y2507079D01*
X2995283Y2513860D01*
X3000077Y2522164D01*
X3002559Y2531426D01*
Y2541015D01*
X3000077Y2550277D01*
X2995283Y2558581D01*
X2988502Y2565362D01*
X2980198Y2570156D01*
X2970936Y2572638D01*
D02*
G37*
G36*
X670936D02*
X661347D01*
X652085Y2570156D01*
X643781Y2565362D01*
X637001Y2558581D01*
X632206Y2550277D01*
X629724Y2541015D01*
Y2531426D01*
X632206Y2522164D01*
X637001Y2513860D01*
X643781Y2507079D01*
X652085Y2502285D01*
X661347Y2499803D01*
X670936D01*
X680198Y2502285D01*
X688502Y2507079D01*
X695283Y2513860D01*
X700077Y2522164D01*
X702559Y2531426D01*
Y2541015D01*
X700077Y2550277D01*
X695283Y2558581D01*
X688502Y2565362D01*
X680198Y2570156D01*
X670936Y2572638D01*
D02*
G37*
G36*
X570936D02*
X561347D01*
X552085Y2570156D01*
X543781Y2565362D01*
X537001Y2558581D01*
X532206Y2550277D01*
X529724Y2541015D01*
Y2531426D01*
X532206Y2522164D01*
X537001Y2513860D01*
X543781Y2507079D01*
X552085Y2502285D01*
X561347Y2499803D01*
X570936D01*
X580198Y2502285D01*
X588502Y2507079D01*
X595283Y2513860D01*
X600077Y2522164D01*
X602559Y2531426D01*
Y2541015D01*
X600077Y2550277D01*
X595283Y2558581D01*
X588502Y2565362D01*
X580198Y2570156D01*
X570936Y2572638D01*
D02*
G37*
G36*
X3070936Y2472638D02*
X3061347D01*
X3052085Y2470156D01*
X3043781Y2465362D01*
X3037001Y2458581D01*
X3032206Y2450277D01*
X3029724Y2441015D01*
Y2431426D01*
X3032206Y2422164D01*
X3037001Y2413860D01*
X3043781Y2407079D01*
X3052085Y2402285D01*
X3061347Y2399803D01*
X3070936D01*
X3080198Y2402285D01*
X3088502Y2407079D01*
X3095283Y2413860D01*
X3100077Y2422164D01*
X3102559Y2431426D01*
Y2441015D01*
X3100077Y2450277D01*
X3095283Y2458581D01*
X3088502Y2465362D01*
X3080198Y2470156D01*
X3070936Y2472638D01*
D02*
G37*
G36*
X2970936D02*
X2961347D01*
X2952085Y2470156D01*
X2943781Y2465362D01*
X2937001Y2458581D01*
X2932206Y2450277D01*
X2929724Y2441015D01*
Y2431426D01*
X2932206Y2422164D01*
X2937001Y2413860D01*
X2943781Y2407079D01*
X2952085Y2402285D01*
X2961347Y2399803D01*
X2970936D01*
X2980198Y2402285D01*
X2988502Y2407079D01*
X2995283Y2413860D01*
X3000077Y2422164D01*
X3002559Y2431426D01*
Y2441015D01*
X3000077Y2450277D01*
X2995283Y2458581D01*
X2988502Y2465362D01*
X2980198Y2470156D01*
X2970936Y2472638D01*
D02*
G37*
G36*
X670936D02*
X661347D01*
X652085Y2470156D01*
X643781Y2465362D01*
X637001Y2458581D01*
X632206Y2450277D01*
X629724Y2441015D01*
Y2431426D01*
X632206Y2422164D01*
X637001Y2413860D01*
X643781Y2407079D01*
X652085Y2402285D01*
X661347Y2399803D01*
X670936D01*
X680198Y2402285D01*
X688502Y2407079D01*
X695283Y2413860D01*
X700077Y2422164D01*
X702559Y2431426D01*
Y2441015D01*
X700077Y2450277D01*
X695283Y2458581D01*
X688502Y2465362D01*
X680198Y2470156D01*
X670936Y2472638D01*
D02*
G37*
G36*
X570936D02*
X561347D01*
X552085Y2470156D01*
X543781Y2465362D01*
X537001Y2458581D01*
X532206Y2450277D01*
X529724Y2441015D01*
Y2431426D01*
X532206Y2422164D01*
X537001Y2413860D01*
X543781Y2407079D01*
X552085Y2402285D01*
X561347Y2399803D01*
X570936D01*
X580198Y2402285D01*
X588502Y2407079D01*
X595283Y2413860D01*
X600077Y2422164D01*
X602559Y2431426D01*
Y2441015D01*
X600077Y2450277D01*
X595283Y2458581D01*
X588502Y2465362D01*
X580198Y2470156D01*
X570936Y2472638D01*
D02*
G37*
G36*
X3070936Y2372638D02*
X3061347D01*
X3052085Y2370156D01*
X3043781Y2365362D01*
X3037001Y2358581D01*
X3032206Y2350277D01*
X3029724Y2341015D01*
Y2331426D01*
X3032206Y2322164D01*
X3037001Y2313860D01*
X3043781Y2307079D01*
X3052085Y2302285D01*
X3061347Y2299803D01*
X3070936D01*
X3080198Y2302285D01*
X3088502Y2307079D01*
X3095283Y2313860D01*
X3100077Y2322164D01*
X3102559Y2331426D01*
Y2341015D01*
X3100077Y2350277D01*
X3095283Y2358581D01*
X3088502Y2365362D01*
X3080198Y2370156D01*
X3070936Y2372638D01*
D02*
G37*
G36*
X2970936D02*
X2961347D01*
X2952085Y2370156D01*
X2943781Y2365362D01*
X2937001Y2358581D01*
X2932206Y2350277D01*
X2929724Y2341015D01*
Y2331426D01*
X2932206Y2322164D01*
X2937001Y2313860D01*
X2943781Y2307079D01*
X2952085Y2302285D01*
X2961347Y2299803D01*
X2970936D01*
X2980198Y2302285D01*
X2988502Y2307079D01*
X2995283Y2313860D01*
X3000077Y2322164D01*
X3002559Y2331426D01*
Y2341015D01*
X3000077Y2350277D01*
X2995283Y2358581D01*
X2988502Y2365362D01*
X2980198Y2370156D01*
X2970936Y2372638D01*
D02*
G37*
G36*
X670936D02*
X661347D01*
X652085Y2370156D01*
X643781Y2365362D01*
X637001Y2358581D01*
X632206Y2350277D01*
X629724Y2341015D01*
Y2331426D01*
X632206Y2322164D01*
X637001Y2313860D01*
X643781Y2307079D01*
X652085Y2302285D01*
X661347Y2299803D01*
X670936D01*
X680198Y2302285D01*
X688502Y2307079D01*
X695283Y2313860D01*
X700077Y2322164D01*
X702559Y2331426D01*
Y2341015D01*
X700077Y2350277D01*
X695283Y2358581D01*
X688502Y2365362D01*
X680198Y2370156D01*
X670936Y2372638D01*
D02*
G37*
G36*
X570936D02*
X561347D01*
X552085Y2370156D01*
X543781Y2365362D01*
X537001Y2358581D01*
X532206Y2350277D01*
X529724Y2341015D01*
Y2331426D01*
X532206Y2322164D01*
X537001Y2313860D01*
X543781Y2307079D01*
X552085Y2302285D01*
X561347Y2299803D01*
X570936D01*
X580198Y2302285D01*
X588502Y2307079D01*
X595283Y2313860D01*
X600077Y2322164D01*
X602559Y2331426D01*
Y2341015D01*
X600077Y2350277D01*
X595283Y2358581D01*
X588502Y2365362D01*
X580198Y2370156D01*
X570936Y2372638D01*
D02*
G37*
G36*
X902953Y2373032D02*
X829331D01*
Y2299410D01*
X902953D01*
Y2373032D01*
D02*
G37*
G36*
X3070936Y2272638D02*
X3061347D01*
X3052085Y2270156D01*
X3043781Y2265362D01*
X3037001Y2258581D01*
X3032206Y2250277D01*
X3029724Y2241015D01*
Y2231426D01*
X3032206Y2222164D01*
X3037001Y2213860D01*
X3043781Y2207079D01*
X3052085Y2202285D01*
X3061347Y2199803D01*
X3070936D01*
X3080198Y2202285D01*
X3088502Y2207079D01*
X3095283Y2213860D01*
X3100077Y2222164D01*
X3102559Y2231426D01*
Y2241015D01*
X3100077Y2250277D01*
X3095283Y2258581D01*
X3088502Y2265362D01*
X3080198Y2270156D01*
X3070936Y2272638D01*
D02*
G37*
G36*
X2970936D02*
X2961347D01*
X2952085Y2270156D01*
X2943781Y2265362D01*
X2937001Y2258581D01*
X2932206Y2250277D01*
X2929724Y2241015D01*
Y2231426D01*
X2932206Y2222164D01*
X2937001Y2213860D01*
X2943781Y2207079D01*
X2952085Y2202285D01*
X2961347Y2199803D01*
X2970936D01*
X2980198Y2202285D01*
X2988502Y2207079D01*
X2995283Y2213860D01*
X3000077Y2222164D01*
X3002559Y2231426D01*
Y2241015D01*
X3000077Y2250277D01*
X2995283Y2258581D01*
X2988502Y2265362D01*
X2980198Y2270156D01*
X2970936Y2272638D01*
D02*
G37*
G36*
X670936D02*
X661347D01*
X652085Y2270156D01*
X643781Y2265362D01*
X637001Y2258581D01*
X632206Y2250277D01*
X629724Y2241015D01*
Y2231426D01*
X632206Y2222164D01*
X637001Y2213860D01*
X643781Y2207079D01*
X652085Y2202285D01*
X661347Y2199803D01*
X670936D01*
X680198Y2202285D01*
X688502Y2207079D01*
X695283Y2213860D01*
X700077Y2222164D01*
X702559Y2231426D01*
Y2241015D01*
X700077Y2250277D01*
X695283Y2258581D01*
X688502Y2265362D01*
X680198Y2270156D01*
X670936Y2272638D01*
D02*
G37*
G36*
X570936D02*
X561347D01*
X552085Y2270156D01*
X543781Y2265362D01*
X537001Y2258581D01*
X532206Y2250277D01*
X529724Y2241015D01*
Y2231426D01*
X532206Y2222164D01*
X537001Y2213860D01*
X543781Y2207079D01*
X552085Y2202285D01*
X561347Y2199803D01*
X570936D01*
X580198Y2202285D01*
X588502Y2207079D01*
X595283Y2213860D01*
X600077Y2222164D01*
X602559Y2231426D01*
Y2241015D01*
X600077Y2250277D01*
X595283Y2258581D01*
X588502Y2265362D01*
X580198Y2270156D01*
X570936Y2272638D01*
D02*
G37*
G36*
X870988Y2273032D02*
X861295D01*
X851933Y2270523D01*
X843539Y2265677D01*
X836686Y2258823D01*
X831839Y2250429D01*
X829331Y2241067D01*
Y2231374D01*
X831839Y2222012D01*
X836686Y2213618D01*
X843539Y2206764D01*
X851933Y2201918D01*
X861295Y2199410D01*
X870988D01*
X880350Y2201918D01*
X888744Y2206764D01*
X895598Y2213618D01*
X900444Y2222012D01*
X902953Y2231374D01*
Y2241067D01*
X900444Y2250429D01*
X895598Y2258823D01*
X888744Y2265677D01*
X880350Y2270523D01*
X870988Y2273032D01*
D02*
G37*
G36*
X3070936Y2172638D02*
X3061347D01*
X3052085Y2170156D01*
X3043781Y2165362D01*
X3037001Y2158581D01*
X3032206Y2150277D01*
X3029724Y2141015D01*
Y2131426D01*
X3032206Y2122164D01*
X3037001Y2113860D01*
X3043781Y2107079D01*
X3052085Y2102285D01*
X3061347Y2099803D01*
X3070936D01*
X3080198Y2102285D01*
X3088502Y2107079D01*
X3095283Y2113860D01*
X3100077Y2122164D01*
X3102559Y2131426D01*
Y2141015D01*
X3100077Y2150277D01*
X3095283Y2158581D01*
X3088502Y2165362D01*
X3080198Y2170156D01*
X3070936Y2172638D01*
D02*
G37*
G36*
X2970936D02*
X2961347D01*
X2952085Y2170156D01*
X2943781Y2165362D01*
X2937001Y2158581D01*
X2932206Y2150277D01*
X2929724Y2141015D01*
Y2131426D01*
X2932206Y2122164D01*
X2937001Y2113860D01*
X2943781Y2107079D01*
X2952085Y2102285D01*
X2961347Y2099803D01*
X2970936D01*
X2980198Y2102285D01*
X2988502Y2107079D01*
X2995283Y2113860D01*
X3000077Y2122164D01*
X3002559Y2131426D01*
Y2141015D01*
X3000077Y2150277D01*
X2995283Y2158581D01*
X2988502Y2165362D01*
X2980198Y2170156D01*
X2970936Y2172638D01*
D02*
G37*
G36*
X670936D02*
X661347D01*
X652085Y2170156D01*
X643781Y2165362D01*
X637001Y2158581D01*
X632206Y2150277D01*
X629724Y2141015D01*
Y2131426D01*
X632206Y2122164D01*
X637001Y2113860D01*
X643781Y2107079D01*
X652085Y2102285D01*
X661347Y2099803D01*
X670936D01*
X680198Y2102285D01*
X688502Y2107079D01*
X695283Y2113860D01*
X700077Y2122164D01*
X702559Y2131426D01*
Y2141015D01*
X700077Y2150277D01*
X695283Y2158581D01*
X688502Y2165362D01*
X680198Y2170156D01*
X670936Y2172638D01*
D02*
G37*
G36*
X570936D02*
X561347D01*
X552085Y2170156D01*
X543781Y2165362D01*
X537001Y2158581D01*
X532206Y2150277D01*
X529724Y2141015D01*
Y2131426D01*
X532206Y2122164D01*
X537001Y2113860D01*
X543781Y2107079D01*
X552085Y2102285D01*
X561347Y2099803D01*
X570936D01*
X580198Y2102285D01*
X588502Y2107079D01*
X595283Y2113860D01*
X600077Y2122164D01*
X602559Y2131426D01*
Y2141015D01*
X600077Y2150277D01*
X595283Y2158581D01*
X588502Y2165362D01*
X580198Y2170156D01*
X570936Y2172638D01*
D02*
G37*
G36*
X870988Y2173032D02*
X861295D01*
X851933Y2170523D01*
X843539Y2165677D01*
X836686Y2158823D01*
X831839Y2150429D01*
X829331Y2141067D01*
Y2131374D01*
X831839Y2122012D01*
X836686Y2113618D01*
X843539Y2106764D01*
X851933Y2101918D01*
X861295Y2099410D01*
X870988D01*
X880350Y2101918D01*
X888744Y2106764D01*
X895598Y2113618D01*
X900444Y2122012D01*
X902953Y2131374D01*
Y2141067D01*
X900444Y2150429D01*
X895598Y2158823D01*
X888744Y2165677D01*
X880350Y2170523D01*
X870988Y2173032D01*
D02*
G37*
G36*
X3070936Y2072638D02*
X3061347D01*
X3052085Y2070156D01*
X3043781Y2065362D01*
X3037001Y2058581D01*
X3032206Y2050277D01*
X3029724Y2041015D01*
Y2031426D01*
X3032206Y2022164D01*
X3037001Y2013860D01*
X3043781Y2007079D01*
X3052085Y2002285D01*
X3061347Y1999803D01*
X3070936D01*
X3080198Y2002285D01*
X3088502Y2007079D01*
X3095283Y2013860D01*
X3100077Y2022164D01*
X3102559Y2031426D01*
Y2041015D01*
X3100077Y2050277D01*
X3095283Y2058581D01*
X3088502Y2065362D01*
X3080198Y2070156D01*
X3070936Y2072638D01*
D02*
G37*
G36*
X2970936D02*
X2961347D01*
X2952085Y2070156D01*
X2943781Y2065362D01*
X2937001Y2058581D01*
X2932206Y2050277D01*
X2929724Y2041015D01*
Y2031426D01*
X2932206Y2022164D01*
X2937001Y2013860D01*
X2943781Y2007079D01*
X2952085Y2002285D01*
X2961347Y1999803D01*
X2970936D01*
X2980198Y2002285D01*
X2988502Y2007079D01*
X2995283Y2013860D01*
X3000077Y2022164D01*
X3002559Y2031426D01*
Y2041015D01*
X3000077Y2050277D01*
X2995283Y2058581D01*
X2988502Y2065362D01*
X2980198Y2070156D01*
X2970936Y2072638D01*
D02*
G37*
G36*
X670936D02*
X661347D01*
X652085Y2070156D01*
X643781Y2065362D01*
X637001Y2058581D01*
X632206Y2050277D01*
X629724Y2041015D01*
Y2031426D01*
X632206Y2022164D01*
X637001Y2013860D01*
X643781Y2007079D01*
X652085Y2002285D01*
X661347Y1999803D01*
X670936D01*
X680198Y2002285D01*
X688502Y2007079D01*
X695283Y2013860D01*
X700077Y2022164D01*
X702559Y2031426D01*
Y2041015D01*
X700077Y2050277D01*
X695283Y2058581D01*
X688502Y2065362D01*
X680198Y2070156D01*
X670936Y2072638D01*
D02*
G37*
G36*
X570936D02*
X561347D01*
X552085Y2070156D01*
X543781Y2065362D01*
X537001Y2058581D01*
X532206Y2050277D01*
X529724Y2041015D01*
Y2031426D01*
X532206Y2022164D01*
X537001Y2013860D01*
X543781Y2007079D01*
X552085Y2002285D01*
X561347Y1999803D01*
X570936D01*
X580198Y2002285D01*
X588502Y2007079D01*
X595283Y2013860D01*
X600077Y2022164D01*
X602559Y2031426D01*
Y2041015D01*
X600077Y2050277D01*
X595283Y2058581D01*
X588502Y2065362D01*
X580198Y2070156D01*
X570936Y2072638D01*
D02*
G37*
G36*
X870988Y2073032D02*
X861295D01*
X851933Y2070523D01*
X843539Y2065677D01*
X836686Y2058823D01*
X831839Y2050429D01*
X829331Y2041067D01*
Y2031374D01*
X831839Y2022012D01*
X836686Y2013618D01*
X843539Y2006764D01*
X851933Y2001918D01*
X861295Y1999409D01*
X870988D01*
X880350Y2001918D01*
X888744Y2006764D01*
X895598Y2013618D01*
X900444Y2022012D01*
X902953Y2031374D01*
Y2041067D01*
X900444Y2050429D01*
X895598Y2058823D01*
X888744Y2065677D01*
X880350Y2070523D01*
X870988Y2073032D01*
D02*
G37*
G36*
X994095Y2000150D02*
Y1974409D01*
X1019835D01*
X1017820Y1981930D01*
X1013912Y1988699D01*
X1008385Y1994226D01*
X1001615Y1998134D01*
X994095Y2000150D01*
D02*
G37*
G36*
X986221D02*
X978699Y1998134D01*
X971931Y1994226D01*
X966404Y1988699D01*
X962495Y1981930D01*
X960480Y1974409D01*
X986221D01*
Y2000150D01*
D02*
G37*
G36*
X3070936Y1972638D02*
X3061347D01*
X3052085Y1970156D01*
X3043781Y1965362D01*
X3037001Y1958581D01*
X3032206Y1950277D01*
X3029724Y1941015D01*
Y1931426D01*
X3032206Y1922164D01*
X3037001Y1913860D01*
X3043781Y1907079D01*
X3052085Y1902285D01*
X3061347Y1899803D01*
X3070936D01*
X3080198Y1902285D01*
X3088502Y1907079D01*
X3095283Y1913860D01*
X3100077Y1922164D01*
X3102559Y1931426D01*
Y1941015D01*
X3100077Y1950277D01*
X3095283Y1958581D01*
X3088502Y1965362D01*
X3080198Y1970156D01*
X3070936Y1972638D01*
D02*
G37*
G36*
X2970936D02*
X2961347D01*
X2952085Y1970156D01*
X2943781Y1965362D01*
X2937001Y1958581D01*
X2932206Y1950277D01*
X2929724Y1941015D01*
Y1931426D01*
X2932206Y1922164D01*
X2937001Y1913860D01*
X2943781Y1907079D01*
X2952085Y1902285D01*
X2961347Y1899803D01*
X2970936D01*
X2980198Y1902285D01*
X2988502Y1907079D01*
X2995283Y1913860D01*
X3000077Y1922164D01*
X3002559Y1931426D01*
Y1941015D01*
X3000077Y1950277D01*
X2995283Y1958581D01*
X2988502Y1965362D01*
X2980198Y1970156D01*
X2970936Y1972638D01*
D02*
G37*
G36*
X670936D02*
X661347D01*
X652085Y1970156D01*
X643781Y1965362D01*
X637001Y1958581D01*
X632206Y1950277D01*
X629724Y1941015D01*
Y1931426D01*
X632206Y1922164D01*
X637001Y1913860D01*
X643781Y1907079D01*
X652085Y1902285D01*
X661347Y1899803D01*
X670936D01*
X680198Y1902285D01*
X688502Y1907079D01*
X695283Y1913860D01*
X700077Y1922164D01*
X702559Y1931426D01*
Y1941015D01*
X700077Y1950277D01*
X695283Y1958581D01*
X688502Y1965362D01*
X680198Y1970156D01*
X670936Y1972638D01*
D02*
G37*
G36*
X570936D02*
X561347D01*
X552085Y1970156D01*
X543781Y1965362D01*
X537001Y1958581D01*
X532206Y1950277D01*
X529724Y1941015D01*
Y1931426D01*
X532206Y1922164D01*
X537001Y1913860D01*
X543781Y1907079D01*
X552085Y1902285D01*
X561347Y1899803D01*
X570936D01*
X580198Y1902285D01*
X588502Y1907079D01*
X595283Y1913860D01*
X600077Y1922164D01*
X602559Y1931426D01*
Y1941015D01*
X600077Y1950277D01*
X595283Y1958581D01*
X588502Y1965362D01*
X580198Y1970156D01*
X570936Y1972638D01*
D02*
G37*
G36*
X870988Y1973032D02*
X861295D01*
X851933Y1970523D01*
X843539Y1965677D01*
X836686Y1958823D01*
X831839Y1950429D01*
X829331Y1941067D01*
Y1931374D01*
X831839Y1922012D01*
X836686Y1913618D01*
X843539Y1906764D01*
X851933Y1901918D01*
X861295Y1899409D01*
X870988D01*
X880350Y1901918D01*
X888744Y1906764D01*
X895598Y1913618D01*
X900444Y1922012D01*
X902953Y1931374D01*
Y1941067D01*
X900444Y1950429D01*
X895598Y1958823D01*
X888744Y1965677D01*
X880350Y1970523D01*
X870988Y1973032D01*
D02*
G37*
G36*
X1019835Y1966535D02*
X960480D01*
X962495Y1959014D01*
X966404Y1952245D01*
X971931Y1946718D01*
X978699Y1942810D01*
X980122Y1942429D01*
Y1914854D01*
X978699Y1914473D01*
X971931Y1910565D01*
X966404Y1905038D01*
X962495Y1898269D01*
X960480Y1890748D01*
X1019835D01*
X1017820Y1898269D01*
X1013912Y1905038D01*
X1008385Y1910565D01*
X1001615Y1914473D01*
X1000193Y1914854D01*
Y1942429D01*
X1001615Y1942810D01*
X1008385Y1946718D01*
X1013912Y1952245D01*
X1017820Y1959014D01*
X1019835Y1966535D01*
D02*
G37*
G36*
Y1882874D02*
X994095D01*
Y1857134D01*
X1001615Y1859149D01*
X1008385Y1863057D01*
X1013912Y1868584D01*
X1017820Y1875353D01*
X1019835Y1882874D01*
D02*
G37*
G36*
X986221D02*
X960480D01*
X962495Y1875353D01*
X966404Y1868584D01*
X971931Y1863057D01*
X978699Y1859149D01*
X986221Y1857134D01*
Y1882874D01*
D02*
G37*
G36*
X871527Y1877126D02*
X870079D01*
Y1840157D01*
X907047D01*
Y1841606D01*
X904260Y1852009D01*
X898874Y1861337D01*
X891258Y1868953D01*
X881931Y1874338D01*
X871527Y1877126D01*
D02*
G37*
G36*
X862205D02*
X860756D01*
X850353Y1874338D01*
X841025Y1868953D01*
X833409Y1861337D01*
X828024Y1852009D01*
X825236Y1841606D01*
Y1840157D01*
X862205D01*
Y1877126D01*
D02*
G37*
G36*
X3070936Y1872638D02*
X3061347D01*
X3052085Y1870156D01*
X3043781Y1865362D01*
X3037001Y1858581D01*
X3032206Y1850277D01*
X3029724Y1841015D01*
Y1831426D01*
X3032206Y1822164D01*
X3037001Y1813860D01*
X3043781Y1807079D01*
X3052085Y1802285D01*
X3061347Y1799803D01*
X3070936D01*
X3080198Y1802285D01*
X3088502Y1807079D01*
X3095283Y1813860D01*
X3100077Y1822164D01*
X3102559Y1831426D01*
Y1841015D01*
X3100077Y1850277D01*
X3095283Y1858581D01*
X3088502Y1865362D01*
X3080198Y1870156D01*
X3070936Y1872638D01*
D02*
G37*
G36*
X2970936D02*
X2961347D01*
X2952085Y1870156D01*
X2943781Y1865362D01*
X2937001Y1858581D01*
X2932206Y1850277D01*
X2929724Y1841015D01*
Y1831426D01*
X2932206Y1822164D01*
X2937001Y1813860D01*
X2943781Y1807079D01*
X2952085Y1802285D01*
X2961347Y1799803D01*
X2970936D01*
X2980198Y1802285D01*
X2988502Y1807079D01*
X2995283Y1813860D01*
X3000077Y1822164D01*
X3002559Y1831426D01*
Y1841015D01*
X3000077Y1850277D01*
X2995283Y1858581D01*
X2988502Y1865362D01*
X2980198Y1870156D01*
X2970936Y1872638D01*
D02*
G37*
G36*
X670936D02*
X661347D01*
X652085Y1870156D01*
X643781Y1865362D01*
X637001Y1858581D01*
X632206Y1850277D01*
X629724Y1841015D01*
Y1831426D01*
X632206Y1822164D01*
X637001Y1813860D01*
X643781Y1807079D01*
X652085Y1802285D01*
X661347Y1799803D01*
X670936D01*
X680198Y1802285D01*
X688502Y1807079D01*
X695283Y1813860D01*
X700077Y1822164D01*
X702559Y1831426D01*
Y1841015D01*
X700077Y1850277D01*
X695283Y1858581D01*
X688502Y1865362D01*
X680198Y1870156D01*
X670936Y1872638D01*
D02*
G37*
G36*
X570936D02*
X561347D01*
X552085Y1870156D01*
X543781Y1865362D01*
X537001Y1858581D01*
X532206Y1850277D01*
X529724Y1841015D01*
Y1831426D01*
X532206Y1822164D01*
X537001Y1813860D01*
X543781Y1807079D01*
X552085Y1802285D01*
X561347Y1799803D01*
X570936D01*
X580198Y1802285D01*
X588502Y1807079D01*
X595283Y1813860D01*
X600077Y1822164D01*
X602559Y1831426D01*
Y1841015D01*
X600077Y1850277D01*
X595283Y1858581D01*
X588502Y1865362D01*
X580198Y1870156D01*
X570936Y1872638D01*
D02*
G37*
G36*
X907047Y1832283D02*
X870079D01*
Y1795315D01*
X871527D01*
X881931Y1798103D01*
X891258Y1803488D01*
X898874Y1811104D01*
X904260Y1820432D01*
X907047Y1830835D01*
Y1832283D01*
D02*
G37*
G36*
X862205D02*
X825236D01*
Y1830835D01*
X828024Y1820432D01*
X833409Y1811104D01*
X841025Y1803488D01*
X850353Y1798103D01*
X860756Y1795315D01*
X862205D01*
Y1832283D01*
D02*
G37*
G36*
X3070936Y1772638D02*
X3061347D01*
X3052085Y1770156D01*
X3043781Y1765362D01*
X3037001Y1758581D01*
X3032206Y1750277D01*
X3029724Y1741015D01*
Y1731426D01*
X3032206Y1722164D01*
X3037001Y1713860D01*
X3043781Y1707079D01*
X3052085Y1702285D01*
X3061347Y1699803D01*
X3070936D01*
X3080198Y1702285D01*
X3088502Y1707079D01*
X3095283Y1713860D01*
X3100077Y1722164D01*
X3102559Y1731426D01*
Y1741015D01*
X3100077Y1750277D01*
X3095283Y1758581D01*
X3088502Y1765362D01*
X3080198Y1770156D01*
X3070936Y1772638D01*
D02*
G37*
G36*
X2970936D02*
X2961347D01*
X2952085Y1770156D01*
X2943781Y1765362D01*
X2937001Y1758581D01*
X2932206Y1750277D01*
X2929724Y1741015D01*
Y1731426D01*
X2932206Y1722164D01*
X2937001Y1713860D01*
X2943781Y1707079D01*
X2952085Y1702285D01*
X2961347Y1699803D01*
X2970936D01*
X2980198Y1702285D01*
X2988502Y1707079D01*
X2995283Y1713860D01*
X3000077Y1722164D01*
X3002559Y1731426D01*
Y1741015D01*
X3000077Y1750277D01*
X2995283Y1758581D01*
X2988502Y1765362D01*
X2980198Y1770156D01*
X2970936Y1772638D01*
D02*
G37*
G36*
X670936D02*
X661347D01*
X652085Y1770156D01*
X643781Y1765362D01*
X637001Y1758581D01*
X632206Y1750277D01*
X629724Y1741015D01*
Y1731426D01*
X632206Y1722164D01*
X637001Y1713860D01*
X643781Y1707079D01*
X652085Y1702285D01*
X661347Y1699803D01*
X670936D01*
X680198Y1702285D01*
X688502Y1707079D01*
X695283Y1713860D01*
X700077Y1722164D01*
X702559Y1731426D01*
Y1741015D01*
X700077Y1750277D01*
X695283Y1758581D01*
X688502Y1765362D01*
X680198Y1770156D01*
X670936Y1772638D01*
D02*
G37*
G36*
X570936D02*
X561347D01*
X552085Y1770156D01*
X543781Y1765362D01*
X537001Y1758581D01*
X532206Y1750277D01*
X529724Y1741015D01*
Y1731426D01*
X532206Y1722164D01*
X537001Y1713860D01*
X543781Y1707079D01*
X552085Y1702285D01*
X561347Y1699803D01*
X570936D01*
X580198Y1702285D01*
X588502Y1707079D01*
X595283Y1713860D01*
X600077Y1722164D01*
X602559Y1731426D01*
Y1741015D01*
X600077Y1750277D01*
X595283Y1758581D01*
X588502Y1765362D01*
X580198Y1770156D01*
X570936Y1772638D01*
D02*
G37*
G36*
X870988Y1773032D02*
X861295D01*
X851933Y1770523D01*
X843539Y1765677D01*
X836686Y1758823D01*
X831839Y1750429D01*
X829331Y1741067D01*
Y1731374D01*
X831839Y1722012D01*
X836686Y1713618D01*
X843539Y1706764D01*
X851933Y1701918D01*
X861295Y1699409D01*
X870988D01*
X880350Y1701918D01*
X888744Y1706764D01*
X895598Y1713618D01*
X900444Y1722012D01*
X902953Y1731374D01*
Y1741067D01*
X900444Y1750429D01*
X895598Y1758823D01*
X888744Y1765677D01*
X880350Y1770523D01*
X870988Y1773032D01*
D02*
G37*
G36*
X3070936Y1672638D02*
X3061347D01*
X3052085Y1670156D01*
X3043781Y1665362D01*
X3037001Y1658581D01*
X3032206Y1650277D01*
X3029724Y1641015D01*
Y1631426D01*
X3032206Y1622164D01*
X3037001Y1613860D01*
X3043781Y1607079D01*
X3052085Y1602285D01*
X3061347Y1599803D01*
X3070936D01*
X3080198Y1602285D01*
X3088502Y1607079D01*
X3095283Y1613860D01*
X3100077Y1622164D01*
X3102559Y1631426D01*
Y1641015D01*
X3100077Y1650277D01*
X3095283Y1658581D01*
X3088502Y1665362D01*
X3080198Y1670156D01*
X3070936Y1672638D01*
D02*
G37*
G36*
X2970936D02*
X2961347D01*
X2952085Y1670156D01*
X2943781Y1665362D01*
X2937001Y1658581D01*
X2932206Y1650277D01*
X2929724Y1641015D01*
Y1631426D01*
X2932206Y1622164D01*
X2937001Y1613860D01*
X2943781Y1607079D01*
X2952085Y1602285D01*
X2961347Y1599803D01*
X2970936D01*
X2980198Y1602285D01*
X2988502Y1607079D01*
X2995283Y1613860D01*
X3000077Y1622164D01*
X3002559Y1631426D01*
Y1641015D01*
X3000077Y1650277D01*
X2995283Y1658581D01*
X2988502Y1665362D01*
X2980198Y1670156D01*
X2970936Y1672638D01*
D02*
G37*
G36*
X670936D02*
X661347D01*
X652085Y1670156D01*
X643781Y1665362D01*
X637001Y1658581D01*
X632206Y1650277D01*
X629724Y1641015D01*
Y1631426D01*
X632206Y1622164D01*
X637001Y1613860D01*
X643781Y1607079D01*
X652085Y1602285D01*
X661347Y1599803D01*
X670936D01*
X680198Y1602285D01*
X688502Y1607079D01*
X695283Y1613860D01*
X700077Y1622164D01*
X702559Y1631426D01*
Y1641015D01*
X700077Y1650277D01*
X695283Y1658581D01*
X688502Y1665362D01*
X680198Y1670156D01*
X670936Y1672638D01*
D02*
G37*
G36*
X570936D02*
X561347D01*
X552085Y1670156D01*
X543781Y1665362D01*
X537001Y1658581D01*
X532206Y1650277D01*
X529724Y1641015D01*
Y1631426D01*
X532206Y1622164D01*
X537001Y1613860D01*
X543781Y1607079D01*
X552085Y1602285D01*
X561347Y1599803D01*
X570936D01*
X580198Y1602285D01*
X588502Y1607079D01*
X595283Y1613860D01*
X600077Y1622164D01*
X602559Y1631426D01*
Y1641015D01*
X600077Y1650277D01*
X595283Y1658581D01*
X588502Y1665362D01*
X580198Y1670156D01*
X570936Y1672638D01*
D02*
G37*
G36*
X870988Y1673032D02*
X861295D01*
X851933Y1670523D01*
X843539Y1665677D01*
X836686Y1658823D01*
X831839Y1650429D01*
X829331Y1641067D01*
Y1631374D01*
X831839Y1622012D01*
X836686Y1613618D01*
X843539Y1606764D01*
X851933Y1601918D01*
X861295Y1599409D01*
X870988D01*
X880350Y1601918D01*
X888744Y1606764D01*
X895598Y1613618D01*
X900444Y1622012D01*
X902953Y1631374D01*
Y1641067D01*
X900444Y1650429D01*
X895598Y1658823D01*
X888744Y1665677D01*
X880350Y1670523D01*
X870988Y1673032D01*
D02*
G37*
G36*
X1999432Y1954724D02*
X1992694D01*
X1986185Y1952980D01*
X1980350Y1949611D01*
X1975585Y1944847D01*
X1972216Y1939012D01*
X1970473Y1932503D01*
Y1925765D01*
X1972216Y1919256D01*
X1975585Y1913421D01*
X1980350Y1908656D01*
X1986185Y1905287D01*
X1992694Y1903543D01*
X1999432D01*
X2005765Y1905240D01*
X2026382Y1884623D01*
Y1631039D01*
X2020704Y1627761D01*
X2015940Y1622996D01*
X2012571Y1617161D01*
X2010827Y1610653D01*
Y1603914D01*
X2012571Y1597406D01*
X2015940Y1591571D01*
X2020704Y1586806D01*
X2026540Y1583437D01*
X2033048Y1581693D01*
X2039786D01*
X2046295Y1583437D01*
X2052130Y1586806D01*
X2056895Y1591571D01*
X2060264Y1597406D01*
X2062008Y1603914D01*
Y1610653D01*
X2060264Y1617161D01*
X2056895Y1622996D01*
X2052130Y1627761D01*
X2046453Y1631039D01*
Y1888780D01*
X2045689Y1892620D01*
X2043513Y1895876D01*
X2019957Y1919432D01*
X2021653Y1925765D01*
Y1932503D01*
X2019909Y1939012D01*
X2016541Y1944847D01*
X2011776Y1949611D01*
X2005941Y1952980D01*
X1999432Y1954724D01*
D02*
G37*
G36*
X3070936Y1572638D02*
X3061347D01*
X3052085Y1570156D01*
X3043781Y1565362D01*
X3037001Y1558581D01*
X3032206Y1550277D01*
X3029724Y1541015D01*
Y1531426D01*
X3032206Y1522164D01*
X3037001Y1513860D01*
X3043781Y1507079D01*
X3052085Y1502285D01*
X3061347Y1499803D01*
X3070936D01*
X3080198Y1502285D01*
X3088502Y1507079D01*
X3095283Y1513860D01*
X3100077Y1522164D01*
X3102559Y1531426D01*
Y1541015D01*
X3100077Y1550277D01*
X3095283Y1558581D01*
X3088502Y1565362D01*
X3080198Y1570156D01*
X3070936Y1572638D01*
D02*
G37*
G36*
X2970936D02*
X2961347D01*
X2952085Y1570156D01*
X2943781Y1565362D01*
X2937001Y1558581D01*
X2932206Y1550277D01*
X2929724Y1541015D01*
Y1531426D01*
X2932206Y1522164D01*
X2937001Y1513860D01*
X2943781Y1507079D01*
X2952085Y1502285D01*
X2961347Y1499803D01*
X2970936D01*
X2980198Y1502285D01*
X2988502Y1507079D01*
X2995283Y1513860D01*
X3000077Y1522164D01*
X3002559Y1531426D01*
Y1541015D01*
X3000077Y1550277D01*
X2995283Y1558581D01*
X2988502Y1565362D01*
X2980198Y1570156D01*
X2970936Y1572638D01*
D02*
G37*
G36*
X670936D02*
X661347D01*
X652085Y1570156D01*
X643781Y1565362D01*
X637001Y1558581D01*
X632206Y1550277D01*
X629724Y1541015D01*
Y1531426D01*
X632206Y1522164D01*
X637001Y1513860D01*
X643781Y1507079D01*
X652085Y1502285D01*
X661347Y1499803D01*
X670936D01*
X680198Y1502285D01*
X688502Y1507079D01*
X695283Y1513860D01*
X700077Y1522164D01*
X702559Y1531426D01*
Y1541015D01*
X700077Y1550277D01*
X695283Y1558581D01*
X688502Y1565362D01*
X680198Y1570156D01*
X670936Y1572638D01*
D02*
G37*
G36*
X570936D02*
X561347D01*
X552085Y1570156D01*
X543781Y1565362D01*
X537001Y1558581D01*
X532206Y1550277D01*
X529724Y1541015D01*
Y1531426D01*
X532206Y1522164D01*
X537001Y1513860D01*
X543781Y1507079D01*
X552085Y1502285D01*
X561347Y1499803D01*
X570936D01*
X580198Y1502285D01*
X588502Y1507079D01*
X595283Y1513860D01*
X600077Y1522164D01*
X602559Y1531426D01*
Y1541015D01*
X600077Y1550277D01*
X595283Y1558581D01*
X588502Y1565362D01*
X580198Y1570156D01*
X570936Y1572638D01*
D02*
G37*
G36*
X2138212Y1556102D02*
X2131473D01*
X2124965Y1554358D01*
X2119130Y1550989D01*
X2114365Y1546225D01*
X2110996Y1540389D01*
X2109252Y1533881D01*
Y1527143D01*
X2110996Y1520634D01*
X2114365Y1514799D01*
X2119130Y1510034D01*
X2124965Y1506665D01*
X2131473Y1504921D01*
X2138212D01*
X2144720Y1506665D01*
X2150555Y1510034D01*
X2155320Y1514799D01*
X2158598Y1520476D01*
X2411198D01*
X2433784Y1497891D01*
X2432087Y1491558D01*
Y1484820D01*
X2433831Y1478311D01*
X2437200Y1472476D01*
X2441964Y1467711D01*
X2447800Y1464342D01*
X2454308Y1462599D01*
X2461046D01*
X2467555Y1464342D01*
X2473390Y1467711D01*
X2478155Y1472476D01*
X2481524Y1478311D01*
X2483268Y1484820D01*
Y1491558D01*
X2481524Y1498067D01*
X2478155Y1503902D01*
X2473390Y1508667D01*
X2467555Y1512035D01*
X2461046Y1513780D01*
X2454308D01*
X2447976Y1512083D01*
X2422450Y1537608D01*
X2419195Y1539783D01*
X2415354Y1540547D01*
X2158598D01*
X2155320Y1546225D01*
X2150555Y1550989D01*
X2144720Y1554358D01*
X2138212Y1556102D01*
D02*
G37*
G36*
X2116558Y1469488D02*
X2109820D01*
X2103311Y1467744D01*
X2097476Y1464375D01*
X2092711Y1459611D01*
X2089434Y1453933D01*
X1990158D01*
X1986317Y1453169D01*
X1983061Y1450994D01*
X1791999Y1259931D01*
X1785666Y1261628D01*
X1778928D01*
X1772419Y1259884D01*
X1766584Y1256515D01*
X1761820Y1251750D01*
X1758450Y1245915D01*
X1756707Y1239406D01*
Y1232668D01*
X1758450Y1226159D01*
X1761820Y1220324D01*
X1766584Y1215560D01*
X1772419Y1212191D01*
X1778928Y1210447D01*
X1785666D01*
X1792175Y1212191D01*
X1798010Y1215560D01*
X1802774Y1220324D01*
X1806143Y1226159D01*
X1807888Y1232668D01*
Y1239406D01*
X1806191Y1245739D01*
X1994314Y1433862D01*
X2089434D01*
X2092711Y1428185D01*
X2097476Y1423420D01*
X2103311Y1420051D01*
X2109820Y1418307D01*
X2116558D01*
X2123067Y1420051D01*
X2128902Y1423420D01*
X2133666Y1428185D01*
X2137035Y1434020D01*
X2138780Y1440528D01*
Y1447267D01*
X2137035Y1453775D01*
X2133666Y1459611D01*
X2128902Y1464375D01*
X2123067Y1467744D01*
X2116558Y1469488D01*
D02*
G37*
G36*
X3070936Y1472638D02*
X3061347D01*
X3052085Y1470156D01*
X3043781Y1465362D01*
X3037001Y1458581D01*
X3032206Y1450277D01*
X3029724Y1441015D01*
Y1431426D01*
X3032206Y1422164D01*
X3037001Y1413860D01*
X3043781Y1407079D01*
X3052085Y1402285D01*
X3061347Y1399803D01*
X3070936D01*
X3080198Y1402285D01*
X3088502Y1407079D01*
X3095283Y1413860D01*
X3100077Y1422164D01*
X3102559Y1431426D01*
Y1441015D01*
X3100077Y1450277D01*
X3095283Y1458581D01*
X3088502Y1465362D01*
X3080198Y1470156D01*
X3070936Y1472638D01*
D02*
G37*
G36*
X2970936D02*
X2961347D01*
X2952085Y1470156D01*
X2943781Y1465362D01*
X2937001Y1458581D01*
X2932206Y1450277D01*
X2929724Y1441015D01*
Y1431426D01*
X2932206Y1422164D01*
X2937001Y1413860D01*
X2943781Y1407079D01*
X2952085Y1402285D01*
X2961347Y1399803D01*
X2970936D01*
X2980198Y1402285D01*
X2988502Y1407079D01*
X2995283Y1413860D01*
X3000077Y1422164D01*
X3002559Y1431426D01*
Y1441015D01*
X3000077Y1450277D01*
X2995283Y1458581D01*
X2988502Y1465362D01*
X2980198Y1470156D01*
X2970936Y1472638D01*
D02*
G37*
G36*
X670936D02*
X661347D01*
X652085Y1470156D01*
X643781Y1465362D01*
X637001Y1458581D01*
X632206Y1450277D01*
X629724Y1441015D01*
Y1431426D01*
X632206Y1422164D01*
X637001Y1413860D01*
X643781Y1407079D01*
X652085Y1402285D01*
X661347Y1399803D01*
X670936D01*
X680198Y1402285D01*
X688502Y1407079D01*
X695283Y1413860D01*
X700077Y1422164D01*
X702559Y1431426D01*
Y1441015D01*
X700077Y1450277D01*
X695283Y1458581D01*
X688502Y1465362D01*
X680198Y1470156D01*
X670936Y1472638D01*
D02*
G37*
G36*
X570936D02*
X561347D01*
X552085Y1470156D01*
X543781Y1465362D01*
X537001Y1458581D01*
X532206Y1450277D01*
X529724Y1441015D01*
Y1431426D01*
X532206Y1422164D01*
X537001Y1413860D01*
X543781Y1407079D01*
X552085Y1402285D01*
X561347Y1399803D01*
X570936D01*
X580198Y1402285D01*
X588502Y1407079D01*
X595283Y1413860D01*
X600077Y1422164D01*
X602559Y1431426D01*
Y1441015D01*
X600077Y1450277D01*
X595283Y1458581D01*
X588502Y1465362D01*
X580198Y1470156D01*
X570936Y1472638D01*
D02*
G37*
G36*
X3070936Y1372638D02*
X3061347D01*
X3052085Y1370156D01*
X3043781Y1365362D01*
X3037001Y1358581D01*
X3032206Y1350277D01*
X3029724Y1341015D01*
Y1331426D01*
X3032206Y1322164D01*
X3037001Y1313860D01*
X3043781Y1307079D01*
X3052085Y1302285D01*
X3061347Y1299803D01*
X3070936D01*
X3080198Y1302285D01*
X3088502Y1307079D01*
X3095283Y1313860D01*
X3100077Y1322164D01*
X3102559Y1331426D01*
Y1341015D01*
X3100077Y1350277D01*
X3095283Y1358581D01*
X3088502Y1365362D01*
X3080198Y1370156D01*
X3070936Y1372638D01*
D02*
G37*
G36*
X2970936D02*
X2961347D01*
X2952085Y1370156D01*
X2943781Y1365362D01*
X2937001Y1358581D01*
X2932206Y1350277D01*
X2929724Y1341015D01*
Y1331426D01*
X2932206Y1322164D01*
X2937001Y1313860D01*
X2943781Y1307079D01*
X2952085Y1302285D01*
X2961347Y1299803D01*
X2970936D01*
X2980198Y1302285D01*
X2988502Y1307079D01*
X2995283Y1313860D01*
X3000077Y1322164D01*
X3002559Y1331426D01*
Y1341015D01*
X3000077Y1350277D01*
X2995283Y1358581D01*
X2988502Y1365362D01*
X2980198Y1370156D01*
X2970936Y1372638D01*
D02*
G37*
G36*
X670936D02*
X661347D01*
X652085Y1370156D01*
X643781Y1365362D01*
X637001Y1358581D01*
X632206Y1350277D01*
X629724Y1341015D01*
Y1331426D01*
X632206Y1322164D01*
X637001Y1313860D01*
X643781Y1307079D01*
X652085Y1302285D01*
X661347Y1299803D01*
X670936D01*
X680198Y1302285D01*
X688502Y1307079D01*
X695283Y1313860D01*
X700077Y1322164D01*
X702559Y1331426D01*
Y1341015D01*
X700077Y1350277D01*
X695283Y1358581D01*
X688502Y1365362D01*
X680198Y1370156D01*
X670936Y1372638D01*
D02*
G37*
G36*
X570936D02*
X561347D01*
X552085Y1370156D01*
X543781Y1365362D01*
X537001Y1358581D01*
X532206Y1350277D01*
X529724Y1341015D01*
Y1331426D01*
X532206Y1322164D01*
X537001Y1313860D01*
X543781Y1307079D01*
X552085Y1302285D01*
X561347Y1299803D01*
X570936D01*
X580198Y1302285D01*
X588502Y1307079D01*
X595283Y1313860D01*
X600077Y1322164D01*
X602559Y1331426D01*
Y1341015D01*
X600077Y1350277D01*
X595283Y1358581D01*
X588502Y1365362D01*
X580198Y1370156D01*
X570936Y1372638D01*
D02*
G37*
G36*
X2190377Y1500984D02*
X2183639D01*
X2177130Y1499240D01*
X2171295Y1495871D01*
X2166530Y1491107D01*
X2163161Y1485271D01*
X2161417Y1478763D01*
Y1472025D01*
X2163161Y1465516D01*
X2166530Y1459681D01*
X2171295Y1454916D01*
X2177130Y1451547D01*
X2183639Y1449803D01*
X2190377D01*
X2196709Y1451500D01*
X2223232Y1424977D01*
Y1346590D01*
X2217555Y1343312D01*
X2212790Y1338547D01*
X2209421Y1332712D01*
X2207677Y1326204D01*
Y1319466D01*
X2209421Y1312957D01*
X2212790Y1307122D01*
X2217555Y1302357D01*
X2223390Y1298988D01*
X2229899Y1297244D01*
X2236637D01*
X2243145Y1298988D01*
X2248981Y1302357D01*
X2253745Y1307122D01*
X2257114Y1312957D01*
X2258858Y1319466D01*
Y1326204D01*
X2257114Y1332712D01*
X2253745Y1338547D01*
X2248981Y1343312D01*
X2243303Y1346590D01*
Y1429134D01*
X2242539Y1432974D01*
X2240364Y1436230D01*
X2210902Y1465692D01*
X2212598Y1472025D01*
Y1478763D01*
X2210854Y1485271D01*
X2207485Y1491107D01*
X2202721Y1495871D01*
X2196885Y1499240D01*
X2190377Y1500984D01*
D02*
G37*
G36*
X3070936Y1272638D02*
X3061347D01*
X3052085Y1270156D01*
X3043781Y1265362D01*
X3037001Y1258581D01*
X3032206Y1250277D01*
X3029724Y1241015D01*
Y1231426D01*
X3032206Y1222164D01*
X3037001Y1213860D01*
X3043781Y1207079D01*
X3052085Y1202285D01*
X3061347Y1199803D01*
X3070936D01*
X3080198Y1202285D01*
X3088502Y1207079D01*
X3095283Y1213860D01*
X3100077Y1222164D01*
X3102559Y1231426D01*
Y1241015D01*
X3100077Y1250277D01*
X3095283Y1258581D01*
X3088502Y1265362D01*
X3080198Y1270156D01*
X3070936Y1272638D01*
D02*
G37*
G36*
X2970936D02*
X2961347D01*
X2952085Y1270156D01*
X2943781Y1265362D01*
X2937001Y1258581D01*
X2932206Y1250277D01*
X2929724Y1241015D01*
Y1231426D01*
X2932206Y1222164D01*
X2937001Y1213860D01*
X2943781Y1207079D01*
X2952085Y1202285D01*
X2961347Y1199803D01*
X2970936D01*
X2980198Y1202285D01*
X2988502Y1207079D01*
X2995283Y1213860D01*
X3000077Y1222164D01*
X3002559Y1231426D01*
Y1241015D01*
X3000077Y1250277D01*
X2995283Y1258581D01*
X2988502Y1265362D01*
X2980198Y1270156D01*
X2970936Y1272638D01*
D02*
G37*
G36*
X670936D02*
X661347D01*
X652085Y1270156D01*
X643781Y1265362D01*
X637001Y1258581D01*
X632206Y1250277D01*
X629724Y1241015D01*
Y1231426D01*
X632206Y1222164D01*
X637001Y1213860D01*
X643781Y1207079D01*
X652085Y1202285D01*
X661347Y1199803D01*
X670936D01*
X680198Y1202285D01*
X688502Y1207079D01*
X695283Y1213860D01*
X700077Y1222164D01*
X702559Y1231426D01*
Y1241015D01*
X700077Y1250277D01*
X695283Y1258581D01*
X688502Y1265362D01*
X680198Y1270156D01*
X670936Y1272638D01*
D02*
G37*
G36*
X570936D02*
X561347D01*
X552085Y1270156D01*
X543781Y1265362D01*
X537001Y1258581D01*
X532206Y1250277D01*
X529724Y1241015D01*
Y1231426D01*
X532206Y1222164D01*
X537001Y1213860D01*
X543781Y1207079D01*
X552085Y1202285D01*
X561347Y1199803D01*
X570936D01*
X580198Y1202285D01*
X588502Y1207079D01*
X595283Y1213860D01*
X600077Y1222164D01*
X602559Y1231426D01*
Y1241015D01*
X600077Y1250277D01*
X595283Y1258581D01*
X588502Y1265362D01*
X580198Y1270156D01*
X570936Y1272638D01*
D02*
G37*
G36*
X1326204Y1467520D02*
X1319466D01*
X1312957Y1465776D01*
X1307122Y1462407D01*
X1302357Y1457642D01*
X1298988Y1451807D01*
X1297244Y1445298D01*
Y1438560D01*
X1298988Y1432052D01*
X1302357Y1426216D01*
X1307122Y1421452D01*
X1312799Y1418174D01*
Y1400841D01*
X1313563Y1397001D01*
X1315739Y1393745D01*
X1333469Y1376015D01*
Y1202976D01*
X1325647Y1195153D01*
X1319314Y1196850D01*
X1312576D01*
X1306067Y1195106D01*
X1300232Y1191737D01*
X1295467Y1186973D01*
X1292098Y1181137D01*
X1290354Y1174629D01*
Y1167891D01*
X1292098Y1161382D01*
X1295467Y1155547D01*
X1300232Y1150782D01*
X1306067Y1147413D01*
X1312576Y1145669D01*
X1319314D01*
X1325822Y1147413D01*
X1331658Y1150782D01*
X1336422Y1155547D01*
X1339791Y1161382D01*
X1341535Y1167891D01*
Y1174629D01*
X1339839Y1180961D01*
X1350600Y1191723D01*
X1352775Y1194978D01*
X1353539Y1198819D01*
Y1380172D01*
X1352775Y1384012D01*
X1350600Y1387268D01*
X1332870Y1404998D01*
Y1418174D01*
X1338547Y1421452D01*
X1343312Y1426216D01*
X1346681Y1432052D01*
X1348425Y1438560D01*
Y1445298D01*
X1346681Y1451807D01*
X1343312Y1457642D01*
X1338547Y1462407D01*
X1332712Y1465776D01*
X1326204Y1467520D01*
D02*
G37*
G36*
X2201772Y1190110D02*
X2194251Y1188095D01*
X2187482Y1184187D01*
X2181955Y1178660D01*
X2178047Y1171891D01*
X2176031Y1164370D01*
X2201772D01*
Y1190110D01*
D02*
G37*
G36*
X1391164Y1208661D02*
X1384426D01*
X1377918Y1206917D01*
X1372082Y1203548D01*
X1367318Y1198784D01*
X1363949Y1192948D01*
X1362205Y1186440D01*
Y1179702D01*
X1363902Y1173369D01*
X1279308Y1088775D01*
X779661D01*
X776383Y1094453D01*
X771618Y1099218D01*
X765783Y1102587D01*
X759275Y1104331D01*
X752536D01*
X746028Y1102587D01*
X740193Y1099218D01*
X735428Y1094453D01*
X732059Y1088618D01*
X730315Y1082109D01*
Y1075371D01*
X732059Y1068863D01*
X735428Y1063027D01*
X740193Y1058263D01*
X746028Y1054894D01*
X752536Y1053150D01*
X759275D01*
X765783Y1054894D01*
X771618Y1058263D01*
X776383Y1063027D01*
X779661Y1068705D01*
X1283465D01*
X1287305Y1069469D01*
X1290561Y1071644D01*
X1378094Y1159177D01*
X1384426Y1157480D01*
X1391164D01*
X1397673Y1159224D01*
X1403508Y1162593D01*
X1408273Y1167358D01*
X1411642Y1173193D01*
X1413386Y1179702D01*
Y1186440D01*
X1411642Y1192948D01*
X1408273Y1198784D01*
X1403508Y1203548D01*
X1397673Y1206917D01*
X1391164Y1208661D01*
D02*
G37*
G36*
X2293307Y1170425D02*
Y1144685D01*
X2319047D01*
X2317032Y1152206D01*
X2313124Y1158975D01*
X2307597Y1164502D01*
X2300828Y1168410D01*
X2293307Y1170425D01*
D02*
G37*
G36*
X2209646Y1190110D02*
Y1160433D01*
Y1130756D01*
X2217167Y1132771D01*
X2223936Y1136679D01*
X2229463Y1142206D01*
X2233371Y1148975D01*
X2233752Y1150398D01*
X2256047D01*
X2259884Y1145398D01*
X2259693Y1144685D01*
X2285433D01*
Y1170425D01*
X2277912Y1168410D01*
X2273358Y1165781D01*
X2271609Y1167529D01*
X2268354Y1169705D01*
X2264513Y1170468D01*
X2233752D01*
X2233371Y1171891D01*
X2229463Y1178660D01*
X2223936Y1184187D01*
X2217167Y1188095D01*
X2209646Y1190110D01*
D02*
G37*
G36*
X2201772Y1156496D02*
X2176031D01*
X2178047Y1148975D01*
X2181955Y1142206D01*
X2187482Y1136679D01*
X2194251Y1132771D01*
X2201772Y1130756D01*
Y1156496D01*
D02*
G37*
G36*
X2319047Y1136811D02*
X2293307D01*
Y1111071D01*
X2300828Y1113086D01*
X2307597Y1116994D01*
X2313124Y1122521D01*
X2317032Y1129290D01*
X2319047Y1136811D01*
D02*
G37*
G36*
X2285433D02*
X2259693D01*
X2261708Y1129290D01*
X2265616Y1122521D01*
X2271143Y1116994D01*
X2277912Y1113086D01*
X2285433Y1111071D01*
Y1136811D01*
D02*
G37*
G36*
X3070936Y1172638D02*
X3061347D01*
X3052085Y1170156D01*
X3043781Y1165362D01*
X3037001Y1158581D01*
X3032206Y1150277D01*
X3029724Y1141015D01*
Y1131426D01*
X3032206Y1122164D01*
X3037001Y1113860D01*
X3043781Y1107079D01*
X3052085Y1102285D01*
X3061347Y1099803D01*
X3070936D01*
X3080198Y1102285D01*
X3088502Y1107079D01*
X3095283Y1113860D01*
X3100077Y1122164D01*
X3102559Y1131426D01*
Y1141015D01*
X3100077Y1150277D01*
X3095283Y1158581D01*
X3088502Y1165362D01*
X3080198Y1170156D01*
X3070936Y1172638D01*
D02*
G37*
G36*
X2970936D02*
X2961347D01*
X2952085Y1170156D01*
X2943781Y1165362D01*
X2937001Y1158581D01*
X2932206Y1150277D01*
X2929724Y1141015D01*
Y1131426D01*
X2932206Y1122164D01*
X2937001Y1113860D01*
X2943781Y1107079D01*
X2952085Y1102285D01*
X2961347Y1099803D01*
X2970936D01*
X2980198Y1102285D01*
X2988502Y1107079D01*
X2995283Y1113860D01*
X3000077Y1122164D01*
X3002559Y1131426D01*
Y1141015D01*
X3000077Y1150277D01*
X2995283Y1158581D01*
X2988502Y1165362D01*
X2980198Y1170156D01*
X2970936Y1172638D01*
D02*
G37*
G36*
X670936D02*
X661347D01*
X652085Y1170156D01*
X643781Y1165362D01*
X637001Y1158581D01*
X632206Y1150277D01*
X629724Y1141015D01*
Y1131426D01*
X632206Y1122164D01*
X637001Y1113860D01*
X643781Y1107079D01*
X652085Y1102285D01*
X661347Y1099803D01*
X670936D01*
X680198Y1102285D01*
X688502Y1107079D01*
X695283Y1113860D01*
X700077Y1122164D01*
X702559Y1131426D01*
Y1141015D01*
X700077Y1150277D01*
X695283Y1158581D01*
X688502Y1165362D01*
X680198Y1170156D01*
X670936Y1172638D01*
D02*
G37*
G36*
X570936D02*
X561347D01*
X552085Y1170156D01*
X543781Y1165362D01*
X537001Y1158581D01*
X532206Y1150277D01*
X529724Y1141015D01*
Y1131426D01*
X532206Y1122164D01*
X537001Y1113860D01*
X543781Y1107079D01*
X552085Y1102285D01*
X561347Y1099803D01*
X570936D01*
X580198Y1102285D01*
X588502Y1107079D01*
X595283Y1113860D01*
X600077Y1122164D01*
X602559Y1131426D01*
Y1141015D01*
X600077Y1150277D01*
X595283Y1158581D01*
X588502Y1165362D01*
X580198Y1170156D01*
X570936Y1172638D01*
D02*
G37*
G36*
X3070936Y1072638D02*
X3061347D01*
X3052085Y1070156D01*
X3043781Y1065362D01*
X3037001Y1058581D01*
X3032206Y1050277D01*
X3029724Y1041015D01*
Y1031426D01*
X3032206Y1022164D01*
X3037001Y1013860D01*
X3043781Y1007079D01*
X3052085Y1002285D01*
X3061347Y999803D01*
X3070936D01*
X3080198Y1002285D01*
X3088502Y1007079D01*
X3095283Y1013860D01*
X3100077Y1022164D01*
X3102559Y1031426D01*
Y1041015D01*
X3100077Y1050277D01*
X3095283Y1058581D01*
X3088502Y1065362D01*
X3080198Y1070156D01*
X3070936Y1072638D01*
D02*
G37*
G36*
X2970936D02*
X2961347D01*
X2952085Y1070156D01*
X2943781Y1065362D01*
X2937001Y1058581D01*
X2932206Y1050277D01*
X2929724Y1041015D01*
Y1031426D01*
X2932206Y1022164D01*
X2937001Y1013860D01*
X2943781Y1007079D01*
X2952085Y1002285D01*
X2961347Y999803D01*
X2970936D01*
X2980198Y1002285D01*
X2988502Y1007079D01*
X2995283Y1013860D01*
X3000077Y1022164D01*
X3002559Y1031426D01*
Y1041015D01*
X3000077Y1050277D01*
X2995283Y1058581D01*
X2988502Y1065362D01*
X2980198Y1070156D01*
X2970936Y1072638D01*
D02*
G37*
G36*
X670936D02*
X661347D01*
X652085Y1070156D01*
X643781Y1065362D01*
X637001Y1058581D01*
X632206Y1050277D01*
X629724Y1041015D01*
Y1031426D01*
X632206Y1022164D01*
X637001Y1013860D01*
X643781Y1007079D01*
X652085Y1002285D01*
X661347Y999803D01*
X670936D01*
X680198Y1002285D01*
X688502Y1007079D01*
X695283Y1013860D01*
X700077Y1022164D01*
X702559Y1031426D01*
Y1041015D01*
X700077Y1050277D01*
X695283Y1058581D01*
X688502Y1065362D01*
X680198Y1070156D01*
X670936Y1072638D01*
D02*
G37*
G36*
X570936D02*
X561347D01*
X552085Y1070156D01*
X543781Y1065362D01*
X537001Y1058581D01*
X532206Y1050277D01*
X529724Y1041015D01*
Y1031426D01*
X532206Y1022164D01*
X537001Y1013860D01*
X543781Y1007079D01*
X552085Y1002285D01*
X561347Y999803D01*
X570936D01*
X580198Y1002285D01*
X588502Y1007079D01*
X595283Y1013860D01*
X600077Y1022164D01*
X602559Y1031426D01*
Y1041015D01*
X600077Y1050277D01*
X595283Y1058581D01*
X588502Y1065362D01*
X580198Y1070156D01*
X570936Y1072638D01*
D02*
G37*
G36*
X2418307Y950937D02*
Y925197D01*
X2444047D01*
X2442032Y932718D01*
X2438124Y939487D01*
X2432597Y945014D01*
X2425828Y948922D01*
X2418307Y950937D01*
D02*
G37*
G36*
X2410433D02*
X2402912Y948922D01*
X2396143Y945014D01*
X2390616Y939487D01*
X2386708Y932718D01*
X2384693Y925197D01*
X2410433D01*
Y950937D01*
D02*
G37*
G36*
X3070936Y972638D02*
X3061347D01*
X3052085Y970156D01*
X3043781Y965362D01*
X3037001Y958581D01*
X3032206Y950277D01*
X3029724Y941015D01*
Y931426D01*
X3032206Y922164D01*
X3037001Y913860D01*
X3043781Y907079D01*
X3052085Y902285D01*
X3061347Y899803D01*
X3070936D01*
X3080198Y902285D01*
X3088502Y907079D01*
X3095283Y913860D01*
X3100077Y922164D01*
X3102559Y931426D01*
Y941015D01*
X3100077Y950277D01*
X3095283Y958581D01*
X3088502Y965362D01*
X3080198Y970156D01*
X3070936Y972638D01*
D02*
G37*
G36*
X2970936D02*
X2961347D01*
X2952085Y970156D01*
X2943781Y965362D01*
X2937001Y958581D01*
X2932206Y950277D01*
X2929724Y941015D01*
Y931426D01*
X2932206Y922164D01*
X2937001Y913860D01*
X2943781Y907079D01*
X2952085Y902285D01*
X2961347Y899803D01*
X2970936D01*
X2980198Y902285D01*
X2988502Y907079D01*
X2995283Y913860D01*
X3000077Y922164D01*
X3002559Y931426D01*
Y941015D01*
X3000077Y950277D01*
X2995283Y958581D01*
X2988502Y965362D01*
X2980198Y970156D01*
X2970936Y972638D01*
D02*
G37*
G36*
X670936D02*
X661347D01*
X652085Y970156D01*
X643781Y965362D01*
X637001Y958581D01*
X632206Y950277D01*
X629724Y941015D01*
Y931426D01*
X632206Y922164D01*
X637001Y913860D01*
X643781Y907079D01*
X652085Y902285D01*
X661347Y899803D01*
X670936D01*
X680198Y902285D01*
X688502Y907079D01*
X695283Y913860D01*
X700077Y922164D01*
X702559Y931426D01*
Y941015D01*
X700077Y950277D01*
X695283Y958581D01*
X688502Y965362D01*
X680198Y970156D01*
X670936Y972638D01*
D02*
G37*
G36*
X570936D02*
X561347D01*
X552085Y970156D01*
X543781Y965362D01*
X537001Y958581D01*
X532206Y950277D01*
X529724Y941015D01*
Y931426D01*
X532206Y922164D01*
X537001Y913860D01*
X543781Y907079D01*
X552085Y902285D01*
X561347Y899803D01*
X570936D01*
X580198Y902285D01*
X588502Y907079D01*
X595283Y913860D01*
X600077Y922164D01*
X602559Y931426D01*
Y941015D01*
X600077Y950277D01*
X595283Y958581D01*
X588502Y965362D01*
X580198Y970156D01*
X570936Y972638D01*
D02*
G37*
G36*
X1634055Y970079D02*
X1562008D01*
Y898032D01*
X1634055D01*
Y970079D01*
D02*
G37*
G36*
X1502774D02*
X1493289D01*
X1484127Y967624D01*
X1475912Y962881D01*
X1469206Y956174D01*
X1464463Y947960D01*
X1462008Y938798D01*
Y929312D01*
X1464463Y920150D01*
X1469206Y911936D01*
X1475912Y905229D01*
X1484127Y900486D01*
X1493289Y898032D01*
X1502774D01*
X1511936Y900486D01*
X1520150Y905229D01*
X1526858Y911936D01*
X1531600Y920150D01*
X1534055Y929312D01*
Y938798D01*
X1531600Y947960D01*
X1526858Y956174D01*
X1520150Y962881D01*
X1511936Y967624D01*
X1502774Y970079D01*
D02*
G37*
G36*
X1402774D02*
X1393289D01*
X1384127Y967624D01*
X1375912Y962881D01*
X1369206Y956174D01*
X1364463Y947960D01*
X1362008Y938798D01*
Y929312D01*
X1364463Y920150D01*
X1369206Y911936D01*
X1375912Y905229D01*
X1384127Y900486D01*
X1393289Y898032D01*
X1402774D01*
X1411936Y900486D01*
X1420150Y905229D01*
X1426858Y911936D01*
X1431600Y920150D01*
X1434055Y929312D01*
Y938798D01*
X1431600Y947960D01*
X1426858Y956174D01*
X1420150Y962881D01*
X1411936Y967624D01*
X1402774Y970079D01*
D02*
G37*
G36*
X2075984Y953346D02*
X2003937D01*
Y881299D01*
X2075984D01*
Y953346D01*
D02*
G37*
G36*
X1944703D02*
X1935218D01*
X1926056Y950891D01*
X1917842Y946149D01*
X1911135Y939442D01*
X1906392Y931227D01*
X1903937Y922065D01*
Y912580D01*
X1906392Y903418D01*
X1911135Y895204D01*
X1917842Y888497D01*
X1926056Y883754D01*
X1935218Y881299D01*
X1944703D01*
X1953865Y883754D01*
X1962080Y888497D01*
X1968787Y895204D01*
X1973529Y903418D01*
X1975984Y912580D01*
Y922065D01*
X1973529Y931227D01*
X1968787Y939442D01*
X1962080Y946149D01*
X1953865Y950891D01*
X1944703Y953346D01*
D02*
G37*
G36*
X1844703D02*
X1835218D01*
X1826056Y950891D01*
X1817842Y946149D01*
X1811135Y939442D01*
X1806392Y931227D01*
X1803937Y922065D01*
Y912580D01*
X1806392Y903418D01*
X1811135Y895204D01*
X1817842Y888497D01*
X1826056Y883754D01*
X1835218Y881299D01*
X1844703D01*
X1853865Y883754D01*
X1862080Y888497D01*
X1868787Y895204D01*
X1873529Y903418D01*
X1875984Y912580D01*
Y922065D01*
X1873529Y931227D01*
X1868787Y939442D01*
X1862080Y946149D01*
X1853865Y950891D01*
X1844703Y953346D01*
D02*
G37*
G36*
X852779Y683071D02*
X846040D01*
X839532Y681327D01*
X833697Y677958D01*
X828932Y673193D01*
X825563Y667358D01*
X823819Y660849D01*
Y654111D01*
X825563Y647603D01*
X828932Y641767D01*
X833697Y637003D01*
X839532Y633634D01*
X846040Y631890D01*
X852779D01*
X859287Y633634D01*
X865122Y637003D01*
X869887Y641767D01*
X872597Y646461D01*
X1480853D01*
X1481075Y645634D01*
X1484444Y639799D01*
X1489208Y635034D01*
X1495044Y631665D01*
X1501552Y629921D01*
X1508290D01*
X1514799Y631665D01*
X1520634Y635034D01*
X1525399Y639799D01*
X1528768Y645634D01*
X1530512Y652143D01*
Y658881D01*
X1528768Y665389D01*
X1525399Y671225D01*
X1520634Y675989D01*
X1514799Y679358D01*
X1508290Y681102D01*
X1501552D01*
X1495044Y679358D01*
X1489208Y675989D01*
X1484444Y671225D01*
X1481734Y666531D01*
X873477D01*
X873256Y667358D01*
X869887Y673193D01*
X865122Y677958D01*
X859287Y681327D01*
X852779Y683071D01*
D02*
G37*
G36*
X2785849Y694882D02*
X2779111D01*
X2772603Y693138D01*
X2766767Y689769D01*
X2762003Y685004D01*
X2758634Y679169D01*
X2756890Y672660D01*
Y665922D01*
X2758634Y659414D01*
X2762003Y653578D01*
X2766767Y648814D01*
X2772445Y645536D01*
Y605535D01*
X2758717Y591807D01*
X2752385Y593504D01*
X2745647D01*
X2739138Y591760D01*
X2733303Y588391D01*
X2728538Y583626D01*
X2725169Y577791D01*
X2723425Y571283D01*
Y564544D01*
X2725169Y558036D01*
X2728538Y552201D01*
X2733303Y547436D01*
X2739138Y544067D01*
X2745647Y542323D01*
X2752385D01*
X2758893Y544067D01*
X2764729Y547436D01*
X2769493Y552201D01*
X2772862Y558036D01*
X2774606Y564544D01*
Y571283D01*
X2772909Y577615D01*
X2789576Y594282D01*
X2791752Y597538D01*
X2792516Y601378D01*
Y645536D01*
X2798193Y648814D01*
X2802958Y653578D01*
X2806327Y659414D01*
X2808071Y665922D01*
Y672660D01*
X2806327Y679169D01*
X2802958Y685004D01*
X2798193Y689769D01*
X2792358Y693138D01*
X2785849Y694882D01*
D02*
G37*
G36*
X2221873Y690945D02*
X2215135D01*
X2208626Y689201D01*
X2202791Y685832D01*
X2198026Y681067D01*
X2194657Y675232D01*
X2192913Y668723D01*
Y661985D01*
X2194657Y655477D01*
X2198026Y649641D01*
X2202791Y644877D01*
X2208469Y641599D01*
Y580842D01*
X2202791Y577564D01*
X2198026Y572799D01*
X2194657Y566964D01*
X2192913Y560456D01*
Y553717D01*
X2194657Y547209D01*
X2198026Y541374D01*
X2202791Y536609D01*
X2208626Y533240D01*
X2215135Y531496D01*
X2221873D01*
X2228381Y533240D01*
X2234217Y536609D01*
X2238981Y541374D01*
X2242350Y547209D01*
X2244094Y553717D01*
Y560456D01*
X2242350Y566964D01*
X2238981Y572799D01*
X2234217Y577564D01*
X2228539Y580842D01*
Y641599D01*
X2234217Y644877D01*
X2238981Y649641D01*
X2242350Y655477D01*
X2244094Y661985D01*
Y668723D01*
X2242350Y675232D01*
X2238981Y681067D01*
X2234217Y685832D01*
X2228381Y689201D01*
X2221873Y690945D01*
D02*
G37*
G36*
X2444047Y917323D02*
X2384693D01*
X2386708Y909802D01*
X2390616Y903033D01*
X2396143Y897506D01*
X2402912Y893598D01*
X2404335Y893216D01*
Y759078D01*
X2290148Y644891D01*
X2287973Y641636D01*
X2287209Y637795D01*
Y550681D01*
X2285786Y550300D01*
X2279017Y546392D01*
X2273490Y540865D01*
X2269582Y534096D01*
X2267567Y526575D01*
X2326921D01*
X2324906Y534096D01*
X2320998Y540865D01*
X2315471Y546392D01*
X2308702Y550300D01*
X2307279Y550681D01*
Y633639D01*
X2421466Y747825D01*
X2423642Y751081D01*
X2424405Y754921D01*
Y893216D01*
X2425828Y893598D01*
X2432597Y897506D01*
X2438124Y903033D01*
X2442032Y909802D01*
X2444047Y917323D01*
D02*
G37*
G36*
X2326921Y518701D02*
X2301181D01*
Y492961D01*
X2308702Y494976D01*
X2315471Y498884D01*
X2320998Y504411D01*
X2324906Y511180D01*
X2326921Y518701D01*
D02*
G37*
G36*
X2293307D02*
X2267567D01*
X2269582Y511180D01*
X2273490Y504411D01*
X2279017Y498884D01*
X2285786Y494976D01*
X2293307Y492961D01*
Y518701D01*
D02*
G37*
G36*
X2825252Y472047D02*
X2813331D01*
X2801816Y468962D01*
X2791491Y463001D01*
X2783062Y454572D01*
X2777101Y444247D01*
X2774016Y432732D01*
Y420811D01*
X2777101Y409296D01*
X2783062Y398972D01*
X2791491Y390542D01*
X2801816Y384581D01*
X2813331Y381496D01*
X2825252D01*
X2836767Y384581D01*
X2847091Y390542D01*
X2855521Y398972D01*
X2861481Y409296D01*
X2864567Y420811D01*
Y432732D01*
X2861481Y444247D01*
X2855521Y454572D01*
X2847091Y463001D01*
X2836767Y468962D01*
X2825252Y472047D01*
D02*
G37*
G36*
X2717378D02*
X2705457D01*
X2693941Y468962D01*
X2683617Y463001D01*
X2675188Y454572D01*
X2669227Y444247D01*
X2666142Y432732D01*
Y420811D01*
X2669227Y409296D01*
X2675188Y398972D01*
X2683617Y390542D01*
X2693941Y384581D01*
X2705457Y381496D01*
X2717378D01*
X2728893Y384581D01*
X2739217Y390542D01*
X2747647Y398972D01*
X2753607Y409296D01*
X2756693Y420811D01*
Y432732D01*
X2753607Y444247D01*
X2747647Y454572D01*
X2739217Y463001D01*
X2728893Y468962D01*
X2717378Y472047D01*
D02*
G37*
G36*
X2609504D02*
X2597583D01*
X2586068Y468962D01*
X2575743Y463001D01*
X2567314Y454572D01*
X2561353Y444247D01*
X2558268Y432732D01*
Y420811D01*
X2561353Y409296D01*
X2567314Y398972D01*
X2575743Y390542D01*
X2586068Y384581D01*
X2597583Y381496D01*
X2609504D01*
X2621019Y384581D01*
X2631343Y390542D01*
X2639773Y398972D01*
X2645733Y409296D01*
X2648819Y420811D01*
Y432732D01*
X2645733Y444247D01*
X2639773Y454572D01*
X2631343Y463001D01*
X2621019Y468962D01*
X2609504Y472047D01*
D02*
G37*
G36*
X2501630D02*
X2489709D01*
X2478193Y468962D01*
X2467869Y463001D01*
X2459440Y454572D01*
X2453479Y444247D01*
X2450394Y432732D01*
Y420811D01*
X2453479Y409296D01*
X2459440Y398972D01*
X2467869Y390542D01*
X2478193Y384581D01*
X2489709Y381496D01*
X2501630D01*
X2513145Y384581D01*
X2523469Y390542D01*
X2531899Y398972D01*
X2537859Y409296D01*
X2540945Y420811D01*
Y432732D01*
X2537859Y444247D01*
X2531899Y454572D01*
X2523469Y463001D01*
X2513145Y468962D01*
X2501630Y472047D01*
D02*
G37*
G36*
X2393756D02*
X2381835D01*
X2370320Y468962D01*
X2359995Y463001D01*
X2351566Y454572D01*
X2345605Y444247D01*
X2342520Y432732D01*
Y420811D01*
X2345605Y409296D01*
X2351566Y398972D01*
X2359995Y390542D01*
X2370320Y384581D01*
X2381835Y381496D01*
X2393756D01*
X2405271Y384581D01*
X2415595Y390542D01*
X2424025Y398972D01*
X2429985Y409296D01*
X2433071Y420811D01*
Y432732D01*
X2429985Y444247D01*
X2424025Y454572D01*
X2415595Y463001D01*
X2405271Y468962D01*
X2393756Y472047D01*
D02*
G37*
G36*
X1328401D02*
X1316480D01*
X1304965Y468962D01*
X1294641Y463001D01*
X1286211Y454572D01*
X1280251Y444247D01*
X1277165Y432732D01*
Y420811D01*
X1280251Y409296D01*
X1286211Y398972D01*
X1294641Y390542D01*
X1304965Y384581D01*
X1316480Y381496D01*
X1328401D01*
X1339917Y384581D01*
X1350241Y390542D01*
X1358670Y398972D01*
X1364631Y409296D01*
X1367716Y420811D01*
Y432732D01*
X1364631Y444247D01*
X1358670Y454572D01*
X1350241Y463001D01*
X1339917Y468962D01*
X1328401Y472047D01*
D02*
G37*
G36*
X1220527D02*
X1208606D01*
X1197091Y468962D01*
X1186767Y463001D01*
X1178337Y454572D01*
X1172377Y444247D01*
X1169291Y432732D01*
Y420811D01*
X1172377Y409296D01*
X1178337Y398972D01*
X1186767Y390542D01*
X1197091Y384581D01*
X1208606Y381496D01*
X1220527D01*
X1232043Y384581D01*
X1242367Y390542D01*
X1250796Y398972D01*
X1256757Y409296D01*
X1259842Y420811D01*
Y432732D01*
X1256757Y444247D01*
X1250796Y454572D01*
X1242367Y463001D01*
X1232043Y468962D01*
X1220527Y472047D01*
D02*
G37*
G36*
X1112653D02*
X1100732D01*
X1089217Y468962D01*
X1078893Y463001D01*
X1070463Y454572D01*
X1064503Y444247D01*
X1061417Y432732D01*
Y420811D01*
X1064503Y409296D01*
X1070463Y398972D01*
X1078893Y390542D01*
X1089217Y384581D01*
X1100732Y381496D01*
X1112653D01*
X1124168Y384581D01*
X1134493Y390542D01*
X1142922Y398972D01*
X1148883Y409296D01*
X1151968Y420811D01*
Y432732D01*
X1148883Y444247D01*
X1142922Y454572D01*
X1134493Y463001D01*
X1124168Y468962D01*
X1112653Y472047D01*
D02*
G37*
G36*
X1004779D02*
X992858D01*
X981343Y468962D01*
X971019Y463001D01*
X962589Y454572D01*
X956629Y444247D01*
X953543Y432732D01*
Y420811D01*
X956629Y409296D01*
X962589Y398972D01*
X971019Y390542D01*
X981343Y384581D01*
X992858Y381496D01*
X1004779D01*
X1016294Y384581D01*
X1026619Y390542D01*
X1035048Y398972D01*
X1041009Y409296D01*
X1044094Y420811D01*
Y432732D01*
X1041009Y444247D01*
X1035048Y454572D01*
X1026619Y463001D01*
X1016294Y468962D01*
X1004779Y472047D01*
D02*
G37*
G36*
X896905D02*
X884984D01*
X873469Y468962D01*
X863145Y463001D01*
X854715Y454572D01*
X848755Y444247D01*
X845669Y432732D01*
Y420811D01*
X848755Y409296D01*
X854715Y398972D01*
X863145Y390542D01*
X873469Y384581D01*
X884984Y381496D01*
X896905D01*
X908420Y384581D01*
X918745Y390542D01*
X927174Y398972D01*
X933135Y409296D01*
X936220Y420811D01*
Y432732D01*
X933135Y444247D01*
X927174Y454572D01*
X918745Y463001D01*
X908420Y468962D01*
X896905Y472047D01*
D02*
G37*
G36*
X2448232Y364331D02*
X2445669D01*
Y318898D01*
X2491102D01*
Y321460D01*
X2487738Y334017D01*
X2481238Y345274D01*
X2472046Y354466D01*
X2460788Y360966D01*
X2448232Y364331D01*
D02*
G37*
G36*
X2437795D02*
X2435233D01*
X2422676Y360966D01*
X2411418Y354466D01*
X2402226Y345274D01*
X2395727Y334017D01*
X2392362Y321460D01*
Y318898D01*
X2437795D01*
Y364331D01*
D02*
G37*
G36*
X951381D02*
X948819D01*
Y318898D01*
X994252D01*
Y321460D01*
X990887Y334017D01*
X984388Y345274D01*
X975196Y354466D01*
X963938Y360966D01*
X951381Y364331D01*
D02*
G37*
G36*
X940945D02*
X938382D01*
X925826Y360966D01*
X914568Y354466D01*
X905376Y345274D01*
X898876Y334017D01*
X895512Y321460D01*
Y318898D01*
X940945D01*
Y364331D01*
D02*
G37*
G36*
X2771315Y360236D02*
X2759394D01*
X2747878Y357151D01*
X2737554Y351190D01*
X2729125Y342760D01*
X2723164Y332436D01*
X2720079Y320921D01*
Y309000D01*
X2723164Y297485D01*
X2729125Y287161D01*
X2737554Y278731D01*
X2747878Y272770D01*
X2759394Y269685D01*
X2771315D01*
X2782830Y272770D01*
X2793154Y278731D01*
X2801584Y287161D01*
X2807544Y297485D01*
X2810630Y309000D01*
Y320921D01*
X2807544Y332436D01*
X2801584Y342760D01*
X2793154Y351190D01*
X2782830Y357151D01*
X2771315Y360236D01*
D02*
G37*
G36*
X2663441D02*
X2651520D01*
X2640005Y357151D01*
X2629680Y351190D01*
X2621251Y342760D01*
X2615290Y332436D01*
X2612205Y320921D01*
Y309000D01*
X2615290Y297485D01*
X2621251Y287161D01*
X2629680Y278731D01*
X2640005Y272770D01*
X2651520Y269685D01*
X2663441D01*
X2674956Y272770D01*
X2685280Y278731D01*
X2693710Y287161D01*
X2699670Y297485D01*
X2702756Y309000D01*
Y320921D01*
X2699670Y332436D01*
X2693710Y342760D01*
X2685280Y351190D01*
X2674956Y357151D01*
X2663441Y360236D01*
D02*
G37*
G36*
X2555567D02*
X2543646D01*
X2532131Y357151D01*
X2521806Y351190D01*
X2513377Y342760D01*
X2507416Y332436D01*
X2504331Y320921D01*
Y309000D01*
X2507416Y297485D01*
X2513377Y287161D01*
X2521806Y278731D01*
X2532131Y272770D01*
X2543646Y269685D01*
X2555567D01*
X2567082Y272770D01*
X2577406Y278731D01*
X2585836Y287161D01*
X2591796Y297485D01*
X2594882Y309000D01*
Y320921D01*
X2591796Y332436D01*
X2585836Y342760D01*
X2577406Y351190D01*
X2567082Y357151D01*
X2555567Y360236D01*
D02*
G37*
G36*
X1274464D02*
X1262543D01*
X1251028Y357151D01*
X1240704Y351190D01*
X1232274Y342760D01*
X1226314Y332436D01*
X1223228Y320921D01*
Y309000D01*
X1226314Y297485D01*
X1232274Y287161D01*
X1240704Y278731D01*
X1251028Y272770D01*
X1262543Y269685D01*
X1274464D01*
X1285979Y272770D01*
X1296304Y278731D01*
X1304733Y287161D01*
X1310694Y297485D01*
X1313779Y309000D01*
Y320921D01*
X1310694Y332436D01*
X1304733Y342760D01*
X1296304Y351190D01*
X1285979Y357151D01*
X1274464Y360236D01*
D02*
G37*
G36*
X1166590D02*
X1154669D01*
X1143154Y357151D01*
X1132830Y351190D01*
X1124400Y342760D01*
X1118440Y332436D01*
X1115354Y320921D01*
Y309000D01*
X1118440Y297485D01*
X1124400Y287161D01*
X1132830Y278731D01*
X1143154Y272770D01*
X1154669Y269685D01*
X1166590D01*
X1178105Y272770D01*
X1188430Y278731D01*
X1196859Y287161D01*
X1202820Y297485D01*
X1205905Y309000D01*
Y320921D01*
X1202820Y332436D01*
X1196859Y342760D01*
X1188430Y351190D01*
X1178105Y357151D01*
X1166590Y360236D01*
D02*
G37*
G36*
X1058716D02*
X1046795D01*
X1035280Y357151D01*
X1024956Y351190D01*
X1016526Y342760D01*
X1010566Y332436D01*
X1007480Y320921D01*
Y309000D01*
X1010566Y297485D01*
X1016526Y287161D01*
X1024956Y278731D01*
X1035280Y272770D01*
X1046795Y269685D01*
X1058716D01*
X1070232Y272770D01*
X1080556Y278731D01*
X1088985Y287161D01*
X1094946Y297485D01*
X1098031Y309000D01*
Y320921D01*
X1094946Y332436D01*
X1088985Y342760D01*
X1080556Y351190D01*
X1070232Y357151D01*
X1058716Y360236D01*
D02*
G37*
G36*
X2491102Y311024D02*
X2445669D01*
Y265591D01*
X2448232D01*
X2460788Y268955D01*
X2472046Y275455D01*
X2481238Y284647D01*
X2487738Y295904D01*
X2491102Y308461D01*
Y311024D01*
D02*
G37*
G36*
X2437795D02*
X2392362D01*
Y308461D01*
X2395727Y295904D01*
X2402226Y284647D01*
X2411418Y275455D01*
X2422676Y268955D01*
X2435233Y265591D01*
X2437795D01*
Y311024D01*
D02*
G37*
G36*
X994252D02*
X948819D01*
Y265591D01*
X951381D01*
X963938Y268955D01*
X975196Y275455D01*
X984388Y284647D01*
X990887Y295904D01*
X994252Y308461D01*
Y311024D01*
D02*
G37*
G36*
X940945D02*
X895512D01*
Y308461D01*
X898876Y295904D01*
X905376Y284647D01*
X914568Y275455D01*
X925826Y268955D01*
X938382Y265591D01*
X940945D01*
Y311024D01*
D02*
G37*
G36*
X3106585Y514567D02*
X3083966D01*
X3061626Y511029D01*
X3040113Y504039D01*
X3019960Y493770D01*
X3001661Y480475D01*
X2985667Y464481D01*
X2972372Y446182D01*
X2962103Y426028D01*
X2955113Y404516D01*
X2951575Y382176D01*
Y359557D01*
X2955113Y337216D01*
X2962103Y315704D01*
X2972372Y295550D01*
X2985667Y277251D01*
X3001661Y261257D01*
X3019960Y247962D01*
X3040113Y237693D01*
X3061626Y230704D01*
X3083966Y227165D01*
X3106585D01*
X3128925Y230704D01*
X3150438Y237693D01*
X3170591Y247962D01*
X3188890Y261257D01*
X3204884Y277251D01*
X3218180Y295550D01*
X3228448Y315704D01*
X3235438Y337216D01*
X3238976Y359557D01*
Y382176D01*
X3235438Y404516D01*
X3228448Y426028D01*
X3218180Y446182D01*
X3204884Y464481D01*
X3188890Y480475D01*
X3170591Y493770D01*
X3150438Y504039D01*
X3128925Y511029D01*
X3106585Y514567D01*
D02*
G37*
G36*
X2122333D02*
X2099714D01*
X2077374Y511029D01*
X2055861Y504039D01*
X2035708Y493770D01*
X2017409Y480475D01*
X2001415Y464481D01*
X1988120Y446182D01*
X1977851Y426028D01*
X1970861Y404516D01*
X1967323Y382176D01*
Y359557D01*
X1970861Y337216D01*
X1977851Y315704D01*
X1988120Y295550D01*
X2001415Y277251D01*
X2017409Y261257D01*
X2035708Y247962D01*
X2055861Y237693D01*
X2077374Y230704D01*
X2099714Y227165D01*
X2122333D01*
X2144673Y230704D01*
X2166186Y237693D01*
X2186339Y247962D01*
X2204638Y261257D01*
X2220632Y277251D01*
X2233927Y295550D01*
X2244196Y315704D01*
X2251186Y337216D01*
X2254724Y359557D01*
Y382176D01*
X2251186Y404516D01*
X2244196Y426028D01*
X2233927Y446182D01*
X2220632Y464481D01*
X2204638Y480475D01*
X2186339Y493770D01*
X2166186Y504039D01*
X2144673Y511029D01*
X2122333Y514567D01*
D02*
G37*
G36*
X1609735D02*
X1587116D01*
X1564775Y511029D01*
X1543263Y504039D01*
X1523109Y493770D01*
X1504810Y480475D01*
X1488816Y464481D01*
X1475521Y446182D01*
X1465252Y426028D01*
X1458263Y404516D01*
X1454724Y382176D01*
Y359557D01*
X1458263Y337216D01*
X1465252Y315704D01*
X1475521Y295550D01*
X1488816Y277251D01*
X1504810Y261257D01*
X1523109Y247962D01*
X1543263Y237693D01*
X1564775Y230704D01*
X1587116Y227165D01*
X1609735D01*
X1632075Y230704D01*
X1653587Y237693D01*
X1673741Y247962D01*
X1692040Y261257D01*
X1708034Y277251D01*
X1721329Y295550D01*
X1731598Y315704D01*
X1738588Y337216D01*
X1742126Y359557D01*
Y382176D01*
X1738588Y404516D01*
X1731598Y426028D01*
X1721329Y446182D01*
X1708034Y464481D01*
X1692040Y480475D01*
X1673741Y493770D01*
X1653587Y504039D01*
X1632075Y511029D01*
X1609735Y514567D01*
D02*
G37*
G36*
X625483D02*
X602864D01*
X580523Y511029D01*
X559011Y504039D01*
X538857Y493770D01*
X520558Y480475D01*
X504564Y464481D01*
X491269Y446182D01*
X481000Y426028D01*
X474011Y404516D01*
X470472Y382176D01*
Y359557D01*
X474011Y337216D01*
X481000Y315704D01*
X491269Y295550D01*
X504564Y277251D01*
X520558Y261257D01*
X538857Y247962D01*
X559011Y237693D01*
X580523Y230704D01*
X602864Y227165D01*
X625483D01*
X647823Y230704D01*
X669335Y237693D01*
X689489Y247962D01*
X707788Y261257D01*
X723782Y277251D01*
X737077Y295550D01*
X747346Y315704D01*
X754336Y337216D01*
X757874Y359557D01*
Y382176D01*
X754336Y404516D01*
X747346Y426028D01*
X737077Y446182D01*
X723782Y464481D01*
X707788Y480475D01*
X689489Y493770D01*
X669335Y504039D01*
X647823Y511029D01*
X625483Y514567D01*
D02*
G37*
%LPD*%
D23*
X850394Y656496D02*
X1503937D01*
X849409Y657480D02*
X850394Y656496D01*
X1503937D02*
X1504921Y655512D01*
X2134843Y1530512D02*
X2415354D01*
X2457677Y1488189D01*
X1315945Y1171260D02*
X1343504Y1198819D01*
Y1380172D01*
X755905Y1078740D02*
X1283465D01*
X1387795Y1183071D01*
X1322835Y1400841D02*
X1343504Y1380172D01*
X1322835Y1400841D02*
Y1441929D01*
X2297244Y637795D02*
X2414370Y754921D01*
Y921260D01*
X2297244Y522638D02*
Y637795D01*
X2749016Y567913D02*
X2782480Y601378D01*
Y669291D01*
X2218504Y665354D02*
X2219671Y664187D01*
X2218504Y557087D02*
Y656496D01*
X2219671Y657664D02*
Y664187D01*
X2218504Y656496D02*
X2219671Y657664D01*
X2205709Y1160433D02*
X2264513D01*
X2284198Y1140748D01*
X2289370D01*
X2233268Y1322835D02*
Y1429134D01*
X2187008Y1475394D02*
X2233268Y1429134D01*
X1990158Y1443898D02*
X2113189D01*
X1782297Y1236037D02*
X1990158Y1443898D01*
X2036417Y1607284D02*
Y1888780D01*
X1996063Y1929134D02*
X2036417Y1888780D01*
X990158Y1886811D02*
Y1970472D01*
D25*
X1598425Y370866D02*
D03*
X614173D02*
D03*
X2111023D02*
D03*
X3095276D02*
D03*
D26*
X1268504Y314961D02*
D03*
X1160630D02*
D03*
X1052756D02*
D03*
X944882D02*
D03*
X1322441Y426772D02*
D03*
X1214567D02*
D03*
X1106693D02*
D03*
X998819D02*
D03*
X890945D02*
D03*
X2387795D02*
D03*
X2495669D02*
D03*
X2603543D02*
D03*
X2711417D02*
D03*
X2819291D02*
D03*
X2441732Y314961D02*
D03*
X2549606D02*
D03*
X2657480D02*
D03*
X2765354D02*
D03*
D27*
X3066142Y2736220D02*
D03*
X2966142D02*
D03*
X3066142Y2636220D02*
D03*
X2966142D02*
D03*
X3066142Y2536220D02*
D03*
X2966142D02*
D03*
X3066142Y2436220D02*
D03*
X2966142D02*
D03*
X3066142Y2336220D02*
D03*
X2966142D02*
D03*
Y2236220D02*
D03*
Y2136220D02*
D03*
X3066142Y2036220D02*
D03*
X2966142D02*
D03*
X3066142Y1936220D02*
D03*
X2966142D02*
D03*
X3066142Y1836220D02*
D03*
X2966142D02*
D03*
X3066142Y1736220D02*
D03*
X2966142D02*
D03*
X3066142Y1636220D02*
D03*
X2966142D02*
D03*
X3066142Y1536220D02*
D03*
X2966142D02*
D03*
X3066142Y1436220D02*
D03*
X2966142D02*
D03*
X3066142Y1336220D02*
D03*
X2966142D02*
D03*
X3066142Y1236220D02*
D03*
X2966142D02*
D03*
X3066142Y1136220D02*
D03*
X2966142D02*
D03*
X3066142Y1036220D02*
D03*
X2966142D02*
D03*
X3066142Y936221D02*
D03*
X2966142D02*
D03*
X3066142Y2236220D02*
D03*
Y2136220D02*
D03*
X666142Y2736220D02*
D03*
X566142D02*
D03*
X666142Y2636220D02*
D03*
X566142D02*
D03*
X666142Y2536220D02*
D03*
X566142D02*
D03*
X666142Y2436220D02*
D03*
X566142D02*
D03*
X666142Y2336220D02*
D03*
X566142D02*
D03*
X666142Y2236220D02*
D03*
X566142D02*
D03*
X666142Y2136220D02*
D03*
X566142D02*
D03*
X666142Y2036220D02*
D03*
X566142D02*
D03*
X666142Y1936220D02*
D03*
X566142D02*
D03*
X666142Y1836220D02*
D03*
X566142D02*
D03*
X666142Y1736220D02*
D03*
X566142D02*
D03*
X666142Y1636220D02*
D03*
X566142D02*
D03*
X666142Y1536220D02*
D03*
X566142D02*
D03*
X666142Y1436220D02*
D03*
X566142D02*
D03*
X666142Y1336220D02*
D03*
X566142D02*
D03*
X666142Y1236220D02*
D03*
X566142D02*
D03*
X666142Y1136220D02*
D03*
X566142D02*
D03*
X666142Y1036220D02*
D03*
X566142D02*
D03*
X666142Y936221D02*
D03*
X566142D02*
D03*
D28*
X1598032Y934055D02*
D03*
X2039961Y917323D02*
D03*
D29*
X1498032Y934055D02*
D03*
X1398032D02*
D03*
X1939961Y917323D02*
D03*
X1839961D02*
D03*
D30*
X866142Y2236220D02*
D03*
Y2136220D02*
D03*
Y2036220D02*
D03*
Y1936220D02*
D03*
Y1836220D02*
D03*
Y1736220D02*
D03*
Y1636220D02*
D03*
D31*
Y2336220D02*
D03*
D32*
X1504921Y655512D02*
D03*
X2134843Y1530512D02*
D03*
X2457677Y1488189D02*
D03*
X1315945Y1171260D02*
D03*
X1387795Y1183071D02*
D03*
X1322835Y1441929D02*
D03*
X755905Y1078740D02*
D03*
X2414370Y921260D02*
D03*
X2297244Y522638D02*
D03*
X2749016Y567913D02*
D03*
X2782480Y669291D02*
D03*
X2218504Y665354D02*
D03*
Y557087D02*
D03*
X2289370Y1140748D02*
D03*
X2205709Y1160433D02*
D03*
X2187008Y1475394D02*
D03*
X2233268Y1322835D02*
D03*
X2113189Y1443898D02*
D03*
X1782297Y1236037D02*
D03*
X849409Y657480D02*
D03*
X1996063Y1929134D02*
D03*
X2036417Y1607284D02*
D03*
X990158Y1970472D02*
D03*
Y1886811D02*
D03*
%TF.MD5,6fd379d6531a98dcdd30d762473149ca*%
M02*
