%TF.GenerationSoftware,Altium Limited,Altium Designer,21.7.2 (23)*%
G04 Layer_Color=8388736*
%FSLAX26Y26*%
%MOIN*%
%TF.SameCoordinates,89F72506-9554-4F55-AE3A-9D847A2FA82F*%
%TF.FilePolarity,Positive*%
%TF.FileFunction,Other,Top_3D_Body*%
%TF.Part,Single*%
G01*
G75*
%TA.AperFunction,NonConductor*%
%ADD39C,0.007874*%
D39*
X1621063Y1238189D02*
X1686024D01*
Y1202756D02*
Y1238189D01*
X1621063Y1202756D02*
X1686024D01*
X1621063D02*
Y1238189D01*
X2439075Y1068461D02*
Y1221807D01*
X2632185D01*
Y1068461D02*
Y1221807D01*
X2439075Y1068461D02*
X2632185D01*
X2270669Y868110D02*
Y903543D01*
Y868110D02*
X2335630D01*
Y903543D01*
X2270669D02*
X2335630D01*
X2546260Y887795D02*
Y923228D01*
Y887795D02*
X2611221D01*
Y923228D01*
X2546260D02*
X2611221D01*
X2252953Y1472441D02*
X2288386D01*
X2252953Y1407480D02*
Y1472441D01*
Y1407480D02*
X2288386D01*
Y1472441D01*
X964075Y2106791D02*
X1013287D01*
X964075Y2028051D02*
Y2106791D01*
Y2028051D02*
X1013287D01*
Y2106791D01*
X2343504Y1185039D02*
Y1255906D01*
X2302166Y1185039D02*
X2343504D01*
X2302166D02*
Y1255906D01*
X2343504D01*
X1852362Y1542323D02*
Y1607283D01*
X1887795D01*
Y1542323D02*
Y1607283D01*
X1852362Y1542323D02*
X1887795D01*
X2222441Y1585630D02*
Y1650591D01*
X2187008Y1585630D02*
X2222441D01*
X2187008D02*
Y1650591D01*
X2222441D01*
X2438977Y1581693D02*
Y1646654D01*
X2403544Y1581693D02*
X2438977D01*
X2403544D02*
Y1646654D01*
X2438977D01*
X2621063Y1374016D02*
Y1438976D01*
X2585630Y1374016D02*
X2621063D01*
X2585630D02*
Y1438976D01*
X2621063D01*
X1852362Y1876968D02*
Y1941929D01*
X1887795D01*
Y1876968D02*
Y1941929D01*
X1852362Y1876968D02*
X1887795D01*
X918110Y1576378D02*
Y2396063D01*
X814173Y1576378D02*
X918110D01*
X814173D02*
Y2396063D01*
X918110D01*
X1033465Y1446850D02*
X1210630D01*
Y1742126D01*
X1033465D02*
X1210630D01*
X1033465Y1446850D02*
Y1742126D01*
X1576378Y1553735D02*
X1691339D01*
Y1604916D01*
X1576378D02*
X1691339D01*
X1576378Y1553735D02*
Y1604916D01*
X1340158Y1534050D02*
X1455118D01*
Y1585231D01*
X1340158D02*
X1455118D01*
X1340158Y1534050D02*
Y1585231D01*
%TF.MD5,b94aaf23c26dfe108cf2b8eeae7751dd*%
M02*
