%TF.GenerationSoftware,Altium Limited,Altium Designer,21.7.2 (23)*%
G04 Layer_Color=0*
%FSLAX26Y26*%
%MOIN*%
%TF.SameCoordinates,89F72506-9554-4F55-AE3A-9D847A2FA82F*%
%TF.FilePolarity,Positive*%
%TF.FileFunction,Plated,1,2,PTH,Drill*%
%TF.Part,Single*%
G01*
G75*
%TA.AperFunction,ComponentDrill*%
%ADD52C,0.125984*%
%ADD53C,0.041339*%
%ADD54C,0.040157*%
%ADD55C,0.040157*%
%TA.AperFunction,ViaDrill,NotFilled*%
%ADD56C,0.019685*%
D52*
X1598425Y370866D02*
D03*
X614173D02*
D03*
X2111023D02*
D03*
X3095276D02*
D03*
D53*
X1268504Y314961D02*
D03*
X1160630D02*
D03*
X1052756D02*
D03*
X944882D02*
D03*
X1322441Y426772D02*
D03*
X1214567D02*
D03*
X1106693D02*
D03*
X998819D02*
D03*
X890945D02*
D03*
X2387795D02*
D03*
X2495669D02*
D03*
X2603543D02*
D03*
X2711417D02*
D03*
X2819291D02*
D03*
X2441732Y314961D02*
D03*
X2549606D02*
D03*
X2657480D02*
D03*
X2765354D02*
D03*
D54*
X3066142Y2736220D02*
D03*
X2966142D02*
D03*
X3066142Y2636220D02*
D03*
X2966142D02*
D03*
X3066142Y2536220D02*
D03*
X2966142D02*
D03*
X3066142Y2436220D02*
D03*
X2966142D02*
D03*
X3066142Y2336220D02*
D03*
X2966142D02*
D03*
Y2236220D02*
D03*
Y2136220D02*
D03*
X3066142Y2036220D02*
D03*
X2966142D02*
D03*
X3066142Y1936220D02*
D03*
X2966142D02*
D03*
X3066142Y1836220D02*
D03*
X2966142D02*
D03*
X3066142Y1736220D02*
D03*
X2966142D02*
D03*
X3066142Y1636220D02*
D03*
X2966142D02*
D03*
X3066142Y1536220D02*
D03*
X2966142D02*
D03*
X3066142Y1436220D02*
D03*
X2966142D02*
D03*
X3066142Y1336220D02*
D03*
X2966142D02*
D03*
X3066142Y1236220D02*
D03*
X2966142D02*
D03*
X3066142Y1136220D02*
D03*
X2966142D02*
D03*
X3066142Y1036220D02*
D03*
X2966142D02*
D03*
X3066142Y936221D02*
D03*
X2966142D02*
D03*
X3066142Y2236220D02*
D03*
Y2136220D02*
D03*
X666142Y2736220D02*
D03*
X566142D02*
D03*
X666142Y2636220D02*
D03*
X566142D02*
D03*
X666142Y2536220D02*
D03*
X566142D02*
D03*
X666142Y2436220D02*
D03*
X566142D02*
D03*
X666142Y2336220D02*
D03*
X566142D02*
D03*
X666142Y2236220D02*
D03*
X566142D02*
D03*
X666142Y2136220D02*
D03*
X566142D02*
D03*
X666142Y2036220D02*
D03*
X566142D02*
D03*
X666142Y1936220D02*
D03*
X566142D02*
D03*
X666142Y1836220D02*
D03*
X566142D02*
D03*
X666142Y1736220D02*
D03*
X566142D02*
D03*
X666142Y1636220D02*
D03*
X566142D02*
D03*
X666142Y1536220D02*
D03*
X566142D02*
D03*
X666142Y1436220D02*
D03*
X566142D02*
D03*
X666142Y1336220D02*
D03*
X566142D02*
D03*
X666142Y1236220D02*
D03*
X566142D02*
D03*
X666142Y1136220D02*
D03*
X566142D02*
D03*
X666142Y1036220D02*
D03*
X566142D02*
D03*
X666142Y936221D02*
D03*
X566142D02*
D03*
X866142Y2236220D02*
D03*
Y2136220D02*
D03*
Y2036220D02*
D03*
Y1936220D02*
D03*
Y1836220D02*
D03*
Y1736220D02*
D03*
Y1636220D02*
D03*
Y2336220D02*
D03*
D55*
X1598032Y934055D02*
D03*
X1498032D02*
D03*
X1398032D02*
D03*
X2039961Y917323D02*
D03*
X1939961D02*
D03*
X1839961D02*
D03*
D56*
X1504921Y655512D02*
D03*
X2134843Y1530512D02*
D03*
X2457677Y1488189D02*
D03*
X1315945Y1171260D02*
D03*
X1387795Y1183071D02*
D03*
X1322835Y1441929D02*
D03*
X755905Y1078740D02*
D03*
X2414370Y921260D02*
D03*
X2297244Y522638D02*
D03*
X2749016Y567913D02*
D03*
X2782480Y669291D02*
D03*
X2218504Y665354D02*
D03*
Y557087D02*
D03*
X2289370Y1140748D02*
D03*
X2205709Y1160433D02*
D03*
X2187008Y1475394D02*
D03*
X2233268Y1322835D02*
D03*
X2113189Y1443898D02*
D03*
X1782297Y1236037D02*
D03*
X849409Y657480D02*
D03*
X1996063Y1929134D02*
D03*
X2036417Y1607284D02*
D03*
X990158Y1970472D02*
D03*
Y1886811D02*
D03*
%TF.MD5,3284a001d28d5e98dc0b6e1fde6282aa*%
M02*
