%TF.GenerationSoftware,Altium Limited,Altium Designer,21.7.2 (23)*%
G04 Layer_Color=65535*
%FSLAX26Y26*%
%MOIN*%
%TF.SameCoordinates,89F72506-9554-4F55-AE3A-9D847A2FA82F*%
%TF.FilePolarity,Positive*%
%TF.FileFunction,Legend,Top*%
%TF.Part,Single*%
G01*
G75*
%TA.AperFunction,NonConductor*%
%ADD39C,0.007874*%
%ADD40C,0.009842*%
%ADD41C,0.023622*%
%ADD42C,0.003937*%
%ADD43C,0.005906*%
%ADD44C,0.010000*%
G36*
X1393372Y862731D02*
X1393816Y862676D01*
X1394316Y862564D01*
X1394871Y862453D01*
X1395481Y862342D01*
X1396813Y861899D01*
X1397535Y861566D01*
X1398201Y861232D01*
X1398922Y860788D01*
X1399644Y860289D01*
X1400365Y859734D01*
X1401031Y859068D01*
X1401087Y859013D01*
X1401198Y858902D01*
X1401364Y858679D01*
X1401586Y858402D01*
X1401864Y858069D01*
X1402141Y857625D01*
X1402474Y857125D01*
X1402752Y856515D01*
X1403085Y855904D01*
X1403418Y855183D01*
X1403695Y854462D01*
X1403973Y853629D01*
X1404195Y852741D01*
X1404361Y851798D01*
X1404472Y850854D01*
X1404528Y849799D01*
Y849300D01*
X1404472Y848967D01*
X1404417Y848523D01*
X1404361Y848024D01*
X1404250Y847468D01*
X1404139Y846858D01*
X1403806Y845526D01*
X1403251Y844139D01*
X1402918Y843417D01*
X1402530Y842751D01*
X1402030Y842085D01*
X1401531Y841419D01*
X1401475Y841364D01*
X1401364Y841253D01*
X1401198Y841086D01*
X1400976Y840919D01*
X1400698Y840642D01*
X1400310Y840365D01*
X1399921Y840032D01*
X1399422Y839698D01*
X1398867Y839365D01*
X1398312Y839033D01*
X1396980Y838422D01*
X1395426Y837923D01*
X1394593Y837756D01*
X1393705Y837645D01*
X1393095Y842362D01*
X1393150D01*
X1393261Y842418D01*
X1393483Y842473D01*
X1393761Y842529D01*
X1394094Y842585D01*
X1394482Y842696D01*
X1395315Y842973D01*
X1396314Y843361D01*
X1397257Y843861D01*
X1398145Y844416D01*
X1398922Y845082D01*
X1398978Y845193D01*
X1399200Y845415D01*
X1399477Y845859D01*
X1399755Y846414D01*
X1400088Y847080D01*
X1400365Y847913D01*
X1400587Y848856D01*
X1400643Y849855D01*
Y850188D01*
X1400587Y850410D01*
X1400532Y851020D01*
X1400365Y851798D01*
X1400088Y852686D01*
X1399699Y853629D01*
X1399144Y854572D01*
X1398367Y855461D01*
X1398256Y855572D01*
X1397923Y855849D01*
X1397424Y856182D01*
X1396758Y856626D01*
X1395925Y857070D01*
X1394982Y857403D01*
X1393872Y857681D01*
X1392651Y857792D01*
X1392595D01*
X1392484D01*
X1392318D01*
X1392096Y857736D01*
X1391485Y857681D01*
X1390764Y857514D01*
X1389876Y857292D01*
X1388988Y856904D01*
X1388100Y856348D01*
X1387267Y855627D01*
X1387156Y855516D01*
X1386934Y855239D01*
X1386601Y854794D01*
X1386213Y854184D01*
X1385824Y853407D01*
X1385491Y852463D01*
X1385269Y851409D01*
X1385158Y850244D01*
Y849744D01*
X1385214Y849356D01*
X1385269Y848856D01*
X1385380Y848301D01*
X1385491Y847635D01*
X1385658Y846913D01*
X1381495Y847468D01*
Y847746D01*
X1381551Y847968D01*
Y848689D01*
X1381440Y849300D01*
X1381329Y850021D01*
X1381162Y850854D01*
X1380885Y851798D01*
X1380496Y852686D01*
X1379997Y853629D01*
Y853684D01*
X1379941Y853740D01*
X1379719Y854018D01*
X1379331Y854406D01*
X1378831Y854850D01*
X1378110Y855294D01*
X1377277Y855683D01*
X1376334Y855960D01*
X1375779Y856071D01*
X1375168D01*
X1375113D01*
X1375057D01*
X1374724D01*
X1374280Y855960D01*
X1373670Y855849D01*
X1373004Y855627D01*
X1372282Y855350D01*
X1371561Y854905D01*
X1370895Y854295D01*
X1370839Y854240D01*
X1370617Y853962D01*
X1370340Y853573D01*
X1370007Y853074D01*
X1369729Y852408D01*
X1369452Y851631D01*
X1369230Y850743D01*
X1369174Y849744D01*
Y849300D01*
X1369285Y848801D01*
X1369396Y848135D01*
X1369618Y847413D01*
X1369896Y846692D01*
X1370340Y845914D01*
X1370895Y845193D01*
X1370950Y845138D01*
X1371228Y844915D01*
X1371616Y844582D01*
X1372171Y844194D01*
X1372893Y843806D01*
X1373781Y843417D01*
X1374835Y843084D01*
X1376056Y842862D01*
X1375224Y838144D01*
X1375168D01*
X1375002Y838200D01*
X1374780Y838255D01*
X1374447Y838311D01*
X1374058Y838422D01*
X1373614Y838588D01*
X1372560Y838922D01*
X1371339Y839476D01*
X1370118Y840143D01*
X1368952Y840975D01*
X1367898Y842029D01*
X1367842Y842085D01*
X1367787Y842196D01*
X1367676Y842362D01*
X1367509Y842585D01*
X1367287Y842862D01*
X1367065Y843250D01*
X1366843Y843639D01*
X1366566Y844139D01*
X1366122Y845249D01*
X1365678Y846525D01*
X1365400Y848024D01*
X1365289Y848801D01*
Y850188D01*
X1365345Y850798D01*
X1365456Y851520D01*
X1365622Y852408D01*
X1365900Y853407D01*
X1366233Y854406D01*
X1366677Y855405D01*
Y855461D01*
X1366732Y855516D01*
X1366899Y855849D01*
X1367232Y856348D01*
X1367620Y856904D01*
X1368175Y857569D01*
X1368786Y858236D01*
X1369507Y858902D01*
X1370340Y859457D01*
X1370451Y859512D01*
X1370728Y859678D01*
X1371228Y859900D01*
X1371838Y860178D01*
X1372560Y860456D01*
X1373392Y860678D01*
X1374336Y860844D01*
X1375279Y860899D01*
X1375390D01*
X1375723D01*
X1376167Y860844D01*
X1376778Y860733D01*
X1377499Y860567D01*
X1378276Y860289D01*
X1379053Y859956D01*
X1379830Y859512D01*
X1379941Y859457D01*
X1380163Y859290D01*
X1380552Y858957D01*
X1380996Y858513D01*
X1381495Y857958D01*
X1382050Y857292D01*
X1382550Y856515D01*
X1383049Y855572D01*
Y855627D01*
X1383105Y855738D01*
X1383160Y855904D01*
X1383216Y856126D01*
X1383438Y856737D01*
X1383771Y857514D01*
X1384215Y858402D01*
X1384770Y859290D01*
X1385491Y860122D01*
X1386324Y860899D01*
X1386435Y860955D01*
X1386768Y861177D01*
X1387323Y861510D01*
X1388044Y861843D01*
X1388932Y862176D01*
X1389987Y862509D01*
X1391208Y862731D01*
X1392540Y862787D01*
X1392595D01*
X1392762D01*
X1393039D01*
X1393372Y862731D01*
D02*
G37*
G36*
X1403862Y819941D02*
Y814612D01*
X1365456Y799739D01*
Y805288D01*
X1393372Y815279D01*
X1393428D01*
X1393539Y815334D01*
X1393705Y815389D01*
X1393927Y815500D01*
X1394260Y815556D01*
X1394593Y815667D01*
X1395426Y815944D01*
X1396369Y816278D01*
X1397424Y816611D01*
X1399644Y817277D01*
X1399588D01*
X1399477Y817332D01*
X1399311Y817388D01*
X1399089Y817443D01*
X1398478Y817610D01*
X1397646Y817887D01*
X1396702Y818164D01*
X1395648Y818497D01*
X1394538Y818886D01*
X1393372Y819330D01*
X1365456Y829764D01*
Y834926D01*
X1403862Y819941D01*
D02*
G37*
G36*
X1393372Y797074D02*
X1393816Y797019D01*
X1394316Y796908D01*
X1394871Y796797D01*
X1395481Y796686D01*
X1396813Y796242D01*
X1397535Y795909D01*
X1398201Y795576D01*
X1398922Y795132D01*
X1399644Y794633D01*
X1400365Y794077D01*
X1401031Y793412D01*
X1401087Y793356D01*
X1401198Y793245D01*
X1401364Y793023D01*
X1401586Y792745D01*
X1401864Y792413D01*
X1402141Y791968D01*
X1402474Y791469D01*
X1402752Y790859D01*
X1403085Y790248D01*
X1403418Y789527D01*
X1403695Y788805D01*
X1403973Y787972D01*
X1404195Y787085D01*
X1404361Y786141D01*
X1404472Y785197D01*
X1404528Y784143D01*
Y783644D01*
X1404472Y783311D01*
X1404417Y782866D01*
X1404361Y782367D01*
X1404250Y781812D01*
X1404139Y781202D01*
X1403806Y779870D01*
X1403251Y778482D01*
X1402918Y777760D01*
X1402530Y777095D01*
X1402030Y776428D01*
X1401531Y775763D01*
X1401475Y775707D01*
X1401364Y775596D01*
X1401198Y775429D01*
X1400976Y775263D01*
X1400698Y774986D01*
X1400310Y774708D01*
X1399921Y774375D01*
X1399422Y774042D01*
X1398867Y773709D01*
X1398312Y773376D01*
X1396980Y772765D01*
X1395426Y772266D01*
X1394593Y772100D01*
X1393705Y771989D01*
X1393095Y776706D01*
X1393150D01*
X1393261Y776761D01*
X1393483Y776817D01*
X1393761Y776872D01*
X1394094Y776928D01*
X1394482Y777039D01*
X1395315Y777317D01*
X1396314Y777705D01*
X1397257Y778205D01*
X1398145Y778760D01*
X1398922Y779426D01*
X1398978Y779537D01*
X1399200Y779759D01*
X1399477Y780202D01*
X1399755Y780758D01*
X1400088Y781423D01*
X1400365Y782256D01*
X1400587Y783199D01*
X1400643Y784198D01*
Y784532D01*
X1400587Y784754D01*
X1400532Y785364D01*
X1400365Y786141D01*
X1400088Y787029D01*
X1399699Y787972D01*
X1399144Y788916D01*
X1398367Y789804D01*
X1398256Y789915D01*
X1397923Y790192D01*
X1397424Y790525D01*
X1396758Y790970D01*
X1395925Y791413D01*
X1394982Y791746D01*
X1393872Y792024D01*
X1392651Y792135D01*
X1392595D01*
X1392484D01*
X1392318D01*
X1392096Y792080D01*
X1391485Y792024D01*
X1390764Y791857D01*
X1389876Y791635D01*
X1388988Y791247D01*
X1388100Y790692D01*
X1387267Y789971D01*
X1387156Y789860D01*
X1386934Y789582D01*
X1386601Y789138D01*
X1386213Y788528D01*
X1385824Y787750D01*
X1385491Y786807D01*
X1385269Y785753D01*
X1385158Y784587D01*
Y784087D01*
X1385214Y783699D01*
X1385269Y783199D01*
X1385380Y782644D01*
X1385491Y781979D01*
X1385658Y781257D01*
X1381495Y781812D01*
Y782090D01*
X1381551Y782312D01*
Y783033D01*
X1381440Y783644D01*
X1381329Y784365D01*
X1381162Y785197D01*
X1380885Y786141D01*
X1380496Y787029D01*
X1379997Y787972D01*
Y788028D01*
X1379941Y788083D01*
X1379719Y788361D01*
X1379331Y788750D01*
X1378831Y789193D01*
X1378110Y789638D01*
X1377277Y790026D01*
X1376334Y790303D01*
X1375779Y790414D01*
X1375168D01*
X1375113D01*
X1375057D01*
X1374724D01*
X1374280Y790303D01*
X1373670Y790192D01*
X1373004Y789971D01*
X1372282Y789693D01*
X1371561Y789249D01*
X1370895Y788639D01*
X1370839Y788583D01*
X1370617Y788306D01*
X1370340Y787917D01*
X1370007Y787418D01*
X1369729Y786751D01*
X1369452Y785975D01*
X1369230Y785087D01*
X1369174Y784087D01*
Y783644D01*
X1369285Y783144D01*
X1369396Y782478D01*
X1369618Y781756D01*
X1369896Y781035D01*
X1370340Y780258D01*
X1370895Y779537D01*
X1370950Y779481D01*
X1371228Y779259D01*
X1371616Y778926D01*
X1372171Y778538D01*
X1372893Y778149D01*
X1373781Y777760D01*
X1374835Y777428D01*
X1376056Y777206D01*
X1375224Y772488D01*
X1375168D01*
X1375002Y772543D01*
X1374780Y772599D01*
X1374447Y772654D01*
X1374058Y772765D01*
X1373614Y772932D01*
X1372560Y773265D01*
X1371339Y773820D01*
X1370118Y774486D01*
X1368952Y775318D01*
X1367898Y776373D01*
X1367842Y776428D01*
X1367787Y776539D01*
X1367676Y776706D01*
X1367509Y776928D01*
X1367287Y777206D01*
X1367065Y777594D01*
X1366843Y777982D01*
X1366566Y778482D01*
X1366122Y779592D01*
X1365678Y780869D01*
X1365400Y782367D01*
X1365289Y783144D01*
Y784532D01*
X1365345Y785142D01*
X1365456Y785864D01*
X1365622Y786751D01*
X1365900Y787750D01*
X1366233Y788750D01*
X1366677Y789749D01*
Y789804D01*
X1366732Y789860D01*
X1366899Y790192D01*
X1367232Y790692D01*
X1367620Y791247D01*
X1368175Y791913D01*
X1368786Y792579D01*
X1369507Y793245D01*
X1370340Y793800D01*
X1370451Y793856D01*
X1370728Y794022D01*
X1371228Y794244D01*
X1371838Y794521D01*
X1372560Y794799D01*
X1373392Y795021D01*
X1374336Y795188D01*
X1375279Y795243D01*
X1375390D01*
X1375723D01*
X1376167Y795188D01*
X1376778Y795077D01*
X1377499Y794910D01*
X1378276Y794633D01*
X1379053Y794299D01*
X1379830Y793856D01*
X1379941Y793800D01*
X1380163Y793634D01*
X1380552Y793301D01*
X1380996Y792856D01*
X1381495Y792302D01*
X1382050Y791635D01*
X1382550Y790859D01*
X1383049Y789915D01*
Y789971D01*
X1383105Y790082D01*
X1383160Y790248D01*
X1383216Y790470D01*
X1383438Y791081D01*
X1383771Y791857D01*
X1384215Y792745D01*
X1384770Y793634D01*
X1385491Y794466D01*
X1386324Y795243D01*
X1386435Y795298D01*
X1386768Y795520D01*
X1387323Y795854D01*
X1388044Y796187D01*
X1388932Y796519D01*
X1389987Y796852D01*
X1391208Y797074D01*
X1392540Y797130D01*
X1392595D01*
X1392762D01*
X1393039D01*
X1393372Y797074D01*
D02*
G37*
G36*
X1370007Y755949D02*
X1403862D01*
Y750843D01*
X1370007D01*
Y738189D01*
X1365456D01*
Y768603D01*
X1370007D01*
Y755949D01*
D02*
G37*
G36*
X1617126Y843813D02*
X1617071D01*
X1616849D01*
X1616515D01*
X1616072Y843869D01*
X1615572Y843924D01*
X1615017Y844035D01*
X1614462Y844146D01*
X1613851Y844368D01*
X1613796D01*
X1613741Y844424D01*
X1613408Y844535D01*
X1612908Y844757D01*
X1612242Y845090D01*
X1611465Y845534D01*
X1610577Y846089D01*
X1609689Y846699D01*
X1608745Y847476D01*
X1608690D01*
X1608634Y847587D01*
X1608302Y847865D01*
X1607802Y848364D01*
X1607081Y849086D01*
X1606248Y849918D01*
X1605249Y850973D01*
X1604139Y852249D01*
X1602974Y853637D01*
X1602918Y853692D01*
X1602752Y853914D01*
X1602474Y854247D01*
X1602141Y854636D01*
X1601697Y855135D01*
X1601197Y855746D01*
X1600642Y856356D01*
X1600032Y857078D01*
X1598700Y858465D01*
X1597368Y859853D01*
X1596702Y860519D01*
X1596036Y861129D01*
X1595426Y861684D01*
X1594815Y862128D01*
X1594759D01*
X1594704Y862239D01*
X1594537Y862350D01*
X1594315Y862461D01*
X1593705Y862850D01*
X1592984Y863294D01*
X1592095Y863682D01*
X1591152Y864071D01*
X1590098Y864293D01*
X1589099Y864404D01*
X1589043D01*
X1588987D01*
X1588655Y864348D01*
X1588100Y864293D01*
X1587489Y864126D01*
X1586712Y863904D01*
X1585935Y863516D01*
X1585158Y863016D01*
X1584381Y862350D01*
X1584270Y862239D01*
X1584048Y861962D01*
X1583771Y861573D01*
X1583382Y860963D01*
X1583049Y860186D01*
X1582716Y859298D01*
X1582494Y858243D01*
X1582438Y857078D01*
Y856745D01*
X1582494Y856523D01*
X1582550Y855857D01*
X1582716Y855080D01*
X1582938Y854247D01*
X1583326Y853304D01*
X1583826Y852416D01*
X1584492Y851583D01*
X1584603Y851472D01*
X1584880Y851250D01*
X1585324Y850917D01*
X1585991Y850584D01*
X1586767Y850196D01*
X1587766Y849863D01*
X1588877Y849641D01*
X1590153Y849530D01*
X1589653Y844701D01*
X1589598D01*
X1589431Y844757D01*
X1589154D01*
X1588765Y844812D01*
X1588322Y844923D01*
X1587822Y845034D01*
X1587211Y845201D01*
X1586601Y845367D01*
X1585269Y845811D01*
X1583937Y846477D01*
X1583271Y846866D01*
X1582605Y847365D01*
X1581995Y847865D01*
X1581439Y848420D01*
X1581384Y848475D01*
X1581329Y848586D01*
X1581162Y848753D01*
X1580995Y849030D01*
X1580774Y849363D01*
X1580552Y849752D01*
X1580274Y850196D01*
X1579996Y850751D01*
X1579719Y851361D01*
X1579441Y852027D01*
X1579219Y852749D01*
X1578997Y853526D01*
X1578831Y854358D01*
X1578665Y855246D01*
X1578609Y856190D01*
X1578553Y857189D01*
Y857744D01*
X1578609Y858132D01*
X1578665Y858576D01*
X1578720Y859131D01*
X1578831Y859742D01*
X1578942Y860352D01*
X1579331Y861795D01*
X1579886Y863238D01*
X1580218Y863960D01*
X1580607Y864681D01*
X1581107Y865347D01*
X1581661Y865958D01*
X1581717Y866013D01*
X1581773Y866124D01*
X1581995Y866235D01*
X1582216Y866457D01*
X1582494Y866735D01*
X1582882Y867012D01*
X1583271Y867290D01*
X1583771Y867623D01*
X1584825Y868178D01*
X1586157Y868733D01*
X1586823Y868955D01*
X1587600Y869066D01*
X1588377Y869177D01*
X1589209Y869232D01*
X1589321D01*
X1589598D01*
X1590042Y869177D01*
X1590652Y869121D01*
X1591319Y869010D01*
X1592095Y868788D01*
X1592928Y868566D01*
X1593761Y868233D01*
X1593871Y868178D01*
X1594149Y868067D01*
X1594593Y867845D01*
X1595204Y867512D01*
X1595870Y867068D01*
X1596702Y866513D01*
X1597534Y865847D01*
X1598478Y865070D01*
X1598589Y864959D01*
X1598922Y864681D01*
X1599199Y864404D01*
X1599477Y864126D01*
X1599810Y863793D01*
X1600254Y863349D01*
X1600698Y862905D01*
X1601197Y862350D01*
X1601753Y861795D01*
X1602363Y861129D01*
X1602974Y860408D01*
X1603695Y859631D01*
X1604417Y858743D01*
X1605194Y857855D01*
X1605249Y857799D01*
X1605360Y857688D01*
X1605526Y857466D01*
X1605748Y857189D01*
X1606082Y856856D01*
X1606415Y856467D01*
X1607136Y855579D01*
X1607968Y854636D01*
X1608801Y853748D01*
X1609523Y852971D01*
X1609800Y852638D01*
X1610078Y852360D01*
X1610133Y852305D01*
X1610300Y852138D01*
X1610522Y851916D01*
X1610854Y851639D01*
X1611243Y851361D01*
X1611631Y851028D01*
X1612575Y850362D01*
Y869288D01*
X1617126D01*
Y843813D01*
D02*
G37*
G36*
Y826830D02*
Y821502D01*
X1578720Y806628D01*
Y812178D01*
X1606637Y822168D01*
X1606692D01*
X1606803Y822224D01*
X1606969Y822279D01*
X1607191Y822390D01*
X1607524Y822446D01*
X1607858Y822557D01*
X1608690Y822834D01*
X1609633Y823167D01*
X1610688Y823500D01*
X1612908Y824166D01*
X1612852D01*
X1612742Y824222D01*
X1612575Y824277D01*
X1612353Y824333D01*
X1611743Y824499D01*
X1610910Y824777D01*
X1609966Y825054D01*
X1608912Y825387D01*
X1607802Y825776D01*
X1606637Y826220D01*
X1578720Y836654D01*
Y841815D01*
X1617126Y826830D01*
D02*
G37*
G36*
Y791865D02*
X1587101D01*
X1587156Y791810D01*
X1587378Y791532D01*
X1587711Y791199D01*
X1588100Y790644D01*
X1588599Y790034D01*
X1589154Y789257D01*
X1589764Y788369D01*
X1590375Y787370D01*
Y787314D01*
X1590430Y787259D01*
X1590652Y786926D01*
X1590930Y786371D01*
X1591263Y785705D01*
X1591651Y784928D01*
X1592040Y784095D01*
X1592428Y783263D01*
X1592762Y782430D01*
X1588210D01*
Y782486D01*
X1588100Y782597D01*
X1588044Y782819D01*
X1587878Y783096D01*
X1587711Y783429D01*
X1587489Y783818D01*
X1586934Y784761D01*
X1586323Y785871D01*
X1585546Y786981D01*
X1584659Y788147D01*
X1583715Y789312D01*
X1583659Y789368D01*
X1583604Y789423D01*
X1583438Y789590D01*
X1583271Y789812D01*
X1582716Y790311D01*
X1582050Y790977D01*
X1581273Y791643D01*
X1580385Y792365D01*
X1579497Y792975D01*
X1578553Y793530D01*
Y796583D01*
X1617126D01*
Y791865D01*
D02*
G37*
G36*
X1583271Y762839D02*
X1617126D01*
Y757733D01*
X1583271D01*
Y745079D01*
X1578720D01*
Y775493D01*
X1583271D01*
Y762839D01*
D02*
G37*
G36*
X1774278Y853917D02*
X1774722Y853861D01*
X1775221Y853750D01*
X1775776Y853639D01*
X1776387Y853529D01*
X1777719Y853085D01*
X1778440Y852751D01*
X1779106Y852418D01*
X1779828Y851975D01*
X1780549Y851475D01*
X1781271Y850920D01*
X1781937Y850254D01*
X1781992Y850198D01*
X1782103Y850087D01*
X1782270Y849865D01*
X1782492Y849588D01*
X1782769Y849255D01*
X1783047Y848811D01*
X1783380Y848312D01*
X1783657Y847701D01*
X1783990Y847091D01*
X1784323Y846369D01*
X1784601Y845648D01*
X1784878Y844815D01*
X1785100Y843927D01*
X1785267Y842984D01*
X1785378Y842040D01*
X1785433Y840986D01*
Y840486D01*
X1785378Y840153D01*
X1785322Y839709D01*
X1785267Y839210D01*
X1785156Y838654D01*
X1785045Y838044D01*
X1784712Y836712D01*
X1784157Y835324D01*
X1783824Y834603D01*
X1783435Y833937D01*
X1782936Y833271D01*
X1782436Y832605D01*
X1782381Y832549D01*
X1782270Y832438D01*
X1782103Y832272D01*
X1781881Y832106D01*
X1781604Y831828D01*
X1781215Y831551D01*
X1780827Y831217D01*
X1780327Y830885D01*
X1779772Y830552D01*
X1779217Y830218D01*
X1777885Y829608D01*
X1776331Y829109D01*
X1775499Y828942D01*
X1774611Y828831D01*
X1774000Y833548D01*
X1774056D01*
X1774167Y833604D01*
X1774389Y833659D01*
X1774666Y833715D01*
X1774999Y833770D01*
X1775388Y833881D01*
X1776220Y834159D01*
X1777219Y834548D01*
X1778163Y835047D01*
X1779051Y835602D01*
X1779828Y836268D01*
X1779883Y836379D01*
X1780105Y836601D01*
X1780383Y837045D01*
X1780660Y837600D01*
X1780993Y838266D01*
X1781271Y839098D01*
X1781493Y840042D01*
X1781548Y841041D01*
Y841374D01*
X1781493Y841596D01*
X1781437Y842207D01*
X1781271Y842984D01*
X1780993Y843871D01*
X1780605Y844815D01*
X1780050Y845759D01*
X1779273Y846646D01*
X1779162Y846758D01*
X1778829Y847035D01*
X1778329Y847368D01*
X1777663Y847812D01*
X1776831Y848256D01*
X1775887Y848589D01*
X1774777Y848866D01*
X1773556Y848977D01*
X1773501D01*
X1773390D01*
X1773223D01*
X1773001Y848922D01*
X1772391Y848866D01*
X1771669Y848700D01*
X1770781Y848478D01*
X1769893Y848090D01*
X1769005Y847534D01*
X1768173Y846813D01*
X1768062Y846702D01*
X1767840Y846424D01*
X1767507Y845981D01*
X1767118Y845370D01*
X1766730Y844593D01*
X1766397Y843649D01*
X1766175Y842595D01*
X1766064Y841429D01*
Y840930D01*
X1766119Y840542D01*
X1766175Y840042D01*
X1766286Y839487D01*
X1766397Y838821D01*
X1766563Y838100D01*
X1762401Y838654D01*
Y838932D01*
X1762456Y839154D01*
Y839875D01*
X1762345Y840486D01*
X1762234Y841207D01*
X1762068Y842040D01*
X1761790Y842984D01*
X1761402Y843871D01*
X1760902Y844815D01*
Y844870D01*
X1760847Y844926D01*
X1760625Y845203D01*
X1760236Y845592D01*
X1759737Y846036D01*
X1759015Y846480D01*
X1758183Y846869D01*
X1757239Y847146D01*
X1756684Y847257D01*
X1756074D01*
X1756018D01*
X1755963D01*
X1755630D01*
X1755186Y847146D01*
X1754575Y847035D01*
X1753909Y846813D01*
X1753188Y846535D01*
X1752466Y846091D01*
X1751800Y845481D01*
X1751745Y845426D01*
X1751523Y845148D01*
X1751245Y844760D01*
X1750912Y844260D01*
X1750635Y843594D01*
X1750357Y842817D01*
X1750135Y841929D01*
X1750080Y840930D01*
Y840486D01*
X1750191Y839986D01*
X1750302Y839321D01*
X1750524Y838599D01*
X1750801Y837878D01*
X1751245Y837101D01*
X1751800Y836379D01*
X1751856Y836323D01*
X1752133Y836101D01*
X1752522Y835769D01*
X1753077Y835380D01*
X1753798Y834991D01*
X1754686Y834603D01*
X1755741Y834270D01*
X1756962Y834048D01*
X1756129Y829331D01*
X1756074D01*
X1755907Y829386D01*
X1755685Y829442D01*
X1755352Y829497D01*
X1754964Y829608D01*
X1754520Y829774D01*
X1753465Y830107D01*
X1752244Y830663D01*
X1751023Y831328D01*
X1749858Y832161D01*
X1748803Y833216D01*
X1748748Y833271D01*
X1748692Y833382D01*
X1748581Y833548D01*
X1748415Y833770D01*
X1748193Y834048D01*
X1747971Y834437D01*
X1747749Y834825D01*
X1747471Y835324D01*
X1747027Y836434D01*
X1746583Y837711D01*
X1746306Y839210D01*
X1746195Y839986D01*
Y841374D01*
X1746250Y841985D01*
X1746361Y842706D01*
X1746528Y843594D01*
X1746805Y844593D01*
X1747138Y845592D01*
X1747582Y846591D01*
Y846646D01*
X1747638Y846702D01*
X1747804Y847035D01*
X1748137Y847534D01*
X1748526Y848090D01*
X1749081Y848755D01*
X1749691Y849422D01*
X1750413Y850087D01*
X1751245Y850643D01*
X1751356Y850698D01*
X1751634Y850865D01*
X1752133Y851087D01*
X1752744Y851364D01*
X1753465Y851641D01*
X1754298Y851864D01*
X1755241Y852030D01*
X1756185Y852086D01*
X1756296D01*
X1756629D01*
X1757073Y852030D01*
X1757683Y851919D01*
X1758405Y851753D01*
X1759182Y851475D01*
X1759959Y851142D01*
X1760736Y850698D01*
X1760847Y850643D01*
X1761069Y850476D01*
X1761457Y850143D01*
X1761901Y849699D01*
X1762401Y849144D01*
X1762956Y848478D01*
X1763455Y847701D01*
X1763955Y846758D01*
Y846813D01*
X1764010Y846924D01*
X1764066Y847091D01*
X1764121Y847312D01*
X1764343Y847923D01*
X1764676Y848700D01*
X1765120Y849588D01*
X1765675Y850476D01*
X1766397Y851308D01*
X1767229Y852086D01*
X1767340Y852141D01*
X1767673Y852363D01*
X1768228Y852696D01*
X1768950Y853029D01*
X1769838Y853362D01*
X1770892Y853695D01*
X1772113Y853917D01*
X1773445Y853972D01*
X1773501D01*
X1773667D01*
X1773945D01*
X1774278Y853917D01*
D02*
G37*
G36*
X1784767Y811126D02*
Y805798D01*
X1746361Y790924D01*
Y796475D01*
X1774278Y806465D01*
X1774333D01*
X1774444Y806520D01*
X1774611Y806576D01*
X1774833Y806687D01*
X1775166Y806742D01*
X1775499Y806853D01*
X1776331Y807130D01*
X1777275Y807463D01*
X1778329Y807797D01*
X1780549Y808462D01*
X1780494D01*
X1780383Y808518D01*
X1780216Y808573D01*
X1779994Y808629D01*
X1779384Y808795D01*
X1778551Y809073D01*
X1777608Y809351D01*
X1776553Y809683D01*
X1775443Y810072D01*
X1774278Y810516D01*
X1746361Y820950D01*
Y826111D01*
X1784767Y811126D01*
D02*
G37*
G36*
X1774278Y788260D02*
X1774722Y788205D01*
X1775221Y788094D01*
X1775776Y787983D01*
X1776387Y787872D01*
X1777719Y787428D01*
X1778440Y787095D01*
X1779106Y786762D01*
X1779828Y786318D01*
X1780549Y785818D01*
X1781271Y785264D01*
X1781937Y784597D01*
X1781992Y784542D01*
X1782103Y784431D01*
X1782270Y784209D01*
X1782492Y783932D01*
X1782769Y783598D01*
X1783047Y783154D01*
X1783380Y782655D01*
X1783657Y782044D01*
X1783990Y781434D01*
X1784323Y780712D01*
X1784601Y779991D01*
X1784878Y779159D01*
X1785100Y778270D01*
X1785267Y777327D01*
X1785378Y776384D01*
X1785433Y775329D01*
Y774830D01*
X1785378Y774496D01*
X1785322Y774053D01*
X1785267Y773553D01*
X1785156Y772998D01*
X1785045Y772388D01*
X1784712Y771056D01*
X1784157Y769668D01*
X1783824Y768947D01*
X1783435Y768280D01*
X1782936Y767615D01*
X1782436Y766948D01*
X1782381Y766893D01*
X1782270Y766782D01*
X1782103Y766615D01*
X1781881Y766449D01*
X1781604Y766172D01*
X1781215Y765894D01*
X1780827Y765561D01*
X1780327Y765228D01*
X1779772Y764895D01*
X1779217Y764562D01*
X1777885Y763952D01*
X1776331Y763452D01*
X1775499Y763285D01*
X1774611Y763174D01*
X1774000Y767892D01*
X1774056D01*
X1774167Y767947D01*
X1774389Y768003D01*
X1774666Y768058D01*
X1774999Y768114D01*
X1775388Y768225D01*
X1776220Y768503D01*
X1777219Y768891D01*
X1778163Y769390D01*
X1779051Y769946D01*
X1779828Y770611D01*
X1779883Y770722D01*
X1780105Y770944D01*
X1780383Y771389D01*
X1780660Y771943D01*
X1780993Y772610D01*
X1781271Y773442D01*
X1781493Y774385D01*
X1781548Y775385D01*
Y775717D01*
X1781493Y775939D01*
X1781437Y776550D01*
X1781271Y777327D01*
X1780993Y778215D01*
X1780605Y779159D01*
X1780050Y780102D01*
X1779273Y780990D01*
X1779162Y781101D01*
X1778829Y781379D01*
X1778329Y781712D01*
X1777663Y782155D01*
X1776831Y782600D01*
X1775887Y782933D01*
X1774777Y783210D01*
X1773556Y783321D01*
X1773501D01*
X1773390D01*
X1773223D01*
X1773001Y783265D01*
X1772391Y783210D01*
X1771669Y783043D01*
X1770781Y782822D01*
X1769893Y782433D01*
X1769005Y781878D01*
X1768173Y781157D01*
X1768062Y781045D01*
X1767840Y780768D01*
X1767507Y780324D01*
X1767118Y779713D01*
X1766730Y778937D01*
X1766397Y777993D01*
X1766175Y776938D01*
X1766064Y775773D01*
Y775274D01*
X1766119Y774885D01*
X1766175Y774385D01*
X1766286Y773831D01*
X1766397Y773164D01*
X1766563Y772443D01*
X1762401Y772998D01*
Y773275D01*
X1762456Y773497D01*
Y774219D01*
X1762345Y774830D01*
X1762234Y775551D01*
X1762068Y776384D01*
X1761790Y777327D01*
X1761402Y778215D01*
X1760902Y779159D01*
Y779214D01*
X1760847Y779269D01*
X1760625Y779547D01*
X1760236Y779936D01*
X1759737Y780380D01*
X1759015Y780823D01*
X1758183Y781212D01*
X1757239Y781490D01*
X1756684Y781601D01*
X1756074D01*
X1756018D01*
X1755963D01*
X1755630D01*
X1755186Y781490D01*
X1754575Y781379D01*
X1753909Y781157D01*
X1753188Y780879D01*
X1752466Y780435D01*
X1751800Y779824D01*
X1751745Y779769D01*
X1751523Y779491D01*
X1751245Y779103D01*
X1750912Y778604D01*
X1750635Y777938D01*
X1750357Y777160D01*
X1750135Y776273D01*
X1750080Y775274D01*
Y774830D01*
X1750191Y774330D01*
X1750302Y773664D01*
X1750524Y772942D01*
X1750801Y772221D01*
X1751245Y771444D01*
X1751800Y770722D01*
X1751856Y770667D01*
X1752133Y770445D01*
X1752522Y770112D01*
X1753077Y769723D01*
X1753798Y769335D01*
X1754686Y768947D01*
X1755741Y768614D01*
X1756962Y768391D01*
X1756129Y763674D01*
X1756074D01*
X1755907Y763730D01*
X1755685Y763785D01*
X1755352Y763841D01*
X1754964Y763952D01*
X1754520Y764118D01*
X1753465Y764451D01*
X1752244Y765006D01*
X1751023Y765672D01*
X1749858Y766505D01*
X1748803Y767559D01*
X1748748Y767615D01*
X1748692Y767726D01*
X1748581Y767892D01*
X1748415Y768114D01*
X1748193Y768391D01*
X1747971Y768780D01*
X1747749Y769168D01*
X1747471Y769668D01*
X1747027Y770778D01*
X1746583Y772054D01*
X1746306Y773553D01*
X1746195Y774330D01*
Y775717D01*
X1746250Y776328D01*
X1746361Y777049D01*
X1746528Y777938D01*
X1746805Y778937D01*
X1747138Y779936D01*
X1747582Y780934D01*
Y780990D01*
X1747638Y781045D01*
X1747804Y781379D01*
X1748137Y781878D01*
X1748526Y782433D01*
X1749081Y783099D01*
X1749691Y783765D01*
X1750413Y784431D01*
X1751245Y784986D01*
X1751356Y785042D01*
X1751634Y785208D01*
X1752133Y785430D01*
X1752744Y785707D01*
X1753465Y785985D01*
X1754298Y786207D01*
X1755241Y786374D01*
X1756185Y786429D01*
X1756296D01*
X1756629D01*
X1757073Y786374D01*
X1757683Y786263D01*
X1758405Y786096D01*
X1759182Y785818D01*
X1759959Y785486D01*
X1760736Y785042D01*
X1760847Y784986D01*
X1761069Y784819D01*
X1761457Y784486D01*
X1761901Y784043D01*
X1762401Y783487D01*
X1762956Y782822D01*
X1763455Y782044D01*
X1763955Y781101D01*
Y781157D01*
X1764010Y781268D01*
X1764066Y781434D01*
X1764121Y781656D01*
X1764343Y782266D01*
X1764676Y783043D01*
X1765120Y783932D01*
X1765675Y784819D01*
X1766397Y785652D01*
X1767229Y786429D01*
X1767340Y786485D01*
X1767673Y786707D01*
X1768228Y787039D01*
X1768950Y787372D01*
X1769838Y787706D01*
X1770892Y788038D01*
X1772113Y788260D01*
X1773445Y788316D01*
X1773501D01*
X1773667D01*
X1773945D01*
X1774278Y788260D01*
D02*
G37*
G36*
X1784767Y753795D02*
X1776775Y748745D01*
X1776720D01*
X1776609Y748634D01*
X1776442Y748523D01*
X1776220Y748356D01*
X1775610Y747967D01*
X1774833Y747468D01*
X1774000Y746857D01*
X1773112Y746247D01*
X1772280Y745636D01*
X1771503Y745082D01*
X1771447Y745026D01*
X1771225Y744860D01*
X1770892Y744582D01*
X1770504Y744193D01*
X1769671Y743361D01*
X1769283Y742917D01*
X1768950Y742473D01*
X1768894Y742418D01*
X1768839Y742307D01*
X1768728Y742085D01*
X1768561Y741751D01*
X1768395Y741418D01*
X1768228Y741030D01*
X1767951Y740142D01*
Y740087D01*
X1767895Y739976D01*
Y739754D01*
X1767840Y739476D01*
X1767784Y739087D01*
Y738644D01*
X1767729Y738033D01*
Y731484D01*
X1784767D01*
Y726378D01*
X1746361D01*
Y744193D01*
X1746417Y744638D01*
Y745137D01*
X1746472Y746303D01*
X1746639Y747524D01*
X1746805Y748856D01*
X1747083Y750077D01*
X1747249Y750687D01*
X1747416Y751187D01*
Y751242D01*
X1747471Y751298D01*
X1747638Y751630D01*
X1747860Y752130D01*
X1748248Y752740D01*
X1748748Y753407D01*
X1749414Y754128D01*
X1750191Y754794D01*
X1751079Y755460D01*
X1751134D01*
X1751190Y755515D01*
X1751523Y755737D01*
X1752078Y755960D01*
X1752799Y756293D01*
X1753632Y756570D01*
X1754631Y756847D01*
X1755685Y757014D01*
X1756851Y757069D01*
X1756906D01*
X1757017D01*
X1757239D01*
X1757517Y757014D01*
X1757905D01*
X1758294Y756958D01*
X1759237Y756736D01*
X1760347Y756404D01*
X1761513Y755960D01*
X1762678Y755293D01*
X1763233Y754850D01*
X1763788Y754405D01*
X1763844Y754350D01*
X1763899Y754294D01*
X1764066Y754128D01*
X1764232Y753906D01*
X1764454Y753629D01*
X1764676Y753295D01*
X1764954Y752851D01*
X1765287Y752408D01*
X1765564Y751852D01*
X1765842Y751242D01*
X1766175Y750576D01*
X1766452Y749855D01*
X1766674Y749022D01*
X1766952Y748189D01*
X1767118Y747246D01*
X1767285Y746247D01*
X1767340Y746358D01*
X1767451Y746580D01*
X1767673Y746913D01*
X1767895Y747357D01*
X1768506Y748356D01*
X1768894Y748856D01*
X1769227Y749299D01*
X1769338Y749410D01*
X1769616Y749688D01*
X1770060Y750132D01*
X1770615Y750687D01*
X1771392Y751298D01*
X1772224Y752019D01*
X1773223Y752740D01*
X1774333Y753518D01*
X1784767Y760122D01*
Y753795D01*
D02*
G37*
G36*
X2055118Y816298D02*
X2055063D01*
X2054841D01*
X2054508D01*
X2054064Y816354D01*
X2053564Y816409D01*
X2053009Y816520D01*
X2052454Y816631D01*
X2051844Y816853D01*
X2051788D01*
X2051733Y816909D01*
X2051400Y817020D01*
X2050900Y817242D01*
X2050234Y817575D01*
X2049457Y818019D01*
X2048569Y818574D01*
X2047681Y819184D01*
X2046738Y819961D01*
X2046682D01*
X2046627Y820072D01*
X2046294Y820350D01*
X2045794Y820849D01*
X2045073Y821571D01*
X2044240Y822403D01*
X2043241Y823458D01*
X2042131Y824734D01*
X2040966Y826122D01*
X2040910Y826177D01*
X2040744Y826399D01*
X2040466Y826732D01*
X2040133Y827121D01*
X2039689Y827620D01*
X2039190Y828231D01*
X2038635Y828841D01*
X2038024Y829563D01*
X2036692Y830950D01*
X2035360Y832338D01*
X2034694Y833004D01*
X2034028Y833614D01*
X2033418Y834169D01*
X2032807Y834613D01*
X2032752D01*
X2032696Y834724D01*
X2032530Y834835D01*
X2032308Y834946D01*
X2031697Y835335D01*
X2030976Y835779D01*
X2030088Y836167D01*
X2029144Y836556D01*
X2028090Y836778D01*
X2027091Y836889D01*
X2027035D01*
X2026980D01*
X2026647Y836833D01*
X2026092Y836778D01*
X2025481Y836611D01*
X2024704Y836389D01*
X2023927Y836001D01*
X2023150Y835501D01*
X2022373Y834835D01*
X2022262Y834724D01*
X2022040Y834447D01*
X2021763Y834058D01*
X2021374Y833448D01*
X2021041Y832671D01*
X2020708Y831783D01*
X2020486Y830728D01*
X2020431Y829563D01*
Y829230D01*
X2020486Y829008D01*
X2020542Y828342D01*
X2020708Y827565D01*
X2020930Y826732D01*
X2021319Y825789D01*
X2021818Y824901D01*
X2022484Y824068D01*
X2022595Y823957D01*
X2022873Y823735D01*
X2023317Y823402D01*
X2023983Y823069D01*
X2024760Y822681D01*
X2025759Y822348D01*
X2026869Y822126D01*
X2028145Y822015D01*
X2027646Y817186D01*
X2027590D01*
X2027424Y817242D01*
X2027146D01*
X2026758Y817297D01*
X2026314Y817408D01*
X2025814Y817519D01*
X2025204Y817686D01*
X2024593Y817852D01*
X2023261Y818296D01*
X2021929Y818962D01*
X2021263Y819351D01*
X2020597Y819850D01*
X2019987Y820350D01*
X2019432Y820905D01*
X2019376Y820960D01*
X2019321Y821071D01*
X2019154Y821238D01*
X2018988Y821515D01*
X2018766Y821848D01*
X2018544Y822237D01*
X2018266Y822681D01*
X2017989Y823236D01*
X2017711Y823846D01*
X2017434Y824512D01*
X2017212Y825234D01*
X2016990Y826011D01*
X2016823Y826843D01*
X2016657Y827731D01*
X2016601Y828675D01*
X2016546Y829674D01*
Y830229D01*
X2016601Y830617D01*
X2016657Y831061D01*
X2016712Y831616D01*
X2016823Y832227D01*
X2016934Y832837D01*
X2017323Y834280D01*
X2017878Y835723D01*
X2018211Y836445D01*
X2018599Y837166D01*
X2019099Y837832D01*
X2019654Y838443D01*
X2019709Y838498D01*
X2019765Y838609D01*
X2019987Y838720D01*
X2020209Y838942D01*
X2020486Y839220D01*
X2020875Y839497D01*
X2021263Y839775D01*
X2021763Y840108D01*
X2022817Y840663D01*
X2024149Y841218D01*
X2024815Y841440D01*
X2025592Y841551D01*
X2026369Y841662D01*
X2027202Y841717D01*
X2027313D01*
X2027590D01*
X2028034Y841662D01*
X2028645Y841606D01*
X2029311Y841495D01*
X2030088Y841273D01*
X2030920Y841051D01*
X2031753Y840718D01*
X2031864Y840663D01*
X2032141Y840552D01*
X2032585Y840330D01*
X2033196Y839997D01*
X2033862Y839553D01*
X2034694Y838998D01*
X2035527Y838332D01*
X2036470Y837555D01*
X2036581Y837444D01*
X2036914Y837166D01*
X2037192Y836889D01*
X2037469Y836611D01*
X2037802Y836278D01*
X2038246Y835834D01*
X2038690Y835390D01*
X2039190Y834835D01*
X2039745Y834280D01*
X2040355Y833614D01*
X2040966Y832893D01*
X2041687Y832116D01*
X2042409Y831228D01*
X2043186Y830340D01*
X2043241Y830284D01*
X2043352Y830173D01*
X2043519Y829951D01*
X2043741Y829674D01*
X2044074Y829341D01*
X2044407Y828952D01*
X2045128Y828064D01*
X2045961Y827121D01*
X2046793Y826233D01*
X2047515Y825456D01*
X2047792Y825123D01*
X2048070Y824845D01*
X2048125Y824790D01*
X2048292Y824623D01*
X2048514Y824401D01*
X2048847Y824124D01*
X2049235Y823846D01*
X2049624Y823513D01*
X2050567Y822847D01*
Y841773D01*
X2055118D01*
Y816298D01*
D02*
G37*
G36*
Y799315D02*
Y793987D01*
X2016712Y779113D01*
Y784663D01*
X2044629Y794653D01*
X2044684D01*
X2044795Y794709D01*
X2044962Y794764D01*
X2045184Y794875D01*
X2045517Y794931D01*
X2045850Y795042D01*
X2046682Y795319D01*
X2047626Y795652D01*
X2048680Y795985D01*
X2050900Y796651D01*
X2050845D01*
X2050734Y796707D01*
X2050567Y796762D01*
X2050345Y796818D01*
X2049735Y796984D01*
X2048902Y797262D01*
X2047959Y797539D01*
X2046904Y797872D01*
X2045794Y798261D01*
X2044629Y798705D01*
X2016712Y809139D01*
Y814300D01*
X2055118Y799315D01*
D02*
G37*
G36*
Y764350D02*
X2025093D01*
X2025148Y764295D01*
X2025370Y764017D01*
X2025703Y763684D01*
X2026092Y763129D01*
X2026591Y762519D01*
X2027146Y761742D01*
X2027757Y760854D01*
X2028367Y759855D01*
Y759799D01*
X2028423Y759744D01*
X2028645Y759411D01*
X2028922Y758856D01*
X2029255Y758190D01*
X2029644Y757413D01*
X2030032Y756580D01*
X2030421Y755748D01*
X2030754Y754915D01*
X2026203D01*
Y754971D01*
X2026092Y755082D01*
X2026036Y755304D01*
X2025870Y755581D01*
X2025703Y755914D01*
X2025481Y756303D01*
X2024926Y757246D01*
X2024316Y758356D01*
X2023539Y759466D01*
X2022651Y760632D01*
X2021707Y761797D01*
X2021652Y761853D01*
X2021596Y761908D01*
X2021430Y762075D01*
X2021263Y762297D01*
X2020708Y762796D01*
X2020042Y763462D01*
X2019265Y764128D01*
X2018377Y764850D01*
X2017489Y765460D01*
X2016546Y766015D01*
Y769068D01*
X2055118D01*
Y764350D01*
D02*
G37*
G36*
Y741984D02*
X2047126Y736933D01*
X2047071D01*
X2046960Y736822D01*
X2046793Y736711D01*
X2046571Y736545D01*
X2045961Y736156D01*
X2045184Y735657D01*
X2044351Y735046D01*
X2043463Y734436D01*
X2042631Y733825D01*
X2041854Y733270D01*
X2041798Y733215D01*
X2041576Y733048D01*
X2041243Y732771D01*
X2040855Y732382D01*
X2040022Y731550D01*
X2039634Y731106D01*
X2039301Y730662D01*
X2039245Y730606D01*
X2039190Y730495D01*
X2039079Y730273D01*
X2038912Y729940D01*
X2038746Y729607D01*
X2038579Y729219D01*
X2038302Y728331D01*
Y728275D01*
X2038246Y728164D01*
Y727942D01*
X2038191Y727665D01*
X2038135Y727276D01*
Y726832D01*
X2038080Y726222D01*
Y719673D01*
X2055118D01*
Y714567D01*
X2016712D01*
Y732382D01*
X2016768Y732826D01*
Y733326D01*
X2016823Y734491D01*
X2016990Y735712D01*
X2017156Y737044D01*
X2017434Y738265D01*
X2017600Y738876D01*
X2017767Y739375D01*
Y739431D01*
X2017822Y739486D01*
X2017989Y739819D01*
X2018211Y740319D01*
X2018599Y740929D01*
X2019099Y741595D01*
X2019765Y742317D01*
X2020542Y742983D01*
X2021430Y743649D01*
X2021485D01*
X2021541Y743704D01*
X2021874Y743926D01*
X2022429Y744148D01*
X2023150Y744481D01*
X2023983Y744759D01*
X2024982Y745036D01*
X2026036Y745203D01*
X2027202Y745258D01*
X2027257D01*
X2027368D01*
X2027590D01*
X2027868Y745203D01*
X2028256D01*
X2028645Y745147D01*
X2029588Y744925D01*
X2030698Y744592D01*
X2031864Y744148D01*
X2033029Y743482D01*
X2033584Y743038D01*
X2034139Y742594D01*
X2034195Y742539D01*
X2034250Y742483D01*
X2034417Y742317D01*
X2034583Y742095D01*
X2034805Y741817D01*
X2035027Y741484D01*
X2035305Y741040D01*
X2035638Y740596D01*
X2035915Y740041D01*
X2036193Y739431D01*
X2036526Y738765D01*
X2036803Y738043D01*
X2037025Y737211D01*
X2037303Y736378D01*
X2037469Y735435D01*
X2037636Y734436D01*
X2037691Y734547D01*
X2037802Y734769D01*
X2038024Y735102D01*
X2038246Y735546D01*
X2038857Y736545D01*
X2039245Y737044D01*
X2039578Y737488D01*
X2039689Y737599D01*
X2039967Y737877D01*
X2040411Y738321D01*
X2040966Y738876D01*
X2041743Y739486D01*
X2042575Y740208D01*
X2043574Y740929D01*
X2044684Y741706D01*
X2055118Y748311D01*
Y741984D01*
D02*
G37*
%LPC*%
G36*
X1756906Y751852D02*
X1756851D01*
X1756795D01*
X1756462Y751797D01*
X1755963Y751741D01*
X1755297Y751630D01*
X1754631Y751353D01*
X1753854Y751020D01*
X1753132Y750520D01*
X1752411Y749855D01*
X1752355Y749744D01*
X1752133Y749466D01*
X1751856Y749022D01*
X1751523Y748301D01*
X1751190Y747468D01*
X1750912Y746358D01*
X1750690Y745082D01*
X1750635Y743583D01*
Y731484D01*
X1763344D01*
Y742917D01*
X1763289Y743583D01*
X1763233Y744360D01*
X1763178Y745248D01*
X1763067Y746136D01*
X1762900Y747024D01*
X1762678Y747801D01*
X1762623Y747912D01*
X1762512Y748134D01*
X1762345Y748467D01*
X1762123Y748911D01*
X1761790Y749410D01*
X1761402Y749910D01*
X1760902Y750409D01*
X1760347Y750798D01*
X1760292Y750854D01*
X1760070Y750965D01*
X1759737Y751131D01*
X1759293Y751353D01*
X1758793Y751519D01*
X1758238Y751686D01*
X1757572Y751797D01*
X1756906Y751852D01*
D02*
G37*
G36*
X2027257Y740041D02*
X2027202D01*
X2027146D01*
X2026813Y739986D01*
X2026314Y739930D01*
X2025648Y739819D01*
X2024982Y739542D01*
X2024205Y739209D01*
X2023483Y738709D01*
X2022762Y738043D01*
X2022706Y737932D01*
X2022484Y737655D01*
X2022207Y737211D01*
X2021874Y736489D01*
X2021541Y735657D01*
X2021263Y734547D01*
X2021041Y733270D01*
X2020986Y731772D01*
Y719673D01*
X2033695D01*
Y731106D01*
X2033640Y731772D01*
X2033584Y732549D01*
X2033529Y733437D01*
X2033418Y734325D01*
X2033251Y735213D01*
X2033029Y735990D01*
X2032974Y736101D01*
X2032863Y736323D01*
X2032696Y736656D01*
X2032474Y737100D01*
X2032141Y737599D01*
X2031753Y738099D01*
X2031253Y738598D01*
X2030698Y738987D01*
X2030643Y739042D01*
X2030421Y739153D01*
X2030088Y739320D01*
X2029644Y739542D01*
X2029144Y739708D01*
X2028589Y739875D01*
X2027923Y739986D01*
X2027257Y740041D01*
D02*
G37*
%LPD*%
D39*
X3137008Y2734252D02*
G03*
X3137008Y2734252I-1968J0D01*
G01*
X2278543Y1811024D02*
G03*
X2278543Y1811024I-1968J0D01*
G01*
X737008Y2734252D02*
G03*
X737008Y2734252I-1968J0D01*
G01*
X1621063Y1252953D02*
X1686024D01*
X1621063Y1187992D02*
X1686024D01*
X2439075Y1118401D02*
Y1171867D01*
X2632185D01*
Y1118401D02*
Y1171867D01*
X2439075Y1118401D02*
X2632185D01*
X2270669Y853346D02*
X2335630D01*
X2270669Y918307D02*
X2335630D01*
X2546260Y873032D02*
X2611221D01*
X2546260Y937992D02*
X2611221D01*
X2238189Y1407480D02*
Y1472441D01*
X2303150Y1407480D02*
Y1472441D01*
X1033094Y2010213D02*
Y2124630D01*
X944268Y2010213D02*
Y2124630D01*
X1088583Y2047244D02*
X1135827D01*
X1149606Y1931102D02*
Y2045276D01*
Y1931102D02*
X1173228D01*
Y2045276D01*
X1149606D02*
X1173228D01*
X2350394Y1185039D02*
Y1255906D01*
X2295276Y1185039D02*
X2295276D01*
X2350394D02*
X2350394D01*
X2295276D02*
Y1255906D01*
X2295276D01*
X2350394D02*
X2350394D01*
X2312992Y1151575D02*
X2332677D01*
X2322835Y1141732D02*
Y1161417D01*
X921260Y748032D02*
Y944882D01*
X1047244Y748032D02*
Y944882D01*
X921260D02*
X1047244D01*
X921260Y748032D02*
X1047244D01*
X1348032Y886614D02*
X1648032D01*
X1348032D02*
Y981496D01*
X1648032D01*
Y886614D02*
Y981496D01*
X1789961Y869882D02*
X2089961D01*
X1789961D02*
Y964764D01*
X2089961D01*
Y869882D02*
Y964764D01*
X1837598Y1542323D02*
Y1607283D01*
X1902559Y1542323D02*
Y1607283D01*
X2237205Y1585630D02*
Y1650591D01*
X2172244Y1585630D02*
Y1650591D01*
X2453740Y1581693D02*
Y1646654D01*
X2388780Y1581693D02*
Y1646654D01*
X2635827Y1374016D02*
Y1438976D01*
X2570866Y1374016D02*
Y1438976D01*
X1837598Y1876968D02*
Y1941929D01*
X1902559Y1876968D02*
Y1941929D01*
X918110Y1576378D02*
Y2396063D01*
X814173Y1576378D02*
X918110D01*
X814173D02*
Y2396063D01*
X918110D01*
X1574803Y1842520D02*
Y1893701D01*
X1576378Y1907480D02*
X1691339D01*
Y1911417D01*
X1576378D02*
X1691339D01*
X1576378Y1907480D02*
Y1911417D01*
X1318898Y1901575D02*
Y1952756D01*
X1320473Y1966535D02*
X1435433D01*
Y1970472D01*
X1320473D02*
X1435433D01*
X1320473Y1966535D02*
Y1970472D01*
X1110236Y1788386D02*
X1133858D01*
X1122047Y1776575D02*
Y1800197D01*
X1033465Y1446850D02*
X1050197D01*
X1193898D02*
X1210630D01*
Y1742126D01*
X1033465D02*
X1050197D01*
X1193898D02*
X1210630D01*
X1033465Y1446850D02*
Y1742126D01*
X1576378Y1604916D02*
X1605118D01*
X1576378Y1579326D02*
Y1604916D01*
X1662599D02*
X1691339D01*
Y1579326D02*
Y1604916D01*
X1340158Y1585231D02*
X1368898D01*
X1340158Y1559641D02*
Y1585231D01*
X1426378D02*
X1455118D01*
Y1559641D02*
Y1585231D01*
D40*
X2465551Y979851D02*
G03*
X2465551Y979851I-4921J0D01*
G01*
X877953Y955905D02*
G03*
X877953Y955905I-4921J0D01*
G01*
X871063Y2419685D02*
G03*
X871063Y2419685I-4921J0D01*
G01*
D41*
X972441Y905512D02*
G03*
X972441Y905512I-11811J0D01*
G01*
D42*
X1668898Y934055D02*
G03*
X1664961Y934055I-1968J0D01*
G01*
D02*
G03*
X1668898Y934055I1968J0D01*
G01*
X2110827Y917323D02*
G03*
X2106890Y917323I-1968J0D01*
G01*
D02*
G03*
X2110827Y917323I1968J0D01*
G01*
X2918701Y891339D02*
Y2781102D01*
X3113583D01*
Y891339D02*
Y2781102D01*
X2918701Y891339D02*
X3113583D01*
X518701D02*
Y2781102D01*
X713583D01*
Y891339D02*
Y2781102D01*
X518701Y891339D02*
X713583D01*
X959743Y2181679D02*
X955807Y2185614D01*
X947936D01*
X944000Y2181679D01*
Y2165936D01*
X947936Y2162000D01*
X955807D01*
X959743Y2165936D01*
X967614Y2162000D02*
X975486D01*
X971550D01*
Y2185614D01*
X967614Y2181679D01*
X1131902Y2135823D02*
Y2112209D01*
X1147645D01*
X1155517Y2135823D02*
Y2112209D01*
X1167324D01*
X1171260Y2116144D01*
Y2131887D01*
X1167324Y2135823D01*
X1155517D01*
X1190938D02*
X1183067D01*
X1179131Y2131887D01*
Y2116144D01*
X1183067Y2112209D01*
X1190938D01*
X1194874Y2116144D01*
Y2131887D01*
X1190938Y2135823D01*
X1202746Y2112209D02*
X1210617D01*
X1206681D01*
Y2135823D01*
X1202746Y2131887D01*
D43*
X1425197Y-240157D02*
Y-3937D01*
X783465Y-240157D02*
X1425197D01*
X783465D02*
Y-3937D01*
X498031D02*
Y492913D01*
Y-3937D02*
X1715354D01*
Y492913D01*
X498031D02*
X1715354D01*
X1994882D02*
X3212205D01*
Y-3937D02*
Y492913D01*
X1994882Y-3937D02*
X3212205D01*
X1994882D02*
Y492913D01*
X2280315Y-240157D02*
Y-3937D01*
Y-240157D02*
X2922047D01*
Y-3937D01*
D44*
X1003937Y2185039D02*
Y2933071D01*
Y2185039D02*
X2618110D01*
Y2933071D01*
X2919987Y2918981D02*
X2899994D01*
X2909990D01*
Y2868997D01*
X2899994Y2859000D01*
X2889997D01*
X2880000Y2868997D01*
X2939981Y2859000D02*
X2959974D01*
X2949977D01*
Y2918981D01*
X2939981Y2908984D01*
X1767100Y1338120D02*
Y1398101D01*
X1797090D01*
X1807087Y1388104D01*
Y1368110D01*
X1797090Y1358113D01*
X1767100D01*
X1787093D02*
X1807087Y1338120D01*
X1827080D02*
X1847074D01*
X1837077D01*
Y1398101D01*
X1827080Y1388104D01*
X519987Y2918981D02*
X499993D01*
X509990D01*
Y2868997D01*
X499993Y2859000D01*
X489997D01*
X480000Y2868997D01*
X579968Y2859000D02*
X539981D01*
X579968Y2898987D01*
Y2908984D01*
X569971Y2918981D01*
X549977D01*
X539981Y2908984D01*
X1573000Y2076981D02*
X1612987D01*
X1592994D01*
Y2017000D01*
X1632981D02*
X1652974D01*
X1642977D01*
Y2076981D01*
X1632981Y2066984D01*
X1573000Y1748981D02*
X1612987D01*
X1592994D01*
Y1689000D01*
X1662971D02*
Y1748981D01*
X1632981Y1718990D01*
X1672968D01*
X1336000Y1728981D02*
X1375987D01*
X1355994D01*
Y1669000D01*
X1395981Y1718984D02*
X1405977Y1728981D01*
X1425971D01*
X1435968Y1718984D01*
Y1708987D01*
X1425971Y1698990D01*
X1415974D01*
X1425971D01*
X1435968Y1688994D01*
Y1678997D01*
X1425971Y1669000D01*
X1405977D01*
X1395981Y1678997D01*
X1317000Y2135981D02*
X1356987D01*
X1336994D01*
Y2076000D01*
X1416968D02*
X1376981D01*
X1416968Y2115987D01*
Y2125984D01*
X1406971Y2135981D01*
X1386977D01*
X1376981Y2125984D01*
X2580922Y754458D02*
Y814439D01*
X2610912D01*
X2620909Y804442D01*
Y784449D01*
X2610912Y774452D01*
X2580922D01*
X2600915D02*
X2620909Y754458D01*
X2640902Y804442D02*
X2650899Y814439D01*
X2670893D01*
X2680889Y804442D01*
Y794446D01*
X2670893Y784449D01*
X2680889Y774452D01*
Y764455D01*
X2670893Y754458D01*
X2650899D01*
X2640902Y764455D01*
Y774452D01*
X2650899Y784449D01*
X2640902Y794446D01*
Y804442D01*
X2650899Y784449D02*
X2670893D01*
X2291552Y953277D02*
Y1013258D01*
X2321542D01*
X2331539Y1003261D01*
Y983268D01*
X2321542Y973271D01*
X2291552D01*
X2311545D02*
X2331539Y953277D01*
X2351532Y1003261D02*
X2361529Y1013258D01*
X2381523D01*
X2391519Y1003261D01*
Y993264D01*
X2381523Y983268D01*
X2371526D01*
X2381523D01*
X2391519Y973271D01*
Y963274D01*
X2381523Y953277D01*
X2361529D01*
X2351532Y963274D01*
X2339075Y1533304D02*
X2279095Y1533280D01*
X2279083Y1563270D01*
X2289075Y1573271D01*
X2309069Y1573279D01*
X2319070Y1563286D01*
X2319082Y1533296D01*
X2319074Y1553290D02*
X2339059Y1573291D01*
X2339051Y1593284D02*
X2339043Y1613278D01*
X2339047Y1603281D01*
X2279067Y1603257D01*
X2289068Y1593265D01*
X2289048Y1643248D02*
X2279047Y1653241D01*
X2279039Y1673235D01*
X2289032Y1683236D01*
X2329019Y1683251D01*
X2339020Y1673259D01*
X2339028Y1653265D01*
X2329035Y1643264D01*
X2289048Y1643248D01*
X2577000Y1499000D02*
Y1558981D01*
X2606990D01*
X2616987Y1548984D01*
Y1528990D01*
X2606990Y1518994D01*
X2577000D01*
X2596994D02*
X2616987Y1499000D01*
X2666971D02*
Y1558981D01*
X2636981Y1528990D01*
X2676968D01*
X2178000Y1711000D02*
Y1770981D01*
X2207990D01*
X2217987Y1760984D01*
Y1740990D01*
X2207990Y1730994D01*
X2178000D01*
X2197994D02*
X2217987Y1711000D01*
X2237981Y1770981D02*
X2277968D01*
Y1760984D01*
X2237981Y1720997D01*
Y1711000D01*
X2395000Y1707000D02*
Y1766981D01*
X2424990D01*
X2434987Y1756984D01*
Y1736990D01*
X2424990Y1726994D01*
X2395000D01*
X2414994D02*
X2434987Y1707000D01*
X2494968Y1766981D02*
X2454981D01*
Y1736990D01*
X2474974Y1746987D01*
X2484971D01*
X2494968Y1736990D01*
Y1716997D01*
X2484971Y1707000D01*
X2464977D01*
X2454981Y1716997D01*
X1844000Y1668000D02*
Y1727981D01*
X1873990D01*
X1883987Y1717984D01*
Y1697990D01*
X1873990Y1687994D01*
X1844000D01*
X1863994D02*
X1883987Y1668000D01*
X1903981Y1677997D02*
X1913977Y1668000D01*
X1933971D01*
X1943968Y1677997D01*
Y1717984D01*
X1933971Y1727981D01*
X1913977D01*
X1903981Y1717984D01*
Y1707987D01*
X1913977Y1697990D01*
X1943968D01*
X1844000Y2002000D02*
Y2061981D01*
X1873990D01*
X1883987Y2051984D01*
Y2031990D01*
X1873990Y2021994D01*
X1844000D01*
X1863994D02*
X1883987Y2002000D01*
X1943968D02*
X1903981D01*
X1943968Y2041987D01*
Y2051984D01*
X1933971Y2061981D01*
X1913977D01*
X1903981Y2051984D01*
X2261000Y1897000D02*
Y1956981D01*
X2290990D01*
X2300987Y1946984D01*
Y1926990D01*
X2290990Y1916994D01*
X2261000D01*
X2280994D02*
X2300987Y1897000D01*
X2360968Y1956981D02*
X2340974Y1946984D01*
X2320981Y1926990D01*
Y1906997D01*
X2330977Y1897000D01*
X2350971D01*
X2360968Y1906997D01*
Y1916994D01*
X2350971Y1926990D01*
X2320981D01*
X1798987Y1095981D02*
X1778994D01*
X1788990D01*
Y1045997D01*
X1778994Y1036000D01*
X1768997D01*
X1759000Y1045997D01*
X1858968Y1095981D02*
X1818981D01*
Y1065990D01*
X1838974Y1075987D01*
X1848971D01*
X1858968Y1065990D01*
Y1045997D01*
X1848971Y1036000D01*
X1828977D01*
X1818981Y1045997D01*
X1356987Y1112981D02*
X1336994D01*
X1346990D01*
Y1062997D01*
X1336994Y1053000D01*
X1326997D01*
X1317000Y1062997D01*
X1406971Y1053000D02*
Y1112981D01*
X1376981Y1082990D01*
X1416968D01*
X855987Y2519981D02*
X835994D01*
X845990D01*
Y2469997D01*
X835994Y2460000D01*
X825997D01*
X816000Y2469997D01*
X875981Y2509984D02*
X885977Y2519981D01*
X905971D01*
X915968Y2509984D01*
Y2499987D01*
X905971Y2489990D01*
X895974D01*
X905971D01*
X915968Y2479994D01*
Y2469997D01*
X905971Y2460000D01*
X885977D01*
X875981Y2469997D01*
X2420257Y1439439D02*
X2440251D01*
X2430254D01*
Y1379458D01*
X2420257D01*
X2440251D01*
X2510228Y1429442D02*
X2500231Y1439439D01*
X2480238D01*
X2470241Y1429442D01*
Y1389455D01*
X2480238Y1379458D01*
X2500231D01*
X2510228Y1389455D01*
X2530222Y1379458D02*
X2550215D01*
X2540218D01*
Y1439439D01*
X2530222Y1429442D01*
X482236Y602295D02*
Y542315D01*
X512226D01*
X522223Y552312D01*
Y592299D01*
X512226Y602295D01*
X482236D01*
X582204Y542315D02*
X542217D01*
X582204Y582302D01*
Y592299D01*
X572207Y602295D01*
X552213D01*
X542217Y592299D01*
X1979236Y602295D02*
Y542315D01*
X2009226D01*
X2019223Y552312D01*
Y592299D01*
X2009226Y602295D01*
X1979236D01*
X2039217Y542315D02*
X2059210D01*
X2049213D01*
Y602295D01*
X2039217Y592299D01*
X1075987Y1883984D02*
X1065990Y1893981D01*
X1045997D01*
X1036000Y1883984D01*
Y1843997D01*
X1045997Y1834000D01*
X1065990D01*
X1075987Y1843997D01*
X1135968Y1834000D02*
X1095981D01*
X1135968Y1873987D01*
Y1883984D01*
X1125971Y1893981D01*
X1105977D01*
X1095981Y1883984D01*
X2343848Y1343705D02*
X2340991Y1349418D01*
X2335278Y1355131D01*
X2329565Y1357987D01*
X2318139D01*
X2312426Y1355131D01*
X2306713Y1349418D01*
X2303856Y1343705D01*
X2301000Y1335135D01*
Y1320852D01*
X2303856Y1312283D01*
X2306713Y1306570D01*
X2312426Y1300857D01*
X2318139Y1298000D01*
X2329565D01*
X2335278Y1300857D01*
X2340991Y1306570D01*
X2343848Y1312283D01*
X2366415Y1357987D02*
X2397836D01*
X2380697Y1335135D01*
X2389267D01*
X2394980Y1332278D01*
X2397836Y1329422D01*
X2400693Y1320852D01*
Y1315139D01*
X2397836Y1306570D01*
X2392123Y1300857D01*
X2383554Y1298000D01*
X2374984D01*
X2366415Y1300857D01*
X2363558Y1303713D01*
X2360702Y1309426D01*
X770000Y896000D02*
X789994D01*
X779997D01*
Y955981D01*
X770000Y945984D01*
%TF.MD5,61cb007bb12286d736701bc6b3c8d3e3*%
M02*
