%TF.GenerationSoftware,Altium Limited,Altium Designer,21.7.2 (23)*%
G04 Layer_Color=32896*
%FSLAX26Y26*%
%MOIN*%
%TF.SameCoordinates,89F72506-9554-4F55-AE3A-9D847A2FA82F*%
%TF.FilePolarity,Positive*%
%TF.FileFunction,Other,Top_Courtyard*%
%TF.Part,Single*%
G01*
G75*
%TA.AperFunction,NonConductor*%
%ADD39C,0.007874*%
D39*
X1594488Y1242126D02*
X1712598D01*
Y1198819D02*
Y1242126D01*
X1594488Y1198819D02*
X1712598D01*
X1594488D02*
Y1242126D01*
X2419390Y981820D02*
Y1308448D01*
X2651870D01*
Y981820D02*
Y1308448D01*
X2419390Y981820D02*
X2651870D01*
X2244095Y864173D02*
Y907480D01*
Y864173D02*
X2362205D01*
Y907480D01*
X2244095D02*
X2362205D01*
X2519685Y883858D02*
Y927165D01*
Y883858D02*
X2637795D01*
Y927165D01*
X2519685D02*
X2637795D01*
X2249016Y1499016D02*
X2292323D01*
X2249016Y1380906D02*
Y1499016D01*
Y1380906D02*
X2292323D01*
Y1499016D01*
X950173Y2134472D02*
X1027189D01*
X950173Y2000370D02*
Y2134472D01*
Y2000370D02*
X1027189D01*
Y2134472D01*
X2347441Y1177165D02*
Y1263780D01*
X2298229Y1177165D02*
X2347441D01*
X2298229D02*
Y1263780D01*
X2347441D01*
X1848425Y1515748D02*
Y1633858D01*
X1891732D01*
Y1515748D02*
Y1633858D01*
X1848425Y1515748D02*
X1891732D01*
X2226378Y1559055D02*
Y1677165D01*
X2183071Y1559055D02*
X2226378D01*
X2183071D02*
Y1677165D01*
X2226378D01*
X2442914Y1555118D02*
Y1673228D01*
X2399606Y1555118D02*
X2442914D01*
X2399606D02*
Y1673228D01*
X2442914D01*
X2625000Y1347441D02*
Y1465551D01*
X2581693Y1347441D02*
X2625000D01*
X2581693D02*
Y1465551D01*
X2625000D01*
X1848425Y1850394D02*
Y1968504D01*
X1891732D01*
Y1850394D02*
Y1968504D01*
X1848425Y1850394D02*
X1891732D01*
X922047Y1572441D02*
Y2400000D01*
X810236Y1572441D02*
X922047D01*
X810236D02*
Y2400000D01*
X922047D01*
X1029527Y1423228D02*
X1214567D01*
Y1765748D01*
X1029527D02*
X1214567D01*
X1029527Y1423228D02*
Y1765748D01*
X1566535Y1503644D02*
X1701181D01*
Y1655007D01*
X1566535D02*
X1701181D01*
X1566535Y1503644D02*
Y1655007D01*
X1330315Y1483959D02*
X1464961D01*
Y1635322D01*
X1330315D02*
X1464961D01*
X1330315Y1483959D02*
Y1635322D01*
%TF.MD5,d924615d50bf44bab2bc32ba8ba4194c*%
M02*
