%TF.GenerationSoftware,Altium Limited,Altium Designer,21.7.2 (23)*%
G04 Layer_Color=32768*
%FSLAX26Y26*%
%MOIN*%
%TF.SameCoordinates,89F72506-9554-4F55-AE3A-9D847A2FA82F*%
%TF.FilePolarity,Positive*%
%TF.FileFunction,Other,Mechanical_15*%
%TF.Part,Single*%
G01*
G75*
%TA.AperFunction,NonConductor*%
%ADD39C,0.007874*%
%ADD42C,0.003937*%
%ADD49C,0.001968*%
D39*
X2918701Y891339D02*
Y2781102D01*
X3113583D01*
Y891339D02*
Y2781102D01*
X2918701Y891339D02*
X3113583D01*
X2291338Y1795276D02*
Y1826772D01*
Y1795276D02*
X2354331D01*
Y1826772D01*
X2291338D02*
X2354331D01*
X518701Y891339D02*
Y2781102D01*
X713583D01*
Y891339D02*
Y2781102D01*
X518701Y891339D02*
X713583D01*
D42*
X1129921Y2007874D02*
X1167323Y2045276D01*
X1129921Y1931102D02*
Y2045276D01*
Y1931102D02*
X1192913D01*
Y2045276D01*
X1129921D02*
X1192913D01*
X964567Y846457D02*
X1003937D01*
X984252Y826772D02*
Y866142D01*
X1348032Y886614D02*
X1648032D01*
X1348032D02*
Y981496D01*
X1648032D01*
Y886614D02*
Y981496D01*
X1789961Y869882D02*
X2089961D01*
X1789961D02*
Y964764D01*
X2089961D01*
Y869882D02*
Y964764D01*
X1576378Y1921260D02*
X1613780Y1883858D01*
X1576378D02*
X1691339D01*
Y1935039D01*
X1576378D02*
X1691339D01*
X1576378Y1883858D02*
Y1935039D01*
X1320473Y1980315D02*
X1357874Y1942913D01*
X1320473D02*
X1435433D01*
Y1994094D01*
X1320473D02*
X1435433D01*
X1320473Y1942913D02*
Y1994094D01*
D49*
X820866Y728346D02*
Y964567D01*
X1147638Y728346D02*
Y964567D01*
X820866D02*
X1147638D01*
X820866Y728346D02*
X1147638D01*
%TF.MD5,9c6a6ca0c5baaa1bde8967cfb5864d79*%
M02*
