%TF.GenerationSoftware,Altium Limited,Altium Designer,21.7.2 (23)*%
G04 Layer_Color=8388736*
%FSLAX26Y26*%
%MOIN*%
%TF.SameCoordinates,89F72506-9554-4F55-AE3A-9D847A2FA82F*%
%TF.FilePolarity,Negative*%
%TF.FileFunction,Soldermask,Top*%
%TF.Part,Single*%
G01*
G75*
%TA.AperFunction,SMDPad,CuDef*%
%ADD10R,0.039370X0.035433*%
%ADD11R,0.024493X0.097211*%
G04:AMPARAMS|DCode=12|XSize=97.211mil|YSize=24.493mil|CornerRadius=12.247mil|HoleSize=0mil|Usage=FLASHONLY|Rotation=90.000|XOffset=0mil|YOffset=0mil|HoleType=Round|Shape=RoundedRectangle|*
%AMROUNDEDRECTD12*
21,1,0.097211,0.000000,0,0,90.0*
21,1,0.072718,0.024493,0,0,90.0*
1,1,0.024493,0.000000,0.036359*
1,1,0.024493,0.000000,-0.036359*
1,1,0.024493,0.000000,-0.036359*
1,1,0.024493,0.000000,0.036359*
%
%ADD12ROUNDEDRECTD12*%
%ADD13R,0.035433X0.039370*%
%ADD14R,0.057331X0.054255*%
%ADD16R,0.025591X0.027559*%
%ADD20R,0.114173X0.094488*%
G04:AMPARAMS|DCode=21|XSize=61.982mil|YSize=22.671mil|CornerRadius=11.335mil|HoleSize=0mil|Usage=FLASHONLY|Rotation=90.000|XOffset=0mil|YOffset=0mil|HoleType=Round|Shape=RoundedRectangle|*
%AMROUNDEDRECTD21*
21,1,0.061982,0.000000,0,0,90.0*
21,1,0.039312,0.022671,0,0,90.0*
1,1,0.022670,0.000000,0.019656*
1,1,0.022670,0.000000,-0.019656*
1,1,0.022670,0.000000,-0.019656*
1,1,0.022670,0.000000,0.019656*
%
%ADD21ROUNDEDRECTD21*%
%ADD22R,0.022671X0.061982*%
%TA.AperFunction,ComponentPad*%
%ADD30C,0.061811*%
%ADD31R,0.061811X0.061811*%
%ADD33C,0.283465*%
%ADD34C,0.086614*%
%ADD35C,0.068898*%
%ADD36R,0.068110X0.068110*%
%ADD37C,0.068110*%
%TA.AperFunction,ViaPad*%
%ADD38C,0.047244*%
%TA.AperFunction,SMDPad,CuDef*%
%ADD45R,0.055118X0.031496*%
G04:AMPARAMS|DCode=46|XSize=33.465mil|YSize=72.835mil|CornerRadius=5.856mil|HoleSize=0mil|Usage=FLASHONLY|Rotation=90.000|XOffset=0mil|YOffset=0mil|HoleType=Round|Shape=RoundedRectangle|*
%AMROUNDEDRECTD46*
21,1,0.033465,0.061122,0,0,90.0*
21,1,0.021752,0.072835,0,0,90.0*
1,1,0.011713,0.030561,0.010876*
1,1,0.011713,0.030561,-0.010876*
1,1,0.011713,-0.030561,-0.010876*
1,1,0.011713,-0.030561,0.010876*
%
%ADD46ROUNDEDRECTD46*%
%ADD47R,0.033465X0.043307*%
%ADD48R,0.031496X0.059055*%
D10*
X1618110Y1220472D02*
D03*
X1688976D02*
D03*
X2338583Y885827D02*
D03*
X2267717D02*
D03*
X2614173Y905512D02*
D03*
X2543307D02*
D03*
D11*
X2460630Y1050110D02*
D03*
D12*
X2510630D02*
D03*
X2560630D02*
D03*
X2610630Y1240158D02*
D03*
X2560630D02*
D03*
X2510630D02*
D03*
X2460630D02*
D03*
X2610630Y1050110D02*
D03*
D13*
X2270669Y1404527D02*
D03*
Y1475394D02*
D03*
X1870079Y1539370D02*
D03*
Y1610236D02*
D03*
X2204724Y1653543D02*
D03*
Y1582677D02*
D03*
X2421260Y1649606D02*
D03*
Y1578740D02*
D03*
X2603347Y1441929D02*
D03*
Y1371063D02*
D03*
X1870079Y1874016D02*
D03*
Y1944882D02*
D03*
D14*
X988681Y2037340D02*
D03*
Y2097502D02*
D03*
D16*
X2322835Y1246063D02*
D03*
Y1194882D02*
D03*
D20*
X1122047Y1714567D02*
D03*
Y1474409D02*
D03*
D21*
X1633858Y1614173D02*
D03*
X1671260Y1544478D02*
D03*
X1397638Y1594488D02*
D03*
X1435039Y1524793D02*
D03*
D22*
X1596457Y1544478D02*
D03*
X1360236Y1524793D02*
D03*
D30*
X866142Y2236220D02*
D03*
Y2136220D02*
D03*
Y2036220D02*
D03*
Y1936220D02*
D03*
Y1836220D02*
D03*
Y1736220D02*
D03*
Y1636220D02*
D03*
D31*
Y2336220D02*
D03*
D33*
X1598425Y370866D02*
D03*
X614173D02*
D03*
X2111023D02*
D03*
X3095276D02*
D03*
D34*
X1268504Y314961D02*
D03*
X1160630D02*
D03*
X1052756D02*
D03*
X944882D02*
D03*
X1322441Y426772D02*
D03*
X1214567D02*
D03*
X1106693D02*
D03*
X998819D02*
D03*
X890945D02*
D03*
X2387795D02*
D03*
X2495669D02*
D03*
X2603543D02*
D03*
X2711417D02*
D03*
X2819291D02*
D03*
X2441732Y314961D02*
D03*
X2549606D02*
D03*
X2657480D02*
D03*
X2765354D02*
D03*
D35*
X3066142Y2736220D02*
D03*
X2966142D02*
D03*
X3066142Y2636220D02*
D03*
X2966142D02*
D03*
X3066142Y2536220D02*
D03*
X2966142D02*
D03*
X3066142Y2436220D02*
D03*
X2966142D02*
D03*
X3066142Y2336220D02*
D03*
X2966142D02*
D03*
Y2236220D02*
D03*
Y2136220D02*
D03*
X3066142Y2036220D02*
D03*
X2966142D02*
D03*
X3066142Y1936220D02*
D03*
X2966142D02*
D03*
X3066142Y1836220D02*
D03*
X2966142D02*
D03*
X3066142Y1736220D02*
D03*
X2966142D02*
D03*
X3066142Y1636220D02*
D03*
X2966142D02*
D03*
X3066142Y1536220D02*
D03*
X2966142D02*
D03*
X3066142Y1436220D02*
D03*
X2966142D02*
D03*
X3066142Y1336220D02*
D03*
X2966142D02*
D03*
X3066142Y1236220D02*
D03*
X2966142D02*
D03*
X3066142Y1136220D02*
D03*
X2966142D02*
D03*
X3066142Y1036220D02*
D03*
X2966142D02*
D03*
X3066142Y936221D02*
D03*
X2966142D02*
D03*
X3066142Y2236220D02*
D03*
Y2136220D02*
D03*
X666142Y2736220D02*
D03*
X566142D02*
D03*
X666142Y2636220D02*
D03*
X566142D02*
D03*
X666142Y2536220D02*
D03*
X566142D02*
D03*
X666142Y2436220D02*
D03*
X566142D02*
D03*
X666142Y2336220D02*
D03*
X566142D02*
D03*
X666142Y2236220D02*
D03*
X566142D02*
D03*
X666142Y2136220D02*
D03*
X566142D02*
D03*
X666142Y2036220D02*
D03*
X566142D02*
D03*
X666142Y1936220D02*
D03*
X566142D02*
D03*
X666142Y1836220D02*
D03*
X566142D02*
D03*
X666142Y1736220D02*
D03*
X566142D02*
D03*
X666142Y1636220D02*
D03*
X566142D02*
D03*
X666142Y1536220D02*
D03*
X566142D02*
D03*
X666142Y1436220D02*
D03*
X566142D02*
D03*
X666142Y1336220D02*
D03*
X566142D02*
D03*
X666142Y1236220D02*
D03*
X566142D02*
D03*
X666142Y1136220D02*
D03*
X566142D02*
D03*
X666142Y1036220D02*
D03*
X566142D02*
D03*
X666142Y936221D02*
D03*
X566142D02*
D03*
D36*
X1598032Y934055D02*
D03*
X2039961Y917323D02*
D03*
D37*
X1498032Y934055D02*
D03*
X1398032D02*
D03*
X1939961Y917323D02*
D03*
X1839961D02*
D03*
D38*
X1504921Y655512D02*
D03*
X2134843Y1530512D02*
D03*
X2457677Y1488189D02*
D03*
X1315945Y1171260D02*
D03*
X1387795Y1183071D02*
D03*
X1322835Y1441929D02*
D03*
X755905Y1078740D02*
D03*
X2414370Y921260D02*
D03*
X2297244Y522638D02*
D03*
X2749016Y567913D02*
D03*
X2782480Y669291D02*
D03*
X2218504Y665354D02*
D03*
Y557087D02*
D03*
X2289370Y1140748D02*
D03*
X2205709Y1160433D02*
D03*
X2187008Y1475394D02*
D03*
X2233268Y1322835D02*
D03*
X2113189Y1443898D02*
D03*
X1782297Y1236037D02*
D03*
X849409Y657480D02*
D03*
X1996063Y1929134D02*
D03*
X2036417Y1607284D02*
D03*
X990158Y1970472D02*
D03*
Y1886811D02*
D03*
D45*
X1210630Y2025591D02*
D03*
Y1950787D02*
D03*
X1112205D02*
D03*
Y1988189D02*
D03*
Y2025591D02*
D03*
D46*
X873032Y921457D02*
D03*
Y871457D02*
D03*
Y821457D02*
D03*
Y771457D02*
D03*
X1095472Y921457D02*
D03*
Y871457D02*
D03*
Y821457D02*
D03*
Y771457D02*
D03*
D47*
X2345472Y1811024D02*
D03*
X2300197D02*
D03*
D48*
X1633858Y1950787D02*
D03*
X1671260Y1868110D02*
D03*
X1596457D02*
D03*
X1377953Y2009842D02*
D03*
X1415354Y1927165D02*
D03*
X1340551D02*
D03*
%TF.MD5,7fba4a6f1b0fd3fe68b6bfdd89a93c0a*%
M02*
