%TF.GenerationSoftware,Altium Limited,Altium Designer,21.7.2 (23)*%
G04 Layer_Color=128*
%FSLAX26Y26*%
%MOIN*%
%TF.SameCoordinates,89F72506-9554-4F55-AE3A-9D847A2FA82F*%
%TF.FilePolarity,Positive*%
%TF.FileFunction,Drillmap*%
%TF.Part,Single*%
G01*
G75*
%TA.AperFunction,NonConductor*%
%ADD58C,0.005000*%
D58*
X1535433Y370866D02*
X1661417D01*
X1598425Y307874D02*
Y433858D01*
X551181Y370866D02*
X677165D01*
X614173Y307874D02*
Y433858D01*
X2048031Y370866D02*
X2174016D01*
X2111023Y307874D02*
Y433858D01*
X3032283Y370866D02*
X3158268D01*
X3095276Y307874D02*
Y433858D01*
X1247834Y314961D02*
X1289173D01*
X1268504Y294291D02*
Y335630D01*
X1139960Y314961D02*
X1181299D01*
X1160630Y294291D02*
Y335630D01*
X1032086Y314961D02*
X1073425D01*
X1052756Y294291D02*
Y335630D01*
X924212Y314961D02*
X965551D01*
X944882Y294291D02*
Y335630D01*
X1301772Y426772D02*
X1343110D01*
X1322441Y406102D02*
Y447441D01*
X1193898Y426772D02*
X1235236D01*
X1214567Y406102D02*
Y447441D01*
X1086024Y426772D02*
X1127362D01*
X1106693Y406102D02*
Y447441D01*
X978149Y426772D02*
X1019488D01*
X998819Y406102D02*
Y447441D01*
X870275Y426772D02*
X911614D01*
X890945Y406102D02*
Y447441D01*
X3046063Y2736220D02*
X3086220D01*
X3066142Y2716142D02*
Y2756299D01*
X2946063Y2736220D02*
X2986220D01*
X2966142Y2716142D02*
Y2756299D01*
X3046063Y2636220D02*
X3086220D01*
X3066142Y2616142D02*
Y2656299D01*
X2946063Y2636220D02*
X2986220D01*
X2966142Y2616142D02*
Y2656299D01*
X3046063Y2536220D02*
X3086220D01*
X3066142Y2516142D02*
Y2556299D01*
X2946063Y2536220D02*
X2986220D01*
X2966142Y2516142D02*
Y2556299D01*
X3046063Y2436220D02*
X3086220D01*
X3066142Y2416142D02*
Y2456299D01*
X2946063Y2436220D02*
X2986220D01*
X2966142Y2416142D02*
Y2456299D01*
X3046063Y2336220D02*
X3086220D01*
X3066142Y2316142D02*
Y2356299D01*
X2946063Y2336220D02*
X2986220D01*
X2966142Y2316142D02*
Y2356299D01*
X2946063Y2236220D02*
X2986220D01*
X2966142Y2216142D02*
Y2256299D01*
X2946063Y2136220D02*
X2986220D01*
X2966142Y2116142D02*
Y2156299D01*
X3046063Y2036220D02*
X3086220D01*
X3066142Y2016142D02*
Y2056299D01*
X2946063Y2036220D02*
X2986220D01*
X2966142Y2016142D02*
Y2056299D01*
X3046063Y1936220D02*
X3086220D01*
X3066142Y1916142D02*
Y1956299D01*
X2946063Y1936220D02*
X2986220D01*
X2966142Y1916142D02*
Y1956299D01*
X3046063Y1836220D02*
X3086220D01*
X3066142Y1816142D02*
Y1856299D01*
X2946063Y1836220D02*
X2986220D01*
X2966142Y1816142D02*
Y1856299D01*
X3046063Y1736220D02*
X3086220D01*
X3066142Y1716142D02*
Y1756299D01*
X2946063Y1736220D02*
X2986220D01*
X2966142Y1716142D02*
Y1756299D01*
X3046063Y1636220D02*
X3086220D01*
X3066142Y1616142D02*
Y1656299D01*
X2946063Y1636220D02*
X2986220D01*
X2966142Y1616142D02*
Y1656299D01*
X3046063Y1536220D02*
X3086220D01*
X3066142Y1516142D02*
Y1556299D01*
X2946063Y1536220D02*
X2986220D01*
X2966142Y1516142D02*
Y1556299D01*
X3046063Y1436220D02*
X3086220D01*
X3066142Y1416142D02*
Y1456299D01*
X2946063Y1436220D02*
X2986220D01*
X2966142Y1416142D02*
Y1456299D01*
X3046063Y1336220D02*
X3086220D01*
X3066142Y1316142D02*
Y1356299D01*
X2946063Y1336220D02*
X2986220D01*
X2966142Y1316142D02*
Y1356299D01*
X3046063Y1236220D02*
X3086220D01*
X3066142Y1216142D02*
Y1256299D01*
X2946063Y1236220D02*
X2986220D01*
X2966142Y1216142D02*
Y1256299D01*
X3046063Y1136220D02*
X3086220D01*
X3066142Y1116142D02*
Y1156299D01*
X2946063Y1136220D02*
X2986220D01*
X2966142Y1116142D02*
Y1156299D01*
X3046063Y1036220D02*
X3086220D01*
X3066142Y1016142D02*
Y1056299D01*
X2946063Y1036220D02*
X2986220D01*
X2966142Y1016142D02*
Y1056299D01*
X3046063Y936221D02*
X3086220D01*
X3066142Y916142D02*
Y956299D01*
X2946063Y936221D02*
X2986220D01*
X2966142Y916142D02*
Y956299D01*
X3046063Y2236220D02*
X3086220D01*
X3066142Y2216142D02*
Y2256299D01*
X3046063Y2136220D02*
X3086220D01*
X3066142Y2116142D02*
Y2156299D01*
X2367126Y426772D02*
X2408465D01*
X2387795Y406102D02*
Y447441D01*
X2475000Y426772D02*
X2516338D01*
X2495669Y406102D02*
Y447441D01*
X2582874Y426772D02*
X2624213D01*
X2603543Y406102D02*
Y447441D01*
X2690748Y426772D02*
X2732086D01*
X2711417Y406102D02*
Y447441D01*
X2798622Y426772D02*
X2839961D01*
X2819291Y406102D02*
Y447441D01*
X2421063Y314961D02*
X2462401D01*
X2441732Y294291D02*
Y335630D01*
X2528937Y314961D02*
X2570276D01*
X2549606Y294291D02*
Y335630D01*
X2636811Y314961D02*
X2678149D01*
X2657480Y294291D02*
Y335630D01*
X2744685Y314961D02*
X2786023D01*
X2765354Y294291D02*
Y335630D01*
X646063Y2736220D02*
X686220D01*
X666142Y2716142D02*
Y2756299D01*
X546063Y2736220D02*
X586220D01*
X566142Y2716142D02*
Y2756299D01*
X646063Y2636220D02*
X686220D01*
X666142Y2616142D02*
Y2656299D01*
X546063Y2636220D02*
X586220D01*
X566142Y2616142D02*
Y2656299D01*
X646063Y2536220D02*
X686220D01*
X666142Y2516142D02*
Y2556299D01*
X546063Y2536220D02*
X586220D01*
X566142Y2516142D02*
Y2556299D01*
X646063Y2436220D02*
X686220D01*
X666142Y2416142D02*
Y2456299D01*
X546063Y2436220D02*
X586220D01*
X566142Y2416142D02*
Y2456299D01*
X646063Y2336220D02*
X686220D01*
X666142Y2316142D02*
Y2356299D01*
X546063Y2336220D02*
X586220D01*
X566142Y2316142D02*
Y2356299D01*
X646063Y2236220D02*
X686220D01*
X666142Y2216142D02*
Y2256299D01*
X546063Y2236220D02*
X586220D01*
X566142Y2216142D02*
Y2256299D01*
X646063Y2136220D02*
X686220D01*
X666142Y2116142D02*
Y2156299D01*
X546063Y2136220D02*
X586220D01*
X566142Y2116142D02*
Y2156299D01*
X646063Y2036220D02*
X686220D01*
X666142Y2016142D02*
Y2056299D01*
X546063Y2036220D02*
X586220D01*
X566142Y2016142D02*
Y2056299D01*
X646063Y1936220D02*
X686220D01*
X666142Y1916142D02*
Y1956299D01*
X546063Y1936220D02*
X586220D01*
X566142Y1916142D02*
Y1956299D01*
X646063Y1836220D02*
X686220D01*
X666142Y1816142D02*
Y1856299D01*
X546063Y1836220D02*
X586220D01*
X566142Y1816142D02*
Y1856299D01*
X646063Y1736220D02*
X686220D01*
X666142Y1716142D02*
Y1756299D01*
X546063Y1736220D02*
X586220D01*
X566142Y1716142D02*
Y1756299D01*
X646063Y1636220D02*
X686220D01*
X666142Y1616142D02*
Y1656299D01*
X546063Y1636220D02*
X586220D01*
X566142Y1616142D02*
Y1656299D01*
X646063Y1536220D02*
X686220D01*
X666142Y1516142D02*
Y1556299D01*
X546063Y1536220D02*
X586220D01*
X566142Y1516142D02*
Y1556299D01*
X646063Y1436220D02*
X686220D01*
X666142Y1416142D02*
Y1456299D01*
X546063Y1436220D02*
X586220D01*
X566142Y1416142D02*
Y1456299D01*
X646063Y1336220D02*
X686220D01*
X666142Y1316142D02*
Y1356299D01*
X546063Y1336220D02*
X586220D01*
X566142Y1316142D02*
Y1356299D01*
X646063Y1236220D02*
X686220D01*
X666142Y1216142D02*
Y1256299D01*
X546063Y1236220D02*
X586220D01*
X566142Y1216142D02*
Y1256299D01*
X646063Y1136220D02*
X686220D01*
X666142Y1116142D02*
Y1156299D01*
X546063Y1136220D02*
X586220D01*
X566142Y1116142D02*
Y1156299D01*
X646063Y1036220D02*
X686220D01*
X666142Y1016142D02*
Y1056299D01*
X546063Y1036220D02*
X586220D01*
X566142Y1016142D02*
Y1056299D01*
X646063Y936221D02*
X686220D01*
X666142Y916142D02*
Y956299D01*
X546063Y936221D02*
X586220D01*
X566142Y916142D02*
Y956299D01*
X1577953Y934055D02*
X1618110D01*
X1598032Y913976D02*
Y954134D01*
X1477953Y934055D02*
X1518110D01*
X1498032Y913976D02*
Y954134D01*
X1377953Y934055D02*
X1418110D01*
X1398032Y913976D02*
Y954134D01*
X2019882Y917323D02*
X2060039D01*
X2039961Y897244D02*
Y937402D01*
X1919882Y917323D02*
X1960039D01*
X1939961Y897244D02*
Y937402D01*
X1819882Y917323D02*
X1860039D01*
X1839961Y897244D02*
Y937402D01*
X846063Y2236220D02*
X886220D01*
X866142Y2216142D02*
Y2256299D01*
X846063Y2136220D02*
X886220D01*
X866142Y2116142D02*
Y2156299D01*
X846063Y2036220D02*
X886220D01*
X866142Y2016142D02*
Y2056299D01*
X846063Y1936220D02*
X886220D01*
X866142Y1916142D02*
Y1956299D01*
X846063Y1836220D02*
X886220D01*
X866142Y1816142D02*
Y1856299D01*
X846063Y1736220D02*
X886220D01*
X866142Y1716142D02*
Y1756299D01*
X846063Y1636220D02*
X886220D01*
X866142Y1616142D02*
Y1656299D01*
X846063Y2336220D02*
X886220D01*
X866142Y2316142D02*
Y2356299D01*
X1495079Y655512D02*
X1514764D01*
X1504921Y645669D02*
Y665354D01*
X2125000Y1530512D02*
X2144685D01*
X2134843Y1520669D02*
Y1540354D01*
X2447835Y1488189D02*
X2467520D01*
X2457677Y1478347D02*
Y1498032D01*
X1306102Y1171260D02*
X1325787D01*
X1315945Y1161417D02*
Y1181102D01*
X1377953Y1183071D02*
X1397638D01*
X1387795Y1173228D02*
Y1192913D01*
X1312992Y1441929D02*
X1332677D01*
X1322835Y1432087D02*
Y1451772D01*
X746063Y1078740D02*
X765748D01*
X755905Y1068898D02*
Y1088583D01*
X2404528Y921260D02*
X2424213D01*
X2414370Y911417D02*
Y931102D01*
X2287402Y522638D02*
X2307087D01*
X2297244Y512795D02*
Y532480D01*
X2739173Y567913D02*
X2758858D01*
X2749016Y558071D02*
Y577756D01*
X2772638Y669291D02*
X2792323D01*
X2782480Y659449D02*
Y679134D01*
X2208661Y665354D02*
X2228346D01*
X2218504Y655512D02*
Y675197D01*
X2208661Y557087D02*
X2228346D01*
X2218504Y547244D02*
Y566929D01*
X2279528Y1140748D02*
X2299213D01*
X2289370Y1130906D02*
Y1150591D01*
X2195866Y1160433D02*
X2215551D01*
X2205709Y1150591D02*
Y1170276D01*
X2177165Y1475394D02*
X2196850D01*
X2187008Y1465551D02*
Y1485236D01*
X2223425Y1322835D02*
X2243110D01*
X2233268Y1312992D02*
Y1332677D01*
X2103347Y1443898D02*
X2123032D01*
X2113189Y1434055D02*
Y1453740D01*
X1772455Y1236037D02*
X1792139D01*
X1782297Y1226195D02*
Y1245880D01*
X839567Y657480D02*
X859252D01*
X849409Y647638D02*
Y667323D01*
X1986220Y1929134D02*
X2005906D01*
X1996063Y1919291D02*
Y1938976D01*
X2026575Y1607284D02*
X2046260D01*
X2036417Y1597441D02*
Y1617126D01*
X980315Y1970472D02*
X1000000D01*
X990158Y1960630D02*
Y1980315D01*
X980315Y1886811D02*
X1000000D01*
X990158Y1876968D02*
Y1896653D01*
%TF.MD5,71f2490d7dc1bf6ca78d276d7099234b*%
M02*
