%TF.GenerationSoftware,Altium Limited,Altium Designer,21.7.2 (23)*%
G04 Layer_Color=32896*
%FSLAX26Y26*%
%MOIN*%
%TF.SameCoordinates,89F72506-9554-4F55-AE3A-9D847A2FA82F*%
%TF.FilePolarity,Positive*%
%TF.FileFunction,Other,Top_Component_Center*%
%TF.Part,Single*%
G01*
G75*
%TA.AperFunction,NonConductor*%
%ADD42C,0.003937*%
D42*
X1633858Y1220472D02*
X1673228D01*
X1653543Y1200787D02*
Y1240157D01*
X2535630Y1125449D02*
Y1164819D01*
X2515945Y1145134D02*
X2555315D01*
X2303150Y866142D02*
Y905512D01*
X2283465Y885827D02*
X2322835D01*
X2578740D02*
Y925197D01*
X2559055Y905512D02*
X2598425D01*
X2250984Y1439961D02*
X2290354D01*
X2270669Y1420276D02*
Y1459646D01*
X968996Y2067421D02*
X1008366D01*
X988681Y2047736D02*
Y2087106D01*
X2322835Y1200787D02*
Y1240158D01*
X2303150Y1220473D02*
X2342520D01*
X1870079Y1555118D02*
Y1594488D01*
X1850394Y1574803D02*
X1889764D01*
X2204724Y1598425D02*
Y1637795D01*
X2185039Y1618110D02*
X2224410D01*
X2421260Y1594488D02*
Y1633858D01*
X2401575Y1614173D02*
X2440945D01*
X2603347Y1386811D02*
Y1426181D01*
X2583662Y1406496D02*
X2623032D01*
X1870079Y1889764D02*
Y1929134D01*
X1850394Y1909449D02*
X1889764D01*
X866142Y1966535D02*
Y2005906D01*
X846457Y1986220D02*
X885827D01*
X1102362Y1594488D02*
X1141732D01*
X1122047Y1574803D02*
Y1614173D01*
X1614173Y1579326D02*
X1653543D01*
X1633858Y1559641D02*
Y1599011D01*
X1377953Y1559641D02*
X1417323D01*
X1397638Y1539956D02*
Y1579326D01*
%TF.MD5,8123c63ba954bf314c2ac9841150c4f7*%
M02*
