%TF.GenerationSoftware,Altium Limited,Altium Designer,21.7.2 (23)*%
G04 Layer_Color=32896*
%FSLAX26Y26*%
%MOIN*%
%TF.SameCoordinates,C96B85AD-BFD8-4542-BB89-30D630789AD8*%
%TF.FilePolarity,Positive*%
%TF.FileFunction,Other,Top_Component_Center*%
%TF.Part,Single*%
G01*
G75*
%TA.AperFunction,NonConductor*%
%ADD43C,0.003937*%
D43*
X970472Y1836614D02*
X1009842D01*
X990158Y1816929D02*
Y1856299D01*
X1259843Y892716D02*
X1299213D01*
X1279528Y873032D02*
Y912402D01*
X2587599Y1424213D02*
X2626968D01*
X2607284Y1404528D02*
Y1443898D01*
X2456693Y1637795D02*
X2496063D01*
X2476378Y1618110D02*
Y1657480D01*
X2240158Y1641732D02*
X2279528D01*
X2259843Y1622047D02*
Y1661417D01*
X1905512Y1598425D02*
X1944882D01*
X1925197Y1578740D02*
Y1618110D01*
X1452756Y1563578D02*
Y1602948D01*
X1433071Y1583263D02*
X1472441D01*
X1181102Y1466535D02*
Y1505906D01*
X1161417Y1486220D02*
X1200787D01*
X1633858Y1220472D02*
X1673228D01*
X1653543Y1200787D02*
Y1240157D01*
X2535630Y1125449D02*
Y1164819D01*
X2515945Y1145134D02*
X2555315D01*
X2303150Y866142D02*
Y905512D01*
X2283465Y885827D02*
X2322835D01*
X2604331Y868110D02*
Y907480D01*
X2584646Y887795D02*
X2624016D01*
X2306102Y1463583D02*
X2345472D01*
X2325787Y1443898D02*
Y1483268D01*
X968996Y2067421D02*
X1008366D01*
X988681Y2047736D02*
Y2087106D01*
X1925197Y1913386D02*
Y1952756D01*
X1905512Y1933071D02*
X1944882D01*
X866142Y1966535D02*
Y2005906D01*
X846457Y1986220D02*
X885827D01*
X1669291Y1602948D02*
X1708661D01*
X1688976Y1583263D02*
Y1622633D01*
%TF.MD5,0c6540f2408a64dca5b291c3dc00ce77*%
M02*
