%TF.GenerationSoftware,Altium Limited,Altium Designer,21.7.2 (23)*%
G04 Layer_Color=255*
%FSLAX26Y26*%
%MOIN*%
%TF.SameCoordinates,C96B85AD-BFD8-4542-BB89-30D630789AD8*%
%TF.FilePolarity,Positive*%
%TF.FileFunction,Pads,Bot*%
%TF.Part,Single*%
G01*
G75*
%TA.AperFunction,ComponentPad*%
%ADD25C,0.078740*%
%ADD26C,0.275591*%
%ADD27C,0.060236*%
%ADD28R,0.060236X0.060236*%
%ADD29R,0.064961X0.064961*%
%ADD30C,0.064961*%
%ADD31C,0.061024*%
%ADD32C,0.061811*%
%ADD33R,0.061811X0.061811*%
D25*
X890945Y426772D02*
D03*
X998819D02*
D03*
X1106693D02*
D03*
X1214567D02*
D03*
X1322441D02*
D03*
X944882Y314961D02*
D03*
X1052756D02*
D03*
X1160630D02*
D03*
X1268504D02*
D03*
X2765354D02*
D03*
X2657480D02*
D03*
X2549606D02*
D03*
X2441732D02*
D03*
X2819291Y426772D02*
D03*
X2711417D02*
D03*
X2603543D02*
D03*
X2495669D02*
D03*
X2387795D02*
D03*
D26*
X614173Y370866D02*
D03*
X1598425D02*
D03*
X3095276D02*
D03*
X2111023D02*
D03*
D27*
X1887795Y912402D02*
D03*
X1987795D02*
D03*
X1446850Y918307D02*
D03*
X1546850D02*
D03*
D28*
X2087795Y912402D02*
D03*
X1646850Y918307D02*
D03*
D29*
X3279528Y665748D02*
D03*
X368110Y638779D02*
D03*
D30*
X3279528Y765748D02*
D03*
X368110Y738779D02*
D03*
D31*
X3066142Y2736220D02*
D03*
X2966142D02*
D03*
X3066142Y2636220D02*
D03*
X2966142D02*
D03*
X3066142Y2536220D02*
D03*
X2966142D02*
D03*
X3066142Y2436220D02*
D03*
X2966142D02*
D03*
X3066142Y2336220D02*
D03*
X2966142D02*
D03*
Y2236220D02*
D03*
Y2136220D02*
D03*
X3066142Y2036220D02*
D03*
X2966142D02*
D03*
X3066142Y1936220D02*
D03*
X2966142D02*
D03*
X3066142Y1836220D02*
D03*
X2966142D02*
D03*
X3066142Y1736220D02*
D03*
X2966142D02*
D03*
X3066142Y1636220D02*
D03*
X2966142D02*
D03*
X3066142Y1536220D02*
D03*
X2966142D02*
D03*
X3066142Y1436220D02*
D03*
X2966142D02*
D03*
X3066142Y1336220D02*
D03*
X2966142D02*
D03*
X3066142Y1236220D02*
D03*
X2966142D02*
D03*
X3066142Y1136220D02*
D03*
X2966142D02*
D03*
X3066142Y1036220D02*
D03*
X2966142D02*
D03*
X3066142Y936221D02*
D03*
X2966142D02*
D03*
X3066142Y2236220D02*
D03*
Y2136220D02*
D03*
X666142Y2736220D02*
D03*
X566142D02*
D03*
X666142Y2636220D02*
D03*
X566142D02*
D03*
X666142Y2536220D02*
D03*
X566142D02*
D03*
X666142Y2436220D02*
D03*
X566142D02*
D03*
X666142Y2336220D02*
D03*
X566142D02*
D03*
X666142Y2236220D02*
D03*
X566142D02*
D03*
X666142Y2136220D02*
D03*
X566142D02*
D03*
X666142Y2036220D02*
D03*
X566142D02*
D03*
X666142Y1936220D02*
D03*
X566142D02*
D03*
X666142Y1836220D02*
D03*
X566142D02*
D03*
X666142Y1736220D02*
D03*
X566142D02*
D03*
X666142Y1636220D02*
D03*
X566142D02*
D03*
X666142Y1536220D02*
D03*
X566142D02*
D03*
X666142Y1436220D02*
D03*
X566142D02*
D03*
X666142Y1336220D02*
D03*
X566142D02*
D03*
X666142Y1236220D02*
D03*
X566142D02*
D03*
X666142Y1136220D02*
D03*
X566142D02*
D03*
X666142Y1036220D02*
D03*
X566142D02*
D03*
X666142Y936221D02*
D03*
X566142D02*
D03*
D32*
X866142Y2236220D02*
D03*
Y2136220D02*
D03*
Y2036220D02*
D03*
Y1936220D02*
D03*
Y1836220D02*
D03*
Y1736220D02*
D03*
Y1636220D02*
D03*
D33*
Y2336220D02*
D03*
%TF.MD5,30fd376116d7d2f4361431353d98a55e*%
M02*
