%TF.GenerationSoftware,Altium Limited,Altium Designer,21.7.2 (23)*%
G04 Layer_Color=128*
%FSLAX26Y26*%
%MOIN*%
%TF.SameCoordinates,C96B85AD-BFD8-4542-BB89-30D630789AD8*%
%TF.FilePolarity,Positive*%
%TF.FileFunction,Drillmap*%
%TF.Part,Single*%
G01*
G75*
%TA.AperFunction,NonConductor*%
%ADD64C,0.005000*%
D64*
X870275Y426772D02*
X911614D01*
X890945Y406102D02*
Y447441D01*
X978149Y426772D02*
X1019488D01*
X998819Y406102D02*
Y447441D01*
X1086024Y426772D02*
X1127362D01*
X1106693Y406102D02*
Y447441D01*
X1193898Y426772D02*
X1235236D01*
X1214567Y406102D02*
Y447441D01*
X1301772Y426772D02*
X1343110D01*
X1322441Y406102D02*
Y447441D01*
X924212Y314961D02*
X965551D01*
X944882Y294291D02*
Y335630D01*
X1032086Y314961D02*
X1073425D01*
X1052756Y294291D02*
Y335630D01*
X1139960Y314961D02*
X1181299D01*
X1160630Y294291D02*
Y335630D01*
X1247834Y314961D02*
X1289173D01*
X1268504Y294291D02*
Y335630D01*
X551181Y370866D02*
X677165D01*
X614173Y307874D02*
Y433858D01*
X1535433Y370866D02*
X1661417D01*
X1598425Y307874D02*
Y433858D01*
X2744685Y314961D02*
X2786023D01*
X2765354Y294291D02*
Y335630D01*
X2636811Y314961D02*
X2678149D01*
X2657480Y294291D02*
Y335630D01*
X2528937Y314961D02*
X2570276D01*
X2549606Y294291D02*
Y335630D01*
X2421063Y314961D02*
X2462401D01*
X2441732Y294291D02*
Y335630D01*
X2798622Y426772D02*
X2839961D01*
X2819291Y406102D02*
Y447441D01*
X2690748Y426772D02*
X2732086D01*
X2711417Y406102D02*
Y447441D01*
X2582874Y426772D02*
X2624213D01*
X2603543Y406102D02*
Y447441D01*
X2475000Y426772D02*
X2516338D01*
X2495669Y406102D02*
Y447441D01*
X2367126Y426772D02*
X2408465D01*
X2387795Y406102D02*
Y447441D01*
X3032283Y370866D02*
X3158268D01*
X3095276Y307874D02*
Y433858D01*
X2048031Y370866D02*
X2174016D01*
X2111023Y307874D02*
Y433858D01*
X1867717Y912402D02*
X1907874D01*
X1887795Y892323D02*
Y932480D01*
X1967717Y912402D02*
X2007874D01*
X1987795Y892323D02*
Y932480D01*
X2067717Y912402D02*
X2107874D01*
X2087795Y892323D02*
Y932480D01*
X1426772Y918307D02*
X1466929D01*
X1446850Y898228D02*
Y938386D01*
X1526772Y918307D02*
X1566929D01*
X1546850Y898228D02*
Y938386D01*
X1626772Y918307D02*
X1666929D01*
X1646850Y898228D02*
Y938386D01*
X3257874Y665748D02*
X3301181D01*
X3279528Y644095D02*
Y687402D01*
X3257874Y765748D02*
X3301181D01*
X3279528Y744095D02*
Y787402D01*
X346457Y638779D02*
X389764D01*
X368110Y617126D02*
Y660433D01*
X346457Y738779D02*
X389764D01*
X368110Y717126D02*
Y760433D01*
X3046063Y2736220D02*
X3086220D01*
X3066142Y2716142D02*
Y2756299D01*
X2946063Y2736220D02*
X2986220D01*
X2966142Y2716142D02*
Y2756299D01*
X3046063Y2636220D02*
X3086220D01*
X3066142Y2616142D02*
Y2656299D01*
X2946063Y2636220D02*
X2986220D01*
X2966142Y2616142D02*
Y2656299D01*
X3046063Y2536220D02*
X3086220D01*
X3066142Y2516142D02*
Y2556299D01*
X2946063Y2536220D02*
X2986220D01*
X2966142Y2516142D02*
Y2556299D01*
X3046063Y2436220D02*
X3086220D01*
X3066142Y2416142D02*
Y2456299D01*
X2946063Y2436220D02*
X2986220D01*
X2966142Y2416142D02*
Y2456299D01*
X3046063Y2336220D02*
X3086220D01*
X3066142Y2316142D02*
Y2356299D01*
X2946063Y2336220D02*
X2986220D01*
X2966142Y2316142D02*
Y2356299D01*
X2946063Y2236220D02*
X2986220D01*
X2966142Y2216142D02*
Y2256299D01*
X2946063Y2136220D02*
X2986220D01*
X2966142Y2116142D02*
Y2156299D01*
X3046063Y2036220D02*
X3086220D01*
X3066142Y2016142D02*
Y2056299D01*
X2946063Y2036220D02*
X2986220D01*
X2966142Y2016142D02*
Y2056299D01*
X3046063Y1936220D02*
X3086220D01*
X3066142Y1916142D02*
Y1956299D01*
X2946063Y1936220D02*
X2986220D01*
X2966142Y1916142D02*
Y1956299D01*
X3046063Y1836220D02*
X3086220D01*
X3066142Y1816142D02*
Y1856299D01*
X2946063Y1836220D02*
X2986220D01*
X2966142Y1816142D02*
Y1856299D01*
X3046063Y1736220D02*
X3086220D01*
X3066142Y1716142D02*
Y1756299D01*
X2946063Y1736220D02*
X2986220D01*
X2966142Y1716142D02*
Y1756299D01*
X3046063Y1636220D02*
X3086220D01*
X3066142Y1616142D02*
Y1656299D01*
X2946063Y1636220D02*
X2986220D01*
X2966142Y1616142D02*
Y1656299D01*
X3046063Y1536220D02*
X3086220D01*
X3066142Y1516142D02*
Y1556299D01*
X2946063Y1536220D02*
X2986220D01*
X2966142Y1516142D02*
Y1556299D01*
X3046063Y1436220D02*
X3086220D01*
X3066142Y1416142D02*
Y1456299D01*
X2946063Y1436220D02*
X2986220D01*
X2966142Y1416142D02*
Y1456299D01*
X3046063Y1336220D02*
X3086220D01*
X3066142Y1316142D02*
Y1356299D01*
X2946063Y1336220D02*
X2986220D01*
X2966142Y1316142D02*
Y1356299D01*
X3046063Y1236220D02*
X3086220D01*
X3066142Y1216142D02*
Y1256299D01*
X2946063Y1236220D02*
X2986220D01*
X2966142Y1216142D02*
Y1256299D01*
X3046063Y1136220D02*
X3086220D01*
X3066142Y1116142D02*
Y1156299D01*
X2946063Y1136220D02*
X2986220D01*
X2966142Y1116142D02*
Y1156299D01*
X3046063Y1036220D02*
X3086220D01*
X3066142Y1016142D02*
Y1056299D01*
X2946063Y1036220D02*
X2986220D01*
X2966142Y1016142D02*
Y1056299D01*
X3046063Y936221D02*
X3086220D01*
X3066142Y916142D02*
Y956299D01*
X2946063Y936221D02*
X2986220D01*
X2966142Y916142D02*
Y956299D01*
X3046063Y2236220D02*
X3086220D01*
X3066142Y2216142D02*
Y2256299D01*
X3046063Y2136220D02*
X3086220D01*
X3066142Y2116142D02*
Y2156299D01*
X646063Y2736220D02*
X686220D01*
X666142Y2716142D02*
Y2756299D01*
X546063Y2736220D02*
X586220D01*
X566142Y2716142D02*
Y2756299D01*
X646063Y2636220D02*
X686220D01*
X666142Y2616142D02*
Y2656299D01*
X546063Y2636220D02*
X586220D01*
X566142Y2616142D02*
Y2656299D01*
X646063Y2536220D02*
X686220D01*
X666142Y2516142D02*
Y2556299D01*
X546063Y2536220D02*
X586220D01*
X566142Y2516142D02*
Y2556299D01*
X646063Y2436220D02*
X686220D01*
X666142Y2416142D02*
Y2456299D01*
X546063Y2436220D02*
X586220D01*
X566142Y2416142D02*
Y2456299D01*
X646063Y2336220D02*
X686220D01*
X666142Y2316142D02*
Y2356299D01*
X546063Y2336220D02*
X586220D01*
X566142Y2316142D02*
Y2356299D01*
X646063Y2236220D02*
X686220D01*
X666142Y2216142D02*
Y2256299D01*
X546063Y2236220D02*
X586220D01*
X566142Y2216142D02*
Y2256299D01*
X646063Y2136220D02*
X686220D01*
X666142Y2116142D02*
Y2156299D01*
X546063Y2136220D02*
X586220D01*
X566142Y2116142D02*
Y2156299D01*
X646063Y2036220D02*
X686220D01*
X666142Y2016142D02*
Y2056299D01*
X546063Y2036220D02*
X586220D01*
X566142Y2016142D02*
Y2056299D01*
X646063Y1936220D02*
X686220D01*
X666142Y1916142D02*
Y1956299D01*
X546063Y1936220D02*
X586220D01*
X566142Y1916142D02*
Y1956299D01*
X646063Y1836220D02*
X686220D01*
X666142Y1816142D02*
Y1856299D01*
X546063Y1836220D02*
X586220D01*
X566142Y1816142D02*
Y1856299D01*
X646063Y1736220D02*
X686220D01*
X666142Y1716142D02*
Y1756299D01*
X546063Y1736220D02*
X586220D01*
X566142Y1716142D02*
Y1756299D01*
X646063Y1636220D02*
X686220D01*
X666142Y1616142D02*
Y1656299D01*
X546063Y1636220D02*
X586220D01*
X566142Y1616142D02*
Y1656299D01*
X646063Y1536220D02*
X686220D01*
X666142Y1516142D02*
Y1556299D01*
X546063Y1536220D02*
X586220D01*
X566142Y1516142D02*
Y1556299D01*
X646063Y1436220D02*
X686220D01*
X666142Y1416142D02*
Y1456299D01*
X546063Y1436220D02*
X586220D01*
X566142Y1416142D02*
Y1456299D01*
X646063Y1336220D02*
X686220D01*
X666142Y1316142D02*
Y1356299D01*
X546063Y1336220D02*
X586220D01*
X566142Y1316142D02*
Y1356299D01*
X646063Y1236220D02*
X686220D01*
X666142Y1216142D02*
Y1256299D01*
X546063Y1236220D02*
X586220D01*
X566142Y1216142D02*
Y1256299D01*
X646063Y1136220D02*
X686220D01*
X666142Y1116142D02*
Y1156299D01*
X546063Y1136220D02*
X586220D01*
X566142Y1116142D02*
Y1156299D01*
X646063Y1036220D02*
X686220D01*
X666142Y1016142D02*
Y1056299D01*
X546063Y1036220D02*
X586220D01*
X566142Y1016142D02*
Y1056299D01*
X646063Y936221D02*
X686220D01*
X666142Y916142D02*
Y956299D01*
X546063Y936221D02*
X586220D01*
X566142Y916142D02*
Y956299D01*
X846063Y2236220D02*
X886220D01*
X866142Y2216142D02*
Y2256299D01*
X846063Y2136220D02*
X886220D01*
X866142Y2116142D02*
Y2156299D01*
X846063Y2036220D02*
X886220D01*
X866142Y2016142D02*
Y2056299D01*
X846063Y1936220D02*
X886220D01*
X866142Y1916142D02*
Y1956299D01*
X846063Y1836220D02*
X886220D01*
X866142Y1816142D02*
Y1856299D01*
X846063Y1736220D02*
X886220D01*
X866142Y1716142D02*
Y1756299D01*
X846063Y1636220D02*
X886220D01*
X866142Y1616142D02*
Y1656299D01*
X846063Y2336220D02*
X886220D01*
X866142Y2316142D02*
Y2356299D01*
X2549213Y1330709D02*
X2568898D01*
X2559055Y1320866D02*
Y1340551D01*
X2645669D02*
X2665354D01*
X2655512Y1330709D02*
Y1350394D01*
X2445866Y932087D02*
X2465551D01*
X2455709Y922244D02*
Y941929D01*
X2367126Y1075787D02*
X2386811D01*
X2376968Y1065945D02*
Y1085630D01*
X2366142Y1171260D02*
X2385827D01*
X2375984Y1161417D02*
Y1181102D01*
X2317913Y1149606D02*
X2337598D01*
X2327756Y1139764D02*
Y1159449D01*
X2281496Y1099409D02*
X2301181D01*
X2291339Y1089567D02*
Y1109252D01*
X2281496Y1025591D02*
X2301181D01*
X2291339Y1015748D02*
Y1035433D01*
X2559055Y816929D02*
X2578740D01*
X2568898Y807087D02*
Y826772D01*
X2519685Y949803D02*
X2539370D01*
X2529528Y939961D02*
Y959646D01*
X2688976Y931102D02*
X2708661D01*
X2698819Y921260D02*
Y940945D01*
X2451772Y719488D02*
X2471457D01*
X2461614Y709646D02*
Y729331D01*
X2587598Y1556102D02*
X2607283D01*
X2597441Y1546260D02*
Y1565945D01*
X2404528Y1492126D02*
X2424213D01*
X2414370Y1482284D02*
Y1501968D01*
X2118110Y1940945D02*
X2137795D01*
X2127953Y1931102D02*
Y1950787D01*
X2121063Y1779528D02*
X2140748D01*
X2130905Y1769685D02*
Y1789370D01*
X2094488Y1341535D02*
X2114173D01*
X2104331Y1331693D02*
Y1351378D01*
X2092520Y1260827D02*
X2112205D01*
X2102362Y1250984D02*
Y1270669D01*
X2314961Y1226378D02*
X2334646D01*
X2324803Y1216535D02*
Y1236220D01*
X2373068Y1253937D02*
X2392753D01*
X2382911Y1244094D02*
Y1263780D01*
X2203740Y1101378D02*
X2223425D01*
X2213583Y1091535D02*
Y1111220D01*
X2133858Y1153543D02*
X2153543D01*
X2143701Y1143701D02*
Y1163386D01*
X2212598Y1020669D02*
X2232283D01*
X2222441Y1010827D02*
Y1030512D01*
X2419291Y524606D02*
X2438976D01*
X2429134Y514764D02*
Y534449D01*
X2401575Y624016D02*
X2421260D01*
X2411417Y614173D02*
Y633858D01*
X1977362Y1755906D02*
X1997047D01*
X1987205Y1746063D02*
Y1765748D01*
X2018701Y1698819D02*
X2038386D01*
X2028543Y1688976D02*
Y1708661D01*
X2074803Y1502953D02*
X2094488D01*
X2084646Y1493110D02*
Y1512795D01*
X1508858Y1692913D02*
X1528543D01*
X1518701Y1683071D02*
Y1702756D01*
X1553150Y1640748D02*
X1572835D01*
X1562992Y1630906D02*
Y1650591D01*
X1807087Y1873032D02*
X1826772D01*
X1816929Y1863189D02*
Y1882874D01*
X2008858Y1847441D02*
X2028543D01*
X2018701Y1837598D02*
Y1857283D01*
X1749016Y1152559D02*
X1768701D01*
X1758858Y1142717D02*
Y1162402D01*
X1590551Y1101378D02*
X1610236D01*
X1600394Y1091535D02*
Y1111220D01*
X728346Y1172244D02*
X748032D01*
X738189Y1162402D02*
Y1182087D01*
X815945Y1211614D02*
X835630D01*
X825787Y1201772D02*
Y1221457D01*
X1071850Y677165D02*
X1091535D01*
X1081693Y667323D02*
Y687008D01*
X1574803Y648622D02*
X1594488D01*
X1584646Y638779D02*
Y658465D01*
X1068898Y607284D02*
X1088583D01*
X1078740Y597441D02*
Y617126D01*
X1172244Y605315D02*
X1191929D01*
X1182087Y595472D02*
Y615158D01*
X3091535Y647638D02*
X3111220D01*
X3101378Y637795D02*
Y657480D01*
X3193898Y609252D02*
X3213583D01*
X3203740Y599409D02*
Y619095D01*
X1495079Y1343504D02*
X1514764D01*
X1504921Y1333661D02*
Y1353346D01*
X1414370Y1407480D02*
X1434055D01*
X1424213Y1397638D02*
Y1417323D01*
X2566929Y523622D02*
X2586614D01*
X2576772Y513779D02*
Y533465D01*
X2669291Y735236D02*
X2688976D01*
X2679134Y725394D02*
Y745079D01*
X2708661Y521654D02*
X2728346D01*
X2718504Y511811D02*
Y531496D01*
X2717520Y636811D02*
X2737205D01*
X2727362Y626968D02*
Y646654D01*
%TF.MD5,f454c4c32edf8c1be737c936edec7ff8*%
M02*
