%TF.GenerationSoftware,Altium Limited,Altium Designer,21.7.2 (23)*%
G04 Layer_Color=8388736*
%FSLAX26Y26*%
%MOIN*%
%TF.SameCoordinates,C96B85AD-BFD8-4542-BB89-30D630789AD8*%
%TF.FilePolarity,Negative*%
%TF.FileFunction,Soldermask,Top*%
%TF.Part,Single*%
G01*
G75*
%TA.AperFunction,SMDPad,CuDef*%
%ADD10R,0.041339X0.031496*%
%ADD12R,0.035433X0.039370*%
%ADD15R,0.022671X0.061982*%
G04:AMPARAMS|DCode=16|XSize=61.982mil|YSize=22.671mil|CornerRadius=11.335mil|HoleSize=0mil|Usage=FLASHONLY|Rotation=90.000|XOffset=0mil|YOffset=0mil|HoleType=Round|Shape=RoundedRectangle|*
%AMROUNDEDRECTD16*
21,1,0.061982,0.000000,0,0,90.0*
21,1,0.039312,0.022671,0,0,90.0*
1,1,0.022670,0.000000,0.019656*
1,1,0.022670,0.000000,-0.019656*
1,1,0.022670,0.000000,-0.019656*
1,1,0.022670,0.000000,0.019656*
%
%ADD16ROUNDEDRECTD16*%
%ADD17R,0.114173X0.094488*%
%ADD19R,0.039370X0.035433*%
%ADD20R,0.024493X0.097211*%
G04:AMPARAMS|DCode=21|XSize=97.211mil|YSize=24.493mil|CornerRadius=12.247mil|HoleSize=0mil|Usage=FLASHONLY|Rotation=90.000|XOffset=0mil|YOffset=0mil|HoleType=Round|Shape=RoundedRectangle|*
%AMROUNDEDRECTD21*
21,1,0.097211,0.000000,0,0,90.0*
21,1,0.072718,0.024493,0,0,90.0*
1,1,0.024493,0.000000,0.036359*
1,1,0.024493,0.000000,-0.036359*
1,1,0.024493,0.000000,-0.036359*
1,1,0.024493,0.000000,0.036359*
%
%ADD21ROUNDEDRECTD21*%
%ADD22R,0.057331X0.054255*%
%TA.AperFunction,ComponentPad*%
%ADD32C,0.061811*%
%ADD33R,0.061811X0.061811*%
%ADD35C,0.086614*%
%ADD36C,0.283465*%
%ADD37C,0.068110*%
%ADD38R,0.068110X0.068110*%
%ADD39R,0.072835X0.072835*%
%ADD40C,0.072835*%
%ADD41C,0.068898*%
%TA.AperFunction,ViaPad*%
%ADD42C,0.047244*%
%TA.AperFunction,SMDPad,CuDef*%
%ADD49R,0.061024X0.029527*%
%ADD50R,0.033465X0.043307*%
%ADD51R,0.031496X0.059055*%
G04:AMPARAMS|DCode=52|XSize=33.465mil|YSize=72.835mil|CornerRadius=5.856mil|HoleSize=0mil|Usage=FLASHONLY|Rotation=90.000|XOffset=0mil|YOffset=0mil|HoleType=Round|Shape=RoundedRectangle|*
%AMROUNDEDRECTD52*
21,1,0.033465,0.061122,0,0,90.0*
21,1,0.021752,0.072835,0,0,90.0*
1,1,0.011713,0.030561,0.010876*
1,1,0.011713,0.030561,-0.010876*
1,1,0.011713,-0.030561,-0.010876*
1,1,0.011713,-0.030561,0.010876*
%
%ADD52ROUNDEDRECTD52*%
%ADD53R,0.055118X0.031496*%
D10*
X990158Y1800197D02*
D03*
Y1873032D02*
D03*
D12*
X1279528Y928150D02*
D03*
Y857283D02*
D03*
X2607284Y1388780D02*
D03*
Y1459646D02*
D03*
X2476378Y1602362D02*
D03*
Y1673228D02*
D03*
X2259843Y1606299D02*
D03*
Y1677165D02*
D03*
X1925197Y1633858D02*
D03*
Y1562992D02*
D03*
X2325787Y1428149D02*
D03*
Y1499016D02*
D03*
X1925197Y1897638D02*
D03*
Y1968504D02*
D03*
D15*
X1415354Y1548415D02*
D03*
X1651575Y1568100D02*
D03*
D16*
X1490158Y1548415D02*
D03*
X1452756Y1618110D02*
D03*
X1688976Y1637795D02*
D03*
X1726378Y1568100D02*
D03*
D17*
X1181102Y1366142D02*
D03*
Y1606299D02*
D03*
D19*
X1618110Y1220472D02*
D03*
X1688976D02*
D03*
X2338583Y885827D02*
D03*
X2267717D02*
D03*
X2639764Y887795D02*
D03*
X2568898D02*
D03*
D20*
X2460630Y1050110D02*
D03*
D21*
X2510630D02*
D03*
X2560630D02*
D03*
X2610630Y1240158D02*
D03*
X2560630D02*
D03*
X2510630D02*
D03*
X2460630D02*
D03*
X2610630Y1050110D02*
D03*
D22*
X988681Y2037340D02*
D03*
Y2097502D02*
D03*
D32*
X866142Y2236220D02*
D03*
Y2136220D02*
D03*
Y2036220D02*
D03*
Y1936220D02*
D03*
Y1836220D02*
D03*
Y1736220D02*
D03*
Y1636220D02*
D03*
D33*
Y2336220D02*
D03*
D35*
X890945Y426772D02*
D03*
X998819D02*
D03*
X1106693D02*
D03*
X1214567D02*
D03*
X1322441D02*
D03*
X944882Y314961D02*
D03*
X1052756D02*
D03*
X1160630D02*
D03*
X1268504D02*
D03*
X2765354D02*
D03*
X2657480D02*
D03*
X2549606D02*
D03*
X2441732D02*
D03*
X2819291Y426772D02*
D03*
X2711417D02*
D03*
X2603543D02*
D03*
X2495669D02*
D03*
X2387795D02*
D03*
D36*
X614173Y370866D02*
D03*
X1598425D02*
D03*
X3095276D02*
D03*
X2111023D02*
D03*
D37*
X1887795Y912402D02*
D03*
X1987795D02*
D03*
X1446850Y918307D02*
D03*
X1546850D02*
D03*
D38*
X2087795Y912402D02*
D03*
X1646850Y918307D02*
D03*
D39*
X3279528Y665748D02*
D03*
X368110Y638779D02*
D03*
D40*
X3279528Y765748D02*
D03*
X368110Y738779D02*
D03*
D41*
X3066142Y2736220D02*
D03*
X2966142D02*
D03*
X3066142Y2636220D02*
D03*
X2966142D02*
D03*
X3066142Y2536220D02*
D03*
X2966142D02*
D03*
X3066142Y2436220D02*
D03*
X2966142D02*
D03*
X3066142Y2336220D02*
D03*
X2966142D02*
D03*
Y2236220D02*
D03*
Y2136220D02*
D03*
X3066142Y2036220D02*
D03*
X2966142D02*
D03*
X3066142Y1936220D02*
D03*
X2966142D02*
D03*
X3066142Y1836220D02*
D03*
X2966142D02*
D03*
X3066142Y1736220D02*
D03*
X2966142D02*
D03*
X3066142Y1636220D02*
D03*
X2966142D02*
D03*
X3066142Y1536220D02*
D03*
X2966142D02*
D03*
X3066142Y1436220D02*
D03*
X2966142D02*
D03*
X3066142Y1336220D02*
D03*
X2966142D02*
D03*
X3066142Y1236220D02*
D03*
X2966142D02*
D03*
X3066142Y1136220D02*
D03*
X2966142D02*
D03*
X3066142Y1036220D02*
D03*
X2966142D02*
D03*
X3066142Y936221D02*
D03*
X2966142D02*
D03*
X3066142Y2236220D02*
D03*
Y2136220D02*
D03*
X666142Y2736220D02*
D03*
X566142D02*
D03*
X666142Y2636220D02*
D03*
X566142D02*
D03*
X666142Y2536220D02*
D03*
X566142D02*
D03*
X666142Y2436220D02*
D03*
X566142D02*
D03*
X666142Y2336220D02*
D03*
X566142D02*
D03*
X666142Y2236220D02*
D03*
X566142D02*
D03*
X666142Y2136220D02*
D03*
X566142D02*
D03*
X666142Y2036220D02*
D03*
X566142D02*
D03*
X666142Y1936220D02*
D03*
X566142D02*
D03*
X666142Y1836220D02*
D03*
X566142D02*
D03*
X666142Y1736220D02*
D03*
X566142D02*
D03*
X666142Y1636220D02*
D03*
X566142D02*
D03*
X666142Y1536220D02*
D03*
X566142D02*
D03*
X666142Y1436220D02*
D03*
X566142D02*
D03*
X666142Y1336220D02*
D03*
X566142D02*
D03*
X666142Y1236220D02*
D03*
X566142D02*
D03*
X666142Y1136220D02*
D03*
X566142D02*
D03*
X666142Y1036220D02*
D03*
X566142D02*
D03*
X666142Y936221D02*
D03*
X566142D02*
D03*
D42*
X2559055Y1330709D02*
D03*
X2655512Y1340551D02*
D03*
X2455709Y932087D02*
D03*
X2376968Y1075787D02*
D03*
X2375984Y1171260D02*
D03*
X2327756Y1149606D02*
D03*
X2291339Y1099409D02*
D03*
Y1025591D02*
D03*
X2568898Y816929D02*
D03*
X2529528Y949803D02*
D03*
X2698819Y931102D02*
D03*
X2461614Y719488D02*
D03*
X2597441Y1556102D02*
D03*
X2414370Y1492126D02*
D03*
X2127953Y1940945D02*
D03*
X2130905Y1779528D02*
D03*
X2104331Y1341535D02*
D03*
X2102362Y1260827D02*
D03*
X2324803Y1226378D02*
D03*
X2382911Y1253937D02*
D03*
X2213583Y1101378D02*
D03*
X2143701Y1153543D02*
D03*
X2222441Y1020669D02*
D03*
X2429134Y524606D02*
D03*
X2411417Y624016D02*
D03*
X1987205Y1755906D02*
D03*
X2028543Y1698819D02*
D03*
X2084646Y1502953D02*
D03*
X1518701Y1692913D02*
D03*
X1562992Y1640748D02*
D03*
X1816929Y1873032D02*
D03*
X2018701Y1847441D02*
D03*
X1758858Y1152559D02*
D03*
X1600394Y1101378D02*
D03*
X738189Y1172244D02*
D03*
X825787Y1211614D02*
D03*
X1081693Y677165D02*
D03*
X1584646Y648622D02*
D03*
X1078740Y607284D02*
D03*
X1182087Y605315D02*
D03*
X3101378Y647638D02*
D03*
X3203740Y609252D02*
D03*
X1504921Y1343504D02*
D03*
X1424213Y1407480D02*
D03*
X2576772Y523622D02*
D03*
X2679134Y735236D02*
D03*
X2718504Y521654D02*
D03*
X2727362Y636811D02*
D03*
D49*
X727362Y778543D02*
D03*
Y701772D02*
D03*
X2725394Y1132874D02*
D03*
Y1056102D02*
D03*
X1110236Y2020669D02*
D03*
Y2097441D02*
D03*
D50*
X2355315Y1834646D02*
D03*
X2400590D02*
D03*
D51*
X1651575Y1891732D02*
D03*
X1726378D02*
D03*
X1688976Y1974409D02*
D03*
X1436024Y1968504D02*
D03*
X1510827D02*
D03*
X1473425Y2051181D02*
D03*
D52*
X1095472Y771457D02*
D03*
Y821457D02*
D03*
Y871457D02*
D03*
Y921457D02*
D03*
X873032Y771457D02*
D03*
Y821457D02*
D03*
Y871457D02*
D03*
Y921457D02*
D03*
D53*
X1305118Y2076772D02*
D03*
Y2001968D02*
D03*
X1206693D02*
D03*
Y2039370D02*
D03*
Y2076772D02*
D03*
%TF.MD5,2ae6152a2b5c9b8d771fe9180c00b621*%
M02*
