%TF.GenerationSoftware,Altium Limited,Altium Designer,21.7.2 (23)*%
G04 Layer_Physical_Order=2*
G04 Layer_Color=16711680*
%FSLAX26Y26*%
%MOIN*%
%TF.SameCoordinates,C96B85AD-BFD8-4542-BB89-30D630789AD8*%
%TF.FilePolarity,Positive*%
%TF.FileFunction,Copper,L2,Bot,Signal*%
%TF.Part,Single*%
G01*
G75*
%TA.AperFunction,Conductor*%
%ADD24C,0.007874*%
%TA.AperFunction,ComponentPad*%
%ADD25C,0.078740*%
%ADD26C,0.275591*%
%ADD27C,0.060236*%
%ADD28R,0.060236X0.060236*%
%ADD29R,0.064961X0.064961*%
%ADD30C,0.064961*%
%ADD31C,0.061024*%
%ADD32C,0.061811*%
%ADD33R,0.061811X0.061811*%
%TA.AperFunction,ViaPad*%
%ADD34C,0.039370*%
G36*
X988189Y2929134D02*
Y2172244D01*
X985236Y2169291D01*
X2643701D01*
Y2946851D01*
X2701772Y3004921D01*
Y3006890D01*
X3335630D01*
X3385827Y2956693D01*
Y102362D01*
X3358268Y74803D01*
X307087D01*
Y2983268D01*
X341535Y3017716D01*
X899606D01*
X988189Y2929134D01*
D02*
G37*
%LPC*%
G36*
X3070936Y2772638D02*
X3061347D01*
X3052085Y2770156D01*
X3043781Y2765362D01*
X3037001Y2758581D01*
X3032206Y2750277D01*
X3029724Y2741015D01*
Y2731426D01*
X3032206Y2722164D01*
X3037001Y2713860D01*
X3043781Y2707079D01*
X3052085Y2702285D01*
X3061347Y2699803D01*
X3070936D01*
X3080198Y2702285D01*
X3088502Y2707079D01*
X3095283Y2713860D01*
X3100077Y2722164D01*
X3102559Y2731426D01*
Y2741015D01*
X3100077Y2750277D01*
X3095283Y2758581D01*
X3088502Y2765362D01*
X3080198Y2770156D01*
X3070936Y2772638D01*
D02*
G37*
G36*
X2970936D02*
X2961347D01*
X2952085Y2770156D01*
X2943781Y2765362D01*
X2937001Y2758581D01*
X2932206Y2750277D01*
X2929724Y2741015D01*
Y2731426D01*
X2932206Y2722164D01*
X2937001Y2713860D01*
X2943781Y2707079D01*
X2952085Y2702285D01*
X2961347Y2699803D01*
X2970936D01*
X2980198Y2702285D01*
X2988502Y2707079D01*
X2995283Y2713860D01*
X3000077Y2722164D01*
X3002559Y2731426D01*
Y2741015D01*
X3000077Y2750277D01*
X2995283Y2758581D01*
X2988502Y2765362D01*
X2980198Y2770156D01*
X2970936Y2772638D01*
D02*
G37*
G36*
X670936D02*
X661347D01*
X652085Y2770156D01*
X643781Y2765362D01*
X637001Y2758581D01*
X632206Y2750277D01*
X629724Y2741015D01*
Y2731426D01*
X632206Y2722164D01*
X637001Y2713860D01*
X643781Y2707079D01*
X652085Y2702285D01*
X661347Y2699803D01*
X670936D01*
X680198Y2702285D01*
X688502Y2707079D01*
X695283Y2713860D01*
X700077Y2722164D01*
X702559Y2731426D01*
Y2741015D01*
X700077Y2750277D01*
X695283Y2758581D01*
X688502Y2765362D01*
X680198Y2770156D01*
X670936Y2772638D01*
D02*
G37*
G36*
X570936D02*
X561347D01*
X552085Y2770156D01*
X543781Y2765362D01*
X537001Y2758581D01*
X532206Y2750277D01*
X529724Y2741015D01*
Y2731426D01*
X532206Y2722164D01*
X537001Y2713860D01*
X543781Y2707079D01*
X552085Y2702285D01*
X561347Y2699803D01*
X570936D01*
X580198Y2702285D01*
X588502Y2707079D01*
X595283Y2713860D01*
X600077Y2722164D01*
X602559Y2731426D01*
Y2741015D01*
X600077Y2750277D01*
X595283Y2758581D01*
X588502Y2765362D01*
X580198Y2770156D01*
X570936Y2772638D01*
D02*
G37*
G36*
X3070936Y2672638D02*
X3061347D01*
X3052085Y2670156D01*
X3043781Y2665362D01*
X3037001Y2658581D01*
X3032206Y2650277D01*
X3029724Y2641015D01*
Y2631426D01*
X3032206Y2622164D01*
X3037001Y2613860D01*
X3043781Y2607079D01*
X3052085Y2602285D01*
X3061347Y2599803D01*
X3070936D01*
X3080198Y2602285D01*
X3088502Y2607079D01*
X3095283Y2613860D01*
X3100077Y2622164D01*
X3102559Y2631426D01*
Y2641015D01*
X3100077Y2650277D01*
X3095283Y2658581D01*
X3088502Y2665362D01*
X3080198Y2670156D01*
X3070936Y2672638D01*
D02*
G37*
G36*
X2970936D02*
X2961347D01*
X2952085Y2670156D01*
X2943781Y2665362D01*
X2937001Y2658581D01*
X2932206Y2650277D01*
X2929724Y2641015D01*
Y2631426D01*
X2932206Y2622164D01*
X2937001Y2613860D01*
X2943781Y2607079D01*
X2952085Y2602285D01*
X2961347Y2599803D01*
X2970936D01*
X2980198Y2602285D01*
X2988502Y2607079D01*
X2995283Y2613860D01*
X3000077Y2622164D01*
X3002559Y2631426D01*
Y2641015D01*
X3000077Y2650277D01*
X2995283Y2658581D01*
X2988502Y2665362D01*
X2980198Y2670156D01*
X2970936Y2672638D01*
D02*
G37*
G36*
X670936D02*
X661347D01*
X652085Y2670156D01*
X643781Y2665362D01*
X637001Y2658581D01*
X632206Y2650277D01*
X629724Y2641015D01*
Y2631426D01*
X632206Y2622164D01*
X637001Y2613860D01*
X643781Y2607079D01*
X652085Y2602285D01*
X661347Y2599803D01*
X670936D01*
X680198Y2602285D01*
X688502Y2607079D01*
X695283Y2613860D01*
X700077Y2622164D01*
X702559Y2631426D01*
Y2641015D01*
X700077Y2650277D01*
X695283Y2658581D01*
X688502Y2665362D01*
X680198Y2670156D01*
X670936Y2672638D01*
D02*
G37*
G36*
X570936D02*
X561347D01*
X552085Y2670156D01*
X543781Y2665362D01*
X537001Y2658581D01*
X532206Y2650277D01*
X529724Y2641015D01*
Y2631426D01*
X532206Y2622164D01*
X537001Y2613860D01*
X543781Y2607079D01*
X552085Y2602285D01*
X561347Y2599803D01*
X570936D01*
X580198Y2602285D01*
X588502Y2607079D01*
X595283Y2613860D01*
X600077Y2622164D01*
X602559Y2631426D01*
Y2641015D01*
X600077Y2650277D01*
X595283Y2658581D01*
X588502Y2665362D01*
X580198Y2670156D01*
X570936Y2672638D01*
D02*
G37*
G36*
X3070936Y2572638D02*
X3061347D01*
X3052085Y2570156D01*
X3043781Y2565362D01*
X3037001Y2558581D01*
X3032206Y2550277D01*
X3029724Y2541015D01*
Y2531426D01*
X3032206Y2522164D01*
X3037001Y2513860D01*
X3043781Y2507079D01*
X3052085Y2502285D01*
X3061347Y2499803D01*
X3070936D01*
X3080198Y2502285D01*
X3088502Y2507079D01*
X3095283Y2513860D01*
X3100077Y2522164D01*
X3102559Y2531426D01*
Y2541015D01*
X3100077Y2550277D01*
X3095283Y2558581D01*
X3088502Y2565362D01*
X3080198Y2570156D01*
X3070936Y2572638D01*
D02*
G37*
G36*
X2970936D02*
X2961347D01*
X2952085Y2570156D01*
X2943781Y2565362D01*
X2937001Y2558581D01*
X2932206Y2550277D01*
X2929724Y2541015D01*
Y2531426D01*
X2932206Y2522164D01*
X2937001Y2513860D01*
X2943781Y2507079D01*
X2952085Y2502285D01*
X2961347Y2499803D01*
X2970936D01*
X2980198Y2502285D01*
X2988502Y2507079D01*
X2995283Y2513860D01*
X3000077Y2522164D01*
X3002559Y2531426D01*
Y2541015D01*
X3000077Y2550277D01*
X2995283Y2558581D01*
X2988502Y2565362D01*
X2980198Y2570156D01*
X2970936Y2572638D01*
D02*
G37*
G36*
X670936D02*
X661347D01*
X652085Y2570156D01*
X643781Y2565362D01*
X637001Y2558581D01*
X632206Y2550277D01*
X629724Y2541015D01*
Y2531426D01*
X632206Y2522164D01*
X637001Y2513860D01*
X643781Y2507079D01*
X652085Y2502285D01*
X661347Y2499803D01*
X670936D01*
X680198Y2502285D01*
X688502Y2507079D01*
X695283Y2513860D01*
X700077Y2522164D01*
X702559Y2531426D01*
Y2541015D01*
X700077Y2550277D01*
X695283Y2558581D01*
X688502Y2565362D01*
X680198Y2570156D01*
X670936Y2572638D01*
D02*
G37*
G36*
X570936D02*
X561347D01*
X552085Y2570156D01*
X543781Y2565362D01*
X537001Y2558581D01*
X532206Y2550277D01*
X529724Y2541015D01*
Y2531426D01*
X532206Y2522164D01*
X537001Y2513860D01*
X543781Y2507079D01*
X552085Y2502285D01*
X561347Y2499803D01*
X570936D01*
X580198Y2502285D01*
X588502Y2507079D01*
X595283Y2513860D01*
X600077Y2522164D01*
X602559Y2531426D01*
Y2541015D01*
X600077Y2550277D01*
X595283Y2558581D01*
X588502Y2565362D01*
X580198Y2570156D01*
X570936Y2572638D01*
D02*
G37*
G36*
X3070936Y2472638D02*
X3061347D01*
X3052085Y2470156D01*
X3043781Y2465362D01*
X3037001Y2458581D01*
X3032206Y2450277D01*
X3029724Y2441015D01*
Y2431426D01*
X3032206Y2422164D01*
X3037001Y2413860D01*
X3043781Y2407079D01*
X3052085Y2402285D01*
X3061347Y2399803D01*
X3070936D01*
X3080198Y2402285D01*
X3088502Y2407079D01*
X3095283Y2413860D01*
X3100077Y2422164D01*
X3102559Y2431426D01*
Y2441015D01*
X3100077Y2450277D01*
X3095283Y2458581D01*
X3088502Y2465362D01*
X3080198Y2470156D01*
X3070936Y2472638D01*
D02*
G37*
G36*
X2970936D02*
X2961347D01*
X2952085Y2470156D01*
X2943781Y2465362D01*
X2937001Y2458581D01*
X2932206Y2450277D01*
X2929724Y2441015D01*
Y2431426D01*
X2932206Y2422164D01*
X2937001Y2413860D01*
X2943781Y2407079D01*
X2952085Y2402285D01*
X2961347Y2399803D01*
X2970936D01*
X2980198Y2402285D01*
X2988502Y2407079D01*
X2995283Y2413860D01*
X3000077Y2422164D01*
X3002559Y2431426D01*
Y2441015D01*
X3000077Y2450277D01*
X2995283Y2458581D01*
X2988502Y2465362D01*
X2980198Y2470156D01*
X2970936Y2472638D01*
D02*
G37*
G36*
X670936D02*
X661347D01*
X652085Y2470156D01*
X643781Y2465362D01*
X637001Y2458581D01*
X632206Y2450277D01*
X629724Y2441015D01*
Y2431426D01*
X632206Y2422164D01*
X637001Y2413860D01*
X643781Y2407079D01*
X652085Y2402285D01*
X661347Y2399803D01*
X670936D01*
X680198Y2402285D01*
X688502Y2407079D01*
X695283Y2413860D01*
X700077Y2422164D01*
X702559Y2431426D01*
Y2441015D01*
X700077Y2450277D01*
X695283Y2458581D01*
X688502Y2465362D01*
X680198Y2470156D01*
X670936Y2472638D01*
D02*
G37*
G36*
X570936D02*
X561347D01*
X552085Y2470156D01*
X543781Y2465362D01*
X537001Y2458581D01*
X532206Y2450277D01*
X529724Y2441015D01*
Y2431426D01*
X532206Y2422164D01*
X537001Y2413860D01*
X543781Y2407079D01*
X552085Y2402285D01*
X561347Y2399803D01*
X570936D01*
X580198Y2402285D01*
X588502Y2407079D01*
X595283Y2413860D01*
X600077Y2422164D01*
X602559Y2431426D01*
Y2441015D01*
X600077Y2450277D01*
X595283Y2458581D01*
X588502Y2465362D01*
X580198Y2470156D01*
X570936Y2472638D01*
D02*
G37*
G36*
X3070936Y2372638D02*
X3061347D01*
X3052085Y2370156D01*
X3043781Y2365362D01*
X3037001Y2358581D01*
X3032206Y2350277D01*
X3029724Y2341015D01*
Y2331426D01*
X3032206Y2322164D01*
X3037001Y2313860D01*
X3043781Y2307079D01*
X3052085Y2302285D01*
X3061347Y2299803D01*
X3070936D01*
X3080198Y2302285D01*
X3088502Y2307079D01*
X3095283Y2313860D01*
X3100077Y2322164D01*
X3102559Y2331426D01*
Y2341015D01*
X3100077Y2350277D01*
X3095283Y2358581D01*
X3088502Y2365362D01*
X3080198Y2370156D01*
X3070936Y2372638D01*
D02*
G37*
G36*
X2970936D02*
X2961347D01*
X2952085Y2370156D01*
X2943781Y2365362D01*
X2937001Y2358581D01*
X2932206Y2350277D01*
X2929724Y2341015D01*
Y2331426D01*
X2932206Y2322164D01*
X2937001Y2313860D01*
X2943781Y2307079D01*
X2952085Y2302285D01*
X2961347Y2299803D01*
X2970936D01*
X2980198Y2302285D01*
X2988502Y2307079D01*
X2995283Y2313860D01*
X3000077Y2322164D01*
X3002559Y2331426D01*
Y2341015D01*
X3000077Y2350277D01*
X2995283Y2358581D01*
X2988502Y2365362D01*
X2980198Y2370156D01*
X2970936Y2372638D01*
D02*
G37*
G36*
X670936D02*
X661347D01*
X652085Y2370156D01*
X643781Y2365362D01*
X637001Y2358581D01*
X632206Y2350277D01*
X629724Y2341015D01*
Y2331426D01*
X632206Y2322164D01*
X637001Y2313860D01*
X643781Y2307079D01*
X652085Y2302285D01*
X661347Y2299803D01*
X670936D01*
X680198Y2302285D01*
X688502Y2307079D01*
X695283Y2313860D01*
X700077Y2322164D01*
X702559Y2331426D01*
Y2341015D01*
X700077Y2350277D01*
X695283Y2358581D01*
X688502Y2365362D01*
X680198Y2370156D01*
X670936Y2372638D01*
D02*
G37*
G36*
X570936D02*
X561347D01*
X552085Y2370156D01*
X543781Y2365362D01*
X537001Y2358581D01*
X532206Y2350277D01*
X529724Y2341015D01*
Y2331426D01*
X532206Y2322164D01*
X537001Y2313860D01*
X543781Y2307079D01*
X552085Y2302285D01*
X561347Y2299803D01*
X570936D01*
X580198Y2302285D01*
X588502Y2307079D01*
X595283Y2313860D01*
X600077Y2322164D01*
X602559Y2331426D01*
Y2341015D01*
X600077Y2350277D01*
X595283Y2358581D01*
X588502Y2365362D01*
X580198Y2370156D01*
X570936Y2372638D01*
D02*
G37*
G36*
X902953Y2373032D02*
X829331D01*
Y2299410D01*
X902953D01*
Y2373032D01*
D02*
G37*
G36*
X3070936Y2272638D02*
X3061347D01*
X3052085Y2270156D01*
X3043781Y2265362D01*
X3037001Y2258581D01*
X3032206Y2250277D01*
X3029724Y2241015D01*
Y2231426D01*
X3032206Y2222164D01*
X3037001Y2213860D01*
X3043781Y2207079D01*
X3052085Y2202285D01*
X3061347Y2199803D01*
X3070936D01*
X3080198Y2202285D01*
X3088502Y2207079D01*
X3095283Y2213860D01*
X3100077Y2222164D01*
X3102559Y2231426D01*
Y2241015D01*
X3100077Y2250277D01*
X3095283Y2258581D01*
X3088502Y2265362D01*
X3080198Y2270156D01*
X3070936Y2272638D01*
D02*
G37*
G36*
X2970936D02*
X2961347D01*
X2952085Y2270156D01*
X2943781Y2265362D01*
X2937001Y2258581D01*
X2932206Y2250277D01*
X2929724Y2241015D01*
Y2231426D01*
X2932206Y2222164D01*
X2937001Y2213860D01*
X2943781Y2207079D01*
X2952085Y2202285D01*
X2961347Y2199803D01*
X2970936D01*
X2980198Y2202285D01*
X2988502Y2207079D01*
X2995283Y2213860D01*
X3000077Y2222164D01*
X3002559Y2231426D01*
Y2241015D01*
X3000077Y2250277D01*
X2995283Y2258581D01*
X2988502Y2265362D01*
X2980198Y2270156D01*
X2970936Y2272638D01*
D02*
G37*
G36*
X670936D02*
X661347D01*
X652085Y2270156D01*
X643781Y2265362D01*
X637001Y2258581D01*
X632206Y2250277D01*
X629724Y2241015D01*
Y2231426D01*
X632206Y2222164D01*
X637001Y2213860D01*
X643781Y2207079D01*
X652085Y2202285D01*
X661347Y2199803D01*
X670936D01*
X680198Y2202285D01*
X688502Y2207079D01*
X695283Y2213860D01*
X700077Y2222164D01*
X702559Y2231426D01*
Y2241015D01*
X700077Y2250277D01*
X695283Y2258581D01*
X688502Y2265362D01*
X680198Y2270156D01*
X670936Y2272638D01*
D02*
G37*
G36*
X570936D02*
X561347D01*
X552085Y2270156D01*
X543781Y2265362D01*
X537001Y2258581D01*
X532206Y2250277D01*
X529724Y2241015D01*
Y2231426D01*
X532206Y2222164D01*
X537001Y2213860D01*
X543781Y2207079D01*
X552085Y2202285D01*
X561347Y2199803D01*
X570936D01*
X580198Y2202285D01*
X588502Y2207079D01*
X595283Y2213860D01*
X600077Y2222164D01*
X602559Y2231426D01*
Y2241015D01*
X600077Y2250277D01*
X595283Y2258581D01*
X588502Y2265362D01*
X580198Y2270156D01*
X570936Y2272638D01*
D02*
G37*
G36*
X870988Y2273032D02*
X861295D01*
X851933Y2270523D01*
X843539Y2265677D01*
X836686Y2258823D01*
X831839Y2250429D01*
X829331Y2241067D01*
Y2231374D01*
X831839Y2222012D01*
X836686Y2213618D01*
X843539Y2206764D01*
X851933Y2201918D01*
X861295Y2199410D01*
X870988D01*
X880350Y2201918D01*
X888744Y2206764D01*
X895598Y2213618D01*
X900444Y2222012D01*
X902953Y2231374D01*
Y2241067D01*
X900444Y2250429D01*
X895598Y2258823D01*
X888744Y2265677D01*
X880350Y2270523D01*
X870988Y2273032D01*
D02*
G37*
G36*
X3070936Y2172638D02*
X3061347D01*
X3052085Y2170156D01*
X3043781Y2165362D01*
X3037001Y2158581D01*
X3032206Y2150277D01*
X3029724Y2141015D01*
Y2131426D01*
X3032206Y2122164D01*
X3037001Y2113860D01*
X3043781Y2107079D01*
X3052085Y2102285D01*
X3061347Y2099803D01*
X3070936D01*
X3080198Y2102285D01*
X3088502Y2107079D01*
X3095283Y2113860D01*
X3100077Y2122164D01*
X3102559Y2131426D01*
Y2141015D01*
X3100077Y2150277D01*
X3095283Y2158581D01*
X3088502Y2165362D01*
X3080198Y2170156D01*
X3070936Y2172638D01*
D02*
G37*
G36*
X2970936D02*
X2961347D01*
X2952085Y2170156D01*
X2943781Y2165362D01*
X2937001Y2158581D01*
X2932206Y2150277D01*
X2929724Y2141015D01*
Y2131426D01*
X2932206Y2122164D01*
X2937001Y2113860D01*
X2943781Y2107079D01*
X2952085Y2102285D01*
X2961347Y2099803D01*
X2970936D01*
X2980198Y2102285D01*
X2988502Y2107079D01*
X2995283Y2113860D01*
X3000077Y2122164D01*
X3002559Y2131426D01*
Y2141015D01*
X3000077Y2150277D01*
X2995283Y2158581D01*
X2988502Y2165362D01*
X2980198Y2170156D01*
X2970936Y2172638D01*
D02*
G37*
G36*
X670936D02*
X661347D01*
X652085Y2170156D01*
X643781Y2165362D01*
X637001Y2158581D01*
X632206Y2150277D01*
X629724Y2141015D01*
Y2131426D01*
X632206Y2122164D01*
X637001Y2113860D01*
X643781Y2107079D01*
X652085Y2102285D01*
X661347Y2099803D01*
X670936D01*
X680198Y2102285D01*
X688502Y2107079D01*
X695283Y2113860D01*
X700077Y2122164D01*
X702559Y2131426D01*
Y2141015D01*
X700077Y2150277D01*
X695283Y2158581D01*
X688502Y2165362D01*
X680198Y2170156D01*
X670936Y2172638D01*
D02*
G37*
G36*
X570936D02*
X561347D01*
X552085Y2170156D01*
X543781Y2165362D01*
X537001Y2158581D01*
X532206Y2150277D01*
X529724Y2141015D01*
Y2131426D01*
X532206Y2122164D01*
X537001Y2113860D01*
X543781Y2107079D01*
X552085Y2102285D01*
X561347Y2099803D01*
X570936D01*
X580198Y2102285D01*
X588502Y2107079D01*
X595283Y2113860D01*
X600077Y2122164D01*
X602559Y2131426D01*
Y2141015D01*
X600077Y2150277D01*
X595283Y2158581D01*
X588502Y2165362D01*
X580198Y2170156D01*
X570936Y2172638D01*
D02*
G37*
G36*
X870988Y2173032D02*
X861295D01*
X851933Y2170523D01*
X843539Y2165677D01*
X836686Y2158823D01*
X831839Y2150429D01*
X829331Y2141067D01*
Y2131374D01*
X831839Y2122012D01*
X836686Y2113618D01*
X843539Y2106764D01*
X851933Y2101918D01*
X861295Y2099410D01*
X870988D01*
X880350Y2101918D01*
X888744Y2106764D01*
X895598Y2113618D01*
X900444Y2122012D01*
X902953Y2131374D01*
Y2141067D01*
X900444Y2150429D01*
X895598Y2158823D01*
X888744Y2165677D01*
X880350Y2170523D01*
X870988Y2173032D01*
D02*
G37*
G36*
X3070936Y2072638D02*
X3061347D01*
X3052085Y2070156D01*
X3043781Y2065362D01*
X3037001Y2058581D01*
X3032206Y2050277D01*
X3029724Y2041015D01*
Y2031426D01*
X3032206Y2022164D01*
X3037001Y2013860D01*
X3043781Y2007079D01*
X3052085Y2002285D01*
X3061347Y1999803D01*
X3070936D01*
X3080198Y2002285D01*
X3088502Y2007079D01*
X3095283Y2013860D01*
X3100077Y2022164D01*
X3102559Y2031426D01*
Y2041015D01*
X3100077Y2050277D01*
X3095283Y2058581D01*
X3088502Y2065362D01*
X3080198Y2070156D01*
X3070936Y2072638D01*
D02*
G37*
G36*
X2970936D02*
X2961347D01*
X2952085Y2070156D01*
X2943781Y2065362D01*
X2937001Y2058581D01*
X2932206Y2050277D01*
X2929724Y2041015D01*
Y2031426D01*
X2932206Y2022164D01*
X2937001Y2013860D01*
X2943781Y2007079D01*
X2952085Y2002285D01*
X2961347Y1999803D01*
X2970936D01*
X2980198Y2002285D01*
X2988502Y2007079D01*
X2995283Y2013860D01*
X3000077Y2022164D01*
X3002559Y2031426D01*
Y2041015D01*
X3000077Y2050277D01*
X2995283Y2058581D01*
X2988502Y2065362D01*
X2980198Y2070156D01*
X2970936Y2072638D01*
D02*
G37*
G36*
X670936D02*
X661347D01*
X652085Y2070156D01*
X643781Y2065362D01*
X637001Y2058581D01*
X632206Y2050277D01*
X629724Y2041015D01*
Y2031426D01*
X632206Y2022164D01*
X637001Y2013860D01*
X643781Y2007079D01*
X652085Y2002285D01*
X661347Y1999803D01*
X670936D01*
X680198Y2002285D01*
X688502Y2007079D01*
X695283Y2013860D01*
X700077Y2022164D01*
X702559Y2031426D01*
Y2041015D01*
X700077Y2050277D01*
X695283Y2058581D01*
X688502Y2065362D01*
X680198Y2070156D01*
X670936Y2072638D01*
D02*
G37*
G36*
X570936D02*
X561347D01*
X552085Y2070156D01*
X543781Y2065362D01*
X537001Y2058581D01*
X532206Y2050277D01*
X529724Y2041015D01*
Y2031426D01*
X532206Y2022164D01*
X537001Y2013860D01*
X543781Y2007079D01*
X552085Y2002285D01*
X561347Y1999803D01*
X570936D01*
X580198Y2002285D01*
X588502Y2007079D01*
X595283Y2013860D01*
X600077Y2022164D01*
X602559Y2031426D01*
Y2041015D01*
X600077Y2050277D01*
X595283Y2058581D01*
X588502Y2065362D01*
X580198Y2070156D01*
X570936Y2072638D01*
D02*
G37*
G36*
X870988Y2073032D02*
X861295D01*
X851933Y2070523D01*
X843539Y2065677D01*
X836686Y2058823D01*
X831839Y2050429D01*
X829331Y2041067D01*
Y2031374D01*
X831839Y2022012D01*
X836686Y2013618D01*
X843539Y2006764D01*
X851933Y2001918D01*
X861295Y1999409D01*
X870988D01*
X880350Y2001918D01*
X888744Y2006764D01*
X895598Y2013618D01*
X900444Y2022012D01*
X902953Y2031374D01*
Y2041067D01*
X900444Y2050429D01*
X895598Y2058823D01*
X888744Y2065677D01*
X880350Y2070523D01*
X870988Y2073032D01*
D02*
G37*
G36*
X3070936Y1972638D02*
X3061347D01*
X3052085Y1970156D01*
X3043781Y1965362D01*
X3037001Y1958581D01*
X3032206Y1950277D01*
X3029724Y1941015D01*
Y1931426D01*
X3032206Y1922164D01*
X3037001Y1913860D01*
X3043781Y1907079D01*
X3052085Y1902285D01*
X3061347Y1899803D01*
X3070936D01*
X3080198Y1902285D01*
X3088502Y1907079D01*
X3095283Y1913860D01*
X3100077Y1922164D01*
X3102559Y1931426D01*
Y1941015D01*
X3100077Y1950277D01*
X3095283Y1958581D01*
X3088502Y1965362D01*
X3080198Y1970156D01*
X3070936Y1972638D01*
D02*
G37*
G36*
X2970936D02*
X2961347D01*
X2952085Y1970156D01*
X2943781Y1965362D01*
X2937001Y1958581D01*
X2932206Y1950277D01*
X2929724Y1941015D01*
Y1931426D01*
X2932206Y1922164D01*
X2937001Y1913860D01*
X2943781Y1907079D01*
X2952085Y1902285D01*
X2961347Y1899803D01*
X2970936D01*
X2980198Y1902285D01*
X2988502Y1907079D01*
X2995283Y1913860D01*
X3000077Y1922164D01*
X3002559Y1931426D01*
Y1941015D01*
X3000077Y1950277D01*
X2995283Y1958581D01*
X2988502Y1965362D01*
X2980198Y1970156D01*
X2970936Y1972638D01*
D02*
G37*
G36*
X670936D02*
X661347D01*
X652085Y1970156D01*
X643781Y1965362D01*
X637001Y1958581D01*
X632206Y1950277D01*
X629724Y1941015D01*
Y1931426D01*
X632206Y1922164D01*
X637001Y1913860D01*
X643781Y1907079D01*
X652085Y1902285D01*
X661347Y1899803D01*
X670936D01*
X680198Y1902285D01*
X688502Y1907079D01*
X695283Y1913860D01*
X700077Y1922164D01*
X702559Y1931426D01*
Y1941015D01*
X700077Y1950277D01*
X695283Y1958581D01*
X688502Y1965362D01*
X680198Y1970156D01*
X670936Y1972638D01*
D02*
G37*
G36*
X570936D02*
X561347D01*
X552085Y1970156D01*
X543781Y1965362D01*
X537001Y1958581D01*
X532206Y1950277D01*
X529724Y1941015D01*
Y1931426D01*
X532206Y1922164D01*
X537001Y1913860D01*
X543781Y1907079D01*
X552085Y1902285D01*
X561347Y1899803D01*
X570936D01*
X580198Y1902285D01*
X588502Y1907079D01*
X595283Y1913860D01*
X600077Y1922164D01*
X602559Y1931426D01*
Y1941015D01*
X600077Y1950277D01*
X595283Y1958581D01*
X588502Y1965362D01*
X580198Y1970156D01*
X570936Y1972638D01*
D02*
G37*
G36*
X870988Y1973032D02*
X861295D01*
X851933Y1970523D01*
X843539Y1965677D01*
X836686Y1958823D01*
X831839Y1950429D01*
X829331Y1941067D01*
Y1931374D01*
X831839Y1922012D01*
X836686Y1913618D01*
X843539Y1906764D01*
X851933Y1901918D01*
X861295Y1899409D01*
X870988D01*
X880350Y1901918D01*
X888744Y1906764D01*
X895598Y1913618D01*
X900444Y1922012D01*
X902953Y1931374D01*
Y1941067D01*
X900444Y1950429D01*
X895598Y1958823D01*
X888744Y1965677D01*
X880350Y1970523D01*
X870988Y1973032D01*
D02*
G37*
G36*
X1820298Y1898622D02*
X1813560D01*
X1807052Y1896878D01*
X1801216Y1893509D01*
X1796452Y1888744D01*
X1793083Y1882909D01*
X1791339Y1876401D01*
Y1869662D01*
X1793083Y1863154D01*
X1796452Y1857319D01*
X1801216Y1852554D01*
X1807052Y1849185D01*
X1813560Y1847441D01*
X1820298D01*
X1826631Y1849138D01*
X1869872Y1805896D01*
X1873128Y1803721D01*
X1876968Y1802957D01*
X1984252D01*
X1988092Y1803721D01*
X1991348Y1805896D01*
X2008999Y1823547D01*
X2015332Y1821850D01*
X2022070D01*
X2028578Y1823594D01*
X2034414Y1826963D01*
X2039178Y1831728D01*
X2042547Y1837563D01*
X2044291Y1844072D01*
Y1850810D01*
X2042547Y1857319D01*
X2039178Y1863154D01*
X2034414Y1867918D01*
X2028578Y1871287D01*
X2022070Y1873031D01*
X2015332D01*
X2008823Y1871287D01*
X2002988Y1867918D01*
X1998223Y1863154D01*
X1994854Y1857319D01*
X1993110Y1850810D01*
Y1844072D01*
X1994807Y1837739D01*
X1980095Y1823027D01*
X1881125D01*
X1840823Y1863330D01*
X1842520Y1869662D01*
Y1876401D01*
X1840776Y1882909D01*
X1837407Y1888744D01*
X1832642Y1893509D01*
X1826807Y1896878D01*
X1820298Y1898622D01*
D02*
G37*
G36*
X3070936Y1872638D02*
X3061347D01*
X3052085Y1870156D01*
X3043781Y1865362D01*
X3037001Y1858581D01*
X3032206Y1850277D01*
X3029724Y1841015D01*
Y1831426D01*
X3032206Y1822164D01*
X3037001Y1813860D01*
X3043781Y1807079D01*
X3052085Y1802285D01*
X3061347Y1799803D01*
X3070936D01*
X3080198Y1802285D01*
X3088502Y1807079D01*
X3095283Y1813860D01*
X3100077Y1822164D01*
X3102559Y1831426D01*
Y1841015D01*
X3100077Y1850277D01*
X3095283Y1858581D01*
X3088502Y1865362D01*
X3080198Y1870156D01*
X3070936Y1872638D01*
D02*
G37*
G36*
X2970936D02*
X2961347D01*
X2952085Y1870156D01*
X2943781Y1865362D01*
X2937001Y1858581D01*
X2932206Y1850277D01*
X2929724Y1841015D01*
Y1831426D01*
X2932206Y1822164D01*
X2937001Y1813860D01*
X2943781Y1807079D01*
X2952085Y1802285D01*
X2961347Y1799803D01*
X2970936D01*
X2980198Y1802285D01*
X2988502Y1807079D01*
X2995283Y1813860D01*
X3000077Y1822164D01*
X3002559Y1831426D01*
Y1841015D01*
X3000077Y1850277D01*
X2995283Y1858581D01*
X2988502Y1865362D01*
X2980198Y1870156D01*
X2970936Y1872638D01*
D02*
G37*
G36*
X670936D02*
X661347D01*
X652085Y1870156D01*
X643781Y1865362D01*
X637001Y1858581D01*
X632206Y1850277D01*
X629724Y1841015D01*
Y1831426D01*
X632206Y1822164D01*
X637001Y1813860D01*
X643781Y1807079D01*
X652085Y1802285D01*
X661347Y1799803D01*
X670936D01*
X680198Y1802285D01*
X688502Y1807079D01*
X695283Y1813860D01*
X700077Y1822164D01*
X702559Y1831426D01*
Y1841015D01*
X700077Y1850277D01*
X695283Y1858581D01*
X688502Y1865362D01*
X680198Y1870156D01*
X670936Y1872638D01*
D02*
G37*
G36*
X570936D02*
X561347D01*
X552085Y1870156D01*
X543781Y1865362D01*
X537001Y1858581D01*
X532206Y1850277D01*
X529724Y1841015D01*
Y1831426D01*
X532206Y1822164D01*
X537001Y1813860D01*
X543781Y1807079D01*
X552085Y1802285D01*
X561347Y1799803D01*
X570936D01*
X580198Y1802285D01*
X588502Y1807079D01*
X595283Y1813860D01*
X600077Y1822164D01*
X602559Y1831426D01*
Y1841015D01*
X600077Y1850277D01*
X595283Y1858581D01*
X588502Y1865362D01*
X580198Y1870156D01*
X570936Y1872638D01*
D02*
G37*
G36*
X870988Y1873032D02*
X861295D01*
X851933Y1870523D01*
X843539Y1865677D01*
X836686Y1858823D01*
X831839Y1850429D01*
X829331Y1841067D01*
Y1831374D01*
X831839Y1822012D01*
X836686Y1813618D01*
X843539Y1806764D01*
X851933Y1801918D01*
X861295Y1799409D01*
X870988D01*
X880350Y1801918D01*
X888744Y1806764D01*
X895598Y1813618D01*
X900444Y1822012D01*
X902953Y1831374D01*
Y1841067D01*
X900444Y1850429D01*
X895598Y1858823D01*
X888744Y1865677D01*
X880350Y1870523D01*
X870988Y1873032D01*
D02*
G37*
G36*
X2131322Y1966535D02*
X2124584D01*
X2118075Y1964791D01*
X2112240Y1961422D01*
X2107475Y1956658D01*
X2104106Y1950822D01*
X2102362Y1944314D01*
Y1937576D01*
X2104106Y1931067D01*
X2107475Y1925232D01*
X2112240Y1920467D01*
X2118075Y1917098D01*
X2119394Y1916745D01*
Y1802431D01*
X2115193Y1800005D01*
X2110428Y1795241D01*
X2107059Y1789405D01*
X2105315Y1782897D01*
Y1776159D01*
X2107059Y1769650D01*
X2110428Y1763815D01*
X2115193Y1759050D01*
X2121028Y1755681D01*
X2127536Y1753937D01*
X2134275D01*
X2140783Y1755681D01*
X2146618Y1759050D01*
X2151383Y1763815D01*
X2154752Y1769650D01*
X2156496Y1776159D01*
Y1782897D01*
X2154752Y1789405D01*
X2151383Y1795241D01*
X2146618Y1800005D01*
X2140783Y1803374D01*
X2139464Y1803727D01*
Y1918042D01*
X2143666Y1920467D01*
X2148430Y1925232D01*
X2151799Y1931067D01*
X2153543Y1937576D01*
Y1944314D01*
X2151799Y1950822D01*
X2148430Y1956658D01*
X2143666Y1961422D01*
X2137830Y1964791D01*
X2131322Y1966535D01*
D02*
G37*
G36*
X3070936Y1772638D02*
X3061347D01*
X3052085Y1770156D01*
X3043781Y1765362D01*
X3037001Y1758581D01*
X3032206Y1750277D01*
X3029724Y1741015D01*
Y1731426D01*
X3032206Y1722164D01*
X3037001Y1713860D01*
X3043781Y1707079D01*
X3052085Y1702285D01*
X3061347Y1699803D01*
X3070936D01*
X3080198Y1702285D01*
X3088502Y1707079D01*
X3095283Y1713860D01*
X3100077Y1722164D01*
X3102559Y1731426D01*
Y1741015D01*
X3100077Y1750277D01*
X3095283Y1758581D01*
X3088502Y1765362D01*
X3080198Y1770156D01*
X3070936Y1772638D01*
D02*
G37*
G36*
X2970936D02*
X2961347D01*
X2952085Y1770156D01*
X2943781Y1765362D01*
X2937001Y1758581D01*
X2932206Y1750277D01*
X2929724Y1741015D01*
Y1731426D01*
X2932206Y1722164D01*
X2937001Y1713860D01*
X2943781Y1707079D01*
X2952085Y1702285D01*
X2961347Y1699803D01*
X2970936D01*
X2980198Y1702285D01*
X2988502Y1707079D01*
X2995283Y1713860D01*
X3000077Y1722164D01*
X3002559Y1731426D01*
Y1741015D01*
X3000077Y1750277D01*
X2995283Y1758581D01*
X2988502Y1765362D01*
X2980198Y1770156D01*
X2970936Y1772638D01*
D02*
G37*
G36*
X670936D02*
X661347D01*
X652085Y1770156D01*
X643781Y1765362D01*
X637001Y1758581D01*
X632206Y1750277D01*
X629724Y1741015D01*
Y1731426D01*
X632206Y1722164D01*
X637001Y1713860D01*
X643781Y1707079D01*
X652085Y1702285D01*
X661347Y1699803D01*
X670936D01*
X680198Y1702285D01*
X688502Y1707079D01*
X695283Y1713860D01*
X700077Y1722164D01*
X702559Y1731426D01*
Y1741015D01*
X700077Y1750277D01*
X695283Y1758581D01*
X688502Y1765362D01*
X680198Y1770156D01*
X670936Y1772638D01*
D02*
G37*
G36*
X570936D02*
X561347D01*
X552085Y1770156D01*
X543781Y1765362D01*
X537001Y1758581D01*
X532206Y1750277D01*
X529724Y1741015D01*
Y1731426D01*
X532206Y1722164D01*
X537001Y1713860D01*
X543781Y1707079D01*
X552085Y1702285D01*
X561347Y1699803D01*
X570936D01*
X580198Y1702285D01*
X588502Y1707079D01*
X595283Y1713860D01*
X600077Y1722164D01*
X602559Y1731426D01*
Y1741015D01*
X600077Y1750277D01*
X595283Y1758581D01*
X588502Y1765362D01*
X580198Y1770156D01*
X570936Y1772638D01*
D02*
G37*
G36*
X870988Y1773032D02*
X861295D01*
X851933Y1770523D01*
X843539Y1765677D01*
X836686Y1758823D01*
X831839Y1750429D01*
X829331Y1741067D01*
Y1731374D01*
X831839Y1722012D01*
X836686Y1713618D01*
X843539Y1706764D01*
X851933Y1701918D01*
X861295Y1699409D01*
X870988D01*
X880350Y1701918D01*
X888744Y1706764D01*
X895598Y1713618D01*
X900444Y1722012D01*
X902953Y1731374D01*
Y1741067D01*
X900444Y1750429D01*
X895598Y1758823D01*
X888744Y1765677D01*
X880350Y1770523D01*
X870988Y1773032D01*
D02*
G37*
G36*
X1990574Y1781496D02*
X1983836D01*
X1977327Y1779752D01*
X1971492Y1776383D01*
X1966727Y1771618D01*
X1963358Y1765783D01*
X1961614Y1759275D01*
Y1752536D01*
X1963358Y1746028D01*
X1966727Y1740193D01*
X1971492Y1735428D01*
X1977327Y1732059D01*
X1983836Y1730315D01*
X1990574D01*
X1991019Y1730434D01*
X1995708Y1725745D01*
Y1721619D01*
X1996472Y1717778D01*
X1998647Y1714523D01*
X2004650Y1708521D01*
X2002953Y1702188D01*
Y1695450D01*
X2004697Y1688941D01*
X2008066Y1683106D01*
X2012830Y1678341D01*
X2018666Y1674972D01*
X2025174Y1673228D01*
X2031912D01*
X2038421Y1674972D01*
X2044256Y1678341D01*
X2049021Y1683106D01*
X2052390Y1688941D01*
X2054134Y1695450D01*
Y1702188D01*
X2052390Y1708697D01*
X2049021Y1714532D01*
X2044256Y1719296D01*
X2038421Y1722665D01*
X2031912Y1724409D01*
X2025174D01*
X2019593Y1722914D01*
X2015779Y1726185D01*
Y1729902D01*
X2015015Y1733743D01*
X2012839Y1736998D01*
X2008401Y1741437D01*
X2011051Y1746028D01*
X2012795Y1752536D01*
Y1759275D01*
X2011051Y1765783D01*
X2007682Y1771618D01*
X2002918Y1776383D01*
X1997082Y1779752D01*
X1990574Y1781496D01*
D02*
G37*
G36*
X1522070Y1718504D02*
X1515332D01*
X1508823Y1716760D01*
X1502988Y1713391D01*
X1498223Y1708626D01*
X1494854Y1702791D01*
X1493110Y1696283D01*
Y1689544D01*
X1494854Y1683036D01*
X1498223Y1677200D01*
X1502988Y1672436D01*
X1508823Y1669067D01*
X1515332Y1667323D01*
X1522070D01*
X1525297Y1668188D01*
X1540505Y1652980D01*
X1539146Y1650626D01*
X1537402Y1644117D01*
Y1637379D01*
X1539146Y1630870D01*
X1542515Y1625035D01*
X1547279Y1620271D01*
X1553114Y1616901D01*
X1559623Y1615158D01*
X1566361D01*
X1572870Y1616901D01*
X1578705Y1620271D01*
X1583470Y1625035D01*
X1586839Y1630870D01*
X1588583Y1637379D01*
Y1644117D01*
X1586839Y1650626D01*
X1583470Y1656461D01*
X1578705Y1661226D01*
X1572870Y1664594D01*
X1566361Y1666339D01*
X1559623D01*
X1556396Y1665474D01*
X1541188Y1680681D01*
X1542547Y1683036D01*
X1544291Y1689544D01*
Y1696283D01*
X1542547Y1702791D01*
X1539178Y1708626D01*
X1534414Y1713391D01*
X1528578Y1716760D01*
X1522070Y1718504D01*
D02*
G37*
G36*
X3070936Y1672638D02*
X3061347D01*
X3052085Y1670156D01*
X3043781Y1665362D01*
X3037001Y1658581D01*
X3032206Y1650277D01*
X3029724Y1641015D01*
Y1631426D01*
X3032206Y1622164D01*
X3037001Y1613860D01*
X3043781Y1607079D01*
X3052085Y1602285D01*
X3061347Y1599803D01*
X3070936D01*
X3080198Y1602285D01*
X3088502Y1607079D01*
X3095283Y1613860D01*
X3100077Y1622164D01*
X3102559Y1631426D01*
Y1641015D01*
X3100077Y1650277D01*
X3095283Y1658581D01*
X3088502Y1665362D01*
X3080198Y1670156D01*
X3070936Y1672638D01*
D02*
G37*
G36*
X2970936D02*
X2961347D01*
X2952085Y1670156D01*
X2943781Y1665362D01*
X2937001Y1658581D01*
X2932206Y1650277D01*
X2929724Y1641015D01*
Y1631426D01*
X2932206Y1622164D01*
X2937001Y1613860D01*
X2943781Y1607079D01*
X2952085Y1602285D01*
X2961347Y1599803D01*
X2970936D01*
X2980198Y1602285D01*
X2988502Y1607079D01*
X2995283Y1613860D01*
X3000077Y1622164D01*
X3002559Y1631426D01*
Y1641015D01*
X3000077Y1650277D01*
X2995283Y1658581D01*
X2988502Y1665362D01*
X2980198Y1670156D01*
X2970936Y1672638D01*
D02*
G37*
G36*
X670936D02*
X661347D01*
X652085Y1670156D01*
X643781Y1665362D01*
X637001Y1658581D01*
X632206Y1650277D01*
X629724Y1641015D01*
Y1631426D01*
X632206Y1622164D01*
X637001Y1613860D01*
X643781Y1607079D01*
X652085Y1602285D01*
X661347Y1599803D01*
X670936D01*
X680198Y1602285D01*
X688502Y1607079D01*
X695283Y1613860D01*
X700077Y1622164D01*
X702559Y1631426D01*
Y1641015D01*
X700077Y1650277D01*
X695283Y1658581D01*
X688502Y1665362D01*
X680198Y1670156D01*
X670936Y1672638D01*
D02*
G37*
G36*
X570936D02*
X561347D01*
X552085Y1670156D01*
X543781Y1665362D01*
X537001Y1658581D01*
X532206Y1650277D01*
X529724Y1641015D01*
Y1631426D01*
X532206Y1622164D01*
X537001Y1613860D01*
X543781Y1607079D01*
X552085Y1602285D01*
X561347Y1599803D01*
X570936D01*
X580198Y1602285D01*
X588502Y1607079D01*
X595283Y1613860D01*
X600077Y1622164D01*
X602559Y1631426D01*
Y1641015D01*
X600077Y1650277D01*
X595283Y1658581D01*
X588502Y1665362D01*
X580198Y1670156D01*
X570936Y1672638D01*
D02*
G37*
G36*
X870988Y1673032D02*
X861295D01*
X851933Y1670523D01*
X843539Y1665677D01*
X836686Y1658823D01*
X831839Y1650429D01*
X829331Y1641067D01*
Y1631374D01*
X831839Y1622012D01*
X836686Y1613618D01*
X843539Y1606764D01*
X851933Y1601918D01*
X861295Y1599409D01*
X870988D01*
X880350Y1601918D01*
X888744Y1606764D01*
X895598Y1613618D01*
X900444Y1622012D01*
X902953Y1631374D01*
Y1641067D01*
X900444Y1650429D01*
X895598Y1658823D01*
X888744Y1665677D01*
X880350Y1670523D01*
X870988Y1673032D01*
D02*
G37*
G36*
X2600810Y1581693D02*
X2594072D01*
X2587563Y1579949D01*
X2581728Y1576580D01*
X2576963Y1571815D01*
X2573685Y1566138D01*
X2478347D01*
X2474506Y1565374D01*
X2471251Y1563198D01*
X2424072Y1516020D01*
X2417739Y1517716D01*
X2411001D01*
X2404492Y1515973D01*
X2398657Y1512603D01*
X2393893Y1507839D01*
X2390524Y1502004D01*
X2388780Y1495495D01*
Y1488757D01*
X2390524Y1482248D01*
X2393893Y1476413D01*
X2398657Y1471649D01*
X2404492Y1468280D01*
X2411001Y1466535D01*
X2417739D01*
X2424248Y1468280D01*
X2430083Y1471649D01*
X2434848Y1476413D01*
X2438217Y1482248D01*
X2439961Y1488757D01*
Y1495495D01*
X2438264Y1501828D01*
X2482503Y1546067D01*
X2573685D01*
X2576963Y1540389D01*
X2581728Y1535625D01*
X2587563Y1532256D01*
X2594072Y1530512D01*
X2600810D01*
X2607318Y1532256D01*
X2613154Y1535625D01*
X2617918Y1540389D01*
X2621287Y1546225D01*
X2623031Y1552733D01*
Y1559472D01*
X2621287Y1565980D01*
X2617918Y1571815D01*
X2613154Y1576580D01*
X2607318Y1579949D01*
X2600810Y1581693D01*
D02*
G37*
G36*
X3070936Y1572638D02*
X3061347D01*
X3052085Y1570156D01*
X3043781Y1565362D01*
X3037001Y1558581D01*
X3032206Y1550277D01*
X3029724Y1541015D01*
Y1531426D01*
X3032206Y1522164D01*
X3037001Y1513860D01*
X3043781Y1507079D01*
X3052085Y1502285D01*
X3061347Y1499803D01*
X3070936D01*
X3080198Y1502285D01*
X3088502Y1507079D01*
X3095283Y1513860D01*
X3100077Y1522164D01*
X3102559Y1531426D01*
Y1541015D01*
X3100077Y1550277D01*
X3095283Y1558581D01*
X3088502Y1565362D01*
X3080198Y1570156D01*
X3070936Y1572638D01*
D02*
G37*
G36*
X2970936D02*
X2961347D01*
X2952085Y1570156D01*
X2943781Y1565362D01*
X2937001Y1558581D01*
X2932206Y1550277D01*
X2929724Y1541015D01*
Y1531426D01*
X2932206Y1522164D01*
X2937001Y1513860D01*
X2943781Y1507079D01*
X2952085Y1502285D01*
X2961347Y1499803D01*
X2970936D01*
X2980198Y1502285D01*
X2988502Y1507079D01*
X2995283Y1513860D01*
X3000077Y1522164D01*
X3002559Y1531426D01*
Y1541015D01*
X3000077Y1550277D01*
X2995283Y1558581D01*
X2988502Y1565362D01*
X2980198Y1570156D01*
X2970936Y1572638D01*
D02*
G37*
G36*
X670936D02*
X661347D01*
X652085Y1570156D01*
X643781Y1565362D01*
X637001Y1558581D01*
X632206Y1550277D01*
X629724Y1541015D01*
Y1531426D01*
X632206Y1522164D01*
X637001Y1513860D01*
X643781Y1507079D01*
X652085Y1502285D01*
X661347Y1499803D01*
X670936D01*
X680198Y1502285D01*
X688502Y1507079D01*
X695283Y1513860D01*
X700077Y1522164D01*
X702559Y1531426D01*
Y1541015D01*
X700077Y1550277D01*
X695283Y1558581D01*
X688502Y1565362D01*
X680198Y1570156D01*
X670936Y1572638D01*
D02*
G37*
G36*
X570936D02*
X561347D01*
X552085Y1570156D01*
X543781Y1565362D01*
X537001Y1558581D01*
X532206Y1550277D01*
X529724Y1541015D01*
Y1531426D01*
X532206Y1522164D01*
X537001Y1513860D01*
X543781Y1507079D01*
X552085Y1502285D01*
X561347Y1499803D01*
X570936D01*
X580198Y1502285D01*
X588502Y1507079D01*
X595283Y1513860D01*
X600077Y1522164D01*
X602559Y1531426D01*
Y1541015D01*
X600077Y1550277D01*
X595283Y1558581D01*
X588502Y1565362D01*
X580198Y1570156D01*
X570936Y1572638D01*
D02*
G37*
G36*
X3070936Y1472638D02*
X3061347D01*
X3052085Y1470156D01*
X3043781Y1465362D01*
X3037001Y1458581D01*
X3032206Y1450277D01*
X3029724Y1441015D01*
Y1431426D01*
X3032206Y1422164D01*
X3037001Y1413860D01*
X3043781Y1407079D01*
X3052085Y1402285D01*
X3061347Y1399803D01*
X3070936D01*
X3080198Y1402285D01*
X3088502Y1407079D01*
X3095283Y1413860D01*
X3100077Y1422164D01*
X3102559Y1431426D01*
Y1441015D01*
X3100077Y1450277D01*
X3095283Y1458581D01*
X3088502Y1465362D01*
X3080198Y1470156D01*
X3070936Y1472638D01*
D02*
G37*
G36*
X2970936D02*
X2961347D01*
X2952085Y1470156D01*
X2943781Y1465362D01*
X2937001Y1458581D01*
X2932206Y1450277D01*
X2929724Y1441015D01*
Y1431426D01*
X2932206Y1422164D01*
X2937001Y1413860D01*
X2943781Y1407079D01*
X2952085Y1402285D01*
X2961347Y1399803D01*
X2970936D01*
X2980198Y1402285D01*
X2988502Y1407079D01*
X2995283Y1413860D01*
X3000077Y1422164D01*
X3002559Y1431426D01*
Y1441015D01*
X3000077Y1450277D01*
X2995283Y1458581D01*
X2988502Y1465362D01*
X2980198Y1470156D01*
X2970936Y1472638D01*
D02*
G37*
G36*
X670936D02*
X661347D01*
X652085Y1470156D01*
X643781Y1465362D01*
X637001Y1458581D01*
X632206Y1450277D01*
X629724Y1441015D01*
Y1431426D01*
X632206Y1422164D01*
X637001Y1413860D01*
X643781Y1407079D01*
X652085Y1402285D01*
X661347Y1399803D01*
X670936D01*
X680198Y1402285D01*
X688502Y1407079D01*
X695283Y1413860D01*
X700077Y1422164D01*
X702559Y1431426D01*
Y1441015D01*
X700077Y1450277D01*
X695283Y1458581D01*
X688502Y1465362D01*
X680198Y1470156D01*
X670936Y1472638D01*
D02*
G37*
G36*
X570936D02*
X561347D01*
X552085Y1470156D01*
X543781Y1465362D01*
X537001Y1458581D01*
X532206Y1450277D01*
X529724Y1441015D01*
Y1431426D01*
X532206Y1422164D01*
X537001Y1413860D01*
X543781Y1407079D01*
X552085Y1402285D01*
X561347Y1399803D01*
X570936D01*
X580198Y1402285D01*
X588502Y1407079D01*
X595283Y1413860D01*
X600077Y1422164D01*
X602559Y1431426D01*
Y1441015D01*
X600077Y1450277D01*
X595283Y1458581D01*
X588502Y1465362D01*
X580198Y1470156D01*
X570936Y1472638D01*
D02*
G37*
G36*
X2658881Y1366142D02*
X2652143D01*
X2645634Y1364398D01*
X2639799Y1361029D01*
X2635034Y1356264D01*
X2631665Y1350429D01*
X2630389Y1345665D01*
X2579969D01*
X2579533Y1346422D01*
X2574768Y1351186D01*
X2568933Y1354555D01*
X2562424Y1356299D01*
X2555686D01*
X2549177Y1354555D01*
X2543342Y1351186D01*
X2538578Y1346422D01*
X2535209Y1340586D01*
X2533465Y1334078D01*
Y1327340D01*
X2535209Y1320831D01*
X2538578Y1314996D01*
X2543342Y1310231D01*
X2549177Y1306862D01*
X2555686Y1305118D01*
X2562424D01*
X2568933Y1306862D01*
X2574768Y1310231D01*
X2579533Y1314996D01*
X2582902Y1320831D01*
X2584178Y1325595D01*
X2634598D01*
X2635034Y1324838D01*
X2639799Y1320074D01*
X2645634Y1316705D01*
X2652143Y1314961D01*
X2658881D01*
X2665389Y1316705D01*
X2671225Y1320074D01*
X2675989Y1324838D01*
X2679358Y1330674D01*
X2681102Y1337182D01*
Y1343920D01*
X2679358Y1350429D01*
X2675989Y1356264D01*
X2671225Y1361029D01*
X2665389Y1364398D01*
X2658881Y1366142D01*
D02*
G37*
G36*
X1427582Y1433071D02*
X1420843D01*
X1414335Y1431327D01*
X1408500Y1427958D01*
X1403735Y1423193D01*
X1400366Y1417358D01*
X1398622Y1410849D01*
Y1404111D01*
X1400366Y1397603D01*
X1403735Y1391767D01*
X1408500Y1387003D01*
X1414335Y1383634D01*
X1420843Y1381890D01*
X1427582D01*
X1433914Y1383587D01*
X1475066Y1342434D01*
X1478322Y1340259D01*
X1479352Y1340054D01*
X1481075Y1333626D01*
X1484444Y1327791D01*
X1489208Y1323026D01*
X1495044Y1319657D01*
X1501552Y1317913D01*
X1508290D01*
X1514799Y1319657D01*
X1520634Y1323026D01*
X1525399Y1327791D01*
X1528768Y1333626D01*
X1530512Y1340135D01*
Y1346873D01*
X1528768Y1353381D01*
X1525399Y1359217D01*
X1520634Y1363981D01*
X1514799Y1367350D01*
X1508290Y1369094D01*
X1501552D01*
X1495044Y1367350D01*
X1489208Y1363981D01*
X1485556Y1360329D01*
X1448106Y1397779D01*
X1449803Y1404111D01*
Y1410849D01*
X1448059Y1417358D01*
X1444690Y1423193D01*
X1439926Y1427958D01*
X1434090Y1431327D01*
X1427582Y1433071D01*
D02*
G37*
G36*
X2088015Y1528543D02*
X2081277D01*
X2074768Y1526799D01*
X2068933Y1523430D01*
X2064168Y1518666D01*
X2060799Y1512830D01*
X2059055Y1506322D01*
Y1499584D01*
X2060799Y1493075D01*
X2064168Y1487240D01*
X2068933Y1482475D01*
X2074610Y1479197D01*
Y1366392D01*
X2075374Y1362552D01*
X2077550Y1359296D01*
X2082296Y1354551D01*
X2080484Y1351413D01*
X2078740Y1344905D01*
Y1338166D01*
X2080484Y1331658D01*
X2083853Y1325822D01*
X2088618Y1321058D01*
X2094453Y1317689D01*
X2100962Y1315945D01*
X2107700D01*
X2114208Y1317689D01*
X2120044Y1321058D01*
X2124808Y1325822D01*
X2128177Y1331658D01*
X2129921Y1338166D01*
Y1344905D01*
X2128177Y1351413D01*
X2124808Y1357248D01*
X2120044Y1362013D01*
X2114208Y1365382D01*
X2107700Y1367126D01*
X2100962D01*
X2098708Y1366522D01*
X2094681Y1370549D01*
Y1479197D01*
X2100359Y1482475D01*
X2105123Y1487240D01*
X2108492Y1493075D01*
X2110236Y1499584D01*
Y1506322D01*
X2108492Y1512830D01*
X2105123Y1518666D01*
X2100359Y1523430D01*
X2094523Y1526799D01*
X2088015Y1528543D01*
D02*
G37*
G36*
X3070936Y1372638D02*
X3061347D01*
X3052085Y1370156D01*
X3043781Y1365362D01*
X3037001Y1358581D01*
X3032206Y1350277D01*
X3029724Y1341015D01*
Y1331426D01*
X3032206Y1322164D01*
X3037001Y1313860D01*
X3043781Y1307079D01*
X3052085Y1302285D01*
X3061347Y1299803D01*
X3070936D01*
X3080198Y1302285D01*
X3088502Y1307079D01*
X3095283Y1313860D01*
X3100077Y1322164D01*
X3102559Y1331426D01*
Y1341015D01*
X3100077Y1350277D01*
X3095283Y1358581D01*
X3088502Y1365362D01*
X3080198Y1370156D01*
X3070936Y1372638D01*
D02*
G37*
G36*
X2970936D02*
X2961347D01*
X2952085Y1370156D01*
X2943781Y1365362D01*
X2937001Y1358581D01*
X2932206Y1350277D01*
X2929724Y1341015D01*
Y1331426D01*
X2932206Y1322164D01*
X2937001Y1313860D01*
X2943781Y1307079D01*
X2952085Y1302285D01*
X2961347Y1299803D01*
X2970936D01*
X2980198Y1302285D01*
X2988502Y1307079D01*
X2995283Y1313860D01*
X3000077Y1322164D01*
X3002559Y1331426D01*
Y1341015D01*
X3000077Y1350277D01*
X2995283Y1358581D01*
X2988502Y1365362D01*
X2980198Y1370156D01*
X2970936Y1372638D01*
D02*
G37*
G36*
X670936D02*
X661347D01*
X652085Y1370156D01*
X643781Y1365362D01*
X637001Y1358581D01*
X632206Y1350277D01*
X629724Y1341015D01*
Y1331426D01*
X632206Y1322164D01*
X637001Y1313860D01*
X643781Y1307079D01*
X652085Y1302285D01*
X661347Y1299803D01*
X670936D01*
X680198Y1302285D01*
X688502Y1307079D01*
X695283Y1313860D01*
X700077Y1322164D01*
X702559Y1331426D01*
Y1341015D01*
X700077Y1350277D01*
X695283Y1358581D01*
X688502Y1365362D01*
X680198Y1370156D01*
X670936Y1372638D01*
D02*
G37*
G36*
X570936D02*
X561347D01*
X552085Y1370156D01*
X543781Y1365362D01*
X537001Y1358581D01*
X532206Y1350277D01*
X529724Y1341015D01*
Y1331426D01*
X532206Y1322164D01*
X537001Y1313860D01*
X543781Y1307079D01*
X552085Y1302285D01*
X561347Y1299803D01*
X570936D01*
X580198Y1302285D01*
X588502Y1307079D01*
X595283Y1313860D01*
X600077Y1322164D01*
X602559Y1331426D01*
Y1341015D01*
X600077Y1350277D01*
X595283Y1358581D01*
X588502Y1365362D01*
X580198Y1370156D01*
X570936Y1372638D01*
D02*
G37*
G36*
X2105731Y1286417D02*
X2098993D01*
X2092485Y1284673D01*
X2086649Y1281304D01*
X2081885Y1276540D01*
X2078516Y1270704D01*
X2076772Y1264196D01*
Y1257458D01*
X2078516Y1250949D01*
X2081885Y1245114D01*
X2086649Y1240349D01*
X2092485Y1236980D01*
X2098993Y1235236D01*
X2105731D01*
X2112240Y1236980D01*
X2118075Y1240349D01*
X2122840Y1245114D01*
X2126118Y1250792D01*
X2269727D01*
X2273568Y1251555D01*
X2276823Y1253731D01*
X2286790Y1263698D01*
X2354008D01*
X2357971Y1259735D01*
X2357320Y1257306D01*
Y1250568D01*
X2359064Y1244059D01*
X2362433Y1238224D01*
X2367198Y1233459D01*
X2373033Y1230091D01*
X2379542Y1228347D01*
X2386280D01*
X2392789Y1230091D01*
X2398624Y1233459D01*
X2403388Y1238224D01*
X2406757Y1244059D01*
X2408501Y1250568D01*
Y1257306D01*
X2406757Y1263815D01*
X2403388Y1269650D01*
X2398624Y1274415D01*
X2392789Y1277784D01*
X2386280Y1279527D01*
X2379542D01*
X2373033Y1277784D01*
X2370037Y1276053D01*
X2365261Y1280829D01*
X2362005Y1283004D01*
X2358165Y1283768D01*
X2282633D01*
X2278793Y1283004D01*
X2275537Y1280829D01*
X2265570Y1270862D01*
X2126118D01*
X2122840Y1276540D01*
X2118075Y1281304D01*
X2112240Y1284673D01*
X2105731Y1286417D01*
D02*
G37*
G36*
X2328172Y1251968D02*
X2321434D01*
X2314925Y1250225D01*
X2309090Y1246855D01*
X2304326Y1242091D01*
X2300957Y1236256D01*
X2299213Y1229747D01*
Y1223009D01*
X2300910Y1216676D01*
X2247812Y1163579D01*
X2167456D01*
X2164178Y1169256D01*
X2159414Y1174021D01*
X2153578Y1177390D01*
X2147070Y1179134D01*
X2140332D01*
X2133823Y1177390D01*
X2127988Y1174021D01*
X2123223Y1169256D01*
X2119854Y1163421D01*
X2118110Y1156912D01*
Y1150174D01*
X2119854Y1143666D01*
X2123223Y1137830D01*
X2127988Y1133066D01*
X2133823Y1129697D01*
X2140332Y1127953D01*
X2147070D01*
X2153578Y1129697D01*
X2159414Y1133066D01*
X2164178Y1137830D01*
X2167456Y1143508D01*
X2251968D01*
X2255809Y1144272D01*
X2259064Y1146447D01*
X2315102Y1202484D01*
X2321434Y1200787D01*
X2328172D01*
X2334681Y1202532D01*
X2340516Y1205900D01*
X2345281Y1210665D01*
X2348650Y1216500D01*
X2350394Y1223009D01*
Y1229747D01*
X2348650Y1236256D01*
X2345281Y1242091D01*
X2340516Y1246855D01*
X2334681Y1250225D01*
X2328172Y1251968D01*
D02*
G37*
G36*
X3070936Y1272638D02*
X3061347D01*
X3052085Y1270156D01*
X3043781Y1265362D01*
X3037001Y1258581D01*
X3032206Y1250277D01*
X3029724Y1241015D01*
Y1231426D01*
X3032206Y1222164D01*
X3037001Y1213860D01*
X3043781Y1207079D01*
X3052085Y1202285D01*
X3061347Y1199803D01*
X3070936D01*
X3080198Y1202285D01*
X3088502Y1207079D01*
X3095283Y1213860D01*
X3100077Y1222164D01*
X3102559Y1231426D01*
Y1241015D01*
X3100077Y1250277D01*
X3095283Y1258581D01*
X3088502Y1265362D01*
X3080198Y1270156D01*
X3070936Y1272638D01*
D02*
G37*
G36*
X2970936D02*
X2961347D01*
X2952085Y1270156D01*
X2943781Y1265362D01*
X2937001Y1258581D01*
X2932206Y1250277D01*
X2929724Y1241015D01*
Y1231426D01*
X2932206Y1222164D01*
X2937001Y1213860D01*
X2943781Y1207079D01*
X2952085Y1202285D01*
X2961347Y1199803D01*
X2970936D01*
X2980198Y1202285D01*
X2988502Y1207079D01*
X2995283Y1213860D01*
X3000077Y1222164D01*
X3002559Y1231426D01*
Y1241015D01*
X3000077Y1250277D01*
X2995283Y1258581D01*
X2988502Y1265362D01*
X2980198Y1270156D01*
X2970936Y1272638D01*
D02*
G37*
G36*
X670936D02*
X661347D01*
X652085Y1270156D01*
X643781Y1265362D01*
X637001Y1258581D01*
X632206Y1250277D01*
X629724Y1241015D01*
Y1231426D01*
X632206Y1222164D01*
X637001Y1213860D01*
X643781Y1207079D01*
X652085Y1202285D01*
X661347Y1199803D01*
X670936D01*
X680198Y1202285D01*
X688502Y1207079D01*
X695283Y1213860D01*
X700077Y1222164D01*
X702559Y1231426D01*
Y1241015D01*
X700077Y1250277D01*
X695283Y1258581D01*
X688502Y1265362D01*
X680198Y1270156D01*
X670936Y1272638D01*
D02*
G37*
G36*
X570936D02*
X561347D01*
X552085Y1270156D01*
X543781Y1265362D01*
X537001Y1258581D01*
X532206Y1250277D01*
X529724Y1241015D01*
Y1231426D01*
X532206Y1222164D01*
X537001Y1213860D01*
X543781Y1207079D01*
X552085Y1202285D01*
X561347Y1199803D01*
X570936D01*
X580198Y1202285D01*
X588502Y1207079D01*
X595283Y1213860D01*
X600077Y1222164D01*
X602559Y1231426D01*
Y1241015D01*
X600077Y1250277D01*
X595283Y1258581D01*
X588502Y1265362D01*
X580198Y1270156D01*
X570936Y1272638D01*
D02*
G37*
G36*
X829157Y1237205D02*
X822418D01*
X815910Y1235461D01*
X810074Y1232092D01*
X805310Y1227327D01*
X801941Y1221492D01*
X800197Y1214983D01*
Y1208245D01*
X801894Y1201913D01*
X782261Y1182279D01*
X761944D01*
X758667Y1187957D01*
X753902Y1192722D01*
X748067Y1196091D01*
X741558Y1197835D01*
X734820D01*
X728311Y1196091D01*
X722476Y1192722D01*
X717712Y1187957D01*
X714342Y1182122D01*
X712598Y1175613D01*
Y1168875D01*
X714342Y1162367D01*
X717712Y1156531D01*
X722476Y1151767D01*
X728311Y1148398D01*
X734820Y1146654D01*
X741558D01*
X748067Y1148398D01*
X753902Y1151767D01*
X758667Y1156531D01*
X761944Y1162209D01*
X786417D01*
X790258Y1162973D01*
X793513Y1165148D01*
X816086Y1187721D01*
X822418Y1186024D01*
X829157D01*
X835665Y1187768D01*
X841500Y1191137D01*
X846265Y1195901D01*
X849634Y1201737D01*
X851378Y1208245D01*
Y1214983D01*
X849634Y1221492D01*
X846265Y1227327D01*
X841500Y1232092D01*
X835665Y1235461D01*
X829157Y1237205D01*
D02*
G37*
G36*
X2379353Y1196850D02*
X2372615D01*
X2366107Y1195106D01*
X2360271Y1191737D01*
X2355507Y1186973D01*
X2352138Y1181137D01*
X2350394Y1174629D01*
Y1170230D01*
X2345394Y1168159D01*
X2343469Y1170084D01*
X2337633Y1173453D01*
X2331125Y1175197D01*
X2324387D01*
X2317878Y1173453D01*
X2312043Y1170084D01*
X2307278Y1165319D01*
X2303909Y1159484D01*
X2302165Y1152975D01*
Y1146237D01*
X2303909Y1139729D01*
X2307278Y1133893D01*
X2312043Y1129129D01*
X2317721Y1125851D01*
Y1114896D01*
X2312721Y1113556D01*
X2311816Y1115122D01*
X2307052Y1119887D01*
X2301216Y1123256D01*
X2294708Y1125000D01*
X2287970D01*
X2281461Y1123256D01*
X2275626Y1119887D01*
X2270861Y1115122D01*
X2267492Y1109287D01*
X2265748Y1102778D01*
Y1096040D01*
X2267492Y1089532D01*
X2270861Y1083697D01*
X2275626Y1078932D01*
X2281303Y1075654D01*
Y1049346D01*
X2275626Y1046068D01*
X2270861Y1041303D01*
X2267492Y1035468D01*
X2265748Y1028960D01*
Y1022221D01*
X2267492Y1015713D01*
X2270861Y1009878D01*
X2275626Y1005113D01*
X2281461Y1001744D01*
X2287970Y1000000D01*
X2294708D01*
X2301216Y1001744D01*
X2307052Y1005113D01*
X2311816Y1009878D01*
X2315185Y1015713D01*
X2315186Y1015718D01*
X2320602Y1016612D01*
X2320660Y1016526D01*
X2412195Y924991D01*
X2415451Y922815D01*
X2419291Y922051D01*
X2431953D01*
X2435231Y916374D01*
X2439996Y911609D01*
X2445831Y908240D01*
X2452340Y906496D01*
X2459078D01*
X2465586Y908240D01*
X2471421Y911609D01*
X2476186Y916374D01*
X2479555Y922209D01*
X2481299Y928717D01*
Y935456D01*
X2479555Y941964D01*
X2476186Y947799D01*
X2471421Y952564D01*
X2465586Y955933D01*
X2459078Y957677D01*
X2452340D01*
X2445831Y955933D01*
X2439996Y952564D01*
X2435231Y947799D01*
X2431953Y942122D01*
X2423448D01*
X2337791Y1027779D01*
Y1125851D01*
X2343469Y1129129D01*
X2348233Y1133893D01*
X2351602Y1139729D01*
X2353346Y1146237D01*
Y1150636D01*
X2358346Y1152707D01*
X2360271Y1150782D01*
X2366107Y1147413D01*
X2366441Y1147324D01*
Y1099259D01*
X2361256Y1096265D01*
X2356491Y1091500D01*
X2353122Y1085665D01*
X2351378Y1079157D01*
Y1072418D01*
X2353122Y1065910D01*
X2356491Y1060074D01*
X2361256Y1055310D01*
X2367091Y1051941D01*
X2373599Y1050197D01*
X2380338D01*
X2386846Y1051941D01*
X2392681Y1055310D01*
X2397446Y1060074D01*
X2400815Y1065910D01*
X2402559Y1072418D01*
Y1079157D01*
X2400815Y1085665D01*
X2397446Y1091500D01*
X2392681Y1096265D01*
X2386846Y1099634D01*
X2386512Y1099724D01*
Y1147789D01*
X2391697Y1150782D01*
X2396462Y1155547D01*
X2399831Y1161382D01*
X2401575Y1167891D01*
Y1174629D01*
X2399831Y1181137D01*
X2396462Y1186973D01*
X2391697Y1191737D01*
X2385862Y1195106D01*
X2379353Y1196850D01*
D02*
G37*
G36*
X1762227Y1178150D02*
X1755489D01*
X1748981Y1176406D01*
X1743145Y1173037D01*
X1738381Y1168272D01*
X1735103Y1162594D01*
X1721457D01*
X1717616Y1161831D01*
X1714361Y1159655D01*
X1680883Y1126177D01*
X1622298D01*
X1618458Y1125413D01*
X1615202Y1123238D01*
X1614657Y1122693D01*
X1610271Y1125225D01*
X1603763Y1126968D01*
X1597025D01*
X1590516Y1125225D01*
X1584681Y1121855D01*
X1579916Y1117091D01*
X1576547Y1111256D01*
X1574803Y1104747D01*
Y1098009D01*
X1576547Y1091500D01*
X1579916Y1085665D01*
X1584681Y1080900D01*
X1590516Y1077532D01*
X1597025Y1075787D01*
X1603763D01*
X1610271Y1077532D01*
X1616107Y1080900D01*
X1620871Y1085665D01*
X1624240Y1091500D01*
X1625984Y1098009D01*
Y1104747D01*
X1630796Y1106106D01*
X1685039D01*
X1688880Y1106870D01*
X1692135Y1109046D01*
X1725613Y1142524D01*
X1735103D01*
X1738381Y1136846D01*
X1743145Y1132082D01*
X1748981Y1128713D01*
X1755489Y1126969D01*
X1762227D01*
X1768736Y1128713D01*
X1774571Y1132082D01*
X1779336Y1136846D01*
X1782705Y1142681D01*
X1784449Y1149190D01*
Y1155928D01*
X1782705Y1162437D01*
X1779336Y1168272D01*
X1774571Y1173037D01*
X1768736Y1176406D01*
X1762227Y1178150D01*
D02*
G37*
G36*
X3070936Y1172638D02*
X3061347D01*
X3052085Y1170156D01*
X3043781Y1165362D01*
X3037001Y1158581D01*
X3032206Y1150277D01*
X3029724Y1141015D01*
Y1131426D01*
X3032206Y1122164D01*
X3037001Y1113860D01*
X3043781Y1107079D01*
X3052085Y1102285D01*
X3061347Y1099803D01*
X3070936D01*
X3080198Y1102285D01*
X3088502Y1107079D01*
X3095283Y1113860D01*
X3100077Y1122164D01*
X3102559Y1131426D01*
Y1141015D01*
X3100077Y1150277D01*
X3095283Y1158581D01*
X3088502Y1165362D01*
X3080198Y1170156D01*
X3070936Y1172638D01*
D02*
G37*
G36*
X2970936D02*
X2961347D01*
X2952085Y1170156D01*
X2943781Y1165362D01*
X2937001Y1158581D01*
X2932206Y1150277D01*
X2929724Y1141015D01*
Y1131426D01*
X2932206Y1122164D01*
X2937001Y1113860D01*
X2943781Y1107079D01*
X2952085Y1102285D01*
X2961347Y1099803D01*
X2970936D01*
X2980198Y1102285D01*
X2988502Y1107079D01*
X2995283Y1113860D01*
X3000077Y1122164D01*
X3002559Y1131426D01*
Y1141015D01*
X3000077Y1150277D01*
X2995283Y1158581D01*
X2988502Y1165362D01*
X2980198Y1170156D01*
X2970936Y1172638D01*
D02*
G37*
G36*
X670936D02*
X661347D01*
X652085Y1170156D01*
X643781Y1165362D01*
X637001Y1158581D01*
X632206Y1150277D01*
X629724Y1141015D01*
Y1131426D01*
X632206Y1122164D01*
X637001Y1113860D01*
X643781Y1107079D01*
X652085Y1102285D01*
X661347Y1099803D01*
X670936D01*
X680198Y1102285D01*
X688502Y1107079D01*
X695283Y1113860D01*
X700077Y1122164D01*
X702559Y1131426D01*
Y1141015D01*
X700077Y1150277D01*
X695283Y1158581D01*
X688502Y1165362D01*
X680198Y1170156D01*
X670936Y1172638D01*
D02*
G37*
G36*
X570936D02*
X561347D01*
X552085Y1170156D01*
X543781Y1165362D01*
X537001Y1158581D01*
X532206Y1150277D01*
X529724Y1141015D01*
Y1131426D01*
X532206Y1122164D01*
X537001Y1113860D01*
X543781Y1107079D01*
X552085Y1102285D01*
X561347Y1099803D01*
X570936D01*
X580198Y1102285D01*
X588502Y1107079D01*
X595283Y1113860D01*
X600077Y1122164D01*
X602559Y1131426D01*
Y1141015D01*
X600077Y1150277D01*
X595283Y1158581D01*
X588502Y1165362D01*
X580198Y1170156D01*
X570936Y1172638D01*
D02*
G37*
G36*
X3070936Y1072638D02*
X3061347D01*
X3052085Y1070156D01*
X3043781Y1065362D01*
X3037001Y1058581D01*
X3032206Y1050277D01*
X3029724Y1041015D01*
Y1031426D01*
X3032206Y1022164D01*
X3037001Y1013860D01*
X3043781Y1007079D01*
X3052085Y1002285D01*
X3061347Y999803D01*
X3070936D01*
X3080198Y1002285D01*
X3088502Y1007079D01*
X3095283Y1013860D01*
X3100077Y1022164D01*
X3102559Y1031426D01*
Y1041015D01*
X3100077Y1050277D01*
X3095283Y1058581D01*
X3088502Y1065362D01*
X3080198Y1070156D01*
X3070936Y1072638D01*
D02*
G37*
G36*
X2970936D02*
X2961347D01*
X2952085Y1070156D01*
X2943781Y1065362D01*
X2937001Y1058581D01*
X2932206Y1050277D01*
X2929724Y1041015D01*
Y1031426D01*
X2932206Y1022164D01*
X2937001Y1013860D01*
X2943781Y1007079D01*
X2952085Y1002285D01*
X2961347Y999803D01*
X2970936D01*
X2980198Y1002285D01*
X2988502Y1007079D01*
X2995283Y1013860D01*
X3000077Y1022164D01*
X3002559Y1031426D01*
Y1041015D01*
X3000077Y1050277D01*
X2995283Y1058581D01*
X2988502Y1065362D01*
X2980198Y1070156D01*
X2970936Y1072638D01*
D02*
G37*
G36*
X670936D02*
X661347D01*
X652085Y1070156D01*
X643781Y1065362D01*
X637001Y1058581D01*
X632206Y1050277D01*
X629724Y1041015D01*
Y1031426D01*
X632206Y1022164D01*
X637001Y1013860D01*
X643781Y1007079D01*
X652085Y1002285D01*
X661347Y999803D01*
X670936D01*
X680198Y1002285D01*
X688502Y1007079D01*
X695283Y1013860D01*
X700077Y1022164D01*
X702559Y1031426D01*
Y1041015D01*
X700077Y1050277D01*
X695283Y1058581D01*
X688502Y1065362D01*
X680198Y1070156D01*
X670936Y1072638D01*
D02*
G37*
G36*
X570936D02*
X561347D01*
X552085Y1070156D01*
X543781Y1065362D01*
X537001Y1058581D01*
X532206Y1050277D01*
X529724Y1041015D01*
Y1031426D01*
X532206Y1022164D01*
X537001Y1013860D01*
X543781Y1007079D01*
X552085Y1002285D01*
X561347Y999803D01*
X570936D01*
X580198Y1002285D01*
X588502Y1007079D01*
X595283Y1013860D01*
X600077Y1022164D01*
X602559Y1031426D01*
Y1041015D01*
X600077Y1050277D01*
X595283Y1058581D01*
X588502Y1065362D01*
X580198Y1070156D01*
X570936Y1072638D01*
D02*
G37*
G36*
X2216952Y1126968D02*
X2210214D01*
X2203705Y1125225D01*
X2197870Y1121855D01*
X2193105Y1117091D01*
X2189736Y1111256D01*
X2187992Y1104747D01*
Y1098009D01*
X2189736Y1091500D01*
X2193105Y1085665D01*
X2197870Y1080900D01*
X2203705Y1077532D01*
X2207977Y1076387D01*
Y1041868D01*
X2206728Y1041147D01*
X2201963Y1036382D01*
X2198594Y1030547D01*
X2196850Y1024038D01*
Y1017300D01*
X2198594Y1010792D01*
X2201963Y1004956D01*
X2206728Y1000192D01*
X2212563Y996823D01*
X2219072Y995079D01*
X2225810D01*
X2232318Y996823D01*
X2238154Y1000192D01*
X2242918Y1004956D01*
X2246287Y1010792D01*
X2248031Y1017300D01*
Y1024038D01*
X2246287Y1030547D01*
X2242918Y1036382D01*
X2238154Y1041147D01*
X2232318Y1044516D01*
X2228047Y1045660D01*
Y1080180D01*
X2229296Y1080900D01*
X2234060Y1085665D01*
X2237429Y1091500D01*
X2239173Y1098009D01*
Y1104747D01*
X2237429Y1111256D01*
X2234060Y1117091D01*
X2229296Y1121855D01*
X2223460Y1125225D01*
X2216952Y1126968D01*
D02*
G37*
G36*
X2532897Y975394D02*
X2526159D01*
X2519650Y973650D01*
X2513815Y970281D01*
X2509050Y965516D01*
X2505681Y959681D01*
X2503937Y953172D01*
Y946434D01*
X2505681Y939926D01*
X2509050Y934090D01*
X2513815Y929326D01*
X2519650Y925957D01*
X2526159Y924213D01*
X2532897D01*
X2539405Y925957D01*
X2544398Y928839D01*
X2546048Y927736D01*
X2549888Y926973D01*
X2673432D01*
X2674972Y921225D01*
X2678341Y915389D01*
X2683106Y910625D01*
X2688941Y907256D01*
X2695450Y905512D01*
X2702188D01*
X2708697Y907256D01*
X2714532Y910625D01*
X2719296Y915389D01*
X2722665Y921225D01*
X2724409Y927733D01*
Y934471D01*
X2722665Y940980D01*
X2719296Y946815D01*
X2714532Y951580D01*
X2708697Y954949D01*
X2702188Y956693D01*
X2695450D01*
X2688941Y954949D01*
X2683106Y951580D01*
X2678569Y947043D01*
X2555118D01*
Y953172D01*
X2553374Y959681D01*
X2550005Y965516D01*
X2545240Y970281D01*
X2539405Y973650D01*
X2532897Y975394D01*
D02*
G37*
G36*
X3070936Y972638D02*
X3061347D01*
X3052085Y970156D01*
X3043781Y965362D01*
X3037001Y958581D01*
X3032206Y950277D01*
X3029724Y941015D01*
Y931426D01*
X3032206Y922164D01*
X3037001Y913860D01*
X3043781Y907079D01*
X3052085Y902285D01*
X3061347Y899803D01*
X3070936D01*
X3080198Y902285D01*
X3088502Y907079D01*
X3095283Y913860D01*
X3100077Y922164D01*
X3102559Y931426D01*
Y941015D01*
X3100077Y950277D01*
X3095283Y958581D01*
X3088502Y965362D01*
X3080198Y970156D01*
X3070936Y972638D01*
D02*
G37*
G36*
X2970936D02*
X2961347D01*
X2952085Y970156D01*
X2943781Y965362D01*
X2937001Y958581D01*
X2932206Y950277D01*
X2929724Y941015D01*
Y931426D01*
X2932206Y922164D01*
X2937001Y913860D01*
X2943781Y907079D01*
X2952085Y902285D01*
X2961347Y899803D01*
X2970936D01*
X2980198Y902285D01*
X2988502Y907079D01*
X2995283Y913860D01*
X3000077Y922164D01*
X3002559Y931426D01*
Y941015D01*
X3000077Y950277D01*
X2995283Y958581D01*
X2988502Y965362D01*
X2980198Y970156D01*
X2970936Y972638D01*
D02*
G37*
G36*
X670936D02*
X661347D01*
X652085Y970156D01*
X643781Y965362D01*
X637001Y958581D01*
X632206Y950277D01*
X629724Y941015D01*
Y931426D01*
X632206Y922164D01*
X637001Y913860D01*
X643781Y907079D01*
X652085Y902285D01*
X661347Y899803D01*
X670936D01*
X680198Y902285D01*
X688502Y907079D01*
X695283Y913860D01*
X700077Y922164D01*
X702559Y931426D01*
Y941015D01*
X700077Y950277D01*
X695283Y958581D01*
X688502Y965362D01*
X680198Y970156D01*
X670936Y972638D01*
D02*
G37*
G36*
X570936D02*
X561347D01*
X552085Y970156D01*
X543781Y965362D01*
X537001Y958581D01*
X532206Y950277D01*
X529724Y941015D01*
Y931426D01*
X532206Y922164D01*
X537001Y913860D01*
X543781Y907079D01*
X552085Y902285D01*
X561347Y899803D01*
X570936D01*
X580198Y902285D01*
X588502Y907079D01*
X595283Y913860D01*
X600077Y922164D01*
X602559Y931426D01*
Y941015D01*
X600077Y950277D01*
X595283Y958581D01*
X588502Y965362D01*
X580198Y970156D01*
X570936Y972638D01*
D02*
G37*
G36*
X1682874Y954331D02*
X1610827D01*
Y882284D01*
X1682874D01*
Y954331D01*
D02*
G37*
G36*
X1551593D02*
X1542108D01*
X1532946Y951876D01*
X1524731Y947133D01*
X1518024Y940426D01*
X1513282Y932212D01*
X1510827Y923050D01*
Y913564D01*
X1513282Y904403D01*
X1518024Y896188D01*
X1524731Y889481D01*
X1532946Y884739D01*
X1542108Y882284D01*
X1551593D01*
X1560755Y884739D01*
X1568969Y889481D01*
X1575676Y896188D01*
X1580419Y904403D01*
X1582874Y913564D01*
Y923050D01*
X1580419Y932212D01*
X1575676Y940426D01*
X1568969Y947133D01*
X1560755Y951876D01*
X1551593Y954331D01*
D02*
G37*
G36*
X1451593D02*
X1442108D01*
X1432946Y951876D01*
X1424731Y947133D01*
X1418024Y940426D01*
X1413282Y932212D01*
X1410827Y923050D01*
Y913564D01*
X1413282Y904403D01*
X1418024Y896188D01*
X1424731Y889481D01*
X1432946Y884739D01*
X1442108Y882284D01*
X1451593D01*
X1460755Y884739D01*
X1468969Y889481D01*
X1475676Y896188D01*
X1480419Y904403D01*
X1482874Y913564D01*
Y923050D01*
X1480419Y932212D01*
X1475676Y940426D01*
X1468969Y947133D01*
X1460755Y951876D01*
X1451593Y954331D01*
D02*
G37*
G36*
X2123819Y948425D02*
X2051772D01*
Y876378D01*
X2123819D01*
Y948425D01*
D02*
G37*
G36*
X1992538D02*
X1983053D01*
X1973891Y945970D01*
X1965676Y941228D01*
X1958969Y934521D01*
X1954227Y926306D01*
X1951772Y917144D01*
Y907659D01*
X1954227Y898497D01*
X1958969Y890283D01*
X1965676Y883576D01*
X1973891Y878833D01*
X1983053Y876378D01*
X1992538D01*
X2001700Y878833D01*
X2009914Y883576D01*
X2016621Y890283D01*
X2021364Y898497D01*
X2023819Y907659D01*
Y917144D01*
X2021364Y926306D01*
X2016621Y934521D01*
X2009914Y941228D01*
X2001700Y945970D01*
X1992538Y948425D01*
D02*
G37*
G36*
X1892538D02*
X1883053D01*
X1873891Y945970D01*
X1865676Y941228D01*
X1858969Y934521D01*
X1854227Y926306D01*
X1851772Y917144D01*
Y907659D01*
X1854227Y898497D01*
X1858969Y890283D01*
X1865676Y883576D01*
X1873891Y878833D01*
X1883053Y876378D01*
X1892538D01*
X1901700Y878833D01*
X1909914Y883576D01*
X1916621Y890283D01*
X1921364Y898497D01*
X1923819Y907659D01*
Y917144D01*
X1921364Y926306D01*
X1916621Y934521D01*
X1909914Y941228D01*
X1901700Y945970D01*
X1892538Y948425D01*
D02*
G37*
G36*
X2572267Y842520D02*
X2565528D01*
X2559020Y840776D01*
X2553185Y837407D01*
X2548420Y832642D01*
X2545051Y826807D01*
X2543307Y820298D01*
Y813560D01*
X2545004Y807227D01*
X2528352Y790575D01*
X2522666D01*
X2518826Y789812D01*
X2515570Y787636D01*
X2471316Y743382D01*
X2464983Y745079D01*
X2458245D01*
X2451737Y743335D01*
X2445901Y739966D01*
X2441137Y735201D01*
X2437768Y729366D01*
X2436024Y722857D01*
Y716119D01*
X2437768Y709611D01*
X2441137Y703775D01*
X2445901Y699011D01*
X2451737Y695642D01*
X2458245Y693898D01*
X2464983D01*
X2471492Y695642D01*
X2477327Y699011D01*
X2482092Y703775D01*
X2485461Y709611D01*
X2487205Y716119D01*
Y722857D01*
X2485508Y729190D01*
X2526823Y770505D01*
X2532509D01*
X2536349Y771269D01*
X2539605Y773444D01*
X2559196Y793035D01*
X2565528Y791339D01*
X2572267D01*
X2578775Y793083D01*
X2584610Y796452D01*
X2589375Y801216D01*
X2592744Y807052D01*
X2594488Y813560D01*
Y820298D01*
X2592744Y826807D01*
X2589375Y832642D01*
X2584610Y837407D01*
X2578775Y840776D01*
X2572267Y842520D01*
D02*
G37*
G36*
X3284581Y804134D02*
X3274474D01*
X3264711Y801518D01*
X3255958Y796464D01*
X3248811Y789317D01*
X3243758Y780564D01*
X3241142Y770802D01*
Y760694D01*
X3243758Y750932D01*
X3248811Y742179D01*
X3255958Y735032D01*
X3264711Y729978D01*
X3274474Y727362D01*
X3284581D01*
X3294344Y729978D01*
X3303097Y735032D01*
X3310244Y742179D01*
X3315297Y750932D01*
X3317913Y760694D01*
Y770802D01*
X3315297Y780564D01*
X3310244Y789317D01*
X3303097Y796464D01*
X3294344Y801518D01*
X3284581Y804134D01*
D02*
G37*
G36*
X373164Y777165D02*
X363057D01*
X353294Y774549D01*
X344541Y769496D01*
X337394Y762349D01*
X332340Y753596D01*
X329724Y743833D01*
Y733726D01*
X332340Y723963D01*
X337394Y715210D01*
X344541Y708063D01*
X353294Y703010D01*
X363057Y700394D01*
X373164D01*
X382927Y703010D01*
X391680Y708063D01*
X398827Y715210D01*
X403880Y723963D01*
X406496Y733726D01*
Y743833D01*
X403880Y753596D01*
X398827Y762349D01*
X391680Y769496D01*
X382927Y774549D01*
X373164Y777165D01*
D02*
G37*
G36*
X3317913Y704134D02*
X3241142D01*
Y627362D01*
X3317913D01*
Y704134D01*
D02*
G37*
G36*
X1085062Y702756D02*
X1078324D01*
X1071815Y701012D01*
X1065980Y697643D01*
X1061215Y692878D01*
X1057846Y687043D01*
X1056102Y680534D01*
Y673796D01*
X1057846Y667288D01*
X1061215Y661452D01*
X1065980Y656688D01*
X1071815Y653319D01*
X1078324Y651575D01*
X1085062D01*
X1091395Y653272D01*
X1103140Y641526D01*
X1106396Y639351D01*
X1110236Y638587D01*
X1560890D01*
X1564168Y632909D01*
X1568933Y628144D01*
X1574768Y624775D01*
X1581277Y623032D01*
X1588015D01*
X1594523Y624775D01*
X1600359Y628144D01*
X1605123Y632909D01*
X1608492Y638744D01*
X1610236Y645253D01*
Y651991D01*
X1608492Y658500D01*
X1605123Y664335D01*
X1600359Y669100D01*
X1594523Y672468D01*
X1588015Y674212D01*
X1581277D01*
X1574768Y672468D01*
X1568933Y669100D01*
X1564168Y664335D01*
X1560890Y658657D01*
X1114393D01*
X1105587Y667464D01*
X1107283Y673796D01*
Y680534D01*
X1105539Y687043D01*
X1102170Y692878D01*
X1097406Y697643D01*
X1091571Y701012D01*
X1085062Y702756D01*
D02*
G37*
G36*
X406496Y677165D02*
X329724D01*
Y600394D01*
X406496D01*
Y677165D01*
D02*
G37*
G36*
X3104747Y673228D02*
X3098009D01*
X3091500Y671484D01*
X3085665Y668115D01*
X3080901Y663351D01*
X3077532Y657515D01*
X3075787Y651007D01*
Y644269D01*
X3077532Y637760D01*
X3080901Y631925D01*
X3085665Y627160D01*
X3091500Y623791D01*
X3098009Y622047D01*
X3104747D01*
X3111080Y623744D01*
X3132668Y602156D01*
X3135923Y599981D01*
X3139764Y599217D01*
X3179985D01*
X3183263Y593539D01*
X3188027Y588774D01*
X3193863Y585405D01*
X3200371Y583662D01*
X3207109D01*
X3213618Y585405D01*
X3219453Y588774D01*
X3224218Y593539D01*
X3227587Y599374D01*
X3229331Y605883D01*
Y612621D01*
X3227587Y619130D01*
X3224218Y624965D01*
X3219453Y629730D01*
X3213618Y633098D01*
X3207109Y634842D01*
X3200371D01*
X3193863Y633098D01*
X3188027Y629730D01*
X3183263Y624965D01*
X3179985Y619287D01*
X3143921D01*
X3125272Y637936D01*
X3126968Y644269D01*
Y651007D01*
X3125224Y657515D01*
X3121856Y663351D01*
X3117091Y668115D01*
X3111256Y671484D01*
X3104747Y673228D01*
D02*
G37*
G36*
X1082109Y632874D02*
X1075371D01*
X1068863Y631130D01*
X1063027Y627761D01*
X1058263Y622996D01*
X1054894Y617161D01*
X1053150Y610653D01*
Y603914D01*
X1054894Y597406D01*
X1058263Y591571D01*
X1063027Y586806D01*
X1068863Y583437D01*
X1075371Y581693D01*
X1082109D01*
X1088618Y583437D01*
X1094453Y586806D01*
X1099218Y591571D01*
X1101927Y596264D01*
X1158019D01*
X1158240Y595437D01*
X1161609Y589602D01*
X1166374Y584837D01*
X1172209Y581468D01*
X1178717Y579725D01*
X1185456D01*
X1191964Y581468D01*
X1197800Y584837D01*
X1202564Y589602D01*
X1205933Y595437D01*
X1207677Y601946D01*
Y608684D01*
X1205933Y615193D01*
X1202564Y621028D01*
X1197800Y625793D01*
X1191964Y629162D01*
X1185456Y630905D01*
X1178717D01*
X1172209Y629162D01*
X1166374Y625793D01*
X1161609Y621028D01*
X1158899Y616335D01*
X1102808D01*
X1102587Y617161D01*
X1099218Y622996D01*
X1094453Y627761D01*
X1088618Y631130D01*
X1082109Y632874D01*
D02*
G37*
G36*
X2682503Y760827D02*
X2675765D01*
X2669256Y759083D01*
X2663421Y755714D01*
X2658656Y750949D01*
X2655287Y745114D01*
X2653543Y738605D01*
Y731867D01*
X2655287Y725359D01*
X2658656Y719523D01*
X2663421Y714759D01*
X2669099Y711481D01*
Y630141D01*
X2586473Y547516D01*
X2580141Y549212D01*
X2573403D01*
X2566894Y547468D01*
X2561059Y544100D01*
X2556294Y539335D01*
X2552925Y533500D01*
X2551181Y526991D01*
Y520253D01*
X2552925Y513744D01*
X2556294Y507909D01*
X2561059Y503144D01*
X2566894Y499776D01*
X2573403Y498031D01*
X2580141D01*
X2586649Y499776D01*
X2592485Y503144D01*
X2597249Y507909D01*
X2600618Y513744D01*
X2602362Y520253D01*
Y526991D01*
X2600665Y533324D01*
X2686230Y618888D01*
X2688405Y622144D01*
X2689169Y625984D01*
Y711481D01*
X2694847Y714759D01*
X2699611Y719523D01*
X2702980Y725359D01*
X2704724Y731867D01*
Y738605D01*
X2702980Y745114D01*
X2699611Y750949D01*
X2694847Y755714D01*
X2689012Y759083D01*
X2682503Y760827D01*
D02*
G37*
G36*
X2414786Y649606D02*
X2408048D01*
X2401540Y647862D01*
X2395704Y644493D01*
X2390940Y639729D01*
X2387571Y633893D01*
X2385827Y627385D01*
Y620647D01*
X2387571Y614138D01*
X2390940Y608303D01*
X2395704Y603538D01*
X2401382Y600260D01*
Y550846D01*
X2402146Y547005D01*
X2404321Y543750D01*
X2408325Y539746D01*
X2405287Y534484D01*
X2403543Y527975D01*
Y521237D01*
X2405287Y514729D01*
X2408656Y508893D01*
X2413421Y504129D01*
X2419256Y500760D01*
X2425765Y499016D01*
X2432503D01*
X2439012Y500760D01*
X2444847Y504129D01*
X2449611Y508893D01*
X2452980Y514729D01*
X2454724Y521237D01*
Y527975D01*
X2452980Y534484D01*
X2449611Y540319D01*
X2444847Y545084D01*
X2439012Y548453D01*
X2432503Y550197D01*
X2426258D01*
X2421453Y555002D01*
Y600260D01*
X2427130Y603538D01*
X2431895Y608303D01*
X2435264Y614138D01*
X2437008Y620647D01*
Y627385D01*
X2435264Y633893D01*
X2431895Y639729D01*
X2427130Y644493D01*
X2421295Y647862D01*
X2414786Y649606D01*
D02*
G37*
G36*
X2730731Y662402D02*
X2723993D01*
X2717485Y660658D01*
X2711649Y657288D01*
X2706885Y652524D01*
X2703516Y646689D01*
X2701772Y640180D01*
Y633442D01*
X2703516Y626933D01*
X2706885Y621098D01*
X2711649Y616333D01*
X2712898Y615613D01*
Y546645D01*
X2708626Y545500D01*
X2702791Y542131D01*
X2698026Y537366D01*
X2694657Y531531D01*
X2692913Y525023D01*
Y518284D01*
X2694657Y511776D01*
X2698026Y505941D01*
X2702791Y501176D01*
X2708626Y497807D01*
X2715135Y496063D01*
X2721873D01*
X2728381Y497807D01*
X2734217Y501176D01*
X2738981Y505941D01*
X2742350Y511776D01*
X2744094Y518284D01*
Y525023D01*
X2742350Y531531D01*
X2738981Y537366D01*
X2734217Y542131D01*
X2732968Y542852D01*
Y611820D01*
X2737240Y612965D01*
X2743075Y616333D01*
X2747840Y621098D01*
X2751209Y626933D01*
X2752953Y633442D01*
Y640180D01*
X2751209Y646689D01*
X2747840Y652524D01*
X2743075Y657288D01*
X2737240Y660658D01*
X2730731Y662402D01*
D02*
G37*
G36*
X2825252Y472047D02*
X2813331D01*
X2801816Y468962D01*
X2791491Y463001D01*
X2783062Y454572D01*
X2777101Y444247D01*
X2774016Y432732D01*
Y420811D01*
X2777101Y409296D01*
X2783062Y398972D01*
X2791491Y390542D01*
X2801816Y384581D01*
X2813331Y381496D01*
X2825252D01*
X2836767Y384581D01*
X2847091Y390542D01*
X2855521Y398972D01*
X2861481Y409296D01*
X2864567Y420811D01*
Y432732D01*
X2861481Y444247D01*
X2855521Y454572D01*
X2847091Y463001D01*
X2836767Y468962D01*
X2825252Y472047D01*
D02*
G37*
G36*
X2717378D02*
X2705457D01*
X2693941Y468962D01*
X2683617Y463001D01*
X2675188Y454572D01*
X2669227Y444247D01*
X2666142Y432732D01*
Y420811D01*
X2669227Y409296D01*
X2675188Y398972D01*
X2683617Y390542D01*
X2693941Y384581D01*
X2705457Y381496D01*
X2717378D01*
X2728893Y384581D01*
X2739217Y390542D01*
X2747647Y398972D01*
X2753607Y409296D01*
X2756693Y420811D01*
Y432732D01*
X2753607Y444247D01*
X2747647Y454572D01*
X2739217Y463001D01*
X2728893Y468962D01*
X2717378Y472047D01*
D02*
G37*
G36*
X2609504D02*
X2597583D01*
X2586068Y468962D01*
X2575743Y463001D01*
X2567314Y454572D01*
X2561353Y444247D01*
X2558268Y432732D01*
Y420811D01*
X2561353Y409296D01*
X2567314Y398972D01*
X2575743Y390542D01*
X2586068Y384581D01*
X2597583Y381496D01*
X2609504D01*
X2621019Y384581D01*
X2631343Y390542D01*
X2639773Y398972D01*
X2645733Y409296D01*
X2648819Y420811D01*
Y432732D01*
X2645733Y444247D01*
X2639773Y454572D01*
X2631343Y463001D01*
X2621019Y468962D01*
X2609504Y472047D01*
D02*
G37*
G36*
X2501630D02*
X2489709D01*
X2478193Y468962D01*
X2467869Y463001D01*
X2459440Y454572D01*
X2453479Y444247D01*
X2450394Y432732D01*
Y420811D01*
X2453479Y409296D01*
X2459440Y398972D01*
X2467869Y390542D01*
X2478193Y384581D01*
X2489709Y381496D01*
X2501630D01*
X2513145Y384581D01*
X2523469Y390542D01*
X2531899Y398972D01*
X2537859Y409296D01*
X2540945Y420811D01*
Y432732D01*
X2537859Y444247D01*
X2531899Y454572D01*
X2523469Y463001D01*
X2513145Y468962D01*
X2501630Y472047D01*
D02*
G37*
G36*
X2393756D02*
X2381835D01*
X2370320Y468962D01*
X2359995Y463001D01*
X2351566Y454572D01*
X2345605Y444247D01*
X2342520Y432732D01*
Y420811D01*
X2345605Y409296D01*
X2351566Y398972D01*
X2359995Y390542D01*
X2370320Y384581D01*
X2381835Y381496D01*
X2393756D01*
X2405271Y384581D01*
X2415595Y390542D01*
X2424025Y398972D01*
X2429985Y409296D01*
X2433071Y420811D01*
Y432732D01*
X2429985Y444247D01*
X2424025Y454572D01*
X2415595Y463001D01*
X2405271Y468962D01*
X2393756Y472047D01*
D02*
G37*
G36*
X1328401D02*
X1316480D01*
X1304965Y468962D01*
X1294641Y463001D01*
X1286211Y454572D01*
X1280251Y444247D01*
X1277165Y432732D01*
Y420811D01*
X1280251Y409296D01*
X1286211Y398972D01*
X1294641Y390542D01*
X1304965Y384581D01*
X1316480Y381496D01*
X1328401D01*
X1339917Y384581D01*
X1350241Y390542D01*
X1358670Y398972D01*
X1364631Y409296D01*
X1367716Y420811D01*
Y432732D01*
X1364631Y444247D01*
X1358670Y454572D01*
X1350241Y463001D01*
X1339917Y468962D01*
X1328401Y472047D01*
D02*
G37*
G36*
X1220527D02*
X1208606D01*
X1197091Y468962D01*
X1186767Y463001D01*
X1178337Y454572D01*
X1172377Y444247D01*
X1169291Y432732D01*
Y420811D01*
X1172377Y409296D01*
X1178337Y398972D01*
X1186767Y390542D01*
X1197091Y384581D01*
X1208606Y381496D01*
X1220527D01*
X1232043Y384581D01*
X1242367Y390542D01*
X1250796Y398972D01*
X1256757Y409296D01*
X1259842Y420811D01*
Y432732D01*
X1256757Y444247D01*
X1250796Y454572D01*
X1242367Y463001D01*
X1232043Y468962D01*
X1220527Y472047D01*
D02*
G37*
G36*
X1112653D02*
X1100732D01*
X1089217Y468962D01*
X1078893Y463001D01*
X1070463Y454572D01*
X1064503Y444247D01*
X1061417Y432732D01*
Y420811D01*
X1064503Y409296D01*
X1070463Y398972D01*
X1078893Y390542D01*
X1089217Y384581D01*
X1100732Y381496D01*
X1112653D01*
X1124168Y384581D01*
X1134493Y390542D01*
X1142922Y398972D01*
X1148883Y409296D01*
X1151968Y420811D01*
Y432732D01*
X1148883Y444247D01*
X1142922Y454572D01*
X1134493Y463001D01*
X1124168Y468962D01*
X1112653Y472047D01*
D02*
G37*
G36*
X1004779D02*
X992858D01*
X981343Y468962D01*
X971019Y463001D01*
X962589Y454572D01*
X956629Y444247D01*
X953543Y432732D01*
Y420811D01*
X956629Y409296D01*
X962589Y398972D01*
X971019Y390542D01*
X981343Y384581D01*
X992858Y381496D01*
X1004779D01*
X1016294Y384581D01*
X1026619Y390542D01*
X1035048Y398972D01*
X1041009Y409296D01*
X1044094Y420811D01*
Y432732D01*
X1041009Y444247D01*
X1035048Y454572D01*
X1026619Y463001D01*
X1016294Y468962D01*
X1004779Y472047D01*
D02*
G37*
G36*
X896905D02*
X884984D01*
X873469Y468962D01*
X863145Y463001D01*
X854715Y454572D01*
X848755Y444247D01*
X845669Y432732D01*
Y420811D01*
X848755Y409296D01*
X854715Y398972D01*
X863145Y390542D01*
X873469Y384581D01*
X884984Y381496D01*
X896905D01*
X908420Y384581D01*
X918745Y390542D01*
X927174Y398972D01*
X933135Y409296D01*
X936220Y420811D01*
Y432732D01*
X933135Y444247D01*
X927174Y454572D01*
X918745Y463001D01*
X908420Y468962D01*
X896905Y472047D01*
D02*
G37*
G36*
X2771315Y360236D02*
X2759394D01*
X2747878Y357151D01*
X2737554Y351190D01*
X2729125Y342760D01*
X2723164Y332436D01*
X2720079Y320921D01*
Y309000D01*
X2723164Y297485D01*
X2729125Y287161D01*
X2737554Y278731D01*
X2747878Y272770D01*
X2759394Y269685D01*
X2771315D01*
X2782830Y272770D01*
X2793154Y278731D01*
X2801584Y287161D01*
X2807544Y297485D01*
X2810630Y309000D01*
Y320921D01*
X2807544Y332436D01*
X2801584Y342760D01*
X2793154Y351190D01*
X2782830Y357151D01*
X2771315Y360236D01*
D02*
G37*
G36*
X2663441D02*
X2651520D01*
X2640005Y357151D01*
X2629680Y351190D01*
X2621251Y342760D01*
X2615290Y332436D01*
X2612205Y320921D01*
Y309000D01*
X2615290Y297485D01*
X2621251Y287161D01*
X2629680Y278731D01*
X2640005Y272770D01*
X2651520Y269685D01*
X2663441D01*
X2674956Y272770D01*
X2685280Y278731D01*
X2693710Y287161D01*
X2699670Y297485D01*
X2702756Y309000D01*
Y320921D01*
X2699670Y332436D01*
X2693710Y342760D01*
X2685280Y351190D01*
X2674956Y357151D01*
X2663441Y360236D01*
D02*
G37*
G36*
X2555567D02*
X2543646D01*
X2532131Y357151D01*
X2521806Y351190D01*
X2513377Y342760D01*
X2507416Y332436D01*
X2504331Y320921D01*
Y309000D01*
X2507416Y297485D01*
X2513377Y287161D01*
X2521806Y278731D01*
X2532131Y272770D01*
X2543646Y269685D01*
X2555567D01*
X2567082Y272770D01*
X2577406Y278731D01*
X2585836Y287161D01*
X2591796Y297485D01*
X2594882Y309000D01*
Y320921D01*
X2591796Y332436D01*
X2585836Y342760D01*
X2577406Y351190D01*
X2567082Y357151D01*
X2555567Y360236D01*
D02*
G37*
G36*
X2447693D02*
X2435772D01*
X2424256Y357151D01*
X2413932Y351190D01*
X2405503Y342760D01*
X2399542Y332436D01*
X2396457Y320921D01*
Y309000D01*
X2399542Y297485D01*
X2405503Y287161D01*
X2413932Y278731D01*
X2424256Y272770D01*
X2435772Y269685D01*
X2447693D01*
X2459208Y272770D01*
X2469532Y278731D01*
X2477962Y287161D01*
X2483922Y297485D01*
X2487008Y309000D01*
Y320921D01*
X2483922Y332436D01*
X2477962Y342760D01*
X2469532Y351190D01*
X2459208Y357151D01*
X2447693Y360236D01*
D02*
G37*
G36*
X1274464D02*
X1262543D01*
X1251028Y357151D01*
X1240704Y351190D01*
X1232274Y342760D01*
X1226314Y332436D01*
X1223228Y320921D01*
Y309000D01*
X1226314Y297485D01*
X1232274Y287161D01*
X1240704Y278731D01*
X1251028Y272770D01*
X1262543Y269685D01*
X1274464D01*
X1285979Y272770D01*
X1296304Y278731D01*
X1304733Y287161D01*
X1310694Y297485D01*
X1313779Y309000D01*
Y320921D01*
X1310694Y332436D01*
X1304733Y342760D01*
X1296304Y351190D01*
X1285979Y357151D01*
X1274464Y360236D01*
D02*
G37*
G36*
X1166590D02*
X1154669D01*
X1143154Y357151D01*
X1132830Y351190D01*
X1124400Y342760D01*
X1118440Y332436D01*
X1115354Y320921D01*
Y309000D01*
X1118440Y297485D01*
X1124400Y287161D01*
X1132830Y278731D01*
X1143154Y272770D01*
X1154669Y269685D01*
X1166590D01*
X1178105Y272770D01*
X1188430Y278731D01*
X1196859Y287161D01*
X1202820Y297485D01*
X1205905Y309000D01*
Y320921D01*
X1202820Y332436D01*
X1196859Y342760D01*
X1188430Y351190D01*
X1178105Y357151D01*
X1166590Y360236D01*
D02*
G37*
G36*
X1058716D02*
X1046795D01*
X1035280Y357151D01*
X1024956Y351190D01*
X1016526Y342760D01*
X1010566Y332436D01*
X1007480Y320921D01*
Y309000D01*
X1010566Y297485D01*
X1016526Y287161D01*
X1024956Y278731D01*
X1035280Y272770D01*
X1046795Y269685D01*
X1058716D01*
X1070232Y272770D01*
X1080556Y278731D01*
X1088985Y287161D01*
X1094946Y297485D01*
X1098031Y309000D01*
Y320921D01*
X1094946Y332436D01*
X1088985Y342760D01*
X1080556Y351190D01*
X1070232Y357151D01*
X1058716Y360236D01*
D02*
G37*
G36*
X950842D02*
X938921D01*
X927406Y357151D01*
X917082Y351190D01*
X908652Y342760D01*
X902692Y332436D01*
X899606Y320921D01*
Y309000D01*
X902692Y297485D01*
X908652Y287161D01*
X917082Y278731D01*
X927406Y272770D01*
X938921Y269685D01*
X950842D01*
X962357Y272770D01*
X972682Y278731D01*
X981111Y287161D01*
X987072Y297485D01*
X990157Y309000D01*
Y320921D01*
X987072Y332436D01*
X981111Y342760D01*
X972682Y351190D01*
X962357Y357151D01*
X950842Y360236D01*
D02*
G37*
G36*
X3106585Y514567D02*
X3083966D01*
X3061626Y511029D01*
X3040113Y504039D01*
X3019960Y493770D01*
X3001661Y480475D01*
X2985667Y464481D01*
X2972372Y446182D01*
X2962103Y426028D01*
X2955113Y404516D01*
X2951575Y382176D01*
Y359557D01*
X2955113Y337216D01*
X2962103Y315704D01*
X2972372Y295550D01*
X2985667Y277251D01*
X3001661Y261257D01*
X3019960Y247962D01*
X3040113Y237693D01*
X3061626Y230704D01*
X3083966Y227165D01*
X3106585D01*
X3128925Y230704D01*
X3150438Y237693D01*
X3170591Y247962D01*
X3188890Y261257D01*
X3204884Y277251D01*
X3218180Y295550D01*
X3228448Y315704D01*
X3235438Y337216D01*
X3238976Y359557D01*
Y382176D01*
X3235438Y404516D01*
X3228448Y426028D01*
X3218180Y446182D01*
X3204884Y464481D01*
X3188890Y480475D01*
X3170591Y493770D01*
X3150438Y504039D01*
X3128925Y511029D01*
X3106585Y514567D01*
D02*
G37*
G36*
X2122333D02*
X2099714D01*
X2077374Y511029D01*
X2055861Y504039D01*
X2035708Y493770D01*
X2017409Y480475D01*
X2001415Y464481D01*
X1988120Y446182D01*
X1977851Y426028D01*
X1970861Y404516D01*
X1967323Y382176D01*
Y359557D01*
X1970861Y337216D01*
X1977851Y315704D01*
X1988120Y295550D01*
X2001415Y277251D01*
X2017409Y261257D01*
X2035708Y247962D01*
X2055861Y237693D01*
X2077374Y230704D01*
X2099714Y227165D01*
X2122333D01*
X2144673Y230704D01*
X2166186Y237693D01*
X2186339Y247962D01*
X2204638Y261257D01*
X2220632Y277251D01*
X2233927Y295550D01*
X2244196Y315704D01*
X2251186Y337216D01*
X2254724Y359557D01*
Y382176D01*
X2251186Y404516D01*
X2244196Y426028D01*
X2233927Y446182D01*
X2220632Y464481D01*
X2204638Y480475D01*
X2186339Y493770D01*
X2166186Y504039D01*
X2144673Y511029D01*
X2122333Y514567D01*
D02*
G37*
G36*
X1609735D02*
X1587116D01*
X1564775Y511029D01*
X1543263Y504039D01*
X1523109Y493770D01*
X1504810Y480475D01*
X1488816Y464481D01*
X1475521Y446182D01*
X1465252Y426028D01*
X1458263Y404516D01*
X1454724Y382176D01*
Y359557D01*
X1458263Y337216D01*
X1465252Y315704D01*
X1475521Y295550D01*
X1488816Y277251D01*
X1504810Y261257D01*
X1523109Y247962D01*
X1543263Y237693D01*
X1564775Y230704D01*
X1587116Y227165D01*
X1609735D01*
X1632075Y230704D01*
X1653587Y237693D01*
X1673741Y247962D01*
X1692040Y261257D01*
X1708034Y277251D01*
X1721329Y295550D01*
X1731598Y315704D01*
X1738588Y337216D01*
X1742126Y359557D01*
Y382176D01*
X1738588Y404516D01*
X1731598Y426028D01*
X1721329Y446182D01*
X1708034Y464481D01*
X1692040Y480475D01*
X1673741Y493770D01*
X1653587Y504039D01*
X1632075Y511029D01*
X1609735Y514567D01*
D02*
G37*
G36*
X625483D02*
X602864D01*
X580523Y511029D01*
X559011Y504039D01*
X538857Y493770D01*
X520558Y480475D01*
X504564Y464481D01*
X491269Y446182D01*
X481000Y426028D01*
X474011Y404516D01*
X470472Y382176D01*
Y359557D01*
X474011Y337216D01*
X481000Y315704D01*
X491269Y295550D01*
X504564Y277251D01*
X520558Y261257D01*
X538857Y247962D01*
X559011Y237693D01*
X580523Y230704D01*
X602864Y227165D01*
X625483D01*
X647823Y230704D01*
X669335Y237693D01*
X689489Y247962D01*
X707788Y261257D01*
X723782Y277251D01*
X737077Y295550D01*
X747346Y315704D01*
X754336Y337216D01*
X757874Y359557D01*
Y382176D01*
X754336Y404516D01*
X747346Y426028D01*
X737077Y446182D01*
X723782Y464481D01*
X707788Y480475D01*
X689489Y493770D01*
X669335Y504039D01*
X647823Y511029D01*
X625483Y514567D01*
D02*
G37*
%LPD*%
D24*
X2559055Y1330709D02*
X2563976Y1335630D01*
X2650591D01*
X2655512Y1340551D01*
X2419291Y932087D02*
X2455709D01*
X2327756Y1023622D02*
X2419291Y932087D01*
X2376476Y1076280D02*
Y1170768D01*
Y1076280D02*
X2376968Y1075787D01*
X2375984Y1171260D02*
X2376476Y1170768D01*
X2327756Y1023622D02*
Y1149606D01*
X2291339Y1025591D02*
Y1099409D01*
X2549888Y937008D02*
X2692913D01*
X2537093Y949803D02*
X2549888Y937008D01*
X2529528Y949803D02*
X2537093D01*
X2692913Y937008D02*
X2698819Y931102D01*
X2532509Y780540D02*
X2568898Y816929D01*
X2522666Y780540D02*
X2532509D01*
X2461614Y719488D02*
X2522666Y780540D01*
X2478347Y1556102D02*
X2597441D01*
X2414370Y1492126D02*
X2478347Y1556102D01*
X2127953Y1940945D02*
X2129429Y1939469D01*
Y1781004D02*
X2130905Y1779528D01*
X2129429Y1781004D02*
Y1939469D01*
X2104331Y1341535D02*
Y1346707D01*
X2084646Y1366392D02*
X2104331Y1346707D01*
X2084646Y1366392D02*
Y1502953D01*
X2269727Y1260827D02*
X2282633Y1273733D01*
X2102362Y1260827D02*
X2269727D01*
X2251968Y1153543D02*
X2324803Y1226378D01*
X2358165Y1273733D02*
X2377961Y1253937D01*
X2282633Y1273733D02*
X2358165D01*
X2377961Y1253937D02*
X2382911D01*
X2143701Y1153543D02*
X2251968D01*
X2218012Y1025098D02*
Y1096949D01*
X2213583Y1101378D02*
X2218012Y1096949D01*
Y1025098D02*
X2222441Y1020669D01*
X2429134Y524606D02*
Y533129D01*
X2411417Y550846D02*
X2429134Y533129D01*
X2411417Y550846D02*
Y624016D01*
X1987205Y1748441D02*
Y1755906D01*
Y1748441D02*
X2005743Y1729902D01*
Y1721619D02*
X2028543Y1698819D01*
X1562992Y1640748D02*
Y1644685D01*
X1518701Y1688976D02*
X1562992Y1644685D01*
X1518701Y1688976D02*
Y1692913D01*
X1816929Y1873032D02*
X1876968Y1812992D01*
X1984252D01*
X2018701Y1847441D01*
X1685039Y1116142D02*
X1721457Y1152559D01*
X1622298Y1116142D02*
X1685039D01*
X1721457Y1152559D02*
X1758858D01*
X1607534Y1101378D02*
X1622298Y1116142D01*
X1600394Y1101378D02*
X1607534D01*
X786417Y1172244D02*
X825787Y1211614D01*
X738189Y1172244D02*
X786417D01*
X2005743Y1721619D02*
Y1729902D01*
X1081693Y677165D02*
X1110236Y648622D01*
X1584646D01*
X1078740Y607284D02*
X1079724Y606299D01*
X1181102D02*
X1182087Y605315D01*
X1079724Y606299D02*
X1181102D01*
X3101378Y647638D02*
X3139764Y609252D01*
X3203740D01*
X1498895Y1349530D02*
X1504921Y1343504D01*
X1424213Y1407480D02*
X1482162Y1349530D01*
X1498895D01*
X2576772Y523622D02*
X2578740Y525591D01*
Y525591D01*
X2679134Y625984D01*
Y735236D01*
X2718504Y521654D02*
X2722933Y526083D01*
Y632382D01*
X2727362Y636811D01*
D25*
X890945Y426772D02*
D03*
X998819D02*
D03*
X1106693D02*
D03*
X1214567D02*
D03*
X1322441D02*
D03*
X944882Y314961D02*
D03*
X1052756D02*
D03*
X1160630D02*
D03*
X1268504D02*
D03*
X2765354D02*
D03*
X2657480D02*
D03*
X2549606D02*
D03*
X2441732D02*
D03*
X2819291Y426772D02*
D03*
X2711417D02*
D03*
X2603543D02*
D03*
X2495669D02*
D03*
X2387795D02*
D03*
D26*
X614173Y370866D02*
D03*
X1598425D02*
D03*
X3095276D02*
D03*
X2111023D02*
D03*
D27*
X1887795Y912402D02*
D03*
X1987795D02*
D03*
X1446850Y918307D02*
D03*
X1546850D02*
D03*
D28*
X2087795Y912402D02*
D03*
X1646850Y918307D02*
D03*
D29*
X3279528Y665748D02*
D03*
X368110Y638779D02*
D03*
D30*
X3279528Y765748D02*
D03*
X368110Y738779D02*
D03*
D31*
X3066142Y2736220D02*
D03*
X2966142D02*
D03*
X3066142Y2636220D02*
D03*
X2966142D02*
D03*
X3066142Y2536220D02*
D03*
X2966142D02*
D03*
X3066142Y2436220D02*
D03*
X2966142D02*
D03*
X3066142Y2336220D02*
D03*
X2966142D02*
D03*
Y2236220D02*
D03*
Y2136220D02*
D03*
X3066142Y2036220D02*
D03*
X2966142D02*
D03*
X3066142Y1936220D02*
D03*
X2966142D02*
D03*
X3066142Y1836220D02*
D03*
X2966142D02*
D03*
X3066142Y1736220D02*
D03*
X2966142D02*
D03*
X3066142Y1636220D02*
D03*
X2966142D02*
D03*
X3066142Y1536220D02*
D03*
X2966142D02*
D03*
X3066142Y1436220D02*
D03*
X2966142D02*
D03*
X3066142Y1336220D02*
D03*
X2966142D02*
D03*
X3066142Y1236220D02*
D03*
X2966142D02*
D03*
X3066142Y1136220D02*
D03*
X2966142D02*
D03*
X3066142Y1036220D02*
D03*
X2966142D02*
D03*
X3066142Y936221D02*
D03*
X2966142D02*
D03*
X3066142Y2236220D02*
D03*
Y2136220D02*
D03*
X666142Y2736220D02*
D03*
X566142D02*
D03*
X666142Y2636220D02*
D03*
X566142D02*
D03*
X666142Y2536220D02*
D03*
X566142D02*
D03*
X666142Y2436220D02*
D03*
X566142D02*
D03*
X666142Y2336220D02*
D03*
X566142D02*
D03*
X666142Y2236220D02*
D03*
X566142D02*
D03*
X666142Y2136220D02*
D03*
X566142D02*
D03*
X666142Y2036220D02*
D03*
X566142D02*
D03*
X666142Y1936220D02*
D03*
X566142D02*
D03*
X666142Y1836220D02*
D03*
X566142D02*
D03*
X666142Y1736220D02*
D03*
X566142D02*
D03*
X666142Y1636220D02*
D03*
X566142D02*
D03*
X666142Y1536220D02*
D03*
X566142D02*
D03*
X666142Y1436220D02*
D03*
X566142D02*
D03*
X666142Y1336220D02*
D03*
X566142D02*
D03*
X666142Y1236220D02*
D03*
X566142D02*
D03*
X666142Y1136220D02*
D03*
X566142D02*
D03*
X666142Y1036220D02*
D03*
X566142D02*
D03*
X666142Y936221D02*
D03*
X566142D02*
D03*
D32*
X866142Y2236220D02*
D03*
Y2136220D02*
D03*
Y2036220D02*
D03*
Y1936220D02*
D03*
Y1836220D02*
D03*
Y1736220D02*
D03*
Y1636220D02*
D03*
D33*
Y2336220D02*
D03*
D34*
X2559055Y1330709D02*
D03*
X2655512Y1340551D02*
D03*
X2455709Y932087D02*
D03*
X2376968Y1075787D02*
D03*
X2375984Y1171260D02*
D03*
X2327756Y1149606D02*
D03*
X2291339Y1099409D02*
D03*
Y1025591D02*
D03*
X2568898Y816929D02*
D03*
X2529528Y949803D02*
D03*
X2698819Y931102D02*
D03*
X2461614Y719488D02*
D03*
X2597441Y1556102D02*
D03*
X2414370Y1492126D02*
D03*
X2127953Y1940945D02*
D03*
X2130905Y1779528D02*
D03*
X2104331Y1341535D02*
D03*
X2102362Y1260827D02*
D03*
X2324803Y1226378D02*
D03*
X2382911Y1253937D02*
D03*
X2213583Y1101378D02*
D03*
X2143701Y1153543D02*
D03*
X2222441Y1020669D02*
D03*
X2429134Y524606D02*
D03*
X2411417Y624016D02*
D03*
X1987205Y1755906D02*
D03*
X2028543Y1698819D02*
D03*
X2084646Y1502953D02*
D03*
X1518701Y1692913D02*
D03*
X1562992Y1640748D02*
D03*
X1816929Y1873032D02*
D03*
X2018701Y1847441D02*
D03*
X1758858Y1152559D02*
D03*
X1600394Y1101378D02*
D03*
X738189Y1172244D02*
D03*
X825787Y1211614D02*
D03*
X1081693Y677165D02*
D03*
X1584646Y648622D02*
D03*
X1078740Y607284D02*
D03*
X1182087Y605315D02*
D03*
X3101378Y647638D02*
D03*
X3203740Y609252D02*
D03*
X1504921Y1343504D02*
D03*
X1424213Y1407480D02*
D03*
X2576772Y523622D02*
D03*
X2679134Y735236D02*
D03*
X2718504Y521654D02*
D03*
X2727362Y636811D02*
D03*
%TF.MD5,3629765f3f4be3d21c3428d5c4ca8ed0*%
M02*
