%TF.GenerationSoftware,Altium Limited,Altium Designer,21.7.2 (23)*%
G04 Layer_Color=2752767*
%FSLAX26Y26*%
%MOIN*%
%TF.SameCoordinates,C96B85AD-BFD8-4542-BB89-30D630789AD8*%
%TF.FilePolarity,Positive*%
%TF.FileFunction,Drawing*%
%TF.Part,Single*%
G01*
G75*
%TA.AperFunction,NonConductor*%
%ADD64C,0.005000*%
%ADD65C,0.006667*%
D64*
X870945Y406772D02*
Y446772D01*
X910945D01*
Y406772D01*
X870945D01*
X978819D02*
Y446772D01*
X1018819D01*
Y406772D01*
X978819D01*
X1086693D02*
Y446772D01*
X1126693D01*
Y406772D01*
X1086693D01*
X1194567D02*
Y446772D01*
X1234567D01*
Y406772D01*
X1194567D01*
X1302441D02*
Y446772D01*
X1342441D01*
Y406772D01*
X1302441D01*
X924882Y294961D02*
Y334961D01*
X964882D01*
Y294961D01*
X924882D01*
X1032756D02*
Y334961D01*
X1072756D01*
Y294961D01*
X1032756D01*
X1140630D02*
Y334961D01*
X1180630D01*
Y294961D01*
X1140630D01*
X1248504D02*
Y334961D01*
X1288504D01*
Y294961D01*
X1248504D01*
X2745354D02*
Y334961D01*
X2785354D01*
Y294961D01*
X2745354D01*
X2637480D02*
Y334961D01*
X2677480D01*
Y294961D01*
X2637480D01*
X2529606D02*
Y334961D01*
X2569606D01*
Y294961D01*
X2529606D01*
X2421732D02*
Y334961D01*
X2461732D01*
Y294961D01*
X2421732D01*
X2799291Y406772D02*
Y446772D01*
X2839291D01*
Y406772D01*
X2799291D01*
X2691417D02*
Y446772D01*
X2731417D01*
Y406772D01*
X2691417D01*
X2583543D02*
Y446772D01*
X2623543D01*
Y406772D01*
X2583543D01*
X2475669D02*
Y446772D01*
X2515669D01*
Y406772D01*
X2475669D01*
X2367795D02*
Y446772D01*
X2407795D01*
Y406772D01*
X2367795D01*
X1887795Y892402D02*
X1867795Y932402D01*
X1907795D01*
X1887795Y892402D01*
X1987795D02*
X1967795Y932402D01*
X2007795D01*
X1987795Y892402D01*
X2087795D02*
X2067795Y932402D01*
X2107795D01*
X2087795Y892402D01*
X1446850Y898307D02*
X1426850Y938307D01*
X1466850D01*
X1446850Y898307D01*
X1546850D02*
X1526850Y938307D01*
X1566850D01*
X1546850Y898307D01*
X1646850D02*
X1626850Y938307D01*
X1666850D01*
X1646850Y898307D01*
X3279528Y645748D02*
X3289528Y655748D01*
X3299528D01*
X3289528Y665748D01*
X3299528Y675748D01*
X3289528D01*
X3279528Y685748D01*
X3269528Y675748D01*
X3259528D01*
X3269528Y665748D01*
X3259528Y655748D01*
X3269528D01*
X3279528Y645748D01*
Y745748D02*
X3289528Y755748D01*
X3299528D01*
X3289528Y765748D01*
X3299528Y775748D01*
X3289528D01*
X3279528Y785748D01*
X3269528Y775748D01*
X3259528D01*
X3269528Y765748D01*
X3259528Y755748D01*
X3269528D01*
X3279528Y745748D01*
X368110Y618779D02*
X378110Y628779D01*
X388110D01*
X378110Y638779D01*
X388110Y648779D01*
X378110D01*
X368110Y658779D01*
X358110Y648779D01*
X348110D01*
X358110Y638779D01*
X348110Y628779D01*
X358110D01*
X368110Y618779D01*
Y718779D02*
X378110Y728779D01*
X388110D01*
X378110Y738779D01*
X388110Y748779D01*
X378110D01*
X368110Y758779D01*
X358110Y748779D01*
X348110D01*
X358110Y738779D01*
X348110Y728779D01*
X358110D01*
X368110Y718779D01*
X3066142Y2716220D02*
X3046142Y2756220D01*
X3086142D01*
X3066142Y2716220D01*
X2966142D02*
X2946142Y2756220D01*
X2986142D01*
X2966142Y2716220D01*
X3066142Y2616220D02*
X3046142Y2656220D01*
X3086142D01*
X3066142Y2616220D01*
X2966142D02*
X2946142Y2656220D01*
X2986142D01*
X2966142Y2616220D01*
X3066142Y2516220D02*
X3046142Y2556220D01*
X3086142D01*
X3066142Y2516220D01*
X2966142D02*
X2946142Y2556220D01*
X2986142D01*
X2966142Y2516220D01*
X3066142Y2416220D02*
X3046142Y2456220D01*
X3086142D01*
X3066142Y2416220D01*
X2966142D02*
X2946142Y2456220D01*
X2986142D01*
X2966142Y2416220D01*
X3066142Y2316220D02*
X3046142Y2356220D01*
X3086142D01*
X3066142Y2316220D01*
X2966142D02*
X2946142Y2356220D01*
X2986142D01*
X2966142Y2316220D01*
Y2216220D02*
X2946142Y2256220D01*
X2986142D01*
X2966142Y2216220D01*
Y2116220D02*
X2946142Y2156220D01*
X2986142D01*
X2966142Y2116220D01*
X3066142Y2016220D02*
X3046142Y2056220D01*
X3086142D01*
X3066142Y2016220D01*
X2966142D02*
X2946142Y2056220D01*
X2986142D01*
X2966142Y2016220D01*
X3066142Y1916220D02*
X3046142Y1956220D01*
X3086142D01*
X3066142Y1916220D01*
X2966142D02*
X2946142Y1956220D01*
X2986142D01*
X2966142Y1916220D01*
X3066142Y1816220D02*
X3046142Y1856220D01*
X3086142D01*
X3066142Y1816220D01*
X2966142D02*
X2946142Y1856220D01*
X2986142D01*
X2966142Y1816220D01*
X3066142Y1716220D02*
X3046142Y1756220D01*
X3086142D01*
X3066142Y1716220D01*
X2966142D02*
X2946142Y1756220D01*
X2986142D01*
X2966142Y1716220D01*
X3066142Y1616220D02*
X3046142Y1656220D01*
X3086142D01*
X3066142Y1616220D01*
X2966142D02*
X2946142Y1656220D01*
X2986142D01*
X2966142Y1616220D01*
X3066142Y1516220D02*
X3046142Y1556220D01*
X3086142D01*
X3066142Y1516220D01*
X2966142D02*
X2946142Y1556220D01*
X2986142D01*
X2966142Y1516220D01*
X3066142Y1416220D02*
X3046142Y1456220D01*
X3086142D01*
X3066142Y1416220D01*
X2966142D02*
X2946142Y1456220D01*
X2986142D01*
X2966142Y1416220D01*
X3066142Y1316220D02*
X3046142Y1356220D01*
X3086142D01*
X3066142Y1316220D01*
X2966142D02*
X2946142Y1356220D01*
X2986142D01*
X2966142Y1316220D01*
X3066142Y1216220D02*
X3046142Y1256220D01*
X3086142D01*
X3066142Y1216220D01*
X2966142D02*
X2946142Y1256220D01*
X2986142D01*
X2966142Y1216220D01*
X3066142Y1116220D02*
X3046142Y1156220D01*
X3086142D01*
X3066142Y1116220D01*
X2966142D02*
X2946142Y1156220D01*
X2986142D01*
X2966142Y1116220D01*
X3066142Y1016221D02*
X3046142Y1056220D01*
X3086142D01*
X3066142Y1016221D01*
X2966142D02*
X2946142Y1056220D01*
X2986142D01*
X2966142Y1016221D01*
X3066142Y916221D02*
X3046142Y956221D01*
X3086142D01*
X3066142Y916221D01*
X2966142D02*
X2946142Y956221D01*
X2986142D01*
X2966142Y916221D01*
X3066142Y2216220D02*
X3046142Y2256220D01*
X3086142D01*
X3066142Y2216220D01*
Y2116220D02*
X3046142Y2156220D01*
X3086142D01*
X3066142Y2116220D01*
X666142Y2716220D02*
X646142Y2756220D01*
X686142D01*
X666142Y2716220D01*
X566142D02*
X546142Y2756220D01*
X586142D01*
X566142Y2716220D01*
X666142Y2616220D02*
X646142Y2656220D01*
X686142D01*
X666142Y2616220D01*
X566142D02*
X546142Y2656220D01*
X586142D01*
X566142Y2616220D01*
X666142Y2516220D02*
X646142Y2556220D01*
X686142D01*
X666142Y2516220D01*
X566142D02*
X546142Y2556220D01*
X586142D01*
X566142Y2516220D01*
X666142Y2416220D02*
X646142Y2456220D01*
X686142D01*
X666142Y2416220D01*
X566142D02*
X546142Y2456220D01*
X586142D01*
X566142Y2416220D01*
X666142Y2316220D02*
X646142Y2356220D01*
X686142D01*
X666142Y2316220D01*
X566142D02*
X546142Y2356220D01*
X586142D01*
X566142Y2316220D01*
X666142Y2216220D02*
X646142Y2256220D01*
X686142D01*
X666142Y2216220D01*
X566142D02*
X546142Y2256220D01*
X586142D01*
X566142Y2216220D01*
X666142Y2116220D02*
X646142Y2156220D01*
X686142D01*
X666142Y2116220D01*
X566142D02*
X546142Y2156220D01*
X586142D01*
X566142Y2116220D01*
X666142Y2016220D02*
X646142Y2056220D01*
X686142D01*
X666142Y2016220D01*
X566142D02*
X546142Y2056220D01*
X586142D01*
X566142Y2016220D01*
X666142Y1916220D02*
X646142Y1956220D01*
X686142D01*
X666142Y1916220D01*
X566142D02*
X546142Y1956220D01*
X586142D01*
X566142Y1916220D01*
X666142Y1816220D02*
X646142Y1856220D01*
X686142D01*
X666142Y1816220D01*
X566142D02*
X546142Y1856220D01*
X586142D01*
X566142Y1816220D01*
X666142Y1716220D02*
X646142Y1756220D01*
X686142D01*
X666142Y1716220D01*
X566142D02*
X546142Y1756220D01*
X586142D01*
X566142Y1716220D01*
X666142Y1616220D02*
X646142Y1656220D01*
X686142D01*
X666142Y1616220D01*
X566142D02*
X546142Y1656220D01*
X586142D01*
X566142Y1616220D01*
X666142Y1516220D02*
X646142Y1556220D01*
X686142D01*
X666142Y1516220D01*
X566142D02*
X546142Y1556220D01*
X586142D01*
X566142Y1516220D01*
X666142Y1416220D02*
X646142Y1456220D01*
X686142D01*
X666142Y1416220D01*
X566142D02*
X546142Y1456220D01*
X586142D01*
X566142Y1416220D01*
X666142Y1316220D02*
X646142Y1356220D01*
X686142D01*
X666142Y1316220D01*
X566142D02*
X546142Y1356220D01*
X586142D01*
X566142Y1316220D01*
X666142Y1216220D02*
X646142Y1256220D01*
X686142D01*
X666142Y1216220D01*
X566142D02*
X546142Y1256220D01*
X586142D01*
X566142Y1216220D01*
X666142Y1116220D02*
X646142Y1156220D01*
X686142D01*
X666142Y1116220D01*
X566142D02*
X546142Y1156220D01*
X586142D01*
X566142Y1116220D01*
X666142Y1016221D02*
X646142Y1056220D01*
X686142D01*
X666142Y1016221D01*
X566142D02*
X546142Y1056220D01*
X586142D01*
X566142Y1016221D01*
X666142Y916221D02*
X646142Y956221D01*
X686142D01*
X666142Y916221D01*
X566142D02*
X546142Y956221D01*
X586142D01*
X566142Y916221D01*
X866142Y2216220D02*
X846142Y2256220D01*
X886142D01*
X866142Y2216220D01*
Y2116220D02*
X846142Y2156220D01*
X886142D01*
X866142Y2116220D01*
Y2016220D02*
X846142Y2056220D01*
X886142D01*
X866142Y2016220D01*
Y1916220D02*
X846142Y1956220D01*
X886142D01*
X866142Y1916220D01*
Y1816220D02*
X846142Y1856220D01*
X886142D01*
X866142Y1816220D01*
Y1716220D02*
X846142Y1756220D01*
X886142D01*
X866142Y1716220D01*
Y1616220D02*
X846142Y1656220D01*
X886142D01*
X866142Y1616220D01*
Y2316220D02*
X846142Y2356220D01*
X886142D01*
X866142Y2316220D01*
X2539055Y1310709D02*
X2549055Y1330709D01*
X2539055Y1350709D01*
X2559055Y1340709D01*
X2579055Y1350709D01*
X2569055Y1330709D01*
X2579055Y1310709D01*
X2559055Y1320709D01*
X2539055Y1310709D01*
X2635512Y1320551D02*
X2645512Y1340551D01*
X2635512Y1360551D01*
X2655512Y1350551D01*
X2675512Y1360551D01*
X2665512Y1340551D01*
X2675512Y1320551D01*
X2655512Y1330551D01*
X2635512Y1320551D01*
X2435709Y912087D02*
X2445709Y932087D01*
X2435709Y952087D01*
X2455709Y942087D01*
X2475709Y952087D01*
X2465709Y932087D01*
X2475709Y912087D01*
X2455709Y922087D01*
X2435709Y912087D01*
X2356968Y1055787D02*
X2366968Y1075787D01*
X2356968Y1095787D01*
X2376968Y1085787D01*
X2396968Y1095787D01*
X2386968Y1075787D01*
X2396968Y1055787D01*
X2376968Y1065787D01*
X2356968Y1055787D01*
X2355984Y1151260D02*
X2365984Y1171260D01*
X2355984Y1191260D01*
X2375984Y1181260D01*
X2395984Y1191260D01*
X2385984Y1171260D01*
X2395984Y1151260D01*
X2375984Y1161260D01*
X2355984Y1151260D01*
X2307756Y1129606D02*
X2317756Y1149606D01*
X2307756Y1169606D01*
X2327756Y1159606D01*
X2347756Y1169606D01*
X2337756Y1149606D01*
X2347756Y1129606D01*
X2327756Y1139606D01*
X2307756Y1129606D01*
X2271339Y1079409D02*
X2281339Y1099409D01*
X2271339Y1119409D01*
X2291339Y1109409D01*
X2311339Y1119409D01*
X2301339Y1099409D01*
X2311339Y1079409D01*
X2291339Y1089409D01*
X2271339Y1079409D01*
Y1005591D02*
X2281339Y1025591D01*
X2271339Y1045591D01*
X2291339Y1035591D01*
X2311339Y1045591D01*
X2301339Y1025591D01*
X2311339Y1005591D01*
X2291339Y1015591D01*
X2271339Y1005591D01*
X2548898Y796929D02*
X2558898Y816929D01*
X2548898Y836929D01*
X2568898Y826929D01*
X2588898Y836929D01*
X2578898Y816929D01*
X2588898Y796929D01*
X2568898Y806929D01*
X2548898Y796929D01*
X2509528Y929803D02*
X2519528Y949803D01*
X2509528Y969803D01*
X2529528Y959803D01*
X2549528Y969803D01*
X2539528Y949803D01*
X2549528Y929803D01*
X2529528Y939803D01*
X2509528Y929803D01*
X2678819Y911102D02*
X2688819Y931102D01*
X2678819Y951102D01*
X2698819Y941102D01*
X2718819Y951102D01*
X2708819Y931102D01*
X2718819Y911102D01*
X2698819Y921102D01*
X2678819Y911102D01*
X2441614Y699488D02*
X2451614Y719488D01*
X2441614Y739488D01*
X2461614Y729488D01*
X2481614Y739488D01*
X2471614Y719488D01*
X2481614Y699488D01*
X2461614Y709488D01*
X2441614Y699488D01*
X2577441Y1536102D02*
X2587441Y1556102D01*
X2577441Y1576102D01*
X2597441Y1566102D01*
X2617441Y1576102D01*
X2607441Y1556102D01*
X2617441Y1536102D01*
X2597441Y1546102D01*
X2577441Y1536102D01*
X2394370Y1472126D02*
X2404370Y1492126D01*
X2394370Y1512126D01*
X2414370Y1502126D01*
X2434370Y1512126D01*
X2424370Y1492126D01*
X2434370Y1472126D01*
X2414370Y1482126D01*
X2394370Y1472126D01*
X2107953Y1920945D02*
X2117953Y1940945D01*
X2107953Y1960945D01*
X2127953Y1950945D01*
X2147953Y1960945D01*
X2137953Y1940945D01*
X2147953Y1920945D01*
X2127953Y1930945D01*
X2107953Y1920945D01*
X2110905Y1759528D02*
X2120905Y1779528D01*
X2110905Y1799528D01*
X2130905Y1789528D01*
X2150905Y1799528D01*
X2140905Y1779528D01*
X2150905Y1759528D01*
X2130905Y1769528D01*
X2110905Y1759528D01*
X2084331Y1321535D02*
X2094331Y1341535D01*
X2084331Y1361535D01*
X2104331Y1351535D01*
X2124331Y1361535D01*
X2114331Y1341535D01*
X2124331Y1321535D01*
X2104331Y1331535D01*
X2084331Y1321535D01*
X2082362Y1240827D02*
X2092362Y1260827D01*
X2082362Y1280827D01*
X2102362Y1270827D01*
X2122362Y1280827D01*
X2112362Y1260827D01*
X2122362Y1240827D01*
X2102362Y1250827D01*
X2082362Y1240827D01*
X2304803Y1206378D02*
X2314803Y1226378D01*
X2304803Y1246378D01*
X2324803Y1236378D01*
X2344803Y1246378D01*
X2334803Y1226378D01*
X2344803Y1206378D01*
X2324803Y1216378D01*
X2304803Y1206378D01*
X2362911Y1233937D02*
X2372911Y1253937D01*
X2362911Y1273937D01*
X2382911Y1263937D01*
X2402911Y1273937D01*
X2392911Y1253937D01*
X2402911Y1233937D01*
X2382911Y1243937D01*
X2362911Y1233937D01*
X2193583Y1081378D02*
X2203583Y1101378D01*
X2193583Y1121378D01*
X2213583Y1111378D01*
X2233583Y1121378D01*
X2223583Y1101378D01*
X2233583Y1081378D01*
X2213583Y1091378D01*
X2193583Y1081378D01*
X2123701Y1133543D02*
X2133701Y1153543D01*
X2123701Y1173543D01*
X2143701Y1163543D01*
X2163701Y1173543D01*
X2153701Y1153543D01*
X2163701Y1133543D01*
X2143701Y1143543D01*
X2123701Y1133543D01*
X2202441Y1000669D02*
X2212441Y1020669D01*
X2202441Y1040669D01*
X2222441Y1030669D01*
X2242441Y1040669D01*
X2232441Y1020669D01*
X2242441Y1000669D01*
X2222441Y1010669D01*
X2202441Y1000669D01*
X2409134Y504606D02*
X2419134Y524606D01*
X2409134Y544606D01*
X2429134Y534606D01*
X2449134Y544606D01*
X2439134Y524606D01*
X2449134Y504606D01*
X2429134Y514606D01*
X2409134Y504606D01*
X2391417Y604016D02*
X2401417Y624016D01*
X2391417Y644016D01*
X2411417Y634016D01*
X2431417Y644016D01*
X2421417Y624016D01*
X2431417Y604016D01*
X2411417Y614016D01*
X2391417Y604016D01*
X1967205Y1735906D02*
X1977205Y1755906D01*
X1967205Y1775906D01*
X1987205Y1765906D01*
X2007205Y1775906D01*
X1997205Y1755906D01*
X2007205Y1735906D01*
X1987205Y1745906D01*
X1967205Y1735906D01*
X2008543Y1678819D02*
X2018543Y1698819D01*
X2008543Y1718819D01*
X2028543Y1708819D01*
X2048543Y1718819D01*
X2038543Y1698819D01*
X2048543Y1678819D01*
X2028543Y1688819D01*
X2008543Y1678819D01*
X2064646Y1482953D02*
X2074646Y1502953D01*
X2064646Y1522953D01*
X2084646Y1512953D01*
X2104646Y1522953D01*
X2094646Y1502953D01*
X2104646Y1482953D01*
X2084646Y1492953D01*
X2064646Y1482953D01*
X1498701Y1672913D02*
X1508701Y1692913D01*
X1498701Y1712913D01*
X1518701Y1702913D01*
X1538701Y1712913D01*
X1528701Y1692913D01*
X1538701Y1672913D01*
X1518701Y1682913D01*
X1498701Y1672913D01*
X1542992Y1620748D02*
X1552992Y1640748D01*
X1542992Y1660748D01*
X1562992Y1650748D01*
X1582992Y1660748D01*
X1572992Y1640748D01*
X1582992Y1620748D01*
X1562992Y1630748D01*
X1542992Y1620748D01*
X1796929Y1853032D02*
X1806929Y1873032D01*
X1796929Y1893032D01*
X1816929Y1883032D01*
X1836929Y1893032D01*
X1826929Y1873032D01*
X1836929Y1853032D01*
X1816929Y1863032D01*
X1796929Y1853032D01*
X1998701Y1827441D02*
X2008701Y1847441D01*
X1998701Y1867441D01*
X2018701Y1857441D01*
X2038701Y1867441D01*
X2028701Y1847441D01*
X2038701Y1827441D01*
X2018701Y1837441D01*
X1998701Y1827441D01*
X1738858Y1132559D02*
X1748858Y1152559D01*
X1738858Y1172559D01*
X1758858Y1162559D01*
X1778858Y1172559D01*
X1768858Y1152559D01*
X1778858Y1132559D01*
X1758858Y1142559D01*
X1738858Y1132559D01*
X1580394Y1081378D02*
X1590394Y1101378D01*
X1580394Y1121378D01*
X1600394Y1111378D01*
X1620394Y1121378D01*
X1610394Y1101378D01*
X1620394Y1081378D01*
X1600394Y1091378D01*
X1580394Y1081378D01*
X718189Y1152244D02*
X728189Y1172244D01*
X718189Y1192244D01*
X738189Y1182244D01*
X758189Y1192244D01*
X748189Y1172244D01*
X758189Y1152244D01*
X738189Y1162244D01*
X718189Y1152244D01*
X805787Y1191614D02*
X815787Y1211614D01*
X805787Y1231614D01*
X825787Y1221614D01*
X845787Y1231614D01*
X835787Y1211614D01*
X845787Y1191614D01*
X825787Y1201614D01*
X805787Y1191614D01*
X1061693Y657165D02*
X1071693Y677165D01*
X1061693Y697165D01*
X1081693Y687165D01*
X1101693Y697165D01*
X1091693Y677165D01*
X1101693Y657165D01*
X1081693Y667165D01*
X1061693Y657165D01*
X1564646Y628622D02*
X1574646Y648622D01*
X1564646Y668622D01*
X1584646Y658622D01*
X1604646Y668622D01*
X1594646Y648622D01*
X1604646Y628622D01*
X1584646Y638622D01*
X1564646Y628622D01*
X1058740Y587284D02*
X1068740Y607284D01*
X1058740Y627284D01*
X1078740Y617284D01*
X1098740Y627284D01*
X1088740Y607284D01*
X1098740Y587284D01*
X1078740Y597284D01*
X1058740Y587284D01*
X1162087Y585315D02*
X1172087Y605315D01*
X1162087Y625315D01*
X1182087Y615315D01*
X1202087Y625315D01*
X1192087Y605315D01*
X1202087Y585315D01*
X1182087Y595315D01*
X1162087Y585315D01*
X3081378Y627638D02*
X3091378Y647638D01*
X3081378Y667638D01*
X3101378Y657638D01*
X3121378Y667638D01*
X3111378Y647638D01*
X3121378Y627638D01*
X3101378Y637638D01*
X3081378Y627638D01*
X3183740Y589252D02*
X3193740Y609252D01*
X3183740Y629252D01*
X3203740Y619252D01*
X3223740Y629252D01*
X3213740Y609252D01*
X3223740Y589252D01*
X3203740Y599252D01*
X3183740Y589252D01*
X1484921Y1323504D02*
X1494921Y1343504D01*
X1484921Y1363504D01*
X1504921Y1353504D01*
X1524921Y1363504D01*
X1514921Y1343504D01*
X1524921Y1323504D01*
X1504921Y1333504D01*
X1484921Y1323504D01*
X1404213Y1387480D02*
X1414213Y1407480D01*
X1404213Y1427480D01*
X1424213Y1417480D01*
X1444213Y1427480D01*
X1434213Y1407480D01*
X1444213Y1387480D01*
X1424213Y1397480D01*
X1404213Y1387480D01*
X2556772Y503622D02*
X2566772Y523622D01*
X2556772Y543622D01*
X2576772Y533622D01*
X2596772Y543622D01*
X2586772Y523622D01*
X2596772Y503622D01*
X2576772Y513622D01*
X2556772Y503622D01*
X2659134Y715236D02*
X2669134Y735236D01*
X2659134Y755236D01*
X2679134Y745236D01*
X2699134Y755236D01*
X2689134Y735236D01*
X2699134Y715236D01*
X2679134Y725236D01*
X2659134Y715236D01*
X2698504Y501654D02*
X2708504Y521654D01*
X2698504Y541654D01*
X2718504Y531654D01*
X2738504Y541654D01*
X2728504Y521654D01*
X2738504Y501654D01*
X2718504Y511654D01*
X2698504Y501654D01*
X2707362Y616811D02*
X2717362Y636811D01*
X2707362Y656811D01*
X2727362Y646811D01*
X2747362Y656811D01*
X2737362Y636811D01*
X2747362Y616811D01*
X2727362Y626811D01*
X2707362Y616811D01*
D65*
X634173Y370866D02*
G03*
X634173Y370866I-20000J0D01*
G01*
X1618425D02*
G03*
X1618425Y370866I-20000J0D01*
G01*
X3115276D02*
G03*
X3115276Y370866I-20000J0D01*
G01*
X2131023D02*
G03*
X2131023Y370866I-20000J0D01*
G01*
%TF.MD5,d482bac446c4f2518bb41202e085ee25*%
M02*
