ISO-10303-21;
HEADER;
FILE_DESCRIPTION((''),'2;1');
FILE_NAME('68001-X02','2019-09-20T',('pramu'),('AFCI'),
'CREO PARAMETRIC BY PTC INC, 2016130','CREO PARAMETRIC BY PTC INC, 2016130','');
FILE_SCHEMA(('CONFIG_CONTROL_DESIGN'));
ENDSEC;
DATA;
#1=CARTESIAN_POINT('',(7.4E-2,0.E0,-2.2E-2));
#2=DIRECTION('',(0.E0,-1.E0,0.E0));
#3=DIRECTION('',(1.E0,0.E0,0.E0));
#4=AXIS2_PLACEMENT_3D('',#1,#2,#3);
#6=CARTESIAN_POINT('',(7.4E-2,0.E0,-2.2E-2));
#7=DIRECTION('',(0.E0,-1.E0,0.E0));
#8=DIRECTION('',(-1.E0,0.E0,0.E0));
#9=AXIS2_PLACEMENT_3D('',#6,#7,#8);
#11=CARTESIAN_POINT('',(1.26E-1,0.E0,2.2E-2));
#12=DIRECTION('',(0.E0,-1.E0,0.E0));
#13=DIRECTION('',(1.E0,0.E0,0.E0));
#14=AXIS2_PLACEMENT_3D('',#11,#12,#13);
#16=CARTESIAN_POINT('',(1.26E-1,0.E0,2.2E-2));
#17=DIRECTION('',(0.E0,-1.E0,0.E0));
#18=DIRECTION('',(-1.E0,0.E0,0.E0));
#19=AXIS2_PLACEMENT_3D('',#16,#17,#18);
#21=CARTESIAN_POINT('',(2.6E-2,0.E0,2.2E-2));
#22=DIRECTION('',(0.E0,-1.E0,0.E0));
#23=DIRECTION('',(1.E0,0.E0,0.E0));
#24=AXIS2_PLACEMENT_3D('',#21,#22,#23);
#26=CARTESIAN_POINT('',(2.6E-2,0.E0,2.2E-2));
#27=DIRECTION('',(0.E0,-1.E0,0.E0));
#28=DIRECTION('',(-1.E0,0.E0,0.E0));
#29=AXIS2_PLACEMENT_3D('',#26,#27,#28);
#31=CARTESIAN_POINT('',(-2.6E-2,0.E0,-2.2E-2));
#32=DIRECTION('',(0.E0,-1.E0,0.E0));
#33=DIRECTION('',(1.E0,0.E0,0.E0));
#34=AXIS2_PLACEMENT_3D('',#31,#32,#33);
#36=CARTESIAN_POINT('',(-2.6E-2,0.E0,-2.2E-2));
#37=DIRECTION('',(0.E0,-1.E0,0.E0));
#38=DIRECTION('',(-1.E0,0.E0,0.E0));
#39=AXIS2_PLACEMENT_3D('',#36,#37,#38);
#41=DIRECTION('',(4.190581774617E-1,0.E0,-9.079593845005E-1));
#42=VECTOR('',#41,2.863564212655E-2);
#43=CARTESIAN_POINT('',(3.8E-2,0.E0,4.75E-2));
#44=LINE('888',#43,#42);
#45=DIRECTION('',(4.190581774617E-1,0.E0,9.079593845005E-1));
#46=VECTOR('',#45,2.863564212655E-2);
#47=CARTESIAN_POINT('',(5.E-2,0.E0,2.15E-2));
#48=LINE('892',#47,#46);
#49=DIRECTION('',(4.190581774617E-1,0.E0,-9.079593845005E-1));
#50=VECTOR('',#49,2.863564212655E-2);
#51=CARTESIAN_POINT('',(1.38E-1,0.E0,4.75E-2));
#52=LINE('697',#51,#50);
#53=DIRECTION('',(-4.190581774617E-1,0.E0,-9.079593845005E-1));
#54=VECTOR('',#53,2.863564212655E-2);
#55=CARTESIAN_POINT('',(1.5E-1,0.E0,-2.15E-2));
#56=LINE('691',#55,#54);
#57=DIRECTION('',(-4.190581774617E-1,0.E0,9.079593845005E-1));
#58=VECTOR('',#57,2.863564212655E-2);
#59=CARTESIAN_POINT('',(6.2E-2,0.E0,-4.75E-2));
#60=LINE('891',#59,#58);
#61=DIRECTION('',(-4.190581774617E-1,0.E0,-9.079593845005E-1));
#62=VECTOR('',#61,2.863564212655E-2);
#63=CARTESIAN_POINT('',(5.E-2,0.E0,-2.15E-2));
#64=LINE('887',#63,#62);
#65=DIRECTION('',(-4.190581774617E-1,0.E0,9.079593845005E-1));
#66=VECTOR('',#65,2.863564212655E-2);
#67=CARTESIAN_POINT('',(-3.8E-2,0.E0,-4.75E-2));
#68=LINE('633',#67,#66);
#69=DIRECTION('',(4.190581774617E-1,0.E0,9.079593845005E-1));
#70=VECTOR('',#69,2.863564212655E-2);
#71=CARTESIAN_POINT('',(-5.E-2,0.E0,2.15E-2));
#72=LINE('635',#71,#70);
#73=DIRECTION('',(-1.E0,0.E0,0.E0));
#74=VECTOR('',#73,2.5E-2);
#75=CARTESIAN_POINT('',(1.25E-2,0.E0,-1.25E-2));
#76=LINE('895',#75,#74);
#77=DIRECTION('',(0.E0,0.E0,-1.E0));
#78=VECTOR('',#77,2.5E-2);
#79=CARTESIAN_POINT('',(1.25E-2,0.E0,1.25E-2));
#80=LINE('896',#79,#78);
#81=DIRECTION('',(1.E0,0.E0,0.E0));
#82=VECTOR('',#81,2.5E-2);
#83=CARTESIAN_POINT('',(-1.25E-2,0.E0,1.25E-2));
#84=LINE('898',#83,#82);
#85=DIRECTION('',(0.E0,0.E0,1.E0));
#86=VECTOR('',#85,2.5E-2);
#87=CARTESIAN_POINT('',(-1.25E-2,0.E0,-1.25E-2));
#88=LINE('897',#87,#86);
#89=DIRECTION('',(-1.E0,0.E0,0.E0));
#90=VECTOR('',#89,2.5E-2);
#91=CARTESIAN_POINT('',(1.125E-1,0.E0,-1.25E-2));
#92=LINE('911',#91,#90);
#93=DIRECTION('',(0.E0,0.E0,-1.E0));
#94=VECTOR('',#93,2.5E-2);
#95=CARTESIAN_POINT('',(1.125E-1,0.E0,1.25E-2));
#96=LINE('912',#95,#94);
#97=DIRECTION('',(1.E0,0.E0,0.E0));
#98=VECTOR('',#97,2.5E-2);
#99=CARTESIAN_POINT('',(8.75E-2,0.E0,1.25E-2));
#100=LINE('914',#99,#98);
#101=DIRECTION('',(0.E0,0.E0,1.E0));
#102=VECTOR('',#101,2.5E-2);
#103=CARTESIAN_POINT('',(8.75E-2,0.E0,-1.25E-2));
#104=LINE('913',#103,#102);
#105=DIRECTION('',(0.E0,-1.E0,0.E0));
#106=VECTOR('',#105,8.E-3);
#107=CARTESIAN_POINT('',(6.6E-2,0.E0,-2.2E-2));
#108=LINE('746',#107,#106);
#109=DIRECTION('',(0.E0,1.E0,0.E0));
#110=VECTOR('',#109,8.E-3);
#111=CARTESIAN_POINT('',(8.2E-2,-8.E-3,-2.2E-2));
#112=LINE('745',#111,#110);
#113=CARTESIAN_POINT('',(7.4E-2,-8.E-3,-2.2E-2));
#114=DIRECTION('',(0.E0,1.E0,0.E0));
#115=DIRECTION('',(-1.E0,0.E0,0.E0));
#116=AXIS2_PLACEMENT_3D('',#113,#114,#115);
#118=CARTESIAN_POINT('',(7.4E-2,-8.E-3,-2.2E-2));
#119=DIRECTION('',(0.E0,1.E0,0.E0));
#120=DIRECTION('',(1.E0,0.E0,0.E0));
#121=AXIS2_PLACEMENT_3D('',#118,#119,#120);
#123=DIRECTION('',(0.E0,-1.E0,0.E0));
#124=VECTOR('',#123,8.E-3);
#125=CARTESIAN_POINT('',(1.18E-1,0.E0,2.2E-2));
#126=LINE('740',#125,#124);
#127=DIRECTION('',(0.E0,1.E0,0.E0));
#128=VECTOR('',#127,8.E-3);
#129=CARTESIAN_POINT('',(1.34E-1,-8.E-3,2.2E-2));
#130=LINE('739',#129,#128);
#131=CARTESIAN_POINT('',(1.26E-1,-8.E-3,2.2E-2));
#132=DIRECTION('',(0.E0,1.E0,0.E0));
#133=DIRECTION('',(-1.E0,0.E0,0.E0));
#134=AXIS2_PLACEMENT_3D('',#131,#132,#133);
#136=CARTESIAN_POINT('',(1.26E-1,-8.E-3,2.2E-2));
#137=DIRECTION('',(0.E0,1.E0,0.E0));
#138=DIRECTION('',(1.E0,0.E0,0.E0));
#139=AXIS2_PLACEMENT_3D('',#136,#137,#138);
#141=DIRECTION('',(0.E0,-1.E0,0.E0));
#142=VECTOR('',#141,8.E-3);
#143=CARTESIAN_POINT('',(1.8E-2,0.E0,2.2E-2));
#144=LINE('680',#143,#142);
#145=DIRECTION('',(0.E0,1.E0,0.E0));
#146=VECTOR('',#145,8.E-3);
#147=CARTESIAN_POINT('',(3.4E-2,-8.E-3,2.2E-2));
#148=LINE('679',#147,#146);
#149=CARTESIAN_POINT('',(2.6E-2,-8.E-3,2.2E-2));
#150=DIRECTION('',(0.E0,1.E0,0.E0));
#151=DIRECTION('',(-1.E0,0.E0,0.E0));
#152=AXIS2_PLACEMENT_3D('',#149,#150,#151);
#154=CARTESIAN_POINT('',(2.6E-2,-8.E-3,2.2E-2));
#155=DIRECTION('',(0.E0,1.E0,0.E0));
#156=DIRECTION('',(1.E0,0.E0,0.E0));
#157=AXIS2_PLACEMENT_3D('',#154,#155,#156);
#159=DIRECTION('',(0.E0,-1.E0,0.E0));
#160=VECTOR('',#159,8.E-3);
#161=CARTESIAN_POINT('',(-3.4E-2,0.E0,-2.2E-2));
#162=LINE('686',#161,#160);
#163=DIRECTION('',(0.E0,1.E0,0.E0));
#164=VECTOR('',#163,8.E-3);
#165=CARTESIAN_POINT('',(-1.8E-2,-8.E-3,-2.2E-2));
#166=LINE('685',#165,#164);
#167=CARTESIAN_POINT('',(-2.6E-2,-8.E-3,-2.2E-2));
#168=DIRECTION('',(0.E0,1.E0,0.E0));
#169=DIRECTION('',(-1.E0,0.E0,0.E0));
#170=AXIS2_PLACEMENT_3D('',#167,#168,#169);
#172=CARTESIAN_POINT('',(-2.6E-2,-8.E-3,-2.2E-2));
#173=DIRECTION('',(0.E0,1.E0,0.E0));
#174=DIRECTION('',(1.E0,0.E0,0.E0));
#175=AXIS2_PLACEMENT_3D('',#172,#173,#174);
#177=DIRECTION('',(0.E0,1.E0,0.E0));
#178=VECTOR('',#177,8.4E-2);
#179=CARTESIAN_POINT('',(5.E-2,0.E0,2.15E-2));
#180=LINE('886',#179,#178);
#181=DIRECTION('',(0.E0,-1.E0,0.E0));
#182=VECTOR('',#181,8.4E-2);
#183=CARTESIAN_POINT('',(6.2E-2,8.4E-2,4.75E-2));
#184=LINE('726',#183,#182);
#185=CARTESIAN_POINT('',(1.26E-1,8.4E-2,2.2E-2));
#186=DIRECTION('',(0.E0,1.E0,0.E0));
#187=DIRECTION('',(1.E0,0.E0,0.E0));
#188=AXIS2_PLACEMENT_3D('',#185,#186,#187);
#190=CARTESIAN_POINT('',(1.26E-1,8.4E-2,2.2E-2));
#191=DIRECTION('',(0.E0,1.E0,0.E0));
#192=DIRECTION('',(-1.E0,0.E0,0.E0));
#193=AXIS2_PLACEMENT_3D('',#190,#191,#192);
#195=CARTESIAN_POINT('',(7.4E-2,8.4E-2,-2.2E-2));
#196=DIRECTION('',(0.E0,1.E0,0.E0));
#197=DIRECTION('',(1.E0,0.E0,0.E0));
#198=AXIS2_PLACEMENT_3D('',#195,#196,#197);
#200=CARTESIAN_POINT('',(7.4E-2,8.4E-2,-2.2E-2));
#201=DIRECTION('',(0.E0,1.E0,0.E0));
#202=DIRECTION('',(-1.E0,0.E0,0.E0));
#203=AXIS2_PLACEMENT_3D('',#200,#201,#202);
#205=CARTESIAN_POINT('',(-2.6E-2,8.4E-2,-2.2E-2));
#206=DIRECTION('',(0.E0,1.E0,0.E0));
#207=DIRECTION('',(1.E0,0.E0,0.E0));
#208=AXIS2_PLACEMENT_3D('',#205,#206,#207);
#210=CARTESIAN_POINT('',(-2.6E-2,8.4E-2,-2.2E-2));
#211=DIRECTION('',(0.E0,1.E0,0.E0));
#212=DIRECTION('',(-1.E0,0.E0,0.E0));
#213=AXIS2_PLACEMENT_3D('',#210,#211,#212);
#215=CARTESIAN_POINT('',(2.6E-2,8.4E-2,2.2E-2));
#216=DIRECTION('',(0.E0,1.E0,0.E0));
#217=DIRECTION('',(1.E0,0.E0,0.E0));
#218=AXIS2_PLACEMENT_3D('',#215,#216,#217);
#220=CARTESIAN_POINT('',(2.6E-2,8.4E-2,2.2E-2));
#221=DIRECTION('',(0.E0,1.E0,0.E0));
#222=DIRECTION('',(-1.E0,0.E0,0.E0));
#223=AXIS2_PLACEMENT_3D('',#220,#221,#222);
#225=DIRECTION('',(4.190581774617E-1,0.E0,9.079593845005E-1));
#226=VECTOR('',#225,2.863564212655E-2);
#227=CARTESIAN_POINT('',(3.8E-2,8.4E-2,-4.75E-2));
#228=LINE('889',#227,#226);
#229=DIRECTION('',(4.190581774617E-1,0.E0,-9.079593845005E-1));
#230=VECTOR('',#229,2.863564212655E-2);
#231=CARTESIAN_POINT('',(5.E-2,8.4E-2,-2.15E-2));
#232=LINE('894',#231,#230);
#233=DIRECTION('',(4.190581774617E-1,0.E0,9.079593845005E-1));
#234=VECTOR('',#233,2.863564212655E-2);
#235=CARTESIAN_POINT('',(1.38E-1,8.4E-2,-4.75E-2));
#236=LINE('711',#235,#234);
#237=DIRECTION('',(-4.190581774617E-1,0.E0,9.079593845005E-1));
#238=VECTOR('',#237,2.863564212655E-2);
#239=CARTESIAN_POINT('',(1.5E-1,8.4E-2,2.15E-2));
#240=LINE('713',#239,#238);
#241=DIRECTION('',(-4.190581774617E-1,0.E0,-9.079593845005E-1));
#242=VECTOR('',#241,2.863564212655E-2);
#243=CARTESIAN_POINT('',(6.2E-2,8.4E-2,4.75E-2));
#244=LINE('893',#243,#242);
#245=DIRECTION('',(-4.190581774617E-1,0.E0,9.079593845005E-1));
#246=VECTOR('',#245,2.863564212655E-2);
#247=CARTESIAN_POINT('',(5.E-2,8.4E-2,2.15E-2));
#248=LINE('890',#247,#246);
#249=DIRECTION('',(-4.190581774617E-1,0.E0,-9.079593845005E-1));
#250=VECTOR('',#249,2.863564212655E-2);
#251=CARTESIAN_POINT('',(-3.8E-2,8.4E-2,4.75E-2));
#252=LINE('655',#251,#250);
#253=DIRECTION('',(4.190581774617E-1,0.E0,-9.079593845005E-1));
#254=VECTOR('',#253,2.863564212655E-2);
#255=CARTESIAN_POINT('',(-5.E-2,8.4E-2,-2.15E-2));
#256=LINE('657',#255,#254);
#257=DIRECTION('',(-1.E0,0.E0,0.E0));
#258=VECTOR('',#257,2.5E-2);
#259=CARTESIAN_POINT('',(1.25E-2,8.4E-2,-1.25E-2));
#260=LINE('899',#259,#258);
#261=DIRECTION('',(0.E0,0.E0,1.E0));
#262=VECTOR('',#261,2.5E-2);
#263=CARTESIAN_POINT('',(-1.25E-2,8.4E-2,-1.25E-2));
#264=LINE('901',#263,#262);
#265=DIRECTION('',(1.E0,0.E0,0.E0));
#266=VECTOR('',#265,2.5E-2);
#267=CARTESIAN_POINT('',(-1.25E-2,8.4E-2,1.25E-2));
#268=LINE('902',#267,#266);
#269=DIRECTION('',(0.E0,0.E0,-1.E0));
#270=VECTOR('',#269,2.5E-2);
#271=CARTESIAN_POINT('',(1.25E-2,8.4E-2,1.25E-2));
#272=LINE('900',#271,#270);
#273=DIRECTION('',(-1.E0,0.E0,0.E0));
#274=VECTOR('',#273,2.5E-2);
#275=CARTESIAN_POINT('',(1.125E-1,8.4E-2,-1.25E-2));
#276=LINE('915',#275,#274);
#277=DIRECTION('',(0.E0,0.E0,1.E0));
#278=VECTOR('',#277,2.5E-2);
#279=CARTESIAN_POINT('',(8.75E-2,8.4E-2,-1.25E-2));
#280=LINE('917',#279,#278);
#281=DIRECTION('',(1.E0,0.E0,0.E0));
#282=VECTOR('',#281,2.5E-2);
#283=CARTESIAN_POINT('',(8.75E-2,8.4E-2,1.25E-2));
#284=LINE('918',#283,#282);
#285=DIRECTION('',(0.E0,0.E0,-1.E0));
#286=VECTOR('',#285,2.5E-2);
#287=CARTESIAN_POINT('',(1.125E-1,8.4E-2,1.25E-2));
#288=LINE('916',#287,#286);
#289=DIRECTION('',(0.E0,1.E0,0.E0));
#290=VECTOR('',#289,8.E-3);
#291=CARTESIAN_POINT('',(1.18E-1,8.4E-2,2.2E-2));
#292=LINE('738',#291,#290);
#293=DIRECTION('',(0.E0,-1.E0,0.E0));
#294=VECTOR('',#293,8.E-3);
#295=CARTESIAN_POINT('',(1.34E-1,9.2E-2,2.2E-2));
#296=LINE('737',#295,#294);
#297=CARTESIAN_POINT('',(1.26E-1,9.2E-2,2.2E-2));
#298=DIRECTION('',(0.E0,-1.E0,0.E0));
#299=DIRECTION('',(-1.E0,0.E0,0.E0));
#300=AXIS2_PLACEMENT_3D('',#297,#298,#299);
#302=CARTESIAN_POINT('',(1.26E-1,9.2E-2,2.2E-2));
#303=DIRECTION('',(0.E0,-1.E0,0.E0));
#304=DIRECTION('',(1.E0,0.E0,0.E0));
#305=AXIS2_PLACEMENT_3D('',#302,#303,#304);
#307=DIRECTION('',(0.E0,1.E0,0.E0));
#308=VECTOR('',#307,8.E-3);
#309=CARTESIAN_POINT('',(6.6E-2,8.4E-2,-2.2E-2));
#310=LINE('732',#309,#308);
#311=DIRECTION('',(0.E0,-1.E0,0.E0));
#312=VECTOR('',#311,8.E-3);
#313=CARTESIAN_POINT('',(8.2E-2,9.2E-2,-2.2E-2));
#314=LINE('731',#313,#312);
#315=CARTESIAN_POINT('',(7.4E-2,9.2E-2,-2.2E-2));
#316=DIRECTION('',(0.E0,-1.E0,0.E0));
#317=DIRECTION('',(-1.E0,0.E0,0.E0));
#318=AXIS2_PLACEMENT_3D('',#315,#316,#317);
#320=CARTESIAN_POINT('',(7.4E-2,9.2E-2,-2.2E-2));
#321=DIRECTION('',(0.E0,-1.E0,0.E0));
#322=DIRECTION('',(1.E0,0.E0,0.E0));
#323=AXIS2_PLACEMENT_3D('',#320,#321,#322);
#325=DIRECTION('',(0.E0,1.E0,0.E0));
#326=VECTOR('',#325,8.E-3);
#327=CARTESIAN_POINT('',(-3.4E-2,8.4E-2,-2.2E-2));
#328=LINE('672',#327,#326);
#329=DIRECTION('',(0.E0,-1.E0,0.E0));
#330=VECTOR('',#329,8.E-3);
#331=CARTESIAN_POINT('',(-1.8E-2,9.2E-2,-2.2E-2));
#332=LINE('671',#331,#330);
#333=CARTESIAN_POINT('',(-2.6E-2,9.2E-2,-2.2E-2));
#334=DIRECTION('',(0.E0,-1.E0,0.E0));
#335=DIRECTION('',(-1.E0,0.E0,0.E0));
#336=AXIS2_PLACEMENT_3D('',#333,#334,#335);
#338=CARTESIAN_POINT('',(-2.6E-2,9.2E-2,-2.2E-2));
#339=DIRECTION('',(0.E0,-1.E0,0.E0));
#340=DIRECTION('',(1.E0,0.E0,0.E0));
#341=AXIS2_PLACEMENT_3D('',#338,#339,#340);
#343=DIRECTION('',(0.E0,1.E0,0.E0));
#344=VECTOR('',#343,8.E-3);
#345=CARTESIAN_POINT('',(1.8E-2,8.4E-2,2.2E-2));
#346=LINE('678',#345,#344);
#347=DIRECTION('',(0.E0,-1.E0,0.E0));
#348=VECTOR('',#347,8.E-3);
#349=CARTESIAN_POINT('',(3.4E-2,9.2E-2,2.2E-2));
#350=LINE('677',#349,#348);
#351=CARTESIAN_POINT('',(2.6E-2,9.2E-2,2.2E-2));
#352=DIRECTION('',(0.E0,-1.E0,0.E0));
#353=DIRECTION('',(-1.E0,0.E0,0.E0));
#354=AXIS2_PLACEMENT_3D('',#351,#352,#353);
#356=CARTESIAN_POINT('',(2.6E-2,9.2E-2,2.2E-2));
#357=DIRECTION('',(0.E0,-1.E0,0.E0));
#358=DIRECTION('',(1.E0,0.E0,0.E0));
#359=AXIS2_PLACEMENT_3D('',#356,#357,#358);
#361=DIRECTION('',(0.E0,-1.E0,0.E0));
#362=VECTOR('',#361,8.4E-2);
#363=CARTESIAN_POINT('',(5.E-2,8.4E-2,-2.15E-2));
#364=LINE('885',#363,#362);
#365=DIRECTION('',(0.E0,1.E0,0.E0));
#366=VECTOR('',#365,8.4E-2);
#367=CARTESIAN_POINT('',(1.38E-1,0.E0,-4.75E-2));
#368=LINE('729',#367,#366);
#369=DIRECTION('',(-1.E0,0.E0,0.E0));
#370=VECTOR('',#369,7.6E-2);
#371=CARTESIAN_POINT('',(1.38E-1,8.4E-2,-4.75E-2));
#372=LINE('718',#371,#370);
#373=DIRECTION('',(0.E0,-1.E0,0.E0));
#374=VECTOR('',#373,8.4E-2);
#375=CARTESIAN_POINT('',(6.2E-2,8.4E-2,-4.75E-2));
#376=LINE('730',#375,#374);
#377=DIRECTION('',(1.E0,0.E0,0.E0));
#378=VECTOR('',#377,7.6E-2);
#379=CARTESIAN_POINT('',(6.2E-2,0.E0,-4.75E-2));
#380=LINE('692',#379,#378);
#381=DIRECTION('',(0.E0,-1.E0,0.E0));
#382=VECTOR('',#381,8.4E-2);
#383=CARTESIAN_POINT('',(1.5E-1,8.4E-2,-2.15E-2));
#384=LINE('723',#383,#382);
#385=DIRECTION('',(0.E0,0.E0,1.E0));
#386=VECTOR('',#385,4.3E-2);
#387=CARTESIAN_POINT('',(1.5E-1,0.E0,-2.15E-2));
#388=LINE('698',#387,#386);
#389=DIRECTION('',(0.E0,0.E0,-1.E0));
#390=VECTOR('',#389,4.3E-2);
#391=CARTESIAN_POINT('',(1.5E-1,8.4E-2,2.15E-2));
#392=LINE('712',#391,#390);
#393=DIRECTION('',(0.E0,-1.E0,0.E0));
#394=VECTOR('',#393,8.4E-2);
#395=CARTESIAN_POINT('',(1.5E-1,8.4E-2,2.15E-2));
#396=LINE('724',#395,#394);
#397=DIRECTION('',(0.E0,-1.E0,0.E0));
#398=VECTOR('',#397,8.4E-2);
#399=CARTESIAN_POINT('',(1.38E-1,8.4E-2,4.75E-2));
#400=LINE('725',#399,#398);
#401=DIRECTION('',(-1.E0,0.E0,0.E0));
#402=VECTOR('',#401,7.6E-2);
#403=CARTESIAN_POINT('',(1.38E-1,0.E0,4.75E-2));
#404=LINE('696',#403,#402);
#405=DIRECTION('',(1.E0,0.E0,0.E0));
#406=VECTOR('',#405,7.6E-2);
#407=CARTESIAN_POINT('',(6.2E-2,8.4E-2,4.75E-2));
#408=LINE('714',#407,#406);
#409=DIRECTION('',(0.E0,1.E0,0.E0));
#410=VECTOR('',#409,8.4E-2);
#411=CARTESIAN_POINT('',(3.8E-2,0.E0,-4.75E-2));
#412=LINE('669',#411,#410);
#413=DIRECTION('',(-1.E0,0.E0,0.E0));
#414=VECTOR('',#413,7.6E-2);
#415=CARTESIAN_POINT('',(3.8E-2,8.4E-2,-4.75E-2));
#416=LINE('658',#415,#414);
#417=DIRECTION('',(0.E0,-1.E0,0.E0));
#418=VECTOR('',#417,8.4E-2);
#419=CARTESIAN_POINT('',(-3.8E-2,8.4E-2,-4.75E-2));
#420=LINE('670',#419,#418);
#421=DIRECTION('',(1.E0,0.E0,0.E0));
#422=VECTOR('',#421,7.6E-2);
#423=CARTESIAN_POINT('',(-3.8E-2,0.E0,-4.75E-2));
#424=LINE('632',#423,#422);
#425=DIRECTION('',(0.E0,-1.E0,0.E0));
#426=VECTOR('',#425,8.4E-2);
#427=CARTESIAN_POINT('',(-5.E-2,8.4E-2,-2.15E-2));
#428=LINE('668',#427,#426);
#429=DIRECTION('',(0.E0,-1.E0,0.E0));
#430=VECTOR('',#429,8.4E-2);
#431=CARTESIAN_POINT('',(-5.E-2,8.4E-2,2.15E-2));
#432=LINE('667',#431,#430);
#433=DIRECTION('',(0.E0,0.E0,-1.E0));
#434=VECTOR('',#433,4.3E-2);
#435=CARTESIAN_POINT('',(-5.E-2,0.E0,2.15E-2));
#436=LINE('634',#435,#434);
#437=DIRECTION('',(0.E0,0.E0,1.E0));
#438=VECTOR('',#437,4.3E-2);
#439=CARTESIAN_POINT('',(-5.E-2,8.4E-2,-2.15E-2));
#440=LINE('656',#439,#438);
#441=DIRECTION('',(0.E0,-1.E0,0.E0));
#442=VECTOR('',#441,8.4E-2);
#443=CARTESIAN_POINT('',(-3.8E-2,8.4E-2,4.75E-2));
#444=LINE('666',#443,#442);
#445=DIRECTION('',(0.E0,-1.E0,0.E0));
#446=VECTOR('',#445,8.4E-2);
#447=CARTESIAN_POINT('',(3.8E-2,8.4E-2,4.75E-2));
#448=LINE('665',#447,#446);
#449=DIRECTION('',(-1.E0,0.E0,0.E0));
#450=VECTOR('',#449,7.6E-2);
#451=CARTESIAN_POINT('',(3.8E-2,0.E0,4.75E-2));
#452=LINE('636',#451,#450);
#453=DIRECTION('',(1.E0,0.E0,0.E0));
#454=VECTOR('',#453,7.6E-2);
#455=CARTESIAN_POINT('',(-3.8E-2,8.4E-2,4.75E-2));
#456=LINE('654',#455,#454);
#457=DIRECTION('',(1.E0,0.E0,0.E0));
#458=VECTOR('',#457,2.499999999999E-2);
#459=CARTESIAN_POINT('',(-1.25E-2,-1.152E-1,-1.25E-2));
#460=LINE('753',#459,#458);
#461=DIRECTION('',(0.E0,0.E0,-1.E0));
#462=VECTOR('',#461,2.499999999999E-2);
#463=CARTESIAN_POINT('',(-1.25E-2,-1.152E-1,1.25E-2));
#464=LINE('768',#463,#462);
#465=DIRECTION('',(-2.737610485526E-14,1.E0,-2.737610485526E-14));
#466=VECTOR('',#465,1.152E-1);
#467=CARTESIAN_POINT('',(-1.25E-2,-1.152E-1,-1.25E-2));
#468=LINE('907',#467,#466);
#469=DIRECTION('',(1.401952365132E-14,1.E0,1.405033579122E-14));
#470=VECTOR('',#469,2.252E-1);
#471=CARTESIAN_POINT('',(-1.25E-2,8.4E-2,-1.25E-2));
#472=LINE('908',#471,#470);
#473=DIRECTION('',(-2.740622158227E-14,-1.E0,-2.740622158227E-14));
#474=VECTOR('',#473,1.152E-1);
#475=CARTESIAN_POINT('',(1.25E-2,0.E0,1.25E-2));
#476=LINE('906',#475,#474);
#477=DIRECTION('',(-1.E0,0.E0,0.E0));
#478=VECTOR('',#477,2.499999999999E-2);
#479=CARTESIAN_POINT('',(1.25E-2,-1.152E-1,1.25E-2));
#480=LINE('773',#479,#478);
#481=DIRECTION('',(-2.739116321877E-14,1.E0,2.737610485526E-14));
#482=VECTOR('',#481,1.152E-1);
#483=CARTESIAN_POINT('',(-1.25E-2,-1.152E-1,1.25E-2));
#484=LINE('909',#483,#482);
#485=DIRECTION('',(1.405033579122E-14,1.E0,-1.400411758138E-14));
#486=VECTOR('',#485,2.252E-1);
#487=CARTESIAN_POINT('',(-1.25E-2,8.4E-2,1.25E-2));
#488=LINE('910',#487,#486);
#489=DIRECTION('',(1.E0,0.E0,0.E0));
#490=VECTOR('',#489,2.499999999999E-2);
#491=CARTESIAN_POINT('',(-1.25E-2,3.092E-1,1.25E-2));
#492=LINE('772',#491,#490);
#493=DIRECTION('',(1.401952365132E-14,-1.E0,1.405803882619E-14));
#494=VECTOR('',#493,2.252E-1);
#495=CARTESIAN_POINT('',(1.25E-2,3.092E-1,1.25E-2));
#496=LINE('905',#495,#494);
#497=DIRECTION('',(-2.740622158227E-14,-1.E0,2.739116321877E-14));
#498=VECTOR('',#497,1.152E-1);
#499=CARTESIAN_POINT('',(1.25E-2,0.E0,-1.25E-2));
#500=LINE('904',#499,#498);
#501=DIRECTION('',(0.E0,0.E0,-1.E0));
#502=VECTOR('',#501,2.499999999999E-2);
#503=CARTESIAN_POINT('',(1.25E-2,3.092E-1,1.25E-2));
#504=LINE('761',#503,#502);
#505=DIRECTION('',(1.401952365132E-14,-1.E0,-1.403492972127E-14));
#506=VECTOR('',#505,2.252E-1);
#507=CARTESIAN_POINT('',(1.25E-2,3.092E-1,-1.25E-2));
#508=LINE('903',#507,#506);
#509=DIRECTION('',(0.E0,0.E0,1.E0));
#510=VECTOR('',#509,1.300000000001E-2);
#511=CARTESIAN_POINT('',(6.500000000003E-3,-1.28E-1,-6.500000000003E-3));
#512=LINE('750',#511,#510);
#513=DIRECTION('',(0.E0,0.E0,-1.E0));
#514=VECTOR('',#513,2.499999999999E-2);
#515=CARTESIAN_POINT('',(1.25E-2,-1.152E-1,1.25E-2));
#516=LINE('762',#515,#514);
#517=DIRECTION('',(-3.906991958026E-1,-8.334916177134E-1,3.906991958026E-1));
#518=VECTOR('',#517,1.535708305636E-2);
#519=CARTESIAN_POINT('',(1.25E-2,-1.152E-1,-1.25E-2));
#520=LINE('751',#519,#518);
#521=DIRECTION('',(1.E0,0.E0,0.E0));
#522=VECTOR('',#521,1.300000000001E-2);
#523=CARTESIAN_POINT('',(-6.500000000003E-3,-1.28E-1,-6.500000000003E-3));
#524=LINE('747',#523,#522);
#525=DIRECTION('',(3.906991958026E-1,-8.334916177134E-1,-3.906991958026E-1));
#526=VECTOR('',#525,1.535708305636E-2);
#527=CARTESIAN_POINT('',(-1.25E-2,-1.152E-1,1.25E-2));
#528=LINE('765',#527,#526);
#529=DIRECTION('',(0.E0,0.E0,-1.E0));
#530=VECTOR('',#529,1.300000000001E-2);
#531=CARTESIAN_POINT('',(-6.500000000003E-3,-1.28E-1,6.500000000003E-3));
#532=LINE('748',#531,#530);
#533=DIRECTION('',(-3.906991958026E-1,8.334916177134E-1,-3.906991958026E-1));
#534=VECTOR('',#533,1.535708305636E-2);
#535=CARTESIAN_POINT('',(-6.500000000003E-3,-1.28E-1,-6.500000000003E-3));
#536=LINE('766',#535,#534);
#537=DIRECTION('',(-1.E0,0.E0,0.E0));
#538=VECTOR('',#537,1.300000000001E-2);
#539=CARTESIAN_POINT('',(6.500000000003E-3,-1.28E-1,6.500000000003E-3));
#540=LINE('749',#539,#538);
#541=DIRECTION('',(-3.906991958026E-1,-8.334916177134E-1,-3.906991958026E-1));
#542=VECTOR('',#541,1.535708305636E-2);
#543=CARTESIAN_POINT('',(1.25E-2,-1.152E-1,1.25E-2));
#544=LINE('764',#543,#542);
#545=DIRECTION('',(0.E0,0.E0,-1.E0));
#546=VECTOR('',#545,1.300000000001E-2);
#547=CARTESIAN_POINT('',(6.500000000003E-3,3.22E-1,6.500000000003E-3));
#548=LINE('757',#547,#546);
#549=DIRECTION('',(3.906991958026E-1,-8.334916177134E-1,-3.906991958026E-1));
#550=VECTOR('',#549,1.535708305636E-2);
#551=CARTESIAN_POINT('',(6.500000000003E-3,3.22E-1,-6.500000000003E-3));
#552=LINE('760',#551,#550);
#553=DIRECTION('',(3.906991958026E-1,8.334916177134E-1,-3.906991958026E-1));
#554=VECTOR('',#553,1.535708305636E-2);
#555=CARTESIAN_POINT('',(-1.25E-2,3.092E-1,1.25E-2));
#556=LINE('770',#555,#554);
#557=DIRECTION('',(1.E0,0.E0,0.E0));
#558=VECTOR('',#557,1.300000000001E-2);
#559=CARTESIAN_POINT('',(-6.500000000003E-3,3.22E-1,6.500000000003E-3));
#560=LINE('758',#559,#558);
#561=DIRECTION('',(3.906991958026E-1,-8.334916177134E-1,3.906991958026E-1));
#562=VECTOR('',#561,1.535708305636E-2);
#563=CARTESIAN_POINT('',(6.500000000003E-3,3.22E-1,6.500000000003E-3));
#564=LINE('771',#563,#562);
#565=DIRECTION('',(0.E0,0.E0,-1.E0));
#566=VECTOR('',#565,2.499999999999E-2);
#567=CARTESIAN_POINT('',(-1.25E-2,3.092E-1,1.25E-2));
#568=LINE('767',#567,#566);
#569=DIRECTION('',(3.906991958026E-1,8.334916177134E-1,3.906991958026E-1));
#570=VECTOR('',#569,1.535708305636E-2);
#571=CARTESIAN_POINT('',(-1.25E-2,3.092E-1,-1.25E-2));
#572=LINE('755',#571,#570);
#573=DIRECTION('',(0.E0,0.E0,1.E0));
#574=VECTOR('',#573,1.300000000001E-2);
#575=CARTESIAN_POINT('',(-6.500000000003E-3,3.22E-1,-6.500000000003E-3));
#576=LINE('759',#575,#574);
#577=DIRECTION('',(1.E0,0.E0,0.E0));
#578=VECTOR('',#577,2.499999999999E-2);
#579=CARTESIAN_POINT('',(-1.25E-2,3.092E-1,-1.25E-2));
#580=LINE('752',#579,#578);
#581=DIRECTION('',(1.E0,0.E0,0.E0));
#582=VECTOR('',#581,1.300000000001E-2);
#583=CARTESIAN_POINT('',(-6.500000000003E-3,3.22E-1,-6.500000000003E-3));
#584=LINE('756',#583,#582);
#585=DIRECTION('',(1.E0,1.426636586644E-13,0.E0));
#586=VECTOR('',#585,2.499999999999E-2);
#587=CARTESIAN_POINT('',(8.75E-2,-1.152E-1,-1.25E-2));
#588=LINE('781',#587,#586);
#589=DIRECTION('',(0.E0,0.E0,-1.E0));
#590=VECTOR('',#589,2.499999999999E-2);
#591=CARTESIAN_POINT('',(8.75E-2,-1.152E-1,1.25E-2));
#592=LINE('796',#591,#590);
#593=DIRECTION('',(-2.734598812825E-14,1.E0,-2.739116321877E-14));
#594=VECTOR('',#593,1.152E-1);
#595=CARTESIAN_POINT('',(8.75E-2,-1.152E-1,-1.25E-2));
#596=LINE('923',#595,#594);
#597=DIRECTION('',(1.398871151143E-14,1.E0,1.401952365132E-14));
#598=VECTOR('',#597,2.252E-1);
#599=CARTESIAN_POINT('',(8.75E-2,8.4E-2,-1.25E-2));
#600=LINE('924',#599,#598);
#601=DIRECTION('',(-9.360278755792E-14,-1.E0,-2.740622158227E-14));
#602=VECTOR('',#601,1.152E-1);
#603=CARTESIAN_POINT('',(1.125E-1,0.E0,1.25E-2));
#604=LINE('922',#603,#602);
#605=DIRECTION('',(-1.E0,-1.443289932014E-13,0.E0));
#606=VECTOR('',#605,2.499999999999E-2);
#607=CARTESIAN_POINT('',(1.125E-1,-1.152E-1,1.25E-2));
#608=LINE('801',#607,#606);
#609=DIRECTION('',(-2.734598812825E-14,1.E0,2.737610485526E-14));
#610=VECTOR('',#609,1.152E-1);
#611=CARTESIAN_POINT('',(8.75E-2,-1.152E-1,1.25E-2));
#612=LINE('925',#611,#610);
#613=DIRECTION('',(1.405033579122E-14,1.E0,-1.403492972127E-14));
#614=VECTOR('',#613,2.252E-1);
#615=CARTESIAN_POINT('',(8.75E-2,8.4E-2,1.25E-2));
#616=LINE('926',#615,#614);
#617=DIRECTION('',(1.E0,-1.443289932014E-13,0.E0));
#618=VECTOR('',#617,2.499999999999E-2);
#619=CARTESIAN_POINT('',(8.75E-2,3.092E-1,1.25E-2));
#620=LINE('800',#619,#618);
#621=DIRECTION('',(4.782044111396E-14,-1.E0,1.405803882619E-14));
#622=VECTOR('',#621,2.252E-1);
#623=CARTESIAN_POINT('',(1.125E-1,3.092E-1,1.25E-2));
#624=LINE('921',#623,#622);
#625=DIRECTION('',(-9.348232064987E-14,-1.E0,2.739116321877E-14));
#626=VECTOR('',#625,1.152E-1);
#627=CARTESIAN_POINT('',(1.125E-1,0.E0,-1.25E-2));
#628=LINE('920',#627,#626);
#629=DIRECTION('',(0.E0,0.E0,-1.E0));
#630=VECTOR('',#629,2.499999999999E-2);
#631=CARTESIAN_POINT('',(1.125E-1,3.092E-1,1.25E-2));
#632=LINE('789',#631,#630);
#633=DIRECTION('',(4.788206539375E-14,-1.E0,-1.403492972127E-14));
#634=VECTOR('',#633,2.252E-1);
#635=CARTESIAN_POINT('',(1.125E-1,3.092E-1,-1.25E-2));
#636=LINE('919',#635,#634);
#637=DIRECTION('',(0.E0,0.E0,1.E0));
#638=VECTOR('',#637,1.300000000001E-2);
#639=CARTESIAN_POINT('',(1.065E-1,-1.28E-1,-6.500000000003E-3));
#640=LINE('778',#639,#638);
#641=DIRECTION('',(0.E0,0.E0,-1.E0));
#642=VECTOR('',#641,2.499999999999E-2);
#643=CARTESIAN_POINT('',(1.125E-1,-1.152E-1,1.25E-2));
#644=LINE('790',#643,#642);
#645=DIRECTION('',(-3.906991958013E-1,-8.334916177139E-1,3.906991958026E-1));
#646=VECTOR('',#645,1.535708305636E-2);
#647=CARTESIAN_POINT('',(1.125E-1,-1.152E-1,-1.25E-2));
#648=LINE('779',#647,#646);
#649=DIRECTION('',(1.E0,-3.672276158370E-13,0.E0));
#650=VECTOR('',#649,1.300000000002E-2);
#651=CARTESIAN_POINT('',(9.35E-2,-1.28E-1,-6.500000000003E-3));
#652=LINE('775',#651,#650);
#653=DIRECTION('',(3.906991958025E-1,-8.334916177134E-1,-3.906991958026E-1));
#654=VECTOR('',#653,1.535708305636E-2);
#655=CARTESIAN_POINT('',(8.75E-2,-1.152E-1,1.25E-2));
#656=LINE('793',#655,#654);
#657=DIRECTION('',(0.E0,0.E0,-1.E0));
#658=VECTOR('',#657,1.300000000001E-2);
#659=CARTESIAN_POINT('',(9.35E-2,-1.28E-1,6.500000000003E-3));
#660=LINE('776',#659,#658);
#661=DIRECTION('',(-3.906991958025E-1,8.334916177134E-1,-3.906991958026E-1));
#662=VECTOR('',#661,1.535708305636E-2);
#663=CARTESIAN_POINT('',(9.35E-2,-1.28E-1,-6.500000000003E-3));
#664=LINE('794',#663,#662);
#665=DIRECTION('',(-1.E0,3.672276158370E-13,0.E0));
#666=VECTOR('',#665,1.300000000002E-2);
#667=CARTESIAN_POINT('',(1.065E-1,-1.28E-1,6.500000000003E-3));
#668=LINE('777',#667,#666);
#669=DIRECTION('',(-3.906991958013E-1,-8.334916177139E-1,-3.906991958026E-1));
#670=VECTOR('',#669,1.535708305636E-2);
#671=CARTESIAN_POINT('',(1.125E-1,-1.152E-1,1.25E-2));
#672=LINE('792',#671,#670);
#673=DIRECTION('',(0.E0,0.E0,-1.E0));
#674=VECTOR('',#673,1.300000000001E-2);
#675=CARTESIAN_POINT('',(1.065E-1,3.22E-1,6.500000000003E-3));
#676=LINE('785',#675,#674);
#677=DIRECTION('',(3.906991958013E-1,-8.334916177140E-1,-3.906991958026E-1));
#678=VECTOR('',#677,1.535708305636E-2);
#679=CARTESIAN_POINT('',(1.065E-1,3.22E-1,-6.500000000003E-3));
#680=LINE('788',#679,#678);
#681=DIRECTION('',(3.906991958025E-1,8.334916177134E-1,-3.906991958026E-1));
#682=VECTOR('',#681,1.535708305636E-2);
#683=CARTESIAN_POINT('',(8.75E-2,3.092E-1,1.25E-2));
#684=LINE('798',#683,#682);
#685=DIRECTION('',(1.E0,3.714977043933E-13,0.E0));
#686=VECTOR('',#685,1.300000000002E-2);
#687=CARTESIAN_POINT('',(9.35E-2,3.22E-1,6.500000000003E-3));
#688=LINE('786',#687,#686);
#689=DIRECTION('',(3.906991958013E-1,-8.334916177139E-1,3.906991958026E-1));
#690=VECTOR('',#689,1.535708305636E-2);
#691=CARTESIAN_POINT('',(1.065E-1,3.22E-1,6.500000000003E-3));
#692=LINE('799',#691,#690);
#693=DIRECTION('',(0.E0,0.E0,-1.E0));
#694=VECTOR('',#693,2.499999999999E-2);
#695=CARTESIAN_POINT('',(8.75E-2,3.092E-1,1.25E-2));
#696=LINE('795',#695,#694);
#697=DIRECTION('',(3.906991958025E-1,8.334916177134E-1,3.906991958026E-1));
#698=VECTOR('',#697,1.535708305636E-2);
#699=CARTESIAN_POINT('',(8.75E-2,3.092E-1,-1.25E-2));
#700=LINE('783',#699,#698);
#701=DIRECTION('',(0.E0,0.E0,1.E0));
#702=VECTOR('',#701,1.300000000001E-2);
#703=CARTESIAN_POINT('',(9.35E-2,3.22E-1,-6.500000000003E-3));
#704=LINE('787',#703,#702);
#705=DIRECTION('',(1.E0,-1.421085471521E-13,0.E0));
#706=VECTOR('',#705,2.499999999999E-2);
#707=CARTESIAN_POINT('',(8.75E-2,3.092E-1,-1.25E-2));
#708=LINE('780',#707,#706);
#709=DIRECTION('',(1.E0,3.757677929495E-13,0.E0));
#710=VECTOR('',#709,1.300000000002E-2);
#711=CARTESIAN_POINT('',(9.35E-2,3.22E-1,-6.500000000003E-3));
#712=LINE('784',#711,#710);
#713=CARTESIAN_POINT('',(-3.8E-2,0.E0,-4.75E-2));
#714=CARTESIAN_POINT('',(3.8E-2,0.E0,-4.75E-2));
#715=VERTEX_POINT('',#713);
#716=VERTEX_POINT('',#714);
#717=CARTESIAN_POINT('',(-5.E-2,0.E0,-2.15E-2));
#718=VERTEX_POINT('',#717);
#719=CARTESIAN_POINT('',(-5.E-2,0.E0,2.15E-2));
#720=VERTEX_POINT('',#719);
#721=CARTESIAN_POINT('',(-3.8E-2,0.E0,4.75E-2));
#722=VERTEX_POINT('',#721);
#723=CARTESIAN_POINT('',(3.8E-2,0.E0,4.75E-2));
#724=VERTEX_POINT('',#723);
#725=CARTESIAN_POINT('',(3.4E-2,0.E0,2.2E-2));
#726=CARTESIAN_POINT('',(1.8E-2,0.E0,2.2E-2));
#727=VERTEX_POINT('',#725);
#728=VERTEX_POINT('',#726);
#729=CARTESIAN_POINT('',(-1.8E-2,0.E0,-2.2E-2));
#730=CARTESIAN_POINT('',(-3.4E-2,0.E0,-2.2E-2));
#731=VERTEX_POINT('',#729);
#732=VERTEX_POINT('',#730);
#733=CARTESIAN_POINT('',(-3.8E-2,8.4E-2,4.75E-2));
#734=CARTESIAN_POINT('',(3.8E-2,8.4E-2,4.75E-2));
#735=VERTEX_POINT('',#733);
#736=VERTEX_POINT('',#734);
#737=CARTESIAN_POINT('',(-5.E-2,8.4E-2,2.15E-2));
#738=VERTEX_POINT('',#737);
#739=CARTESIAN_POINT('',(-5.E-2,8.4E-2,-2.15E-2));
#740=VERTEX_POINT('',#739);
#741=CARTESIAN_POINT('',(-3.8E-2,8.4E-2,-4.75E-2));
#742=VERTEX_POINT('',#741);
#743=CARTESIAN_POINT('',(3.8E-2,8.4E-2,-4.75E-2));
#744=VERTEX_POINT('',#743);
#745=CARTESIAN_POINT('',(-1.8E-2,8.4E-2,-2.2E-2));
#746=CARTESIAN_POINT('',(-3.4E-2,8.4E-2,-2.2E-2));
#747=VERTEX_POINT('',#745);
#748=VERTEX_POINT('',#746);
#749=CARTESIAN_POINT('',(3.4E-2,8.4E-2,2.2E-2));
#750=CARTESIAN_POINT('',(1.8E-2,8.4E-2,2.2E-2));
#751=VERTEX_POINT('',#749);
#752=VERTEX_POINT('',#750);
#753=CARTESIAN_POINT('',(-1.8E-2,9.2E-2,-2.2E-2));
#754=VERTEX_POINT('',#753);
#755=CARTESIAN_POINT('',(-3.4E-2,9.2E-2,-2.2E-2));
#756=VERTEX_POINT('',#755);
#757=CARTESIAN_POINT('',(1.8E-2,9.2E-2,2.2E-2));
#758=CARTESIAN_POINT('',(3.4E-2,9.2E-2,2.2E-2));
#759=VERTEX_POINT('',#757);
#760=VERTEX_POINT('',#758);
#761=CARTESIAN_POINT('',(3.4E-2,-8.E-3,2.2E-2));
#762=VERTEX_POINT('',#761);
#763=CARTESIAN_POINT('',(1.8E-2,-8.E-3,2.2E-2));
#764=VERTEX_POINT('',#763);
#765=CARTESIAN_POINT('',(-3.4E-2,-8.E-3,-2.2E-2));
#766=CARTESIAN_POINT('',(-1.8E-2,-8.E-3,-2.2E-2));
#767=VERTEX_POINT('',#765);
#768=VERTEX_POINT('',#766);
#769=CARTESIAN_POINT('',(1.5E-1,0.E0,-2.15E-2));
#770=CARTESIAN_POINT('',(1.38E-1,0.E0,-4.75E-2));
#771=VERTEX_POINT('',#769);
#772=VERTEX_POINT('',#770);
#773=CARTESIAN_POINT('',(6.2E-2,0.E0,-4.75E-2));
#774=VERTEX_POINT('',#773);
#775=CARTESIAN_POINT('',(1.38E-1,0.E0,4.75E-2));
#776=CARTESIAN_POINT('',(6.2E-2,0.E0,4.75E-2));
#777=VERTEX_POINT('',#775);
#778=VERTEX_POINT('',#776);
#779=CARTESIAN_POINT('',(1.5E-1,0.E0,2.15E-2));
#780=VERTEX_POINT('',#779);
#781=CARTESIAN_POINT('',(1.34E-1,0.E0,2.2E-2));
#782=CARTESIAN_POINT('',(1.18E-1,0.E0,2.2E-2));
#783=VERTEX_POINT('',#781);
#784=VERTEX_POINT('',#782);
#785=CARTESIAN_POINT('',(8.2E-2,0.E0,-2.2E-2));
#786=CARTESIAN_POINT('',(6.6E-2,0.E0,-2.2E-2));
#787=VERTEX_POINT('',#785);
#788=VERTEX_POINT('',#786);
#789=CARTESIAN_POINT('',(1.38E-1,8.4E-2,-4.75E-2));
#790=CARTESIAN_POINT('',(1.5E-1,8.4E-2,-2.15E-2));
#791=VERTEX_POINT('',#789);
#792=VERTEX_POINT('',#790);
#793=CARTESIAN_POINT('',(1.5E-1,8.4E-2,2.15E-2));
#794=VERTEX_POINT('',#793);
#795=CARTESIAN_POINT('',(1.38E-1,8.4E-2,4.75E-2));
#796=VERTEX_POINT('',#795);
#797=CARTESIAN_POINT('',(6.2E-2,8.4E-2,4.75E-2));
#798=VERTEX_POINT('',#797);
#799=CARTESIAN_POINT('',(6.2E-2,8.4E-2,-4.75E-2));
#800=VERTEX_POINT('',#799);
#801=CARTESIAN_POINT('',(8.2E-2,8.4E-2,-2.2E-2));
#802=CARTESIAN_POINT('',(6.6E-2,8.4E-2,-2.2E-2));
#803=VERTEX_POINT('',#801);
#804=VERTEX_POINT('',#802);
#805=CARTESIAN_POINT('',(1.34E-1,8.4E-2,2.2E-2));
#806=CARTESIAN_POINT('',(1.18E-1,8.4E-2,2.2E-2));
#807=VERTEX_POINT('',#805);
#808=VERTEX_POINT('',#806);
#809=CARTESIAN_POINT('',(8.2E-2,9.2E-2,-2.2E-2));
#810=VERTEX_POINT('',#809);
#811=CARTESIAN_POINT('',(6.6E-2,9.2E-2,-2.2E-2));
#812=VERTEX_POINT('',#811);
#813=CARTESIAN_POINT('',(1.18E-1,9.2E-2,2.2E-2));
#814=CARTESIAN_POINT('',(1.34E-1,9.2E-2,2.2E-2));
#815=VERTEX_POINT('',#813);
#816=VERTEX_POINT('',#814);
#817=CARTESIAN_POINT('',(1.34E-1,-8.E-3,2.2E-2));
#818=VERTEX_POINT('',#817);
#819=CARTESIAN_POINT('',(1.18E-1,-8.E-3,2.2E-2));
#820=VERTEX_POINT('',#819);
#821=CARTESIAN_POINT('',(6.6E-2,-8.E-3,-2.2E-2));
#822=CARTESIAN_POINT('',(8.2E-2,-8.E-3,-2.2E-2));
#823=VERTEX_POINT('',#821);
#824=VERTEX_POINT('',#822);
#825=CARTESIAN_POINT('',(-6.500000000003E-3,-1.28E-1,-6.500000000003E-3));
#826=CARTESIAN_POINT('',(6.500000000003E-3,-1.28E-1,-6.500000000003E-3));
#827=VERTEX_POINT('',#825);
#828=VERTEX_POINT('',#826);
#829=CARTESIAN_POINT('',(-6.500000000003E-3,-1.28E-1,6.500000000003E-3));
#830=VERTEX_POINT('',#829);
#831=CARTESIAN_POINT('',(6.500000000003E-3,-1.28E-1,6.500000000003E-3));
#832=VERTEX_POINT('',#831);
#833=CARTESIAN_POINT('',(1.25E-2,-1.152E-1,-1.25E-2));
#834=VERTEX_POINT('',#833);
#835=CARTESIAN_POINT('',(-1.25E-2,3.092E-1,-1.25E-2));
#836=CARTESIAN_POINT('',(1.25E-2,3.092E-1,-1.25E-2));
#837=VERTEX_POINT('',#835);
#838=VERTEX_POINT('',#836);
#839=CARTESIAN_POINT('',(-1.25E-2,-1.152E-1,-1.25E-2));
#840=VERTEX_POINT('',#839);
#841=CARTESIAN_POINT('',(-6.500000000003E-3,3.22E-1,-6.500000000003E-3));
#842=VERTEX_POINT('',#841);
#843=CARTESIAN_POINT('',(6.500000000003E-3,3.22E-1,-6.500000000003E-3));
#844=VERTEX_POINT('',#843);
#845=CARTESIAN_POINT('',(6.500000000003E-3,3.22E-1,6.500000000003E-3));
#846=VERTEX_POINT('',#845);
#847=CARTESIAN_POINT('',(-6.500000000003E-3,3.22E-1,6.500000000003E-3));
#848=VERTEX_POINT('',#847);
#849=CARTESIAN_POINT('',(1.25E-2,3.092E-1,1.25E-2));
#850=VERTEX_POINT('',#849);
#851=CARTESIAN_POINT('',(1.25E-2,-1.152E-1,1.25E-2));
#852=VERTEX_POINT('',#851);
#853=CARTESIAN_POINT('',(-1.25E-2,-1.152E-1,1.25E-2));
#854=VERTEX_POINT('',#853);
#855=CARTESIAN_POINT('',(-1.25E-2,3.092E-1,1.25E-2));
#856=VERTEX_POINT('',#855);
#857=CARTESIAN_POINT('',(9.35E-2,-1.28E-1,-6.500000000003E-3));
#858=CARTESIAN_POINT('',(1.065E-1,-1.28E-1,-6.500000000003E-3));
#859=VERTEX_POINT('',#857);
#860=VERTEX_POINT('',#858);
#861=CARTESIAN_POINT('',(9.35E-2,-1.28E-1,6.500000000003E-3));
#862=VERTEX_POINT('',#861);
#863=CARTESIAN_POINT('',(1.065E-1,-1.28E-1,6.500000000003E-3));
#864=VERTEX_POINT('',#863);
#865=CARTESIAN_POINT('',(1.125E-1,-1.152E-1,-1.25E-2));
#866=VERTEX_POINT('',#865);
#867=CARTESIAN_POINT('',(8.75E-2,3.092E-1,-1.25E-2));
#868=CARTESIAN_POINT('',(1.125E-1,3.092E-1,-1.25E-2));
#869=VERTEX_POINT('',#867);
#870=VERTEX_POINT('',#868);
#871=CARTESIAN_POINT('',(8.75E-2,-1.152E-1,-1.25E-2));
#872=VERTEX_POINT('',#871);
#873=CARTESIAN_POINT('',(9.35E-2,3.22E-1,-6.500000000003E-3));
#874=VERTEX_POINT('',#873);
#875=CARTESIAN_POINT('',(1.065E-1,3.22E-1,-6.500000000003E-3));
#876=VERTEX_POINT('',#875);
#877=CARTESIAN_POINT('',(1.065E-1,3.22E-1,6.500000000003E-3));
#878=VERTEX_POINT('',#877);
#879=CARTESIAN_POINT('',(9.35E-2,3.22E-1,6.500000000003E-3));
#880=VERTEX_POINT('',#879);
#881=CARTESIAN_POINT('',(1.125E-1,3.092E-1,1.25E-2));
#882=VERTEX_POINT('',#881);
#883=CARTESIAN_POINT('',(1.125E-1,-1.152E-1,1.25E-2));
#884=VERTEX_POINT('',#883);
#885=CARTESIAN_POINT('',(8.75E-2,-1.152E-1,1.25E-2));
#886=VERTEX_POINT('',#885);
#887=CARTESIAN_POINT('',(8.75E-2,3.092E-1,1.25E-2));
#888=VERTEX_POINT('',#887);
#889=CARTESIAN_POINT('',(5.E-2,8.4E-2,-2.15E-2));
#890=CARTESIAN_POINT('',(5.E-2,0.E0,-2.15E-2));
#891=VERTEX_POINT('',#889);
#892=VERTEX_POINT('',#890);
#893=CARTESIAN_POINT('',(5.E-2,0.E0,2.15E-2));
#894=CARTESIAN_POINT('',(5.E-2,8.4E-2,2.15E-2));
#895=VERTEX_POINT('',#893);
#896=VERTEX_POINT('',#894);
#897=CARTESIAN_POINT('',(1.25E-2,0.E0,-1.25E-2));
#898=CARTESIAN_POINT('',(-1.25E-2,0.E0,-1.25E-2));
#899=VERTEX_POINT('',#897);
#900=VERTEX_POINT('',#898);
#901=CARTESIAN_POINT('',(1.25E-2,0.E0,1.25E-2));
#902=VERTEX_POINT('',#901);
#903=CARTESIAN_POINT('',(-1.25E-2,0.E0,1.25E-2));
#904=VERTEX_POINT('',#903);
#905=CARTESIAN_POINT('',(1.25E-2,8.4E-2,-1.25E-2));
#906=CARTESIAN_POINT('',(-1.25E-2,8.4E-2,-1.25E-2));
#907=VERTEX_POINT('',#905);
#908=VERTEX_POINT('',#906);
#909=CARTESIAN_POINT('',(1.25E-2,8.4E-2,1.25E-2));
#910=VERTEX_POINT('',#909);
#911=CARTESIAN_POINT('',(-1.25E-2,8.4E-2,1.25E-2));
#912=VERTEX_POINT('',#911);
#913=CARTESIAN_POINT('',(1.125E-1,0.E0,-1.25E-2));
#914=CARTESIAN_POINT('',(8.75E-2,0.E0,-1.25E-2));
#915=VERTEX_POINT('',#913);
#916=VERTEX_POINT('',#914);
#917=CARTESIAN_POINT('',(1.125E-1,0.E0,1.25E-2));
#918=VERTEX_POINT('',#917);
#919=CARTESIAN_POINT('',(8.75E-2,0.E0,1.25E-2));
#920=VERTEX_POINT('',#919);
#921=CARTESIAN_POINT('',(1.125E-1,8.4E-2,-1.25E-2));
#922=CARTESIAN_POINT('',(8.75E-2,8.4E-2,-1.25E-2));
#923=VERTEX_POINT('',#921);
#924=VERTEX_POINT('',#922);
#925=CARTESIAN_POINT('',(1.125E-1,8.4E-2,1.25E-2));
#926=VERTEX_POINT('',#925);
#927=CARTESIAN_POINT('',(8.75E-2,8.4E-2,1.25E-2));
#928=VERTEX_POINT('',#927);
#929=CARTESIAN_POINT('',(0.E0,0.E0,0.E0));
#930=DIRECTION('',(0.E0,1.E0,0.E0));
#931=DIRECTION('',(1.E0,0.E0,0.E0));
#932=AXIS2_PLACEMENT_3D('',#929,#930,#931);
#933=PLANE('803',#932);
#935=ORIENTED_EDGE('888',*,*,#934,.T.);
#937=ORIENTED_EDGE('892',*,*,#936,.T.);
#939=ORIENTED_EDGE('696',*,*,#938,.F.);
#941=ORIENTED_EDGE('697',*,*,#940,.T.);
#943=ORIENTED_EDGE('698',*,*,#942,.F.);
#945=ORIENTED_EDGE('691',*,*,#944,.T.);
#947=ORIENTED_EDGE('692',*,*,#946,.F.);
#949=ORIENTED_EDGE('891',*,*,#948,.T.);
#951=ORIENTED_EDGE('887',*,*,#950,.T.);
#953=ORIENTED_EDGE('632',*,*,#952,.F.);
#955=ORIENTED_EDGE('633',*,*,#954,.T.);
#957=ORIENTED_EDGE('634',*,*,#956,.F.);
#959=ORIENTED_EDGE('635',*,*,#958,.T.);
#961=ORIENTED_EDGE('636',*,*,#960,.F.);
#962=EDGE_LOOP('803',(#935,#937,#939,#941,#943,#945,#947,#949,#951,#953,#955,
#957,#959,#961));
#963=FACE_OUTER_BOUND('803',#962,.F.);
#965=ORIENTED_EDGE('699',*,*,#964,.T.);
#967=ORIENTED_EDGE('700',*,*,#966,.T.);
#968=EDGE_LOOP('803',(#965,#967));
#969=FACE_BOUND('803',#968,.F.);
#971=ORIENTED_EDGE('639',*,*,#970,.T.);
#973=ORIENTED_EDGE('640',*,*,#972,.T.);
#974=EDGE_LOOP('803',(#971,#973));
#975=FACE_BOUND('803',#974,.F.);
#977=ORIENTED_EDGE('641',*,*,#976,.T.);
#979=ORIENTED_EDGE('642',*,*,#978,.T.);
#980=EDGE_LOOP('803',(#977,#979));
#981=FACE_BOUND('803',#980,.F.);
#983=ORIENTED_EDGE('701',*,*,#982,.T.);
#985=ORIENTED_EDGE('702',*,*,#984,.T.);
#986=EDGE_LOOP('803',(#983,#985));
#987=FACE_BOUND('803',#986,.F.);
#989=ORIENTED_EDGE('895',*,*,#988,.F.);
#991=ORIENTED_EDGE('896',*,*,#990,.F.);
#993=ORIENTED_EDGE('898',*,*,#992,.F.);
#995=ORIENTED_EDGE('897',*,*,#994,.F.);
#996=EDGE_LOOP('803',(#989,#991,#993,#995));
#997=FACE_BOUND('803',#996,.F.);
#999=ORIENTED_EDGE('911',*,*,#998,.F.);
#1001=ORIENTED_EDGE('912',*,*,#1000,.F.);
#1003=ORIENTED_EDGE('914',*,*,#1002,.F.);
#1005=ORIENTED_EDGE('913',*,*,#1004,.F.);
#1006=EDGE_LOOP('803',(#999,#1001,#1003,#1005));
#1007=FACE_BOUND('803',#1006,.F.);
#1008=ADVANCED_FACE('803',(#963,#969,#975,#981,#987,#997,#1007),#933,.F.);
#1009=CARTESIAN_POINT('',(7.4E-2,4.724598432756E-4,-2.2E-2));
#1010=DIRECTION('',(0.E0,-1.E0,0.E0));
#1011=DIRECTION('',(1.E0,0.E0,0.E0));
#1012=AXIS2_PLACEMENT_3D('',#1009,#1010,#1011);
#1013=CYLINDRICAL_SURFACE('853',#1012,8.E-3);
#1014=ORIENTED_EDGE('701',*,*,#982,.F.);
#1016=ORIENTED_EDGE('745',*,*,#1015,.F.);
#1018=ORIENTED_EDGE('743',*,*,#1017,.F.);
#1020=ORIENTED_EDGE('746',*,*,#1019,.F.);
#1021=EDGE_LOOP('853',(#1014,#1016,#1018,#1020));
#1022=FACE_OUTER_BOUND('853',#1021,.F.);
#1023=ADVANCED_FACE('853',(#1022),#1013,.T.);
#1024=CARTESIAN_POINT('',(7.4E-2,4.724598432756E-4,-2.2E-2));
#1025=DIRECTION('',(0.E0,-1.E0,0.E0));
#1026=DIRECTION('',(1.E0,0.E0,0.E0));
#1027=AXIS2_PLACEMENT_3D('',#1024,#1025,#1026);
#1028=CYLINDRICAL_SURFACE('854',#1027,8.E-3);
#1029=ORIENTED_EDGE('702',*,*,#984,.F.);
#1030=ORIENTED_EDGE('746',*,*,#1019,.T.);
#1032=ORIENTED_EDGE('744',*,*,#1031,.F.);
#1033=ORIENTED_EDGE('745',*,*,#1015,.T.);
#1034=EDGE_LOOP('854',(#1029,#1030,#1032,#1033));
#1035=FACE_OUTER_BOUND('854',#1034,.F.);
#1036=ADVANCED_FACE('854',(#1035),#1028,.T.);
#1037=CARTESIAN_POINT('',(7.4E-2,-8.E-3,-2.2E-2));
#1038=DIRECTION('',(0.E0,1.E0,0.E0));
#1039=DIRECTION('',(1.E0,0.E0,0.E0));
#1040=AXIS2_PLACEMENT_3D('',#1037,#1038,#1039);
#1041=PLANE('852',#1040);
#1042=ORIENTED_EDGE('743',*,*,#1017,.T.);
#1043=ORIENTED_EDGE('744',*,*,#1031,.T.);
#1044=EDGE_LOOP('852',(#1042,#1043));
#1045=FACE_OUTER_BOUND('852',#1044,.F.);
#1046=ADVANCED_FACE('852',(#1045),#1041,.F.);
#1047=CARTESIAN_POINT('',(1.26E-1,4.724598432756E-4,2.2E-2));
#1048=DIRECTION('',(0.E0,-1.E0,0.E0));
#1049=DIRECTION('',(1.E0,0.E0,0.E0));
#1050=AXIS2_PLACEMENT_3D('',#1047,#1048,#1049);
#1051=CYLINDRICAL_SURFACE('849',#1050,8.E-3);
#1052=ORIENTED_EDGE('699',*,*,#964,.F.);
#1054=ORIENTED_EDGE('739',*,*,#1053,.F.);
#1056=ORIENTED_EDGE('741',*,*,#1055,.F.);
#1058=ORIENTED_EDGE('740',*,*,#1057,.F.);
#1059=EDGE_LOOP('849',(#1052,#1054,#1056,#1058));
#1060=FACE_OUTER_BOUND('849',#1059,.F.);
#1061=ADVANCED_FACE('849',(#1060),#1051,.T.);
#1062=CARTESIAN_POINT('',(1.26E-1,4.724598432756E-4,2.2E-2));
#1063=DIRECTION('',(0.E0,-1.E0,0.E0));
#1064=DIRECTION('',(1.E0,0.E0,0.E0));
#1065=AXIS2_PLACEMENT_3D('',#1062,#1063,#1064);
#1066=CYLINDRICAL_SURFACE('850',#1065,8.E-3);
#1067=ORIENTED_EDGE('700',*,*,#966,.F.);
#1068=ORIENTED_EDGE('740',*,*,#1057,.T.);
#1070=ORIENTED_EDGE('742',*,*,#1069,.F.);
#1071=ORIENTED_EDGE('739',*,*,#1053,.T.);
#1072=EDGE_LOOP('850',(#1067,#1068,#1070,#1071));
#1073=FACE_OUTER_BOUND('850',#1072,.F.);
#1074=ADVANCED_FACE('850',(#1073),#1066,.T.);
#1075=CARTESIAN_POINT('',(1.26E-1,-8.E-3,2.2E-2));
#1076=DIRECTION('',(0.E0,1.E0,0.E0));
#1077=DIRECTION('',(1.E0,0.E0,0.E0));
#1078=AXIS2_PLACEMENT_3D('',#1075,#1076,#1077);
#1079=PLANE('851',#1078);
#1080=ORIENTED_EDGE('741',*,*,#1055,.T.);
#1081=ORIENTED_EDGE('742',*,*,#1069,.T.);
#1082=EDGE_LOOP('851',(#1080,#1081));
#1083=FACE_OUTER_BOUND('851',#1082,.F.);
#1084=ADVANCED_FACE('851',(#1083),#1079,.F.);
#1085=CARTESIAN_POINT('',(2.6E-2,4.724598432756E-4,2.2E-2));
#1086=DIRECTION('',(0.E0,-1.E0,0.E0));
#1087=DIRECTION('',(1.E0,0.E0,0.E0));
#1088=AXIS2_PLACEMENT_3D('',#1085,#1086,#1087);
#1089=CYLINDRICAL_SURFACE('823',#1088,8.E-3);
#1090=ORIENTED_EDGE('639',*,*,#970,.F.);
#1092=ORIENTED_EDGE('679',*,*,#1091,.F.);
#1094=ORIENTED_EDGE('681',*,*,#1093,.F.);
#1096=ORIENTED_EDGE('680',*,*,#1095,.F.);
#1097=EDGE_LOOP('823',(#1090,#1092,#1094,#1096));
#1098=FACE_OUTER_BOUND('823',#1097,.F.);
#1099=ADVANCED_FACE('823',(#1098),#1089,.T.);
#1100=CARTESIAN_POINT('',(2.6E-2,4.724598432756E-4,2.2E-2));
#1101=DIRECTION('',(0.E0,-1.E0,0.E0));
#1102=DIRECTION('',(1.E0,0.E0,0.E0));
#1103=AXIS2_PLACEMENT_3D('',#1100,#1101,#1102);
#1104=CYLINDRICAL_SURFACE('824',#1103,8.E-3);
#1105=ORIENTED_EDGE('640',*,*,#972,.F.);
#1106=ORIENTED_EDGE('680',*,*,#1095,.T.);
#1108=ORIENTED_EDGE('682',*,*,#1107,.F.);
#1109=ORIENTED_EDGE('679',*,*,#1091,.T.);
#1110=EDGE_LOOP('824',(#1105,#1106,#1108,#1109));
#1111=FACE_OUTER_BOUND('824',#1110,.F.);
#1112=ADVANCED_FACE('824',(#1111),#1104,.T.);
#1113=CARTESIAN_POINT('',(2.6E-2,-8.E-3,2.2E-2));
#1114=DIRECTION('',(0.E0,1.E0,0.E0));
#1115=DIRECTION('',(1.E0,0.E0,0.E0));
#1116=AXIS2_PLACEMENT_3D('',#1113,#1114,#1115);
#1117=PLANE('825',#1116);
#1118=ORIENTED_EDGE('681',*,*,#1093,.T.);
#1119=ORIENTED_EDGE('682',*,*,#1107,.T.);
#1120=EDGE_LOOP('825',(#1118,#1119));
#1121=FACE_OUTER_BOUND('825',#1120,.F.);
#1122=ADVANCED_FACE('825',(#1121),#1117,.F.);
#1123=CARTESIAN_POINT('',(-2.6E-2,4.724598432756E-4,-2.2E-2));
#1124=DIRECTION('',(0.E0,-1.E0,0.E0));
#1125=DIRECTION('',(1.E0,0.E0,0.E0));
#1126=AXIS2_PLACEMENT_3D('',#1123,#1124,#1125);
#1127=CYLINDRICAL_SURFACE('827',#1126,8.E-3);
#1128=ORIENTED_EDGE('641',*,*,#976,.F.);
#1130=ORIENTED_EDGE('685',*,*,#1129,.F.);
#1132=ORIENTED_EDGE('683',*,*,#1131,.F.);
#1134=ORIENTED_EDGE('686',*,*,#1133,.F.);
#1135=EDGE_LOOP('827',(#1128,#1130,#1132,#1134));
#1136=FACE_OUTER_BOUND('827',#1135,.F.);
#1137=ADVANCED_FACE('827',(#1136),#1127,.T.);
#1138=CARTESIAN_POINT('',(-2.6E-2,4.724598432756E-4,-2.2E-2));
#1139=DIRECTION('',(0.E0,-1.E0,0.E0));
#1140=DIRECTION('',(1.E0,0.E0,0.E0));
#1141=AXIS2_PLACEMENT_3D('',#1138,#1139,#1140);
#1142=CYLINDRICAL_SURFACE('828',#1141,8.E-3);
#1143=ORIENTED_EDGE('642',*,*,#978,.F.);
#1144=ORIENTED_EDGE('686',*,*,#1133,.T.);
#1146=ORIENTED_EDGE('684',*,*,#1145,.F.);
#1147=ORIENTED_EDGE('685',*,*,#1129,.T.);
#1148=EDGE_LOOP('828',(#1143,#1144,#1146,#1147));
#1149=FACE_OUTER_BOUND('828',#1148,.F.);
#1150=ADVANCED_FACE('828',(#1149),#1142,.T.);
#1151=CARTESIAN_POINT('',(-2.6E-2,-8.E-3,-2.2E-2));
#1152=DIRECTION('',(0.E0,1.E0,0.E0));
#1153=DIRECTION('',(1.E0,0.E0,0.E0));
#1154=AXIS2_PLACEMENT_3D('',#1151,#1152,#1153);
#1155=PLANE('826',#1154);
#1156=ORIENTED_EDGE('683',*,*,#1131,.T.);
#1157=ORIENTED_EDGE('684',*,*,#1145,.T.);
#1158=EDGE_LOOP('826',(#1156,#1157));
#1159=FACE_OUTER_BOUND('826',#1158,.F.);
#1160=ADVANCED_FACE('826',(#1159),#1155,.F.);
#1161=CARTESIAN_POINT('',(4.4E-2,4.2E-2,3.45E-2));
#1162=DIRECTION('',(9.079593845005E-1,0.E0,4.190581774617E-1));
#1163=DIRECTION('',(0.E0,-1.E0,0.E0));
#1164=AXIS2_PLACEMENT_3D('',#1161,#1162,#1163);
#1165=PLANE('811',#1164);
#1167=ORIENTED_EDGE('886',*,*,#1166,.F.);
#1168=ORIENTED_EDGE('888',*,*,#934,.F.);
#1170=ORIENTED_EDGE('665',*,*,#1169,.F.);
#1172=ORIENTED_EDGE('890',*,*,#1171,.F.);
#1173=EDGE_LOOP('811',(#1167,#1168,#1170,#1172));
#1174=FACE_OUTER_BOUND('811',#1173,.F.);
#1175=ADVANCED_FACE('811',(#1174),#1165,.T.);
#1176=CARTESIAN_POINT('',(5.6E-2,4.2E-2,3.45E-2));
#1177=DIRECTION('',(9.079593845005E-1,0.E0,-4.190581774617E-1));
#1178=DIRECTION('',(0.E0,-1.E0,0.E0));
#1179=AXIS2_PLACEMENT_3D('',#1176,#1177,#1178);
#1180=PLANE('839',#1179);
#1181=ORIENTED_EDGE('886',*,*,#1166,.T.);
#1183=ORIENTED_EDGE('893',*,*,#1182,.F.);
#1185=ORIENTED_EDGE('726',*,*,#1184,.T.);
#1186=ORIENTED_EDGE('892',*,*,#936,.F.);
#1187=EDGE_LOOP('839',(#1181,#1183,#1185,#1186));
#1188=FACE_OUTER_BOUND('839',#1187,.F.);
#1189=ADVANCED_FACE('839',(#1188),#1180,.F.);
#1190=CARTESIAN_POINT('',(0.E0,8.4E-2,0.E0));
#1191=DIRECTION('',(0.E0,1.E0,0.E0));
#1192=DIRECTION('',(1.E0,0.E0,0.E0));
#1193=AXIS2_PLACEMENT_3D('',#1190,#1191,#1192);
#1194=PLANE('808',#1193);
#1196=ORIENTED_EDGE('889',*,*,#1195,.T.);
#1198=ORIENTED_EDGE('894',*,*,#1197,.T.);
#1200=ORIENTED_EDGE('718',*,*,#1199,.F.);
#1202=ORIENTED_EDGE('711',*,*,#1201,.T.);
#1204=ORIENTED_EDGE('712',*,*,#1203,.F.);
#1206=ORIENTED_EDGE('713',*,*,#1205,.T.);
#1208=ORIENTED_EDGE('714',*,*,#1207,.F.);
#1209=ORIENTED_EDGE('893',*,*,#1182,.T.);
#1210=ORIENTED_EDGE('890',*,*,#1171,.T.);
#1212=ORIENTED_EDGE('654',*,*,#1211,.F.);
#1214=ORIENTED_EDGE('655',*,*,#1213,.T.);
#1216=ORIENTED_EDGE('656',*,*,#1215,.F.);
#1218=ORIENTED_EDGE('657',*,*,#1217,.T.);
#1220=ORIENTED_EDGE('658',*,*,#1219,.F.);
#1221=EDGE_LOOP('808',(#1196,#1198,#1200,#1202,#1204,#1206,#1208,#1209,#1210,
#1212,#1214,#1216,#1218,#1220));
#1222=FACE_OUTER_BOUND('808',#1221,.F.);
#1224=ORIENTED_EDGE('719',*,*,#1223,.T.);
#1226=ORIENTED_EDGE('720',*,*,#1225,.T.);
#1227=EDGE_LOOP('808',(#1224,#1226));
#1228=FACE_BOUND('808',#1227,.F.);
#1230=ORIENTED_EDGE('659',*,*,#1229,.T.);
#1232=ORIENTED_EDGE('660',*,*,#1231,.T.);
#1233=EDGE_LOOP('808',(#1230,#1232));
#1234=FACE_BOUND('808',#1233,.F.);
#1236=ORIENTED_EDGE('661',*,*,#1235,.T.);
#1238=ORIENTED_EDGE('662',*,*,#1237,.T.);
#1239=EDGE_LOOP('808',(#1236,#1238));
#1240=FACE_BOUND('808',#1239,.F.);
#1242=ORIENTED_EDGE('721',*,*,#1241,.T.);
#1244=ORIENTED_EDGE('722',*,*,#1243,.T.);
#1245=EDGE_LOOP('808',(#1242,#1244));
#1246=FACE_BOUND('808',#1245,.F.);
#1248=ORIENTED_EDGE('899',*,*,#1247,.T.);
#1250=ORIENTED_EDGE('901',*,*,#1249,.T.);
#1252=ORIENTED_EDGE('902',*,*,#1251,.T.);
#1254=ORIENTED_EDGE('900',*,*,#1253,.T.);
#1255=EDGE_LOOP('808',(#1248,#1250,#1252,#1254));
#1256=FACE_BOUND('808',#1255,.F.);
#1258=ORIENTED_EDGE('915',*,*,#1257,.T.);
#1260=ORIENTED_EDGE('917',*,*,#1259,.T.);
#1262=ORIENTED_EDGE('918',*,*,#1261,.T.);
#1264=ORIENTED_EDGE('916',*,*,#1263,.T.);
#1265=EDGE_LOOP('808',(#1258,#1260,#1262,#1264));
#1266=FACE_BOUND('808',#1265,.F.);
#1267=ADVANCED_FACE('808',(#1222,#1228,#1234,#1240,#1246,#1256,#1266),#1194,
.T.);
#1268=CARTESIAN_POINT('',(1.26E-1,8.352754015672E-2,2.2E-2));
#1269=DIRECTION('',(0.E0,1.E0,0.E0));
#1270=DIRECTION('',(1.E0,0.E0,0.E0));
#1271=AXIS2_PLACEMENT_3D('',#1268,#1269,#1270);
#1272=CYLINDRICAL_SURFACE('847',#1271,8.E-3);
#1273=ORIENTED_EDGE('721',*,*,#1241,.F.);
#1275=ORIENTED_EDGE('737',*,*,#1274,.F.);
#1277=ORIENTED_EDGE('735',*,*,#1276,.F.);
#1279=ORIENTED_EDGE('738',*,*,#1278,.F.);
#1280=EDGE_LOOP('847',(#1273,#1275,#1277,#1279));
#1281=FACE_OUTER_BOUND('847',#1280,.F.);
#1282=ADVANCED_FACE('847',(#1281),#1272,.T.);
#1283=CARTESIAN_POINT('',(1.26E-1,8.352754015672E-2,2.2E-2));
#1284=DIRECTION('',(0.E0,1.E0,0.E0));
#1285=DIRECTION('',(1.E0,0.E0,0.E0));
#1286=AXIS2_PLACEMENT_3D('',#1283,#1284,#1285);
#1287=CYLINDRICAL_SURFACE('848',#1286,8.E-3);
#1288=ORIENTED_EDGE('722',*,*,#1243,.F.);
#1289=ORIENTED_EDGE('738',*,*,#1278,.T.);
#1291=ORIENTED_EDGE('736',*,*,#1290,.F.);
#1292=ORIENTED_EDGE('737',*,*,#1274,.T.);
#1293=EDGE_LOOP('848',(#1288,#1289,#1291,#1292));
#1294=FACE_OUTER_BOUND('848',#1293,.F.);
#1295=ADVANCED_FACE('848',(#1294),#1287,.T.);
#1296=CARTESIAN_POINT('',(1.26E-1,9.2E-2,2.2E-2));
#1297=DIRECTION('',(0.E0,1.E0,0.E0));
#1298=DIRECTION('',(1.E0,0.E0,0.E0));
#1299=AXIS2_PLACEMENT_3D('',#1296,#1297,#1298);
#1300=PLANE('846',#1299);
#1301=ORIENTED_EDGE('735',*,*,#1276,.T.);
#1302=ORIENTED_EDGE('736',*,*,#1290,.T.);
#1303=EDGE_LOOP('846',(#1301,#1302));
#1304=FACE_OUTER_BOUND('846',#1303,.F.);
#1305=ADVANCED_FACE('846',(#1304),#1300,.T.);
#1306=CARTESIAN_POINT('',(7.4E-2,8.352754015672E-2,-2.2E-2));
#1307=DIRECTION('',(0.E0,1.E0,0.E0));
#1308=DIRECTION('',(1.E0,0.E0,0.E0));
#1309=AXIS2_PLACEMENT_3D('',#1306,#1307,#1308);
#1310=CYLINDRICAL_SURFACE('843',#1309,8.E-3);
#1311=ORIENTED_EDGE('719',*,*,#1223,.F.);
#1313=ORIENTED_EDGE('731',*,*,#1312,.F.);
#1315=ORIENTED_EDGE('733',*,*,#1314,.F.);
#1317=ORIENTED_EDGE('732',*,*,#1316,.F.);
#1318=EDGE_LOOP('843',(#1311,#1313,#1315,#1317));
#1319=FACE_OUTER_BOUND('843',#1318,.F.);
#1320=ADVANCED_FACE('843',(#1319),#1310,.T.);
#1321=CARTESIAN_POINT('',(7.4E-2,8.352754015672E-2,-2.2E-2));
#1322=DIRECTION('',(0.E0,1.E0,0.E0));
#1323=DIRECTION('',(1.E0,0.E0,0.E0));
#1324=AXIS2_PLACEMENT_3D('',#1321,#1322,#1323);
#1325=CYLINDRICAL_SURFACE('844',#1324,8.E-3);
#1326=ORIENTED_EDGE('720',*,*,#1225,.F.);
#1327=ORIENTED_EDGE('732',*,*,#1316,.T.);
#1329=ORIENTED_EDGE('734',*,*,#1328,.F.);
#1330=ORIENTED_EDGE('731',*,*,#1312,.T.);
#1331=EDGE_LOOP('844',(#1326,#1327,#1329,#1330));
#1332=FACE_OUTER_BOUND('844',#1331,.F.);
#1333=ADVANCED_FACE('844',(#1332),#1325,.T.);
#1334=CARTESIAN_POINT('',(7.4E-2,9.2E-2,-2.2E-2));
#1335=DIRECTION('',(0.E0,1.E0,0.E0));
#1336=DIRECTION('',(1.E0,0.E0,0.E0));
#1337=AXIS2_PLACEMENT_3D('',#1334,#1335,#1336);
#1338=PLANE('845',#1337);
#1339=ORIENTED_EDGE('733',*,*,#1314,.T.);
#1340=ORIENTED_EDGE('734',*,*,#1328,.T.);
#1341=EDGE_LOOP('845',(#1339,#1340));
#1342=FACE_OUTER_BOUND('845',#1341,.F.);
#1343=ADVANCED_FACE('845',(#1342),#1338,.T.);
#1344=CARTESIAN_POINT('',(-2.6E-2,8.352754015672E-2,-2.2E-2));
#1345=DIRECTION('',(0.E0,1.E0,0.E0));
#1346=DIRECTION('',(1.E0,0.E0,0.E0));
#1347=AXIS2_PLACEMENT_3D('',#1344,#1345,#1346);
#1348=CYLINDRICAL_SURFACE('817',#1347,8.E-3);
#1349=ORIENTED_EDGE('659',*,*,#1229,.F.);
#1351=ORIENTED_EDGE('671',*,*,#1350,.F.);
#1353=ORIENTED_EDGE('673',*,*,#1352,.F.);
#1355=ORIENTED_EDGE('672',*,*,#1354,.F.);
#1356=EDGE_LOOP('817',(#1349,#1351,#1353,#1355));
#1357=FACE_OUTER_BOUND('817',#1356,.F.);
#1358=ADVANCED_FACE('817',(#1357),#1348,.T.);
#1359=CARTESIAN_POINT('',(-2.6E-2,8.352754015672E-2,-2.2E-2));
#1360=DIRECTION('',(0.E0,1.E0,0.E0));
#1361=DIRECTION('',(1.E0,0.E0,0.E0));
#1362=AXIS2_PLACEMENT_3D('',#1359,#1360,#1361);
#1363=CYLINDRICAL_SURFACE('818',#1362,8.E-3);
#1364=ORIENTED_EDGE('660',*,*,#1231,.F.);
#1365=ORIENTED_EDGE('672',*,*,#1354,.T.);
#1367=ORIENTED_EDGE('674',*,*,#1366,.F.);
#1368=ORIENTED_EDGE('671',*,*,#1350,.T.);
#1369=EDGE_LOOP('818',(#1364,#1365,#1367,#1368));
#1370=FACE_OUTER_BOUND('818',#1369,.F.);
#1371=ADVANCED_FACE('818',(#1370),#1363,.T.);
#1372=CARTESIAN_POINT('',(-2.6E-2,9.2E-2,-2.2E-2));
#1373=DIRECTION('',(0.E0,1.E0,0.E0));
#1374=DIRECTION('',(1.E0,0.E0,0.E0));
#1375=AXIS2_PLACEMENT_3D('',#1372,#1373,#1374);
#1376=PLANE('819',#1375);
#1377=ORIENTED_EDGE('673',*,*,#1352,.T.);
#1378=ORIENTED_EDGE('674',*,*,#1366,.T.);
#1379=EDGE_LOOP('819',(#1377,#1378));
#1380=FACE_OUTER_BOUND('819',#1379,.F.);
#1381=ADVANCED_FACE('819',(#1380),#1376,.T.);
#1382=CARTESIAN_POINT('',(2.6E-2,8.352754015672E-2,2.2E-2));
#1383=DIRECTION('',(0.E0,1.E0,0.E0));
#1384=DIRECTION('',(1.E0,0.E0,0.E0));
#1385=AXIS2_PLACEMENT_3D('',#1382,#1383,#1384);
#1386=CYLINDRICAL_SURFACE('821',#1385,8.E-3);
#1387=ORIENTED_EDGE('661',*,*,#1235,.F.);
#1389=ORIENTED_EDGE('677',*,*,#1388,.F.);
#1391=ORIENTED_EDGE('675',*,*,#1390,.F.);
#1393=ORIENTED_EDGE('678',*,*,#1392,.F.);
#1394=EDGE_LOOP('821',(#1387,#1389,#1391,#1393));
#1395=FACE_OUTER_BOUND('821',#1394,.F.);
#1396=ADVANCED_FACE('821',(#1395),#1386,.T.);
#1397=CARTESIAN_POINT('',(2.6E-2,8.352754015672E-2,2.2E-2));
#1398=DIRECTION('',(0.E0,1.E0,0.E0));
#1399=DIRECTION('',(1.E0,0.E0,0.E0));
#1400=AXIS2_PLACEMENT_3D('',#1397,#1398,#1399);
#1401=CYLINDRICAL_SURFACE('822',#1400,8.E-3);
#1402=ORIENTED_EDGE('662',*,*,#1237,.F.);
#1403=ORIENTED_EDGE('678',*,*,#1392,.T.);
#1405=ORIENTED_EDGE('676',*,*,#1404,.F.);
#1406=ORIENTED_EDGE('677',*,*,#1388,.T.);
#1407=EDGE_LOOP('822',(#1402,#1403,#1405,#1406));
#1408=FACE_OUTER_BOUND('822',#1407,.F.);
#1409=ADVANCED_FACE('822',(#1408),#1401,.T.);
#1410=CARTESIAN_POINT('',(2.6E-2,9.2E-2,2.2E-2));
#1411=DIRECTION('',(0.E0,1.E0,0.E0));
#1412=DIRECTION('',(1.E0,0.E0,0.E0));
#1413=AXIS2_PLACEMENT_3D('',#1410,#1411,#1412);
#1414=PLANE('820',#1413);
#1415=ORIENTED_EDGE('675',*,*,#1390,.T.);
#1416=ORIENTED_EDGE('676',*,*,#1404,.T.);
#1417=EDGE_LOOP('820',(#1415,#1416));
#1418=FACE_OUTER_BOUND('820',#1417,.F.);
#1419=ADVANCED_FACE('820',(#1418),#1414,.T.);
#1420=CARTESIAN_POINT('',(4.4E-2,4.2E-2,-3.45E-2));
#1421=DIRECTION('',(9.079593845005E-1,0.E0,-4.190581774617E-1));
#1422=DIRECTION('',(0.E0,-1.E0,0.E0));
#1423=AXIS2_PLACEMENT_3D('',#1420,#1421,#1422);
#1424=PLANE('809',#1423);
#1426=ORIENTED_EDGE('885',*,*,#1425,.F.);
#1427=ORIENTED_EDGE('889',*,*,#1195,.F.);
#1429=ORIENTED_EDGE('669',*,*,#1428,.F.);
#1430=ORIENTED_EDGE('887',*,*,#950,.F.);
#1431=EDGE_LOOP('809',(#1426,#1427,#1429,#1430));
#1432=FACE_OUTER_BOUND('809',#1431,.F.);
#1433=ADVANCED_FACE('809',(#1432),#1424,.T.);
#1434=CARTESIAN_POINT('',(5.6E-2,4.2E-2,-3.45E-2));
#1435=DIRECTION('',(9.079593845005E-1,0.E0,4.190581774617E-1));
#1436=DIRECTION('',(0.E0,-1.E0,0.E0));
#1437=AXIS2_PLACEMENT_3D('',#1434,#1435,#1436);
#1438=PLANE('841',#1437);
#1439=ORIENTED_EDGE('885',*,*,#1425,.T.);
#1440=ORIENTED_EDGE('891',*,*,#948,.F.);
#1442=ORIENTED_EDGE('730',*,*,#1441,.F.);
#1443=ORIENTED_EDGE('894',*,*,#1197,.F.);
#1444=EDGE_LOOP('841',(#1439,#1440,#1442,#1443));
#1445=FACE_OUTER_BOUND('841',#1444,.F.);
#1446=ADVANCED_FACE('841',(#1445),#1438,.F.);
#1447=CARTESIAN_POINT('',(1.E-1,4.2E-2,-4.75E-2));
#1448=DIRECTION('',(0.E0,0.E0,1.E0));
#1449=DIRECTION('',(-1.E0,0.E0,0.E0));
#1450=AXIS2_PLACEMENT_3D('',#1447,#1448,#1449);
#1451=PLANE('842',#1450);
#1453=ORIENTED_EDGE('729',*,*,#1452,.T.);
#1454=ORIENTED_EDGE('718',*,*,#1199,.T.);
#1455=ORIENTED_EDGE('730',*,*,#1441,.T.);
#1456=ORIENTED_EDGE('692',*,*,#946,.T.);
#1457=EDGE_LOOP('842',(#1453,#1454,#1455,#1456));
#1458=FACE_OUTER_BOUND('842',#1457,.F.);
#1459=ADVANCED_FACE('842',(#1458),#1451,.F.);
#1460=CARTESIAN_POINT('',(1.44E-1,4.2E-2,-3.45E-2));
#1461=DIRECTION('',(9.079593845005E-1,0.E0,-4.190581774617E-1));
#1462=DIRECTION('',(0.E0,-1.E0,0.E0));
#1463=AXIS2_PLACEMENT_3D('',#1460,#1461,#1462);
#1464=PLANE('835',#1463);
#1465=ORIENTED_EDGE('691',*,*,#944,.F.);
#1467=ORIENTED_EDGE('723',*,*,#1466,.F.);
#1468=ORIENTED_EDGE('711',*,*,#1201,.F.);
#1469=ORIENTED_EDGE('729',*,*,#1452,.F.);
#1470=EDGE_LOOP('835',(#1465,#1467,#1468,#1469));
#1471=FACE_OUTER_BOUND('835',#1470,.F.);
#1472=ADVANCED_FACE('835',(#1471),#1464,.T.);
#1473=CARTESIAN_POINT('',(1.5E-1,4.2E-2,0.E0));
#1474=DIRECTION('',(1.E0,0.E0,0.E0));
#1475=DIRECTION('',(0.E0,0.E0,-1.E0));
#1476=AXIS2_PLACEMENT_3D('',#1473,#1474,#1475);
#1477=PLANE('836',#1476);
#1478=ORIENTED_EDGE('723',*,*,#1466,.T.);
#1479=ORIENTED_EDGE('698',*,*,#942,.T.);
#1481=ORIENTED_EDGE('724',*,*,#1480,.F.);
#1482=ORIENTED_EDGE('712',*,*,#1203,.T.);
#1483=EDGE_LOOP('836',(#1478,#1479,#1481,#1482));
#1484=FACE_OUTER_BOUND('836',#1483,.F.);
#1485=ADVANCED_FACE('836',(#1484),#1477,.T.);
#1486=CARTESIAN_POINT('',(1.44E-1,4.2E-2,3.45E-2));
#1487=DIRECTION('',(9.079593845005E-1,0.E0,4.190581774617E-1));
#1488=DIRECTION('',(0.E0,-1.E0,0.E0));
#1489=AXIS2_PLACEMENT_3D('',#1486,#1487,#1488);
#1490=PLANE('837',#1489);
#1491=ORIENTED_EDGE('697',*,*,#940,.F.);
#1493=ORIENTED_EDGE('725',*,*,#1492,.F.);
#1494=ORIENTED_EDGE('713',*,*,#1205,.F.);
#1495=ORIENTED_EDGE('724',*,*,#1480,.T.);
#1496=EDGE_LOOP('837',(#1491,#1493,#1494,#1495));
#1497=FACE_OUTER_BOUND('837',#1496,.F.);
#1498=ADVANCED_FACE('837',(#1497),#1490,.T.);
#1499=CARTESIAN_POINT('',(1.E-1,4.2E-2,4.75E-2));
#1500=DIRECTION('',(0.E0,0.E0,1.E0));
#1501=DIRECTION('',(1.E0,0.E0,0.E0));
#1502=AXIS2_PLACEMENT_3D('',#1499,#1500,#1501);
#1503=PLANE('838',#1502);
#1504=ORIENTED_EDGE('725',*,*,#1492,.T.);
#1505=ORIENTED_EDGE('696',*,*,#938,.T.);
#1506=ORIENTED_EDGE('726',*,*,#1184,.F.);
#1507=ORIENTED_EDGE('714',*,*,#1207,.T.);
#1508=EDGE_LOOP('838',(#1504,#1505,#1506,#1507));
#1509=FACE_OUTER_BOUND('838',#1508,.F.);
#1510=ADVANCED_FACE('838',(#1509),#1503,.T.);
#1511=CARTESIAN_POINT('',(0.E0,4.2E-2,-4.75E-2));
#1512=DIRECTION('',(0.E0,0.E0,1.E0));
#1513=DIRECTION('',(-1.E0,0.E0,0.E0));
#1514=AXIS2_PLACEMENT_3D('',#1511,#1512,#1513);
#1515=PLANE('816',#1514);
#1516=ORIENTED_EDGE('669',*,*,#1428,.T.);
#1517=ORIENTED_EDGE('658',*,*,#1219,.T.);
#1519=ORIENTED_EDGE('670',*,*,#1518,.T.);
#1520=ORIENTED_EDGE('632',*,*,#952,.T.);
#1521=EDGE_LOOP('816',(#1516,#1517,#1519,#1520));
#1522=FACE_OUTER_BOUND('816',#1521,.F.);
#1523=ADVANCED_FACE('816',(#1522),#1515,.F.);
#1524=CARTESIAN_POINT('',(-4.4E-2,4.2E-2,-3.45E-2));
#1525=DIRECTION('',(9.079593845005E-1,0.E0,4.190581774617E-1));
#1526=DIRECTION('',(0.E0,-1.E0,0.E0));
#1527=AXIS2_PLACEMENT_3D('',#1524,#1525,#1526);
#1528=PLANE('815',#1527);
#1529=ORIENTED_EDGE('633',*,*,#954,.F.);
#1530=ORIENTED_EDGE('670',*,*,#1518,.F.);
#1531=ORIENTED_EDGE('657',*,*,#1217,.F.);
#1533=ORIENTED_EDGE('668',*,*,#1532,.T.);
#1534=EDGE_LOOP('815',(#1529,#1530,#1531,#1533));
#1535=FACE_OUTER_BOUND('815',#1534,.F.);
#1536=ADVANCED_FACE('815',(#1535),#1528,.F.);
#1537=CARTESIAN_POINT('',(-5.E-2,4.2E-2,0.E0));
#1538=DIRECTION('',(1.E0,0.E0,0.E0));
#1539=DIRECTION('',(0.E0,0.E0,1.E0));
#1540=AXIS2_PLACEMENT_3D('',#1537,#1538,#1539);
#1541=PLANE('814',#1540);
#1543=ORIENTED_EDGE('667',*,*,#1542,.T.);
#1544=ORIENTED_EDGE('634',*,*,#956,.T.);
#1545=ORIENTED_EDGE('668',*,*,#1532,.F.);
#1546=ORIENTED_EDGE('656',*,*,#1215,.T.);
#1547=EDGE_LOOP('814',(#1543,#1544,#1545,#1546));
#1548=FACE_OUTER_BOUND('814',#1547,.F.);
#1549=ADVANCED_FACE('814',(#1548),#1541,.F.);
#1550=CARTESIAN_POINT('',(-4.4E-2,4.2E-2,3.45E-2));
#1551=DIRECTION('',(9.079593845005E-1,0.E0,-4.190581774617E-1));
#1552=DIRECTION('',(0.E0,-1.E0,0.E0));
#1553=AXIS2_PLACEMENT_3D('',#1550,#1551,#1552);
#1554=PLANE('813',#1553);
#1555=ORIENTED_EDGE('635',*,*,#958,.F.);
#1556=ORIENTED_EDGE('667',*,*,#1542,.F.);
#1557=ORIENTED_EDGE('655',*,*,#1213,.F.);
#1559=ORIENTED_EDGE('666',*,*,#1558,.T.);
#1560=EDGE_LOOP('813',(#1555,#1556,#1557,#1559));
#1561=FACE_OUTER_BOUND('813',#1560,.F.);
#1562=ADVANCED_FACE('813',(#1561),#1554,.F.);
#1563=CARTESIAN_POINT('',(0.E0,4.2E-2,4.75E-2));
#1564=DIRECTION('',(0.E0,0.E0,1.E0));
#1565=DIRECTION('',(1.E0,0.E0,0.E0));
#1566=AXIS2_PLACEMENT_3D('',#1563,#1564,#1565);
#1567=PLANE('812',#1566);
#1568=ORIENTED_EDGE('665',*,*,#1169,.T.);
#1569=ORIENTED_EDGE('636',*,*,#960,.T.);
#1570=ORIENTED_EDGE('666',*,*,#1558,.F.);
#1571=ORIENTED_EDGE('654',*,*,#1211,.T.);
#1572=EDGE_LOOP('812',(#1568,#1569,#1570,#1571));
#1573=FACE_OUTER_BOUND('812',#1572,.F.);
#1574=ADVANCED_FACE('812',(#1573),#1567,.T.);
#1575=CARTESIAN_POINT('',(0.E0,9.7E-2,-1.25E-2));
#1576=DIRECTION('',(0.E0,0.E0,1.E0));
#1577=DIRECTION('',(-1.E0,0.E0,0.E0));
#1578=AXIS2_PLACEMENT_3D('',#1575,#1576,#1577);
#1579=PLANE('857',#1578);
#1580=ORIENTED_EDGE('895',*,*,#988,.T.);
#1582=ORIENTED_EDGE('907',*,*,#1581,.F.);
#1584=ORIENTED_EDGE('753',*,*,#1583,.T.);
#1586=ORIENTED_EDGE('904',*,*,#1585,.F.);
#1587=EDGE_LOOP('857',(#1580,#1582,#1584,#1586));
#1588=FACE_OUTER_BOUND('857',#1587,.F.);
#1589=ADVANCED_FACE('857',(#1588),#1579,.F.);
#1590=CARTESIAN_POINT('',(0.E0,9.7E-2,-1.25E-2));
#1591=DIRECTION('',(0.E0,0.E0,1.E0));
#1592=DIRECTION('',(-1.E0,0.E0,0.E0));
#1593=AXIS2_PLACEMENT_3D('',#1590,#1591,#1592);
#1594=PLANE('857',#1593);
#1595=ORIENTED_EDGE('899',*,*,#1247,.F.);
#1597=ORIENTED_EDGE('903',*,*,#1596,.F.);
#1599=ORIENTED_EDGE('752',*,*,#1598,.F.);
#1601=ORIENTED_EDGE('908',*,*,#1600,.F.);
#1602=EDGE_LOOP('857',(#1595,#1597,#1599,#1601));
#1603=FACE_OUTER_BOUND('857',#1602,.F.);
#1604=ADVANCED_FACE('857',(#1603),#1594,.F.);
#1605=CARTESIAN_POINT('',(-1.25E-2,9.7E-2,0.E0));
#1606=DIRECTION('',(1.E0,0.E0,0.E0));
#1607=DIRECTION('',(0.E0,0.E0,1.E0));
#1608=AXIS2_PLACEMENT_3D('',#1605,#1606,#1607);
#1609=PLANE('865',#1608);
#1610=ORIENTED_EDGE('897',*,*,#994,.T.);
#1612=ORIENTED_EDGE('909',*,*,#1611,.F.);
#1614=ORIENTED_EDGE('768',*,*,#1613,.T.);
#1615=ORIENTED_EDGE('907',*,*,#1581,.T.);
#1616=EDGE_LOOP('865',(#1610,#1612,#1614,#1615));
#1617=FACE_OUTER_BOUND('865',#1616,.F.);
#1618=ADVANCED_FACE('865',(#1617),#1609,.F.);
#1619=CARTESIAN_POINT('',(-1.25E-2,9.7E-2,0.E0));
#1620=DIRECTION('',(1.E0,0.E0,0.E0));
#1621=DIRECTION('',(0.E0,0.E0,1.E0));
#1622=AXIS2_PLACEMENT_3D('',#1619,#1620,#1621);
#1623=PLANE('865',#1622);
#1624=ORIENTED_EDGE('901',*,*,#1249,.F.);
#1625=ORIENTED_EDGE('908',*,*,#1600,.T.);
#1627=ORIENTED_EDGE('767',*,*,#1626,.F.);
#1629=ORIENTED_EDGE('910',*,*,#1628,.F.);
#1630=EDGE_LOOP('865',(#1624,#1625,#1627,#1629));
#1631=FACE_OUTER_BOUND('865',#1630,.F.);
#1632=ADVANCED_FACE('865',(#1631),#1623,.F.);
#1633=CARTESIAN_POINT('',(0.E0,9.7E-2,1.25E-2));
#1634=DIRECTION('',(0.E0,0.E0,1.E0));
#1635=DIRECTION('',(1.E0,0.E0,0.E0));
#1636=AXIS2_PLACEMENT_3D('',#1633,#1634,#1635);
#1637=PLANE('868',#1636);
#1638=ORIENTED_EDGE('898',*,*,#992,.T.);
#1640=ORIENTED_EDGE('906',*,*,#1639,.T.);
#1642=ORIENTED_EDGE('773',*,*,#1641,.T.);
#1643=ORIENTED_EDGE('909',*,*,#1611,.T.);
#1644=EDGE_LOOP('868',(#1638,#1640,#1642,#1643));
#1645=FACE_OUTER_BOUND('868',#1644,.F.);
#1646=ADVANCED_FACE('868',(#1645),#1637,.T.);
#1647=CARTESIAN_POINT('',(0.E0,9.7E-2,1.25E-2));
#1648=DIRECTION('',(0.E0,0.E0,1.E0));
#1649=DIRECTION('',(1.E0,0.E0,0.E0));
#1650=AXIS2_PLACEMENT_3D('',#1647,#1648,#1649);
#1651=PLANE('868',#1650);
#1652=ORIENTED_EDGE('902',*,*,#1251,.F.);
#1653=ORIENTED_EDGE('910',*,*,#1628,.T.);
#1655=ORIENTED_EDGE('772',*,*,#1654,.T.);
#1657=ORIENTED_EDGE('905',*,*,#1656,.T.);
#1658=EDGE_LOOP('868',(#1652,#1653,#1655,#1657));
#1659=FACE_OUTER_BOUND('868',#1658,.F.);
#1660=ADVANCED_FACE('868',(#1659),#1651,.T.);
#1661=CARTESIAN_POINT('',(1.25E-2,9.7E-2,0.E0));
#1662=DIRECTION('',(1.E0,0.E0,0.E0));
#1663=DIRECTION('',(0.E0,0.E0,-1.E0));
#1664=AXIS2_PLACEMENT_3D('',#1661,#1662,#1663);
#1665=PLANE('861',#1664);
#1666=ORIENTED_EDGE('896',*,*,#990,.T.);
#1667=ORIENTED_EDGE('904',*,*,#1585,.T.);
#1669=ORIENTED_EDGE('762',*,*,#1668,.F.);
#1670=ORIENTED_EDGE('906',*,*,#1639,.F.);
#1671=EDGE_LOOP('861',(#1666,#1667,#1669,#1670));
#1672=FACE_OUTER_BOUND('861',#1671,.F.);
#1673=ADVANCED_FACE('861',(#1672),#1665,.T.);
#1674=CARTESIAN_POINT('',(1.25E-2,9.7E-2,0.E0));
#1675=DIRECTION('',(1.E0,0.E0,0.E0));
#1676=DIRECTION('',(0.E0,0.E0,-1.E0));
#1677=AXIS2_PLACEMENT_3D('',#1674,#1675,#1676);
#1678=PLANE('861',#1677);
#1679=ORIENTED_EDGE('900',*,*,#1253,.F.);
#1680=ORIENTED_EDGE('905',*,*,#1656,.F.);
#1682=ORIENTED_EDGE('761',*,*,#1681,.T.);
#1683=ORIENTED_EDGE('903',*,*,#1596,.T.);
#1684=EDGE_LOOP('861',(#1679,#1680,#1682,#1683));
#1685=FACE_OUTER_BOUND('861',#1684,.F.);
#1686=ADVANCED_FACE('861',(#1685),#1678,.T.);
#1687=CARTESIAN_POINT('',(9.499999999998E-3,-1.216E-1,0.E0));
#1688=DIRECTION('',(9.054589359596E-1,-4.244338762292E-1,0.E0));
#1689=DIRECTION('',(0.E0,0.E0,-1.E0));
#1690=AXIS2_PLACEMENT_3D('',#1687,#1688,#1689);
#1691=PLANE('862',#1690);
#1693=ORIENTED_EDGE('750',*,*,#1692,.T.);
#1695=ORIENTED_EDGE('764',*,*,#1694,.F.);
#1696=ORIENTED_EDGE('762',*,*,#1668,.T.);
#1698=ORIENTED_EDGE('751',*,*,#1697,.T.);
#1699=EDGE_LOOP('862',(#1693,#1695,#1696,#1698));
#1700=FACE_OUTER_BOUND('862',#1699,.F.);
#1701=ADVANCED_FACE('862',(#1700),#1691,.T.);
#1702=CARTESIAN_POINT('',(0.E0,-1.28E-1,0.E0));
#1703=DIRECTION('',(0.E0,1.E0,0.E0));
#1704=DIRECTION('',(1.E0,0.E0,0.E0));
#1705=AXIS2_PLACEMENT_3D('',#1702,#1703,#1704);
#1706=PLANE('855',#1705);
#1708=ORIENTED_EDGE('747',*,*,#1707,.F.);
#1710=ORIENTED_EDGE('748',*,*,#1709,.F.);
#1712=ORIENTED_EDGE('749',*,*,#1711,.F.);
#1713=ORIENTED_EDGE('750',*,*,#1692,.F.);
#1714=EDGE_LOOP('855',(#1708,#1710,#1712,#1713));
#1715=FACE_OUTER_BOUND('855',#1714,.F.);
#1716=ADVANCED_FACE('855',(#1715),#1706,.F.);
#1717=CARTESIAN_POINT('',(0.E0,-1.216E-1,-9.499999999998E-3));
#1718=DIRECTION('',(0.E0,4.244338762292E-1,9.054589359596E-1));
#1719=DIRECTION('',(-1.E0,0.E0,0.E0));
#1720=AXIS2_PLACEMENT_3D('',#1717,#1718,#1719);
#1721=PLANE('856',#1720);
#1722=ORIENTED_EDGE('753',*,*,#1583,.F.);
#1724=ORIENTED_EDGE('766',*,*,#1723,.F.);
#1725=ORIENTED_EDGE('747',*,*,#1707,.T.);
#1726=ORIENTED_EDGE('751',*,*,#1697,.F.);
#1727=EDGE_LOOP('856',(#1722,#1724,#1725,#1726));
#1728=FACE_OUTER_BOUND('856',#1727,.F.);
#1729=ADVANCED_FACE('856',(#1728),#1721,.F.);
#1730=CARTESIAN_POINT('',(-9.499999999998E-3,-1.216E-1,0.E0));
#1731=DIRECTION('',(9.054589359596E-1,4.244338762292E-1,0.E0));
#1732=DIRECTION('',(0.E0,0.E0,-1.E0));
#1733=AXIS2_PLACEMENT_3D('',#1730,#1731,#1732);
#1734=PLANE('864',#1733);
#1735=ORIENTED_EDGE('768',*,*,#1613,.F.);
#1737=ORIENTED_EDGE('765',*,*,#1736,.T.);
#1738=ORIENTED_EDGE('748',*,*,#1709,.T.);
#1739=ORIENTED_EDGE('766',*,*,#1723,.T.);
#1740=EDGE_LOOP('864',(#1735,#1737,#1738,#1739));
#1741=FACE_OUTER_BOUND('864',#1740,.F.);
#1742=ADVANCED_FACE('864',(#1741),#1734,.F.);
#1743=CARTESIAN_POINT('',(0.E0,-1.216E-1,9.499999999998E-3));
#1744=DIRECTION('',(0.E0,-4.244338762292E-1,9.054589359596E-1));
#1745=DIRECTION('',(-1.E0,0.E0,0.E0));
#1746=AXIS2_PLACEMENT_3D('',#1743,#1744,#1745);
#1747=PLANE('863',#1746);
#1748=ORIENTED_EDGE('749',*,*,#1711,.T.);
#1749=ORIENTED_EDGE('765',*,*,#1736,.F.);
#1750=ORIENTED_EDGE('773',*,*,#1641,.F.);
#1751=ORIENTED_EDGE('764',*,*,#1694,.T.);
#1752=EDGE_LOOP('863',(#1748,#1749,#1750,#1751));
#1753=FACE_OUTER_BOUND('863',#1752,.F.);
#1754=ADVANCED_FACE('863',(#1753),#1747,.T.);
#1755=CARTESIAN_POINT('',(9.499999999998E-3,3.156E-1,0.E0));
#1756=DIRECTION('',(9.054589359596E-1,4.244338762292E-1,0.E0));
#1757=DIRECTION('',(0.E0,0.E0,-1.E0));
#1758=AXIS2_PLACEMENT_3D('',#1755,#1756,#1757);
#1759=PLANE('860',#1758);
#1760=ORIENTED_EDGE('761',*,*,#1681,.F.);
#1762=ORIENTED_EDGE('771',*,*,#1761,.F.);
#1764=ORIENTED_EDGE('757',*,*,#1763,.T.);
#1766=ORIENTED_EDGE('760',*,*,#1765,.T.);
#1767=EDGE_LOOP('860',(#1760,#1762,#1764,#1766));
#1768=FACE_OUTER_BOUND('860',#1767,.F.);
#1769=ADVANCED_FACE('860',(#1768),#1759,.T.);
#1770=CARTESIAN_POINT('',(0.E0,3.156E-1,9.499999999998E-3));
#1771=DIRECTION('',(0.E0,4.244338762292E-1,9.054589359596E-1));
#1772=DIRECTION('',(-1.E0,0.E0,0.E0));
#1773=AXIS2_PLACEMENT_3D('',#1770,#1771,#1772);
#1774=PLANE('867',#1773);
#1775=ORIENTED_EDGE('772',*,*,#1654,.F.);
#1777=ORIENTED_EDGE('770',*,*,#1776,.T.);
#1779=ORIENTED_EDGE('758',*,*,#1778,.T.);
#1780=ORIENTED_EDGE('771',*,*,#1761,.T.);
#1781=EDGE_LOOP('867',(#1775,#1777,#1779,#1780));
#1782=FACE_OUTER_BOUND('867',#1781,.F.);
#1783=ADVANCED_FACE('867',(#1782),#1774,.T.);
#1784=CARTESIAN_POINT('',(-9.499999999998E-3,3.156E-1,0.E0));
#1785=DIRECTION('',(9.054589359596E-1,-4.244338762292E-1,0.E0));
#1786=DIRECTION('',(0.E0,0.E0,-1.E0));
#1787=AXIS2_PLACEMENT_3D('',#1784,#1785,#1786);
#1788=PLANE('866',#1787);
#1789=ORIENTED_EDGE('767',*,*,#1626,.T.);
#1791=ORIENTED_EDGE('755',*,*,#1790,.T.);
#1793=ORIENTED_EDGE('759',*,*,#1792,.T.);
#1794=ORIENTED_EDGE('770',*,*,#1776,.F.);
#1795=EDGE_LOOP('866',(#1789,#1791,#1793,#1794));
#1796=FACE_OUTER_BOUND('866',#1795,.F.);
#1797=ADVANCED_FACE('866',(#1796),#1788,.F.);
#1798=CARTESIAN_POINT('',(0.E0,3.156E-1,-9.499999999998E-3));
#1799=DIRECTION('',(0.E0,-4.244338762292E-1,9.054589359596E-1));
#1800=DIRECTION('',(-1.E0,0.E0,0.E0));
#1801=AXIS2_PLACEMENT_3D('',#1798,#1799,#1800);
#1802=PLANE('858',#1801);
#1804=ORIENTED_EDGE('756',*,*,#1803,.F.);
#1805=ORIENTED_EDGE('755',*,*,#1790,.F.);
#1806=ORIENTED_EDGE('752',*,*,#1598,.T.);
#1807=ORIENTED_EDGE('760',*,*,#1765,.F.);
#1808=EDGE_LOOP('858',(#1804,#1805,#1806,#1807));
#1809=FACE_OUTER_BOUND('858',#1808,.F.);
#1810=ADVANCED_FACE('858',(#1809),#1802,.F.);
#1811=CARTESIAN_POINT('',(0.E0,3.22E-1,0.E0));
#1812=DIRECTION('',(0.E0,1.E0,0.E0));
#1813=DIRECTION('',(1.E0,0.E0,0.E0));
#1814=AXIS2_PLACEMENT_3D('',#1811,#1812,#1813);
#1815=PLANE('859',#1814);
#1816=ORIENTED_EDGE('756',*,*,#1803,.T.);
#1817=ORIENTED_EDGE('757',*,*,#1763,.F.);
#1818=ORIENTED_EDGE('758',*,*,#1778,.F.);
#1819=ORIENTED_EDGE('759',*,*,#1792,.F.);
#1820=EDGE_LOOP('859',(#1816,#1817,#1818,#1819));
#1821=FACE_OUTER_BOUND('859',#1820,.F.);
#1822=ADVANCED_FACE('859',(#1821),#1815,.T.);
#1823=CARTESIAN_POINT('',(1.E-1,9.7E-2,-1.25E-2));
#1824=DIRECTION('',(0.E0,0.E0,1.E0));
#1825=DIRECTION('',(-1.E0,0.E0,0.E0));
#1826=AXIS2_PLACEMENT_3D('',#1823,#1824,#1825);
#1827=PLANE('871',#1826);
#1828=ORIENTED_EDGE('911',*,*,#998,.T.);
#1830=ORIENTED_EDGE('923',*,*,#1829,.F.);
#1832=ORIENTED_EDGE('781',*,*,#1831,.T.);
#1834=ORIENTED_EDGE('920',*,*,#1833,.F.);
#1835=EDGE_LOOP('871',(#1828,#1830,#1832,#1834));
#1836=FACE_OUTER_BOUND('871',#1835,.F.);
#1837=ADVANCED_FACE('871',(#1836),#1827,.F.);
#1838=CARTESIAN_POINT('',(1.E-1,9.7E-2,-1.25E-2));
#1839=DIRECTION('',(0.E0,0.E0,1.E0));
#1840=DIRECTION('',(-1.E0,0.E0,0.E0));
#1841=AXIS2_PLACEMENT_3D('',#1838,#1839,#1840);
#1842=PLANE('871',#1841);
#1843=ORIENTED_EDGE('915',*,*,#1257,.F.);
#1845=ORIENTED_EDGE('919',*,*,#1844,.F.);
#1847=ORIENTED_EDGE('780',*,*,#1846,.F.);
#1849=ORIENTED_EDGE('924',*,*,#1848,.F.);
#1850=EDGE_LOOP('871',(#1843,#1845,#1847,#1849));
#1851=FACE_OUTER_BOUND('871',#1850,.F.);
#1852=ADVANCED_FACE('871',(#1851),#1842,.F.);
#1853=CARTESIAN_POINT('',(8.75E-2,9.7E-2,0.E0));
#1854=DIRECTION('',(1.E0,0.E0,0.E0));
#1855=DIRECTION('',(0.E0,0.E0,1.E0));
#1856=AXIS2_PLACEMENT_3D('',#1853,#1854,#1855);
#1857=PLANE('879',#1856);
#1858=ORIENTED_EDGE('913',*,*,#1004,.T.);
#1860=ORIENTED_EDGE('925',*,*,#1859,.F.);
#1862=ORIENTED_EDGE('796',*,*,#1861,.T.);
#1863=ORIENTED_EDGE('923',*,*,#1829,.T.);
#1864=EDGE_LOOP('879',(#1858,#1860,#1862,#1863));
#1865=FACE_OUTER_BOUND('879',#1864,.F.);
#1866=ADVANCED_FACE('879',(#1865),#1857,.F.);
#1867=CARTESIAN_POINT('',(8.75E-2,9.7E-2,0.E0));
#1868=DIRECTION('',(1.E0,0.E0,0.E0));
#1869=DIRECTION('',(0.E0,0.E0,1.E0));
#1870=AXIS2_PLACEMENT_3D('',#1867,#1868,#1869);
#1871=PLANE('879',#1870);
#1872=ORIENTED_EDGE('917',*,*,#1259,.F.);
#1873=ORIENTED_EDGE('924',*,*,#1848,.T.);
#1875=ORIENTED_EDGE('795',*,*,#1874,.F.);
#1877=ORIENTED_EDGE('926',*,*,#1876,.F.);
#1878=EDGE_LOOP('879',(#1872,#1873,#1875,#1877));
#1879=FACE_OUTER_BOUND('879',#1878,.F.);
#1880=ADVANCED_FACE('879',(#1879),#1871,.F.);
#1881=CARTESIAN_POINT('',(1.E-1,9.7E-2,1.25E-2));
#1882=DIRECTION('',(0.E0,0.E0,1.E0));
#1883=DIRECTION('',(1.E0,0.E0,0.E0));
#1884=AXIS2_PLACEMENT_3D('',#1881,#1882,#1883);
#1885=PLANE('882',#1884);
#1886=ORIENTED_EDGE('914',*,*,#1002,.T.);
#1888=ORIENTED_EDGE('922',*,*,#1887,.T.);
#1890=ORIENTED_EDGE('801',*,*,#1889,.T.);
#1891=ORIENTED_EDGE('925',*,*,#1859,.T.);
#1892=EDGE_LOOP('882',(#1886,#1888,#1890,#1891));
#1893=FACE_OUTER_BOUND('882',#1892,.F.);
#1894=ADVANCED_FACE('882',(#1893),#1885,.T.);
#1895=CARTESIAN_POINT('',(1.E-1,9.7E-2,1.25E-2));
#1896=DIRECTION('',(0.E0,0.E0,1.E0));
#1897=DIRECTION('',(1.E0,0.E0,0.E0));
#1898=AXIS2_PLACEMENT_3D('',#1895,#1896,#1897);
#1899=PLANE('882',#1898);
#1900=ORIENTED_EDGE('918',*,*,#1261,.F.);
#1901=ORIENTED_EDGE('926',*,*,#1876,.T.);
#1903=ORIENTED_EDGE('800',*,*,#1902,.T.);
#1905=ORIENTED_EDGE('921',*,*,#1904,.T.);
#1906=EDGE_LOOP('882',(#1900,#1901,#1903,#1905));
#1907=FACE_OUTER_BOUND('882',#1906,.F.);
#1908=ADVANCED_FACE('882',(#1907),#1899,.T.);
#1909=CARTESIAN_POINT('',(1.125E-1,9.7E-2,0.E0));
#1910=DIRECTION('',(1.E0,0.E0,0.E0));
#1911=DIRECTION('',(0.E0,0.E0,-1.E0));
#1912=AXIS2_PLACEMENT_3D('',#1909,#1910,#1911);
#1913=PLANE('875',#1912);
#1914=ORIENTED_EDGE('912',*,*,#1000,.T.);
#1915=ORIENTED_EDGE('920',*,*,#1833,.T.);
#1917=ORIENTED_EDGE('790',*,*,#1916,.F.);
#1918=ORIENTED_EDGE('922',*,*,#1887,.F.);
#1919=EDGE_LOOP('875',(#1914,#1915,#1917,#1918));
#1920=FACE_OUTER_BOUND('875',#1919,.F.);
#1921=ADVANCED_FACE('875',(#1920),#1913,.T.);
#1922=CARTESIAN_POINT('',(1.125E-1,9.7E-2,0.E0));
#1923=DIRECTION('',(1.E0,0.E0,0.E0));
#1924=DIRECTION('',(0.E0,0.E0,-1.E0));
#1925=AXIS2_PLACEMENT_3D('',#1922,#1923,#1924);
#1926=PLANE('875',#1925);
#1927=ORIENTED_EDGE('916',*,*,#1263,.F.);
#1928=ORIENTED_EDGE('921',*,*,#1904,.F.);
#1930=ORIENTED_EDGE('789',*,*,#1929,.T.);
#1931=ORIENTED_EDGE('919',*,*,#1844,.T.);
#1932=EDGE_LOOP('875',(#1927,#1928,#1930,#1931));
#1933=FACE_OUTER_BOUND('875',#1932,.F.);
#1934=ADVANCED_FACE('875',(#1933),#1926,.T.);
#1935=CARTESIAN_POINT('',(1.095E-1,-1.216E-1,0.E0));
#1936=DIRECTION('',(9.054589359617E-1,-4.244338762246E-1,0.E0));
#1937=DIRECTION('',(0.E0,0.E0,-1.E0));
#1938=AXIS2_PLACEMENT_3D('',#1935,#1936,#1937);
#1939=PLANE('876',#1938);
#1941=ORIENTED_EDGE('778',*,*,#1940,.T.);
#1943=ORIENTED_EDGE('792',*,*,#1942,.F.);
#1944=ORIENTED_EDGE('790',*,*,#1916,.T.);
#1946=ORIENTED_EDGE('779',*,*,#1945,.T.);
#1947=EDGE_LOOP('876',(#1941,#1943,#1944,#1946));
#1948=FACE_OUTER_BOUND('876',#1947,.F.);
#1949=ADVANCED_FACE('876',(#1948),#1939,.T.);
#1950=CARTESIAN_POINT('',(1.E-1,-1.28E-1,0.E0));
#1951=DIRECTION('',(0.E0,1.E0,0.E0));
#1952=DIRECTION('',(1.E0,0.E0,0.E0));
#1953=AXIS2_PLACEMENT_3D('',#1950,#1951,#1952);
#1954=PLANE('869',#1953);
#1956=ORIENTED_EDGE('775',*,*,#1955,.F.);
#1958=ORIENTED_EDGE('776',*,*,#1957,.F.);
#1960=ORIENTED_EDGE('777',*,*,#1959,.F.);
#1961=ORIENTED_EDGE('778',*,*,#1940,.F.);
#1962=EDGE_LOOP('869',(#1956,#1958,#1960,#1961));
#1963=FACE_OUTER_BOUND('869',#1962,.F.);
#1964=ADVANCED_FACE('869',(#1963),#1954,.F.);
#1965=CARTESIAN_POINT('',(1.E-1,-1.216E-1,-9.499999999998E-3));
#1966=DIRECTION('',(0.E0,4.244338762292E-1,9.054589359596E-1));
#1967=DIRECTION('',(-1.E0,0.E0,0.E0));
#1968=AXIS2_PLACEMENT_3D('',#1965,#1966,#1967);
#1969=PLANE('870',#1968);
#1970=ORIENTED_EDGE('781',*,*,#1831,.F.);
#1972=ORIENTED_EDGE('794',*,*,#1971,.F.);
#1973=ORIENTED_EDGE('775',*,*,#1955,.T.);
#1974=ORIENTED_EDGE('779',*,*,#1945,.F.);
#1975=EDGE_LOOP('870',(#1970,#1972,#1973,#1974));
#1976=FACE_OUTER_BOUND('870',#1975,.F.);
#1977=ADVANCED_FACE('870',(#1976),#1969,.F.);
#1978=CARTESIAN_POINT('',(9.05E-2,-1.216E-1,0.E0));
#1979=DIRECTION('',(9.054589359597E-1,4.244338762290E-1,0.E0));
#1980=DIRECTION('',(0.E0,0.E0,-1.E0));
#1981=AXIS2_PLACEMENT_3D('',#1978,#1979,#1980);
#1982=PLANE('878',#1981);
#1983=ORIENTED_EDGE('796',*,*,#1861,.F.);
#1985=ORIENTED_EDGE('793',*,*,#1984,.T.);
#1986=ORIENTED_EDGE('776',*,*,#1957,.T.);
#1987=ORIENTED_EDGE('794',*,*,#1971,.T.);
#1988=EDGE_LOOP('878',(#1983,#1985,#1986,#1987));
#1989=FACE_OUTER_BOUND('878',#1988,.F.);
#1990=ADVANCED_FACE('878',(#1989),#1982,.F.);
#1991=CARTESIAN_POINT('',(1.E-1,-1.216E-1,9.499999999998E-3));
#1992=DIRECTION('',(0.E0,-4.244338762292E-1,9.054589359596E-1));
#1993=DIRECTION('',(-1.E0,0.E0,0.E0));
#1994=AXIS2_PLACEMENT_3D('',#1991,#1992,#1993);
#1995=PLANE('877',#1994);
#1996=ORIENTED_EDGE('777',*,*,#1959,.T.);
#1997=ORIENTED_EDGE('793',*,*,#1984,.F.);
#1998=ORIENTED_EDGE('801',*,*,#1889,.F.);
#1999=ORIENTED_EDGE('792',*,*,#1942,.T.);
#2000=EDGE_LOOP('877',(#1996,#1997,#1998,#1999));
#2001=FACE_OUTER_BOUND('877',#2000,.F.);
#2002=ADVANCED_FACE('877',(#2001),#1995,.T.);
#2003=CARTESIAN_POINT('',(1.095E-1,3.156E-1,0.E0));
#2004=DIRECTION('',(9.054589359617E-1,4.244338762246E-1,0.E0));
#2005=DIRECTION('',(0.E0,0.E0,-1.E0));
#2006=AXIS2_PLACEMENT_3D('',#2003,#2004,#2005);
#2007=PLANE('874',#2006);
#2008=ORIENTED_EDGE('789',*,*,#1929,.F.);
#2010=ORIENTED_EDGE('799',*,*,#2009,.F.);
#2012=ORIENTED_EDGE('785',*,*,#2011,.T.);
#2014=ORIENTED_EDGE('788',*,*,#2013,.T.);
#2015=EDGE_LOOP('874',(#2008,#2010,#2012,#2014));
#2016=FACE_OUTER_BOUND('874',#2015,.F.);
#2017=ADVANCED_FACE('874',(#2016),#2007,.T.);
#2018=CARTESIAN_POINT('',(1.E-1,3.156E-1,9.499999999998E-3));
#2019=DIRECTION('',(0.E0,4.244338762292E-1,9.054589359596E-1));
#2020=DIRECTION('',(-1.E0,0.E0,0.E0));
#2021=AXIS2_PLACEMENT_3D('',#2018,#2019,#2020);
#2022=PLANE('881',#2021);
#2023=ORIENTED_EDGE('800',*,*,#1902,.F.);
#2025=ORIENTED_EDGE('798',*,*,#2024,.T.);
#2027=ORIENTED_EDGE('786',*,*,#2026,.T.);
#2028=ORIENTED_EDGE('799',*,*,#2009,.T.);
#2029=EDGE_LOOP('881',(#2023,#2025,#2027,#2028));
#2030=FACE_OUTER_BOUND('881',#2029,.F.);
#2031=ADVANCED_FACE('881',(#2030),#2022,.T.);
#2032=CARTESIAN_POINT('',(9.05E-2,3.156E-1,0.E0));
#2033=DIRECTION('',(9.054589359597E-1,-4.244338762290E-1,0.E0));
#2034=DIRECTION('',(0.E0,0.E0,-1.E0));
#2035=AXIS2_PLACEMENT_3D('',#2032,#2033,#2034);
#2036=PLANE('880',#2035);
#2037=ORIENTED_EDGE('795',*,*,#1874,.T.);
#2039=ORIENTED_EDGE('783',*,*,#2038,.T.);
#2041=ORIENTED_EDGE('787',*,*,#2040,.T.);
#2042=ORIENTED_EDGE('798',*,*,#2024,.F.);
#2043=EDGE_LOOP('880',(#2037,#2039,#2041,#2042));
#2044=FACE_OUTER_BOUND('880',#2043,.F.);
#2045=ADVANCED_FACE('880',(#2044),#2036,.F.);
#2046=CARTESIAN_POINT('',(1.E-1,3.156E-1,-9.499999999998E-3));
#2047=DIRECTION('',(0.E0,-4.244338762292E-1,9.054589359596E-1));
#2048=DIRECTION('',(-1.E0,0.E0,0.E0));
#2049=AXIS2_PLACEMENT_3D('',#2046,#2047,#2048);
#2050=PLANE('872',#2049);
#2052=ORIENTED_EDGE('784',*,*,#2051,.F.);
#2053=ORIENTED_EDGE('783',*,*,#2038,.F.);
#2054=ORIENTED_EDGE('780',*,*,#1846,.T.);
#2055=ORIENTED_EDGE('788',*,*,#2013,.F.);
#2056=EDGE_LOOP('872',(#2052,#2053,#2054,#2055));
#2057=FACE_OUTER_BOUND('872',#2056,.F.);
#2058=ADVANCED_FACE('872',(#2057),#2050,.F.);
#2059=CARTESIAN_POINT('',(1.E-1,3.22E-1,0.E0));
#2060=DIRECTION('',(0.E0,1.E0,0.E0));
#2061=DIRECTION('',(1.E0,0.E0,0.E0));
#2062=AXIS2_PLACEMENT_3D('',#2059,#2060,#2061);
#2063=PLANE('873',#2062);
#2064=ORIENTED_EDGE('784',*,*,#2051,.T.);
#2065=ORIENTED_EDGE('785',*,*,#2011,.F.);
#2066=ORIENTED_EDGE('786',*,*,#2026,.F.);
#2067=ORIENTED_EDGE('787',*,*,#2040,.F.);
#2068=EDGE_LOOP('873',(#2064,#2065,#2066,#2067));
#2069=FACE_OUTER_BOUND('873',#2068,.F.);
#2070=ADVANCED_FACE('873',(#2069),#2063,.T.);
#2071=CLOSED_SHELL('',(#1008,#1023,#1036,#1046,#1061,#1074,#1084,#1099,#1112,
#1122,#1137,#1150,#1160,#1175,#1189,#1267,#1282,#1295,#1305,#1320,#1333,#1343,
#1358,#1371,#1381,#1396,#1409,#1419,#1433,#1446,#1459,#1472,#1485,#1498,#1510,
#1523,#1536,#1549,#1562,#1574,#1589,#1604,#1618,#1632,#1646,#1660,#1673,#1686,
#1701,#1716,#1729,#1742,#1754,#1769,#1783,#1797,#1810,#1822,#1837,#1852,#1866,
#1880,#1894,#1908,#1921,#1934,#1949,#1964,#1977,#1990,#2002,#2017,#2031,#2045,
#2058,#2070));
#2072=MANIFOLD_SOLID_BREP('',#2071);
#2073=DIMENSIONAL_EXPONENTS(1.E0,0.E0,0.E0,0.E0,0.E0,0.E0,0.E0);
#2075=LENGTH_MEASURE_WITH_UNIT(LENGTH_MEASURE(2.54E1),#2074);
#2076=(CONVERSION_BASED_UNIT('INCH',#2075)LENGTH_UNIT()NAMED_UNIT(#2073));
#2077=DIMENSIONAL_EXPONENTS(0.E0,0.E0,0.E0,0.E0,0.E0,0.E0,0.E0);
#2079=PLANE_ANGLE_MEASURE_WITH_UNIT(PLANE_ANGLE_MEASURE(1.745329251994E-2),
#2078);
#2080=(CONVERSION_BASED_UNIT('DEGREE',#2079)NAMED_UNIT(*)PLANE_ANGLE_UNIT());
#2082=UNCERTAINTY_MEASURE_WITH_UNIT(LENGTH_MEASURE(5.015026205340E-5),#2076,
'closure',
'Maximum model space distance between geometric entities at asserted connectivities');
#2083=(GEOMETRIC_REPRESENTATION_CONTEXT(3)GLOBAL_UNCERTAINTY_ASSIGNED_CONTEXT((
#2082))GLOBAL_UNIT_ASSIGNED_CONTEXT((#2076,#2080,#2081))REPRESENTATION_CONTEXT(
'ID1','3'));
#2085=APPLICATION_CONTEXT(
'CONFIGURATION CONTROLLED 3D DESIGNS OF MECHANICAL PARTS AND ASSEMBLIES');
#2086=APPLICATION_PROTOCOL_DEFINITION('international standard',
'config_control_design',1994,#2085);
#2087=DESIGN_CONTEXT('',#2085,'design');
#2088=MECHANICAL_CONTEXT('',#2085,'mechanical');
#2089=PRODUCT('68001-X02','68001-X02','NOT SPECIFIED',(#2088));
#2090=PRODUCT_DEFINITION_FORMATION_WITH_SPECIFIED_SOURCE('1','LAST_VERSION',
#2089,.MADE.);
#2094=PRODUCT_CATEGORY('part','');
#2095=PRODUCT_RELATED_PRODUCT_CATEGORY('detail','',(#2089));
#2096=PRODUCT_CATEGORY_RELATIONSHIP('','',#2094,#2095);
#2097=SECURITY_CLASSIFICATION_LEVEL('unclassified');
#2098=SECURITY_CLASSIFICATION('','',#2097);
#2099=CC_DESIGN_SECURITY_CLASSIFICATION(#2098,(#2090));
#2100=APPROVAL_STATUS('approved');
#2101=APPROVAL(#2100,'');
#2102=CC_DESIGN_APPROVAL(#2101,(#2098,#2090,#2091));
#2103=CALENDAR_DATE(119,20,9);
#2104=COORDINATED_UNIVERSAL_TIME_OFFSET(5,30,.AHEAD.);
#2105=LOCAL_TIME(10,42,3.9E1,#2104);
#2106=DATE_AND_TIME(#2103,#2105);
#2107=APPROVAL_DATE_TIME(#2106,#2101);
#2108=DATE_TIME_ROLE('creation_date');
#2109=CC_DESIGN_DATE_AND_TIME_ASSIGNMENT(#2106,#2108,(#2091));
#2110=DATE_TIME_ROLE('classification_date');
#2111=CC_DESIGN_DATE_AND_TIME_ASSIGNMENT(#2106,#2110,(#2098));
#2112=PERSON('UNSPECIFIED','UNSPECIFIED',$,$,$,$);
#2113=ORGANIZATION('UNSPECIFIED','UNSPECIFIED','UNSPECIFIED');
#2114=PERSON_AND_ORGANIZATION(#2112,#2113);
#2115=APPROVAL_ROLE('approver');
#2116=APPROVAL_PERSON_ORGANIZATION(#2114,#2101,#2115);
#2117=PERSON_AND_ORGANIZATION_ROLE('creator');
#2118=CC_DESIGN_PERSON_AND_ORGANIZATION_ASSIGNMENT(#2114,#2117,(#2090,#2091));
#2119=PERSON_AND_ORGANIZATION_ROLE('design_supplier');
#2120=CC_DESIGN_PERSON_AND_ORGANIZATION_ASSIGNMENT(#2114,#2119,(#2090));
#2121=PERSON_AND_ORGANIZATION_ROLE('classification_officer');
#2122=CC_DESIGN_PERSON_AND_ORGANIZATION_ASSIGNMENT(#2114,#2121,(#2098));
#2123=PERSON_AND_ORGANIZATION_ROLE('design_owner');
#2124=CC_DESIGN_PERSON_AND_ORGANIZATION_ASSIGNMENT(#2114,#2123,(#2089));
#5=CIRCLE('701',#4,8.E-3);
#10=CIRCLE('702',#9,8.E-3);
#15=CIRCLE('699',#14,8.E-3);
#20=CIRCLE('700',#19,8.E-3);
#25=CIRCLE('639',#24,8.E-3);
#30=CIRCLE('640',#29,8.E-3);
#35=CIRCLE('641',#34,8.E-3);
#40=CIRCLE('642',#39,8.E-3);
#117=CIRCLE('743',#116,8.E-3);
#122=CIRCLE('744',#121,8.E-3);
#135=CIRCLE('741',#134,8.E-3);
#140=CIRCLE('742',#139,8.E-3);
#153=CIRCLE('681',#152,8.E-3);
#158=CIRCLE('682',#157,8.E-3);
#171=CIRCLE('683',#170,8.E-3);
#176=CIRCLE('684',#175,8.E-3);
#189=CIRCLE('721',#188,8.E-3);
#194=CIRCLE('722',#193,8.E-3);
#199=CIRCLE('719',#198,8.E-3);
#204=CIRCLE('720',#203,8.E-3);
#209=CIRCLE('659',#208,8.E-3);
#214=CIRCLE('660',#213,8.E-3);
#219=CIRCLE('661',#218,8.E-3);
#224=CIRCLE('662',#223,8.E-3);
#301=CIRCLE('735',#300,8.E-3);
#306=CIRCLE('736',#305,8.E-3);
#319=CIRCLE('733',#318,8.E-3);
#324=CIRCLE('734',#323,8.E-3);
#337=CIRCLE('673',#336,8.E-3);
#342=CIRCLE('674',#341,8.E-3);
#355=CIRCLE('675',#354,8.E-3);
#360=CIRCLE('676',#359,8.E-3);
#934=EDGE_CURVE('888',#724,#895,#44,.T.);
#936=EDGE_CURVE('892',#895,#778,#48,.T.);
#938=EDGE_CURVE('696',#777,#778,#404,.T.);
#940=EDGE_CURVE('697',#777,#780,#52,.T.);
#942=EDGE_CURVE('698',#771,#780,#388,.T.);
#944=EDGE_CURVE('691',#771,#772,#56,.T.);
#946=EDGE_CURVE('692',#774,#772,#380,.T.);
#948=EDGE_CURVE('891',#774,#892,#60,.T.);
#950=EDGE_CURVE('887',#892,#716,#64,.T.);
#952=EDGE_CURVE('632',#715,#716,#424,.T.);
#954=EDGE_CURVE('633',#715,#718,#68,.T.);
#956=EDGE_CURVE('634',#720,#718,#436,.T.);
#958=EDGE_CURVE('635',#720,#722,#72,.T.);
#960=EDGE_CURVE('636',#724,#722,#452,.T.);
#964=EDGE_CURVE('699',#783,#784,#15,.T.);
#966=EDGE_CURVE('700',#784,#783,#20,.T.);
#970=EDGE_CURVE('639',#727,#728,#25,.T.);
#972=EDGE_CURVE('640',#728,#727,#30,.T.);
#976=EDGE_CURVE('641',#731,#732,#35,.T.);
#978=EDGE_CURVE('642',#732,#731,#40,.T.);
#982=EDGE_CURVE('701',#787,#788,#5,.T.);
#984=EDGE_CURVE('702',#788,#787,#10,.T.);
#988=EDGE_CURVE('895',#899,#900,#76,.T.);
#990=EDGE_CURVE('896',#902,#899,#80,.T.);
#992=EDGE_CURVE('898',#904,#902,#84,.T.);
#994=EDGE_CURVE('897',#900,#904,#88,.T.);
#998=EDGE_CURVE('911',#915,#916,#92,.T.);
#1000=EDGE_CURVE('912',#918,#915,#96,.T.);
#1002=EDGE_CURVE('914',#920,#918,#100,.T.);
#1004=EDGE_CURVE('913',#916,#920,#104,.T.);
#1015=EDGE_CURVE('745',#824,#787,#112,.T.);
#1017=EDGE_CURVE('743',#823,#824,#117,.T.);
#1019=EDGE_CURVE('746',#788,#823,#108,.T.);
#1031=EDGE_CURVE('744',#824,#823,#122,.T.);
#1053=EDGE_CURVE('739',#818,#783,#130,.T.);
#1055=EDGE_CURVE('741',#820,#818,#135,.T.);
#1057=EDGE_CURVE('740',#784,#820,#126,.T.);
#1069=EDGE_CURVE('742',#818,#820,#140,.T.);
#1091=EDGE_CURVE('679',#762,#727,#148,.T.);
#1093=EDGE_CURVE('681',#764,#762,#153,.T.);
#1095=EDGE_CURVE('680',#728,#764,#144,.T.);
#1107=EDGE_CURVE('682',#762,#764,#158,.T.);
#1129=EDGE_CURVE('685',#768,#731,#166,.T.);
#1131=EDGE_CURVE('683',#767,#768,#171,.T.);
#1133=EDGE_CURVE('686',#732,#767,#162,.T.);
#1145=EDGE_CURVE('684',#768,#767,#176,.T.);
#1166=EDGE_CURVE('886',#895,#896,#180,.T.);
#1169=EDGE_CURVE('665',#736,#724,#448,.T.);
#1171=EDGE_CURVE('890',#896,#736,#248,.T.);
#1182=EDGE_CURVE('893',#798,#896,#244,.T.);
#1184=EDGE_CURVE('726',#798,#778,#184,.T.);
#1195=EDGE_CURVE('889',#744,#891,#228,.T.);
#1197=EDGE_CURVE('894',#891,#800,#232,.T.);
#1199=EDGE_CURVE('718',#791,#800,#372,.T.);
#1201=EDGE_CURVE('711',#791,#792,#236,.T.);
#1203=EDGE_CURVE('712',#794,#792,#392,.T.);
#1205=EDGE_CURVE('713',#794,#796,#240,.T.);
#1207=EDGE_CURVE('714',#798,#796,#408,.T.);
#1211=EDGE_CURVE('654',#735,#736,#456,.T.);
#1213=EDGE_CURVE('655',#735,#738,#252,.T.);
#1215=EDGE_CURVE('656',#740,#738,#440,.T.);
#1217=EDGE_CURVE('657',#740,#742,#256,.T.);
#1219=EDGE_CURVE('658',#744,#742,#416,.T.);
#1223=EDGE_CURVE('719',#803,#804,#199,.T.);
#1225=EDGE_CURVE('720',#804,#803,#204,.T.);
#1229=EDGE_CURVE('659',#747,#748,#209,.T.);
#1231=EDGE_CURVE('660',#748,#747,#214,.T.);
#1235=EDGE_CURVE('661',#751,#752,#219,.T.);
#1237=EDGE_CURVE('662',#752,#751,#224,.T.);
#1241=EDGE_CURVE('721',#807,#808,#189,.T.);
#1243=EDGE_CURVE('722',#808,#807,#194,.T.);
#1247=EDGE_CURVE('899',#907,#908,#260,.T.);
#1249=EDGE_CURVE('901',#908,#912,#264,.T.);
#1251=EDGE_CURVE('902',#912,#910,#268,.T.);
#1253=EDGE_CURVE('900',#910,#907,#272,.T.);
#1257=EDGE_CURVE('915',#923,#924,#276,.T.);
#1259=EDGE_CURVE('917',#924,#928,#280,.T.);
#1261=EDGE_CURVE('918',#928,#926,#284,.T.);
#1263=EDGE_CURVE('916',#926,#923,#288,.T.);
#1274=EDGE_CURVE('737',#816,#807,#296,.T.);
#1276=EDGE_CURVE('735',#815,#816,#301,.T.);
#1278=EDGE_CURVE('738',#808,#815,#292,.T.);
#1290=EDGE_CURVE('736',#816,#815,#306,.T.);
#1312=EDGE_CURVE('731',#810,#803,#314,.T.);
#1314=EDGE_CURVE('733',#812,#810,#319,.T.);
#1316=EDGE_CURVE('732',#804,#812,#310,.T.);
#1328=EDGE_CURVE('734',#810,#812,#324,.T.);
#1350=EDGE_CURVE('671',#754,#747,#332,.T.);
#1352=EDGE_CURVE('673',#756,#754,#337,.T.);
#1354=EDGE_CURVE('672',#748,#756,#328,.T.);
#1366=EDGE_CURVE('674',#754,#756,#342,.T.);
#1388=EDGE_CURVE('677',#760,#751,#350,.T.);
#1390=EDGE_CURVE('675',#759,#760,#355,.T.);
#1392=EDGE_CURVE('678',#752,#759,#346,.T.);
#1404=EDGE_CURVE('676',#760,#759,#360,.T.);
#1425=EDGE_CURVE('885',#891,#892,#364,.T.);
#1428=EDGE_CURVE('669',#716,#744,#412,.T.);
#1441=EDGE_CURVE('730',#800,#774,#376,.T.);
#1452=EDGE_CURVE('729',#772,#791,#368,.T.);
#1466=EDGE_CURVE('723',#792,#771,#384,.T.);
#1480=EDGE_CURVE('724',#794,#780,#396,.T.);
#1492=EDGE_CURVE('725',#796,#777,#400,.T.);
#1518=EDGE_CURVE('670',#742,#715,#420,.T.);
#1532=EDGE_CURVE('668',#740,#718,#428,.T.);
#1542=EDGE_CURVE('667',#738,#720,#432,.T.);
#1558=EDGE_CURVE('666',#735,#722,#444,.T.);
#1581=EDGE_CURVE('907',#840,#900,#468,.T.);
#1583=EDGE_CURVE('753',#840,#834,#460,.T.);
#1585=EDGE_CURVE('904',#899,#834,#500,.T.);
#1596=EDGE_CURVE('903',#838,#907,#508,.T.);
#1598=EDGE_CURVE('752',#837,#838,#580,.T.);
#1600=EDGE_CURVE('908',#908,#837,#472,.T.);
#1611=EDGE_CURVE('909',#854,#904,#484,.T.);
#1613=EDGE_CURVE('768',#854,#840,#464,.T.);
#1626=EDGE_CURVE('767',#856,#837,#568,.T.);
#1628=EDGE_CURVE('910',#912,#856,#488,.T.);
#1639=EDGE_CURVE('906',#902,#852,#476,.T.);
#1641=EDGE_CURVE('773',#852,#854,#480,.T.);
#1654=EDGE_CURVE('772',#856,#850,#492,.T.);
#1656=EDGE_CURVE('905',#850,#910,#496,.T.);
#1668=EDGE_CURVE('762',#852,#834,#516,.T.);
#1681=EDGE_CURVE('761',#850,#838,#504,.T.);
#1692=EDGE_CURVE('750',#828,#832,#512,.T.);
#1694=EDGE_CURVE('764',#852,#832,#544,.T.);
#1697=EDGE_CURVE('751',#834,#828,#520,.T.);
#1707=EDGE_CURVE('747',#827,#828,#524,.T.);
#1709=EDGE_CURVE('748',#830,#827,#532,.T.);
#1711=EDGE_CURVE('749',#832,#830,#540,.T.);
#1723=EDGE_CURVE('766',#827,#840,#536,.T.);
#1736=EDGE_CURVE('765',#854,#830,#528,.T.);
#1761=EDGE_CURVE('771',#846,#850,#564,.T.);
#1763=EDGE_CURVE('757',#846,#844,#548,.T.);
#1765=EDGE_CURVE('760',#844,#838,#552,.T.);
#1776=EDGE_CURVE('770',#856,#848,#556,.T.);
#1778=EDGE_CURVE('758',#848,#846,#560,.T.);
#1790=EDGE_CURVE('755',#837,#842,#572,.T.);
#1792=EDGE_CURVE('759',#842,#848,#576,.T.);
#1803=EDGE_CURVE('756',#842,#844,#584,.T.);
#1829=EDGE_CURVE('923',#872,#916,#596,.T.);
#1831=EDGE_CURVE('781',#872,#866,#588,.T.);
#1833=EDGE_CURVE('920',#915,#866,#628,.T.);
#1844=EDGE_CURVE('919',#870,#923,#636,.T.);
#1846=EDGE_CURVE('780',#869,#870,#708,.T.);
#1848=EDGE_CURVE('924',#924,#869,#600,.T.);
#1859=EDGE_CURVE('925',#886,#920,#612,.T.);
#1861=EDGE_CURVE('796',#886,#872,#592,.T.);
#1874=EDGE_CURVE('795',#888,#869,#696,.T.);
#1876=EDGE_CURVE('926',#928,#888,#616,.T.);
#1887=EDGE_CURVE('922',#918,#884,#604,.T.);
#1889=EDGE_CURVE('801',#884,#886,#608,.T.);
#1902=EDGE_CURVE('800',#888,#882,#620,.T.);
#1904=EDGE_CURVE('921',#882,#926,#624,.T.);
#1916=EDGE_CURVE('790',#884,#866,#644,.T.);
#1929=EDGE_CURVE('789',#882,#870,#632,.T.);
#1940=EDGE_CURVE('778',#860,#864,#640,.T.);
#1942=EDGE_CURVE('792',#884,#864,#672,.T.);
#1945=EDGE_CURVE('779',#866,#860,#648,.T.);
#1955=EDGE_CURVE('775',#859,#860,#652,.T.);
#1957=EDGE_CURVE('776',#862,#859,#660,.T.);
#1959=EDGE_CURVE('777',#864,#862,#668,.T.);
#1971=EDGE_CURVE('794',#859,#872,#664,.T.);
#1984=EDGE_CURVE('793',#886,#862,#656,.T.);
#2009=EDGE_CURVE('799',#878,#882,#692,.T.);
#2011=EDGE_CURVE('785',#878,#876,#676,.T.);
#2013=EDGE_CURVE('788',#876,#870,#680,.T.);
#2024=EDGE_CURVE('798',#888,#880,#684,.T.);
#2026=EDGE_CURVE('786',#880,#878,#688,.T.);
#2038=EDGE_CURVE('783',#869,#874,#700,.T.);
#2040=EDGE_CURVE('787',#874,#880,#704,.T.);
#2051=EDGE_CURVE('784',#874,#876,#712,.T.);
#2074=(LENGTH_UNIT()NAMED_UNIT(*)SI_UNIT(.MILLI.,.METRE.));
#2078=(NAMED_UNIT(*)PLANE_ANGLE_UNIT()SI_UNIT($,.RADIAN.));
#2081=(NAMED_UNIT(*)SI_UNIT($,.STERADIAN.)SOLID_ANGLE_UNIT());
#2084=ADVANCED_BREP_SHAPE_REPRESENTATION('',(#2072),#2083);
#2091=PRODUCT_DEFINITION('design','',#2090,#2087);
#2092=PRODUCT_DEFINITION_SHAPE('','SHAPE FOR 68001-X02.',#2091);
#2093=SHAPE_DEFINITION_REPRESENTATION(#2092,#2084);
ENDSEC;
END-ISO-10303-21;
